%TF.GenerationSoftware,KiCad,Pcbnew,8.0.3-1.fc40*%
%TF.CreationDate,2024-07-04T16:01:23-04:00*%
%TF.ProjectId,boards_v3,626f6172-6473-45f7-9633-2e6b69636164,rev?*%
%TF.SameCoordinates,Original*%
%TF.FileFunction,Copper,L3,Inr*%
%TF.FilePolarity,Positive*%
%FSLAX46Y46*%
G04 Gerber Fmt 4.6, Leading zero omitted, Abs format (unit mm)*
G04 Created by KiCad (PCBNEW 8.0.3-1.fc40) date 2024-07-04 16:01:23*
%MOMM*%
%LPD*%
G01*
G04 APERTURE LIST*
%TA.AperFunction,ComponentPad*%
%ADD10C,1.600000*%
%TD*%
%TA.AperFunction,ComponentPad*%
%ADD11R,1.600000X1.600000*%
%TD*%
%TA.AperFunction,ComponentPad*%
%ADD12R,1.300000X1.300000*%
%TD*%
%TA.AperFunction,ComponentPad*%
%ADD13C,1.300000*%
%TD*%
%TA.AperFunction,ComponentPad*%
%ADD14C,2.286000*%
%TD*%
%TA.AperFunction,ViaPad*%
%ADD15C,0.600000*%
%TD*%
%TA.AperFunction,Conductor*%
%ADD16C,0.200000*%
%TD*%
G04 APERTURE END LIST*
D10*
%TO.N,unconnected-(U1-VUSB-Pad49)*%
%TO.C,U1*%
X87140001Y-63840000D03*
%TO.N,unconnected-(U1-GND-Pad59)*%
X101059200Y-73489200D03*
%TO.N,unconnected-(U1-GND-Pad58)*%
X98519200Y-73489200D03*
%TO.N,unconnected-(U1-D+-Pad57)*%
X95979200Y-73489200D03*
%TO.N,unconnected-(U1-D--Pad56)*%
X93439200Y-73489200D03*
D11*
%TO.N,unconnected-(U1-5V-Pad55)*%
X90899200Y-73489200D03*
D10*
%TO.N,+5V*%
X84600000Y-61300000D03*
%TO.N,GND*%
X87140000Y-61300000D03*
%TO.N,unconnected-(U1-3V3-Pad46)*%
X89680000Y-61300000D03*
%TO.N,Net-(J5-Pin_26)*%
X92220000Y-61300000D03*
%TO.N,Net-(J5-Pin_25)*%
X94760000Y-61300000D03*
%TO.N,Net-(J5-Pin_24)*%
X97300000Y-61300000D03*
%TO.N,Net-(J5-Pin_23)*%
X99840000Y-61300000D03*
%TO.N,Net-(J5-Pin_22)*%
X102380000Y-61300000D03*
%TO.N,Net-(J5-Pin_21)*%
X104920000Y-61300000D03*
%TO.N,Net-(J5-Pin_20)*%
X107460000Y-61300000D03*
%TO.N,Net-(J5-Pin_19)*%
X110000000Y-61300000D03*
%TO.N,Net-(J5-Pin_18)*%
X112540000Y-61300000D03*
%TO.N,Net-(J5-Pin_17)*%
X115080000Y-61300000D03*
%TO.N,unconnected-(U1-13_SCK_LED-Pad35)*%
X117620000Y-61300000D03*
D11*
%TO.N,unconnected-(U1-GND-Pad1)*%
X84600000Y-76540000D03*
D10*
%TO.N,unconnected-(U1-0_RX1_CRX2_CS1-Pad2)*%
X87140000Y-76540000D03*
%TO.N,unconnected-(U1-1_TX1_CTX2_MISO1-Pad3)*%
X89680000Y-76540000D03*
%TO.N,unconnected-(U1-2_OUT2-Pad4)*%
X92220000Y-76540000D03*
%TO.N,unconnected-(U1-3_LRCLK2-Pad5)*%
X94760000Y-76540000D03*
%TO.N,unconnected-(U1-4_BCLK2-Pad6)*%
X97300000Y-76540000D03*
%TO.N,Net-(J5-Pin_9)*%
X99840000Y-76540000D03*
%TO.N,Net-(J5-Pin_10)*%
X102380000Y-76540000D03*
%TO.N,Net-(J5-Pin_11)*%
X104920000Y-76540000D03*
%TO.N,Net-(J5-Pin_12)*%
X107460000Y-76540000D03*
%TO.N,Net-(J5-Pin_13)*%
X110000000Y-76540000D03*
%TO.N,Net-(J5-Pin_14)*%
X112540000Y-76540000D03*
%TO.N,Net-(J5-Pin_15)*%
X115080000Y-76540000D03*
%TO.N,unconnected-(U1-GND-Pad34)*%
X120160000Y-61300000D03*
%TO.N,Net-(J5-Pin_32)*%
X122700000Y-61300000D03*
%TO.N,Net-(J5-Pin_31)*%
X125240000Y-61300000D03*
%TO.N,unconnected-(U1-39_MISO1_OUT1A-Pad31)*%
X127780000Y-61300000D03*
%TO.N,unconnected-(U1-38_CS1_IN1-Pad30)*%
X130320000Y-61300000D03*
%TO.N,unconnected-(U1-37_CS-Pad29)*%
X132860000Y-61300000D03*
%TO.N,unconnected-(U1-36_CS-Pad28)*%
X135400000Y-61300000D03*
%TO.N,Net-(J6-Pin_4)*%
X137940000Y-61300000D03*
%TO.N,Net-(J6-Pin_5)*%
X140480000Y-61300000D03*
%TO.N,unconnected-(U1-33_MCLK2-Pad25)*%
X143020000Y-61300000D03*
%TO.N,unconnected-(U1-32_OUT1B-Pad24)*%
X143020000Y-76540000D03*
%TO.N,Net-(J5-Pin_5)*%
X140480000Y-76540000D03*
%TO.N,Net-(J5-Pin_6)*%
X137940000Y-76540000D03*
%TO.N,Net-(J5-Pin_7)*%
X135400000Y-76540000D03*
%TO.N,Net-(J5-Pin_16)*%
X117620000Y-76540000D03*
%TO.N,unconnected-(U1-3V3-Pad15)*%
X120160000Y-76540000D03*
%TO.N,Net-(J5-Pin_27)*%
X122700000Y-76540000D03*
%TO.N,Net-(J5-Pin_8)*%
X132860000Y-76540000D03*
%TO.N,Net-(J5-Pin_30)*%
X130320000Y-76540000D03*
%TO.N,Net-(J5-Pin_29)*%
X127780000Y-76540000D03*
%TO.N,Net-(J5-Pin_28)*%
X125240000Y-76540000D03*
D12*
%TO.N,unconnected-(U1-R+-Pad60)*%
X97569999Y-63738400D03*
D13*
%TO.N,unconnected-(U1-R--Pad65)*%
X99570000Y-63738400D03*
%TO.N,unconnected-(U1-LED-Pad61)*%
X97570000Y-65738400D03*
%TO.N,unconnected-(U1-GND-Pad64)*%
X99570000Y-65738401D03*
%TO.N,unconnected-(U1-T+-Pad63)*%
X99570000Y-67738400D03*
%TO.N,unconnected-(U1-T--Pad62)*%
X97570000Y-67738401D03*
D10*
%TO.N,unconnected-(U1-VBAT-Pad50)*%
X130320000Y-73999999D03*
%TO.N,unconnected-(U1-3V3-Pad51)*%
X130320000Y-71460000D03*
%TO.N,unconnected-(U1-GND-Pad52)*%
X130320000Y-68920000D03*
%TO.N,unconnected-(U1-PROGRAM-Pad53)*%
X130320000Y-66380000D03*
%TO.N,unconnected-(U1-ON_OFF-Pad54)*%
X130320000Y-63840001D03*
D13*
%TO.N,unconnected-(U1-D+-Pad67)*%
X85329999Y-70190000D03*
%TO.N,unconnected-(U1-D--Pad66)*%
X85329999Y-67650000D03*
%TD*%
D14*
%TO.N,+3.3V*%
%TO.C,J6*%
X184580000Y-82340000D03*
%TO.N,+5V*%
X187120000Y-82340000D03*
%TO.N,GND*%
X189660000Y-82340000D03*
%TO.N,Net-(J6-Pin_4)*%
X192200000Y-82340000D03*
%TO.N,Net-(J6-Pin_5)*%
X192200000Y-79800000D03*
%TO.N,GND*%
X189660000Y-79800000D03*
%TO.N,+5V*%
X187120000Y-79800000D03*
%TO.N,+3.3V*%
X184580000Y-79800000D03*
%TD*%
%TO.N,Net-(J3-Pin_8)*%
%TO.C,J3*%
X113040000Y-27800000D03*
%TO.N,Net-(J3-Pin_7)*%
X110500000Y-27800000D03*
%TO.N,Net-(J3-Pin_6)*%
X107960000Y-27800000D03*
%TO.N,Net-(J3-Pin_5)*%
X105420001Y-27800000D03*
%TO.N,GND*%
X105420000Y-25260000D03*
%TO.N,unconnected-(J3-Pin_3-Pad3)*%
X107960000Y-25260000D03*
%TO.N,unconnected-(J3-Pin_2-Pad2)*%
X110500000Y-25260000D03*
%TO.N,+3.3V*%
X113040000Y-25260000D03*
%TD*%
%TO.N,Net-(J2-Pin_8)*%
%TO.C,J2*%
X145700000Y-28030000D03*
%TO.N,Net-(J2-Pin_7)*%
X143160000Y-28030000D03*
%TO.N,Net-(J2-Pin_6)*%
X140620000Y-28030000D03*
%TO.N,Net-(J2-Pin_5)*%
X138080001Y-28030000D03*
%TO.N,GND*%
X138080000Y-25490000D03*
%TO.N,unconnected-(J2-Pin_3-Pad3)*%
X140620000Y-25490000D03*
%TO.N,unconnected-(J2-Pin_2-Pad2)*%
X143160000Y-25490000D03*
%TO.N,+3.3V*%
X145700000Y-25490000D03*
%TD*%
%TO.N,+3.3V*%
%TO.C,J4*%
X80740000Y-25400000D03*
%TO.N,unconnected-(J4-Pin_2-Pad2)*%
X78200000Y-25400000D03*
%TO.N,unconnected-(J4-Pin_3-Pad3)*%
X75660000Y-25400000D03*
%TO.N,GND*%
X73120000Y-25400000D03*
%TO.N,Net-(J4-Pin_5)*%
X73120001Y-27940000D03*
%TO.N,Net-(J4-Pin_6)*%
X75660000Y-27940000D03*
%TO.N,Net-(J4-Pin_7)*%
X78200000Y-27940000D03*
%TO.N,Net-(J4-Pin_8)*%
X80740000Y-27940000D03*
%TD*%
%TO.N,+3.3V*%
%TO.C,J1*%
X178080000Y-25360000D03*
%TO.N,unconnected-(J1-Pin_2-Pad2)*%
X175540000Y-25360000D03*
%TO.N,unconnected-(J1-Pin_3-Pad3)*%
X173000000Y-25360000D03*
%TO.N,GND*%
X170460000Y-25360000D03*
%TO.N,Net-(J1-Pin_5)*%
X170460001Y-27900000D03*
%TO.N,Net-(J1-Pin_6)*%
X173000000Y-27900000D03*
%TO.N,Net-(J1-Pin_7)*%
X175540000Y-27900000D03*
%TO.N,Net-(J1-Pin_8)*%
X178080000Y-27900000D03*
%TD*%
D15*
%TO.N,Net-(J2-Pin_8)*%
X153400000Y-33200000D03*
%TO.N,Net-(J2-Pin_7)*%
X145400000Y-33200000D03*
%TO.N,Net-(J5-Pin_8)*%
X203500000Y-71800000D03*
%TO.N,Net-(J5-Pin_7)*%
X202100000Y-72800000D03*
%TO.N,Net-(J5-Pin_6)*%
X200500000Y-73400000D03*
%TO.N,Net-(J5-Pin_5)*%
X198200000Y-73700000D03*
%TO.N,GND*%
X208000000Y-88700000D03*
X208000000Y-82700000D03*
%TO.N,Net-(J5-Pin_26)*%
X92100000Y-55200000D03*
%TO.N,Net-(J5-Pin_25)*%
X94700000Y-55600000D03*
%TO.N,Net-(J5-Pin_24)*%
X97300000Y-56000000D03*
%TO.N,Net-(J5-Pin_23)*%
X99800000Y-56400000D03*
%TO.N,Net-(J5-Pin_22)*%
X102300000Y-56800000D03*
%TO.N,Net-(J5-Pin_30)*%
X207900000Y-30700000D03*
%TO.N,Net-(J5-Pin_29)*%
X207900000Y-32700000D03*
%TO.N,Net-(J5-Pin_31)*%
X130600000Y-53300000D03*
%TO.N,Net-(J5-Pin_21)*%
X104900000Y-57200000D03*
%TO.N,Net-(J5-Pin_20)*%
X107400000Y-57600000D03*
%TO.N,Net-(J5-Pin_19)*%
X109900000Y-58000000D03*
%TO.N,Net-(J5-Pin_18)*%
X112400000Y-58400000D03*
%TO.N,Net-(J5-Pin_17)*%
X115100000Y-59000000D03*
%TO.N,Net-(U10-~E)*%
X188500000Y-69600000D03*
%TO.N,GND*%
X92600000Y-40220000D03*
X84700000Y-40120000D03*
X76500000Y-40320000D03*
X68700000Y-40320000D03*
X157560000Y-40340000D03*
X149560000Y-40340000D03*
X141460000Y-40340000D03*
X133560000Y-40340000D03*
X125000000Y-40150000D03*
X117000000Y-40150000D03*
X108900000Y-40350000D03*
X101100000Y-40350000D03*
%TO.N,Net-(J5-Pin_28)*%
X207900000Y-34700000D03*
%TO.N,Net-(J5-Pin_27)*%
X208100000Y-36600000D03*
%TO.N,+3.3V*%
X208000000Y-84700000D03*
%TO.N,GND*%
X189800000Y-60400000D03*
X155900000Y-75400000D03*
X160500000Y-75300000D03*
X165300000Y-75400000D03*
X169900000Y-75500000D03*
X174500000Y-75400000D03*
X188400000Y-75400000D03*
X183800000Y-75500000D03*
X179200000Y-75400000D03*
X178300000Y-62200000D03*
%TO.N,Net-(J5-Pin_13)*%
X179600000Y-60400000D03*
%TO.N,Net-(J5-Pin_14)*%
X182100000Y-60400000D03*
%TO.N,Net-(J5-Pin_15)*%
X184700000Y-60400000D03*
%TO.N,Net-(J5-Pin_16)*%
X187200000Y-60400000D03*
%TO.N,Net-(J5-Pin_12)*%
X179600000Y-69700000D03*
%TO.N,Net-(J5-Pin_11)*%
X182100000Y-69700000D03*
%TO.N,Net-(J5-Pin_10)*%
X184700000Y-69700000D03*
%TO.N,Net-(J5-Pin_9)*%
X187200000Y-69700000D03*
%TO.N,Net-(J5-Pin_21)*%
X98200000Y-41450000D03*
%TO.N,Net-(J5-Pin_22)*%
X106200000Y-41550000D03*
%TO.N,Net-(J5-Pin_23)*%
X114200000Y-41550000D03*
%TO.N,Net-(J5-Pin_24)*%
X122200000Y-41450000D03*
%TO.N,Net-(J5-Pin_25)*%
X130660000Y-41640000D03*
%TO.N,Net-(J5-Pin_26)*%
X138660000Y-41740000D03*
%TO.N,Net-(J5-Pin_27)*%
X146660000Y-41740000D03*
%TO.N,Net-(J5-Pin_28)*%
X154660000Y-41640000D03*
%TO.N,Net-(J5-Pin_29)*%
X163000000Y-42600000D03*
%TO.N,Net-(J5-Pin_30)*%
X171000000Y-42700000D03*
%TO.N,Net-(J5-Pin_31)*%
X179000000Y-42700000D03*
%TO.N,Net-(J5-Pin_32)*%
X187000000Y-42600000D03*
%TO.N,Net-(U10-~E)*%
X99400000Y-37600000D03*
X107400000Y-37600000D03*
X115400000Y-37600000D03*
X123300000Y-37600000D03*
%TO.N,Net-(J3-Pin_5)*%
X96900000Y-33100000D03*
%TO.N,Net-(J3-Pin_6)*%
X104800000Y-32900000D03*
%TO.N,Net-(J3-Pin_7)*%
X113000000Y-32900000D03*
%TO.N,Net-(J3-Pin_8)*%
X120900000Y-33200000D03*
%TO.N,Net-(J5-Pin_24)*%
X122200000Y-33100000D03*
%TO.N,Net-(J5-Pin_23)*%
X114280000Y-32880000D03*
%TO.N,Net-(J5-Pin_22)*%
X106100000Y-33000000D03*
%TO.N,Net-(J5-Pin_21)*%
X98100000Y-33100000D03*
%TO.N,+3.3V*%
X131800000Y-35830000D03*
%TO.N,Net-(U10-~E)*%
X131800000Y-37730000D03*
X139800000Y-37730000D03*
%TO.N,+3.3V*%
X139800000Y-35830000D03*
X147800000Y-35830000D03*
%TO.N,Net-(U10-~E)*%
X147800000Y-37730000D03*
X155900000Y-37730000D03*
%TO.N,+3.3V*%
X155800000Y-35830000D03*
%TO.N,Net-(J5-Pin_28)*%
X154600000Y-33230000D03*
%TO.N,Net-(J5-Pin_27)*%
X146600000Y-33130000D03*
%TO.N,Net-(J5-Pin_26)*%
X138600000Y-33130000D03*
%TO.N,Net-(J5-Pin_25)*%
X130700000Y-33230000D03*
%TO.N,Net-(J2-Pin_6)*%
X137300000Y-33130000D03*
%TO.N,Net-(J2-Pin_5)*%
X129400000Y-33230000D03*
%TO.N,Net-(U10-~E)*%
X75000000Y-37600000D03*
%TO.N,Net-(J4-Pin_6)*%
X72400000Y-33000000D03*
%TO.N,Net-(U10-~E)*%
X66900000Y-37600000D03*
%TO.N,+3.3V*%
X90900000Y-35700000D03*
%TO.N,Net-(J5-Pin_17)*%
X65700000Y-33100000D03*
X65800000Y-41620000D03*
%TO.N,Net-(J5-Pin_18)*%
X73800000Y-41720000D03*
X73700000Y-33100000D03*
%TO.N,Net-(J5-Pin_20)*%
X89800000Y-33100000D03*
%TO.N,+3.3V*%
X83000000Y-35700000D03*
%TO.N,Net-(J5-Pin_19)*%
X81700000Y-33100000D03*
X81800000Y-41720000D03*
%TO.N,Net-(J4-Pin_8)*%
X88500000Y-33100000D03*
%TO.N,+3.3V*%
X75000000Y-35700000D03*
%TO.N,Net-(U10-~E)*%
X90900000Y-37600000D03*
%TO.N,Net-(J4-Pin_5)*%
X64500000Y-33100000D03*
%TO.N,Net-(J5-Pin_20)*%
X89800000Y-41620000D03*
%TO.N,Net-(U10-~E)*%
X82900000Y-37600000D03*
%TO.N,+3.3V*%
X66900000Y-35700000D03*
%TO.N,Net-(J4-Pin_7)*%
X80400000Y-33100000D03*
%TO.N,Net-(U10-~E)*%
X172280000Y-37600000D03*
%TO.N,GND*%
X173980000Y-40300000D03*
%TO.N,+3.3V*%
X164280000Y-35700000D03*
%TO.N,Net-(J5-Pin_31)*%
X179080000Y-33100000D03*
%TO.N,Net-(J1-Pin_5)*%
X161880000Y-33100000D03*
%TO.N,Net-(J1-Pin_8)*%
X185880000Y-33100000D03*
%TO.N,Net-(J5-Pin_29)*%
X163080000Y-33200000D03*
%TO.N,Net-(U10-~E)*%
X164280000Y-37600000D03*
%TO.N,Net-(J5-Pin_30)*%
X171080000Y-33000000D03*
%TO.N,Net-(J1-Pin_6)*%
X169780000Y-33100000D03*
%TO.N,GND*%
X182080000Y-40300000D03*
X166080000Y-40300000D03*
X190080000Y-40300000D03*
%TO.N,+3.3V*%
X172280000Y-35700000D03*
%TO.N,Net-(U10-~E)*%
X180280000Y-37600000D03*
%TO.N,Net-(J1-Pin_7)*%
X177880000Y-33100000D03*
%TO.N,+3.3V*%
X188280000Y-35700000D03*
X180280000Y-35700000D03*
%TO.N,Net-(J5-Pin_32)*%
X187180000Y-33100000D03*
%TO.N,Net-(U10-~E)*%
X188280000Y-37600000D03*
%TO.N,+3.3V*%
X123300000Y-35700000D03*
X115400000Y-35700000D03*
X107400000Y-35700000D03*
X99200000Y-35700000D03*
%TD*%
D16*
%TO.N,+3.3V*%
X188280000Y-35700000D02*
X158200000Y-35700000D01*
X158200000Y-35700000D02*
X66900000Y-35700000D01*
X158200000Y-35700000D02*
X158200000Y-32600000D01*
X158200000Y-32600000D02*
X151090000Y-25490000D01*
X151090000Y-25490000D02*
X145700000Y-25490000D01*
%TO.N,Net-(J5-Pin_31)*%
X179000000Y-42700000D02*
X179000000Y-50034314D01*
X175734314Y-53300000D02*
X130600000Y-53300000D01*
X179000000Y-50034314D02*
X175734314Y-53300000D01*
%TO.N,Net-(J5-Pin_32)*%
X187000000Y-42600000D02*
X187000000Y-49200000D01*
X187000000Y-49200000D02*
X181800000Y-54400000D01*
X181800000Y-54400000D02*
X129600000Y-54400000D01*
X129600000Y-54400000D02*
X122700000Y-61300000D01*
%TO.N,Net-(J5-Pin_5)*%
X198200000Y-73700000D02*
X197500000Y-73000000D01*
X197500000Y-73000000D02*
X144020000Y-73000000D01*
X144020000Y-73000000D02*
X140480000Y-76540000D01*
%TO.N,Net-(J5-Pin_6)*%
X200500000Y-73400000D02*
X199700000Y-72600000D01*
X199700000Y-72600000D02*
X141880000Y-72600000D01*
X141880000Y-72600000D02*
X137940000Y-76540000D01*
%TO.N,Net-(J5-Pin_7)*%
X202100000Y-72800000D02*
X201500000Y-72200000D01*
X201500000Y-72200000D02*
X139740000Y-72200000D01*
X139740000Y-72200000D02*
X135400000Y-76540000D01*
%TO.N,Net-(J5-Pin_8)*%
X203500000Y-71800000D02*
X137600000Y-71800000D01*
X137600000Y-71800000D02*
X132860000Y-76540000D01*
%TO.N,Net-(U10-~E)*%
X188280000Y-37600000D02*
X66900000Y-37600000D01*
X188500000Y-69600000D02*
X188500000Y-39000000D01*
X188500000Y-39000000D02*
X188280000Y-38780000D01*
X188280000Y-38780000D02*
X188280000Y-37600000D01*
%TO.N,+3.3V*%
X90970000Y-35770000D02*
X90900000Y-35700000D01*
X131800000Y-35830000D02*
X131760000Y-35790000D01*
X155890000Y-35740000D02*
X155800000Y-35830000D01*
%TO.N,Net-(U10-~E)*%
X155990000Y-37640000D02*
X155900000Y-37730000D01*
X131760000Y-37690000D02*
X131800000Y-37730000D01*
X99400000Y-37600000D02*
X99330000Y-37530000D01*
X155900000Y-37730000D02*
X155800000Y-37730000D01*
X99300000Y-37600000D02*
X99400000Y-37600000D01*
%TO.N,+3.3V*%
X99300000Y-35700000D02*
X99200000Y-35700000D01*
%TD*%
M02*
