%TF.GenerationSoftware,KiCad,Pcbnew,8.0.3-1.fc40*%
%TF.CreationDate,2024-07-04T16:01:24-04:00*%
%TF.ProjectId,boards_v3,626f6172-6473-45f7-9633-2e6b69636164,rev?*%
%TF.SameCoordinates,Original*%
%TF.FileFunction,Soldermask,Top*%
%TF.FilePolarity,Negative*%
%FSLAX46Y46*%
G04 Gerber Fmt 4.6, Leading zero omitted, Abs format (unit mm)*
G04 Created by KiCad (PCBNEW 8.0.3-1.fc40) date 2024-07-04 16:01:24*
%MOMM*%
%LPD*%
G01*
G04 APERTURE LIST*
G04 Aperture macros list*
%AMRoundRect*
0 Rectangle with rounded corners*
0 $1 Rounding radius*
0 $2 $3 $4 $5 $6 $7 $8 $9 X,Y pos of 4 corners*
0 Add a 4 corners polygon primitive as box body*
4,1,4,$2,$3,$4,$5,$6,$7,$8,$9,$2,$3,0*
0 Add four circle primitives for the rounded corners*
1,1,$1+$1,$2,$3*
1,1,$1+$1,$4,$5*
1,1,$1+$1,$6,$7*
1,1,$1+$1,$8,$9*
0 Add four rect primitives between the rounded corners*
20,1,$1+$1,$2,$3,$4,$5,0*
20,1,$1+$1,$4,$5,$6,$7,0*
20,1,$1+$1,$6,$7,$8,$9,0*
20,1,$1+$1,$8,$9,$2,$3,0*%
%AMFreePoly0*
4,1,19,0.550000,-0.750000,0.000000,-0.750000,0.000000,-0.744911,-0.071157,-0.744911,-0.207708,-0.704816,-0.327430,-0.627875,-0.420627,-0.520320,-0.479746,-0.390866,-0.500000,-0.250000,-0.500000,0.250000,-0.479746,0.390866,-0.420627,0.520320,-0.327430,0.627875,-0.207708,0.704816,-0.071157,0.744911,0.000000,0.744911,0.000000,0.750000,0.550000,0.750000,0.550000,-0.750000,0.550000,-0.750000,
$1*%
%AMFreePoly1*
4,1,19,0.000000,0.744911,0.071157,0.744911,0.207708,0.704816,0.327430,0.627875,0.420627,0.520320,0.479746,0.390866,0.500000,0.250000,0.500000,-0.250000,0.479746,-0.390866,0.420627,-0.520320,0.327430,-0.627875,0.207708,-0.704816,0.071157,-0.744911,0.000000,-0.744911,0.000000,-0.750000,-0.550000,-0.750000,-0.550000,0.750000,0.000000,0.750000,0.000000,0.744911,0.000000,0.744911,
$1*%
G04 Aperture macros list end*
%ADD10RoundRect,0.150000X-0.650000X-0.150000X0.650000X-0.150000X0.650000X0.150000X-0.650000X0.150000X0*%
%ADD11C,1.600000*%
%ADD12R,1.600000X1.600000*%
%ADD13R,1.300000X1.300000*%
%ADD14C,1.300000*%
%ADD15FreePoly0,0.000000*%
%ADD16R,1.000000X1.500000*%
%ADD17FreePoly1,0.000000*%
%ADD18C,2.286000*%
%ADD19RoundRect,0.381000X0.762000X0.381000X-0.762000X0.381000X-0.762000X-0.381000X0.762000X-0.381000X0*%
%ADD20RoundRect,0.150000X-0.150000X0.875000X-0.150000X-0.875000X0.150000X-0.875000X0.150000X0.875000X0*%
G04 APERTURE END LIST*
D10*
%TO.C,U13*%
X99200000Y-35700000D03*
X99200000Y-37600000D03*
X96900000Y-37600000D03*
X96900000Y-36650000D03*
X96900000Y-35700000D03*
%TD*%
%TO.C,U12*%
X107300000Y-35700000D03*
X107300000Y-37600000D03*
X105000000Y-37600000D03*
X105000000Y-36650000D03*
X105000000Y-35700000D03*
%TD*%
%TO.C,U11*%
X115300000Y-35700000D03*
X115300000Y-37600000D03*
X113000000Y-37600000D03*
X113000000Y-36650000D03*
X113000000Y-35700000D03*
%TD*%
%TO.C,U10*%
X123300000Y-35700000D03*
X123300000Y-37600000D03*
X121000000Y-37600000D03*
X121000000Y-36650000D03*
X121000000Y-35700000D03*
%TD*%
%TO.C,U9*%
X131750000Y-35780000D03*
X131750000Y-37680000D03*
X129450000Y-37680000D03*
X129450000Y-36730000D03*
X129450000Y-35780000D03*
%TD*%
%TO.C,U8*%
X139800000Y-35780000D03*
X139800000Y-37680000D03*
X137500000Y-37680000D03*
X137500000Y-36730000D03*
X137500000Y-35780000D03*
%TD*%
%TO.C,U7*%
X147750000Y-35780000D03*
X147750000Y-37680000D03*
X145450000Y-37680000D03*
X145450000Y-36730000D03*
X145450000Y-35780000D03*
%TD*%
%TO.C,U6*%
X155850000Y-35780000D03*
X155850000Y-37680000D03*
X153550000Y-37680000D03*
X153550000Y-36730000D03*
X153550000Y-35780000D03*
%TD*%
D11*
%TO.C,U1*%
X87140001Y-63840000D03*
X101059200Y-73489200D03*
X98519200Y-73489200D03*
X95979200Y-73489200D03*
X93439200Y-73489200D03*
D12*
X90899200Y-73489200D03*
D11*
X84600000Y-61300000D03*
X87140000Y-61300000D03*
X89680000Y-61300000D03*
X92220000Y-61300000D03*
X94760000Y-61300000D03*
X97300000Y-61300000D03*
X99840000Y-61300000D03*
X102380000Y-61300000D03*
X104920000Y-61300000D03*
X107460000Y-61300000D03*
X110000000Y-61300000D03*
X112540000Y-61300000D03*
X115080000Y-61300000D03*
X117620000Y-61300000D03*
D12*
X84600000Y-76540000D03*
D11*
X87140000Y-76540000D03*
X89680000Y-76540000D03*
X92220000Y-76540000D03*
X94760000Y-76540000D03*
X97300000Y-76540000D03*
X99840000Y-76540000D03*
X102380000Y-76540000D03*
X104920000Y-76540000D03*
X107460000Y-76540000D03*
X110000000Y-76540000D03*
X112540000Y-76540000D03*
X115080000Y-76540000D03*
X120160000Y-61300000D03*
X122700000Y-61300000D03*
X125240000Y-61300000D03*
X127780000Y-61300000D03*
X130320000Y-61300000D03*
X132860000Y-61300000D03*
X135400000Y-61300000D03*
X137940000Y-61300000D03*
X140480000Y-61300000D03*
X143020000Y-61300000D03*
X143020000Y-76540000D03*
X140480000Y-76540000D03*
X137940000Y-76540000D03*
X135400000Y-76540000D03*
X117620000Y-76540000D03*
X120160000Y-76540000D03*
X122700000Y-76540000D03*
X132860000Y-76540000D03*
X130320000Y-76540000D03*
X127780000Y-76540000D03*
X125240000Y-76540000D03*
D13*
X97569999Y-63738400D03*
D14*
X99570000Y-63738400D03*
X97570000Y-65738400D03*
X99570000Y-65738401D03*
X99570000Y-67738400D03*
X97570000Y-67738401D03*
D11*
X130320000Y-73999999D03*
X130320000Y-71460000D03*
X130320000Y-68920000D03*
X130320000Y-66380000D03*
X130320000Y-63840001D03*
D14*
X85329999Y-70190000D03*
X85329999Y-67650000D03*
%TD*%
D15*
%TO.C,JP24*%
X188290001Y-75392500D03*
D16*
X189590001Y-75392500D03*
D17*
X190890001Y-75392500D03*
%TD*%
D15*
%TO.C,JP23*%
X183690001Y-75435000D03*
D16*
X184990001Y-75435000D03*
D17*
X186290001Y-75435000D03*
%TD*%
D15*
%TO.C,JP22*%
X179050001Y-75400000D03*
D16*
X180350001Y-75400000D03*
D17*
X181650001Y-75400000D03*
%TD*%
D15*
%TO.C,JP21*%
X174400000Y-75400000D03*
D16*
X175700000Y-75400000D03*
D17*
X177000000Y-75400000D03*
%TD*%
D15*
%TO.C,JP20*%
X169740000Y-75364999D03*
D16*
X171040000Y-75364999D03*
D17*
X172340000Y-75364999D03*
%TD*%
D15*
%TO.C,JP19*%
X165070000Y-75329999D03*
D16*
X166370000Y-75329999D03*
D17*
X167670000Y-75329999D03*
%TD*%
D15*
%TO.C,JP18*%
X160389999Y-75329999D03*
D16*
X161689999Y-75329999D03*
D17*
X162989999Y-75329999D03*
%TD*%
D15*
%TO.C,JP17*%
X155699999Y-75294999D03*
D16*
X156999999Y-75294999D03*
D17*
X158299999Y-75294999D03*
%TD*%
D18*
%TO.C,J6*%
X184580000Y-82340000D03*
X187120000Y-82340000D03*
X189660000Y-82340000D03*
X192200000Y-82340000D03*
X192200000Y-79800000D03*
X189660000Y-79800000D03*
X187120000Y-79800000D03*
X184580000Y-79800000D03*
%TD*%
D19*
%TO.C,J5*%
X208000000Y-88700000D03*
X208000000Y-86700001D03*
X208000000Y-84700000D03*
X208000000Y-82699999D03*
X208000000Y-80700000D03*
X208000000Y-78700000D03*
X208000000Y-76700000D03*
X208000000Y-74700000D03*
X208000000Y-72700001D03*
X208000000Y-70700000D03*
X208000000Y-68699999D03*
X208000000Y-66700000D03*
X208000000Y-64700000D03*
X208000000Y-62700000D03*
X208000000Y-60700000D03*
X208000000Y-58700000D03*
X208000000Y-56700000D03*
X208000000Y-54700001D03*
X208000000Y-52700000D03*
X208000000Y-50699999D03*
X208000000Y-48700000D03*
X208000000Y-46700000D03*
X208000000Y-44700000D03*
X208000000Y-42700000D03*
X208000000Y-40700001D03*
X208000000Y-38700000D03*
X208000000Y-36699999D03*
X208000000Y-34700000D03*
X208000000Y-32700000D03*
X208000000Y-30700000D03*
X208000000Y-28700000D03*
X208000000Y-26700000D03*
%TD*%
D18*
%TO.C,J3*%
X113040000Y-27800000D03*
X110500000Y-27800000D03*
X107960000Y-27800000D03*
X105420001Y-27800000D03*
X105420000Y-25260000D03*
X107960000Y-25260000D03*
X110500000Y-25260000D03*
X113040000Y-25260000D03*
%TD*%
%TO.C,J2*%
X145700000Y-28030000D03*
X143160000Y-28030000D03*
X140620000Y-28030000D03*
X138080001Y-28030000D03*
X138080000Y-25490000D03*
X140620000Y-25490000D03*
X143160000Y-25490000D03*
X145700000Y-25490000D03*
%TD*%
D20*
%TO.C,U18*%
X189750000Y-69700000D03*
X188480000Y-69700000D03*
X187210000Y-69700001D03*
X185940000Y-69700000D03*
X184670000Y-69700000D03*
X183400000Y-69700000D03*
X182130000Y-69700000D03*
X180860000Y-69700001D03*
X179590000Y-69700000D03*
X178320000Y-69700000D03*
X178320000Y-60400000D03*
X179590000Y-60400000D03*
X180860000Y-60399999D03*
X182130000Y-60400000D03*
X183400000Y-60400000D03*
X184670000Y-60400000D03*
X185940000Y-60400000D03*
X187210000Y-60399999D03*
X188480000Y-60400000D03*
X189750000Y-60400000D03*
%TD*%
D10*
%TO.C,U16*%
X72600000Y-35700000D03*
X72600000Y-36650000D03*
X72600000Y-37600000D03*
X74900000Y-37600000D03*
X74900000Y-35700000D03*
%TD*%
%TO.C,U17*%
X64600000Y-35700000D03*
X64600000Y-36650000D03*
X64600000Y-37600000D03*
X66900000Y-37600000D03*
X66900000Y-35700000D03*
%TD*%
%TO.C,U14*%
X88600000Y-35700000D03*
X88600000Y-36650000D03*
X88600000Y-37600000D03*
X90900000Y-37600000D03*
X90900000Y-35700000D03*
%TD*%
%TO.C,U15*%
X80600000Y-35700000D03*
X80600000Y-36650000D03*
X80600000Y-37600000D03*
X82900000Y-37600000D03*
X82900000Y-35700000D03*
%TD*%
D18*
%TO.C,J4*%
X80740000Y-25400000D03*
X78200000Y-25400000D03*
X75660000Y-25400000D03*
X73120000Y-25400000D03*
X73120001Y-27940000D03*
X75660000Y-27940000D03*
X78200000Y-27940000D03*
X80740000Y-27940000D03*
%TD*%
D10*
%TO.C,U4*%
X169980000Y-35700000D03*
X169980000Y-36650000D03*
X169980000Y-37600000D03*
X172280000Y-37600000D03*
X172280000Y-35700000D03*
%TD*%
%TO.C,U2*%
X185980000Y-35700000D03*
X185980000Y-36650000D03*
X185980000Y-37600000D03*
X188280000Y-37600000D03*
X188280000Y-35700000D03*
%TD*%
%TO.C,U5*%
X161980000Y-35700000D03*
X161980000Y-36650000D03*
X161980000Y-37600000D03*
X164280000Y-37600000D03*
X164280000Y-35700000D03*
%TD*%
%TO.C,U3*%
X177980000Y-35700000D03*
X177980000Y-36650000D03*
X177980000Y-37600000D03*
X180280000Y-37600000D03*
X180280000Y-35700000D03*
%TD*%
D18*
%TO.C,J1*%
X178080000Y-25360000D03*
X175540000Y-25360000D03*
X173000000Y-25360000D03*
X170460000Y-25360000D03*
X170460001Y-27900000D03*
X173000000Y-27900000D03*
X175540000Y-27900000D03*
X178080000Y-27900000D03*
%TD*%
M02*
