%TF.GenerationSoftware,KiCad,Pcbnew,8.0.3-1.fc40*%
%TF.CreationDate,2024-07-09T23:55:12-04:00*%
%TF.ProjectId,boards_v3,626f6172-6473-45f7-9633-2e6b69636164,rev?*%
%TF.SameCoordinates,Original*%
%TF.FileFunction,Copper,L2,Inr*%
%TF.FilePolarity,Positive*%
%FSLAX46Y46*%
G04 Gerber Fmt 4.6, Leading zero omitted, Abs format (unit mm)*
G04 Created by KiCad (PCBNEW 8.0.3-1.fc40) date 2024-07-09 23:55:12*
%MOMM*%
%LPD*%
G01*
G04 APERTURE LIST*
%TA.AperFunction,ComponentPad*%
%ADD10C,2.286000*%
%TD*%
%TA.AperFunction,ComponentPad*%
%ADD11R,1.600000X1.600000*%
%TD*%
%TA.AperFunction,ComponentPad*%
%ADD12C,1.600000*%
%TD*%
%TA.AperFunction,ComponentPad*%
%ADD13R,1.300000X1.300000*%
%TD*%
%TA.AperFunction,ComponentPad*%
%ADD14C,1.300000*%
%TD*%
%TA.AperFunction,ComponentPad*%
%ADD15C,1.524000*%
%TD*%
%TA.AperFunction,ViaPad*%
%ADD16C,0.900000*%
%TD*%
%TA.AperFunction,Conductor*%
%ADD17C,0.400000*%
%TD*%
%TA.AperFunction,Conductor*%
%ADD18C,2.200000*%
%TD*%
%TA.AperFunction,Conductor*%
%ADD19C,0.600000*%
%TD*%
%TA.AperFunction,Conductor*%
%ADD20C,0.200000*%
%TD*%
%TA.AperFunction,Conductor*%
%ADD21C,1.300000*%
%TD*%
G04 APERTURE END LIST*
D10*
%TO.N,+3.3V*%
%TO.C,J2*%
X145700000Y-25490000D03*
%TO.N,unconnected-(J2-Pin_2-Pad2)*%
X143160000Y-25490000D03*
%TO.N,unconnected-(J2-Pin_3-Pad3)*%
X140620000Y-25490000D03*
%TO.N,GND*%
X138080000Y-25490000D03*
%TO.N,Net-(J2-Pin_5)*%
X138080001Y-28030000D03*
%TO.N,Net-(J2-Pin_6)*%
X140620000Y-28030000D03*
%TO.N,Net-(J2-Pin_7)*%
X143160000Y-28030000D03*
%TO.N,Net-(J2-Pin_8)*%
X145700000Y-28030000D03*
%TD*%
D11*
%TO.N,unconnected-(U1-GND-Pad1)*%
%TO.C,U1*%
X84600000Y-76540000D03*
D12*
%TO.N,Net-(J7-Pin_4)*%
X87140000Y-76540000D03*
%TO.N,Net-(J7-Pin_3)*%
X89680000Y-76540000D03*
%TO.N,Net-(J7-Pin_2)*%
X92220000Y-76540000D03*
%TO.N,Net-(J7-Pin_1)*%
X94760000Y-76540000D03*
%TO.N,Net-(J7-Pin_5)*%
X97300000Y-76540000D03*
%TO.N,Net-(J9-Pin_34)*%
X99840000Y-76540000D03*
%TO.N,Net-(J9-Pin_33)*%
X102380000Y-76540000D03*
%TO.N,Net-(J9-Pin_32)*%
X104920000Y-76540000D03*
%TO.N,Net-(J9-Pin_31)*%
X107460000Y-76540000D03*
%TO.N,Net-(J9-Pin_30)*%
X110000000Y-76540000D03*
%TO.N,Net-(J9-Pin_29)*%
X112540000Y-76540000D03*
%TO.N,Net-(J9-Pin_28)*%
X115080000Y-76540000D03*
%TO.N,Net-(J9-Pin_27)*%
X117620000Y-76540000D03*
%TO.N,unconnected-(U1-3V3-Pad15)*%
X120160000Y-76540000D03*
%TO.N,Net-(J9-Pin_6)*%
X122700000Y-76540000D03*
%TO.N,Net-(J9-Pin_5)*%
X125240000Y-76540000D03*
%TO.N,Net-(J9-Pin_4)*%
X127780000Y-76540000D03*
%TO.N,Net-(J9-Pin_3)*%
X130320000Y-76540000D03*
%TO.N,Net-(J9-Pin_26)*%
X132860000Y-76540000D03*
%TO.N,Net-(J9-Pin_25)*%
X135400000Y-76540000D03*
%TO.N,Net-(J9-Pin_24)*%
X137940000Y-76540000D03*
%TO.N,Net-(J9-Pin_23)*%
X140480000Y-76540000D03*
%TO.N,unconnected-(U1-32_OUT1B-Pad24)*%
X143020000Y-76540000D03*
%TO.N,Net-(J8-Pin_5)*%
X143020000Y-61300000D03*
%TO.N,Net-(J6-Pin_5)*%
X140480000Y-61300000D03*
%TO.N,Net-(J6-Pin_4)*%
X137940000Y-61300000D03*
%TO.N,Net-(J8-Pin_4)*%
X135400000Y-61300000D03*
%TO.N,Net-(J8-Pin_3)*%
X132860000Y-61300000D03*
%TO.N,Net-(J8-Pin_2)*%
X130320000Y-61300000D03*
%TO.N,Net-(J8-Pin_1)*%
X127780000Y-61300000D03*
%TO.N,Net-(J9-Pin_2)*%
X125240000Y-61300000D03*
%TO.N,Net-(J9-Pin_1)*%
X122700000Y-61300000D03*
%TO.N,unconnected-(U1-GND-Pad34)*%
X120160000Y-61300000D03*
%TO.N,unconnected-(U1-13_SCK_LED-Pad35)*%
X117620000Y-61300000D03*
%TO.N,Net-(J9-Pin_16)*%
X115080000Y-61300000D03*
%TO.N,Net-(J9-Pin_15)*%
X112540000Y-61300000D03*
%TO.N,Net-(J9-Pin_14)*%
X110000000Y-61300000D03*
%TO.N,Net-(J9-Pin_13)*%
X107460000Y-61300000D03*
%TO.N,Net-(J9-Pin_12)*%
X104920000Y-61300000D03*
%TO.N,Net-(J9-Pin_11)*%
X102380000Y-61300000D03*
%TO.N,Net-(J9-Pin_10)*%
X99840000Y-61300000D03*
%TO.N,Net-(J9-Pin_9)*%
X97300000Y-61300000D03*
%TO.N,Net-(J9-Pin_8)*%
X94760000Y-61300000D03*
%TO.N,Net-(J9-Pin_7)*%
X92220000Y-61300000D03*
%TO.N,unconnected-(U1-3V3-Pad46)*%
X89680000Y-61300000D03*
%TO.N,GND*%
X87140000Y-61300000D03*
%TO.N,+5V*%
X84600000Y-61300000D03*
%TO.N,unconnected-(U1-VUSB-Pad49)*%
X87140001Y-63840000D03*
%TO.N,unconnected-(U1-VBAT-Pad50)*%
X130320000Y-73999999D03*
%TO.N,unconnected-(U1-3V3-Pad51)*%
X130320000Y-71460000D03*
%TO.N,unconnected-(U1-GND-Pad52)*%
X130320000Y-68920000D03*
%TO.N,unconnected-(U1-PROGRAM-Pad53)*%
X130320000Y-66380000D03*
%TO.N,unconnected-(U1-ON_OFF-Pad54)*%
X130320000Y-63840001D03*
D11*
%TO.N,unconnected-(U1-5V-Pad55)*%
X90899200Y-73489200D03*
D12*
%TO.N,unconnected-(U1-D--Pad56)*%
X93439200Y-73489200D03*
%TO.N,unconnected-(U1-D+-Pad57)*%
X95979200Y-73489200D03*
%TO.N,unconnected-(U1-GND-Pad58)*%
X98519200Y-73489200D03*
%TO.N,unconnected-(U1-GND-Pad59)*%
X101059200Y-73489200D03*
D13*
%TO.N,unconnected-(U1-R+-Pad60)*%
X97569999Y-63738400D03*
D14*
%TO.N,unconnected-(U1-LED-Pad61)*%
X97570000Y-65738400D03*
%TO.N,unconnected-(U1-T--Pad62)*%
X97570000Y-67738401D03*
%TO.N,unconnected-(U1-T+-Pad63)*%
X99570000Y-67738400D03*
%TO.N,unconnected-(U1-GND-Pad64)*%
X99570000Y-65738401D03*
%TO.N,unconnected-(U1-R--Pad65)*%
X99570000Y-63738400D03*
%TO.N,unconnected-(U1-D--Pad66)*%
X85329999Y-67650000D03*
%TO.N,unconnected-(U1-D+-Pad67)*%
X85329999Y-70190000D03*
%TD*%
D10*
%TO.N,+3.3V*%
%TO.C,J1*%
X178080000Y-25360000D03*
%TO.N,unconnected-(J1-Pin_2-Pad2)*%
X175540000Y-25360000D03*
%TO.N,unconnected-(J1-Pin_3-Pad3)*%
X173000000Y-25360000D03*
%TO.N,GND*%
X170460000Y-25360000D03*
%TO.N,Net-(J1-Pin_5)*%
X170460001Y-27900000D03*
%TO.N,Net-(J1-Pin_6)*%
X173000000Y-27900000D03*
%TO.N,Net-(J1-Pin_7)*%
X175540000Y-27900000D03*
%TO.N,Net-(J1-Pin_8)*%
X178080000Y-27900000D03*
%TD*%
%TO.N,Net-(J7-Pin_1)*%
%TO.C,J7*%
X74100000Y-82200000D03*
%TO.N,Net-(J7-Pin_2)*%
X74100000Y-79660000D03*
%TO.N,Net-(J7-Pin_3)*%
X74100000Y-77120000D03*
%TO.N,Net-(J7-Pin_4)*%
X74100000Y-74580000D03*
%TO.N,Net-(J7-Pin_5)*%
X71560000Y-74580001D03*
%TO.N,+5V*%
X71560000Y-77120000D03*
%TO.N,+3.3V*%
X71560000Y-79660000D03*
%TO.N,GND*%
X71560000Y-82200000D03*
%TD*%
%TO.N,+3.3V*%
%TO.C,J6*%
X184580000Y-82340000D03*
%TO.N,+5V*%
X187120000Y-82340000D03*
%TO.N,GND*%
X189660000Y-82340000D03*
%TO.N,Net-(J6-Pin_4)*%
X192200000Y-82340000D03*
%TO.N,Net-(J6-Pin_5)*%
X192200000Y-79800000D03*
%TO.N,GND*%
X189660000Y-79800000D03*
%TO.N,+5V*%
X187120000Y-79800000D03*
%TO.N,+3.3V*%
X184580000Y-79800000D03*
%TD*%
%TO.N,+3.3V*%
%TO.C,J3*%
X113040000Y-25260000D03*
%TO.N,unconnected-(J3-Pin_2-Pad2)*%
X110500000Y-25260000D03*
%TO.N,unconnected-(J3-Pin_3-Pad3)*%
X107960000Y-25260000D03*
%TO.N,GND*%
X105420000Y-25260000D03*
%TO.N,Net-(J3-Pin_5)*%
X105420001Y-27800000D03*
%TO.N,Net-(J3-Pin_6)*%
X107960000Y-27800000D03*
%TO.N,Net-(J3-Pin_7)*%
X110500000Y-27800000D03*
%TO.N,Net-(J3-Pin_8)*%
X113040000Y-27800000D03*
%TD*%
%TO.N,Net-(J8-Pin_1)*%
%TO.C,J8*%
X74040000Y-69980000D03*
%TO.N,Net-(J8-Pin_2)*%
X74040000Y-67440000D03*
%TO.N,Net-(J8-Pin_3)*%
X74040000Y-64900000D03*
%TO.N,Net-(J8-Pin_4)*%
X74040000Y-62360000D03*
%TO.N,Net-(J8-Pin_5)*%
X71500000Y-62360001D03*
%TO.N,+5V*%
X71500000Y-64900000D03*
%TO.N,+3.3V*%
X71500000Y-67440000D03*
%TO.N,GND*%
X71500000Y-69980000D03*
%TD*%
%TO.N,+3.3V*%
%TO.C,J4*%
X80740000Y-25400000D03*
%TO.N,unconnected-(J4-Pin_2-Pad2)*%
X78200000Y-25400000D03*
%TO.N,unconnected-(J4-Pin_3-Pad3)*%
X75660000Y-25400000D03*
%TO.N,GND*%
X73120000Y-25400000D03*
%TO.N,Net-(J4-Pin_5)*%
X73120001Y-27940000D03*
%TO.N,Net-(J4-Pin_6)*%
X75660000Y-27940000D03*
%TO.N,Net-(J4-Pin_7)*%
X78200000Y-27940000D03*
%TO.N,Net-(J4-Pin_8)*%
X80740000Y-27940000D03*
%TD*%
D15*
%TO.N,Net-(J9-Pin_1)*%
%TO.C,J9*%
X206560000Y-27980000D03*
%TO.N,Net-(J9-Pin_2)*%
X206560000Y-30520000D03*
%TO.N,Net-(J9-Pin_3)*%
X206560000Y-33060000D03*
%TO.N,Net-(J9-Pin_4)*%
X206560000Y-35600000D03*
%TO.N,Net-(J9-Pin_5)*%
X206560000Y-38140000D03*
%TO.N,Net-(J9-Pin_6)*%
X206560000Y-40680000D03*
%TO.N,Net-(J9-Pin_7)*%
X206560000Y-43220000D03*
%TO.N,Net-(J9-Pin_8)*%
X206560000Y-45760000D03*
%TO.N,Net-(J9-Pin_9)*%
X206560000Y-48300000D03*
%TO.N,Net-(J9-Pin_10)*%
X206560000Y-50840000D03*
%TO.N,Net-(J9-Pin_11)*%
X206560000Y-53380000D03*
%TO.N,Net-(J9-Pin_12)*%
X206560000Y-55920000D03*
%TO.N,Net-(J9-Pin_13)*%
X206560000Y-58460000D03*
%TO.N,Net-(J9-Pin_14)*%
X206560000Y-61000000D03*
%TO.N,Net-(J9-Pin_15)*%
X206560000Y-63540000D03*
%TO.N,Net-(J9-Pin_16)*%
X206560000Y-66080000D03*
%TO.N,unconnected-(J9-Pin_17-Pad17)*%
X206560000Y-68620000D03*
%TO.N,unconnected-(J9-Pin_18-Pad18)*%
X209100000Y-68620000D03*
%TO.N,GND*%
X209100000Y-66080000D03*
%TO.N,+3.3V*%
X209100000Y-63540000D03*
%TO.N,+5V*%
X209100000Y-61000000D03*
%TO.N,GND*%
X209100000Y-58460000D03*
%TO.N,Net-(J9-Pin_23)*%
X209100000Y-55920000D03*
%TO.N,Net-(J9-Pin_24)*%
X209100000Y-53380000D03*
%TO.N,Net-(J9-Pin_25)*%
X209100000Y-50840000D03*
%TO.N,Net-(J9-Pin_26)*%
X209100000Y-48300000D03*
%TO.N,Net-(J9-Pin_27)*%
X209100000Y-45760000D03*
%TO.N,Net-(J9-Pin_28)*%
X209100000Y-43220000D03*
%TO.N,Net-(J9-Pin_29)*%
X209100000Y-40680000D03*
%TO.N,Net-(J9-Pin_30)*%
X209100000Y-38140000D03*
%TO.N,Net-(J9-Pin_31)*%
X209100000Y-35600000D03*
%TO.N,Net-(J9-Pin_32)*%
X209100000Y-33060000D03*
%TO.N,Net-(J9-Pin_33)*%
X209100000Y-30520000D03*
%TO.N,Net-(J9-Pin_34)*%
X209100000Y-27980000D03*
%TD*%
D16*
%TO.N,Net-(U10-~E)*%
X69300000Y-37600000D03*
%TO.N,GND*%
X72200000Y-38700000D03*
%TO.N,Net-(U10-~E)*%
X77200000Y-37600000D03*
%TO.N,GND*%
X80100000Y-38700000D03*
%TO.N,Net-(U10-~E)*%
X85300000Y-37600000D03*
%TO.N,GND*%
X88100000Y-38700000D03*
%TO.N,Net-(U10-~E)*%
X93300000Y-37600000D03*
%TO.N,GND*%
X96500000Y-38700000D03*
%TO.N,Net-(U10-~E)*%
X101500000Y-37600000D03*
%TO.N,GND*%
X104600000Y-38700000D03*
%TO.N,Net-(U10-~E)*%
X109700000Y-37600000D03*
%TO.N,GND*%
X112700000Y-38700000D03*
%TO.N,Net-(U10-~E)*%
X117700000Y-37600000D03*
X125700000Y-37600000D03*
%TO.N,GND*%
X120600000Y-38700000D03*
%TO.N,Net-(U10-~E)*%
X142200000Y-37600000D03*
X134200000Y-37600000D03*
%TO.N,GND*%
X137100000Y-38700000D03*
X153200000Y-38700000D03*
%TO.N,Net-(U10-~E)*%
X150200000Y-37600000D03*
X158300000Y-37600000D03*
%TO.N,GND*%
X161700000Y-38700000D03*
%TO.N,Net-(U10-~E)*%
X166700000Y-37500000D03*
%TO.N,GND*%
X169600000Y-38700000D03*
%TO.N,Net-(U10-~E)*%
X174600000Y-37600000D03*
%TO.N,GND*%
X177500000Y-38700000D03*
%TO.N,Net-(U10-~E)*%
X182600000Y-37600000D03*
X190700000Y-37600000D03*
%TO.N,GND*%
X185500000Y-38700000D03*
X172380000Y-33000000D03*
X115600000Y-32800000D03*
X193500000Y-67200000D03*
%TO.N,Net-(J1-Pin_8)*%
X185880000Y-33100000D03*
%TO.N,GND*%
X160500000Y-75300000D03*
X196900000Y-34700000D03*
X188400000Y-33200000D03*
X91100000Y-33100000D03*
X193400000Y-29200000D03*
X107400000Y-33000000D03*
X152500000Y-43900000D03*
X164400000Y-33200000D03*
X183800000Y-75500000D03*
X188300000Y-75400000D03*
X145200000Y-38700000D03*
X197600000Y-59000000D03*
X68600000Y-51100000D03*
X83000000Y-33100000D03*
X64600000Y-37600000D03*
X123500000Y-33100000D03*
X169740000Y-75364999D03*
X147900000Y-33200000D03*
X139900000Y-33200000D03*
X179200000Y-75400000D03*
X132000000Y-33200000D03*
X155900000Y-33300000D03*
X180500000Y-33100000D03*
X145100000Y-44400000D03*
X167700000Y-43000000D03*
X204800000Y-67600000D03*
X99500000Y-33100000D03*
X178300000Y-62200000D03*
X165070000Y-75329999D03*
X67000000Y-33100000D03*
X175000000Y-42500000D03*
X174500000Y-75400000D03*
X183200000Y-41700000D03*
X129200000Y-38700000D03*
X189750000Y-60400000D03*
X159900000Y-43300000D03*
X75200000Y-55700000D03*
X71000000Y-42900000D03*
X202000000Y-29800000D03*
X157600000Y-77600000D03*
X74900000Y-33000000D03*
%TO.N,Net-(J1-Pin_6)*%
X169780000Y-33100000D03*
%TO.N,Net-(J1-Pin_7)*%
X177880000Y-33100000D03*
%TO.N,Net-(J1-Pin_5)*%
X161880000Y-33100000D03*
%TO.N,+3.3V*%
X139800000Y-35780000D03*
X164280000Y-35700000D03*
X131750000Y-35780000D03*
%TO.N,Net-(J9-Pin_1)*%
X187180000Y-33100000D03*
%TO.N,+3.3V*%
X172280000Y-35700000D03*
X107400000Y-35700000D03*
X123300000Y-35700000D03*
%TO.N,Net-(J9-Pin_1)*%
X187000000Y-42600000D03*
%TO.N,+3.3V*%
X196800000Y-76700000D03*
X180280000Y-35700000D03*
X83000000Y-35700000D03*
X155850000Y-35780000D03*
X66900000Y-35700000D03*
X115400000Y-35700000D03*
X75000000Y-35700000D03*
X90900000Y-35700000D03*
X147750000Y-35780000D03*
X188280000Y-35700000D03*
X99200000Y-35700000D03*
%TO.N,Net-(J2-Pin_7)*%
X145400000Y-33200000D03*
%TO.N,Net-(J2-Pin_8)*%
X153400000Y-33200000D03*
%TO.N,Net-(J2-Pin_6)*%
X137300000Y-33130000D03*
%TO.N,Net-(J2-Pin_5)*%
X129400000Y-33230000D03*
%TO.N,Net-(J3-Pin_7)*%
X113000000Y-32900000D03*
%TO.N,Net-(J3-Pin_6)*%
X104800000Y-32900000D03*
%TO.N,Net-(J3-Pin_5)*%
X96900000Y-33100000D03*
%TO.N,Net-(J3-Pin_8)*%
X120900000Y-33200000D03*
%TO.N,Net-(J4-Pin_8)*%
X88500000Y-33100000D03*
%TO.N,Net-(J4-Pin_6)*%
X72400000Y-33000000D03*
%TO.N,Net-(J4-Pin_5)*%
X64500000Y-33100000D03*
%TO.N,Net-(J4-Pin_7)*%
X80400000Y-33100000D03*
%TO.N,+5V*%
X92100000Y-81800000D03*
X198500000Y-78200000D03*
%TO.N,Net-(J6-Pin_5)*%
X147600000Y-72200000D03*
%TO.N,Net-(J6-Pin_4)*%
X148700000Y-71200000D03*
%TO.N,Net-(U10-~E)*%
X188500000Y-69600000D03*
%TO.N,Net-(J9-Pin_24)*%
X193000000Y-59200000D03*
%TO.N,Net-(J9-Pin_33)*%
X184700000Y-69700000D03*
%TO.N,Net-(J9-Pin_14)*%
X81800000Y-41720000D03*
X81700000Y-33100000D03*
X103197392Y-52600000D03*
%TO.N,Net-(J9-Pin_26)*%
X193000000Y-56900000D03*
%TO.N,Net-(J9-Pin_13)*%
X89800000Y-41620000D03*
X89800000Y-33100000D03*
X101924601Y-52600000D03*
%TO.N,Net-(J9-Pin_25)*%
X193000000Y-58000000D03*
%TO.N,Net-(J9-Pin_11)*%
X99379018Y-52600000D03*
X106200000Y-41550000D03*
X106100000Y-33000000D03*
%TO.N,Net-(J9-Pin_5)*%
X154660000Y-41640000D03*
X199500000Y-45100000D03*
X154600000Y-33230000D03*
%TO.N,Net-(J9-Pin_15)*%
X73700000Y-33100000D03*
X104470184Y-52600000D03*
X73800000Y-41720000D03*
%TO.N,Net-(J9-Pin_29)*%
X182100000Y-60400000D03*
%TO.N,Net-(J9-Pin_7)*%
X98600000Y-50500000D03*
X138660000Y-41740000D03*
X138600000Y-33130000D03*
%TO.N,Net-(J9-Pin_6)*%
X146660000Y-41740000D03*
X146600000Y-33130000D03*
X201300000Y-45900000D03*
%TO.N,Net-(J9-Pin_10)*%
X98106226Y-52599999D03*
X114280000Y-32880000D03*
X114200000Y-41550000D03*
%TO.N,Net-(J9-Pin_23)*%
X193000000Y-60400000D03*
%TO.N,Net-(J9-Pin_16)*%
X65800000Y-41620000D03*
X106458511Y-52678511D03*
X65750000Y-33250000D03*
%TO.N,Net-(J9-Pin_34)*%
X187200000Y-69700000D03*
%TO.N,Net-(J9-Pin_32)*%
X182100000Y-69700000D03*
%TO.N,Net-(J9-Pin_2)*%
X179080000Y-33100000D03*
X125240000Y-56400000D03*
X179000000Y-42700000D03*
X125240000Y-54200000D03*
%TO.N,Net-(J9-Pin_12)*%
X100651809Y-52600000D03*
X98100000Y-33100000D03*
X98200000Y-41450000D03*
%TO.N,Net-(J9-Pin_3)*%
X171080000Y-33000000D03*
X196800000Y-42800000D03*
X171000000Y-42700000D03*
%TO.N,Net-(J9-Pin_30)*%
X179600000Y-60400000D03*
%TO.N,Net-(J9-Pin_9)*%
X96700000Y-52400000D03*
X122200000Y-33100000D03*
X122200000Y-41450000D03*
%TO.N,Net-(J9-Pin_28)*%
X184700000Y-60400000D03*
%TO.N,Net-(J9-Pin_31)*%
X179600000Y-69700000D03*
%TO.N,Net-(J9-Pin_8)*%
X130700000Y-33230000D03*
X130660000Y-41640000D03*
X94000000Y-51500000D03*
%TO.N,Net-(J9-Pin_4)*%
X163000000Y-42600000D03*
X163080000Y-33200000D03*
X198100000Y-44000000D03*
%TO.N,Net-(J9-Pin_27)*%
X187200000Y-60400000D03*
%TD*%
D17*
%TO.N,Net-(J9-Pin_16)*%
X65750000Y-33250000D02*
X65760000Y-33260000D01*
X65760000Y-33260000D02*
X65760000Y-41560000D01*
%TO.N,GND*%
X209100000Y-66080000D02*
X207780000Y-67400000D01*
X207780000Y-67400000D02*
X205300000Y-67400000D01*
X209100000Y-66080000D02*
X207820000Y-64800000D01*
X207820000Y-64800000D02*
X205200000Y-64800000D01*
D18*
X202500000Y-84200000D02*
X202500000Y-81700000D01*
D19*
%TO.N,+3.3V*%
X67600000Y-75700000D02*
X67600000Y-69500000D01*
D20*
%TO.N,Net-(J9-Pin_1)*%
X187000000Y-42600000D02*
X187040000Y-42640000D01*
D18*
%TO.N,GND*%
X201100000Y-87900000D02*
X202500000Y-86500000D01*
D21*
X198400000Y-65300000D02*
X199150000Y-64550000D01*
D18*
X189660000Y-84960000D02*
X189700000Y-85000000D01*
X193400000Y-70300000D02*
X193400000Y-70300000D01*
D21*
X199200000Y-64500000D02*
X201100000Y-64500000D01*
D18*
X190800000Y-86200000D02*
X192500000Y-87900000D01*
X189660000Y-85040000D02*
X189660000Y-85060000D01*
X202500000Y-81700000D02*
X201300000Y-80500000D01*
X193500000Y-70300000D02*
X193500000Y-70200000D01*
D19*
%TO.N,+3.3V*%
X71560000Y-79660000D02*
X67600000Y-75700000D01*
D18*
%TO.N,GND*%
X193500000Y-70200000D02*
X198400000Y-65300000D01*
X202500000Y-86500000D02*
X202500000Y-84200000D01*
D21*
X199150000Y-64550000D02*
X199200000Y-64500000D01*
D18*
X189700000Y-85000000D02*
X189660000Y-85040000D01*
X193400000Y-70300000D02*
X193500000Y-70300000D01*
X201300000Y-80500000D02*
X200400000Y-80500000D01*
X193400000Y-76500000D02*
X193400000Y-70300000D01*
D19*
%TO.N,+3.3V*%
X176600000Y-85700000D02*
X157104588Y-85700000D01*
X69500000Y-81720000D02*
X71560000Y-79660000D01*
D21*
%TO.N,GND*%
X198400000Y-65300000D02*
X198400000Y-61600000D01*
D20*
%TO.N,Net-(J9-Pin_1)*%
X187040000Y-33240000D02*
X187180000Y-33100000D01*
D19*
%TO.N,+3.3V*%
X69500000Y-83100000D02*
X69500000Y-81720000D01*
X182500000Y-79800000D02*
X176600000Y-85700000D01*
X67600000Y-69500000D02*
X69660000Y-67440000D01*
D20*
%TO.N,Net-(J9-Pin_1)*%
X187000000Y-42600000D02*
X187040000Y-42560000D01*
D21*
%TO.N,GND*%
X198400000Y-65300000D02*
X202100000Y-65300000D01*
D19*
%TO.N,+3.3V*%
X157104588Y-85700000D02*
X72060444Y-85660444D01*
D18*
%TO.N,GND*%
X200400000Y-80500000D02*
X197400000Y-80500000D01*
D17*
%TO.N,Net-(J9-Pin_1)*%
X187040000Y-42560000D02*
X187040000Y-33240000D01*
D21*
%TO.N,GND*%
X199200000Y-64500000D02*
X199200000Y-62300000D01*
D18*
X192500000Y-87900000D02*
X197000000Y-87900000D01*
D20*
%TO.N,Net-(J9-Pin_1)*%
X187040000Y-42640000D02*
X187040000Y-42760000D01*
D19*
%TO.N,+3.3V*%
X69660000Y-67440000D02*
X71500000Y-67440000D01*
D18*
%TO.N,GND*%
X197000000Y-87900000D02*
X201100000Y-87900000D01*
X189660000Y-85060000D02*
X190800000Y-86200000D01*
X197400000Y-80500000D02*
X193400000Y-76500000D01*
D19*
%TO.N,+3.3V*%
X184580000Y-79800000D02*
X182500000Y-79800000D01*
D18*
%TO.N,GND*%
X189660000Y-82340000D02*
X189660000Y-84960000D01*
D19*
%TO.N,+3.3V*%
X72060444Y-85660444D02*
X69500000Y-83100000D01*
D21*
%TO.N,GND*%
X199150000Y-64550000D02*
X200800000Y-62900000D01*
D19*
%TO.N,+5V*%
X214300000Y-72600000D02*
X214300000Y-61000000D01*
X208700000Y-78200000D02*
X214300000Y-72600000D01*
X198500000Y-78200000D02*
X208700000Y-78200000D01*
X214300000Y-61000000D02*
X209100000Y-61000000D01*
D20*
%TO.N,Net-(J6-Pin_5)*%
X155600000Y-80200000D02*
X179365686Y-80200000D01*
X179365686Y-80200000D02*
X181465686Y-78100000D01*
X181465686Y-78100000D02*
X190500000Y-78100000D01*
X190500000Y-78100000D02*
X192200000Y-79800000D01*
X147600000Y-72200000D02*
X155600000Y-80200000D01*
%TO.N,Net-(J6-Pin_4)*%
X156900000Y-79400000D02*
X179600000Y-79400000D01*
X192600000Y-77700000D02*
X194900000Y-80000000D01*
X194900000Y-80000000D02*
X194900000Y-81400000D01*
X194900000Y-81400000D02*
X193960000Y-82340000D01*
X193960000Y-82340000D02*
X192200000Y-82340000D01*
X179600000Y-79400000D02*
X181300000Y-77700000D01*
X148700000Y-71200000D02*
X156900000Y-79400000D01*
X181300000Y-77700000D02*
X192600000Y-77700000D01*
D17*
%TO.N,Net-(J9-Pin_14)*%
X81760000Y-32920000D02*
X81760000Y-41560000D01*
%TO.N,Net-(J9-Pin_13)*%
X89800000Y-32980000D02*
X89800000Y-41620000D01*
%TO.N,Net-(J9-Pin_11)*%
X106200000Y-32910000D02*
X106200000Y-41550000D01*
%TO.N,Net-(J9-Pin_5)*%
X154660000Y-33200000D02*
X154660000Y-41840000D01*
%TO.N,Net-(J9-Pin_15)*%
X73800000Y-32980000D02*
X73800000Y-41620000D01*
%TO.N,Net-(J9-Pin_7)*%
X138660000Y-33200000D02*
X138660000Y-41840000D01*
%TO.N,Net-(J9-Pin_6)*%
X146620000Y-33140000D02*
X146620000Y-41780000D01*
%TO.N,Net-(J9-Pin_10)*%
X114160000Y-32850000D02*
X114160000Y-41490000D01*
%TO.N,Net-(J9-Pin_2)*%
X125240000Y-54200000D02*
X125240000Y-56400000D01*
D20*
X179000000Y-33180000D02*
X179080000Y-33100000D01*
D17*
X179000000Y-42700000D02*
X179000000Y-33180000D01*
%TO.N,Net-(J9-Pin_12)*%
X98160000Y-32850000D02*
X98160000Y-41490000D01*
D20*
%TO.N,Net-(J9-Pin_3)*%
X171000000Y-42700000D02*
X171040000Y-42740000D01*
X171040000Y-33040000D02*
X171080000Y-33000000D01*
X171040000Y-42740000D02*
X171040000Y-42760000D01*
D17*
X171040000Y-42660000D02*
X171040000Y-33040000D01*
D20*
X171000000Y-42700000D02*
X171040000Y-42660000D01*
D17*
%TO.N,Net-(J9-Pin_9)*%
X122200000Y-32910000D02*
X122200000Y-41550000D01*
%TO.N,Net-(J9-Pin_8)*%
X130620000Y-33140000D02*
X130620000Y-41780000D01*
D20*
%TO.N,Net-(J9-Pin_4)*%
X163000000Y-33280000D02*
X163080000Y-33200000D01*
X163000000Y-42600000D02*
X163000000Y-42700000D01*
D17*
X163000000Y-42600000D02*
X163000000Y-33280000D01*
%TD*%
%TA.AperFunction,Conductor*%
%TO.N,GND*%
G36*
X75743039Y-22719685D02*
G01*
X75788794Y-22772489D01*
X75800000Y-22824000D01*
X75800000Y-22849417D01*
X75780315Y-22916456D01*
X75763673Y-22937106D01*
X74401602Y-24298926D01*
X74401601Y-24298929D01*
X73604391Y-25095992D01*
X73577313Y-25049091D01*
X73470909Y-24942687D01*
X73340591Y-24867447D01*
X73307788Y-24858657D01*
X74094679Y-24071767D01*
X74094679Y-24071766D01*
X74088719Y-24066676D01*
X74088714Y-24066673D01*
X73868213Y-23931549D01*
X73629285Y-23832582D01*
X73377820Y-23772211D01*
X73120000Y-23751920D01*
X72862179Y-23772211D01*
X72610714Y-23832582D01*
X72371786Y-23931549D01*
X72151289Y-24066670D01*
X72151273Y-24066682D01*
X72145320Y-24071766D01*
X72932211Y-24858657D01*
X72899409Y-24867447D01*
X72769091Y-24942687D01*
X72662687Y-25049091D01*
X72587447Y-25179409D01*
X72578657Y-25212210D01*
X71791766Y-24425320D01*
X71786682Y-24431273D01*
X71786670Y-24431289D01*
X71651549Y-24651786D01*
X71552582Y-24890714D01*
X71492211Y-25142179D01*
X71471920Y-25400000D01*
X71492211Y-25657820D01*
X71552582Y-25909285D01*
X71651549Y-26148213D01*
X71786673Y-26368714D01*
X71786676Y-26368719D01*
X71791767Y-26374679D01*
X72578657Y-25587789D01*
X72587447Y-25620591D01*
X72662687Y-25750909D01*
X72769091Y-25857313D01*
X72815900Y-25884338D01*
X72017981Y-26682112D01*
X72017978Y-26682113D01*
X71600018Y-27099999D01*
X71500000Y-27200000D01*
X61800000Y-27200000D01*
X61800000Y-27100000D01*
X66163681Y-22736319D01*
X66225004Y-22702834D01*
X66251362Y-22700000D01*
X75676000Y-22700000D01*
X75743039Y-22719685D01*
G37*
%TD.AperFunction*%
%TD*%
%TA.AperFunction,Conductor*%
%TO.N,GND*%
G36*
X206315677Y-26019685D02*
G01*
X206336319Y-26036319D01*
X206815176Y-26515176D01*
X206848661Y-26576499D01*
X206843677Y-26646191D01*
X206801805Y-26702124D01*
X206736341Y-26726541D01*
X206716688Y-26726385D01*
X206560002Y-26712677D01*
X206559998Y-26712677D01*
X206339937Y-26731929D01*
X206339929Y-26731930D01*
X206126554Y-26789104D01*
X206126548Y-26789107D01*
X205926340Y-26882465D01*
X205926338Y-26882466D01*
X205745377Y-27009175D01*
X205589175Y-27165377D01*
X205462466Y-27346338D01*
X205462465Y-27346340D01*
X205369107Y-27546548D01*
X205369104Y-27546554D01*
X205311930Y-27759929D01*
X205311929Y-27759937D01*
X205292677Y-27979997D01*
X205292677Y-27980002D01*
X205311929Y-28200062D01*
X205311930Y-28200070D01*
X205369104Y-28413445D01*
X205369105Y-28413447D01*
X205369106Y-28413450D01*
X205427851Y-28539430D01*
X205462466Y-28613662D01*
X205462468Y-28613666D01*
X205589170Y-28794615D01*
X205589175Y-28794621D01*
X205745378Y-28950824D01*
X205745384Y-28950829D01*
X205926333Y-29077531D01*
X205926335Y-29077532D01*
X205926338Y-29077534D01*
X206045748Y-29133215D01*
X206055189Y-29137618D01*
X206107628Y-29183790D01*
X206126780Y-29250984D01*
X206106564Y-29317865D01*
X206055189Y-29362382D01*
X205926340Y-29422465D01*
X205926338Y-29422466D01*
X205745377Y-29549175D01*
X205589175Y-29705377D01*
X205462466Y-29886338D01*
X205462465Y-29886340D01*
X205369107Y-30086548D01*
X205369104Y-30086554D01*
X205311930Y-30299929D01*
X205311929Y-30299937D01*
X205292677Y-30519997D01*
X205292677Y-30520002D01*
X205311929Y-30740062D01*
X205311930Y-30740070D01*
X205369104Y-30953445D01*
X205369105Y-30953447D01*
X205369106Y-30953450D01*
X205462466Y-31153662D01*
X205462468Y-31153666D01*
X205589170Y-31334615D01*
X205589175Y-31334621D01*
X205745378Y-31490824D01*
X205745384Y-31490829D01*
X205926333Y-31617531D01*
X205926335Y-31617532D01*
X205926338Y-31617534D01*
X206045748Y-31673215D01*
X206055189Y-31677618D01*
X206107628Y-31723790D01*
X206126780Y-31790984D01*
X206106564Y-31857865D01*
X206055189Y-31902382D01*
X205926340Y-31962465D01*
X205926338Y-31962466D01*
X205745377Y-32089175D01*
X205589175Y-32245377D01*
X205462466Y-32426338D01*
X205462465Y-32426340D01*
X205369107Y-32626548D01*
X205369104Y-32626554D01*
X205311930Y-32839929D01*
X205311929Y-32839937D01*
X205292677Y-33059997D01*
X205292677Y-33060002D01*
X205311929Y-33280062D01*
X205311930Y-33280070D01*
X205369104Y-33493445D01*
X205369105Y-33493447D01*
X205369106Y-33493450D01*
X205442002Y-33649777D01*
X205462466Y-33693662D01*
X205462468Y-33693666D01*
X205589170Y-33874615D01*
X205589175Y-33874621D01*
X205745378Y-34030824D01*
X205745384Y-34030829D01*
X205926333Y-34157531D01*
X205926335Y-34157532D01*
X205926338Y-34157534D01*
X206045748Y-34213215D01*
X206055189Y-34217618D01*
X206107628Y-34263790D01*
X206126780Y-34330984D01*
X206106564Y-34397865D01*
X206055189Y-34442382D01*
X205926340Y-34502465D01*
X205926338Y-34502466D01*
X205745377Y-34629175D01*
X205589175Y-34785377D01*
X205462466Y-34966338D01*
X205462465Y-34966340D01*
X205369107Y-35166548D01*
X205369104Y-35166554D01*
X205311930Y-35379929D01*
X205311929Y-35379937D01*
X205292677Y-35599997D01*
X205292677Y-35600002D01*
X205311929Y-35820062D01*
X205311930Y-35820070D01*
X205369104Y-36033445D01*
X205369105Y-36033447D01*
X205369106Y-36033450D01*
X205461049Y-36230623D01*
X205462466Y-36233662D01*
X205462468Y-36233666D01*
X205589170Y-36414615D01*
X205589175Y-36414621D01*
X205745378Y-36570824D01*
X205745384Y-36570829D01*
X205926333Y-36697531D01*
X205926335Y-36697532D01*
X205926338Y-36697534D01*
X206045748Y-36753215D01*
X206055189Y-36757618D01*
X206107628Y-36803790D01*
X206126780Y-36870984D01*
X206106564Y-36937865D01*
X206055189Y-36982382D01*
X205926340Y-37042465D01*
X205926338Y-37042466D01*
X205745377Y-37169175D01*
X205589175Y-37325377D01*
X205462466Y-37506338D01*
X205462465Y-37506340D01*
X205369107Y-37706548D01*
X205369104Y-37706554D01*
X205311930Y-37919929D01*
X205311929Y-37919937D01*
X205292677Y-38139997D01*
X205292677Y-38140002D01*
X205311929Y-38360062D01*
X205311930Y-38360070D01*
X205369104Y-38573445D01*
X205369105Y-38573447D01*
X205369106Y-38573450D01*
X205462466Y-38773662D01*
X205462468Y-38773666D01*
X205589170Y-38954615D01*
X205589175Y-38954621D01*
X205745378Y-39110824D01*
X205745384Y-39110829D01*
X205926333Y-39237531D01*
X205926335Y-39237532D01*
X205926338Y-39237534D01*
X206045748Y-39293215D01*
X206055189Y-39297618D01*
X206107628Y-39343790D01*
X206126780Y-39410984D01*
X206106564Y-39477865D01*
X206055189Y-39522382D01*
X205926340Y-39582465D01*
X205926338Y-39582466D01*
X205745377Y-39709175D01*
X205589175Y-39865377D01*
X205462466Y-40046338D01*
X205462465Y-40046340D01*
X205369107Y-40246548D01*
X205369104Y-40246554D01*
X205311930Y-40459929D01*
X205311929Y-40459937D01*
X205292677Y-40679997D01*
X205292677Y-40680002D01*
X205311929Y-40900062D01*
X205311930Y-40900070D01*
X205369104Y-41113445D01*
X205369105Y-41113447D01*
X205369106Y-41113450D01*
X205413837Y-41209376D01*
X205462466Y-41313662D01*
X205462468Y-41313666D01*
X205589170Y-41494615D01*
X205589175Y-41494621D01*
X205745378Y-41650824D01*
X205745384Y-41650829D01*
X205926333Y-41777531D01*
X205926335Y-41777532D01*
X205926338Y-41777534D01*
X205988094Y-41806331D01*
X206055189Y-41837618D01*
X206107628Y-41883790D01*
X206126780Y-41950984D01*
X206106564Y-42017865D01*
X206055189Y-42062382D01*
X205926340Y-42122465D01*
X205926338Y-42122466D01*
X205745377Y-42249175D01*
X205589175Y-42405377D01*
X205462466Y-42586338D01*
X205462465Y-42586340D01*
X205369107Y-42786548D01*
X205369104Y-42786554D01*
X205311930Y-42999929D01*
X205311929Y-42999937D01*
X205292677Y-43219997D01*
X205292677Y-43220002D01*
X205311929Y-43440062D01*
X205311930Y-43440070D01*
X205369104Y-43653445D01*
X205369105Y-43653447D01*
X205369106Y-43653450D01*
X205407948Y-43736747D01*
X205462466Y-43853662D01*
X205462468Y-43853666D01*
X205589170Y-44034615D01*
X205589175Y-44034621D01*
X205745378Y-44190824D01*
X205745384Y-44190829D01*
X205926333Y-44317531D01*
X205926335Y-44317532D01*
X205926338Y-44317534D01*
X206029204Y-44365501D01*
X206055189Y-44377618D01*
X206107628Y-44423790D01*
X206126780Y-44490984D01*
X206106564Y-44557865D01*
X206055189Y-44602382D01*
X205926340Y-44662465D01*
X205926338Y-44662466D01*
X205745377Y-44789175D01*
X205589175Y-44945377D01*
X205462466Y-45126338D01*
X205462465Y-45126340D01*
X205369107Y-45326548D01*
X205369104Y-45326554D01*
X205311930Y-45539929D01*
X205311929Y-45539937D01*
X205292677Y-45759997D01*
X205292677Y-45760002D01*
X205311929Y-45980062D01*
X205311930Y-45980070D01*
X205369104Y-46193445D01*
X205369105Y-46193447D01*
X205369106Y-46193450D01*
X205462466Y-46393662D01*
X205462468Y-46393666D01*
X205589170Y-46574615D01*
X205589175Y-46574621D01*
X205745378Y-46730824D01*
X205745384Y-46730829D01*
X205926333Y-46857531D01*
X205926335Y-46857532D01*
X205926338Y-46857534D01*
X206045748Y-46913215D01*
X206055189Y-46917618D01*
X206107628Y-46963790D01*
X206126780Y-47030984D01*
X206106564Y-47097865D01*
X206055189Y-47142382D01*
X205926340Y-47202465D01*
X205926338Y-47202466D01*
X205745377Y-47329175D01*
X205589175Y-47485377D01*
X205462466Y-47666338D01*
X205462465Y-47666340D01*
X205369107Y-47866548D01*
X205369104Y-47866554D01*
X205311930Y-48079929D01*
X205311929Y-48079937D01*
X205292677Y-48299997D01*
X205292677Y-48300002D01*
X205311929Y-48520062D01*
X205311930Y-48520070D01*
X205369104Y-48733445D01*
X205369105Y-48733447D01*
X205369106Y-48733450D01*
X205462466Y-48933662D01*
X205462468Y-48933666D01*
X205589170Y-49114615D01*
X205589175Y-49114621D01*
X205745378Y-49270824D01*
X205745384Y-49270829D01*
X205926333Y-49397531D01*
X205926335Y-49397532D01*
X205926338Y-49397534D01*
X206045748Y-49453215D01*
X206055189Y-49457618D01*
X206107628Y-49503790D01*
X206126780Y-49570984D01*
X206106564Y-49637865D01*
X206055189Y-49682382D01*
X205926340Y-49742465D01*
X205926338Y-49742466D01*
X205745377Y-49869175D01*
X205589175Y-50025377D01*
X205462466Y-50206338D01*
X205462465Y-50206340D01*
X205369107Y-50406548D01*
X205369104Y-50406554D01*
X205311930Y-50619929D01*
X205311930Y-50619936D01*
X205292677Y-50839997D01*
X205292677Y-50840002D01*
X205311929Y-51060062D01*
X205311930Y-51060070D01*
X205369104Y-51273445D01*
X205369105Y-51273447D01*
X205369106Y-51273450D01*
X205419908Y-51382395D01*
X205462466Y-51473662D01*
X205462468Y-51473666D01*
X205589170Y-51654615D01*
X205589175Y-51654621D01*
X205745378Y-51810824D01*
X205745384Y-51810829D01*
X205926333Y-51937531D01*
X205926335Y-51937532D01*
X205926338Y-51937534D01*
X206045748Y-51993215D01*
X206055189Y-51997618D01*
X206107628Y-52043790D01*
X206126780Y-52110984D01*
X206106564Y-52177865D01*
X206055189Y-52222382D01*
X205926340Y-52282465D01*
X205926338Y-52282466D01*
X205745377Y-52409175D01*
X205589175Y-52565377D01*
X205462466Y-52746338D01*
X205462465Y-52746340D01*
X205453530Y-52765502D01*
X205376532Y-52930626D01*
X205369107Y-52946548D01*
X205369104Y-52946554D01*
X205311930Y-53159929D01*
X205311929Y-53159937D01*
X205292677Y-53379997D01*
X205292677Y-53380002D01*
X205311929Y-53600062D01*
X205311930Y-53600070D01*
X205369104Y-53813445D01*
X205369105Y-53813447D01*
X205369106Y-53813450D01*
X205456095Y-54000000D01*
X205462466Y-54013662D01*
X205462468Y-54013666D01*
X205589170Y-54194615D01*
X205589175Y-54194621D01*
X205745378Y-54350824D01*
X205745384Y-54350829D01*
X205926333Y-54477531D01*
X205926335Y-54477532D01*
X205926338Y-54477534D01*
X206045748Y-54533215D01*
X206055189Y-54537618D01*
X206107628Y-54583790D01*
X206126780Y-54650984D01*
X206106564Y-54717865D01*
X206055189Y-54762382D01*
X205926340Y-54822465D01*
X205926338Y-54822466D01*
X205745377Y-54949175D01*
X205589175Y-55105377D01*
X205462466Y-55286338D01*
X205462465Y-55286340D01*
X205369107Y-55486548D01*
X205369104Y-55486554D01*
X205311930Y-55699929D01*
X205311929Y-55699937D01*
X205292677Y-55919997D01*
X205292677Y-55920002D01*
X205311929Y-56140062D01*
X205311930Y-56140070D01*
X205369104Y-56353445D01*
X205369105Y-56353447D01*
X205369106Y-56353450D01*
X205432258Y-56488881D01*
X205462466Y-56553662D01*
X205462468Y-56553666D01*
X205589170Y-56734615D01*
X205589175Y-56734621D01*
X205745378Y-56890824D01*
X205745384Y-56890829D01*
X205926333Y-57017531D01*
X205926335Y-57017532D01*
X205926338Y-57017534D01*
X206045748Y-57073215D01*
X206055189Y-57077618D01*
X206107628Y-57123790D01*
X206126780Y-57190984D01*
X206106564Y-57257865D01*
X206055189Y-57302382D01*
X205926340Y-57362465D01*
X205926338Y-57362466D01*
X205745377Y-57489175D01*
X205589175Y-57645377D01*
X205462466Y-57826338D01*
X205462465Y-57826340D01*
X205369107Y-58026548D01*
X205369104Y-58026554D01*
X205311930Y-58239929D01*
X205311929Y-58239937D01*
X205292677Y-58459997D01*
X205292677Y-58460002D01*
X205311929Y-58680062D01*
X205311930Y-58680070D01*
X205369104Y-58893445D01*
X205369105Y-58893447D01*
X205369106Y-58893450D01*
X205425165Y-59013669D01*
X205462466Y-59093662D01*
X205462468Y-59093666D01*
X205589170Y-59274615D01*
X205589175Y-59274621D01*
X205745378Y-59430824D01*
X205745384Y-59430829D01*
X205926333Y-59557531D01*
X205926335Y-59557532D01*
X205926338Y-59557534D01*
X206045748Y-59613215D01*
X206055189Y-59617618D01*
X206107628Y-59663790D01*
X206126780Y-59730984D01*
X206106564Y-59797865D01*
X206055189Y-59842382D01*
X205926340Y-59902465D01*
X205926338Y-59902466D01*
X205745377Y-60029175D01*
X205589175Y-60185377D01*
X205462466Y-60366338D01*
X205462465Y-60366340D01*
X205369107Y-60566548D01*
X205369104Y-60566554D01*
X205311930Y-60779929D01*
X205311929Y-60779937D01*
X205292677Y-60999997D01*
X205292677Y-61000002D01*
X205311929Y-61220062D01*
X205311930Y-61220070D01*
X205369104Y-61433445D01*
X205369105Y-61433447D01*
X205369106Y-61433450D01*
X205439794Y-61585042D01*
X205462466Y-61633662D01*
X205462468Y-61633666D01*
X205589170Y-61814615D01*
X205589175Y-61814621D01*
X205745378Y-61970824D01*
X205745384Y-61970829D01*
X205926333Y-62097531D01*
X205926335Y-62097532D01*
X205926338Y-62097534D01*
X206015561Y-62139139D01*
X206055189Y-62157618D01*
X206107628Y-62203790D01*
X206126780Y-62270984D01*
X206106564Y-62337865D01*
X206055189Y-62382382D01*
X205926340Y-62442465D01*
X205926338Y-62442466D01*
X205745377Y-62569175D01*
X205589175Y-62725377D01*
X205462466Y-62906338D01*
X205462465Y-62906340D01*
X205369107Y-63106548D01*
X205369104Y-63106554D01*
X205311930Y-63319929D01*
X205311929Y-63319937D01*
X205292677Y-63539997D01*
X205292677Y-63540002D01*
X205311929Y-63760062D01*
X205311930Y-63760070D01*
X205369104Y-63973445D01*
X205369105Y-63973447D01*
X205369106Y-63973450D01*
X205412586Y-64066693D01*
X205462466Y-64173662D01*
X205462468Y-64173666D01*
X205589170Y-64354615D01*
X205589175Y-64354621D01*
X205745378Y-64510824D01*
X205745384Y-64510829D01*
X205926333Y-64637531D01*
X205926335Y-64637532D01*
X205926338Y-64637534D01*
X206015561Y-64679139D01*
X206055189Y-64697618D01*
X206107628Y-64743790D01*
X206126780Y-64810984D01*
X206106564Y-64877865D01*
X206055189Y-64922382D01*
X205926340Y-64982465D01*
X205926338Y-64982466D01*
X205745377Y-65109175D01*
X205589175Y-65265377D01*
X205462466Y-65446338D01*
X205462465Y-65446340D01*
X205369107Y-65646548D01*
X205369104Y-65646554D01*
X205311930Y-65859929D01*
X205311929Y-65859937D01*
X205292677Y-66079997D01*
X205292677Y-66080002D01*
X205311929Y-66300062D01*
X205311930Y-66300070D01*
X205369104Y-66513445D01*
X205369105Y-66513447D01*
X205369106Y-66513450D01*
X205416787Y-66615702D01*
X205462466Y-66713662D01*
X205462468Y-66713666D01*
X205589170Y-66894615D01*
X205589175Y-66894621D01*
X205745378Y-67050824D01*
X205745384Y-67050829D01*
X205926333Y-67177531D01*
X205926335Y-67177532D01*
X205926338Y-67177534D01*
X206045748Y-67233215D01*
X206055189Y-67237618D01*
X206107628Y-67283790D01*
X206126780Y-67350984D01*
X206106564Y-67417865D01*
X206055189Y-67462382D01*
X205926340Y-67522465D01*
X205926338Y-67522466D01*
X205745377Y-67649175D01*
X205589175Y-67805377D01*
X205462466Y-67986338D01*
X205462465Y-67986340D01*
X205369107Y-68186548D01*
X205369104Y-68186555D01*
X205336538Y-68308094D01*
X205300173Y-68367754D01*
X205237326Y-68398283D01*
X205216763Y-68400000D01*
X204391995Y-68400000D01*
X204324956Y-68380315D01*
X204307407Y-68366669D01*
X196539412Y-61119661D01*
X196503821Y-61059536D01*
X196500000Y-61028992D01*
X196500000Y-58544911D01*
X196499999Y-58544910D01*
X190983491Y-53528846D01*
X125808139Y-53409434D01*
X125749913Y-53394793D01*
X125678022Y-53356367D01*
X125605501Y-53317604D01*
X125605498Y-53317603D01*
X125426333Y-53263253D01*
X125426331Y-53263252D01*
X125240000Y-53244901D01*
X125053668Y-53263252D01*
X125053666Y-53263253D01*
X124874497Y-53317604D01*
X124733968Y-53392718D01*
X124675288Y-53407360D01*
X121456749Y-53401463D01*
X121389746Y-53381655D01*
X121344087Y-53328768D01*
X121343483Y-53327416D01*
X121324173Y-53283393D01*
X121284826Y-53223168D01*
X121188166Y-53075217D01*
X121087165Y-52965501D01*
X121019744Y-52892262D01*
X120823509Y-52739526D01*
X120823507Y-52739525D01*
X120823506Y-52739524D01*
X120604811Y-52621172D01*
X120604802Y-52621169D01*
X120369616Y-52540429D01*
X120124335Y-52499500D01*
X119875665Y-52499500D01*
X119630383Y-52540429D01*
X119395197Y-52621169D01*
X119395188Y-52621172D01*
X119176493Y-52739524D01*
X118980257Y-52892261D01*
X118811833Y-53075217D01*
X118675827Y-53283392D01*
X118658917Y-53321941D01*
X118613959Y-53375426D01*
X118547223Y-53396114D01*
X118545135Y-53396128D01*
X108377501Y-53377500D01*
X108377501Y-53377501D01*
X114828461Y-59828461D01*
X114861946Y-59889784D01*
X114856962Y-59959476D01*
X114815090Y-60015409D01*
X114772873Y-60035917D01*
X114633511Y-60073258D01*
X114633502Y-60073261D01*
X114427267Y-60169431D01*
X114427265Y-60169432D01*
X114240858Y-60299954D01*
X114079954Y-60460858D01*
X113949432Y-60647265D01*
X113949431Y-60647267D01*
X113922382Y-60705275D01*
X113876209Y-60757714D01*
X113809016Y-60776866D01*
X113742135Y-60756650D01*
X113697618Y-60705275D01*
X113670568Y-60647266D01*
X113540047Y-60460861D01*
X113540045Y-60460858D01*
X113379141Y-60299954D01*
X113192734Y-60169432D01*
X113192732Y-60169431D01*
X112986497Y-60073261D01*
X112986488Y-60073258D01*
X112766697Y-60014366D01*
X112766693Y-60014365D01*
X112766692Y-60014365D01*
X112766691Y-60014364D01*
X112766686Y-60014364D01*
X112540002Y-59994532D01*
X112539998Y-59994532D01*
X112313313Y-60014364D01*
X112313302Y-60014366D01*
X112093511Y-60073258D01*
X112093502Y-60073261D01*
X111887267Y-60169431D01*
X111887265Y-60169432D01*
X111700858Y-60299954D01*
X111539954Y-60460858D01*
X111409432Y-60647265D01*
X111409431Y-60647267D01*
X111382382Y-60705275D01*
X111336209Y-60757714D01*
X111269016Y-60776866D01*
X111202135Y-60756650D01*
X111157618Y-60705275D01*
X111130568Y-60647266D01*
X111000047Y-60460861D01*
X111000045Y-60460858D01*
X110839141Y-60299954D01*
X110652734Y-60169432D01*
X110652732Y-60169431D01*
X110446497Y-60073261D01*
X110446488Y-60073258D01*
X110226697Y-60014366D01*
X110226693Y-60014365D01*
X110226692Y-60014365D01*
X110226691Y-60014364D01*
X110226686Y-60014364D01*
X110000002Y-59994532D01*
X109999998Y-59994532D01*
X109773313Y-60014364D01*
X109773302Y-60014366D01*
X109553511Y-60073258D01*
X109553502Y-60073261D01*
X109347267Y-60169431D01*
X109347265Y-60169432D01*
X109160858Y-60299954D01*
X108999954Y-60460858D01*
X108869432Y-60647265D01*
X108869431Y-60647267D01*
X108842382Y-60705275D01*
X108796209Y-60757714D01*
X108729016Y-60776866D01*
X108662135Y-60756650D01*
X108617618Y-60705275D01*
X108590568Y-60647266D01*
X108460047Y-60460861D01*
X108460045Y-60460858D01*
X108299141Y-60299954D01*
X108112734Y-60169432D01*
X108112732Y-60169431D01*
X107906497Y-60073261D01*
X107906488Y-60073258D01*
X107686697Y-60014366D01*
X107686693Y-60014365D01*
X107686692Y-60014365D01*
X107686691Y-60014364D01*
X107686686Y-60014364D01*
X107460002Y-59994532D01*
X107459998Y-59994532D01*
X107233313Y-60014364D01*
X107233302Y-60014366D01*
X107013511Y-60073258D01*
X107013502Y-60073261D01*
X106807267Y-60169431D01*
X106807265Y-60169432D01*
X106620858Y-60299954D01*
X106459954Y-60460858D01*
X106329432Y-60647265D01*
X106329431Y-60647267D01*
X106302382Y-60705275D01*
X106256209Y-60757714D01*
X106189016Y-60776866D01*
X106122135Y-60756650D01*
X106077618Y-60705275D01*
X106050568Y-60647266D01*
X105920047Y-60460861D01*
X105920045Y-60460858D01*
X105759141Y-60299954D01*
X105572734Y-60169432D01*
X105572732Y-60169431D01*
X105366497Y-60073261D01*
X105366488Y-60073258D01*
X105146697Y-60014366D01*
X105146693Y-60014365D01*
X105146692Y-60014365D01*
X105146691Y-60014364D01*
X105146686Y-60014364D01*
X104920002Y-59994532D01*
X104919998Y-59994532D01*
X104693313Y-60014364D01*
X104693302Y-60014366D01*
X104473511Y-60073258D01*
X104473502Y-60073261D01*
X104267267Y-60169431D01*
X104267265Y-60169432D01*
X104080858Y-60299954D01*
X103919954Y-60460858D01*
X103789432Y-60647265D01*
X103789431Y-60647267D01*
X103762382Y-60705275D01*
X103716209Y-60757714D01*
X103649016Y-60776866D01*
X103582135Y-60756650D01*
X103537618Y-60705275D01*
X103510568Y-60647266D01*
X103380047Y-60460861D01*
X103380045Y-60460858D01*
X103219141Y-60299954D01*
X103032734Y-60169432D01*
X103032732Y-60169431D01*
X102826497Y-60073261D01*
X102826488Y-60073258D01*
X102606697Y-60014366D01*
X102606693Y-60014365D01*
X102606692Y-60014365D01*
X102606691Y-60014364D01*
X102606686Y-60014364D01*
X102380002Y-59994532D01*
X102379998Y-59994532D01*
X102153313Y-60014364D01*
X102153302Y-60014366D01*
X101933511Y-60073258D01*
X101933502Y-60073261D01*
X101727267Y-60169431D01*
X101727265Y-60169432D01*
X101540858Y-60299954D01*
X101379954Y-60460858D01*
X101249432Y-60647265D01*
X101249431Y-60647267D01*
X101222382Y-60705275D01*
X101176209Y-60757714D01*
X101109016Y-60776866D01*
X101042135Y-60756650D01*
X100997618Y-60705275D01*
X100970568Y-60647266D01*
X100840047Y-60460861D01*
X100840045Y-60460858D01*
X100679141Y-60299954D01*
X100492734Y-60169432D01*
X100492732Y-60169431D01*
X100286497Y-60073261D01*
X100286488Y-60073258D01*
X100066697Y-60014366D01*
X100066693Y-60014365D01*
X100066692Y-60014365D01*
X100066691Y-60014364D01*
X100066686Y-60014364D01*
X99840002Y-59994532D01*
X99839998Y-59994532D01*
X99613313Y-60014364D01*
X99613302Y-60014366D01*
X99393511Y-60073258D01*
X99393502Y-60073261D01*
X99187267Y-60169431D01*
X99187265Y-60169432D01*
X99000858Y-60299954D01*
X98839954Y-60460858D01*
X98709432Y-60647265D01*
X98709431Y-60647267D01*
X98682382Y-60705275D01*
X98636209Y-60757714D01*
X98569016Y-60776866D01*
X98502135Y-60756650D01*
X98457618Y-60705275D01*
X98430568Y-60647266D01*
X98300047Y-60460861D01*
X98300045Y-60460858D01*
X98139141Y-60299954D01*
X97952734Y-60169432D01*
X97952732Y-60169431D01*
X97746497Y-60073261D01*
X97746488Y-60073258D01*
X97526697Y-60014366D01*
X97526693Y-60014365D01*
X97526692Y-60014365D01*
X97526691Y-60014364D01*
X97526686Y-60014364D01*
X97300002Y-59994532D01*
X97299998Y-59994532D01*
X97073313Y-60014364D01*
X97073302Y-60014366D01*
X96853511Y-60073258D01*
X96853502Y-60073261D01*
X96647267Y-60169431D01*
X96647265Y-60169432D01*
X96460858Y-60299954D01*
X96299954Y-60460858D01*
X96169432Y-60647265D01*
X96169431Y-60647267D01*
X96142382Y-60705275D01*
X96096209Y-60757714D01*
X96029016Y-60776866D01*
X95962135Y-60756650D01*
X95917618Y-60705275D01*
X95890568Y-60647266D01*
X95760047Y-60460861D01*
X95760045Y-60460858D01*
X95599141Y-60299954D01*
X95412734Y-60169432D01*
X95412732Y-60169431D01*
X95206497Y-60073261D01*
X95206488Y-60073258D01*
X94986697Y-60014366D01*
X94986693Y-60014365D01*
X94986692Y-60014365D01*
X94986691Y-60014364D01*
X94986686Y-60014364D01*
X94760002Y-59994532D01*
X94759998Y-59994532D01*
X94533313Y-60014364D01*
X94533302Y-60014366D01*
X94313511Y-60073258D01*
X94313502Y-60073261D01*
X94107267Y-60169431D01*
X94107265Y-60169432D01*
X93920858Y-60299954D01*
X93759954Y-60460858D01*
X93629432Y-60647265D01*
X93629431Y-60647267D01*
X93602382Y-60705275D01*
X93556209Y-60757714D01*
X93489016Y-60776866D01*
X93422135Y-60756650D01*
X93377618Y-60705275D01*
X93350568Y-60647266D01*
X93220047Y-60460861D01*
X93220045Y-60460858D01*
X93059141Y-60299954D01*
X92872734Y-60169432D01*
X92872732Y-60169431D01*
X92666497Y-60073261D01*
X92666488Y-60073258D01*
X92446697Y-60014366D01*
X92446693Y-60014365D01*
X92446692Y-60014365D01*
X92446691Y-60014364D01*
X92446686Y-60014364D01*
X92220002Y-59994532D01*
X92219998Y-59994532D01*
X91993313Y-60014364D01*
X91993302Y-60014366D01*
X91773511Y-60073258D01*
X91773502Y-60073261D01*
X91567267Y-60169431D01*
X91567265Y-60169432D01*
X91380858Y-60299954D01*
X91219954Y-60460858D01*
X91089432Y-60647265D01*
X91089431Y-60647267D01*
X91062382Y-60705275D01*
X91016209Y-60757714D01*
X90949016Y-60776866D01*
X90882135Y-60756650D01*
X90837618Y-60705275D01*
X90810568Y-60647266D01*
X90680047Y-60460861D01*
X90680045Y-60460858D01*
X90519141Y-60299954D01*
X90332734Y-60169432D01*
X90332732Y-60169431D01*
X90126497Y-60073261D01*
X90126488Y-60073258D01*
X89906697Y-60014366D01*
X89906693Y-60014365D01*
X89906692Y-60014365D01*
X89906691Y-60014364D01*
X89906686Y-60014364D01*
X89680002Y-59994532D01*
X89679998Y-59994532D01*
X89453313Y-60014364D01*
X89453302Y-60014366D01*
X89233511Y-60073258D01*
X89233502Y-60073261D01*
X89027267Y-60169431D01*
X89027265Y-60169432D01*
X88840858Y-60299954D01*
X88679954Y-60460858D01*
X88549432Y-60647265D01*
X88549428Y-60647272D01*
X88522105Y-60705866D01*
X88475932Y-60758305D01*
X88408738Y-60777456D01*
X88341858Y-60757239D01*
X88297342Y-60705864D01*
X88270136Y-60647521D01*
X88270132Y-60647513D01*
X88219025Y-60574526D01*
X87663787Y-61129763D01*
X87652518Y-61087708D01*
X87580110Y-60962292D01*
X87477708Y-60859890D01*
X87352292Y-60787482D01*
X87310234Y-60776212D01*
X87865472Y-60220974D01*
X87792478Y-60169863D01*
X87586331Y-60073735D01*
X87586317Y-60073730D01*
X87366610Y-60014860D01*
X87366599Y-60014858D01*
X87140002Y-59995034D01*
X87139998Y-59995034D01*
X86913400Y-60014858D01*
X86913389Y-60014860D01*
X86693682Y-60073730D01*
X86693673Y-60073734D01*
X86487516Y-60169866D01*
X86487512Y-60169868D01*
X86414526Y-60220973D01*
X86414526Y-60220974D01*
X86969765Y-60776212D01*
X86927708Y-60787482D01*
X86802292Y-60859890D01*
X86699890Y-60962292D01*
X86627482Y-61087708D01*
X86616212Y-61129765D01*
X86060974Y-60574526D01*
X86060973Y-60574526D01*
X86009868Y-60647512D01*
X86009868Y-60647513D01*
X85982657Y-60705867D01*
X85936484Y-60758306D01*
X85869290Y-60777457D01*
X85802409Y-60757241D01*
X85757893Y-60705865D01*
X85730682Y-60647512D01*
X85730568Y-60647266D01*
X85600047Y-60460861D01*
X85600045Y-60460858D01*
X85439140Y-60299953D01*
X85252877Y-60169531D01*
X85209252Y-60114954D01*
X85200000Y-60067956D01*
X85200000Y-59600000D01*
X79200000Y-59600000D01*
X68543084Y-59600000D01*
X68476045Y-59580315D01*
X68430290Y-59527511D01*
X68426181Y-59515818D01*
X68425730Y-59515973D01*
X68424064Y-59511122D01*
X68388844Y-59430829D01*
X68324173Y-59283393D01*
X68200219Y-59093666D01*
X68188166Y-59075217D01*
X68131507Y-59013669D01*
X68019744Y-58892262D01*
X67823509Y-58739526D01*
X67823507Y-58739525D01*
X67823506Y-58739524D01*
X67604811Y-58621172D01*
X67604802Y-58621169D01*
X67369616Y-58540429D01*
X67124335Y-58499500D01*
X66875665Y-58499500D01*
X66630383Y-58540429D01*
X66395197Y-58621169D01*
X66395188Y-58621172D01*
X66176493Y-58739524D01*
X65980257Y-58892261D01*
X65980256Y-58892262D01*
X65969452Y-58903997D01*
X65811833Y-59075217D01*
X65675826Y-59283393D01*
X65575935Y-59511122D01*
X65574270Y-59515973D01*
X65571943Y-59515174D01*
X65541640Y-59566542D01*
X65479239Y-59597974D01*
X65456916Y-59600000D01*
X64124000Y-59600000D01*
X64056961Y-59580315D01*
X64011206Y-59527511D01*
X64000000Y-59476000D01*
X64000000Y-51500000D01*
X93044901Y-51500000D01*
X93063252Y-51686331D01*
X93063253Y-51686333D01*
X93117604Y-51865502D01*
X93205862Y-52030623D01*
X93205864Y-52030626D01*
X93324642Y-52175357D01*
X93469373Y-52294135D01*
X93469376Y-52294137D01*
X93578881Y-52352668D01*
X93634499Y-52382396D01*
X93737592Y-52413669D01*
X93813666Y-52436746D01*
X93813668Y-52436747D01*
X93830374Y-52438392D01*
X94000000Y-52455099D01*
X94186331Y-52436747D01*
X94307469Y-52400000D01*
X95744901Y-52400000D01*
X95763252Y-52586331D01*
X95763253Y-52586333D01*
X95817604Y-52765502D01*
X95905862Y-52930623D01*
X95905864Y-52930626D01*
X96024642Y-53075357D01*
X96169373Y-53194135D01*
X96169376Y-53194137D01*
X96321328Y-53275356D01*
X96334499Y-53282396D01*
X96487366Y-53328768D01*
X96513666Y-53336746D01*
X96513668Y-53336747D01*
X96530374Y-53338392D01*
X96700000Y-53355099D01*
X96886331Y-53336747D01*
X97065501Y-53282396D01*
X97213606Y-53203233D01*
X97233733Y-53192475D01*
X97302136Y-53178233D01*
X97367380Y-53203233D01*
X97388039Y-53223168D01*
X97430868Y-53275356D01*
X97575599Y-53394134D01*
X97575602Y-53394136D01*
X97740723Y-53482394D01*
X97740725Y-53482395D01*
X97919892Y-53536745D01*
X97919894Y-53536746D01*
X97936600Y-53538391D01*
X98106226Y-53555098D01*
X98292557Y-53536746D01*
X98471727Y-53482395D01*
X98636851Y-53394135D01*
X98663955Y-53371890D01*
X98728264Y-53344577D01*
X98797132Y-53356367D01*
X98821286Y-53371890D01*
X98848391Y-53394135D01*
X98848394Y-53394137D01*
X99013513Y-53482394D01*
X99013517Y-53482396D01*
X99192684Y-53536746D01*
X99192686Y-53536747D01*
X99209392Y-53538392D01*
X99379018Y-53555099D01*
X99565349Y-53536747D01*
X99744519Y-53482396D01*
X99909643Y-53394136D01*
X99936747Y-53371891D01*
X100001056Y-53344578D01*
X100069924Y-53356368D01*
X100094078Y-53371891D01*
X100121182Y-53394135D01*
X100121185Y-53394137D01*
X100286304Y-53482394D01*
X100286308Y-53482396D01*
X100465475Y-53536746D01*
X100465477Y-53536747D01*
X100482183Y-53538392D01*
X100651809Y-53555099D01*
X100838140Y-53536747D01*
X101017310Y-53482396D01*
X101182434Y-53394136D01*
X101209540Y-53371889D01*
X101273848Y-53344577D01*
X101342715Y-53356367D01*
X101366865Y-53371887D01*
X101393976Y-53394136D01*
X101393977Y-53394136D01*
X101393979Y-53394138D01*
X101393981Y-53394139D01*
X101559096Y-53482394D01*
X101559100Y-53482396D01*
X101738267Y-53536746D01*
X101738269Y-53536747D01*
X101754975Y-53538392D01*
X101924601Y-53555099D01*
X102110932Y-53536747D01*
X102290102Y-53482396D01*
X102455226Y-53394136D01*
X102482330Y-53371891D01*
X102546639Y-53344578D01*
X102615507Y-53356368D01*
X102639661Y-53371891D01*
X102666765Y-53394135D01*
X102666768Y-53394137D01*
X102831887Y-53482394D01*
X102831891Y-53482396D01*
X103011058Y-53536746D01*
X103011060Y-53536747D01*
X103027766Y-53538392D01*
X103197392Y-53555099D01*
X103383723Y-53536747D01*
X103562893Y-53482396D01*
X103728017Y-53394136D01*
X103755123Y-53371889D01*
X103819431Y-53344577D01*
X103888298Y-53356367D01*
X103912448Y-53371887D01*
X103939559Y-53394136D01*
X103939560Y-53394136D01*
X103939562Y-53394138D01*
X103939564Y-53394139D01*
X104104679Y-53482394D01*
X104104683Y-53482396D01*
X104283850Y-53536746D01*
X104283852Y-53536747D01*
X104300558Y-53538392D01*
X104470184Y-53555099D01*
X104656515Y-53536747D01*
X104835685Y-53482396D01*
X105000809Y-53394136D01*
X105145541Y-53275357D01*
X105264320Y-53130625D01*
X105338873Y-52991144D01*
X105387834Y-52941303D01*
X105455971Y-52925842D01*
X105521651Y-52949673D01*
X105564020Y-53005231D01*
X105566890Y-53013603D01*
X105576115Y-53044014D01*
X105664373Y-53209134D01*
X105664375Y-53209137D01*
X105783153Y-53353868D01*
X105927884Y-53472646D01*
X105927887Y-53472648D01*
X106064445Y-53545639D01*
X106093010Y-53560907D01*
X106272177Y-53615257D01*
X106272179Y-53615258D01*
X106288885Y-53616903D01*
X106458511Y-53633610D01*
X106644842Y-53615258D01*
X106824012Y-53560907D01*
X106989136Y-53472647D01*
X107133868Y-53353868D01*
X107252647Y-53209136D01*
X107340907Y-53044012D01*
X107395258Y-52864842D01*
X107413610Y-52678511D01*
X107395258Y-52492180D01*
X107340907Y-52313010D01*
X107324581Y-52282466D01*
X107252648Y-52147887D01*
X107252646Y-52147884D01*
X107133868Y-52003153D01*
X106989137Y-51884375D01*
X106989134Y-51884373D01*
X106824013Y-51796115D01*
X106644844Y-51741764D01*
X106644842Y-51741763D01*
X106458511Y-51723412D01*
X106272179Y-51741763D01*
X106272177Y-51741764D01*
X106093008Y-51796115D01*
X105927887Y-51884373D01*
X105927884Y-51884375D01*
X105783153Y-52003153D01*
X105664376Y-52147884D01*
X105589822Y-52287364D01*
X105540859Y-52337208D01*
X105472722Y-52352668D01*
X105407042Y-52328836D01*
X105364673Y-52273278D01*
X105361808Y-52264920D01*
X105352580Y-52234499D01*
X105352578Y-52234496D01*
X105352578Y-52234494D01*
X105264321Y-52069376D01*
X105264319Y-52069373D01*
X105145541Y-51924642D01*
X105000810Y-51805864D01*
X105000807Y-51805862D01*
X104835686Y-51717604D01*
X104656517Y-51663253D01*
X104656515Y-51663252D01*
X104470184Y-51644901D01*
X104283852Y-51663252D01*
X104283850Y-51663253D01*
X104104681Y-51717604D01*
X103939560Y-51805862D01*
X103939557Y-51805864D01*
X103912453Y-51828109D01*
X103848143Y-51855422D01*
X103779276Y-51843631D01*
X103755123Y-51828109D01*
X103728018Y-51805864D01*
X103728015Y-51805862D01*
X103562894Y-51717604D01*
X103383725Y-51663253D01*
X103383723Y-51663252D01*
X103197392Y-51644901D01*
X103011060Y-51663252D01*
X103011058Y-51663253D01*
X102831889Y-51717604D01*
X102666773Y-51805860D01*
X102666768Y-51805863D01*
X102639658Y-51828111D01*
X102575347Y-51855422D01*
X102506480Y-51843628D01*
X102482331Y-51828108D01*
X102455227Y-51805864D01*
X102455224Y-51805862D01*
X102290103Y-51717604D01*
X102110934Y-51663253D01*
X102110932Y-51663252D01*
X101924601Y-51644901D01*
X101738269Y-51663252D01*
X101738267Y-51663253D01*
X101559098Y-51717604D01*
X101393977Y-51805862D01*
X101393974Y-51805864D01*
X101366870Y-51828109D01*
X101302560Y-51855422D01*
X101233693Y-51843631D01*
X101209540Y-51828109D01*
X101182435Y-51805864D01*
X101182432Y-51805862D01*
X101017311Y-51717604D01*
X100838142Y-51663253D01*
X100838140Y-51663252D01*
X100651809Y-51644901D01*
X100465477Y-51663252D01*
X100465475Y-51663253D01*
X100286306Y-51717604D01*
X100121190Y-51805860D01*
X100121185Y-51805863D01*
X100094075Y-51828111D01*
X100029764Y-51855422D01*
X99960897Y-51843628D01*
X99936748Y-51828108D01*
X99909644Y-51805864D01*
X99909641Y-51805862D01*
X99744520Y-51717604D01*
X99565351Y-51663253D01*
X99565349Y-51663252D01*
X99379018Y-51644901D01*
X99192686Y-51663252D01*
X99192684Y-51663253D01*
X99013515Y-51717604D01*
X98848399Y-51805860D01*
X98848394Y-51805863D01*
X98821284Y-51828111D01*
X98756973Y-51855422D01*
X98688106Y-51843628D01*
X98663957Y-51828108D01*
X98636852Y-51805863D01*
X98636849Y-51805861D01*
X98471728Y-51717603D01*
X98292559Y-51663252D01*
X98292557Y-51663251D01*
X98106226Y-51644900D01*
X97919894Y-51663251D01*
X97919892Y-51663252D01*
X97740727Y-51717602D01*
X97572493Y-51807524D01*
X97504090Y-51821765D01*
X97438846Y-51796765D01*
X97418187Y-51776830D01*
X97375357Y-51724642D01*
X97230626Y-51605864D01*
X97230623Y-51605862D01*
X97065502Y-51517604D01*
X96886333Y-51463253D01*
X96886331Y-51463252D01*
X96700000Y-51444901D01*
X96513668Y-51463252D01*
X96513666Y-51463253D01*
X96334497Y-51517604D01*
X96169376Y-51605862D01*
X96169373Y-51605864D01*
X96024642Y-51724642D01*
X95905864Y-51869373D01*
X95905862Y-51869376D01*
X95817604Y-52034497D01*
X95763253Y-52213666D01*
X95763252Y-52213668D01*
X95744901Y-52400000D01*
X94307469Y-52400000D01*
X94365501Y-52382396D01*
X94530625Y-52294136D01*
X94675357Y-52175357D01*
X94794136Y-52030625D01*
X94882396Y-51865501D01*
X94936747Y-51686331D01*
X94955099Y-51500000D01*
X94936747Y-51313669D01*
X94882396Y-51134499D01*
X94794136Y-50969375D01*
X94794135Y-50969373D01*
X94675357Y-50824642D01*
X94530626Y-50705864D01*
X94530623Y-50705862D01*
X94365502Y-50617604D01*
X94186333Y-50563253D01*
X94186331Y-50563252D01*
X94000000Y-50544901D01*
X93813668Y-50563252D01*
X93813666Y-50563253D01*
X93634497Y-50617604D01*
X93469376Y-50705862D01*
X93469373Y-50705864D01*
X93324642Y-50824642D01*
X93205864Y-50969373D01*
X93205862Y-50969376D01*
X93117604Y-51134497D01*
X93063253Y-51313666D01*
X93063252Y-51313668D01*
X93044901Y-51500000D01*
X64000000Y-51500000D01*
X64000000Y-50500000D01*
X97644901Y-50500000D01*
X97663252Y-50686331D01*
X97663253Y-50686333D01*
X97717604Y-50865502D01*
X97805862Y-51030623D01*
X97805864Y-51030626D01*
X97924642Y-51175357D01*
X98069373Y-51294135D01*
X98069376Y-51294137D01*
X98234497Y-51382395D01*
X98234499Y-51382396D01*
X98413666Y-51436746D01*
X98413668Y-51436747D01*
X98430374Y-51438392D01*
X98600000Y-51455099D01*
X98786331Y-51436747D01*
X98965501Y-51382396D01*
X99130625Y-51294136D01*
X99275357Y-51175357D01*
X99394136Y-51030625D01*
X99482396Y-50865501D01*
X99536747Y-50686331D01*
X99555099Y-50500000D01*
X99536747Y-50313669D01*
X99482396Y-50134499D01*
X99424071Y-50025380D01*
X99394137Y-49969376D01*
X99394135Y-49969373D01*
X99275357Y-49824642D01*
X99130626Y-49705864D01*
X99130623Y-49705862D01*
X98965502Y-49617604D01*
X98786333Y-49563253D01*
X98786331Y-49563252D01*
X98600000Y-49544901D01*
X98413668Y-49563252D01*
X98413666Y-49563253D01*
X98234497Y-49617604D01*
X98069376Y-49705862D01*
X98069373Y-49705864D01*
X97924642Y-49824642D01*
X97805864Y-49969373D01*
X97805862Y-49969376D01*
X97717604Y-50134497D01*
X97663253Y-50313666D01*
X97663252Y-50313668D01*
X97644901Y-50500000D01*
X64000000Y-50500000D01*
X64000000Y-40900000D01*
X63780139Y-40680002D01*
X60638400Y-37536298D01*
X60604936Y-37474965D01*
X60602110Y-37448680D01*
X60602100Y-37413668D01*
X60600878Y-33100000D01*
X63544901Y-33100000D01*
X63563252Y-33286331D01*
X63563253Y-33286333D01*
X63617604Y-33465502D01*
X63705862Y-33630623D01*
X63705864Y-33630626D01*
X63824642Y-33775357D01*
X63969373Y-33894135D01*
X63969376Y-33894137D01*
X64112127Y-33970438D01*
X64134499Y-33982396D01*
X64313666Y-34036746D01*
X64313668Y-34036747D01*
X64330374Y-34038392D01*
X64500000Y-34055099D01*
X64686331Y-34036747D01*
X64865501Y-33982396D01*
X64877046Y-33976224D01*
X64945449Y-33961983D01*
X65010693Y-33986983D01*
X65052064Y-34043287D01*
X65059500Y-34085583D01*
X65059500Y-40979651D01*
X65039815Y-41046690D01*
X65031353Y-41058316D01*
X65005864Y-41089373D01*
X65005862Y-41089376D01*
X64917604Y-41254497D01*
X64863253Y-41433666D01*
X64863252Y-41433668D01*
X64844901Y-41620000D01*
X64863252Y-41806331D01*
X64863253Y-41806333D01*
X64917604Y-41985502D01*
X65005862Y-42150623D01*
X65005864Y-42150626D01*
X65124642Y-42295357D01*
X65269373Y-42414135D01*
X65269376Y-42414137D01*
X65434497Y-42502395D01*
X65434499Y-42502396D01*
X65613666Y-42556746D01*
X65613668Y-42556747D01*
X65630374Y-42558392D01*
X65800000Y-42575099D01*
X65986331Y-42556747D01*
X66165501Y-42502396D01*
X66330625Y-42414136D01*
X66475357Y-42295357D01*
X66594136Y-42150625D01*
X66682396Y-41985501D01*
X66736747Y-41806331D01*
X66755099Y-41620000D01*
X66736747Y-41433669D01*
X66682396Y-41254499D01*
X66682395Y-41254497D01*
X66594137Y-41089376D01*
X66594135Y-41089373D01*
X66488647Y-40960836D01*
X66461334Y-40896526D01*
X66460500Y-40882171D01*
X66460500Y-37600000D01*
X68344901Y-37600000D01*
X68363252Y-37786331D01*
X68363253Y-37786333D01*
X68417604Y-37965502D01*
X68505862Y-38130623D01*
X68505864Y-38130626D01*
X68624642Y-38275357D01*
X68769373Y-38394135D01*
X68769376Y-38394137D01*
X68934497Y-38482395D01*
X68934499Y-38482396D01*
X69113666Y-38536746D01*
X69113668Y-38536747D01*
X69130374Y-38538392D01*
X69300000Y-38555099D01*
X69486331Y-38536747D01*
X69665501Y-38482396D01*
X69830625Y-38394136D01*
X69975357Y-38275357D01*
X70094136Y-38130625D01*
X70182396Y-37965501D01*
X70236747Y-37786331D01*
X70255099Y-37600000D01*
X70236747Y-37413669D01*
X70182396Y-37234499D01*
X70147480Y-37169175D01*
X70094137Y-37069376D01*
X70094135Y-37069373D01*
X69975357Y-36924642D01*
X69830626Y-36805864D01*
X69830623Y-36805862D01*
X69665502Y-36717604D01*
X69486333Y-36663253D01*
X69486331Y-36663252D01*
X69300000Y-36644901D01*
X69113668Y-36663252D01*
X69113666Y-36663253D01*
X68934497Y-36717604D01*
X68769376Y-36805862D01*
X68769373Y-36805864D01*
X68624642Y-36924642D01*
X68505864Y-37069373D01*
X68505862Y-37069376D01*
X68417604Y-37234497D01*
X68363253Y-37413666D01*
X68363252Y-37413668D01*
X68344901Y-37600000D01*
X66460500Y-37600000D01*
X66460500Y-36727143D01*
X66480185Y-36660104D01*
X66532989Y-36614349D01*
X66602147Y-36604405D01*
X66620494Y-36608482D01*
X66679833Y-36626483D01*
X66713666Y-36636746D01*
X66713668Y-36636747D01*
X66730374Y-36638392D01*
X66900000Y-36655099D01*
X67086331Y-36636747D01*
X67265501Y-36582396D01*
X67430625Y-36494136D01*
X67575357Y-36375357D01*
X67694136Y-36230625D01*
X67782396Y-36065501D01*
X67836747Y-35886331D01*
X67855099Y-35700000D01*
X67836747Y-35513669D01*
X67782396Y-35334499D01*
X67694136Y-35169375D01*
X67694135Y-35169373D01*
X67575357Y-35024642D01*
X67430626Y-34905864D01*
X67430623Y-34905862D01*
X67265502Y-34817604D01*
X67086333Y-34763253D01*
X67086331Y-34763252D01*
X66900000Y-34744901D01*
X66713670Y-34763252D01*
X66620495Y-34791517D01*
X66550628Y-34792140D01*
X66491515Y-34754892D01*
X66461924Y-34691597D01*
X66460500Y-34672856D01*
X66460500Y-33926903D01*
X66480185Y-33859864D01*
X66488647Y-33848238D01*
X66498042Y-33836790D01*
X66544136Y-33780625D01*
X66632396Y-33615501D01*
X66686747Y-33436331D01*
X66705099Y-33250000D01*
X66686747Y-33063669D01*
X66667433Y-33000000D01*
X71444901Y-33000000D01*
X71463252Y-33186331D01*
X71463253Y-33186333D01*
X71517604Y-33365502D01*
X71605862Y-33530623D01*
X71605864Y-33530626D01*
X71724642Y-33675357D01*
X71869373Y-33794135D01*
X71869376Y-33794137D01*
X72019951Y-33874620D01*
X72034499Y-33882396D01*
X72203071Y-33933532D01*
X72213666Y-33936746D01*
X72213668Y-33936747D01*
X72222441Y-33937611D01*
X72400000Y-33955099D01*
X72586331Y-33936747D01*
X72765501Y-33882396D01*
X72846615Y-33839040D01*
X72917047Y-33801394D01*
X72985450Y-33787152D01*
X73050694Y-33812152D01*
X73092064Y-33868457D01*
X73099500Y-33910752D01*
X73099500Y-41030911D01*
X73079815Y-41097950D01*
X73071353Y-41109576D01*
X73005864Y-41189373D01*
X73005862Y-41189376D01*
X72917604Y-41354497D01*
X72863253Y-41533666D01*
X72863252Y-41533668D01*
X72844901Y-41720000D01*
X72863252Y-41906331D01*
X72863253Y-41906333D01*
X72917604Y-42085502D01*
X73005862Y-42250623D01*
X73005864Y-42250626D01*
X73124642Y-42395357D01*
X73269373Y-42514135D01*
X73269376Y-42514137D01*
X73404456Y-42586338D01*
X73434499Y-42602396D01*
X73613666Y-42656746D01*
X73613668Y-42656747D01*
X73630374Y-42658392D01*
X73800000Y-42675099D01*
X73986331Y-42656747D01*
X74165501Y-42602396D01*
X74330625Y-42514136D01*
X74475357Y-42395357D01*
X74594136Y-42250625D01*
X74682396Y-42085501D01*
X74736747Y-41906331D01*
X74755099Y-41720000D01*
X74736747Y-41533669D01*
X74682396Y-41354499D01*
X74682395Y-41354497D01*
X74594137Y-41189376D01*
X74594135Y-41189373D01*
X74528647Y-41109576D01*
X74501334Y-41045266D01*
X74500500Y-41030911D01*
X74500500Y-37600000D01*
X76244901Y-37600000D01*
X76263252Y-37786331D01*
X76263253Y-37786333D01*
X76317604Y-37965502D01*
X76405862Y-38130623D01*
X76405864Y-38130626D01*
X76524642Y-38275357D01*
X76669373Y-38394135D01*
X76669376Y-38394137D01*
X76834497Y-38482395D01*
X76834499Y-38482396D01*
X77013666Y-38536746D01*
X77013668Y-38536747D01*
X77030374Y-38538392D01*
X77200000Y-38555099D01*
X77386331Y-38536747D01*
X77565501Y-38482396D01*
X77730625Y-38394136D01*
X77875357Y-38275357D01*
X77994136Y-38130625D01*
X78082396Y-37965501D01*
X78136747Y-37786331D01*
X78155099Y-37600000D01*
X78136747Y-37413669D01*
X78082396Y-37234499D01*
X78047480Y-37169175D01*
X77994137Y-37069376D01*
X77994135Y-37069373D01*
X77875357Y-36924642D01*
X77730626Y-36805864D01*
X77730623Y-36805862D01*
X77565502Y-36717604D01*
X77386333Y-36663253D01*
X77386331Y-36663252D01*
X77200000Y-36644901D01*
X77013668Y-36663252D01*
X77013666Y-36663253D01*
X76834497Y-36717604D01*
X76669376Y-36805862D01*
X76669373Y-36805864D01*
X76524642Y-36924642D01*
X76405864Y-37069373D01*
X76405862Y-37069376D01*
X76317604Y-37234497D01*
X76263253Y-37413666D01*
X76263252Y-37413668D01*
X76244901Y-37600000D01*
X74500500Y-37600000D01*
X74500500Y-36708942D01*
X74520185Y-36641903D01*
X74572989Y-36596148D01*
X74642147Y-36586204D01*
X74660494Y-36590281D01*
X74785454Y-36628188D01*
X74813666Y-36636746D01*
X74813668Y-36636747D01*
X74830374Y-36638392D01*
X75000000Y-36655099D01*
X75186331Y-36636747D01*
X75365501Y-36582396D01*
X75530625Y-36494136D01*
X75675357Y-36375357D01*
X75794136Y-36230625D01*
X75882396Y-36065501D01*
X75936747Y-35886331D01*
X75955099Y-35700000D01*
X75936747Y-35513669D01*
X75882396Y-35334499D01*
X75794136Y-35169375D01*
X75794135Y-35169373D01*
X75675357Y-35024642D01*
X75530626Y-34905864D01*
X75530623Y-34905862D01*
X75365502Y-34817604D01*
X75186333Y-34763253D01*
X75186331Y-34763252D01*
X75000000Y-34744901D01*
X74813670Y-34763252D01*
X74660495Y-34809718D01*
X74590628Y-34810341D01*
X74531515Y-34773093D01*
X74501925Y-34709799D01*
X74500500Y-34691057D01*
X74500500Y-33649777D01*
X74515141Y-33591326D01*
X74582396Y-33465501D01*
X74636747Y-33286331D01*
X74655099Y-33100000D01*
X79444901Y-33100000D01*
X79463252Y-33286331D01*
X79463253Y-33286333D01*
X79517604Y-33465502D01*
X79605862Y-33630623D01*
X79605864Y-33630626D01*
X79724642Y-33775357D01*
X79869373Y-33894135D01*
X79869376Y-33894137D01*
X80012127Y-33970438D01*
X80034499Y-33982396D01*
X80213666Y-34036746D01*
X80213668Y-34036747D01*
X80230374Y-34038392D01*
X80400000Y-34055099D01*
X80586331Y-34036747D01*
X80765501Y-33982396D01*
X80874499Y-33924136D01*
X80877047Y-33922774D01*
X80945450Y-33908532D01*
X81010693Y-33933532D01*
X81052064Y-33989837D01*
X81059500Y-34032132D01*
X81059500Y-41079651D01*
X81039815Y-41146690D01*
X81031353Y-41158316D01*
X81005864Y-41189373D01*
X81005862Y-41189376D01*
X80917604Y-41354497D01*
X80863253Y-41533666D01*
X80863252Y-41533668D01*
X80844901Y-41720000D01*
X80863252Y-41906331D01*
X80863253Y-41906333D01*
X80917604Y-42085502D01*
X81005862Y-42250623D01*
X81005864Y-42250626D01*
X81124642Y-42395357D01*
X81269373Y-42514135D01*
X81269376Y-42514137D01*
X81404456Y-42586338D01*
X81434499Y-42602396D01*
X81613666Y-42656746D01*
X81613668Y-42656747D01*
X81630374Y-42658392D01*
X81800000Y-42675099D01*
X81986331Y-42656747D01*
X82165501Y-42602396D01*
X82330625Y-42514136D01*
X82475357Y-42395357D01*
X82594136Y-42250625D01*
X82682396Y-42085501D01*
X82736747Y-41906331D01*
X82755099Y-41720000D01*
X82736747Y-41533669D01*
X82682396Y-41354499D01*
X82682395Y-41354497D01*
X82594137Y-41189376D01*
X82594135Y-41189373D01*
X82488647Y-41060836D01*
X82461334Y-40996526D01*
X82460500Y-40982171D01*
X82460500Y-37600000D01*
X84344901Y-37600000D01*
X84363252Y-37786331D01*
X84363253Y-37786333D01*
X84417604Y-37965502D01*
X84505862Y-38130623D01*
X84505864Y-38130626D01*
X84624642Y-38275357D01*
X84769373Y-38394135D01*
X84769376Y-38394137D01*
X84934497Y-38482395D01*
X84934499Y-38482396D01*
X85113666Y-38536746D01*
X85113668Y-38536747D01*
X85130374Y-38538392D01*
X85300000Y-38555099D01*
X85486331Y-38536747D01*
X85665501Y-38482396D01*
X85830625Y-38394136D01*
X85975357Y-38275357D01*
X86094136Y-38130625D01*
X86182396Y-37965501D01*
X86236747Y-37786331D01*
X86255099Y-37600000D01*
X86236747Y-37413669D01*
X86182396Y-37234499D01*
X86147480Y-37169175D01*
X86094137Y-37069376D01*
X86094135Y-37069373D01*
X85975357Y-36924642D01*
X85830626Y-36805864D01*
X85830623Y-36805862D01*
X85665502Y-36717604D01*
X85486333Y-36663253D01*
X85486331Y-36663252D01*
X85300000Y-36644901D01*
X85113668Y-36663252D01*
X85113666Y-36663253D01*
X84934497Y-36717604D01*
X84769376Y-36805862D01*
X84769373Y-36805864D01*
X84624642Y-36924642D01*
X84505864Y-37069373D01*
X84505862Y-37069376D01*
X84417604Y-37234497D01*
X84363253Y-37413666D01*
X84363252Y-37413668D01*
X84344901Y-37600000D01*
X82460500Y-37600000D01*
X82460500Y-36695902D01*
X82480185Y-36628863D01*
X82532989Y-36583108D01*
X82602147Y-36573164D01*
X82631955Y-36581342D01*
X82634496Y-36582394D01*
X82634499Y-36582396D01*
X82779833Y-36626483D01*
X82813666Y-36636746D01*
X82813668Y-36636747D01*
X82830374Y-36638392D01*
X83000000Y-36655099D01*
X83186331Y-36636747D01*
X83365501Y-36582396D01*
X83530625Y-36494136D01*
X83675357Y-36375357D01*
X83794136Y-36230625D01*
X83882396Y-36065501D01*
X83936747Y-35886331D01*
X83955099Y-35700000D01*
X83936747Y-35513669D01*
X83882396Y-35334499D01*
X83794136Y-35169375D01*
X83794135Y-35169373D01*
X83675357Y-35024642D01*
X83530626Y-34905864D01*
X83530623Y-34905862D01*
X83365502Y-34817604D01*
X83186333Y-34763253D01*
X83186331Y-34763252D01*
X83000000Y-34744901D01*
X82813668Y-34763252D01*
X82813666Y-34763253D01*
X82634496Y-34817604D01*
X82631943Y-34818662D01*
X82630499Y-34818817D01*
X82628670Y-34819372D01*
X82628564Y-34819024D01*
X82562473Y-34826125D01*
X82499997Y-34794845D01*
X82464349Y-34734753D01*
X82460500Y-34704097D01*
X82460500Y-33715978D01*
X82480185Y-33648939D01*
X82488650Y-33637310D01*
X82492019Y-33633204D01*
X82494136Y-33630625D01*
X82582396Y-33465501D01*
X82636747Y-33286331D01*
X82655099Y-33100000D01*
X87544901Y-33100000D01*
X87563252Y-33286331D01*
X87563253Y-33286333D01*
X87617604Y-33465502D01*
X87705862Y-33630623D01*
X87705864Y-33630626D01*
X87824642Y-33775357D01*
X87969373Y-33894135D01*
X87969376Y-33894137D01*
X88112127Y-33970438D01*
X88134499Y-33982396D01*
X88313666Y-34036746D01*
X88313668Y-34036747D01*
X88330374Y-34038392D01*
X88500000Y-34055099D01*
X88686331Y-34036747D01*
X88865501Y-33982396D01*
X88917048Y-33954843D01*
X88985448Y-33940602D01*
X89050692Y-33965601D01*
X89092063Y-34021906D01*
X89099500Y-34064202D01*
X89099500Y-40930911D01*
X89079815Y-40997950D01*
X89071353Y-41009576D01*
X89005864Y-41089373D01*
X89005862Y-41089376D01*
X88917604Y-41254497D01*
X88863253Y-41433666D01*
X88863252Y-41433668D01*
X88844901Y-41620000D01*
X88863252Y-41806331D01*
X88863253Y-41806333D01*
X88917604Y-41985502D01*
X89005862Y-42150623D01*
X89005864Y-42150626D01*
X89124642Y-42295357D01*
X89269373Y-42414135D01*
X89269376Y-42414137D01*
X89434497Y-42502395D01*
X89434499Y-42502396D01*
X89613666Y-42556746D01*
X89613668Y-42556747D01*
X89630374Y-42558392D01*
X89800000Y-42575099D01*
X89986331Y-42556747D01*
X90165501Y-42502396D01*
X90330625Y-42414136D01*
X90475357Y-42295357D01*
X90594136Y-42150625D01*
X90682396Y-41985501D01*
X90736747Y-41806331D01*
X90755099Y-41620000D01*
X90736747Y-41433669D01*
X90682396Y-41254499D01*
X90682395Y-41254497D01*
X90594137Y-41089376D01*
X90594135Y-41089373D01*
X90528647Y-41009576D01*
X90501334Y-40945266D01*
X90500500Y-40930911D01*
X90500500Y-37600000D01*
X92344901Y-37600000D01*
X92363252Y-37786331D01*
X92363253Y-37786333D01*
X92417604Y-37965502D01*
X92505862Y-38130623D01*
X92505864Y-38130626D01*
X92624642Y-38275357D01*
X92769373Y-38394135D01*
X92769376Y-38394137D01*
X92934497Y-38482395D01*
X92934499Y-38482396D01*
X93113666Y-38536746D01*
X93113668Y-38536747D01*
X93130374Y-38538392D01*
X93300000Y-38555099D01*
X93486331Y-38536747D01*
X93665501Y-38482396D01*
X93830625Y-38394136D01*
X93975357Y-38275357D01*
X94094136Y-38130625D01*
X94182396Y-37965501D01*
X94236747Y-37786331D01*
X94255099Y-37600000D01*
X94236747Y-37413669D01*
X94182396Y-37234499D01*
X94147480Y-37169175D01*
X94094137Y-37069376D01*
X94094135Y-37069373D01*
X93975357Y-36924642D01*
X93830626Y-36805864D01*
X93830623Y-36805862D01*
X93665502Y-36717604D01*
X93486333Y-36663253D01*
X93486331Y-36663252D01*
X93300000Y-36644901D01*
X93113668Y-36663252D01*
X93113666Y-36663253D01*
X92934497Y-36717604D01*
X92769376Y-36805862D01*
X92769373Y-36805864D01*
X92624642Y-36924642D01*
X92505864Y-37069373D01*
X92505862Y-37069376D01*
X92417604Y-37234497D01*
X92363253Y-37413666D01*
X92363252Y-37413668D01*
X92344901Y-37600000D01*
X90500500Y-37600000D01*
X90500500Y-36739277D01*
X90520185Y-36672238D01*
X90572989Y-36626483D01*
X90642147Y-36616539D01*
X90660495Y-36620616D01*
X90679833Y-36626483D01*
X90713666Y-36636746D01*
X90713668Y-36636747D01*
X90730374Y-36638392D01*
X90900000Y-36655099D01*
X91086331Y-36636747D01*
X91265501Y-36582396D01*
X91430625Y-36494136D01*
X91575357Y-36375357D01*
X91694136Y-36230625D01*
X91782396Y-36065501D01*
X91836747Y-35886331D01*
X91855099Y-35700000D01*
X91836747Y-35513669D01*
X91782396Y-35334499D01*
X91694136Y-35169375D01*
X91694135Y-35169373D01*
X91575357Y-35024642D01*
X91430626Y-34905864D01*
X91430623Y-34905862D01*
X91265502Y-34817604D01*
X91086333Y-34763253D01*
X91086331Y-34763252D01*
X90900000Y-34744901D01*
X90713670Y-34763252D01*
X90660495Y-34779383D01*
X90590628Y-34780006D01*
X90531515Y-34742757D01*
X90501924Y-34679463D01*
X90500500Y-34660722D01*
X90500500Y-33789088D01*
X90520185Y-33722049D01*
X90528647Y-33710423D01*
X90542013Y-33694137D01*
X90594136Y-33630625D01*
X90682396Y-33465501D01*
X90736747Y-33286331D01*
X90755099Y-33100000D01*
X95944901Y-33100000D01*
X95963252Y-33286331D01*
X95963253Y-33286333D01*
X96017604Y-33465502D01*
X96105862Y-33630623D01*
X96105864Y-33630626D01*
X96224642Y-33775357D01*
X96369373Y-33894135D01*
X96369376Y-33894137D01*
X96512127Y-33970438D01*
X96534499Y-33982396D01*
X96713666Y-34036746D01*
X96713668Y-34036747D01*
X96730374Y-34038392D01*
X96900000Y-34055099D01*
X97086331Y-34036747D01*
X97265501Y-33982396D01*
X97277046Y-33976224D01*
X97345449Y-33961983D01*
X97410693Y-33986983D01*
X97452064Y-34043287D01*
X97459500Y-34085583D01*
X97459500Y-40809651D01*
X97439815Y-40876690D01*
X97431353Y-40888316D01*
X97405864Y-40919373D01*
X97405862Y-40919376D01*
X97317604Y-41084497D01*
X97263253Y-41263666D01*
X97263252Y-41263668D01*
X97244901Y-41450000D01*
X97263252Y-41636331D01*
X97263253Y-41636333D01*
X97317604Y-41815502D01*
X97405862Y-41980623D01*
X97405864Y-41980626D01*
X97524642Y-42125357D01*
X97669373Y-42244135D01*
X97669376Y-42244137D01*
X97765203Y-42295357D01*
X97834499Y-42332396D01*
X98013666Y-42386746D01*
X98013668Y-42386747D01*
X98030374Y-42388392D01*
X98200000Y-42405099D01*
X98386331Y-42386747D01*
X98565501Y-42332396D01*
X98730625Y-42244136D01*
X98875357Y-42125357D01*
X98994136Y-41980625D01*
X99082396Y-41815501D01*
X99136747Y-41636331D01*
X99155099Y-41450000D01*
X99136747Y-41263669D01*
X99082396Y-41084499D01*
X99055462Y-41034108D01*
X98994137Y-40919376D01*
X98994135Y-40919373D01*
X98888647Y-40790836D01*
X98861334Y-40726526D01*
X98860500Y-40712171D01*
X98860500Y-37600000D01*
X100544901Y-37600000D01*
X100563252Y-37786331D01*
X100563253Y-37786333D01*
X100617604Y-37965502D01*
X100705862Y-38130623D01*
X100705864Y-38130626D01*
X100824642Y-38275357D01*
X100969373Y-38394135D01*
X100969376Y-38394137D01*
X101134497Y-38482395D01*
X101134499Y-38482396D01*
X101313666Y-38536746D01*
X101313668Y-38536747D01*
X101330374Y-38538392D01*
X101500000Y-38555099D01*
X101686331Y-38536747D01*
X101865501Y-38482396D01*
X102030625Y-38394136D01*
X102175357Y-38275357D01*
X102294136Y-38130625D01*
X102382396Y-37965501D01*
X102436747Y-37786331D01*
X102455099Y-37600000D01*
X102436747Y-37413669D01*
X102382396Y-37234499D01*
X102347480Y-37169175D01*
X102294137Y-37069376D01*
X102294135Y-37069373D01*
X102175357Y-36924642D01*
X102030626Y-36805864D01*
X102030623Y-36805862D01*
X101865502Y-36717604D01*
X101686333Y-36663253D01*
X101686331Y-36663252D01*
X101500000Y-36644901D01*
X101313668Y-36663252D01*
X101313666Y-36663253D01*
X101134497Y-36717604D01*
X100969376Y-36805862D01*
X100969373Y-36805864D01*
X100824642Y-36924642D01*
X100705864Y-37069373D01*
X100705862Y-37069376D01*
X100617604Y-37234497D01*
X100563253Y-37413666D01*
X100563252Y-37413668D01*
X100544901Y-37600000D01*
X98860500Y-37600000D01*
X98860500Y-36757374D01*
X98880185Y-36690335D01*
X98932989Y-36644580D01*
X99002147Y-36634636D01*
X99008697Y-36635758D01*
X99013668Y-36636747D01*
X99030374Y-36638392D01*
X99200000Y-36655099D01*
X99386331Y-36636747D01*
X99565501Y-36582396D01*
X99730625Y-36494136D01*
X99875357Y-36375357D01*
X99994136Y-36230625D01*
X100082396Y-36065501D01*
X100136747Y-35886331D01*
X100155099Y-35700000D01*
X100136747Y-35513669D01*
X100082396Y-35334499D01*
X99994136Y-35169375D01*
X99994135Y-35169373D01*
X99875357Y-35024642D01*
X99730626Y-34905864D01*
X99730623Y-34905862D01*
X99565502Y-34817604D01*
X99386333Y-34763253D01*
X99386331Y-34763252D01*
X99200000Y-34744901D01*
X99013666Y-34763253D01*
X99008684Y-34764244D01*
X98939093Y-34758012D01*
X98883918Y-34715146D01*
X98860677Y-34649255D01*
X98860500Y-34642625D01*
X98860500Y-33715978D01*
X98880185Y-33648939D01*
X98888650Y-33637310D01*
X98892019Y-33633204D01*
X98894136Y-33630625D01*
X98982396Y-33465501D01*
X99036747Y-33286331D01*
X99055099Y-33100000D01*
X99036747Y-32913669D01*
X99032601Y-32900000D01*
X103844901Y-32900000D01*
X103863252Y-33086331D01*
X103863253Y-33086333D01*
X103917604Y-33265502D01*
X104005862Y-33430623D01*
X104005864Y-33430626D01*
X104124642Y-33575357D01*
X104269373Y-33694135D01*
X104269376Y-33694137D01*
X104434497Y-33782395D01*
X104434499Y-33782396D01*
X104613666Y-33836746D01*
X104613668Y-33836747D01*
X104622441Y-33837611D01*
X104800000Y-33855099D01*
X104986331Y-33836747D01*
X105165501Y-33782396D01*
X105243936Y-33740472D01*
X105317047Y-33701394D01*
X105385450Y-33687152D01*
X105450694Y-33712152D01*
X105492064Y-33768457D01*
X105499500Y-33810752D01*
X105499500Y-40860911D01*
X105479815Y-40927950D01*
X105471353Y-40939576D01*
X105405864Y-41019373D01*
X105405862Y-41019376D01*
X105317604Y-41184497D01*
X105263253Y-41363666D01*
X105263252Y-41363668D01*
X105244901Y-41550000D01*
X105263252Y-41736331D01*
X105263253Y-41736333D01*
X105317604Y-41915502D01*
X105405862Y-42080623D01*
X105405864Y-42080626D01*
X105524642Y-42225357D01*
X105669373Y-42344135D01*
X105669376Y-42344137D01*
X105802621Y-42415357D01*
X105834499Y-42432396D01*
X106013666Y-42486746D01*
X106013668Y-42486747D01*
X106030374Y-42488392D01*
X106200000Y-42505099D01*
X106386331Y-42486747D01*
X106565501Y-42432396D01*
X106730625Y-42344136D01*
X106875357Y-42225357D01*
X106994136Y-42080625D01*
X107082396Y-41915501D01*
X107136747Y-41736331D01*
X107155099Y-41550000D01*
X107136747Y-41363669D01*
X107082396Y-41184499D01*
X107046825Y-41117950D01*
X106994137Y-41019376D01*
X106994135Y-41019373D01*
X106928647Y-40939576D01*
X106901334Y-40875266D01*
X106900500Y-40860911D01*
X106900500Y-37600000D01*
X108744901Y-37600000D01*
X108763252Y-37786331D01*
X108763253Y-37786333D01*
X108817604Y-37965502D01*
X108905862Y-38130623D01*
X108905864Y-38130626D01*
X109024642Y-38275357D01*
X109169373Y-38394135D01*
X109169376Y-38394137D01*
X109334497Y-38482395D01*
X109334499Y-38482396D01*
X109513666Y-38536746D01*
X109513668Y-38536747D01*
X109530374Y-38538392D01*
X109700000Y-38555099D01*
X109886331Y-38536747D01*
X110065501Y-38482396D01*
X110230625Y-38394136D01*
X110375357Y-38275357D01*
X110494136Y-38130625D01*
X110582396Y-37965501D01*
X110636747Y-37786331D01*
X110655099Y-37600000D01*
X110636747Y-37413669D01*
X110582396Y-37234499D01*
X110547480Y-37169175D01*
X110494137Y-37069376D01*
X110494135Y-37069373D01*
X110375357Y-36924642D01*
X110230626Y-36805864D01*
X110230623Y-36805862D01*
X110065502Y-36717604D01*
X109886333Y-36663253D01*
X109886331Y-36663252D01*
X109700000Y-36644901D01*
X109513668Y-36663252D01*
X109513666Y-36663253D01*
X109334497Y-36717604D01*
X109169376Y-36805862D01*
X109169373Y-36805864D01*
X109024642Y-36924642D01*
X108905864Y-37069373D01*
X108905862Y-37069376D01*
X108817604Y-37234497D01*
X108763253Y-37413666D01*
X108763252Y-37413668D01*
X108744901Y-37600000D01*
X106900500Y-37600000D01*
X106900500Y-36708942D01*
X106920185Y-36641903D01*
X106972989Y-36596148D01*
X107042147Y-36586204D01*
X107060494Y-36590281D01*
X107185454Y-36628188D01*
X107213666Y-36636746D01*
X107213668Y-36636747D01*
X107230374Y-36638392D01*
X107400000Y-36655099D01*
X107586331Y-36636747D01*
X107765501Y-36582396D01*
X107930625Y-36494136D01*
X108075357Y-36375357D01*
X108194136Y-36230625D01*
X108282396Y-36065501D01*
X108336747Y-35886331D01*
X108355099Y-35700000D01*
X108336747Y-35513669D01*
X108282396Y-35334499D01*
X108194136Y-35169375D01*
X108194135Y-35169373D01*
X108075357Y-35024642D01*
X107930626Y-34905864D01*
X107930623Y-34905862D01*
X107765502Y-34817604D01*
X107586333Y-34763253D01*
X107586331Y-34763252D01*
X107400000Y-34744901D01*
X107213670Y-34763252D01*
X107060495Y-34809718D01*
X106990628Y-34810341D01*
X106931515Y-34773093D01*
X106901925Y-34709799D01*
X106900500Y-34691057D01*
X106900500Y-33549777D01*
X106915141Y-33491326D01*
X106982396Y-33365501D01*
X107036747Y-33186331D01*
X107055099Y-33000000D01*
X107045250Y-32900000D01*
X112044901Y-32900000D01*
X112063252Y-33086331D01*
X112063253Y-33086333D01*
X112117604Y-33265502D01*
X112205862Y-33430623D01*
X112205864Y-33430626D01*
X112324642Y-33575357D01*
X112469373Y-33694135D01*
X112469376Y-33694137D01*
X112634497Y-33782395D01*
X112634499Y-33782396D01*
X112813666Y-33836746D01*
X112813668Y-33836747D01*
X112822441Y-33837611D01*
X113000000Y-33855099D01*
X113186331Y-33836747D01*
X113299504Y-33802415D01*
X113369371Y-33801792D01*
X113428484Y-33839040D01*
X113458075Y-33902333D01*
X113459500Y-33921076D01*
X113459500Y-40909651D01*
X113439815Y-40976690D01*
X113431353Y-40988316D01*
X113405864Y-41019373D01*
X113405862Y-41019376D01*
X113317604Y-41184497D01*
X113263253Y-41363666D01*
X113263252Y-41363668D01*
X113244901Y-41550000D01*
X113263252Y-41736331D01*
X113263253Y-41736333D01*
X113317604Y-41915502D01*
X113405862Y-42080623D01*
X113405864Y-42080626D01*
X113524642Y-42225357D01*
X113669373Y-42344135D01*
X113669376Y-42344137D01*
X113802621Y-42415357D01*
X113834499Y-42432396D01*
X114013666Y-42486746D01*
X114013668Y-42486747D01*
X114030374Y-42488392D01*
X114200000Y-42505099D01*
X114386331Y-42486747D01*
X114565501Y-42432396D01*
X114730625Y-42344136D01*
X114875357Y-42225357D01*
X114994136Y-42080625D01*
X115082396Y-41915501D01*
X115136747Y-41736331D01*
X115155099Y-41550000D01*
X115136747Y-41363669D01*
X115082396Y-41184499D01*
X115046825Y-41117950D01*
X114994137Y-41019376D01*
X114994135Y-41019373D01*
X114888647Y-40890836D01*
X114861334Y-40826526D01*
X114860500Y-40812171D01*
X114860500Y-37600000D01*
X116744901Y-37600000D01*
X116763252Y-37786331D01*
X116763253Y-37786333D01*
X116817604Y-37965502D01*
X116905862Y-38130623D01*
X116905864Y-38130626D01*
X117024642Y-38275357D01*
X117169373Y-38394135D01*
X117169376Y-38394137D01*
X117334497Y-38482395D01*
X117334499Y-38482396D01*
X117513666Y-38536746D01*
X117513668Y-38536747D01*
X117530374Y-38538392D01*
X117700000Y-38555099D01*
X117886331Y-38536747D01*
X118065501Y-38482396D01*
X118230625Y-38394136D01*
X118375357Y-38275357D01*
X118494136Y-38130625D01*
X118582396Y-37965501D01*
X118636747Y-37786331D01*
X118655099Y-37600000D01*
X118636747Y-37413669D01*
X118582396Y-37234499D01*
X118547480Y-37169175D01*
X118494137Y-37069376D01*
X118494135Y-37069373D01*
X118375357Y-36924642D01*
X118230626Y-36805864D01*
X118230623Y-36805862D01*
X118065502Y-36717604D01*
X117886333Y-36663253D01*
X117886331Y-36663252D01*
X117700000Y-36644901D01*
X117513668Y-36663252D01*
X117513666Y-36663253D01*
X117334497Y-36717604D01*
X117169376Y-36805862D01*
X117169373Y-36805864D01*
X117024642Y-36924642D01*
X116905864Y-37069373D01*
X116905862Y-37069376D01*
X116817604Y-37234497D01*
X116763253Y-37413666D01*
X116763252Y-37413668D01*
X116744901Y-37600000D01*
X114860500Y-37600000D01*
X114860500Y-36695902D01*
X114880185Y-36628863D01*
X114932989Y-36583108D01*
X115002147Y-36573164D01*
X115031955Y-36581342D01*
X115034496Y-36582394D01*
X115034499Y-36582396D01*
X115179833Y-36626483D01*
X115213666Y-36636746D01*
X115213668Y-36636747D01*
X115230374Y-36638392D01*
X115400000Y-36655099D01*
X115586331Y-36636747D01*
X115765501Y-36582396D01*
X115930625Y-36494136D01*
X116075357Y-36375357D01*
X116194136Y-36230625D01*
X116282396Y-36065501D01*
X116336747Y-35886331D01*
X116355099Y-35700000D01*
X116336747Y-35513669D01*
X116282396Y-35334499D01*
X116194136Y-35169375D01*
X116194135Y-35169373D01*
X116075357Y-35024642D01*
X115930626Y-34905864D01*
X115930623Y-34905862D01*
X115765502Y-34817604D01*
X115586333Y-34763253D01*
X115586331Y-34763252D01*
X115400000Y-34744901D01*
X115213668Y-34763252D01*
X115213666Y-34763253D01*
X115034496Y-34817604D01*
X115031943Y-34818662D01*
X115030499Y-34818817D01*
X115028670Y-34819372D01*
X115028564Y-34819024D01*
X114962473Y-34826125D01*
X114899997Y-34794845D01*
X114864349Y-34734753D01*
X114860500Y-34704097D01*
X114860500Y-33691851D01*
X114880185Y-33624812D01*
X114905837Y-33595997D01*
X114955356Y-33555358D01*
X115007909Y-33491323D01*
X115074136Y-33410625D01*
X115162396Y-33245501D01*
X115176199Y-33200000D01*
X119944901Y-33200000D01*
X119963252Y-33386331D01*
X119963253Y-33386333D01*
X120017604Y-33565502D01*
X120105862Y-33730623D01*
X120105864Y-33730626D01*
X120224642Y-33875357D01*
X120369373Y-33994135D01*
X120369376Y-33994137D01*
X120522954Y-34076225D01*
X120534499Y-34082396D01*
X120713666Y-34136746D01*
X120713668Y-34136747D01*
X120730374Y-34138392D01*
X120900000Y-34155099D01*
X121086331Y-34136747D01*
X121265501Y-34082396D01*
X121317048Y-34054843D01*
X121385448Y-34040602D01*
X121450692Y-34065601D01*
X121492063Y-34121906D01*
X121499500Y-34164202D01*
X121499500Y-40760911D01*
X121479815Y-40827950D01*
X121471353Y-40839576D01*
X121405864Y-40919373D01*
X121405862Y-40919376D01*
X121317604Y-41084497D01*
X121263253Y-41263666D01*
X121263252Y-41263668D01*
X121244901Y-41450000D01*
X121263252Y-41636331D01*
X121263253Y-41636333D01*
X121317604Y-41815502D01*
X121405862Y-41980623D01*
X121405864Y-41980626D01*
X121524642Y-42125357D01*
X121669373Y-42244135D01*
X121669376Y-42244137D01*
X121765203Y-42295357D01*
X121834499Y-42332396D01*
X122013666Y-42386746D01*
X122013668Y-42386747D01*
X122030374Y-42388392D01*
X122200000Y-42405099D01*
X122386331Y-42386747D01*
X122565501Y-42332396D01*
X122730625Y-42244136D01*
X122875357Y-42125357D01*
X122994136Y-41980625D01*
X123082396Y-41815501D01*
X123136747Y-41636331D01*
X123155099Y-41450000D01*
X123136747Y-41263669D01*
X123082396Y-41084499D01*
X123055462Y-41034108D01*
X122994137Y-40919376D01*
X122994135Y-40919373D01*
X122928647Y-40839576D01*
X122901334Y-40775266D01*
X122900500Y-40760911D01*
X122900500Y-37600000D01*
X124744901Y-37600000D01*
X124763252Y-37786331D01*
X124763253Y-37786333D01*
X124817604Y-37965502D01*
X124905862Y-38130623D01*
X124905864Y-38130626D01*
X125024642Y-38275357D01*
X125169373Y-38394135D01*
X125169376Y-38394137D01*
X125334497Y-38482395D01*
X125334499Y-38482396D01*
X125513666Y-38536746D01*
X125513668Y-38536747D01*
X125530374Y-38538392D01*
X125700000Y-38555099D01*
X125886331Y-38536747D01*
X126065501Y-38482396D01*
X126230625Y-38394136D01*
X126375357Y-38275357D01*
X126494136Y-38130625D01*
X126582396Y-37965501D01*
X126636747Y-37786331D01*
X126655099Y-37600000D01*
X126636747Y-37413669D01*
X126582396Y-37234499D01*
X126547480Y-37169175D01*
X126494137Y-37069376D01*
X126494135Y-37069373D01*
X126375357Y-36924642D01*
X126230626Y-36805864D01*
X126230623Y-36805862D01*
X126065502Y-36717604D01*
X125886333Y-36663253D01*
X125886331Y-36663252D01*
X125700000Y-36644901D01*
X125513668Y-36663252D01*
X125513666Y-36663253D01*
X125334497Y-36717604D01*
X125169376Y-36805862D01*
X125169373Y-36805864D01*
X125024642Y-36924642D01*
X124905864Y-37069373D01*
X124905862Y-37069376D01*
X124817604Y-37234497D01*
X124763253Y-37413666D01*
X124763252Y-37413668D01*
X124744901Y-37600000D01*
X122900500Y-37600000D01*
X122900500Y-36739277D01*
X122920185Y-36672238D01*
X122972989Y-36626483D01*
X123042147Y-36616539D01*
X123060495Y-36620616D01*
X123079833Y-36626483D01*
X123113666Y-36636746D01*
X123113668Y-36636747D01*
X123130374Y-36638392D01*
X123300000Y-36655099D01*
X123486331Y-36636747D01*
X123665501Y-36582396D01*
X123830625Y-36494136D01*
X123975357Y-36375357D01*
X124094136Y-36230625D01*
X124182396Y-36065501D01*
X124236747Y-35886331D01*
X124255099Y-35700000D01*
X124236747Y-35513669D01*
X124182396Y-35334499D01*
X124094136Y-35169375D01*
X124094135Y-35169373D01*
X123975357Y-35024642D01*
X123830626Y-34905864D01*
X123830623Y-34905862D01*
X123665502Y-34817604D01*
X123486333Y-34763253D01*
X123486331Y-34763252D01*
X123300000Y-34744901D01*
X123113670Y-34763252D01*
X123060495Y-34779383D01*
X122990628Y-34780006D01*
X122931515Y-34742757D01*
X122901924Y-34679463D01*
X122900500Y-34660722D01*
X122900500Y-33789088D01*
X122920185Y-33722049D01*
X122928647Y-33710423D01*
X122942013Y-33694137D01*
X122994136Y-33630625D01*
X123082396Y-33465501D01*
X123136747Y-33286331D01*
X123142295Y-33230000D01*
X128444901Y-33230000D01*
X128463252Y-33416331D01*
X128463253Y-33416333D01*
X128517604Y-33595502D01*
X128605862Y-33760623D01*
X128605864Y-33760626D01*
X128724642Y-33905357D01*
X128869373Y-34024135D01*
X128869376Y-34024137D01*
X128984335Y-34085583D01*
X129034499Y-34112396D01*
X129213666Y-34166746D01*
X129213668Y-34166747D01*
X129230374Y-34168392D01*
X129400000Y-34185099D01*
X129586331Y-34166747D01*
X129759504Y-34114214D01*
X129829371Y-34113591D01*
X129888484Y-34150839D01*
X129918075Y-34214133D01*
X129919500Y-34232875D01*
X129919500Y-40999651D01*
X129899815Y-41066690D01*
X129891353Y-41078316D01*
X129865864Y-41109373D01*
X129865862Y-41109376D01*
X129777604Y-41274497D01*
X129723253Y-41453666D01*
X129723252Y-41453668D01*
X129704901Y-41640000D01*
X129723252Y-41826331D01*
X129723253Y-41826333D01*
X129777604Y-42005502D01*
X129865862Y-42170623D01*
X129865864Y-42170626D01*
X129984642Y-42315357D01*
X130129373Y-42434135D01*
X130129376Y-42434137D01*
X130279047Y-42514137D01*
X130294499Y-42522396D01*
X130473666Y-42576746D01*
X130473668Y-42576747D01*
X130490374Y-42578392D01*
X130660000Y-42595099D01*
X130846331Y-42576747D01*
X131025501Y-42522396D01*
X131190625Y-42434136D01*
X131335357Y-42315357D01*
X131454136Y-42170625D01*
X131542396Y-42005501D01*
X131596747Y-41826331D01*
X131615099Y-41640000D01*
X131596747Y-41453669D01*
X131542396Y-41274499D01*
X131496896Y-41189373D01*
X131454137Y-41109376D01*
X131454135Y-41109373D01*
X131348647Y-40980836D01*
X131321334Y-40916526D01*
X131320500Y-40902171D01*
X131320500Y-37600000D01*
X133244901Y-37600000D01*
X133263252Y-37786331D01*
X133263253Y-37786333D01*
X133317604Y-37965502D01*
X133405862Y-38130623D01*
X133405864Y-38130626D01*
X133524642Y-38275357D01*
X133669373Y-38394135D01*
X133669376Y-38394137D01*
X133834497Y-38482395D01*
X133834499Y-38482396D01*
X134013666Y-38536746D01*
X134013668Y-38536747D01*
X134030374Y-38538392D01*
X134200000Y-38555099D01*
X134386331Y-38536747D01*
X134565501Y-38482396D01*
X134730625Y-38394136D01*
X134875357Y-38275357D01*
X134994136Y-38130625D01*
X135082396Y-37965501D01*
X135136747Y-37786331D01*
X135155099Y-37600000D01*
X135136747Y-37413669D01*
X135082396Y-37234499D01*
X135047480Y-37169175D01*
X134994137Y-37069376D01*
X134994135Y-37069373D01*
X134875357Y-36924642D01*
X134730626Y-36805864D01*
X134730623Y-36805862D01*
X134565502Y-36717604D01*
X134386333Y-36663253D01*
X134386331Y-36663252D01*
X134200000Y-36644901D01*
X134013668Y-36663252D01*
X134013666Y-36663253D01*
X133834497Y-36717604D01*
X133669376Y-36805862D01*
X133669373Y-36805864D01*
X133524642Y-36924642D01*
X133405864Y-37069373D01*
X133405862Y-37069376D01*
X133317604Y-37234497D01*
X133263253Y-37413666D01*
X133263252Y-37413668D01*
X133244901Y-37600000D01*
X131320500Y-37600000D01*
X131320500Y-36810176D01*
X131340185Y-36743137D01*
X131392989Y-36697382D01*
X131462147Y-36687438D01*
X131480486Y-36691513D01*
X131563669Y-36716747D01*
X131563668Y-36716747D01*
X131572370Y-36717604D01*
X131750000Y-36735099D01*
X131936331Y-36716747D01*
X132115501Y-36662396D01*
X132280625Y-36574136D01*
X132425357Y-36455357D01*
X132544136Y-36310625D01*
X132632396Y-36145501D01*
X132686747Y-35966331D01*
X132705099Y-35780000D01*
X132686747Y-35593669D01*
X132632396Y-35414499D01*
X132632395Y-35414497D01*
X132544137Y-35249376D01*
X132544135Y-35249373D01*
X132425357Y-35104642D01*
X132280626Y-34985864D01*
X132280623Y-34985862D01*
X132115502Y-34897604D01*
X131936333Y-34843253D01*
X131936331Y-34843252D01*
X131750000Y-34824901D01*
X131563672Y-34843252D01*
X131563669Y-34843253D01*
X131480494Y-34868484D01*
X131410629Y-34869107D01*
X131351516Y-34831859D01*
X131321925Y-34768565D01*
X131320500Y-34749823D01*
X131320500Y-34009024D01*
X131340185Y-33941985D01*
X131365840Y-33913167D01*
X131375357Y-33905357D01*
X131494136Y-33760625D01*
X131582396Y-33595501D01*
X131636747Y-33416331D01*
X131655099Y-33230000D01*
X131645250Y-33130000D01*
X136344901Y-33130000D01*
X136363252Y-33316331D01*
X136363253Y-33316333D01*
X136417604Y-33495502D01*
X136505862Y-33660623D01*
X136505864Y-33660626D01*
X136624642Y-33805357D01*
X136769373Y-33924135D01*
X136769376Y-33924137D01*
X136928190Y-34009024D01*
X136934499Y-34012396D01*
X137109891Y-34065601D01*
X137113666Y-34066746D01*
X137113668Y-34066747D01*
X137130374Y-34068392D01*
X137300000Y-34085099D01*
X137486331Y-34066747D01*
X137665501Y-34012396D01*
X137777047Y-33952774D01*
X137845450Y-33938532D01*
X137910693Y-33963532D01*
X137952064Y-34019837D01*
X137959500Y-34062132D01*
X137959500Y-41050911D01*
X137939815Y-41117950D01*
X137931353Y-41129576D01*
X137865864Y-41209373D01*
X137865862Y-41209376D01*
X137777604Y-41374497D01*
X137723253Y-41553666D01*
X137723252Y-41553668D01*
X137704901Y-41740000D01*
X137723252Y-41926331D01*
X137723253Y-41926333D01*
X137777604Y-42105502D01*
X137865862Y-42270623D01*
X137865864Y-42270626D01*
X137984642Y-42415357D01*
X138129373Y-42534135D01*
X138129376Y-42534137D01*
X138257079Y-42602395D01*
X138294499Y-42622396D01*
X138473666Y-42676746D01*
X138473668Y-42676747D01*
X138490374Y-42678392D01*
X138660000Y-42695099D01*
X138846331Y-42676747D01*
X139025501Y-42622396D01*
X139190625Y-42534136D01*
X139335357Y-42415357D01*
X139454136Y-42270625D01*
X139542396Y-42105501D01*
X139596747Y-41926331D01*
X139615099Y-41740000D01*
X139596747Y-41553669D01*
X139542396Y-41374499D01*
X139531705Y-41354497D01*
X139454137Y-41209376D01*
X139454135Y-41209373D01*
X139388647Y-41129576D01*
X139361334Y-41065266D01*
X139360500Y-41050911D01*
X139360500Y-37600000D01*
X141244901Y-37600000D01*
X141263252Y-37786331D01*
X141263253Y-37786333D01*
X141317604Y-37965502D01*
X141405862Y-38130623D01*
X141405864Y-38130626D01*
X141524642Y-38275357D01*
X141669373Y-38394135D01*
X141669376Y-38394137D01*
X141834497Y-38482395D01*
X141834499Y-38482396D01*
X142013666Y-38536746D01*
X142013668Y-38536747D01*
X142030374Y-38538392D01*
X142200000Y-38555099D01*
X142386331Y-38536747D01*
X142565501Y-38482396D01*
X142730625Y-38394136D01*
X142875357Y-38275357D01*
X142994136Y-38130625D01*
X143082396Y-37965501D01*
X143136747Y-37786331D01*
X143155099Y-37600000D01*
X143136747Y-37413669D01*
X143082396Y-37234499D01*
X143047480Y-37169175D01*
X142994137Y-37069376D01*
X142994135Y-37069373D01*
X142875357Y-36924642D01*
X142730626Y-36805864D01*
X142730623Y-36805862D01*
X142565502Y-36717604D01*
X142386333Y-36663253D01*
X142386331Y-36663252D01*
X142200000Y-36644901D01*
X142013668Y-36663252D01*
X142013666Y-36663253D01*
X141834497Y-36717604D01*
X141669376Y-36805862D01*
X141669373Y-36805864D01*
X141524642Y-36924642D01*
X141405864Y-37069373D01*
X141405862Y-37069376D01*
X141317604Y-37234497D01*
X141263253Y-37413666D01*
X141263252Y-37413668D01*
X141244901Y-37600000D01*
X139360500Y-37600000D01*
X139360500Y-36807143D01*
X139380185Y-36740104D01*
X139432989Y-36694349D01*
X139502147Y-36684405D01*
X139520494Y-36688482D01*
X139577786Y-36705862D01*
X139613666Y-36716746D01*
X139613668Y-36716747D01*
X139622370Y-36717604D01*
X139800000Y-36735099D01*
X139986331Y-36716747D01*
X140165501Y-36662396D01*
X140330625Y-36574136D01*
X140475357Y-36455357D01*
X140594136Y-36310625D01*
X140682396Y-36145501D01*
X140736747Y-35966331D01*
X140755099Y-35780000D01*
X140736747Y-35593669D01*
X140682396Y-35414499D01*
X140682395Y-35414497D01*
X140594137Y-35249376D01*
X140594135Y-35249373D01*
X140475357Y-35104642D01*
X140330626Y-34985864D01*
X140330623Y-34985862D01*
X140165502Y-34897604D01*
X139986333Y-34843253D01*
X139986331Y-34843252D01*
X139800000Y-34824901D01*
X139613670Y-34843252D01*
X139520495Y-34871517D01*
X139450628Y-34872140D01*
X139391515Y-34834892D01*
X139361924Y-34771597D01*
X139360500Y-34752856D01*
X139360500Y-33745978D01*
X139380185Y-33678939D01*
X139388650Y-33667310D01*
X139390678Y-33664837D01*
X139394136Y-33660625D01*
X139482396Y-33495501D01*
X139536747Y-33316331D01*
X139548205Y-33200000D01*
X144444901Y-33200000D01*
X144463252Y-33386331D01*
X144463253Y-33386333D01*
X144517604Y-33565502D01*
X144605862Y-33730623D01*
X144605864Y-33730626D01*
X144724642Y-33875357D01*
X144869373Y-33994135D01*
X144869376Y-33994137D01*
X145022954Y-34076225D01*
X145034499Y-34082396D01*
X145213666Y-34136746D01*
X145213668Y-34136747D01*
X145230374Y-34138392D01*
X145400000Y-34155099D01*
X145586331Y-34136747D01*
X145759504Y-34084214D01*
X145829371Y-34083591D01*
X145888484Y-34120839D01*
X145918075Y-34184133D01*
X145919500Y-34202875D01*
X145919500Y-41099651D01*
X145899815Y-41166690D01*
X145891353Y-41178316D01*
X145865864Y-41209373D01*
X145865862Y-41209376D01*
X145777604Y-41374497D01*
X145723253Y-41553666D01*
X145723252Y-41553668D01*
X145704901Y-41740000D01*
X145723252Y-41926331D01*
X145723253Y-41926333D01*
X145777604Y-42105502D01*
X145865862Y-42270623D01*
X145865864Y-42270626D01*
X145984642Y-42415357D01*
X146129373Y-42534135D01*
X146129376Y-42534137D01*
X146257079Y-42602395D01*
X146294499Y-42622396D01*
X146473666Y-42676746D01*
X146473668Y-42676747D01*
X146490374Y-42678392D01*
X146660000Y-42695099D01*
X146846331Y-42676747D01*
X147025501Y-42622396D01*
X147190625Y-42534136D01*
X147335357Y-42415357D01*
X147454136Y-42270625D01*
X147542396Y-42105501D01*
X147596747Y-41926331D01*
X147615099Y-41740000D01*
X147596747Y-41553669D01*
X147542396Y-41374499D01*
X147531705Y-41354497D01*
X147454137Y-41209376D01*
X147454135Y-41209373D01*
X147348647Y-41080836D01*
X147321334Y-41016526D01*
X147320500Y-41002171D01*
X147320500Y-37600000D01*
X149244901Y-37600000D01*
X149263252Y-37786331D01*
X149263253Y-37786333D01*
X149317604Y-37965502D01*
X149405862Y-38130623D01*
X149405864Y-38130626D01*
X149524642Y-38275357D01*
X149669373Y-38394135D01*
X149669376Y-38394137D01*
X149834497Y-38482395D01*
X149834499Y-38482396D01*
X150013666Y-38536746D01*
X150013668Y-38536747D01*
X150030374Y-38538392D01*
X150200000Y-38555099D01*
X150386331Y-38536747D01*
X150565501Y-38482396D01*
X150730625Y-38394136D01*
X150875357Y-38275357D01*
X150994136Y-38130625D01*
X151082396Y-37965501D01*
X151136747Y-37786331D01*
X151155099Y-37600000D01*
X151136747Y-37413669D01*
X151082396Y-37234499D01*
X151047480Y-37169175D01*
X150994137Y-37069376D01*
X150994135Y-37069373D01*
X150875357Y-36924642D01*
X150730626Y-36805864D01*
X150730623Y-36805862D01*
X150565502Y-36717604D01*
X150386333Y-36663253D01*
X150386331Y-36663252D01*
X150200000Y-36644901D01*
X150013668Y-36663252D01*
X150013666Y-36663253D01*
X149834497Y-36717604D01*
X149669376Y-36805862D01*
X149669373Y-36805864D01*
X149524642Y-36924642D01*
X149405864Y-37069373D01*
X149405862Y-37069376D01*
X149317604Y-37234497D01*
X149263253Y-37413666D01*
X149263252Y-37413668D01*
X149244901Y-37600000D01*
X147320500Y-37600000D01*
X147320500Y-36810176D01*
X147340185Y-36743137D01*
X147392989Y-36697382D01*
X147462147Y-36687438D01*
X147480486Y-36691513D01*
X147563669Y-36716747D01*
X147563668Y-36716747D01*
X147572370Y-36717604D01*
X147750000Y-36735099D01*
X147936331Y-36716747D01*
X148115501Y-36662396D01*
X148280625Y-36574136D01*
X148425357Y-36455357D01*
X148544136Y-36310625D01*
X148632396Y-36145501D01*
X148686747Y-35966331D01*
X148705099Y-35780000D01*
X148686747Y-35593669D01*
X148632396Y-35414499D01*
X148632395Y-35414497D01*
X148544137Y-35249376D01*
X148544135Y-35249373D01*
X148425357Y-35104642D01*
X148280626Y-34985864D01*
X148280623Y-34985862D01*
X148115502Y-34897604D01*
X147936333Y-34843253D01*
X147936331Y-34843252D01*
X147750000Y-34824901D01*
X147563672Y-34843252D01*
X147563669Y-34843253D01*
X147480494Y-34868484D01*
X147410629Y-34869107D01*
X147351516Y-34831859D01*
X147321925Y-34768565D01*
X147320500Y-34749823D01*
X147320500Y-33794718D01*
X147340185Y-33727679D01*
X147348640Y-33716061D01*
X147394136Y-33660625D01*
X147482396Y-33495501D01*
X147536747Y-33316331D01*
X147548205Y-33200000D01*
X152444901Y-33200000D01*
X152463252Y-33386331D01*
X152463253Y-33386333D01*
X152517604Y-33565502D01*
X152605862Y-33730623D01*
X152605864Y-33730626D01*
X152724642Y-33875357D01*
X152869373Y-33994135D01*
X152869376Y-33994137D01*
X153022954Y-34076225D01*
X153034499Y-34082396D01*
X153213666Y-34136746D01*
X153213668Y-34136747D01*
X153230374Y-34138392D01*
X153400000Y-34155099D01*
X153586331Y-34136747D01*
X153765501Y-34082396D01*
X153777046Y-34076224D01*
X153845449Y-34061983D01*
X153910693Y-34086983D01*
X153952064Y-34143287D01*
X153959500Y-34185583D01*
X153959500Y-40950911D01*
X153939815Y-41017950D01*
X153931353Y-41029576D01*
X153865864Y-41109373D01*
X153865862Y-41109376D01*
X153777604Y-41274497D01*
X153723253Y-41453666D01*
X153723252Y-41453668D01*
X153704901Y-41640000D01*
X153723252Y-41826331D01*
X153723253Y-41826333D01*
X153777604Y-42005502D01*
X153865862Y-42170623D01*
X153865864Y-42170626D01*
X153984642Y-42315357D01*
X154129373Y-42434135D01*
X154129376Y-42434137D01*
X154279047Y-42514137D01*
X154294499Y-42522396D01*
X154473666Y-42576746D01*
X154473668Y-42576747D01*
X154490374Y-42578392D01*
X154660000Y-42595099D01*
X154846331Y-42576747D01*
X155025501Y-42522396D01*
X155190625Y-42434136D01*
X155335357Y-42315357D01*
X155454136Y-42170625D01*
X155542396Y-42005501D01*
X155596747Y-41826331D01*
X155615099Y-41640000D01*
X155596747Y-41453669D01*
X155542396Y-41274499D01*
X155496896Y-41189373D01*
X155454137Y-41109376D01*
X155454135Y-41109373D01*
X155388647Y-41029576D01*
X155361334Y-40965266D01*
X155360500Y-40950911D01*
X155360500Y-37600000D01*
X157344901Y-37600000D01*
X157363252Y-37786331D01*
X157363253Y-37786333D01*
X157417604Y-37965502D01*
X157505862Y-38130623D01*
X157505864Y-38130626D01*
X157624642Y-38275357D01*
X157769373Y-38394135D01*
X157769376Y-38394137D01*
X157934497Y-38482395D01*
X157934499Y-38482396D01*
X158113666Y-38536746D01*
X158113668Y-38536747D01*
X158130374Y-38538392D01*
X158300000Y-38555099D01*
X158486331Y-38536747D01*
X158665501Y-38482396D01*
X158830625Y-38394136D01*
X158975357Y-38275357D01*
X159094136Y-38130625D01*
X159182396Y-37965501D01*
X159236747Y-37786331D01*
X159255099Y-37600000D01*
X159236747Y-37413669D01*
X159182396Y-37234499D01*
X159147480Y-37169175D01*
X159094137Y-37069376D01*
X159094135Y-37069373D01*
X158975357Y-36924642D01*
X158830626Y-36805864D01*
X158830623Y-36805862D01*
X158665502Y-36717604D01*
X158486333Y-36663253D01*
X158486331Y-36663252D01*
X158300000Y-36644901D01*
X158113668Y-36663252D01*
X158113666Y-36663253D01*
X157934497Y-36717604D01*
X157769376Y-36805862D01*
X157769373Y-36805864D01*
X157624642Y-36924642D01*
X157505864Y-37069373D01*
X157505862Y-37069376D01*
X157417604Y-37234497D01*
X157363253Y-37413666D01*
X157363252Y-37413668D01*
X157344901Y-37600000D01*
X155360500Y-37600000D01*
X155360500Y-36791975D01*
X155380185Y-36724936D01*
X155432989Y-36679181D01*
X155502147Y-36669237D01*
X155520488Y-36673313D01*
X155637940Y-36708942D01*
X155663666Y-36716746D01*
X155663668Y-36716747D01*
X155672370Y-36717604D01*
X155850000Y-36735099D01*
X156036331Y-36716747D01*
X156215501Y-36662396D01*
X156380625Y-36574136D01*
X156525357Y-36455357D01*
X156644136Y-36310625D01*
X156732396Y-36145501D01*
X156786747Y-35966331D01*
X156805099Y-35780000D01*
X156786747Y-35593669D01*
X156732396Y-35414499D01*
X156732395Y-35414497D01*
X156644137Y-35249376D01*
X156644135Y-35249373D01*
X156525357Y-35104642D01*
X156380626Y-34985864D01*
X156380623Y-34985862D01*
X156215502Y-34897604D01*
X156036333Y-34843253D01*
X156036331Y-34843252D01*
X155850000Y-34824901D01*
X155663672Y-34843252D01*
X155663669Y-34843253D01*
X155520493Y-34886685D01*
X155450629Y-34887308D01*
X155391516Y-34850060D01*
X155361925Y-34786766D01*
X155360500Y-34768024D01*
X155360500Y-33845978D01*
X155380185Y-33778939D01*
X155388650Y-33767310D01*
X155390678Y-33764837D01*
X155394136Y-33760625D01*
X155482396Y-33595501D01*
X155536747Y-33416331D01*
X155555099Y-33230000D01*
X155542295Y-33100000D01*
X160924901Y-33100000D01*
X160943252Y-33286331D01*
X160943253Y-33286333D01*
X160997604Y-33465502D01*
X161085862Y-33630623D01*
X161085864Y-33630626D01*
X161204642Y-33775357D01*
X161349373Y-33894135D01*
X161349376Y-33894137D01*
X161492127Y-33970438D01*
X161514499Y-33982396D01*
X161693666Y-34036746D01*
X161693668Y-34036747D01*
X161710374Y-34038392D01*
X161880000Y-34055099D01*
X162066331Y-34036747D01*
X162139504Y-34014549D01*
X162209371Y-34013926D01*
X162268484Y-34051173D01*
X162298075Y-34114467D01*
X162299500Y-34133210D01*
X162299500Y-41910911D01*
X162279815Y-41977950D01*
X162271353Y-41989576D01*
X162205864Y-42069373D01*
X162205862Y-42069376D01*
X162117604Y-42234497D01*
X162063253Y-42413666D01*
X162063252Y-42413668D01*
X162044901Y-42600000D01*
X162063252Y-42786331D01*
X162063253Y-42786333D01*
X162117604Y-42965502D01*
X162205862Y-43130623D01*
X162205864Y-43130626D01*
X162324642Y-43275357D01*
X162469373Y-43394135D01*
X162469376Y-43394137D01*
X162610138Y-43469375D01*
X162634499Y-43482396D01*
X162813666Y-43536746D01*
X162813668Y-43536747D01*
X162830374Y-43538392D01*
X163000000Y-43555099D01*
X163186331Y-43536747D01*
X163365501Y-43482396D01*
X163530625Y-43394136D01*
X163675357Y-43275357D01*
X163794136Y-43130625D01*
X163882396Y-42965501D01*
X163936747Y-42786331D01*
X163955099Y-42600000D01*
X163936747Y-42413669D01*
X163882396Y-42234499D01*
X163877510Y-42225357D01*
X163794137Y-42069376D01*
X163794135Y-42069373D01*
X163728647Y-41989576D01*
X163701334Y-41925266D01*
X163700500Y-41910911D01*
X163700500Y-37500000D01*
X165744901Y-37500000D01*
X165763252Y-37686331D01*
X165763253Y-37686333D01*
X165817604Y-37865502D01*
X165905862Y-38030623D01*
X165905864Y-38030626D01*
X166024642Y-38175357D01*
X166169373Y-38294135D01*
X166169376Y-38294137D01*
X166334497Y-38382395D01*
X166334499Y-38382396D01*
X166513666Y-38436746D01*
X166513668Y-38436747D01*
X166530374Y-38438392D01*
X166700000Y-38455099D01*
X166886331Y-38436747D01*
X167065501Y-38382396D01*
X167230625Y-38294136D01*
X167375357Y-38175357D01*
X167494136Y-38030625D01*
X167582396Y-37865501D01*
X167636747Y-37686331D01*
X167655099Y-37500000D01*
X167636747Y-37313669D01*
X167582396Y-37134499D01*
X167533203Y-37042465D01*
X167494137Y-36969376D01*
X167494135Y-36969373D01*
X167375357Y-36824642D01*
X167230626Y-36705864D01*
X167230623Y-36705862D01*
X167065502Y-36617604D01*
X166886333Y-36563253D01*
X166886331Y-36563252D01*
X166700000Y-36544901D01*
X166513668Y-36563252D01*
X166513666Y-36563253D01*
X166334497Y-36617604D01*
X166169376Y-36705862D01*
X166169373Y-36705864D01*
X166024642Y-36824642D01*
X165905864Y-36969373D01*
X165905862Y-36969376D01*
X165817604Y-37134497D01*
X165763253Y-37313666D01*
X165763252Y-37313668D01*
X165744901Y-37500000D01*
X163700500Y-37500000D01*
X163700500Y-36674893D01*
X163720185Y-36607854D01*
X163772989Y-36562099D01*
X163842147Y-36552155D01*
X163882953Y-36565535D01*
X163899047Y-36574137D01*
X163914499Y-36582396D01*
X164086710Y-36634636D01*
X164093666Y-36636746D01*
X164093668Y-36636747D01*
X164110374Y-36638392D01*
X164280000Y-36655099D01*
X164466331Y-36636747D01*
X164645501Y-36582396D01*
X164810625Y-36494136D01*
X164955357Y-36375357D01*
X165074136Y-36230625D01*
X165162396Y-36065501D01*
X165216747Y-35886331D01*
X165235099Y-35700000D01*
X165216747Y-35513669D01*
X165162396Y-35334499D01*
X165074136Y-35169375D01*
X165074135Y-35169373D01*
X164955357Y-35024642D01*
X164810626Y-34905864D01*
X164810623Y-34905862D01*
X164645502Y-34817604D01*
X164466333Y-34763253D01*
X164466331Y-34763252D01*
X164280000Y-34744901D01*
X164093668Y-34763252D01*
X164093666Y-34763253D01*
X163914500Y-34817603D01*
X163882951Y-34834466D01*
X163814548Y-34848706D01*
X163749304Y-34823704D01*
X163707935Y-34767398D01*
X163700500Y-34725106D01*
X163700500Y-33979024D01*
X163720185Y-33911985D01*
X163745840Y-33883167D01*
X163755357Y-33875357D01*
X163874136Y-33730625D01*
X163962396Y-33565501D01*
X164016747Y-33386331D01*
X164035099Y-33200000D01*
X164025250Y-33100000D01*
X168824901Y-33100000D01*
X168843252Y-33286331D01*
X168843253Y-33286333D01*
X168897604Y-33465502D01*
X168985862Y-33630623D01*
X168985864Y-33630626D01*
X169104642Y-33775357D01*
X169249373Y-33894135D01*
X169249376Y-33894137D01*
X169392127Y-33970438D01*
X169414499Y-33982396D01*
X169593666Y-34036746D01*
X169593668Y-34036747D01*
X169610374Y-34038392D01*
X169780000Y-34055099D01*
X169966331Y-34036747D01*
X170145501Y-33982396D01*
X170157046Y-33976224D01*
X170225449Y-33961983D01*
X170290693Y-33986983D01*
X170332064Y-34043287D01*
X170339500Y-34085583D01*
X170339500Y-41962171D01*
X170319815Y-42029210D01*
X170311353Y-42040836D01*
X170205864Y-42169373D01*
X170205862Y-42169376D01*
X170117604Y-42334497D01*
X170063253Y-42513666D01*
X170063252Y-42513668D01*
X170044901Y-42700000D01*
X170063252Y-42886331D01*
X170063253Y-42886333D01*
X170117604Y-43065502D01*
X170205862Y-43230623D01*
X170205864Y-43230626D01*
X170324642Y-43375357D01*
X170469373Y-43494135D01*
X170469376Y-43494137D01*
X170634497Y-43582395D01*
X170634499Y-43582396D01*
X170813666Y-43636746D01*
X170813668Y-43636747D01*
X170830374Y-43638392D01*
X171000000Y-43655099D01*
X171186331Y-43636747D01*
X171365501Y-43582396D01*
X171530625Y-43494136D01*
X171675357Y-43375357D01*
X171794136Y-43230625D01*
X171882396Y-43065501D01*
X171936747Y-42886331D01*
X171955099Y-42700000D01*
X171936747Y-42513669D01*
X171882396Y-42334499D01*
X171881271Y-42332395D01*
X171794137Y-42169376D01*
X171794135Y-42169373D01*
X171768647Y-42138316D01*
X171741334Y-42074006D01*
X171740500Y-42059651D01*
X171740500Y-37600000D01*
X173644901Y-37600000D01*
X173663252Y-37786331D01*
X173663253Y-37786333D01*
X173717604Y-37965502D01*
X173805862Y-38130623D01*
X173805864Y-38130626D01*
X173924642Y-38275357D01*
X174069373Y-38394135D01*
X174069376Y-38394137D01*
X174234497Y-38482395D01*
X174234499Y-38482396D01*
X174413666Y-38536746D01*
X174413668Y-38536747D01*
X174430374Y-38538392D01*
X174600000Y-38555099D01*
X174786331Y-38536747D01*
X174965501Y-38482396D01*
X175130625Y-38394136D01*
X175275357Y-38275357D01*
X175394136Y-38130625D01*
X175482396Y-37965501D01*
X175536747Y-37786331D01*
X175555099Y-37600000D01*
X175536747Y-37413669D01*
X175482396Y-37234499D01*
X175447480Y-37169175D01*
X175394137Y-37069376D01*
X175394135Y-37069373D01*
X175275357Y-36924642D01*
X175130626Y-36805864D01*
X175130623Y-36805862D01*
X174965502Y-36717604D01*
X174786333Y-36663253D01*
X174786331Y-36663252D01*
X174600000Y-36644901D01*
X174413668Y-36663252D01*
X174413666Y-36663253D01*
X174234497Y-36717604D01*
X174069376Y-36805862D01*
X174069373Y-36805864D01*
X173924642Y-36924642D01*
X173805864Y-37069373D01*
X173805862Y-37069376D01*
X173717604Y-37234497D01*
X173663253Y-37413666D01*
X173663252Y-37413668D01*
X173644901Y-37600000D01*
X171740500Y-37600000D01*
X171740500Y-36695902D01*
X171760185Y-36628863D01*
X171812989Y-36583108D01*
X171882147Y-36573164D01*
X171911955Y-36581342D01*
X171914496Y-36582394D01*
X171914499Y-36582396D01*
X172059833Y-36626483D01*
X172093666Y-36636746D01*
X172093668Y-36636747D01*
X172110374Y-36638392D01*
X172280000Y-36655099D01*
X172466331Y-36636747D01*
X172645501Y-36582396D01*
X172810625Y-36494136D01*
X172955357Y-36375357D01*
X173074136Y-36230625D01*
X173162396Y-36065501D01*
X173216747Y-35886331D01*
X173235099Y-35700000D01*
X173216747Y-35513669D01*
X173162396Y-35334499D01*
X173074136Y-35169375D01*
X173074135Y-35169373D01*
X172955357Y-35024642D01*
X172810626Y-34905864D01*
X172810623Y-34905862D01*
X172645502Y-34817604D01*
X172466333Y-34763253D01*
X172466331Y-34763252D01*
X172280000Y-34744901D01*
X172093668Y-34763252D01*
X172093666Y-34763253D01*
X171914496Y-34817604D01*
X171911943Y-34818662D01*
X171910499Y-34818817D01*
X171908670Y-34819372D01*
X171908564Y-34819024D01*
X171842473Y-34826125D01*
X171779997Y-34794845D01*
X171744349Y-34734753D01*
X171740500Y-34704097D01*
X171740500Y-33737828D01*
X171760185Y-33670789D01*
X171768647Y-33659163D01*
X171777038Y-33648939D01*
X171874136Y-33530625D01*
X171962396Y-33365501D01*
X172016747Y-33186331D01*
X172025250Y-33100000D01*
X176924901Y-33100000D01*
X176943252Y-33286331D01*
X176943253Y-33286333D01*
X176997604Y-33465502D01*
X177085862Y-33630623D01*
X177085864Y-33630626D01*
X177204642Y-33775357D01*
X177349373Y-33894135D01*
X177349376Y-33894137D01*
X177492127Y-33970438D01*
X177514499Y-33982396D01*
X177693666Y-34036746D01*
X177693668Y-34036747D01*
X177710374Y-34038392D01*
X177880000Y-34055099D01*
X178066331Y-34036747D01*
X178139504Y-34014549D01*
X178209371Y-34013926D01*
X178268484Y-34051173D01*
X178298075Y-34114467D01*
X178299500Y-34133210D01*
X178299500Y-42010911D01*
X178279815Y-42077950D01*
X178271353Y-42089576D01*
X178205864Y-42169373D01*
X178205862Y-42169376D01*
X178117604Y-42334497D01*
X178063253Y-42513666D01*
X178063252Y-42513668D01*
X178044901Y-42700000D01*
X178063252Y-42886331D01*
X178063253Y-42886333D01*
X178117604Y-43065502D01*
X178205862Y-43230623D01*
X178205864Y-43230626D01*
X178324642Y-43375357D01*
X178469373Y-43494135D01*
X178469376Y-43494137D01*
X178634497Y-43582395D01*
X178634499Y-43582396D01*
X178813666Y-43636746D01*
X178813668Y-43636747D01*
X178830374Y-43638392D01*
X179000000Y-43655099D01*
X179186331Y-43636747D01*
X179365501Y-43582396D01*
X179530625Y-43494136D01*
X179675357Y-43375357D01*
X179794136Y-43230625D01*
X179882396Y-43065501D01*
X179936747Y-42886331D01*
X179955099Y-42700000D01*
X179936747Y-42513669D01*
X179882396Y-42334499D01*
X179881271Y-42332395D01*
X179794137Y-42169376D01*
X179794135Y-42169373D01*
X179728647Y-42089576D01*
X179701334Y-42025266D01*
X179700500Y-42010911D01*
X179700500Y-37600000D01*
X181644901Y-37600000D01*
X181663252Y-37786331D01*
X181663253Y-37786333D01*
X181717604Y-37965502D01*
X181805862Y-38130623D01*
X181805864Y-38130626D01*
X181924642Y-38275357D01*
X182069373Y-38394135D01*
X182069376Y-38394137D01*
X182234497Y-38482395D01*
X182234499Y-38482396D01*
X182413666Y-38536746D01*
X182413668Y-38536747D01*
X182430374Y-38538392D01*
X182600000Y-38555099D01*
X182786331Y-38536747D01*
X182965501Y-38482396D01*
X183130625Y-38394136D01*
X183275357Y-38275357D01*
X183394136Y-38130625D01*
X183482396Y-37965501D01*
X183536747Y-37786331D01*
X183555099Y-37600000D01*
X183536747Y-37413669D01*
X183482396Y-37234499D01*
X183447480Y-37169175D01*
X183394137Y-37069376D01*
X183394135Y-37069373D01*
X183275357Y-36924642D01*
X183130626Y-36805864D01*
X183130623Y-36805862D01*
X182965502Y-36717604D01*
X182786333Y-36663253D01*
X182786331Y-36663252D01*
X182600000Y-36644901D01*
X182413668Y-36663252D01*
X182413666Y-36663253D01*
X182234497Y-36717604D01*
X182069376Y-36805862D01*
X182069373Y-36805864D01*
X181924642Y-36924642D01*
X181805864Y-37069373D01*
X181805862Y-37069376D01*
X181717604Y-37234497D01*
X181663253Y-37413666D01*
X181663252Y-37413668D01*
X181644901Y-37600000D01*
X179700500Y-37600000D01*
X179700500Y-36674893D01*
X179720185Y-36607854D01*
X179772989Y-36562099D01*
X179842147Y-36552155D01*
X179882953Y-36565535D01*
X179899047Y-36574137D01*
X179914499Y-36582396D01*
X180086710Y-36634636D01*
X180093666Y-36636746D01*
X180093668Y-36636747D01*
X180110374Y-36638392D01*
X180280000Y-36655099D01*
X180466331Y-36636747D01*
X180645501Y-36582396D01*
X180810625Y-36494136D01*
X180955357Y-36375357D01*
X181074136Y-36230625D01*
X181162396Y-36065501D01*
X181216747Y-35886331D01*
X181235099Y-35700000D01*
X181216747Y-35513669D01*
X181162396Y-35334499D01*
X181074136Y-35169375D01*
X181074135Y-35169373D01*
X180955357Y-35024642D01*
X180810626Y-34905864D01*
X180810623Y-34905862D01*
X180645502Y-34817604D01*
X180466333Y-34763253D01*
X180466331Y-34763252D01*
X180280000Y-34744901D01*
X180093668Y-34763252D01*
X180093666Y-34763253D01*
X179914500Y-34817603D01*
X179882951Y-34834466D01*
X179814548Y-34848706D01*
X179749304Y-34823704D01*
X179707935Y-34767398D01*
X179700500Y-34725106D01*
X179700500Y-33879024D01*
X179720185Y-33811985D01*
X179745840Y-33783167D01*
X179755357Y-33775357D01*
X179874136Y-33630625D01*
X179962396Y-33465501D01*
X180016747Y-33286331D01*
X180035099Y-33100000D01*
X184924901Y-33100000D01*
X184943252Y-33286331D01*
X184943253Y-33286333D01*
X184997604Y-33465502D01*
X185085862Y-33630623D01*
X185085864Y-33630626D01*
X185204642Y-33775357D01*
X185349373Y-33894135D01*
X185349376Y-33894137D01*
X185492127Y-33970438D01*
X185514499Y-33982396D01*
X185693666Y-34036746D01*
X185693668Y-34036747D01*
X185710374Y-34038392D01*
X185880000Y-34055099D01*
X186066331Y-34036747D01*
X186179504Y-34002415D01*
X186249371Y-34001792D01*
X186308484Y-34039040D01*
X186338075Y-34102333D01*
X186339500Y-34121076D01*
X186339500Y-41862171D01*
X186319815Y-41929210D01*
X186311353Y-41940836D01*
X186205864Y-42069373D01*
X186205862Y-42069376D01*
X186117604Y-42234497D01*
X186063253Y-42413666D01*
X186063252Y-42413668D01*
X186044901Y-42600000D01*
X186063252Y-42786331D01*
X186063253Y-42786333D01*
X186117604Y-42965502D01*
X186205862Y-43130623D01*
X186205864Y-43130626D01*
X186324642Y-43275357D01*
X186469373Y-43394135D01*
X186469376Y-43394137D01*
X186610138Y-43469375D01*
X186634499Y-43482396D01*
X186813666Y-43536746D01*
X186813668Y-43536747D01*
X186830374Y-43538392D01*
X187000000Y-43555099D01*
X187186331Y-43536747D01*
X187365501Y-43482396D01*
X187530625Y-43394136D01*
X187675357Y-43275357D01*
X187794136Y-43130625D01*
X187882396Y-42965501D01*
X187932601Y-42800000D01*
X195844901Y-42800000D01*
X195863252Y-42986331D01*
X195863253Y-42986333D01*
X195917604Y-43165502D01*
X196005862Y-43330623D01*
X196005864Y-43330626D01*
X196124642Y-43475357D01*
X196269373Y-43594135D01*
X196269376Y-43594137D01*
X196389654Y-43658426D01*
X196434499Y-43682396D01*
X196599013Y-43732301D01*
X196613666Y-43736746D01*
X196613668Y-43736747D01*
X196630374Y-43738392D01*
X196800000Y-43755099D01*
X196986331Y-43736747D01*
X196998920Y-43732927D01*
X197068783Y-43732301D01*
X197127898Y-43769546D01*
X197157492Y-43832839D01*
X197158321Y-43863741D01*
X197144901Y-43999999D01*
X197163252Y-44186331D01*
X197163253Y-44186333D01*
X197217604Y-44365502D01*
X197305862Y-44530623D01*
X197305864Y-44530626D01*
X197424642Y-44675357D01*
X197569373Y-44794135D01*
X197569376Y-44794137D01*
X197606506Y-44813983D01*
X197734499Y-44882396D01*
X197837592Y-44913669D01*
X197913666Y-44936746D01*
X197913668Y-44936747D01*
X197930374Y-44938392D01*
X198100000Y-44955099D01*
X198286331Y-44936747D01*
X198391849Y-44904737D01*
X198461716Y-44904114D01*
X198520829Y-44941361D01*
X198550420Y-45004655D01*
X198551248Y-45035551D01*
X198544901Y-45099999D01*
X198563252Y-45286331D01*
X198563253Y-45286333D01*
X198617604Y-45465502D01*
X198705862Y-45630623D01*
X198705864Y-45630626D01*
X198824642Y-45775357D01*
X198969373Y-45894135D01*
X198969376Y-45894137D01*
X199130147Y-45980070D01*
X199134499Y-45982396D01*
X199313666Y-46036746D01*
X199313668Y-46036747D01*
X199330374Y-46038392D01*
X199500000Y-46055099D01*
X199686331Y-46036747D01*
X199865501Y-45982396D01*
X200030625Y-45894136D01*
X200142236Y-45802539D01*
X200206546Y-45775226D01*
X200275413Y-45787017D01*
X200326974Y-45834169D01*
X200343675Y-45893999D01*
X200344304Y-45893938D01*
X200344656Y-45897515D01*
X200344901Y-45898392D01*
X200344901Y-45899999D01*
X200363252Y-46086331D01*
X200363253Y-46086333D01*
X200417604Y-46265502D01*
X200505862Y-46430623D01*
X200505864Y-46430626D01*
X200624642Y-46575357D01*
X200769373Y-46694135D01*
X200769376Y-46694137D01*
X200838023Y-46730829D01*
X200934499Y-46782396D01*
X201113666Y-46836746D01*
X201113668Y-46836747D01*
X201130374Y-46838392D01*
X201300000Y-46855099D01*
X201486331Y-46836747D01*
X201665501Y-46782396D01*
X201830625Y-46694136D01*
X201975357Y-46575357D01*
X202094136Y-46430625D01*
X202182396Y-46265501D01*
X202236747Y-46086331D01*
X202255099Y-45900000D01*
X202236747Y-45713669D01*
X202182396Y-45534499D01*
X202094136Y-45369375D01*
X202094135Y-45369373D01*
X201975357Y-45224642D01*
X201830626Y-45105864D01*
X201830623Y-45105862D01*
X201665502Y-45017604D01*
X201486333Y-44963253D01*
X201486331Y-44963252D01*
X201300000Y-44944901D01*
X201113668Y-44963252D01*
X201113666Y-44963253D01*
X200934497Y-45017604D01*
X200769376Y-45105862D01*
X200769373Y-45105865D01*
X200657764Y-45197460D01*
X200593454Y-45224773D01*
X200524586Y-45212982D01*
X200473026Y-45165830D01*
X200456325Y-45106000D01*
X200455696Y-45106062D01*
X200455343Y-45102481D01*
X200455099Y-45101607D01*
X200455099Y-45100000D01*
X200436747Y-44913668D01*
X200436746Y-44913666D01*
X200434038Y-44904738D01*
X200382396Y-44734499D01*
X200343894Y-44662466D01*
X200294137Y-44569376D01*
X200294135Y-44569373D01*
X200175357Y-44424642D01*
X200030626Y-44305864D01*
X200030623Y-44305862D01*
X199865502Y-44217604D01*
X199686333Y-44163253D01*
X199686331Y-44163252D01*
X199500000Y-44144901D01*
X199313670Y-44163252D01*
X199208149Y-44195262D01*
X199138282Y-44195885D01*
X199079169Y-44158637D01*
X199049578Y-44095342D01*
X199048751Y-44064450D01*
X199055099Y-44000000D01*
X199036747Y-43813669D01*
X198982396Y-43634499D01*
X198930147Y-43536747D01*
X198894137Y-43469376D01*
X198894135Y-43469373D01*
X198775357Y-43324642D01*
X198630626Y-43205864D01*
X198630623Y-43205862D01*
X198465502Y-43117604D01*
X198286333Y-43063253D01*
X198286331Y-43063252D01*
X198100000Y-43044901D01*
X197913668Y-43063252D01*
X197901075Y-43067073D01*
X197831208Y-43067696D01*
X197772095Y-43030447D01*
X197742505Y-42967152D01*
X197741678Y-42936263D01*
X197755099Y-42800000D01*
X197736747Y-42613669D01*
X197682396Y-42434499D01*
X197682202Y-42434136D01*
X197594137Y-42269376D01*
X197594135Y-42269373D01*
X197475357Y-42124642D01*
X197330626Y-42005864D01*
X197330623Y-42005862D01*
X197165502Y-41917604D01*
X196986333Y-41863253D01*
X196986331Y-41863252D01*
X196800000Y-41844901D01*
X196613668Y-41863252D01*
X196613666Y-41863253D01*
X196434497Y-41917604D01*
X196269376Y-42005862D01*
X196269373Y-42005864D01*
X196124642Y-42124642D01*
X196005864Y-42269373D01*
X196005862Y-42269376D01*
X195917604Y-42434497D01*
X195863253Y-42613666D01*
X195863252Y-42613668D01*
X195844901Y-42800000D01*
X187932601Y-42800000D01*
X187936747Y-42786331D01*
X187955099Y-42600000D01*
X187936747Y-42413669D01*
X187882396Y-42234499D01*
X187877510Y-42225357D01*
X187794137Y-42069376D01*
X187794135Y-42069373D01*
X187768647Y-42038316D01*
X187741334Y-41974006D01*
X187740500Y-41959651D01*
X187740500Y-37600000D01*
X189744901Y-37600000D01*
X189763252Y-37786331D01*
X189763253Y-37786333D01*
X189817604Y-37965502D01*
X189905862Y-38130623D01*
X189905864Y-38130626D01*
X190024642Y-38275357D01*
X190169373Y-38394135D01*
X190169376Y-38394137D01*
X190334497Y-38482395D01*
X190334499Y-38482396D01*
X190513666Y-38536746D01*
X190513668Y-38536747D01*
X190530374Y-38538392D01*
X190700000Y-38555099D01*
X190886331Y-38536747D01*
X191065501Y-38482396D01*
X191230625Y-38394136D01*
X191375357Y-38275357D01*
X191494136Y-38130625D01*
X191582396Y-37965501D01*
X191636747Y-37786331D01*
X191655099Y-37600000D01*
X191636747Y-37413669D01*
X191582396Y-37234499D01*
X191547480Y-37169175D01*
X191494137Y-37069376D01*
X191494135Y-37069373D01*
X191375357Y-36924642D01*
X191230626Y-36805864D01*
X191230623Y-36805862D01*
X191065502Y-36717604D01*
X190886333Y-36663253D01*
X190886331Y-36663252D01*
X190700000Y-36644901D01*
X190513668Y-36663252D01*
X190513666Y-36663253D01*
X190334497Y-36717604D01*
X190169376Y-36805862D01*
X190169373Y-36805864D01*
X190024642Y-36924642D01*
X189905864Y-37069373D01*
X189905862Y-37069376D01*
X189817604Y-37234497D01*
X189763253Y-37413666D01*
X189763252Y-37413668D01*
X189744901Y-37600000D01*
X187740500Y-37600000D01*
X187740500Y-36695902D01*
X187760185Y-36628863D01*
X187812989Y-36583108D01*
X187882147Y-36573164D01*
X187911955Y-36581342D01*
X187914496Y-36582394D01*
X187914499Y-36582396D01*
X188059833Y-36626483D01*
X188093666Y-36636746D01*
X188093668Y-36636747D01*
X188110374Y-36638392D01*
X188280000Y-36655099D01*
X188466331Y-36636747D01*
X188645501Y-36582396D01*
X188810625Y-36494136D01*
X188955357Y-36375357D01*
X189074136Y-36230625D01*
X189162396Y-36065501D01*
X189216747Y-35886331D01*
X189235099Y-35700000D01*
X189216747Y-35513669D01*
X189162396Y-35334499D01*
X189074136Y-35169375D01*
X189074135Y-35169373D01*
X188955357Y-35024642D01*
X188810626Y-34905864D01*
X188810623Y-34905862D01*
X188645502Y-34817604D01*
X188466333Y-34763253D01*
X188466331Y-34763252D01*
X188280000Y-34744901D01*
X188093668Y-34763252D01*
X188093666Y-34763253D01*
X187914496Y-34817604D01*
X187911943Y-34818662D01*
X187910499Y-34818817D01*
X187908670Y-34819372D01*
X187908564Y-34819024D01*
X187842473Y-34826125D01*
X187779997Y-34794845D01*
X187744349Y-34734753D01*
X187740500Y-34704097D01*
X187740500Y-33928265D01*
X187760185Y-33861226D01*
X187785834Y-33832413D01*
X187855357Y-33775357D01*
X187974136Y-33630625D01*
X188062396Y-33465501D01*
X188116747Y-33286331D01*
X188135099Y-33100000D01*
X188116747Y-32913669D01*
X188062396Y-32734499D01*
X188051261Y-32713666D01*
X187974137Y-32569376D01*
X187974135Y-32569373D01*
X187855357Y-32424642D01*
X187710626Y-32305864D01*
X187710623Y-32305862D01*
X187545502Y-32217604D01*
X187366333Y-32163253D01*
X187366331Y-32163252D01*
X187180000Y-32144901D01*
X186993668Y-32163252D01*
X186993666Y-32163253D01*
X186814497Y-32217604D01*
X186649376Y-32305862D01*
X186649374Y-32305864D01*
X186608664Y-32339274D01*
X186544354Y-32366586D01*
X186475487Y-32354795D01*
X186451336Y-32339274D01*
X186410625Y-32305864D01*
X186410623Y-32305862D01*
X186245502Y-32217604D01*
X186066333Y-32163253D01*
X186066331Y-32163252D01*
X185880000Y-32144901D01*
X185693668Y-32163252D01*
X185693666Y-32163253D01*
X185514497Y-32217604D01*
X185349376Y-32305862D01*
X185349373Y-32305864D01*
X185204642Y-32424642D01*
X185085864Y-32569373D01*
X185085862Y-32569376D01*
X184997604Y-32734497D01*
X184943253Y-32913666D01*
X184943252Y-32913668D01*
X184924901Y-33100000D01*
X180035099Y-33100000D01*
X180016747Y-32913669D01*
X179962396Y-32734499D01*
X179951261Y-32713666D01*
X179874137Y-32569376D01*
X179874135Y-32569373D01*
X179755357Y-32424642D01*
X179610626Y-32305864D01*
X179610623Y-32305862D01*
X179445502Y-32217604D01*
X179266333Y-32163253D01*
X179266331Y-32163252D01*
X179080000Y-32144901D01*
X178893668Y-32163252D01*
X178893666Y-32163253D01*
X178714497Y-32217604D01*
X178549380Y-32305860D01*
X178548886Y-32306191D01*
X178548587Y-32306284D01*
X178544003Y-32308735D01*
X178543538Y-32307865D01*
X178482207Y-32327065D01*
X178414828Y-32308577D01*
X178411114Y-32306191D01*
X178410619Y-32305860D01*
X178245502Y-32217604D01*
X178066333Y-32163253D01*
X178066331Y-32163252D01*
X177880000Y-32144901D01*
X177693668Y-32163252D01*
X177693666Y-32163253D01*
X177514497Y-32217604D01*
X177349376Y-32305862D01*
X177349373Y-32305864D01*
X177204642Y-32424642D01*
X177085864Y-32569373D01*
X177085862Y-32569376D01*
X176997604Y-32734497D01*
X176943253Y-32913666D01*
X176943252Y-32913668D01*
X176924901Y-33100000D01*
X172025250Y-33100000D01*
X172035099Y-33000000D01*
X172016747Y-32813669D01*
X171962396Y-32634499D01*
X171958146Y-32626548D01*
X171874137Y-32469376D01*
X171874135Y-32469373D01*
X171755357Y-32324642D01*
X171610626Y-32205864D01*
X171610623Y-32205862D01*
X171445502Y-32117604D01*
X171266333Y-32063253D01*
X171266331Y-32063252D01*
X171080000Y-32044901D01*
X170893668Y-32063252D01*
X170893666Y-32063253D01*
X170714497Y-32117604D01*
X170549376Y-32205862D01*
X170549373Y-32205864D01*
X170445465Y-32291140D01*
X170381155Y-32318453D01*
X170312287Y-32306662D01*
X170308348Y-32304646D01*
X170145500Y-32217603D01*
X169966333Y-32163253D01*
X169966331Y-32163252D01*
X169780000Y-32144901D01*
X169593668Y-32163252D01*
X169593666Y-32163253D01*
X169414497Y-32217604D01*
X169249376Y-32305862D01*
X169249373Y-32305864D01*
X169104642Y-32424642D01*
X168985864Y-32569373D01*
X168985862Y-32569376D01*
X168897604Y-32734497D01*
X168843253Y-32913666D01*
X168843252Y-32913668D01*
X168824901Y-33100000D01*
X164025250Y-33100000D01*
X164016747Y-33013669D01*
X163962396Y-32834499D01*
X163951261Y-32813666D01*
X163874137Y-32669376D01*
X163874135Y-32669373D01*
X163755357Y-32524642D01*
X163610626Y-32405864D01*
X163610623Y-32405862D01*
X163445502Y-32317604D01*
X163266333Y-32263253D01*
X163266331Y-32263252D01*
X163080000Y-32244901D01*
X162893668Y-32263252D01*
X162893666Y-32263253D01*
X162714497Y-32317604D01*
X162612211Y-32372277D01*
X162543808Y-32386519D01*
X162478564Y-32361519D01*
X162475129Y-32358801D01*
X162410625Y-32305864D01*
X162410623Y-32305863D01*
X162410622Y-32305862D01*
X162245502Y-32217604D01*
X162066333Y-32163253D01*
X162066331Y-32163252D01*
X161880000Y-32144901D01*
X161693668Y-32163252D01*
X161693666Y-32163253D01*
X161514497Y-32217604D01*
X161349376Y-32305862D01*
X161349373Y-32305864D01*
X161204642Y-32424642D01*
X161085864Y-32569373D01*
X161085862Y-32569376D01*
X160997604Y-32734497D01*
X160943253Y-32913666D01*
X160943252Y-32913668D01*
X160924901Y-33100000D01*
X155542295Y-33100000D01*
X155536747Y-33043669D01*
X155482396Y-32864499D01*
X155482395Y-32864497D01*
X155394137Y-32699376D01*
X155394135Y-32699373D01*
X155275357Y-32554642D01*
X155130626Y-32435864D01*
X155130623Y-32435862D01*
X154965502Y-32347604D01*
X154786333Y-32293253D01*
X154786331Y-32293252D01*
X154600000Y-32274901D01*
X154413668Y-32293252D01*
X154413666Y-32293253D01*
X154234499Y-32347603D01*
X154080557Y-32429886D01*
X154012154Y-32444127D01*
X153946911Y-32419126D01*
X153943442Y-32416382D01*
X153930625Y-32405864D01*
X153930623Y-32405862D01*
X153765502Y-32317604D01*
X153586333Y-32263253D01*
X153586331Y-32263252D01*
X153400000Y-32244901D01*
X153213668Y-32263252D01*
X153213666Y-32263253D01*
X153034497Y-32317604D01*
X152869376Y-32405862D01*
X152869373Y-32405864D01*
X152724642Y-32524642D01*
X152605864Y-32669373D01*
X152605862Y-32669376D01*
X152517604Y-32834497D01*
X152463253Y-33013666D01*
X152463252Y-33013668D01*
X152444901Y-33200000D01*
X147548205Y-33200000D01*
X147555099Y-33130000D01*
X147536747Y-32943669D01*
X147482396Y-32764499D01*
X147466360Y-32734497D01*
X147394137Y-32599376D01*
X147394135Y-32599373D01*
X147275357Y-32454642D01*
X147130626Y-32335864D01*
X147130623Y-32335862D01*
X146965502Y-32247604D01*
X146786333Y-32193253D01*
X146786331Y-32193252D01*
X146600000Y-32174901D01*
X146413668Y-32193252D01*
X146413666Y-32193253D01*
X146234497Y-32247604D01*
X146069381Y-32335860D01*
X146069375Y-32335864D01*
X146027041Y-32370606D01*
X145962731Y-32397918D01*
X145893863Y-32386125D01*
X145889925Y-32384109D01*
X145765502Y-32317604D01*
X145586333Y-32263253D01*
X145586331Y-32263252D01*
X145400000Y-32244901D01*
X145213668Y-32263252D01*
X145213666Y-32263253D01*
X145034497Y-32317604D01*
X144869376Y-32405862D01*
X144869373Y-32405864D01*
X144724642Y-32524642D01*
X144605864Y-32669373D01*
X144605862Y-32669376D01*
X144517604Y-32834497D01*
X144463253Y-33013666D01*
X144463252Y-33013668D01*
X144444901Y-33200000D01*
X139548205Y-33200000D01*
X139555099Y-33130000D01*
X139536747Y-32943669D01*
X139482396Y-32764499D01*
X139466360Y-32734497D01*
X139394137Y-32599376D01*
X139394135Y-32599373D01*
X139275357Y-32454642D01*
X139130626Y-32335864D01*
X139130623Y-32335862D01*
X138965502Y-32247604D01*
X138786333Y-32193253D01*
X138786331Y-32193252D01*
X138600000Y-32174901D01*
X138413668Y-32193252D01*
X138413666Y-32193253D01*
X138234497Y-32247604D01*
X138069376Y-32335862D01*
X138069374Y-32335864D01*
X138028664Y-32369274D01*
X137964354Y-32396586D01*
X137895487Y-32384795D01*
X137871336Y-32369274D01*
X137830625Y-32335864D01*
X137830623Y-32335862D01*
X137665502Y-32247604D01*
X137486333Y-32193253D01*
X137486331Y-32193252D01*
X137300000Y-32174901D01*
X137113668Y-32193252D01*
X137113666Y-32193253D01*
X136934497Y-32247604D01*
X136769376Y-32335862D01*
X136769373Y-32335864D01*
X136624642Y-32454642D01*
X136505864Y-32599373D01*
X136505862Y-32599376D01*
X136417604Y-32764497D01*
X136363253Y-32943666D01*
X136363252Y-32943668D01*
X136344901Y-33130000D01*
X131645250Y-33130000D01*
X131636747Y-33043669D01*
X131582396Y-32864499D01*
X131582395Y-32864497D01*
X131494137Y-32699376D01*
X131494135Y-32699373D01*
X131375357Y-32554642D01*
X131230626Y-32435864D01*
X131230623Y-32435862D01*
X131065502Y-32347604D01*
X130886333Y-32293253D01*
X130886331Y-32293252D01*
X130700000Y-32274901D01*
X130513668Y-32293252D01*
X130513666Y-32293253D01*
X130334497Y-32347604D01*
X130169376Y-32435862D01*
X130169374Y-32435864D01*
X130128664Y-32469274D01*
X130064354Y-32496586D01*
X129995487Y-32484795D01*
X129971336Y-32469274D01*
X129930625Y-32435864D01*
X129930623Y-32435862D01*
X129765502Y-32347604D01*
X129586333Y-32293253D01*
X129586331Y-32293252D01*
X129400000Y-32274901D01*
X129213668Y-32293252D01*
X129213666Y-32293253D01*
X129034497Y-32347604D01*
X128869376Y-32435862D01*
X128869373Y-32435864D01*
X128724642Y-32554642D01*
X128605864Y-32699373D01*
X128605862Y-32699376D01*
X128517604Y-32864497D01*
X128463253Y-33043666D01*
X128463252Y-33043668D01*
X128444901Y-33230000D01*
X123142295Y-33230000D01*
X123155099Y-33100000D01*
X123136747Y-32913669D01*
X123082396Y-32734499D01*
X123071261Y-32713666D01*
X122994137Y-32569376D01*
X122994135Y-32569373D01*
X122875357Y-32424642D01*
X122730626Y-32305864D01*
X122730623Y-32305862D01*
X122565502Y-32217604D01*
X122386333Y-32163253D01*
X122386331Y-32163252D01*
X122200000Y-32144901D01*
X122013668Y-32163252D01*
X122013666Y-32163253D01*
X121834497Y-32217604D01*
X121669376Y-32305862D01*
X121669373Y-32305864D01*
X121565465Y-32391140D01*
X121501155Y-32418453D01*
X121432287Y-32406662D01*
X121428348Y-32404646D01*
X121265500Y-32317603D01*
X121086333Y-32263253D01*
X121086331Y-32263252D01*
X120900000Y-32244901D01*
X120713668Y-32263252D01*
X120713666Y-32263253D01*
X120534497Y-32317604D01*
X120369376Y-32405862D01*
X120369373Y-32405864D01*
X120224642Y-32524642D01*
X120105864Y-32669373D01*
X120105862Y-32669376D01*
X120017604Y-32834497D01*
X119963253Y-33013666D01*
X119963252Y-33013668D01*
X119944901Y-33200000D01*
X115176199Y-33200000D01*
X115216747Y-33066331D01*
X115235099Y-32880000D01*
X115216747Y-32693669D01*
X115162396Y-32514499D01*
X115142779Y-32477798D01*
X115074137Y-32349376D01*
X115074134Y-32349372D01*
X114955357Y-32204642D01*
X114810626Y-32085864D01*
X114810623Y-32085862D01*
X114645502Y-31997604D01*
X114466333Y-31943253D01*
X114466331Y-31943252D01*
X114280000Y-31924901D01*
X114093668Y-31943252D01*
X114093666Y-31943253D01*
X113914497Y-31997604D01*
X113749376Y-32085862D01*
X113749374Y-32085864D01*
X113706479Y-32121067D01*
X113642169Y-32148379D01*
X113573301Y-32136587D01*
X113549152Y-32121068D01*
X113530625Y-32105863D01*
X113530623Y-32105862D01*
X113365502Y-32017604D01*
X113186333Y-31963253D01*
X113186331Y-31963252D01*
X113000000Y-31944901D01*
X112813668Y-31963252D01*
X112813666Y-31963253D01*
X112634497Y-32017604D01*
X112469376Y-32105862D01*
X112469373Y-32105864D01*
X112324642Y-32224642D01*
X112205866Y-32369372D01*
X112205862Y-32369376D01*
X112117604Y-32534497D01*
X112063253Y-32713666D01*
X112063252Y-32713668D01*
X112044901Y-32900000D01*
X107045250Y-32900000D01*
X107036747Y-32813669D01*
X106982396Y-32634499D01*
X106978146Y-32626548D01*
X106894137Y-32469376D01*
X106894135Y-32469373D01*
X106775357Y-32324642D01*
X106630626Y-32205864D01*
X106630623Y-32205862D01*
X106465502Y-32117604D01*
X106286333Y-32063253D01*
X106286331Y-32063252D01*
X106100000Y-32044901D01*
X105913668Y-32063252D01*
X105913666Y-32063253D01*
X105734499Y-32117603D01*
X105571652Y-32204646D01*
X105503250Y-32218887D01*
X105438006Y-32193886D01*
X105434535Y-32191140D01*
X105330626Y-32105864D01*
X105330623Y-32105862D01*
X105165502Y-32017604D01*
X104986333Y-31963253D01*
X104986331Y-31963252D01*
X104800000Y-31944901D01*
X104613668Y-31963252D01*
X104613666Y-31963253D01*
X104434497Y-32017604D01*
X104269376Y-32105862D01*
X104269373Y-32105864D01*
X104124642Y-32224642D01*
X104005866Y-32369372D01*
X104005862Y-32369376D01*
X103917604Y-32534497D01*
X103863253Y-32713666D01*
X103863252Y-32713668D01*
X103844901Y-32900000D01*
X99032601Y-32900000D01*
X98982396Y-32734499D01*
X98971261Y-32713666D01*
X98894137Y-32569376D01*
X98894135Y-32569373D01*
X98775357Y-32424642D01*
X98630626Y-32305864D01*
X98630623Y-32305862D01*
X98515444Y-32244298D01*
X98505003Y-32238040D01*
X98491811Y-32229225D01*
X98477129Y-32223143D01*
X98466143Y-32217947D01*
X98465506Y-32217606D01*
X98465490Y-32217600D01*
X98464804Y-32217392D01*
X98453354Y-32213295D01*
X98364328Y-32176420D01*
X98364322Y-32176418D01*
X98228995Y-32149500D01*
X98228993Y-32149500D01*
X98152787Y-32149500D01*
X98140633Y-32148903D01*
X98100000Y-32144901D01*
X97913668Y-32163252D01*
X97913666Y-32163253D01*
X97734497Y-32217604D01*
X97569380Y-32305860D01*
X97568886Y-32306191D01*
X97568587Y-32306284D01*
X97564003Y-32308735D01*
X97563538Y-32307865D01*
X97502207Y-32327065D01*
X97434828Y-32308577D01*
X97431114Y-32306191D01*
X97430619Y-32305860D01*
X97265502Y-32217604D01*
X97086333Y-32163253D01*
X97086331Y-32163252D01*
X96900000Y-32144901D01*
X96713668Y-32163252D01*
X96713666Y-32163253D01*
X96534497Y-32217604D01*
X96369376Y-32305862D01*
X96369373Y-32305864D01*
X96224642Y-32424642D01*
X96105864Y-32569373D01*
X96105862Y-32569376D01*
X96017604Y-32734497D01*
X95963253Y-32913666D01*
X95963252Y-32913668D01*
X95944901Y-33100000D01*
X90755099Y-33100000D01*
X90736747Y-32913669D01*
X90682396Y-32734499D01*
X90671261Y-32713666D01*
X90594137Y-32569376D01*
X90594135Y-32569373D01*
X90475357Y-32424642D01*
X90330626Y-32305864D01*
X90330623Y-32305862D01*
X90165502Y-32217604D01*
X89986333Y-32163253D01*
X89986331Y-32163252D01*
X89800000Y-32144901D01*
X89613668Y-32163252D01*
X89613666Y-32163253D01*
X89434497Y-32217604D01*
X89269376Y-32305862D01*
X89269374Y-32305864D01*
X89228664Y-32339274D01*
X89164354Y-32366586D01*
X89095487Y-32354795D01*
X89071336Y-32339274D01*
X89030625Y-32305864D01*
X89030623Y-32305862D01*
X88865502Y-32217604D01*
X88686333Y-32163253D01*
X88686331Y-32163252D01*
X88500000Y-32144901D01*
X88313668Y-32163252D01*
X88313666Y-32163253D01*
X88134497Y-32217604D01*
X87969376Y-32305862D01*
X87969373Y-32305864D01*
X87824642Y-32424642D01*
X87705864Y-32569373D01*
X87705862Y-32569376D01*
X87617604Y-32734497D01*
X87563253Y-32913666D01*
X87563252Y-32913668D01*
X87544901Y-33100000D01*
X82655099Y-33100000D01*
X82636747Y-32913669D01*
X82582396Y-32734499D01*
X82571261Y-32713666D01*
X82494137Y-32569376D01*
X82494135Y-32569373D01*
X82375357Y-32424642D01*
X82230626Y-32305864D01*
X82230623Y-32305862D01*
X82065502Y-32217604D01*
X81886333Y-32163253D01*
X81886331Y-32163252D01*
X81700000Y-32144901D01*
X81513668Y-32163252D01*
X81513666Y-32163253D01*
X81334497Y-32217604D01*
X81169376Y-32305862D01*
X81169374Y-32305864D01*
X81128664Y-32339274D01*
X81064354Y-32366586D01*
X80995487Y-32354795D01*
X80971336Y-32339274D01*
X80930625Y-32305864D01*
X80930623Y-32305862D01*
X80765502Y-32217604D01*
X80586333Y-32163253D01*
X80586331Y-32163252D01*
X80400000Y-32144901D01*
X80213668Y-32163252D01*
X80213666Y-32163253D01*
X80034497Y-32217604D01*
X79869376Y-32305862D01*
X79869373Y-32305864D01*
X79724642Y-32424642D01*
X79605864Y-32569373D01*
X79605862Y-32569376D01*
X79517604Y-32734497D01*
X79463253Y-32913666D01*
X79463252Y-32913668D01*
X79444901Y-33100000D01*
X74655099Y-33100000D01*
X74636747Y-32913669D01*
X74582396Y-32734499D01*
X74571261Y-32713666D01*
X74494137Y-32569376D01*
X74494135Y-32569373D01*
X74375357Y-32424642D01*
X74230626Y-32305864D01*
X74230623Y-32305862D01*
X74065502Y-32217604D01*
X73886333Y-32163253D01*
X73886331Y-32163252D01*
X73700000Y-32144901D01*
X73513668Y-32163252D01*
X73513666Y-32163253D01*
X73334499Y-32217603D01*
X73171652Y-32304646D01*
X73103250Y-32318887D01*
X73038006Y-32293886D01*
X73034535Y-32291140D01*
X72930626Y-32205864D01*
X72930623Y-32205862D01*
X72765502Y-32117604D01*
X72586333Y-32063253D01*
X72586331Y-32063252D01*
X72400000Y-32044901D01*
X72213668Y-32063252D01*
X72213666Y-32063253D01*
X72034497Y-32117604D01*
X71869376Y-32205862D01*
X71869373Y-32205864D01*
X71724642Y-32324642D01*
X71605864Y-32469373D01*
X71605862Y-32469376D01*
X71517604Y-32634497D01*
X71463253Y-32813666D01*
X71463252Y-32813668D01*
X71444901Y-33000000D01*
X66667433Y-33000000D01*
X66632396Y-32884499D01*
X66594537Y-32813669D01*
X66544137Y-32719376D01*
X66544135Y-32719373D01*
X66425357Y-32574642D01*
X66280626Y-32455864D01*
X66280623Y-32455862D01*
X66115502Y-32367604D01*
X65936333Y-32313253D01*
X65936331Y-32313252D01*
X65750000Y-32294901D01*
X65563668Y-32313252D01*
X65563666Y-32313253D01*
X65384497Y-32367604D01*
X65288827Y-32418741D01*
X65220424Y-32432983D01*
X65155180Y-32407983D01*
X65151725Y-32405249D01*
X65095093Y-32358772D01*
X65030626Y-32305864D01*
X65030623Y-32305862D01*
X64865502Y-32217604D01*
X64686333Y-32163253D01*
X64686331Y-32163252D01*
X64500000Y-32144901D01*
X64313668Y-32163252D01*
X64313666Y-32163253D01*
X64134497Y-32217604D01*
X63969376Y-32305862D01*
X63969373Y-32305864D01*
X63824642Y-32424642D01*
X63705864Y-32569373D01*
X63705862Y-32569376D01*
X63617604Y-32734497D01*
X63563253Y-32913666D01*
X63563252Y-32913668D01*
X63544901Y-33100000D01*
X60600878Y-33100000D01*
X60600500Y-31765791D01*
X60600500Y-28158676D01*
X60620185Y-28091637D01*
X60636819Y-28070995D01*
X61571495Y-27136319D01*
X61632818Y-27102834D01*
X61659176Y-27100000D01*
X61800000Y-27100000D01*
X61800000Y-27200000D01*
X71500000Y-27200000D01*
X71600018Y-27100000D01*
X71624868Y-27160000D01*
X71632334Y-27229470D01*
X71624866Y-27254900D01*
X71552108Y-27430552D01*
X71552103Y-27430569D01*
X71491716Y-27682101D01*
X71471419Y-27940000D01*
X71491716Y-28197898D01*
X71552103Y-28449430D01*
X71552107Y-28449442D01*
X71651103Y-28688441D01*
X71786268Y-28909009D01*
X71786271Y-28909014D01*
X71834706Y-28965724D01*
X71954277Y-29105724D01*
X72059648Y-29195719D01*
X72150986Y-29273729D01*
X72150991Y-29273732D01*
X72371559Y-29408897D01*
X72456058Y-29443897D01*
X72610561Y-29507895D01*
X72862106Y-29568285D01*
X73120001Y-29588582D01*
X73377896Y-29568285D01*
X73629441Y-29507895D01*
X73868442Y-29408897D01*
X74089013Y-29273731D01*
X74285725Y-29105724D01*
X74295708Y-29094034D01*
X74354210Y-29055841D01*
X74424078Y-29055339D01*
X74483126Y-29092689D01*
X74484250Y-29093986D01*
X74494276Y-29105724D01*
X74570581Y-29170894D01*
X74690985Y-29273729D01*
X74690990Y-29273732D01*
X74911558Y-29408897D01*
X74996057Y-29443897D01*
X75150560Y-29507895D01*
X75402105Y-29568285D01*
X75660000Y-29588582D01*
X75917895Y-29568285D01*
X76169440Y-29507895D01*
X76408441Y-29408897D01*
X76629012Y-29273731D01*
X76825724Y-29105724D01*
X76835708Y-29094033D01*
X76894215Y-29055840D01*
X76964083Y-29055340D01*
X77023129Y-29092693D01*
X77024286Y-29094027D01*
X77034276Y-29105724D01*
X77139647Y-29195719D01*
X77230985Y-29273729D01*
X77230990Y-29273732D01*
X77451558Y-29408897D01*
X77536057Y-29443897D01*
X77690560Y-29507895D01*
X77942105Y-29568285D01*
X78200000Y-29588582D01*
X78457895Y-29568285D01*
X78709440Y-29507895D01*
X78948441Y-29408897D01*
X79169012Y-29273731D01*
X79365724Y-29105724D01*
X79375708Y-29094033D01*
X79434215Y-29055840D01*
X79504083Y-29055340D01*
X79563129Y-29092693D01*
X79564286Y-29094027D01*
X79574276Y-29105724D01*
X79679647Y-29195719D01*
X79770985Y-29273729D01*
X79770990Y-29273732D01*
X79991558Y-29408897D01*
X80076057Y-29443897D01*
X80230560Y-29507895D01*
X80482105Y-29568285D01*
X80740000Y-29588582D01*
X80997895Y-29568285D01*
X81249440Y-29507895D01*
X81488441Y-29408897D01*
X81709012Y-29273731D01*
X81905724Y-29105724D01*
X82073731Y-28909012D01*
X82208897Y-28688441D01*
X82307895Y-28449440D01*
X82368285Y-28197895D01*
X82388582Y-27940000D01*
X82368285Y-27682105D01*
X82307895Y-27430560D01*
X82241989Y-27271451D01*
X82234521Y-27201984D01*
X82265796Y-27139504D01*
X82325885Y-27103852D01*
X82356551Y-27100000D01*
X88927745Y-27100000D01*
X88994784Y-27119685D01*
X89003902Y-27126142D01*
X89176491Y-27260474D01*
X89395190Y-27378828D01*
X89630386Y-27459571D01*
X89875665Y-27500500D01*
X90124335Y-27500500D01*
X90369614Y-27459571D01*
X90604810Y-27378828D01*
X90823509Y-27260474D01*
X90996093Y-27126145D01*
X91061087Y-27100504D01*
X91072255Y-27100000D01*
X96200000Y-27100000D01*
X96200000Y-27200000D01*
X103700000Y-27200000D01*
X103800018Y-27100000D01*
X103807571Y-27118238D01*
X103812499Y-27119685D01*
X103858254Y-27172489D01*
X103868198Y-27241647D01*
X103860022Y-27271446D01*
X103855833Y-27281562D01*
X103852105Y-27290562D01*
X103852103Y-27290569D01*
X103791716Y-27542101D01*
X103771419Y-27800000D01*
X103791716Y-28057898D01*
X103852103Y-28309430D01*
X103852107Y-28309442D01*
X103951103Y-28548441D01*
X104086268Y-28769009D01*
X104086271Y-28769014D01*
X104108141Y-28794620D01*
X104254277Y-28965724D01*
X104371363Y-29065724D01*
X104450986Y-29133729D01*
X104450991Y-29133732D01*
X104671559Y-29268897D01*
X104756058Y-29303897D01*
X104910561Y-29367895D01*
X105162106Y-29428285D01*
X105420001Y-29448582D01*
X105677896Y-29428285D01*
X105929441Y-29367895D01*
X106168442Y-29268897D01*
X106389013Y-29133731D01*
X106585725Y-28965724D01*
X106595708Y-28954034D01*
X106654210Y-28915841D01*
X106724078Y-28915339D01*
X106783126Y-28952689D01*
X106784250Y-28953986D01*
X106794276Y-28965724D01*
X106896104Y-29052693D01*
X106990985Y-29133729D01*
X106990990Y-29133732D01*
X107211558Y-29268897D01*
X107296057Y-29303897D01*
X107450560Y-29367895D01*
X107702105Y-29428285D01*
X107960000Y-29448582D01*
X108217895Y-29428285D01*
X108469440Y-29367895D01*
X108708441Y-29268897D01*
X108929012Y-29133731D01*
X109125724Y-28965724D01*
X109135708Y-28954033D01*
X109194215Y-28915840D01*
X109264083Y-28915340D01*
X109323129Y-28952693D01*
X109324286Y-28954027D01*
X109334276Y-28965724D01*
X109451362Y-29065724D01*
X109530985Y-29133729D01*
X109530990Y-29133732D01*
X109751558Y-29268897D01*
X109836057Y-29303897D01*
X109990560Y-29367895D01*
X110242105Y-29428285D01*
X110500000Y-29448582D01*
X110757895Y-29428285D01*
X111009440Y-29367895D01*
X111248441Y-29268897D01*
X111469012Y-29133731D01*
X111665724Y-28965724D01*
X111675708Y-28954033D01*
X111734215Y-28915840D01*
X111804083Y-28915340D01*
X111863129Y-28952693D01*
X111864286Y-28954027D01*
X111874276Y-28965724D01*
X111991362Y-29065724D01*
X112070985Y-29133729D01*
X112070990Y-29133732D01*
X112291558Y-29268897D01*
X112376057Y-29303897D01*
X112530560Y-29367895D01*
X112782105Y-29428285D01*
X113040000Y-29448582D01*
X113297895Y-29428285D01*
X113549440Y-29367895D01*
X113788441Y-29268897D01*
X114009012Y-29133731D01*
X114205724Y-28965724D01*
X114373731Y-28769012D01*
X114508897Y-28548441D01*
X114607895Y-28309440D01*
X114668285Y-28057895D01*
X114688582Y-27800000D01*
X114668285Y-27542105D01*
X114607895Y-27290560D01*
X114599979Y-27271450D01*
X114592511Y-27201984D01*
X114623785Y-27139505D01*
X114683874Y-27103852D01*
X114714541Y-27100000D01*
X119826685Y-27100000D01*
X119893724Y-27119685D01*
X119917912Y-27140015D01*
X119980256Y-27207738D01*
X120176491Y-27360474D01*
X120395190Y-27478828D01*
X120630386Y-27559571D01*
X120875665Y-27600500D01*
X121124335Y-27600500D01*
X121369614Y-27559571D01*
X121604810Y-27478828D01*
X121823509Y-27360474D01*
X122019744Y-27207738D01*
X122082086Y-27140016D01*
X122141972Y-27104027D01*
X122173315Y-27100000D01*
X129000000Y-27100000D01*
X129000000Y-27200000D01*
X136500000Y-27200000D01*
X136600017Y-27100000D01*
X136625183Y-27160764D01*
X136632649Y-27230234D01*
X136616351Y-27272995D01*
X136611103Y-27281558D01*
X136512107Y-27520557D01*
X136512103Y-27520569D01*
X136451716Y-27772101D01*
X136431419Y-28030000D01*
X136451716Y-28287898D01*
X136512103Y-28539430D01*
X136512107Y-28539442D01*
X136611103Y-28778441D01*
X136746268Y-28999009D01*
X136746271Y-28999014D01*
X136794378Y-29055340D01*
X136914277Y-29195724D01*
X137005610Y-29273729D01*
X137110986Y-29363729D01*
X137110988Y-29363730D01*
X137110989Y-29363731D01*
X137119419Y-29368897D01*
X137331559Y-29498897D01*
X137416058Y-29533897D01*
X137570561Y-29597895D01*
X137822106Y-29658285D01*
X138080001Y-29678582D01*
X138337896Y-29658285D01*
X138589441Y-29597895D01*
X138828442Y-29498897D01*
X139049013Y-29363731D01*
X139245725Y-29195724D01*
X139255708Y-29184034D01*
X139314210Y-29145841D01*
X139384078Y-29145339D01*
X139443126Y-29182689D01*
X139444250Y-29183986D01*
X139454276Y-29195724D01*
X139498777Y-29233731D01*
X139650985Y-29363729D01*
X139650987Y-29363730D01*
X139650988Y-29363731D01*
X139659418Y-29368897D01*
X139871558Y-29498897D01*
X139956057Y-29533897D01*
X140110560Y-29597895D01*
X140362105Y-29658285D01*
X140620000Y-29678582D01*
X140877895Y-29658285D01*
X141129440Y-29597895D01*
X141368441Y-29498897D01*
X141589012Y-29363731D01*
X141785724Y-29195724D01*
X141795708Y-29184033D01*
X141854215Y-29145840D01*
X141924083Y-29145340D01*
X141983129Y-29182693D01*
X141984286Y-29184027D01*
X141994276Y-29195724D01*
X142085609Y-29273729D01*
X142190985Y-29363729D01*
X142190987Y-29363730D01*
X142190988Y-29363731D01*
X142199418Y-29368897D01*
X142411558Y-29498897D01*
X142496057Y-29533897D01*
X142650560Y-29597895D01*
X142902105Y-29658285D01*
X143160000Y-29678582D01*
X143417895Y-29658285D01*
X143669440Y-29597895D01*
X143908441Y-29498897D01*
X144129012Y-29363731D01*
X144325724Y-29195724D01*
X144335708Y-29184033D01*
X144394215Y-29145840D01*
X144464083Y-29145340D01*
X144523129Y-29182693D01*
X144524286Y-29184027D01*
X144534276Y-29195724D01*
X144625609Y-29273729D01*
X144730985Y-29363729D01*
X144730987Y-29363730D01*
X144730988Y-29363731D01*
X144739418Y-29368897D01*
X144951558Y-29498897D01*
X145036057Y-29533897D01*
X145190560Y-29597895D01*
X145442105Y-29658285D01*
X145700000Y-29678582D01*
X145957895Y-29658285D01*
X146209440Y-29597895D01*
X146448441Y-29498897D01*
X146669012Y-29363731D01*
X146865724Y-29195724D01*
X147033731Y-28999012D01*
X147168897Y-28778441D01*
X147267895Y-28539440D01*
X147328285Y-28287895D01*
X147348582Y-28030000D01*
X147328285Y-27772105D01*
X147267895Y-27520560D01*
X147168897Y-27281559D01*
X147168893Y-27281553D01*
X147168254Y-27280297D01*
X147168153Y-27279764D01*
X147167033Y-27277058D01*
X147167601Y-27276822D01*
X147155357Y-27211628D01*
X147181632Y-27146887D01*
X147238738Y-27106629D01*
X147278738Y-27100000D01*
X154927745Y-27100000D01*
X154994784Y-27119685D01*
X155003902Y-27126142D01*
X155176491Y-27260474D01*
X155395190Y-27378828D01*
X155630386Y-27459571D01*
X155875665Y-27500500D01*
X156124335Y-27500500D01*
X156369614Y-27459571D01*
X156604810Y-27378828D01*
X156823509Y-27260474D01*
X156996093Y-27126145D01*
X157061087Y-27100504D01*
X157072255Y-27100000D01*
X161300000Y-27100000D01*
X161300000Y-27200000D01*
X168800000Y-27200000D01*
X168900018Y-27100000D01*
X168921218Y-27151189D01*
X168939675Y-27172489D01*
X168949619Y-27241647D01*
X168941442Y-27271453D01*
X168892107Y-27390557D01*
X168892103Y-27390569D01*
X168831716Y-27642101D01*
X168811419Y-27900000D01*
X168831716Y-28157898D01*
X168892103Y-28409430D01*
X168892105Y-28409436D01*
X168892106Y-28409440D01*
X168906604Y-28444441D01*
X168991103Y-28648441D01*
X169126268Y-28869009D01*
X169126271Y-28869014D01*
X169197740Y-28952693D01*
X169294277Y-29065724D01*
X169417416Y-29170894D01*
X169490986Y-29233729D01*
X169490988Y-29233730D01*
X169490989Y-29233731D01*
X169521906Y-29252677D01*
X169711559Y-29368897D01*
X169796058Y-29403897D01*
X169950561Y-29467895D01*
X170202106Y-29528285D01*
X170460001Y-29548582D01*
X170717896Y-29528285D01*
X170969441Y-29467895D01*
X171208442Y-29368897D01*
X171429013Y-29233731D01*
X171625725Y-29065724D01*
X171635708Y-29054034D01*
X171694210Y-29015841D01*
X171764078Y-29015339D01*
X171823126Y-29052689D01*
X171824250Y-29053986D01*
X171834276Y-29065724D01*
X171943929Y-29159376D01*
X172030985Y-29233729D01*
X172030987Y-29233730D01*
X172030988Y-29233731D01*
X172061905Y-29252677D01*
X172251558Y-29368897D01*
X172336057Y-29403897D01*
X172490560Y-29467895D01*
X172742105Y-29528285D01*
X173000000Y-29548582D01*
X173257895Y-29528285D01*
X173509440Y-29467895D01*
X173748441Y-29368897D01*
X173969012Y-29233731D01*
X174165724Y-29065724D01*
X174175708Y-29054033D01*
X174234215Y-29015840D01*
X174304083Y-29015340D01*
X174363129Y-29052693D01*
X174364286Y-29054027D01*
X174374276Y-29065724D01*
X174497415Y-29170894D01*
X174570985Y-29233729D01*
X174570987Y-29233730D01*
X174570988Y-29233731D01*
X174601905Y-29252677D01*
X174791558Y-29368897D01*
X174876057Y-29403897D01*
X175030560Y-29467895D01*
X175282105Y-29528285D01*
X175540000Y-29548582D01*
X175797895Y-29528285D01*
X176049440Y-29467895D01*
X176288441Y-29368897D01*
X176509012Y-29233731D01*
X176705724Y-29065724D01*
X176715708Y-29054033D01*
X176774215Y-29015840D01*
X176844083Y-29015340D01*
X176903129Y-29052693D01*
X176904286Y-29054027D01*
X176914276Y-29065724D01*
X177037415Y-29170894D01*
X177110985Y-29233729D01*
X177110987Y-29233730D01*
X177110988Y-29233731D01*
X177141905Y-29252677D01*
X177331558Y-29368897D01*
X177416057Y-29403897D01*
X177570560Y-29467895D01*
X177822105Y-29528285D01*
X178080000Y-29548582D01*
X178337895Y-29528285D01*
X178589440Y-29467895D01*
X178828441Y-29368897D01*
X179049012Y-29233731D01*
X179245724Y-29065724D01*
X179413731Y-28869012D01*
X179548897Y-28648441D01*
X179647895Y-28409440D01*
X179708285Y-28157895D01*
X179728582Y-27900000D01*
X179708285Y-27642105D01*
X179647895Y-27390560D01*
X179598559Y-27271453D01*
X179591090Y-27201983D01*
X179622365Y-27139504D01*
X179682454Y-27103852D01*
X179713120Y-27100000D01*
X198927745Y-27100000D01*
X198994784Y-27119685D01*
X199003902Y-27126142D01*
X199176491Y-27260474D01*
X199395190Y-27378828D01*
X199630386Y-27459571D01*
X199875665Y-27500500D01*
X200124335Y-27500500D01*
X200369614Y-27459571D01*
X200604810Y-27378828D01*
X200823509Y-27260474D01*
X200996093Y-27126145D01*
X201061087Y-27100504D01*
X201072255Y-27100000D01*
X204500000Y-27100000D01*
X205563681Y-26036319D01*
X205625004Y-26002834D01*
X205651362Y-26000000D01*
X206248638Y-26000000D01*
X206315677Y-26019685D01*
G37*
%TD.AperFunction*%
%TD*%
%TA.AperFunction,Conductor*%
%TO.N,GND*%
G36*
X173043039Y-22719685D02*
G01*
X173088794Y-22772489D01*
X173100000Y-22824000D01*
X173100000Y-22849417D01*
X173080315Y-22916456D01*
X173063673Y-22937106D01*
X171741603Y-24258930D01*
X171741601Y-24258936D01*
X170944394Y-25055996D01*
X170917313Y-25009091D01*
X170810909Y-24902687D01*
X170680591Y-24827447D01*
X170647788Y-24818657D01*
X171434679Y-24031767D01*
X171434679Y-24031766D01*
X171428719Y-24026676D01*
X171428714Y-24026673D01*
X171208213Y-23891549D01*
X170969285Y-23792582D01*
X170717820Y-23732211D01*
X170460000Y-23711920D01*
X170202179Y-23732211D01*
X169950714Y-23792582D01*
X169711786Y-23891549D01*
X169491289Y-24026670D01*
X169491273Y-24026682D01*
X169485320Y-24031766D01*
X170272211Y-24818657D01*
X170239409Y-24827447D01*
X170109091Y-24902687D01*
X170002687Y-25009091D01*
X169927447Y-25139409D01*
X169918657Y-25172210D01*
X169131766Y-24385320D01*
X169126682Y-24391273D01*
X169126670Y-24391289D01*
X168991549Y-24611786D01*
X168892582Y-24850714D01*
X168832211Y-25102179D01*
X168811920Y-25360000D01*
X168832211Y-25617820D01*
X168892582Y-25869285D01*
X168991549Y-26108213D01*
X169126673Y-26328714D01*
X169126676Y-26328719D01*
X169131767Y-26334679D01*
X169918657Y-25547789D01*
X169927447Y-25580591D01*
X170002687Y-25710909D01*
X170109091Y-25817313D01*
X170155905Y-25844341D01*
X169357986Y-26642115D01*
X169357982Y-26642116D01*
X168900017Y-27099999D01*
X168900017Y-27100000D01*
X168800000Y-27200000D01*
X161300000Y-27200000D01*
X161300000Y-24451362D01*
X161319685Y-24384323D01*
X161336319Y-24363681D01*
X162963681Y-22736319D01*
X163025004Y-22702834D01*
X163051362Y-22700000D01*
X172976000Y-22700000D01*
X173043039Y-22719685D01*
G37*
%TD.AperFunction*%
%TD*%
%TA.AperFunction,Conductor*%
%TO.N,GND*%
G36*
X107943039Y-22719685D02*
G01*
X107988794Y-22772489D01*
X108000000Y-22824000D01*
X108000000Y-22849417D01*
X107980315Y-22916456D01*
X107963673Y-22937106D01*
X106880145Y-24020434D01*
X106873004Y-24027035D01*
X106794275Y-24094276D01*
X106727220Y-24172787D01*
X106720586Y-24179962D01*
X106703557Y-24196980D01*
X106703552Y-24196997D01*
X105919040Y-24981364D01*
X105877313Y-24909091D01*
X105770909Y-24802687D01*
X105640591Y-24727447D01*
X105607788Y-24718657D01*
X106394679Y-23931767D01*
X106394679Y-23931766D01*
X106388719Y-23926676D01*
X106388714Y-23926673D01*
X106168213Y-23791549D01*
X105929285Y-23692582D01*
X105677820Y-23632211D01*
X105420000Y-23611920D01*
X105162179Y-23632211D01*
X104910714Y-23692582D01*
X104671786Y-23791549D01*
X104451289Y-23926670D01*
X104451273Y-23926682D01*
X104445320Y-23931766D01*
X105232211Y-24718657D01*
X105199409Y-24727447D01*
X105069091Y-24802687D01*
X104962687Y-24909091D01*
X104887447Y-25039409D01*
X104878657Y-25072210D01*
X104091766Y-24285320D01*
X104086682Y-24291273D01*
X104086670Y-24291289D01*
X103951549Y-24511786D01*
X103852582Y-24750714D01*
X103792211Y-25002179D01*
X103771920Y-25260000D01*
X103792211Y-25517820D01*
X103852582Y-25769285D01*
X103951549Y-26008213D01*
X104086673Y-26228714D01*
X104086676Y-26228719D01*
X104091767Y-26234679D01*
X104878657Y-25447789D01*
X104887447Y-25480591D01*
X104962687Y-25610909D01*
X105069091Y-25717313D01*
X105141274Y-25758988D01*
X104362872Y-26537248D01*
X104362856Y-26537256D01*
X104336955Y-26563158D01*
X104329808Y-26569765D01*
X104254275Y-26634277D01*
X104254274Y-26634278D01*
X104189933Y-26709613D01*
X104183316Y-26716771D01*
X103800018Y-27099999D01*
X103700000Y-27200000D01*
X96200000Y-27200000D01*
X96200000Y-24451362D01*
X96219685Y-24384323D01*
X96236319Y-24363681D01*
X97863681Y-22736319D01*
X97925004Y-22702834D01*
X97951362Y-22700000D01*
X107876000Y-22700000D01*
X107943039Y-22719685D01*
G37*
%TD.AperFunction*%
%TD*%
%TA.AperFunction,Conductor*%
%TO.N,GND*%
G36*
X140743039Y-22719685D02*
G01*
X140788794Y-22772489D01*
X140800000Y-22824000D01*
X140800000Y-22849417D01*
X140780315Y-22916456D01*
X140763673Y-22937106D01*
X139337440Y-24363074D01*
X139337439Y-24363078D01*
X138546086Y-25154286D01*
X138537313Y-25139091D01*
X138430909Y-25032687D01*
X138300591Y-24957447D01*
X138267788Y-24948657D01*
X139054679Y-24161767D01*
X139054679Y-24161766D01*
X139048719Y-24156676D01*
X139048714Y-24156673D01*
X138828213Y-24021549D01*
X138589285Y-23922582D01*
X138337820Y-23862211D01*
X138080000Y-23841920D01*
X137822179Y-23862211D01*
X137570714Y-23922582D01*
X137331786Y-24021549D01*
X137111289Y-24156670D01*
X137111273Y-24156682D01*
X137105320Y-24161766D01*
X137892211Y-24948657D01*
X137859409Y-24957447D01*
X137729091Y-25032687D01*
X137622687Y-25139091D01*
X137547447Y-25269409D01*
X137538657Y-25302210D01*
X136751766Y-24515320D01*
X136746682Y-24521273D01*
X136746670Y-24521289D01*
X136611549Y-24741786D01*
X136512582Y-24980714D01*
X136452211Y-25232179D01*
X136431920Y-25490000D01*
X136452211Y-25747820D01*
X136512582Y-25999285D01*
X136611549Y-26238213D01*
X136746673Y-26458714D01*
X136746676Y-26458719D01*
X136751767Y-26464679D01*
X137538657Y-25677788D01*
X137547447Y-25710591D01*
X137622687Y-25840909D01*
X137729091Y-25947313D01*
X137744193Y-25956032D01*
X136952860Y-26747222D01*
X136952858Y-26747222D01*
X136600017Y-27100000D01*
X136500000Y-27200000D01*
X129000000Y-27200000D01*
X129000000Y-24451362D01*
X129019685Y-24384323D01*
X129036319Y-24363681D01*
X130663681Y-22736319D01*
X130725004Y-22702834D01*
X130751362Y-22700000D01*
X140676000Y-22700000D01*
X140743039Y-22719685D01*
G37*
%TD.AperFunction*%
%TD*%
M02*
