M48
; DRILL file {KiCad 8.0.2-1} date 2024-07-06T17:14:07-0400
; FORMAT={-:-/ absolute / inch / decimal}
; #@! TF.CreationDate,2024-07-06T17:14:07-04:00
; #@! TF.GenerationSoftware,Kicad,Pcbnew,8.0.2-1
; #@! TF.FileFunction,Plated,1,4,PTH
FMAT,2
INCH
; #@! TA.AperFunction,Plated,PTH,ViaDrill
T1C0.0118
; #@! TA.AperFunction,Plated,PTH,ComponentDrill
T2C0.0300
; #@! TA.AperFunction,Plated,PTH,ComponentDrill
T3C0.0315
; #@! TA.AperFunction,Plated,PTH,ComponentDrill
T4C0.0433
; #@! TA.AperFunction,Plated,PTH,ComponentDrill
T5C0.0450
%
G90
G05
T1
X2.5394Y-1.3031
X2.5433Y-1.4803
X2.5866Y-1.3031
X2.5906Y-1.6386
X2.6339Y-1.4055
X2.6339Y-1.4803
X2.6378Y-1.3031
X2.8465Y-1.5157
X2.8504Y-1.2992
X2.9016Y-1.3031
X2.9055Y-1.6425
X2.9488Y-1.2992
X2.9528Y-1.4055
X2.9528Y-1.4803
X3.1614Y-1.5157
X3.1654Y-1.3031
X3.2165Y-1.3031
X3.2205Y-1.6425
X3.2638Y-1.4803
X3.2677Y-1.3031
X3.2677Y-1.4055
X3.4764Y-1.5157
X3.4843Y-1.3031
X3.5354Y-1.3031
X3.5354Y-1.6386
X3.5787Y-1.4055
X3.5787Y-1.4803
X3.5866Y-1.3031
X3.689Y-3.1575
X3.7165Y-2.0276
X3.7323Y-1.9882
X3.7717Y-2.0276
X3.8031Y-1.5197
X3.815Y-1.3031
X3.8622Y-1.3031
X3.8624Y-2.0709
X3.8661Y-1.6319
X3.9055Y-1.4055
X3.9126Y-2.0709
X3.9134Y-1.4803
X3.9173Y-1.3031
X3.9627Y-2.0709
X4.0128Y-2.0709
X4.0629Y-2.0709
X4.113Y-2.0709
X4.122Y-1.5197
X4.126Y-1.2953
X4.1772Y-1.2992
X4.1811Y-1.6358
X4.1913Y-2.074
X4.2283Y-1.2992
X4.2283Y-1.4055
X4.2283Y-1.4803
X4.4409Y-1.5157
X4.4488Y-1.2953
X4.4961Y-1.6358
X4.4992Y-1.2945
X4.5433Y-1.4055
X4.5433Y-1.4803
X4.5512Y-1.2953
X4.752Y-1.5157
X4.7598Y-1.3071
X4.811Y-1.3031
X4.811Y-1.6319
X4.8543Y-1.4055
X4.8543Y-1.4803
X4.8622Y-1.3031
X4.9307Y-2.2165
X4.9488Y-2.1496
X5.0866Y-1.5236
X5.0945Y-1.3083
X5.1441Y-1.6394
X5.1457Y-1.3083
X5.189Y-1.4106
X5.189Y-1.4854
X5.1969Y-1.3071
X5.4055Y-1.3043
X5.4055Y-1.5197
X5.4567Y-1.3043
X5.4591Y-1.6433
X5.5039Y-1.4106
X5.5039Y-1.4854
X5.5079Y-1.3071
X5.7165Y-1.5236
X5.7244Y-1.3071
X5.7717Y-1.3043
X5.774Y-1.6433
X5.8189Y-1.4106
X5.8189Y-1.4854
X5.8228Y-1.3071
X6.0315Y-1.5197
X6.0394Y-1.3071
X6.0866Y-1.3083
X6.089Y-1.6394
X6.1339Y-1.4106
X6.1378Y-1.311
X6.1378Y-1.4854
X6.248Y-3.0984
X6.3189Y-2.9646
X6.3661Y-1.5197
X6.3732Y-1.3031
X6.4173Y-1.6772
X6.4205Y-1.3071
X6.4567Y-2.0748
X6.4677Y-1.4055
X6.4677Y-1.4803
X6.4724Y-1.3071
X6.5079Y-2.9685
X6.6811Y-1.5157
X6.6843Y-1.3031
X6.689Y-2.9724
X6.7323Y-1.6811
X6.7354Y-1.2992
X6.7827Y-1.4055
X6.7827Y-1.4803
X6.7874Y-1.2992
X6.8701Y-2.9685
X6.9961Y-1.5157
X7.0031Y-1.3031
X7.0197Y-2.4488
X7.0472Y-1.6811
X7.0504Y-1.3031
X7.0551Y-2.9685
X7.0709Y-2.378
X7.0709Y-2.7441
X7.0976Y-1.4055
X7.0976Y-1.4803
X7.1063Y-1.3031
X7.1693Y-2.378
X7.1693Y-2.7441
X7.2362Y-2.9724
X7.2717Y-2.378
X7.2717Y-2.7441
X7.311Y-1.5157
X7.3181Y-1.3031
X7.3622Y-1.6772
X7.3693Y-1.3031
X7.3701Y-2.378
X7.3701Y-2.7441
X7.4126Y-1.4055
X7.4126Y-1.4803
X7.4134Y-2.9685
X7.4173Y-1.3071
X7.4213Y-2.7402
X7.4724Y-2.378
X7.5984Y-2.2638
X7.5984Y-2.3465
X7.5984Y-2.3898
X7.599Y-2.3025
X7.7165Y-3.0197
X7.748Y-1.685
X7.7677Y-2.3465
X7.7992Y-1.7323
X7.815Y-3.0787
X7.8543Y-1.7756
X7.9252Y-1.8071
T2
X8.1323Y-1.1016
X8.1323Y-1.2016
X8.1323Y-1.3016
X8.1323Y-1.4016
X8.1323Y-1.5016
X8.1323Y-1.6016
X8.1323Y-1.7016
X8.1323Y-1.8016
X8.1323Y-1.9016
X8.1323Y-2.0016
X8.1323Y-2.1016
X8.1323Y-2.2016
X8.1323Y-2.3016
X8.1323Y-2.4016
X8.1323Y-2.5016
X8.1323Y-2.6016
X8.1323Y-2.7016
X8.2323Y-1.1016
X8.2323Y-1.2016
X8.2323Y-1.3016
X8.2323Y-1.4016
X8.2323Y-1.5016
X8.2323Y-1.6016
X8.2323Y-1.7016
X8.2323Y-1.8016
X8.2323Y-1.9016
X8.2323Y-2.0016
X8.2323Y-2.1016
X8.2323Y-2.2016
X8.2323Y-2.3016
X8.2323Y-2.4016
X8.2323Y-2.5016
X8.2323Y-2.6016
X8.2323Y-2.7016
T3
X3.3594Y-2.6634
X3.3594Y-2.7634
X3.8413Y-2.5094
X3.8413Y-2.5881
X3.8413Y-2.6669
X3.9201Y-2.5094
X3.9201Y-2.5881
X3.9201Y-2.6669
T4
X3.3307Y-2.4134
X3.3307Y-3.0134
X3.4307Y-2.4134
X3.4307Y-3.0134
X3.4307Y-2.5134
X3.5307Y-2.4134
X3.5307Y-3.0134
X3.5787Y-2.8933
X3.6307Y-2.4134
X3.6307Y-3.0134
X3.6787Y-2.8933
X3.7307Y-2.4134
X3.7307Y-3.0134
X3.7787Y-2.8933
X3.8307Y-2.4134
X3.8307Y-3.0134
X3.8787Y-2.8933
X3.9307Y-2.4134
X3.9307Y-3.0134
X3.9787Y-2.8933
X4.0307Y-2.4134
X4.0307Y-3.0134
X4.1307Y-2.4134
X4.1307Y-3.0134
X4.2307Y-2.4134
X4.2307Y-3.0134
X4.3307Y-2.4134
X4.3307Y-3.0134
X4.4307Y-2.4134
X4.4307Y-3.0134
X4.5307Y-2.4134
X4.5307Y-3.0134
X4.6307Y-2.4134
X4.6307Y-3.0134
X4.7307Y-2.4134
X4.7307Y-3.0134
X4.8307Y-2.4134
X4.8307Y-3.0134
X4.9307Y-2.4134
X4.9307Y-3.0134
X5.0307Y-2.4134
X5.0307Y-3.0134
X5.1307Y-2.4134
X5.1307Y-2.5134
X5.1307Y-2.6134
X5.1307Y-2.7134
X5.1307Y-2.8134
X5.1307Y-2.9134
X5.1307Y-3.0134
X5.2307Y-2.4134
X5.2307Y-3.0134
X5.3307Y-2.4134
X5.3307Y-3.0134
X5.4307Y-2.4134
X5.4307Y-3.0134
X5.5307Y-2.4134
X5.5307Y-3.0134
X5.6307Y-2.4134
X5.6307Y-3.0134
T5
X2.815Y-2.4551
X2.815Y-2.5551
X2.815Y-2.6551
X2.815Y-2.7551
X2.8173Y-2.9362
X2.8173Y-3.0362
X2.8173Y-3.1362
X2.8173Y-3.2362
X2.8787Y-1.0
X2.8787Y-1.1
X2.915Y-2.4551
X2.915Y-2.5551
X2.915Y-2.6551
X2.915Y-2.7551
X2.9173Y-2.9362
X2.9173Y-3.0362
X2.9173Y-3.1362
X2.9173Y-3.2362
X2.9787Y-1.0
X2.9787Y-1.1
X3.0787Y-1.0
X3.0787Y-1.1
X3.1787Y-1.0
X3.1787Y-1.1
X4.1504Y-0.9945
X4.1504Y-1.0945
X4.2504Y-0.9945
X4.2504Y-1.0945
X4.3504Y-0.9945
X4.3504Y-1.0945
X4.4504Y-0.9945
X4.4504Y-1.0945
X5.4362Y-1.0035
X5.4362Y-1.1035
X5.5362Y-1.0035
X5.5362Y-1.1035
X5.6362Y-1.0035
X5.6362Y-1.1035
X5.7362Y-1.0035
X5.7362Y-1.1035
X6.711Y-0.9984
X6.711Y-1.0984
X6.811Y-0.9984
X6.811Y-1.0984
X6.911Y-0.9984
X6.911Y-1.0984
X7.011Y-0.9984
X7.011Y-1.0984
X7.2669Y-3.1417
X7.2669Y-3.2417
X7.3669Y-3.1417
X7.3669Y-3.2417
X7.4669Y-3.1417
X7.4669Y-3.2417
X7.5669Y-3.1417
X7.5669Y-3.2417
M30
