%TF.GenerationSoftware,KiCad,Pcbnew,8.0.3-1.fc40*%
%TF.CreationDate,2024-07-04T16:01:23-04:00*%
%TF.ProjectId,boards_v3,626f6172-6473-45f7-9633-2e6b69636164,rev?*%
%TF.SameCoordinates,Original*%
%TF.FileFunction,Copper,L4,Bot*%
%TF.FilePolarity,Positive*%
%FSLAX46Y46*%
G04 Gerber Fmt 4.6, Leading zero omitted, Abs format (unit mm)*
G04 Created by KiCad (PCBNEW 8.0.3-1.fc40) date 2024-07-04 16:01:23*
%MOMM*%
%LPD*%
G01*
G04 APERTURE LIST*
G04 Aperture macros list*
%AMFreePoly0*
4,1,19,0.000000,0.744911,0.071157,0.744911,0.207708,0.704816,0.327430,0.627875,0.420627,0.520320,0.479746,0.390866,0.500000,0.250000,0.500000,-0.250000,0.479746,-0.390866,0.420627,-0.520320,0.327430,-0.627875,0.207708,-0.704816,0.071157,-0.744911,0.000000,-0.744911,0.000000,-0.750000,-0.550000,-0.750000,-0.550000,0.750000,0.000000,0.750000,0.000000,0.744911,0.000000,0.744911,
$1*%
%AMFreePoly1*
4,1,19,0.550000,-0.750000,0.000000,-0.750000,0.000000,-0.744911,-0.071157,-0.744911,-0.207708,-0.704816,-0.327430,-0.627875,-0.420627,-0.520320,-0.479746,-0.390866,-0.500000,-0.250000,-0.500000,0.250000,-0.479746,0.390866,-0.420627,0.520320,-0.327430,0.627875,-0.207708,0.704816,-0.071157,0.744911,0.000000,0.744911,0.000000,0.750000,0.550000,0.750000,0.550000,-0.750000,0.550000,-0.750000,
$1*%
G04 Aperture macros list end*
%TA.AperFunction,SMDPad,CuDef*%
%ADD10FreePoly0,0.000000*%
%TD*%
%TA.AperFunction,SMDPad,CuDef*%
%ADD11R,1.000000X1.500000*%
%TD*%
%TA.AperFunction,SMDPad,CuDef*%
%ADD12FreePoly1,0.000000*%
%TD*%
%TA.AperFunction,ComponentPad*%
%ADD13C,1.600000*%
%TD*%
%TA.AperFunction,ComponentPad*%
%ADD14R,1.600000X1.600000*%
%TD*%
%TA.AperFunction,ComponentPad*%
%ADD15R,1.300000X1.300000*%
%TD*%
%TA.AperFunction,ComponentPad*%
%ADD16C,1.300000*%
%TD*%
%TA.AperFunction,ComponentPad*%
%ADD17C,2.286000*%
%TD*%
%TA.AperFunction,ViaPad*%
%ADD18C,0.600000*%
%TD*%
%TA.AperFunction,Conductor*%
%ADD19C,0.600000*%
%TD*%
%TA.AperFunction,Conductor*%
%ADD20C,0.200000*%
%TD*%
G04 APERTURE END LIST*
D10*
%TO.P,JP12,3,B*%
%TO.N,GND*%
X99500000Y-33100000D03*
D11*
%TO.P,JP12,2,C*%
%TO.N,Net-(J5-Pin_21)*%
X98200000Y-33100000D03*
D12*
%TO.P,JP12,1,A*%
%TO.N,Net-(J3-Pin_5)*%
X96900000Y-33100000D03*
%TD*%
D10*
%TO.P,JP11,3,B*%
%TO.N,GND*%
X107400000Y-32942500D03*
D11*
%TO.P,JP11,2,C*%
%TO.N,Net-(J5-Pin_22)*%
X106100000Y-32942500D03*
D12*
%TO.P,JP11,1,A*%
%TO.N,Net-(J3-Pin_6)*%
X104800000Y-32942500D03*
%TD*%
D10*
%TO.P,JP10,3,B*%
%TO.N,GND*%
X115580000Y-32880000D03*
D11*
%TO.P,JP10,2,C*%
%TO.N,Net-(J5-Pin_23)*%
X114280000Y-32880000D03*
D12*
%TO.P,JP10,1,A*%
%TO.N,Net-(J3-Pin_7)*%
X112980000Y-32880000D03*
%TD*%
D10*
%TO.P,JP9,3,B*%
%TO.N,GND*%
X123500000Y-33142500D03*
D11*
%TO.P,JP9,2,C*%
%TO.N,Net-(J5-Pin_24)*%
X122200000Y-33142500D03*
D12*
%TO.P,JP9,1,A*%
%TO.N,Net-(J3-Pin_8)*%
X120900000Y-33142500D03*
%TD*%
D10*
%TO.P,JP8,3,B*%
%TO.N,GND*%
X132000000Y-33130000D03*
D11*
%TO.P,JP8,2,C*%
%TO.N,Net-(J5-Pin_25)*%
X130700000Y-33130000D03*
D12*
%TO.P,JP8,1,A*%
%TO.N,Net-(J2-Pin_5)*%
X129400000Y-33130000D03*
%TD*%
D10*
%TO.P,JP7,3,B*%
%TO.N,GND*%
X139900000Y-33130000D03*
D11*
%TO.P,JP7,2,C*%
%TO.N,Net-(J5-Pin_26)*%
X138600000Y-33130000D03*
D12*
%TO.P,JP7,1,A*%
%TO.N,Net-(J2-Pin_6)*%
X137300000Y-33130000D03*
%TD*%
D10*
%TO.P,JP6,3,B*%
%TO.N,GND*%
X147900000Y-33130000D03*
D11*
%TO.P,JP6,2,C*%
%TO.N,Net-(J5-Pin_27)*%
X146600000Y-33130000D03*
D12*
%TO.P,JP6,1,A*%
%TO.N,Net-(J2-Pin_7)*%
X145300000Y-33130000D03*
%TD*%
%TO.P,JP5,1,A*%
%TO.N,Net-(J2-Pin_8)*%
X153300000Y-33230000D03*
D11*
%TO.P,JP5,2,C*%
%TO.N,Net-(J5-Pin_28)*%
X154600000Y-33230000D03*
D10*
%TO.P,JP5,3,B*%
%TO.N,GND*%
X155900000Y-33230000D03*
%TD*%
D13*
%TO.P,U1,49,VUSB*%
%TO.N,unconnected-(U1-VUSB-Pad49)*%
X87140001Y-63840000D03*
%TO.P,U1,59,GND*%
%TO.N,unconnected-(U1-GND-Pad59)*%
X101059200Y-73489200D03*
%TO.P,U1,58,GND*%
%TO.N,unconnected-(U1-GND-Pad58)*%
X98519200Y-73489200D03*
%TO.P,U1,57,D+*%
%TO.N,unconnected-(U1-D+-Pad57)*%
X95979200Y-73489200D03*
%TO.P,U1,56,D-*%
%TO.N,unconnected-(U1-D--Pad56)*%
X93439200Y-73489200D03*
D14*
%TO.P,U1,55,5V*%
%TO.N,unconnected-(U1-5V-Pad55)*%
X90899200Y-73489200D03*
D13*
%TO.P,U1,48,VIN*%
%TO.N,+5V*%
X84600000Y-61300000D03*
%TO.P,U1,47,GND*%
%TO.N,GND*%
X87140000Y-61300000D03*
%TO.P,U1,46,3V3*%
%TO.N,unconnected-(U1-3V3-Pad46)*%
X89680000Y-61300000D03*
%TO.P,U1,45,23_A9_CRX1_MCLK1*%
%TO.N,Net-(J5-Pin_26)*%
X92220000Y-61300000D03*
%TO.P,U1,44,22_A8_CTX1*%
%TO.N,Net-(J5-Pin_25)*%
X94760000Y-61300000D03*
%TO.P,U1,43,21_A7_RX5_BCLK1*%
%TO.N,Net-(J5-Pin_24)*%
X97300000Y-61300000D03*
%TO.P,U1,42,20_A6_TX5_LRCLK1*%
%TO.N,Net-(J5-Pin_23)*%
X99840000Y-61300000D03*
%TO.P,U1,41,19_A5_SCL*%
%TO.N,Net-(J5-Pin_22)*%
X102380000Y-61300000D03*
%TO.P,U1,40,18_A4_SDA*%
%TO.N,Net-(J5-Pin_21)*%
X104920000Y-61300000D03*
%TO.P,U1,39,17_A3_TX4_SDA1*%
%TO.N,Net-(J5-Pin_20)*%
X107460000Y-61300000D03*
%TO.P,U1,38,16_A2_RX4_SCL1*%
%TO.N,Net-(J5-Pin_19)*%
X110000000Y-61300000D03*
%TO.P,U1,37,15_A1_RX3_SPDIF_IN*%
%TO.N,Net-(J5-Pin_18)*%
X112540000Y-61300000D03*
%TO.P,U1,36,14_A0_TX3_SPDIF_OUT*%
%TO.N,Net-(J5-Pin_17)*%
X115080000Y-61300000D03*
%TO.P,U1,35,13_SCK_LED*%
%TO.N,unconnected-(U1-13_SCK_LED-Pad35)*%
X117620000Y-61300000D03*
D14*
%TO.P,U1,1,GND*%
%TO.N,unconnected-(U1-GND-Pad1)*%
X84600000Y-76540000D03*
D13*
%TO.P,U1,2,0_RX1_CRX2_CS1*%
%TO.N,unconnected-(U1-0_RX1_CRX2_CS1-Pad2)*%
X87140000Y-76540000D03*
%TO.P,U1,3,1_TX1_CTX2_MISO1*%
%TO.N,unconnected-(U1-1_TX1_CTX2_MISO1-Pad3)*%
X89680000Y-76540000D03*
%TO.P,U1,4,2_OUT2*%
%TO.N,unconnected-(U1-2_OUT2-Pad4)*%
X92220000Y-76540000D03*
%TO.P,U1,5,3_LRCLK2*%
%TO.N,unconnected-(U1-3_LRCLK2-Pad5)*%
X94760000Y-76540000D03*
%TO.P,U1,6,4_BCLK2*%
%TO.N,unconnected-(U1-4_BCLK2-Pad6)*%
X97300000Y-76540000D03*
%TO.P,U1,7,5_IN2*%
%TO.N,Net-(J5-Pin_9)*%
X99840000Y-76540000D03*
%TO.P,U1,8,6_OUT1D*%
%TO.N,Net-(J5-Pin_10)*%
X102380000Y-76540000D03*
%TO.P,U1,9,7_RX2_OUT1A*%
%TO.N,Net-(J5-Pin_11)*%
X104920000Y-76540000D03*
%TO.P,U1,10,8_TX2_IN1*%
%TO.N,Net-(J5-Pin_12)*%
X107460000Y-76540000D03*
%TO.P,U1,11,9_OUT1C*%
%TO.N,Net-(J5-Pin_13)*%
X110000000Y-76540000D03*
%TO.P,U1,12,10_CS_MQSR*%
%TO.N,Net-(J5-Pin_14)*%
X112540000Y-76540000D03*
%TO.P,U1,13,11_MOSI_CTX1*%
%TO.N,Net-(J5-Pin_15)*%
X115080000Y-76540000D03*
%TO.P,U1,34,GND*%
%TO.N,unconnected-(U1-GND-Pad34)*%
X120160000Y-61300000D03*
%TO.P,U1,33,41_A17*%
%TO.N,Net-(J5-Pin_32)*%
X122700000Y-61300000D03*
%TO.P,U1,32,40_A16*%
%TO.N,Net-(J5-Pin_31)*%
X125240000Y-61300000D03*
%TO.P,U1,31,39_MISO1_OUT1A*%
%TO.N,unconnected-(U1-39_MISO1_OUT1A-Pad31)*%
X127780000Y-61300000D03*
%TO.P,U1,30,38_CS1_IN1*%
%TO.N,unconnected-(U1-38_CS1_IN1-Pad30)*%
X130320000Y-61300000D03*
%TO.P,U1,29,37_CS*%
%TO.N,unconnected-(U1-37_CS-Pad29)*%
X132860000Y-61300000D03*
%TO.P,U1,28,36_CS*%
%TO.N,unconnected-(U1-36_CS-Pad28)*%
X135400000Y-61300000D03*
%TO.P,U1,27,35_TX8*%
%TO.N,Net-(J6-Pin_4)*%
X137940000Y-61300000D03*
%TO.P,U1,26,34_RX8*%
%TO.N,Net-(J6-Pin_5)*%
X140480000Y-61300000D03*
%TO.P,U1,25,33_MCLK2*%
%TO.N,unconnected-(U1-33_MCLK2-Pad25)*%
X143020000Y-61300000D03*
%TO.P,U1,24,32_OUT1B*%
%TO.N,unconnected-(U1-32_OUT1B-Pad24)*%
X143020000Y-76540000D03*
%TO.P,U1,23,31_CTX3*%
%TO.N,Net-(J5-Pin_5)*%
X140480000Y-76540000D03*
%TO.P,U1,22,30_CRX3*%
%TO.N,Net-(J5-Pin_6)*%
X137940000Y-76540000D03*
%TO.P,U1,21,29_TX7*%
%TO.N,Net-(J5-Pin_7)*%
X135400000Y-76540000D03*
%TO.P,U1,14,12_MISO_MQSL*%
%TO.N,Net-(J5-Pin_16)*%
X117620000Y-76540000D03*
%TO.P,U1,15,3V3*%
%TO.N,unconnected-(U1-3V3-Pad15)*%
X120160000Y-76540000D03*
%TO.P,U1,16,24_A10_TX6_SCL2*%
%TO.N,Net-(J5-Pin_27)*%
X122700000Y-76540000D03*
%TO.P,U1,20,28_RX7*%
%TO.N,Net-(J5-Pin_8)*%
X132860000Y-76540000D03*
%TO.P,U1,19,27_A13_SCK1*%
%TO.N,Net-(J5-Pin_30)*%
X130320000Y-76540000D03*
%TO.P,U1,18,26_A12_MOSI1*%
%TO.N,Net-(J5-Pin_29)*%
X127780000Y-76540000D03*
%TO.P,U1,17,25_A11_RX6_SDA2*%
%TO.N,Net-(J5-Pin_28)*%
X125240000Y-76540000D03*
D15*
%TO.P,U1,60,R+*%
%TO.N,unconnected-(U1-R+-Pad60)*%
X97569999Y-63738400D03*
D16*
%TO.P,U1,65,R-*%
%TO.N,unconnected-(U1-R--Pad65)*%
X99570000Y-63738400D03*
%TO.P,U1,61,LED*%
%TO.N,unconnected-(U1-LED-Pad61)*%
X97570000Y-65738400D03*
%TO.P,U1,64,GND*%
%TO.N,unconnected-(U1-GND-Pad64)*%
X99570000Y-65738401D03*
%TO.P,U1,63,T+*%
%TO.N,unconnected-(U1-T+-Pad63)*%
X99570000Y-67738400D03*
%TO.P,U1,62,T-*%
%TO.N,unconnected-(U1-T--Pad62)*%
X97570000Y-67738401D03*
D13*
%TO.P,U1,50,VBAT*%
%TO.N,unconnected-(U1-VBAT-Pad50)*%
X130320000Y-73999999D03*
%TO.P,U1,51,3V3*%
%TO.N,unconnected-(U1-3V3-Pad51)*%
X130320000Y-71460000D03*
%TO.P,U1,52,GND*%
%TO.N,unconnected-(U1-GND-Pad52)*%
X130320000Y-68920000D03*
%TO.P,U1,53,PROGRAM*%
%TO.N,unconnected-(U1-PROGRAM-Pad53)*%
X130320000Y-66380000D03*
%TO.P,U1,54,ON_OFF*%
%TO.N,unconnected-(U1-ON_OFF-Pad54)*%
X130320000Y-63840001D03*
D16*
%TO.P,U1,67,D+*%
%TO.N,unconnected-(U1-D+-Pad67)*%
X85329999Y-70190000D03*
%TO.P,U1,66,D-*%
%TO.N,unconnected-(U1-D--Pad66)*%
X85329999Y-67650000D03*
%TD*%
D17*
%TO.P,J6,1,Pin_1*%
%TO.N,+3.3V*%
X184580000Y-82340000D03*
%TO.P,J6,2,Pin_2*%
%TO.N,+5V*%
X187120000Y-82340000D03*
%TO.P,J6,3,Pin_3*%
%TO.N,GND*%
X189660000Y-82340000D03*
%TO.P,J6,4,Pin_4*%
%TO.N,Net-(J6-Pin_4)*%
X192200000Y-82340000D03*
%TO.P,J6,5,Pin_5*%
%TO.N,Net-(J6-Pin_5)*%
X192200000Y-79800000D03*
%TO.P,J6,6,Pin_6*%
%TO.N,GND*%
X189660000Y-79800000D03*
%TO.P,J6,7,Pin_7*%
%TO.N,+5V*%
X187120000Y-79800000D03*
%TO.P,J6,8,Pin_8*%
%TO.N,+3.3V*%
X184580000Y-79800000D03*
%TD*%
%TO.P,J3,8,Pin_8*%
%TO.N,Net-(J3-Pin_8)*%
X113040000Y-27800000D03*
%TO.P,J3,7,Pin_7*%
%TO.N,Net-(J3-Pin_7)*%
X110500000Y-27800000D03*
%TO.P,J3,6,Pin_6*%
%TO.N,Net-(J3-Pin_6)*%
X107960000Y-27800000D03*
%TO.P,J3,5,Pin_5*%
%TO.N,Net-(J3-Pin_5)*%
X105420001Y-27800000D03*
%TO.P,J3,4,Pin_4*%
%TO.N,GND*%
X105420000Y-25260000D03*
%TO.P,J3,3,Pin_3*%
%TO.N,unconnected-(J3-Pin_3-Pad3)*%
X107960000Y-25260000D03*
%TO.P,J3,2,Pin_2*%
%TO.N,unconnected-(J3-Pin_2-Pad2)*%
X110500000Y-25260000D03*
%TO.P,J3,1,Pin_1*%
%TO.N,+3.3V*%
X113040000Y-25260000D03*
%TD*%
%TO.P,J2,8,Pin_8*%
%TO.N,Net-(J2-Pin_8)*%
X145700000Y-28030000D03*
%TO.P,J2,7,Pin_7*%
%TO.N,Net-(J2-Pin_7)*%
X143160000Y-28030000D03*
%TO.P,J2,6,Pin_6*%
%TO.N,Net-(J2-Pin_6)*%
X140620000Y-28030000D03*
%TO.P,J2,5,Pin_5*%
%TO.N,Net-(J2-Pin_5)*%
X138080001Y-28030000D03*
%TO.P,J2,4,Pin_4*%
%TO.N,GND*%
X138080000Y-25490000D03*
%TO.P,J2,3,Pin_3*%
%TO.N,unconnected-(J2-Pin_3-Pad3)*%
X140620000Y-25490000D03*
%TO.P,J2,2,Pin_2*%
%TO.N,unconnected-(J2-Pin_2-Pad2)*%
X143160000Y-25490000D03*
%TO.P,J2,1,Pin_1*%
%TO.N,+3.3V*%
X145700000Y-25490000D03*
%TD*%
D12*
%TO.P,JP13,1,A*%
%TO.N,Net-(J4-Pin_8)*%
X88500000Y-33100000D03*
D11*
%TO.P,JP13,2,C*%
%TO.N,Net-(J5-Pin_20)*%
X89800000Y-33100000D03*
D10*
%TO.P,JP13,3,B*%
%TO.N,GND*%
X91100000Y-33100000D03*
%TD*%
D12*
%TO.P,JP16,1,A*%
%TO.N,Net-(J4-Pin_5)*%
X64400000Y-33100000D03*
D11*
%TO.P,JP16,2,C*%
%TO.N,Net-(J5-Pin_17)*%
X65700000Y-33100000D03*
D10*
%TO.P,JP16,3,B*%
%TO.N,GND*%
X67000000Y-33100000D03*
%TD*%
D17*
%TO.P,J4,1,Pin_1*%
%TO.N,+3.3V*%
X80740000Y-25400000D03*
%TO.P,J4,2,Pin_2*%
%TO.N,unconnected-(J4-Pin_2-Pad2)*%
X78200000Y-25400000D03*
%TO.P,J4,3,Pin_3*%
%TO.N,unconnected-(J4-Pin_3-Pad3)*%
X75660000Y-25400000D03*
%TO.P,J4,4,Pin_4*%
%TO.N,GND*%
X73120000Y-25400000D03*
%TO.P,J4,5,Pin_5*%
%TO.N,Net-(J4-Pin_5)*%
X73120001Y-27940000D03*
%TO.P,J4,6,Pin_6*%
%TO.N,Net-(J4-Pin_6)*%
X75660000Y-27940000D03*
%TO.P,J4,7,Pin_7*%
%TO.N,Net-(J4-Pin_7)*%
X78200000Y-27940000D03*
%TO.P,J4,8,Pin_8*%
%TO.N,Net-(J4-Pin_8)*%
X80740000Y-27940000D03*
%TD*%
D12*
%TO.P,JP15,1,A*%
%TO.N,Net-(J4-Pin_6)*%
X72400000Y-33000000D03*
D11*
%TO.P,JP15,2,C*%
%TO.N,Net-(J5-Pin_18)*%
X73700000Y-33000000D03*
D10*
%TO.P,JP15,3,B*%
%TO.N,GND*%
X75000000Y-33000000D03*
%TD*%
D12*
%TO.P,JP14,1,A*%
%TO.N,Net-(J4-Pin_7)*%
X80400000Y-33100000D03*
D11*
%TO.P,JP14,2,C*%
%TO.N,Net-(J5-Pin_19)*%
X81700000Y-33100000D03*
D10*
%TO.P,JP14,3,B*%
%TO.N,GND*%
X83000000Y-33100000D03*
%TD*%
%TO.P,JP1,3,B*%
%TO.N,GND*%
X188480000Y-33100000D03*
D11*
%TO.P,JP1,2,C*%
%TO.N,Net-(J5-Pin_32)*%
X187180000Y-33100000D03*
D12*
%TO.P,JP1,1,A*%
%TO.N,Net-(J1-Pin_8)*%
X185880000Y-33100000D03*
%TD*%
%TO.P,JP3,1,A*%
%TO.N,Net-(J1-Pin_6)*%
X169780000Y-33000000D03*
D11*
%TO.P,JP3,2,C*%
%TO.N,Net-(J5-Pin_30)*%
X171080000Y-33000000D03*
D10*
%TO.P,JP3,3,B*%
%TO.N,GND*%
X172380000Y-33000000D03*
%TD*%
D12*
%TO.P,JP2,1,A*%
%TO.N,Net-(J1-Pin_7)*%
X177880000Y-33042500D03*
D11*
%TO.P,JP2,2,C*%
%TO.N,Net-(J5-Pin_31)*%
X179180000Y-33042500D03*
D10*
%TO.P,JP2,3,B*%
%TO.N,GND*%
X180480000Y-33042500D03*
%TD*%
D17*
%TO.P,J1,1,Pin_1*%
%TO.N,+3.3V*%
X178080000Y-25360000D03*
%TO.P,J1,2,Pin_2*%
%TO.N,unconnected-(J1-Pin_2-Pad2)*%
X175540000Y-25360000D03*
%TO.P,J1,3,Pin_3*%
%TO.N,unconnected-(J1-Pin_3-Pad3)*%
X173000000Y-25360000D03*
%TO.P,J1,4,Pin_4*%
%TO.N,GND*%
X170460000Y-25360000D03*
%TO.P,J1,5,Pin_5*%
%TO.N,Net-(J1-Pin_5)*%
X170460001Y-27900000D03*
%TO.P,J1,6,Pin_6*%
%TO.N,Net-(J1-Pin_6)*%
X173000000Y-27900000D03*
%TO.P,J1,7,Pin_7*%
%TO.N,Net-(J1-Pin_7)*%
X175540000Y-27900000D03*
%TO.P,J1,8,Pin_8*%
%TO.N,Net-(J1-Pin_8)*%
X178080000Y-27900000D03*
%TD*%
D12*
%TO.P,JP4,1,A*%
%TO.N,Net-(J1-Pin_5)*%
X161880000Y-33100000D03*
D11*
%TO.P,JP4,2,C*%
%TO.N,Net-(J5-Pin_29)*%
X163180000Y-33100000D03*
D10*
%TO.P,JP4,3,B*%
%TO.N,GND*%
X164480000Y-33100000D03*
%TD*%
D18*
%TO.N,Net-(J2-Pin_8)*%
X153400000Y-33200000D03*
%TO.N,Net-(J2-Pin_7)*%
X145400000Y-33200000D03*
%TO.N,Net-(J5-Pin_8)*%
X203500000Y-71800000D03*
%TO.N,Net-(J5-Pin_7)*%
X202100000Y-72800000D03*
%TO.N,Net-(J5-Pin_6)*%
X200500000Y-73400000D03*
%TO.N,Net-(J5-Pin_5)*%
X198200000Y-73700000D03*
%TO.N,GND*%
X208000000Y-88700000D03*
X208000000Y-82700000D03*
%TO.N,Net-(J5-Pin_26)*%
X92100000Y-55200000D03*
%TO.N,Net-(J5-Pin_25)*%
X94700000Y-55600000D03*
%TO.N,Net-(J5-Pin_24)*%
X97300000Y-56000000D03*
%TO.N,Net-(J5-Pin_23)*%
X99800000Y-56400000D03*
%TO.N,Net-(J5-Pin_22)*%
X102300000Y-56800000D03*
%TO.N,Net-(J5-Pin_30)*%
X207900000Y-30700000D03*
%TO.N,Net-(J5-Pin_29)*%
X207900000Y-32700000D03*
%TO.N,Net-(J5-Pin_31)*%
X130600000Y-53300000D03*
%TO.N,Net-(J5-Pin_21)*%
X104900000Y-57200000D03*
%TO.N,Net-(J5-Pin_20)*%
X107400000Y-57600000D03*
%TO.N,Net-(J5-Pin_19)*%
X109900000Y-58000000D03*
%TO.N,Net-(J5-Pin_18)*%
X112400000Y-58400000D03*
%TO.N,Net-(J5-Pin_17)*%
X115100000Y-59000000D03*
%TO.N,Net-(U10-~E)*%
X188500000Y-69600000D03*
%TO.N,GND*%
X92600000Y-40220000D03*
X84700000Y-40120000D03*
X76500000Y-40320000D03*
X68700000Y-40320000D03*
X157560000Y-40340000D03*
X149560000Y-40340000D03*
X141460000Y-40340000D03*
X133560000Y-40340000D03*
X125000000Y-40150000D03*
X117000000Y-40150000D03*
X108900000Y-40350000D03*
X101100000Y-40350000D03*
%TO.N,Net-(J5-Pin_28)*%
X207900000Y-34700000D03*
%TO.N,Net-(J5-Pin_27)*%
X208100000Y-36600000D03*
%TO.N,+3.3V*%
X208000000Y-84700000D03*
%TO.N,GND*%
X189800000Y-60400000D03*
X155900000Y-75400000D03*
X160500000Y-75300000D03*
X165300000Y-75400000D03*
X169900000Y-75500000D03*
X174500000Y-75400000D03*
X188400000Y-75400000D03*
X183800000Y-75500000D03*
X179200000Y-75400000D03*
X178300000Y-62200000D03*
%TO.N,Net-(J5-Pin_13)*%
X179600000Y-60400000D03*
%TO.N,Net-(J5-Pin_14)*%
X182100000Y-60400000D03*
%TO.N,Net-(J5-Pin_15)*%
X184700000Y-60400000D03*
%TO.N,Net-(J5-Pin_16)*%
X187200000Y-60400000D03*
%TO.N,Net-(J5-Pin_12)*%
X179600000Y-69700000D03*
%TO.N,Net-(J5-Pin_11)*%
X182100000Y-69700000D03*
%TO.N,Net-(J5-Pin_10)*%
X184700000Y-69700000D03*
%TO.N,Net-(J5-Pin_9)*%
X187200000Y-69700000D03*
%TO.N,Net-(J5-Pin_21)*%
X98200000Y-41450000D03*
%TO.N,Net-(J5-Pin_22)*%
X106200000Y-41550000D03*
%TO.N,Net-(J5-Pin_23)*%
X114200000Y-41550000D03*
%TO.N,Net-(J5-Pin_24)*%
X122200000Y-41450000D03*
%TO.N,Net-(J5-Pin_25)*%
X130660000Y-41640000D03*
%TO.N,Net-(J5-Pin_26)*%
X138660000Y-41740000D03*
%TO.N,Net-(J5-Pin_27)*%
X146660000Y-41740000D03*
%TO.N,Net-(J5-Pin_28)*%
X154660000Y-41640000D03*
%TO.N,Net-(J5-Pin_29)*%
X163000000Y-42600000D03*
%TO.N,Net-(J5-Pin_30)*%
X171000000Y-42700000D03*
%TO.N,Net-(J5-Pin_31)*%
X179000000Y-42700000D03*
%TO.N,Net-(J5-Pin_32)*%
X187000000Y-42600000D03*
%TO.N,Net-(U10-~E)*%
X99400000Y-37600000D03*
X107400000Y-37600000D03*
X115400000Y-37600000D03*
X123300000Y-37600000D03*
%TO.N,Net-(J3-Pin_5)*%
X96900000Y-33100000D03*
%TO.N,Net-(J3-Pin_6)*%
X104800000Y-32900000D03*
%TO.N,Net-(J3-Pin_7)*%
X113000000Y-32900000D03*
%TO.N,Net-(J3-Pin_8)*%
X120900000Y-33200000D03*
%TO.N,Net-(J5-Pin_24)*%
X122200000Y-33100000D03*
%TO.N,Net-(J5-Pin_23)*%
X114280000Y-32880000D03*
%TO.N,Net-(J5-Pin_22)*%
X106100000Y-33000000D03*
%TO.N,Net-(J5-Pin_21)*%
X98100000Y-33100000D03*
%TO.N,+3.3V*%
X131800000Y-35830000D03*
%TO.N,Net-(U10-~E)*%
X131800000Y-37730000D03*
X139800000Y-37730000D03*
%TO.N,+3.3V*%
X139800000Y-35830000D03*
X147800000Y-35830000D03*
%TO.N,Net-(U10-~E)*%
X147800000Y-37730000D03*
X155900000Y-37730000D03*
%TO.N,+3.3V*%
X155800000Y-35830000D03*
%TO.N,Net-(J5-Pin_28)*%
X154600000Y-33230000D03*
%TO.N,Net-(J5-Pin_27)*%
X146600000Y-33130000D03*
%TO.N,Net-(J5-Pin_26)*%
X138600000Y-33130000D03*
%TO.N,Net-(J5-Pin_25)*%
X130700000Y-33230000D03*
%TO.N,Net-(J2-Pin_6)*%
X137300000Y-33130000D03*
%TO.N,Net-(J2-Pin_5)*%
X129400000Y-33230000D03*
%TO.N,Net-(U10-~E)*%
X75000000Y-37600000D03*
%TO.N,Net-(J4-Pin_6)*%
X72400000Y-33000000D03*
%TO.N,Net-(U10-~E)*%
X66900000Y-37600000D03*
%TO.N,+3.3V*%
X90900000Y-35700000D03*
%TO.N,Net-(J5-Pin_17)*%
X65700000Y-33100000D03*
X65800000Y-41620000D03*
%TO.N,Net-(J5-Pin_18)*%
X73800000Y-41720000D03*
X73700000Y-33100000D03*
%TO.N,Net-(J5-Pin_20)*%
X89800000Y-33100000D03*
%TO.N,+3.3V*%
X83000000Y-35700000D03*
%TO.N,Net-(J5-Pin_19)*%
X81700000Y-33100000D03*
X81800000Y-41720000D03*
%TO.N,Net-(J4-Pin_8)*%
X88500000Y-33100000D03*
%TO.N,+3.3V*%
X75000000Y-35700000D03*
%TO.N,Net-(U10-~E)*%
X90900000Y-37600000D03*
%TO.N,Net-(J4-Pin_5)*%
X64500000Y-33100000D03*
%TO.N,Net-(J5-Pin_20)*%
X89800000Y-41620000D03*
%TO.N,Net-(U10-~E)*%
X82900000Y-37600000D03*
%TO.N,+3.3V*%
X66900000Y-35700000D03*
%TO.N,Net-(J4-Pin_7)*%
X80400000Y-33100000D03*
%TO.N,Net-(U10-~E)*%
X172280000Y-37600000D03*
%TO.N,GND*%
X173980000Y-40300000D03*
%TO.N,+3.3V*%
X164280000Y-35700000D03*
%TO.N,Net-(J5-Pin_31)*%
X179080000Y-33100000D03*
%TO.N,Net-(J1-Pin_5)*%
X161880000Y-33100000D03*
%TO.N,Net-(J1-Pin_8)*%
X185880000Y-33100000D03*
%TO.N,Net-(J5-Pin_29)*%
X163080000Y-33200000D03*
%TO.N,Net-(U10-~E)*%
X164280000Y-37600000D03*
%TO.N,Net-(J5-Pin_30)*%
X171080000Y-33000000D03*
%TO.N,Net-(J1-Pin_6)*%
X169780000Y-33100000D03*
%TO.N,GND*%
X182080000Y-40300000D03*
X166080000Y-40300000D03*
X190080000Y-40300000D03*
%TO.N,+3.3V*%
X172280000Y-35700000D03*
%TO.N,Net-(U10-~E)*%
X180280000Y-37600000D03*
%TO.N,Net-(J1-Pin_7)*%
X177880000Y-33100000D03*
%TO.N,+3.3V*%
X188280000Y-35700000D03*
X180280000Y-35700000D03*
%TO.N,Net-(J5-Pin_32)*%
X187180000Y-33100000D03*
%TO.N,Net-(U10-~E)*%
X188280000Y-37600000D03*
%TO.N,+3.3V*%
X123300000Y-35700000D03*
X115400000Y-35700000D03*
X107400000Y-35700000D03*
X99200000Y-35700000D03*
%TD*%
D19*
%TO.N,GND*%
X206800000Y-82700000D02*
X199500000Y-75400000D01*
X199500000Y-75400000D02*
X188400000Y-75400000D01*
D20*
%TO.N,Net-(J5-Pin_12)*%
X179600000Y-69700000D02*
X179600000Y-71634314D01*
X179600000Y-71634314D02*
X169934314Y-81300000D01*
X169934314Y-81300000D02*
X112220000Y-81300000D01*
X112220000Y-81300000D02*
X107460000Y-76540000D01*
%TO.N,Net-(J5-Pin_9)*%
X187200000Y-69700000D02*
X186200000Y-70700000D01*
X186200000Y-70700000D02*
X182231372Y-70700000D01*
X182231372Y-70700000D02*
X170431372Y-82500000D01*
X170431372Y-82500000D02*
X107774314Y-82500000D01*
X107774314Y-82500000D02*
X105937157Y-80662843D01*
X105937157Y-80662843D02*
X103674314Y-78400000D01*
X103674314Y-78400000D02*
X101700000Y-78400000D01*
X101700000Y-78400000D02*
X99840000Y-76540000D01*
%TO.N,Net-(J5-Pin_10)*%
X184700000Y-69700000D02*
X184100000Y-70300000D01*
X170265686Y-82100000D02*
X107940000Y-82100000D01*
X184100000Y-70300000D02*
X182065686Y-70300000D01*
X107940000Y-82100000D02*
X102380000Y-76540000D01*
X182065686Y-70300000D02*
X170265686Y-82100000D01*
%TO.N,Net-(J5-Pin_11)*%
X182100000Y-69700000D02*
X170100000Y-81700000D01*
X170100000Y-81700000D02*
X110080000Y-81700000D01*
X110080000Y-81700000D02*
X104920000Y-76540000D01*
%TO.N,Net-(J5-Pin_13)*%
X179600000Y-60400000D02*
X175697058Y-60400000D01*
X168227207Y-75132595D02*
X162459802Y-80900000D01*
X175697058Y-60400000D02*
X168227207Y-67869851D01*
X168227207Y-67869851D02*
X168227207Y-75132595D01*
X162459802Y-80900000D02*
X114360000Y-80900000D01*
X114360000Y-80900000D02*
X110000000Y-76540000D01*
%TO.N,Net-(J5-Pin_14)*%
X182100000Y-60400000D02*
X181500000Y-59800000D01*
X181500000Y-59800000D02*
X175731372Y-59800000D01*
X175731372Y-59800000D02*
X167827207Y-67704165D01*
X116500000Y-80500000D02*
X112540000Y-76540000D01*
X167827207Y-67704165D02*
X167827207Y-74966909D01*
X167827207Y-74966909D02*
X162294116Y-80500000D01*
X162294116Y-80500000D02*
X116500000Y-80500000D01*
%TO.N,Net-(J5-Pin_15)*%
X115080000Y-76540000D02*
X118640000Y-80100000D01*
X118640000Y-80100000D02*
X162128430Y-80100000D01*
X162128430Y-80100000D02*
X167427207Y-74801223D01*
X167427207Y-74801223D02*
X167427207Y-67538479D01*
X175565686Y-59400000D02*
X183700000Y-59400000D01*
X167427207Y-67538479D02*
X175565686Y-59400000D01*
X183700000Y-59400000D02*
X184700000Y-60400000D01*
%TO.N,Net-(J5-Pin_16)*%
X117620000Y-76540000D02*
X117620000Y-78300000D01*
X161962744Y-79700000D02*
X122000000Y-79700000D01*
X117620000Y-78300000D02*
X119020000Y-79700000D01*
X119020000Y-79700000D02*
X122000000Y-79700000D01*
X187200000Y-60400000D02*
X185800000Y-59000000D01*
X185800000Y-59000000D02*
X175400000Y-59000000D01*
X175400000Y-59000000D02*
X167027207Y-67372793D01*
X167027207Y-67372793D02*
X167027207Y-74635537D01*
X167027207Y-74635537D02*
X161962744Y-79700000D01*
%TO.N,Net-(J5-Pin_27)*%
X208100000Y-36600000D02*
X202000000Y-36600000D01*
X202000000Y-36600000D02*
X194632843Y-43967157D01*
X194632843Y-43967157D02*
X194632843Y-50067157D01*
X194632843Y-50067157D02*
X193300000Y-51400000D01*
X193300000Y-51400000D02*
X177600000Y-51400000D01*
X177600000Y-51400000D02*
X164300000Y-64700000D01*
X164300000Y-64700000D02*
X164300000Y-76797058D01*
X164300000Y-76797058D02*
X161797058Y-79300000D01*
X161797058Y-79300000D02*
X125460000Y-79300000D01*
X125460000Y-79300000D02*
X122700000Y-76540000D01*
%TO.N,Net-(J5-Pin_28)*%
X125240000Y-76540000D02*
X125240000Y-77540000D01*
X125240000Y-77540000D02*
X126600000Y-78900000D01*
X126600000Y-78900000D02*
X161631372Y-78900000D01*
X161631372Y-78900000D02*
X163900000Y-76631372D01*
X203334314Y-34700000D02*
X207900000Y-34700000D01*
X163900000Y-76631372D02*
X163900000Y-64534314D01*
X194232843Y-49901471D02*
X194232843Y-43801471D01*
X163900000Y-64534314D02*
X177434314Y-51000000D01*
X194232843Y-43801471D02*
X203334314Y-34700000D01*
X177434314Y-51000000D02*
X193134314Y-51000000D01*
X193134314Y-51000000D02*
X194232843Y-49901471D01*
%TO.N,Net-(J5-Pin_29)*%
X127780000Y-76540000D02*
X129740000Y-78500000D01*
X129740000Y-78500000D02*
X161465686Y-78500000D01*
X161465686Y-78500000D02*
X163500000Y-76465686D01*
X163500000Y-76465686D02*
X163500000Y-64368628D01*
X163500000Y-64368628D02*
X177268628Y-50600000D01*
X193832843Y-49735785D02*
X193832843Y-43635785D01*
X177268628Y-50600000D02*
X192968628Y-50600000D01*
X192968628Y-50600000D02*
X193832843Y-49735785D01*
X193832843Y-43635785D02*
X204768628Y-32700000D01*
X204768628Y-32700000D02*
X207900000Y-32700000D01*
%TO.N,Net-(J5-Pin_30)*%
X207900000Y-30700000D02*
X206202943Y-30700000D01*
X206202943Y-30700000D02*
X202101472Y-34801471D01*
X202101472Y-34801471D02*
X195351471Y-41551471D01*
X195351471Y-41551471D02*
X193432843Y-43470099D01*
X130800000Y-78100000D02*
X130320000Y-77620000D01*
X193432843Y-43470099D02*
X193432843Y-49570099D01*
X193432843Y-49570099D02*
X192802942Y-50200000D01*
X192802942Y-50200000D02*
X177102942Y-50200000D01*
X177102942Y-50200000D02*
X163100000Y-64202942D01*
X163100000Y-64202942D02*
X163100000Y-76300000D01*
X163100000Y-76300000D02*
X161300000Y-78100000D01*
X161300000Y-78100000D02*
X130800000Y-78100000D01*
X130320000Y-77620000D02*
X130320000Y-76540000D01*
%TO.N,+3.3V*%
X119000000Y-23300000D02*
X115000000Y-23300000D01*
X82840000Y-23300000D02*
X80740000Y-25400000D01*
X148400000Y-23300000D02*
X119000000Y-23300000D01*
X119000000Y-23300000D02*
X82840000Y-23300000D01*
X148400000Y-23300000D02*
X147890000Y-23300000D01*
X180800000Y-23300000D02*
X148400000Y-23300000D01*
X114350000Y-23950000D02*
X113040000Y-25260000D01*
X115000000Y-23300000D02*
X114350000Y-23950000D01*
X180800000Y-23300000D02*
X180140000Y-23300000D01*
X207900000Y-23300000D02*
X180800000Y-23300000D01*
X147890000Y-23300000D02*
X145700000Y-25490000D01*
X208000000Y-84700000D02*
X209200000Y-84700000D01*
X209200000Y-84700000D02*
X210500000Y-83400000D01*
X210500000Y-83400000D02*
X210500000Y-25900000D01*
X210500000Y-25900000D02*
X207900000Y-23300000D01*
X180140000Y-23300000D02*
X178080000Y-25360000D01*
D19*
%TO.N,GND*%
X208000000Y-88700000D02*
X207900000Y-88600000D01*
X204700000Y-88600000D02*
X204100000Y-88000000D01*
X207900000Y-88600000D02*
X204700000Y-88600000D01*
X204100000Y-88000000D02*
X204100000Y-85400000D01*
X204100000Y-85400000D02*
X206800000Y-82700000D01*
X206800000Y-82700000D02*
X208000000Y-82700000D01*
D20*
%TO.N,Net-(J5-Pin_26)*%
X92220000Y-61300000D02*
X92220000Y-55320000D01*
X92220000Y-55320000D02*
X92100000Y-55200000D01*
%TO.N,Net-(J5-Pin_25)*%
X94760000Y-61300000D02*
X94760000Y-55660000D01*
X94760000Y-55660000D02*
X94700000Y-55600000D01*
%TO.N,Net-(J5-Pin_24)*%
X97300000Y-61300000D02*
X97300000Y-56000000D01*
%TO.N,Net-(J5-Pin_23)*%
X99840000Y-61300000D02*
X99840000Y-56440000D01*
X99840000Y-56440000D02*
X99800000Y-56400000D01*
%TO.N,Net-(J5-Pin_22)*%
X102380000Y-61300000D02*
X102380000Y-56880000D01*
X102380000Y-56880000D02*
X102300000Y-56800000D01*
%TO.N,Net-(J5-Pin_21)*%
X104920000Y-61300000D02*
X104920000Y-57220000D01*
X104920000Y-57220000D02*
X104900000Y-57200000D01*
%TO.N,Net-(J5-Pin_20)*%
X107460000Y-61300000D02*
X107460000Y-57660000D01*
X107460000Y-57660000D02*
X107400000Y-57600000D01*
%TO.N,Net-(J5-Pin_19)*%
X110000000Y-61300000D02*
X110000000Y-58100000D01*
X110000000Y-58100000D02*
X109900000Y-58000000D01*
%TO.N,Net-(J5-Pin_18)*%
X112540000Y-61300000D02*
X112540000Y-58540000D01*
X112540000Y-58540000D02*
X112400000Y-58400000D01*
%TO.N,Net-(J5-Pin_17)*%
X115080000Y-61300000D02*
X115080000Y-59020000D01*
X115080000Y-59020000D02*
X115100000Y-59000000D01*
%TO.N,Net-(J5-Pin_29)*%
X207900000Y-32700000D02*
X208000000Y-32700000D01*
%TO.N,GND*%
X133890000Y-40310000D02*
X133890000Y-40340000D01*
X133900000Y-40300000D02*
X133890000Y-40310000D01*
X133890000Y-40290000D02*
X133900000Y-40300000D01*
X132100000Y-33230000D02*
X133300000Y-33230000D01*
X123450000Y-33150000D02*
X124750000Y-33150000D01*
X117050000Y-33350000D02*
X117050000Y-40100000D01*
X107350000Y-33050000D02*
X108650000Y-33050000D01*
X101100000Y-33400000D02*
X101100000Y-40350000D01*
X99500000Y-33100000D02*
X100800000Y-33100000D01*
X100800000Y-33100000D02*
X101100000Y-33400000D01*
X108950000Y-33350000D02*
X108950000Y-40250000D01*
X115450000Y-33050000D02*
X116750000Y-33050000D01*
X124750000Y-33150000D02*
X125050000Y-33450000D01*
X108650000Y-33050000D02*
X108950000Y-33350000D01*
X116750000Y-33050000D02*
X117050000Y-33350000D01*
X125050000Y-33450000D02*
X125050000Y-40100000D01*
X155950000Y-33280000D02*
X157250000Y-33280000D01*
X149550000Y-33480000D02*
X149550000Y-40330000D01*
X139850000Y-33180000D02*
X141150000Y-33180000D01*
X133600000Y-33530000D02*
X133600000Y-40300000D01*
X132000000Y-33230000D02*
X132100000Y-33230000D01*
X133300000Y-33230000D02*
X133600000Y-33530000D01*
X141450000Y-33480000D02*
X141450000Y-40330000D01*
X147950000Y-33180000D02*
X149250000Y-33180000D01*
X157250000Y-33280000D02*
X157550000Y-33580000D01*
X141150000Y-33180000D02*
X141450000Y-33480000D01*
X149250000Y-33180000D02*
X149550000Y-33480000D01*
X157550000Y-33580000D02*
X157550000Y-40330000D01*
X76250000Y-33050000D02*
X76550000Y-33350000D01*
X91050000Y-33150000D02*
X92350000Y-33150000D01*
X83050000Y-33050000D02*
X84350000Y-33050000D01*
X84650000Y-33350000D02*
X84650000Y-40070000D01*
X92350000Y-33150000D02*
X92650000Y-33450000D01*
X84350000Y-33050000D02*
X84650000Y-33350000D01*
X67100000Y-33100000D02*
X68400000Y-33100000D01*
X92650000Y-33450000D02*
X92650000Y-40170000D01*
X76550000Y-33350000D02*
X76550000Y-40250000D01*
X74950000Y-33050000D02*
X76250000Y-33050000D01*
X68400000Y-33100000D02*
X68700000Y-33400000D01*
X68700000Y-33400000D02*
X68700000Y-40320000D01*
X173930000Y-33350000D02*
X173930000Y-40250000D01*
X180430000Y-33050000D02*
X181730000Y-33050000D01*
X164480000Y-33100000D02*
X165780000Y-33100000D01*
X173630000Y-33050000D02*
X173930000Y-33350000D01*
X189730000Y-33150000D02*
X190030000Y-33450000D01*
X166080000Y-33400000D02*
X166080000Y-40300000D01*
X190030000Y-33450000D02*
X190030000Y-40350000D01*
X181730000Y-33050000D02*
X182030000Y-33350000D01*
X165780000Y-33100000D02*
X166080000Y-33400000D01*
X172330000Y-33050000D02*
X173630000Y-33050000D01*
X182030000Y-33350000D02*
X182030000Y-40250000D01*
X188430000Y-33150000D02*
X189730000Y-33150000D01*
%TD*%
M02*
