%TF.GenerationSoftware,KiCad,Pcbnew,8.0.3-1.fc40*%
%TF.CreationDate,2024-07-09T23:55:12-04:00*%
%TF.ProjectId,boards_v3,626f6172-6473-45f7-9633-2e6b69636164,rev?*%
%TF.SameCoordinates,Original*%
%TF.FileFunction,Legend,Top*%
%TF.FilePolarity,Positive*%
%FSLAX46Y46*%
G04 Gerber Fmt 4.6, Leading zero omitted, Abs format (unit mm)*
G04 Created by KiCad (PCBNEW 8.0.3-1.fc40) date 2024-07-09 23:55:12*
%MOMM*%
%LPD*%
G01*
G04 APERTURE LIST*
%ADD10C,0.100000*%
%ADD11C,0.150000*%
%ADD12C,0.120000*%
G04 APERTURE END LIST*
D10*
X194922931Y-68421371D02*
X194980074Y-68421371D01*
X194980074Y-68421371D02*
X195037217Y-68449942D01*
X195037217Y-68449942D02*
X195065789Y-68478514D01*
X195065789Y-68478514D02*
X195094360Y-68535657D01*
X195094360Y-68535657D02*
X195122931Y-68649942D01*
X195122931Y-68649942D02*
X195122931Y-68792800D01*
X195122931Y-68792800D02*
X195094360Y-68907085D01*
X195094360Y-68907085D02*
X195065789Y-68964228D01*
X195065789Y-68964228D02*
X195037217Y-68992800D01*
X195037217Y-68992800D02*
X194980074Y-69021371D01*
X194980074Y-69021371D02*
X194922931Y-69021371D01*
X194922931Y-69021371D02*
X194865789Y-68992800D01*
X194865789Y-68992800D02*
X194837217Y-68964228D01*
X194837217Y-68964228D02*
X194808646Y-68907085D01*
X194808646Y-68907085D02*
X194780074Y-68792800D01*
X194780074Y-68792800D02*
X194780074Y-68649942D01*
X194780074Y-68649942D02*
X194808646Y-68535657D01*
X194808646Y-68535657D02*
X194837217Y-68478514D01*
X194837217Y-68478514D02*
X194865789Y-68449942D01*
X194865789Y-68449942D02*
X194922931Y-68421371D01*
X195380075Y-68964228D02*
X195408646Y-68992800D01*
X195408646Y-68992800D02*
X195380075Y-69021371D01*
X195380075Y-69021371D02*
X195351503Y-68992800D01*
X195351503Y-68992800D02*
X195380075Y-68964228D01*
X195380075Y-68964228D02*
X195380075Y-69021371D01*
X195980074Y-69021371D02*
X195637217Y-69021371D01*
X195808646Y-69021371D02*
X195808646Y-68421371D01*
X195808646Y-68421371D02*
X195751503Y-68507085D01*
X195751503Y-68507085D02*
X195694360Y-68564228D01*
X195694360Y-68564228D02*
X195637217Y-68592800D01*
X196237218Y-68621371D02*
X196237218Y-69221371D01*
X196522932Y-68935657D02*
X196551503Y-68992800D01*
X196551503Y-68992800D02*
X196608646Y-69021371D01*
X196237218Y-68935657D02*
X196265789Y-68992800D01*
X196265789Y-68992800D02*
X196322932Y-69021371D01*
X196322932Y-69021371D02*
X196437218Y-69021371D01*
X196437218Y-69021371D02*
X196494361Y-68992800D01*
X196494361Y-68992800D02*
X196522932Y-68935657D01*
X196522932Y-68935657D02*
X196522932Y-68621371D01*
X197065789Y-68707085D02*
X196865789Y-68707085D01*
X196865789Y-69021371D02*
X196865789Y-68421371D01*
X196865789Y-68421371D02*
X197151503Y-68421371D01*
X181275312Y-65477180D02*
X181227693Y-65524800D01*
X181227693Y-65524800D02*
X181084836Y-65572419D01*
X181084836Y-65572419D02*
X180989598Y-65572419D01*
X180989598Y-65572419D02*
X180846741Y-65524800D01*
X180846741Y-65524800D02*
X180751503Y-65429561D01*
X180751503Y-65429561D02*
X180703884Y-65334323D01*
X180703884Y-65334323D02*
X180656265Y-65143847D01*
X180656265Y-65143847D02*
X180656265Y-65000990D01*
X180656265Y-65000990D02*
X180703884Y-64810514D01*
X180703884Y-64810514D02*
X180751503Y-64715276D01*
X180751503Y-64715276D02*
X180846741Y-64620038D01*
X180846741Y-64620038D02*
X180989598Y-64572419D01*
X180989598Y-64572419D02*
X181084836Y-64572419D01*
X181084836Y-64572419D02*
X181227693Y-64620038D01*
X181227693Y-64620038D02*
X181275312Y-64667657D01*
X181703884Y-65572419D02*
X181703884Y-64572419D01*
X181703884Y-64572419D02*
X182037217Y-65286704D01*
X182037217Y-65286704D02*
X182370550Y-64572419D01*
X182370550Y-64572419D02*
X182370550Y-65572419D01*
X182846741Y-65572419D02*
X182846741Y-64572419D01*
X182846741Y-64572419D02*
X183227693Y-64572419D01*
X183227693Y-64572419D02*
X183322931Y-64620038D01*
X183322931Y-64620038D02*
X183370550Y-64667657D01*
X183370550Y-64667657D02*
X183418169Y-64762895D01*
X183418169Y-64762895D02*
X183418169Y-64905752D01*
X183418169Y-64905752D02*
X183370550Y-65000990D01*
X183370550Y-65000990D02*
X183322931Y-65048609D01*
X183322931Y-65048609D02*
X183227693Y-65096228D01*
X183227693Y-65096228D02*
X182846741Y-65096228D01*
X185180074Y-65477180D02*
X185132455Y-65524800D01*
X185132455Y-65524800D02*
X184989598Y-65572419D01*
X184989598Y-65572419D02*
X184894360Y-65572419D01*
X184894360Y-65572419D02*
X184751503Y-65524800D01*
X184751503Y-65524800D02*
X184656265Y-65429561D01*
X184656265Y-65429561D02*
X184608646Y-65334323D01*
X184608646Y-65334323D02*
X184561027Y-65143847D01*
X184561027Y-65143847D02*
X184561027Y-65000990D01*
X184561027Y-65000990D02*
X184608646Y-64810514D01*
X184608646Y-64810514D02*
X184656265Y-64715276D01*
X184656265Y-64715276D02*
X184751503Y-64620038D01*
X184751503Y-64620038D02*
X184894360Y-64572419D01*
X184894360Y-64572419D02*
X184989598Y-64572419D01*
X184989598Y-64572419D02*
X185132455Y-64620038D01*
X185132455Y-64620038D02*
X185180074Y-64667657D01*
X185608646Y-65572419D02*
X185608646Y-64572419D01*
X185608646Y-65048609D02*
X186180074Y-65048609D01*
X186180074Y-65572419D02*
X186180074Y-64572419D01*
X186656265Y-65572419D02*
X186656265Y-64572419D01*
X187132455Y-65572419D02*
X187132455Y-64572419D01*
X187132455Y-64572419D02*
X187513407Y-64572419D01*
X187513407Y-64572419D02*
X187608645Y-64620038D01*
X187608645Y-64620038D02*
X187656264Y-64667657D01*
X187656264Y-64667657D02*
X187703883Y-64762895D01*
X187703883Y-64762895D02*
X187703883Y-64905752D01*
X187703883Y-64905752D02*
X187656264Y-65000990D01*
X187656264Y-65000990D02*
X187608645Y-65048609D01*
X187608645Y-65048609D02*
X187513407Y-65096228D01*
X187513407Y-65096228D02*
X187132455Y-65096228D01*
X68503884Y-62872419D02*
X68503884Y-61872419D01*
X68503884Y-61872419D02*
X68741979Y-61872419D01*
X68741979Y-61872419D02*
X68884836Y-61920038D01*
X68884836Y-61920038D02*
X68980074Y-62015276D01*
X68980074Y-62015276D02*
X69027693Y-62110514D01*
X69027693Y-62110514D02*
X69075312Y-62300990D01*
X69075312Y-62300990D02*
X69075312Y-62443847D01*
X69075312Y-62443847D02*
X69027693Y-62634323D01*
X69027693Y-62634323D02*
X68980074Y-62729561D01*
X68980074Y-62729561D02*
X68884836Y-62824800D01*
X68884836Y-62824800D02*
X68741979Y-62872419D01*
X68741979Y-62872419D02*
X68503884Y-62872419D01*
X70027693Y-62872419D02*
X69456265Y-62872419D01*
X69741979Y-62872419D02*
X69741979Y-61872419D01*
X69741979Y-61872419D02*
X69646741Y-62015276D01*
X69646741Y-62015276D02*
X69551503Y-62110514D01*
X69551503Y-62110514D02*
X69456265Y-62158133D01*
X75803884Y-62872419D02*
X75803884Y-61872419D01*
X75803884Y-61872419D02*
X76041979Y-61872419D01*
X76041979Y-61872419D02*
X76184836Y-61920038D01*
X76184836Y-61920038D02*
X76280074Y-62015276D01*
X76280074Y-62015276D02*
X76327693Y-62110514D01*
X76327693Y-62110514D02*
X76375312Y-62300990D01*
X76375312Y-62300990D02*
X76375312Y-62443847D01*
X76375312Y-62443847D02*
X76327693Y-62634323D01*
X76327693Y-62634323D02*
X76280074Y-62729561D01*
X76280074Y-62729561D02*
X76184836Y-62824800D01*
X76184836Y-62824800D02*
X76041979Y-62872419D01*
X76041979Y-62872419D02*
X75803884Y-62872419D01*
X76756265Y-61967657D02*
X76803884Y-61920038D01*
X76803884Y-61920038D02*
X76899122Y-61872419D01*
X76899122Y-61872419D02*
X77137217Y-61872419D01*
X77137217Y-61872419D02*
X77232455Y-61920038D01*
X77232455Y-61920038D02*
X77280074Y-61967657D01*
X77280074Y-61967657D02*
X77327693Y-62062895D01*
X77327693Y-62062895D02*
X77327693Y-62158133D01*
X77327693Y-62158133D02*
X77280074Y-62300990D01*
X77280074Y-62300990D02*
X76708646Y-62872419D01*
X76708646Y-62872419D02*
X77327693Y-62872419D01*
X75803884Y-65372419D02*
X75803884Y-64372419D01*
X75803884Y-64372419D02*
X76041979Y-64372419D01*
X76041979Y-64372419D02*
X76184836Y-64420038D01*
X76184836Y-64420038D02*
X76280074Y-64515276D01*
X76280074Y-64515276D02*
X76327693Y-64610514D01*
X76327693Y-64610514D02*
X76375312Y-64800990D01*
X76375312Y-64800990D02*
X76375312Y-64943847D01*
X76375312Y-64943847D02*
X76327693Y-65134323D01*
X76327693Y-65134323D02*
X76280074Y-65229561D01*
X76280074Y-65229561D02*
X76184836Y-65324800D01*
X76184836Y-65324800D02*
X76041979Y-65372419D01*
X76041979Y-65372419D02*
X75803884Y-65372419D01*
X76708646Y-64372419D02*
X77327693Y-64372419D01*
X77327693Y-64372419D02*
X76994360Y-64753371D01*
X76994360Y-64753371D02*
X77137217Y-64753371D01*
X77137217Y-64753371D02*
X77232455Y-64800990D01*
X77232455Y-64800990D02*
X77280074Y-64848609D01*
X77280074Y-64848609D02*
X77327693Y-64943847D01*
X77327693Y-64943847D02*
X77327693Y-65181942D01*
X77327693Y-65181942D02*
X77280074Y-65277180D01*
X77280074Y-65277180D02*
X77232455Y-65324800D01*
X77232455Y-65324800D02*
X77137217Y-65372419D01*
X77137217Y-65372419D02*
X76851503Y-65372419D01*
X76851503Y-65372419D02*
X76756265Y-65324800D01*
X76756265Y-65324800D02*
X76708646Y-65277180D01*
X75903884Y-80272419D02*
X75903884Y-79272419D01*
X75903884Y-79272419D02*
X76141979Y-79272419D01*
X76141979Y-79272419D02*
X76284836Y-79320038D01*
X76284836Y-79320038D02*
X76380074Y-79415276D01*
X76380074Y-79415276D02*
X76427693Y-79510514D01*
X76427693Y-79510514D02*
X76475312Y-79700990D01*
X76475312Y-79700990D02*
X76475312Y-79843847D01*
X76475312Y-79843847D02*
X76427693Y-80034323D01*
X76427693Y-80034323D02*
X76380074Y-80129561D01*
X76380074Y-80129561D02*
X76284836Y-80224800D01*
X76284836Y-80224800D02*
X76141979Y-80272419D01*
X76141979Y-80272419D02*
X75903884Y-80272419D01*
X77332455Y-79605752D02*
X77332455Y-80272419D01*
X77094360Y-79224800D02*
X76856265Y-79939085D01*
X76856265Y-79939085D02*
X77475312Y-79939085D01*
X75903884Y-82772419D02*
X75903884Y-81772419D01*
X75903884Y-81772419D02*
X76141979Y-81772419D01*
X76141979Y-81772419D02*
X76284836Y-81820038D01*
X76284836Y-81820038D02*
X76380074Y-81915276D01*
X76380074Y-81915276D02*
X76427693Y-82010514D01*
X76427693Y-82010514D02*
X76475312Y-82200990D01*
X76475312Y-82200990D02*
X76475312Y-82343847D01*
X76475312Y-82343847D02*
X76427693Y-82534323D01*
X76427693Y-82534323D02*
X76380074Y-82629561D01*
X76380074Y-82629561D02*
X76284836Y-82724800D01*
X76284836Y-82724800D02*
X76141979Y-82772419D01*
X76141979Y-82772419D02*
X75903884Y-82772419D01*
X77380074Y-81772419D02*
X76903884Y-81772419D01*
X76903884Y-81772419D02*
X76856265Y-82248609D01*
X76856265Y-82248609D02*
X76903884Y-82200990D01*
X76903884Y-82200990D02*
X76999122Y-82153371D01*
X76999122Y-82153371D02*
X77237217Y-82153371D01*
X77237217Y-82153371D02*
X77332455Y-82200990D01*
X77332455Y-82200990D02*
X77380074Y-82248609D01*
X77380074Y-82248609D02*
X77427693Y-82343847D01*
X77427693Y-82343847D02*
X77427693Y-82581942D01*
X77427693Y-82581942D02*
X77380074Y-82677180D01*
X77380074Y-82677180D02*
X77332455Y-82724800D01*
X77332455Y-82724800D02*
X77237217Y-82772419D01*
X77237217Y-82772419D02*
X76999122Y-82772419D01*
X76999122Y-82772419D02*
X76903884Y-82724800D01*
X76903884Y-82724800D02*
X76856265Y-82677180D01*
X75903884Y-77572419D02*
X75903884Y-76572419D01*
X75903884Y-76572419D02*
X76141979Y-76572419D01*
X76141979Y-76572419D02*
X76284836Y-76620038D01*
X76284836Y-76620038D02*
X76380074Y-76715276D01*
X76380074Y-76715276D02*
X76427693Y-76810514D01*
X76427693Y-76810514D02*
X76475312Y-77000990D01*
X76475312Y-77000990D02*
X76475312Y-77143847D01*
X76475312Y-77143847D02*
X76427693Y-77334323D01*
X76427693Y-77334323D02*
X76380074Y-77429561D01*
X76380074Y-77429561D02*
X76284836Y-77524800D01*
X76284836Y-77524800D02*
X76141979Y-77572419D01*
X76141979Y-77572419D02*
X75903884Y-77572419D01*
X76808646Y-76572419D02*
X77427693Y-76572419D01*
X77427693Y-76572419D02*
X77094360Y-76953371D01*
X77094360Y-76953371D02*
X77237217Y-76953371D01*
X77237217Y-76953371D02*
X77332455Y-77000990D01*
X77332455Y-77000990D02*
X77380074Y-77048609D01*
X77380074Y-77048609D02*
X77427693Y-77143847D01*
X77427693Y-77143847D02*
X77427693Y-77381942D01*
X77427693Y-77381942D02*
X77380074Y-77477180D01*
X77380074Y-77477180D02*
X77332455Y-77524800D01*
X77332455Y-77524800D02*
X77237217Y-77572419D01*
X77237217Y-77572419D02*
X76951503Y-77572419D01*
X76951503Y-77572419D02*
X76856265Y-77524800D01*
X76856265Y-77524800D02*
X76808646Y-77477180D01*
X75903884Y-75072419D02*
X75903884Y-74072419D01*
X75903884Y-74072419D02*
X76141979Y-74072419D01*
X76141979Y-74072419D02*
X76284836Y-74120038D01*
X76284836Y-74120038D02*
X76380074Y-74215276D01*
X76380074Y-74215276D02*
X76427693Y-74310514D01*
X76427693Y-74310514D02*
X76475312Y-74500990D01*
X76475312Y-74500990D02*
X76475312Y-74643847D01*
X76475312Y-74643847D02*
X76427693Y-74834323D01*
X76427693Y-74834323D02*
X76380074Y-74929561D01*
X76380074Y-74929561D02*
X76284836Y-75024800D01*
X76284836Y-75024800D02*
X76141979Y-75072419D01*
X76141979Y-75072419D02*
X75903884Y-75072419D01*
X76856265Y-74167657D02*
X76903884Y-74120038D01*
X76903884Y-74120038D02*
X76999122Y-74072419D01*
X76999122Y-74072419D02*
X77237217Y-74072419D01*
X77237217Y-74072419D02*
X77332455Y-74120038D01*
X77332455Y-74120038D02*
X77380074Y-74167657D01*
X77380074Y-74167657D02*
X77427693Y-74262895D01*
X77427693Y-74262895D02*
X77427693Y-74358133D01*
X77427693Y-74358133D02*
X77380074Y-74500990D01*
X77380074Y-74500990D02*
X76808646Y-75072419D01*
X76808646Y-75072419D02*
X77427693Y-75072419D01*
X68403884Y-75072419D02*
X68403884Y-74072419D01*
X68403884Y-74072419D02*
X68641979Y-74072419D01*
X68641979Y-74072419D02*
X68784836Y-74120038D01*
X68784836Y-74120038D02*
X68880074Y-74215276D01*
X68880074Y-74215276D02*
X68927693Y-74310514D01*
X68927693Y-74310514D02*
X68975312Y-74500990D01*
X68975312Y-74500990D02*
X68975312Y-74643847D01*
X68975312Y-74643847D02*
X68927693Y-74834323D01*
X68927693Y-74834323D02*
X68880074Y-74929561D01*
X68880074Y-74929561D02*
X68784836Y-75024800D01*
X68784836Y-75024800D02*
X68641979Y-75072419D01*
X68641979Y-75072419D02*
X68403884Y-75072419D01*
X69927693Y-75072419D02*
X69356265Y-75072419D01*
X69641979Y-75072419D02*
X69641979Y-74072419D01*
X69641979Y-74072419D02*
X69546741Y-74215276D01*
X69546741Y-74215276D02*
X69451503Y-74310514D01*
X69451503Y-74310514D02*
X69356265Y-74358133D01*
X75756265Y-70186704D02*
X76232455Y-70186704D01*
X75661027Y-70472419D02*
X75994360Y-69472419D01*
X75994360Y-69472419D02*
X76327693Y-70472419D01*
X76613408Y-69567657D02*
X76661027Y-69520038D01*
X76661027Y-69520038D02*
X76756265Y-69472419D01*
X76756265Y-69472419D02*
X76994360Y-69472419D01*
X76994360Y-69472419D02*
X77089598Y-69520038D01*
X77089598Y-69520038D02*
X77137217Y-69567657D01*
X77137217Y-69567657D02*
X77184836Y-69662895D01*
X77184836Y-69662895D02*
X77184836Y-69758133D01*
X77184836Y-69758133D02*
X77137217Y-69900990D01*
X77137217Y-69900990D02*
X76565789Y-70472419D01*
X76565789Y-70472419D02*
X77184836Y-70472419D01*
X75756265Y-67686704D02*
X76232455Y-67686704D01*
X75661027Y-67972419D02*
X75994360Y-66972419D01*
X75994360Y-66972419D02*
X76327693Y-67972419D01*
X77184836Y-67972419D02*
X76613408Y-67972419D01*
X76899122Y-67972419D02*
X76899122Y-66972419D01*
X76899122Y-66972419D02*
X76803884Y-67115276D01*
X76803884Y-67115276D02*
X76708646Y-67210514D01*
X76708646Y-67210514D02*
X76613408Y-67258133D01*
X68980074Y-64372419D02*
X68503884Y-64372419D01*
X68503884Y-64372419D02*
X68456265Y-64848609D01*
X68456265Y-64848609D02*
X68503884Y-64800990D01*
X68503884Y-64800990D02*
X68599122Y-64753371D01*
X68599122Y-64753371D02*
X68837217Y-64753371D01*
X68837217Y-64753371D02*
X68932455Y-64800990D01*
X68932455Y-64800990D02*
X68980074Y-64848609D01*
X68980074Y-64848609D02*
X69027693Y-64943847D01*
X69027693Y-64943847D02*
X69027693Y-65181942D01*
X69027693Y-65181942D02*
X68980074Y-65277180D01*
X68980074Y-65277180D02*
X68932455Y-65324800D01*
X68932455Y-65324800D02*
X68837217Y-65372419D01*
X68837217Y-65372419D02*
X68599122Y-65372419D01*
X68599122Y-65372419D02*
X68503884Y-65324800D01*
X68503884Y-65324800D02*
X68456265Y-65277180D01*
X69313408Y-64372419D02*
X69646741Y-65372419D01*
X69646741Y-65372419D02*
X69980074Y-64372419D01*
X66908646Y-66972419D02*
X67527693Y-66972419D01*
X67527693Y-66972419D02*
X67194360Y-67353371D01*
X67194360Y-67353371D02*
X67337217Y-67353371D01*
X67337217Y-67353371D02*
X67432455Y-67400990D01*
X67432455Y-67400990D02*
X67480074Y-67448609D01*
X67480074Y-67448609D02*
X67527693Y-67543847D01*
X67527693Y-67543847D02*
X67527693Y-67781942D01*
X67527693Y-67781942D02*
X67480074Y-67877180D01*
X67480074Y-67877180D02*
X67432455Y-67924800D01*
X67432455Y-67924800D02*
X67337217Y-67972419D01*
X67337217Y-67972419D02*
X67051503Y-67972419D01*
X67051503Y-67972419D02*
X66956265Y-67924800D01*
X66956265Y-67924800D02*
X66908646Y-67877180D01*
X67956265Y-67877180D02*
X68003884Y-67924800D01*
X68003884Y-67924800D02*
X67956265Y-67972419D01*
X67956265Y-67972419D02*
X67908646Y-67924800D01*
X67908646Y-67924800D02*
X67956265Y-67877180D01*
X67956265Y-67877180D02*
X67956265Y-67972419D01*
X68337217Y-66972419D02*
X68956264Y-66972419D01*
X68956264Y-66972419D02*
X68622931Y-67353371D01*
X68622931Y-67353371D02*
X68765788Y-67353371D01*
X68765788Y-67353371D02*
X68861026Y-67400990D01*
X68861026Y-67400990D02*
X68908645Y-67448609D01*
X68908645Y-67448609D02*
X68956264Y-67543847D01*
X68956264Y-67543847D02*
X68956264Y-67781942D01*
X68956264Y-67781942D02*
X68908645Y-67877180D01*
X68908645Y-67877180D02*
X68861026Y-67924800D01*
X68861026Y-67924800D02*
X68765788Y-67972419D01*
X68765788Y-67972419D02*
X68480074Y-67972419D01*
X68480074Y-67972419D02*
X68384836Y-67924800D01*
X68384836Y-67924800D02*
X68337217Y-67877180D01*
X69241979Y-66972419D02*
X69575312Y-67972419D01*
X69575312Y-67972419D02*
X69908645Y-66972419D01*
X67827693Y-69520038D02*
X67732455Y-69472419D01*
X67732455Y-69472419D02*
X67589598Y-69472419D01*
X67589598Y-69472419D02*
X67446741Y-69520038D01*
X67446741Y-69520038D02*
X67351503Y-69615276D01*
X67351503Y-69615276D02*
X67303884Y-69710514D01*
X67303884Y-69710514D02*
X67256265Y-69900990D01*
X67256265Y-69900990D02*
X67256265Y-70043847D01*
X67256265Y-70043847D02*
X67303884Y-70234323D01*
X67303884Y-70234323D02*
X67351503Y-70329561D01*
X67351503Y-70329561D02*
X67446741Y-70424800D01*
X67446741Y-70424800D02*
X67589598Y-70472419D01*
X67589598Y-70472419D02*
X67684836Y-70472419D01*
X67684836Y-70472419D02*
X67827693Y-70424800D01*
X67827693Y-70424800D02*
X67875312Y-70377180D01*
X67875312Y-70377180D02*
X67875312Y-70043847D01*
X67875312Y-70043847D02*
X67684836Y-70043847D01*
X68303884Y-70472419D02*
X68303884Y-69472419D01*
X68303884Y-69472419D02*
X68875312Y-70472419D01*
X68875312Y-70472419D02*
X68875312Y-69472419D01*
X69351503Y-70472419D02*
X69351503Y-69472419D01*
X69351503Y-69472419D02*
X69589598Y-69472419D01*
X69589598Y-69472419D02*
X69732455Y-69520038D01*
X69732455Y-69520038D02*
X69827693Y-69615276D01*
X69827693Y-69615276D02*
X69875312Y-69710514D01*
X69875312Y-69710514D02*
X69922931Y-69900990D01*
X69922931Y-69900990D02*
X69922931Y-70043847D01*
X69922931Y-70043847D02*
X69875312Y-70234323D01*
X69875312Y-70234323D02*
X69827693Y-70329561D01*
X69827693Y-70329561D02*
X69732455Y-70424800D01*
X69732455Y-70424800D02*
X69589598Y-70472419D01*
X69589598Y-70472419D02*
X69351503Y-70472419D01*
X67008646Y-79172419D02*
X67627693Y-79172419D01*
X67627693Y-79172419D02*
X67294360Y-79553371D01*
X67294360Y-79553371D02*
X67437217Y-79553371D01*
X67437217Y-79553371D02*
X67532455Y-79600990D01*
X67532455Y-79600990D02*
X67580074Y-79648609D01*
X67580074Y-79648609D02*
X67627693Y-79743847D01*
X67627693Y-79743847D02*
X67627693Y-79981942D01*
X67627693Y-79981942D02*
X67580074Y-80077180D01*
X67580074Y-80077180D02*
X67532455Y-80124800D01*
X67532455Y-80124800D02*
X67437217Y-80172419D01*
X67437217Y-80172419D02*
X67151503Y-80172419D01*
X67151503Y-80172419D02*
X67056265Y-80124800D01*
X67056265Y-80124800D02*
X67008646Y-80077180D01*
X68056265Y-80077180D02*
X68103884Y-80124800D01*
X68103884Y-80124800D02*
X68056265Y-80172419D01*
X68056265Y-80172419D02*
X68008646Y-80124800D01*
X68008646Y-80124800D02*
X68056265Y-80077180D01*
X68056265Y-80077180D02*
X68056265Y-80172419D01*
X68437217Y-79172419D02*
X69056264Y-79172419D01*
X69056264Y-79172419D02*
X68722931Y-79553371D01*
X68722931Y-79553371D02*
X68865788Y-79553371D01*
X68865788Y-79553371D02*
X68961026Y-79600990D01*
X68961026Y-79600990D02*
X69008645Y-79648609D01*
X69008645Y-79648609D02*
X69056264Y-79743847D01*
X69056264Y-79743847D02*
X69056264Y-79981942D01*
X69056264Y-79981942D02*
X69008645Y-80077180D01*
X69008645Y-80077180D02*
X68961026Y-80124800D01*
X68961026Y-80124800D02*
X68865788Y-80172419D01*
X68865788Y-80172419D02*
X68580074Y-80172419D01*
X68580074Y-80172419D02*
X68484836Y-80124800D01*
X68484836Y-80124800D02*
X68437217Y-80077180D01*
X69341979Y-79172419D02*
X69675312Y-80172419D01*
X69675312Y-80172419D02*
X70008645Y-79172419D01*
X67827693Y-81720038D02*
X67732455Y-81672419D01*
X67732455Y-81672419D02*
X67589598Y-81672419D01*
X67589598Y-81672419D02*
X67446741Y-81720038D01*
X67446741Y-81720038D02*
X67351503Y-81815276D01*
X67351503Y-81815276D02*
X67303884Y-81910514D01*
X67303884Y-81910514D02*
X67256265Y-82100990D01*
X67256265Y-82100990D02*
X67256265Y-82243847D01*
X67256265Y-82243847D02*
X67303884Y-82434323D01*
X67303884Y-82434323D02*
X67351503Y-82529561D01*
X67351503Y-82529561D02*
X67446741Y-82624800D01*
X67446741Y-82624800D02*
X67589598Y-82672419D01*
X67589598Y-82672419D02*
X67684836Y-82672419D01*
X67684836Y-82672419D02*
X67827693Y-82624800D01*
X67827693Y-82624800D02*
X67875312Y-82577180D01*
X67875312Y-82577180D02*
X67875312Y-82243847D01*
X67875312Y-82243847D02*
X67684836Y-82243847D01*
X68303884Y-82672419D02*
X68303884Y-81672419D01*
X68303884Y-81672419D02*
X68875312Y-82672419D01*
X68875312Y-82672419D02*
X68875312Y-81672419D01*
X69351503Y-82672419D02*
X69351503Y-81672419D01*
X69351503Y-81672419D02*
X69589598Y-81672419D01*
X69589598Y-81672419D02*
X69732455Y-81720038D01*
X69732455Y-81720038D02*
X69827693Y-81815276D01*
X69827693Y-81815276D02*
X69875312Y-81910514D01*
X69875312Y-81910514D02*
X69922931Y-82100990D01*
X69922931Y-82100990D02*
X69922931Y-82243847D01*
X69922931Y-82243847D02*
X69875312Y-82434323D01*
X69875312Y-82434323D02*
X69827693Y-82529561D01*
X69827693Y-82529561D02*
X69732455Y-82624800D01*
X69732455Y-82624800D02*
X69589598Y-82672419D01*
X69589598Y-82672419D02*
X69351503Y-82672419D01*
X68880074Y-76572419D02*
X68403884Y-76572419D01*
X68403884Y-76572419D02*
X68356265Y-77048609D01*
X68356265Y-77048609D02*
X68403884Y-77000990D01*
X68403884Y-77000990D02*
X68499122Y-76953371D01*
X68499122Y-76953371D02*
X68737217Y-76953371D01*
X68737217Y-76953371D02*
X68832455Y-77000990D01*
X68832455Y-77000990D02*
X68880074Y-77048609D01*
X68880074Y-77048609D02*
X68927693Y-77143847D01*
X68927693Y-77143847D02*
X68927693Y-77381942D01*
X68927693Y-77381942D02*
X68880074Y-77477180D01*
X68880074Y-77477180D02*
X68832455Y-77524800D01*
X68832455Y-77524800D02*
X68737217Y-77572419D01*
X68737217Y-77572419D02*
X68499122Y-77572419D01*
X68499122Y-77572419D02*
X68403884Y-77524800D01*
X68403884Y-77524800D02*
X68356265Y-77477180D01*
X69213408Y-76572419D02*
X69546741Y-77572419D01*
X69546741Y-77572419D02*
X69880074Y-76572419D01*
X210703884Y-60991466D02*
X211465789Y-60991466D01*
X211084836Y-61372419D02*
X211084836Y-60610514D01*
X212418169Y-60372419D02*
X211941979Y-60372419D01*
X211941979Y-60372419D02*
X211894360Y-60848609D01*
X211894360Y-60848609D02*
X211941979Y-60800990D01*
X211941979Y-60800990D02*
X212037217Y-60753371D01*
X212037217Y-60753371D02*
X212275312Y-60753371D01*
X212275312Y-60753371D02*
X212370550Y-60800990D01*
X212370550Y-60800990D02*
X212418169Y-60848609D01*
X212418169Y-60848609D02*
X212465788Y-60943847D01*
X212465788Y-60943847D02*
X212465788Y-61181942D01*
X212465788Y-61181942D02*
X212418169Y-61277180D01*
X212418169Y-61277180D02*
X212370550Y-61324800D01*
X212370550Y-61324800D02*
X212275312Y-61372419D01*
X212275312Y-61372419D02*
X212037217Y-61372419D01*
X212037217Y-61372419D02*
X211941979Y-61324800D01*
X211941979Y-61324800D02*
X211894360Y-61277180D01*
X212751503Y-60372419D02*
X213084836Y-61372419D01*
X213084836Y-61372419D02*
X213418169Y-60372419D01*
X211398228Y-59124687D02*
X211379180Y-59143734D01*
X211379180Y-59143734D02*
X211322038Y-59181830D01*
X211322038Y-59181830D02*
X211283942Y-59200877D01*
X211283942Y-59200877D02*
X211226800Y-59219925D01*
X211226800Y-59219925D02*
X211131561Y-59238972D01*
X211131561Y-59238972D02*
X211055371Y-59238972D01*
X211055371Y-59238972D02*
X210960133Y-59219925D01*
X210960133Y-59219925D02*
X210902990Y-59200877D01*
X210902990Y-59200877D02*
X210864895Y-59181830D01*
X210864895Y-59181830D02*
X210807752Y-59143734D01*
X210807752Y-59143734D02*
X210788704Y-59124687D01*
X211245847Y-58800877D02*
X211036323Y-58800877D01*
X211036323Y-58800877D02*
X210998228Y-58819924D01*
X210998228Y-58819924D02*
X210979180Y-58858020D01*
X210979180Y-58858020D02*
X210979180Y-58934210D01*
X210979180Y-58934210D02*
X210998228Y-58972305D01*
X211226800Y-58800877D02*
X211245847Y-58838972D01*
X211245847Y-58838972D02*
X211245847Y-58934210D01*
X211245847Y-58934210D02*
X211226800Y-58972305D01*
X211226800Y-58972305D02*
X211188704Y-58991353D01*
X211188704Y-58991353D02*
X211150609Y-58991353D01*
X211150609Y-58991353D02*
X211112514Y-58972305D01*
X211112514Y-58972305D02*
X211093466Y-58934210D01*
X211093466Y-58934210D02*
X211093466Y-58838972D01*
X211093466Y-58838972D02*
X211074419Y-58800877D01*
X211245847Y-58553258D02*
X211226800Y-58591353D01*
X211226800Y-58591353D02*
X211188704Y-58610400D01*
X211188704Y-58610400D02*
X210845847Y-58610400D01*
X211226800Y-58419924D02*
X211245847Y-58381829D01*
X211245847Y-58381829D02*
X211245847Y-58305638D01*
X211245847Y-58305638D02*
X211226800Y-58267543D01*
X211226800Y-58267543D02*
X211188704Y-58248495D01*
X211188704Y-58248495D02*
X211169657Y-58248495D01*
X211169657Y-58248495D02*
X211131561Y-58267543D01*
X211131561Y-58267543D02*
X211112514Y-58305638D01*
X211112514Y-58305638D02*
X211112514Y-58362781D01*
X211112514Y-58362781D02*
X211093466Y-58400876D01*
X211093466Y-58400876D02*
X211055371Y-58419924D01*
X211055371Y-58419924D02*
X211036323Y-58419924D01*
X211036323Y-58419924D02*
X210998228Y-58400876D01*
X210998228Y-58400876D02*
X210979180Y-58362781D01*
X210979180Y-58362781D02*
X210979180Y-58305638D01*
X210979180Y-58305638D02*
X210998228Y-58267543D01*
X211245847Y-58019924D02*
X211226800Y-58058019D01*
X211226800Y-58058019D02*
X211207752Y-58077066D01*
X211207752Y-58077066D02*
X211169657Y-58096114D01*
X211169657Y-58096114D02*
X211055371Y-58096114D01*
X211055371Y-58096114D02*
X211017276Y-58077066D01*
X211017276Y-58077066D02*
X210998228Y-58058019D01*
X210998228Y-58058019D02*
X210979180Y-58019924D01*
X210979180Y-58019924D02*
X210979180Y-57962781D01*
X210979180Y-57962781D02*
X210998228Y-57924685D01*
X210998228Y-57924685D02*
X211017276Y-57905638D01*
X211017276Y-57905638D02*
X211055371Y-57886590D01*
X211055371Y-57886590D02*
X211169657Y-57886590D01*
X211169657Y-57886590D02*
X211207752Y-57905638D01*
X211207752Y-57905638D02*
X211226800Y-57924685D01*
X211226800Y-57924685D02*
X211245847Y-57962781D01*
X211245847Y-57962781D02*
X211245847Y-58019924D01*
X211398228Y-57753257D02*
X211379180Y-57734209D01*
X211379180Y-57734209D02*
X211322038Y-57696114D01*
X211322038Y-57696114D02*
X211283942Y-57677066D01*
X211283942Y-57677066D02*
X211226800Y-57658019D01*
X211226800Y-57658019D02*
X211131561Y-57638971D01*
X211131561Y-57638971D02*
X211055371Y-57638971D01*
X211055371Y-57638971D02*
X210960133Y-57658019D01*
X210960133Y-57658019D02*
X210902990Y-57677066D01*
X210902990Y-57677066D02*
X210864895Y-57696114D01*
X210864895Y-57696114D02*
X210807752Y-57734209D01*
X210807752Y-57734209D02*
X210788704Y-57753257D01*
X212527693Y-58020038D02*
X212432455Y-57972419D01*
X212432455Y-57972419D02*
X212289598Y-57972419D01*
X212289598Y-57972419D02*
X212146741Y-58020038D01*
X212146741Y-58020038D02*
X212051503Y-58115276D01*
X212051503Y-58115276D02*
X212003884Y-58210514D01*
X212003884Y-58210514D02*
X211956265Y-58400990D01*
X211956265Y-58400990D02*
X211956265Y-58543847D01*
X211956265Y-58543847D02*
X212003884Y-58734323D01*
X212003884Y-58734323D02*
X212051503Y-58829561D01*
X212051503Y-58829561D02*
X212146741Y-58924800D01*
X212146741Y-58924800D02*
X212289598Y-58972419D01*
X212289598Y-58972419D02*
X212384836Y-58972419D01*
X212384836Y-58972419D02*
X212527693Y-58924800D01*
X212527693Y-58924800D02*
X212575312Y-58877180D01*
X212575312Y-58877180D02*
X212575312Y-58543847D01*
X212575312Y-58543847D02*
X212384836Y-58543847D01*
X213003884Y-58972419D02*
X213003884Y-57972419D01*
X213003884Y-57972419D02*
X213575312Y-58972419D01*
X213575312Y-58972419D02*
X213575312Y-57972419D01*
X214051503Y-58972419D02*
X214051503Y-57972419D01*
X214051503Y-57972419D02*
X214289598Y-57972419D01*
X214289598Y-57972419D02*
X214432455Y-58020038D01*
X214432455Y-58020038D02*
X214527693Y-58115276D01*
X214527693Y-58115276D02*
X214575312Y-58210514D01*
X214575312Y-58210514D02*
X214622931Y-58400990D01*
X214622931Y-58400990D02*
X214622931Y-58543847D01*
X214622931Y-58543847D02*
X214575312Y-58734323D01*
X214575312Y-58734323D02*
X214527693Y-58829561D01*
X214527693Y-58829561D02*
X214432455Y-58924800D01*
X214432455Y-58924800D02*
X214289598Y-58972419D01*
X214289598Y-58972419D02*
X214051503Y-58972419D01*
G36*
X212409481Y-55746819D02*
G01*
X212466309Y-55750678D01*
X212519543Y-55757108D01*
X212569181Y-55766111D01*
X212626174Y-55780981D01*
X212677550Y-55799871D01*
X212723308Y-55822779D01*
X212731786Y-55827843D01*
X212777272Y-55861331D01*
X212813348Y-55900246D01*
X212840012Y-55944587D01*
X212857266Y-55994356D01*
X212865108Y-56049551D01*
X212865631Y-56069155D01*
X212860926Y-56126251D01*
X212846809Y-56177920D01*
X212823282Y-56224162D01*
X212790343Y-56264977D01*
X212747994Y-56300365D01*
X212731786Y-56310956D01*
X212687151Y-56334597D01*
X212636899Y-56354232D01*
X212581029Y-56369860D01*
X212532289Y-56379477D01*
X212479955Y-56386530D01*
X212424025Y-56391018D01*
X212364500Y-56392941D01*
X212349057Y-56393021D01*
X212288813Y-56391739D01*
X212232157Y-56387892D01*
X212179087Y-56381481D01*
X212129605Y-56372505D01*
X212072797Y-56357678D01*
X212021595Y-56338845D01*
X211975997Y-56316004D01*
X211967550Y-56310956D01*
X211922147Y-56277376D01*
X211886137Y-56238370D01*
X211859521Y-56193936D01*
X211842299Y-56144077D01*
X211834471Y-56088790D01*
X211833949Y-56069155D01*
X211933600Y-56069155D01*
X211941309Y-56117466D01*
X211967956Y-56163939D01*
X212008213Y-56199279D01*
X212031053Y-56213014D01*
X212079649Y-56233380D01*
X212130792Y-56246856D01*
X212180101Y-56255278D01*
X212235492Y-56261148D01*
X212296965Y-56264465D01*
X212350523Y-56265282D01*
X212400619Y-56264668D01*
X212456169Y-56262309D01*
X212506739Y-56258182D01*
X212559442Y-56251131D01*
X212611374Y-56240125D01*
X212005896Y-55937752D01*
X211967771Y-55970105D01*
X211942143Y-56014839D01*
X211933671Y-56063821D01*
X211933600Y-56069155D01*
X211833949Y-56069155D01*
X211838646Y-56012151D01*
X211852737Y-55960574D01*
X211876221Y-55914423D01*
X211889134Y-55898429D01*
X212095533Y-55898429D01*
X212702965Y-56199092D01*
X212738842Y-56163352D01*
X212759826Y-56118261D01*
X212765980Y-56069155D01*
X212758349Y-56020628D01*
X212731968Y-55974050D01*
X212692116Y-55938737D01*
X212669504Y-55925052D01*
X212621345Y-55904591D01*
X212570764Y-55891052D01*
X212522054Y-55882591D01*
X212467381Y-55876693D01*
X212406745Y-55873360D01*
X212353942Y-55872540D01*
X212304035Y-55873172D01*
X212248805Y-55875599D01*
X212198659Y-55879846D01*
X212146580Y-55887103D01*
X212095533Y-55898429D01*
X211889134Y-55898429D01*
X211909100Y-55873700D01*
X211951372Y-55838403D01*
X211967550Y-55827843D01*
X212012027Y-55804131D01*
X212062108Y-55784438D01*
X212117795Y-55768763D01*
X212166380Y-55759118D01*
X212218553Y-55752044D01*
X212274313Y-55747543D01*
X212333660Y-55745614D01*
X212349057Y-55745533D01*
X212409481Y-55746819D01*
G37*
G36*
X212739846Y-55335694D02*
G01*
X212689242Y-55325561D01*
X212651919Y-55299790D01*
X212623523Y-55256542D01*
X212615526Y-55209909D01*
X212624624Y-55160022D01*
X212651919Y-55119295D01*
X212694737Y-55090899D01*
X212739846Y-55082903D01*
X212788389Y-55092001D01*
X212828995Y-55119295D01*
X212856472Y-55160022D01*
X212865631Y-55209909D01*
X212856472Y-55259368D01*
X212828995Y-55299790D01*
X212785588Y-55327805D01*
X212739846Y-55335694D01*
G37*
G36*
X212739846Y-54474982D02*
G01*
X212689242Y-54464849D01*
X212651919Y-54439078D01*
X212623523Y-54395830D01*
X212615526Y-54349197D01*
X212624624Y-54299310D01*
X212651919Y-54258583D01*
X212694737Y-54230187D01*
X212739846Y-54222191D01*
X212788389Y-54231289D01*
X212828995Y-54258583D01*
X212856472Y-54299310D01*
X212865631Y-54349197D01*
X212856472Y-54398656D01*
X212828995Y-54439078D01*
X212785588Y-54467093D01*
X212739846Y-54474982D01*
G37*
G36*
X212739846Y-53614270D02*
G01*
X212689242Y-53604137D01*
X212651919Y-53578367D01*
X212623523Y-53535118D01*
X212615526Y-53488485D01*
X212624624Y-53438599D01*
X212651919Y-53397871D01*
X212694737Y-53369475D01*
X212739846Y-53361479D01*
X212788389Y-53370577D01*
X212828995Y-53397871D01*
X212856472Y-53438599D01*
X212865631Y-53488485D01*
X212856472Y-53537944D01*
X212828995Y-53578367D01*
X212785588Y-53606381D01*
X212739846Y-53614270D01*
G37*
G36*
X212739846Y-52753558D02*
G01*
X212689242Y-52743425D01*
X212651919Y-52717655D01*
X212623523Y-52674406D01*
X212615526Y-52627773D01*
X212624624Y-52577887D01*
X212651919Y-52537159D01*
X212694737Y-52508763D01*
X212739846Y-52500767D01*
X212788389Y-52509865D01*
X212828995Y-52537159D01*
X212856472Y-52577887D01*
X212865631Y-52627773D01*
X212856472Y-52677233D01*
X212828995Y-52717655D01*
X212785588Y-52745669D01*
X212739846Y-52753558D01*
G37*
G36*
X212739846Y-51892847D02*
G01*
X212689242Y-51882714D01*
X212651919Y-51856943D01*
X212623523Y-51813694D01*
X212615526Y-51767062D01*
X212624624Y-51717175D01*
X212651919Y-51676448D01*
X212694737Y-51648052D01*
X212739846Y-51640055D01*
X212788389Y-51649153D01*
X212828995Y-51676448D01*
X212856472Y-51717175D01*
X212865631Y-51767062D01*
X212856472Y-51816521D01*
X212828995Y-51856943D01*
X212785588Y-51884958D01*
X212739846Y-51892847D01*
G37*
G36*
X212739846Y-51032135D02*
G01*
X212689242Y-51022002D01*
X212651919Y-50996231D01*
X212623523Y-50952983D01*
X212615526Y-50906350D01*
X212624624Y-50856463D01*
X212651919Y-50815736D01*
X212694737Y-50787340D01*
X212739846Y-50779344D01*
X212788389Y-50788442D01*
X212828995Y-50815736D01*
X212856472Y-50856463D01*
X212865631Y-50906350D01*
X212856472Y-50955809D01*
X212828995Y-50996231D01*
X212785588Y-51024246D01*
X212739846Y-51032135D01*
G37*
G36*
X212739846Y-50171423D02*
G01*
X212689242Y-50161290D01*
X212651919Y-50135519D01*
X212623523Y-50092271D01*
X212615526Y-50045638D01*
X212624624Y-49995751D01*
X212651919Y-49955024D01*
X212694737Y-49926628D01*
X212739846Y-49918632D01*
X212788389Y-49927730D01*
X212828995Y-49955024D01*
X212856472Y-49995751D01*
X212865631Y-50045638D01*
X212856472Y-50095097D01*
X212828995Y-50135519D01*
X212785588Y-50163534D01*
X212739846Y-50171423D01*
G37*
G36*
X212739846Y-49310711D02*
G01*
X212689242Y-49300578D01*
X212651919Y-49274808D01*
X212623523Y-49231559D01*
X212615526Y-49184926D01*
X212624624Y-49135040D01*
X212651919Y-49094312D01*
X212694737Y-49065916D01*
X212739846Y-49057920D01*
X212788389Y-49067018D01*
X212828995Y-49094312D01*
X212856472Y-49135040D01*
X212865631Y-49184926D01*
X212856472Y-49234385D01*
X212828995Y-49274808D01*
X212785588Y-49302822D01*
X212739846Y-49310711D01*
G37*
G36*
X211833949Y-48367934D02*
G01*
X211836635Y-48317442D01*
X211845918Y-48266008D01*
X211861832Y-48219487D01*
X211867899Y-48206489D01*
X211893895Y-48163335D01*
X211928310Y-48124683D01*
X211958269Y-48101465D01*
X212002233Y-48078842D01*
X212053581Y-48066117D01*
X212082833Y-48064340D01*
X212133589Y-48069436D01*
X212182991Y-48086205D01*
X212192254Y-48090963D01*
X212234346Y-48119678D01*
X212269033Y-48155906D01*
X212273098Y-48161304D01*
X212298089Y-48204223D01*
X212313527Y-48251006D01*
X212314863Y-48257536D01*
X212323385Y-48207982D01*
X212341257Y-48161045D01*
X212348080Y-48148115D01*
X212377807Y-48106809D01*
X212416976Y-48073076D01*
X212429902Y-48064829D01*
X212476956Y-48044112D01*
X212527474Y-48034364D01*
X212560083Y-48032833D01*
X212612476Y-48037031D01*
X212661578Y-48049624D01*
X212707387Y-48070614D01*
X212716154Y-48075819D01*
X212756645Y-48106025D01*
X212791412Y-48142910D01*
X212820454Y-48186473D01*
X212825575Y-48195987D01*
X212844938Y-48241430D01*
X212857964Y-48290930D01*
X212864653Y-48344487D01*
X212865631Y-48375994D01*
X212862554Y-48427905D01*
X212853323Y-48479530D01*
X212837939Y-48530869D01*
X212834124Y-48541102D01*
X212810654Y-48589784D01*
X212779932Y-48633552D01*
X212741960Y-48672406D01*
X212733496Y-48679588D01*
X212666329Y-48598499D01*
X212702859Y-48561507D01*
X212731085Y-48519195D01*
X212741311Y-48497871D01*
X212757283Y-48449962D01*
X212765113Y-48401488D01*
X212765980Y-48378925D01*
X212762545Y-48329985D01*
X212750470Y-48281715D01*
X212726857Y-48236511D01*
X212711025Y-48217236D01*
X212672791Y-48186582D01*
X212626781Y-48167281D01*
X212572995Y-48159333D01*
X212561304Y-48159106D01*
X212511906Y-48162770D01*
X212461665Y-48177653D01*
X212421165Y-48207249D01*
X212412805Y-48217725D01*
X212389165Y-48261320D01*
X212375338Y-48311842D01*
X212371284Y-48363782D01*
X212371284Y-48447069D01*
X212271632Y-48431926D01*
X212271632Y-48373796D01*
X212266394Y-48324189D01*
X212253070Y-48282937D01*
X212226159Y-48239798D01*
X212196894Y-48213084D01*
X212150811Y-48191739D01*
X212100418Y-48185729D01*
X212049062Y-48192194D01*
X212003438Y-48213992D01*
X211976343Y-48240439D01*
X211950297Y-48284517D01*
X211936272Y-48335053D01*
X211933600Y-48372330D01*
X211937430Y-48422178D01*
X211950119Y-48469729D01*
X211956803Y-48485170D01*
X211981688Y-48527365D01*
X212012999Y-48566714D01*
X212027145Y-48581891D01*
X211954605Y-48648813D01*
X211921647Y-48612612D01*
X211891508Y-48570938D01*
X211868191Y-48527737D01*
X211862526Y-48514480D01*
X211846256Y-48465096D01*
X211836740Y-48414674D01*
X211833949Y-48367934D01*
G37*
G36*
X214445980Y-53431821D02*
G01*
X214441955Y-53380362D01*
X214429880Y-53332230D01*
X214427662Y-53326064D01*
X214406290Y-53278681D01*
X214379302Y-53235205D01*
X214459413Y-53176343D01*
X214489177Y-53219815D01*
X214511714Y-53265954D01*
X214522672Y-53295533D01*
X214535744Y-53343043D01*
X214543815Y-53394082D01*
X214545631Y-53431821D01*
X214542578Y-53486043D01*
X214533419Y-53536113D01*
X214515816Y-53587478D01*
X214496782Y-53623796D01*
X214466019Y-53665471D01*
X214428956Y-53701196D01*
X214385596Y-53730970D01*
X214358785Y-53744940D01*
X214312303Y-53763106D01*
X214262004Y-53776081D01*
X214207889Y-53783866D01*
X214157408Y-53786421D01*
X214149958Y-53786461D01*
X214100892Y-53784475D01*
X214047651Y-53777338D01*
X213997433Y-53765012D01*
X213950236Y-53747495D01*
X213944549Y-53744940D01*
X213901517Y-53721691D01*
X213858835Y-53689880D01*
X213822219Y-53652079D01*
X213801179Y-53623551D01*
X213775676Y-53576078D01*
X213760014Y-53529370D01*
X213750947Y-53478419D01*
X213748422Y-53430355D01*
X213751479Y-53377487D01*
X213760650Y-53327144D01*
X213775934Y-53279325D01*
X213797332Y-53234030D01*
X213824844Y-53191260D01*
X213835373Y-53177564D01*
X213923300Y-53236427D01*
X213893988Y-53279420D01*
X213869304Y-53328383D01*
X213854024Y-53377162D01*
X213848147Y-53425759D01*
X213848073Y-53431821D01*
X213854043Y-53484051D01*
X213871953Y-53530834D01*
X213901802Y-53572168D01*
X213923545Y-53592777D01*
X213966028Y-53620346D01*
X214018250Y-53640038D01*
X214071933Y-53650807D01*
X214123883Y-53655238D01*
X214151912Y-53655792D01*
X214207067Y-53653576D01*
X214256211Y-53646930D01*
X214305949Y-53633576D01*
X214352775Y-53610931D01*
X214376615Y-53592777D01*
X214410146Y-53554470D01*
X214432703Y-53510714D01*
X214444286Y-53461510D01*
X214445980Y-53431821D01*
G37*
G36*
X214196193Y-52303009D02*
G01*
X214250071Y-52309432D01*
X214300591Y-52320526D01*
X214347753Y-52336291D01*
X214353412Y-52338590D01*
X214400918Y-52362274D01*
X214442318Y-52391561D01*
X214477614Y-52426451D01*
X214494584Y-52448255D01*
X214519260Y-52491667D01*
X214535860Y-52540295D01*
X214544385Y-52594140D01*
X214545631Y-52626308D01*
X214541801Y-52683661D01*
X214530312Y-52735553D01*
X214511164Y-52781984D01*
X214484357Y-52822954D01*
X214449890Y-52858463D01*
X214436699Y-52869085D01*
X214393350Y-52897141D01*
X214345005Y-52919392D01*
X214291661Y-52935838D01*
X214243391Y-52945109D01*
X214191651Y-52950350D01*
X214147759Y-52951639D01*
X214097564Y-52949851D01*
X214043403Y-52943428D01*
X213992661Y-52932334D01*
X213945339Y-52916569D01*
X213939665Y-52914270D01*
X213892000Y-52890449D01*
X213850672Y-52861024D01*
X213815682Y-52825997D01*
X213798981Y-52804117D01*
X213774541Y-52760411D01*
X213758100Y-52711449D01*
X213749657Y-52657233D01*
X213748422Y-52624842D01*
X213848073Y-52624842D01*
X213853889Y-52676030D01*
X213873991Y-52724067D01*
X213908452Y-52762803D01*
X213921591Y-52772609D01*
X213969124Y-52796695D01*
X214021984Y-52811487D01*
X214076425Y-52819321D01*
X214129173Y-52822240D01*
X214148004Y-52822435D01*
X214202200Y-52820709D01*
X214250849Y-52815531D01*
X214300596Y-52805128D01*
X214348204Y-52787485D01*
X214372951Y-52773342D01*
X214411463Y-52737784D01*
X214435710Y-52692780D01*
X214445338Y-52644201D01*
X214445980Y-52626308D01*
X214440184Y-52575316D01*
X214420148Y-52527631D01*
X214385802Y-52489392D01*
X214372707Y-52479762D01*
X214325113Y-52455913D01*
X214272330Y-52441266D01*
X214218056Y-52433509D01*
X214165525Y-52430618D01*
X214146782Y-52430425D01*
X214092337Y-52432143D01*
X214043491Y-52437295D01*
X213993579Y-52447646D01*
X213945867Y-52465201D01*
X213921102Y-52479274D01*
X213882591Y-52514479D01*
X213858343Y-52559034D01*
X213848715Y-52607128D01*
X213848073Y-52624842D01*
X213748422Y-52624842D01*
X213752226Y-52567598D01*
X213763638Y-52515849D01*
X213782657Y-52469596D01*
X213814462Y-52422579D01*
X213849965Y-52388232D01*
X213856622Y-52383042D01*
X213899773Y-52355236D01*
X213948076Y-52333182D01*
X214001530Y-52316882D01*
X214050012Y-52307693D01*
X214102071Y-52302499D01*
X214146294Y-52301221D01*
X214196193Y-52303009D01*
G37*
G36*
X213748422Y-51553838D02*
G01*
X213756042Y-51505509D01*
X213764542Y-51484228D01*
X213796122Y-51446867D01*
X213826336Y-51429030D01*
X213874388Y-51414337D01*
X213923490Y-51408565D01*
X213959937Y-51407536D01*
X214530000Y-51407536D01*
X214530000Y-51519399D01*
X213983140Y-51519399D01*
X213931565Y-51520851D01*
X213881848Y-51527651D01*
X213879825Y-51528192D01*
X213848570Y-51567836D01*
X213848073Y-51577529D01*
X213859808Y-51626107D01*
X213870788Y-51645184D01*
X213905264Y-51682176D01*
X213944794Y-51709665D01*
X214530000Y-51709665D01*
X214530000Y-51822505D01*
X213983140Y-51822505D01*
X213931565Y-51823916D01*
X213881848Y-51830527D01*
X213879825Y-51831053D01*
X213848570Y-51870884D01*
X213848073Y-51880635D01*
X213859808Y-51930057D01*
X213870788Y-51948778D01*
X213905264Y-51985177D01*
X213944794Y-52012526D01*
X214530000Y-52012526D01*
X214530000Y-52123900D01*
X213764054Y-52123900D01*
X213764054Y-52029134D01*
X213863705Y-52022051D01*
X213823954Y-51993507D01*
X213788005Y-51959812D01*
X213781639Y-51952686D01*
X213756727Y-51909760D01*
X213748455Y-51861199D01*
X213748422Y-51857676D01*
X213756516Y-51808233D01*
X213771381Y-51776587D01*
X213807976Y-51741756D01*
X213856435Y-51721560D01*
X213860530Y-51720411D01*
X213820365Y-51691941D01*
X213783393Y-51655625D01*
X213779441Y-51650802D01*
X213756177Y-51607144D01*
X213748453Y-51557452D01*
X213748422Y-51553838D01*
G37*
G36*
X213748422Y-50693126D02*
G01*
X213756042Y-50644797D01*
X213764542Y-50623517D01*
X213796122Y-50586155D01*
X213826336Y-50568318D01*
X213874388Y-50553625D01*
X213923490Y-50547853D01*
X213959937Y-50546824D01*
X214530000Y-50546824D01*
X214530000Y-50658688D01*
X213983140Y-50658688D01*
X213931565Y-50660139D01*
X213881848Y-50666939D01*
X213879825Y-50667480D01*
X213848570Y-50707124D01*
X213848073Y-50716817D01*
X213859808Y-50765395D01*
X213870788Y-50784473D01*
X213905264Y-50821464D01*
X213944794Y-50848953D01*
X214530000Y-50848953D01*
X214530000Y-50961793D01*
X213983140Y-50961793D01*
X213931565Y-50963204D01*
X213881848Y-50969816D01*
X213879825Y-50970341D01*
X213848570Y-51010172D01*
X213848073Y-51019923D01*
X213859808Y-51069345D01*
X213870788Y-51088066D01*
X213905264Y-51124465D01*
X213944794Y-51151814D01*
X214530000Y-51151814D01*
X214530000Y-51263189D01*
X213764054Y-51263189D01*
X213764054Y-51168422D01*
X213863705Y-51161339D01*
X213823954Y-51132795D01*
X213788005Y-51099100D01*
X213781639Y-51091974D01*
X213756727Y-51049049D01*
X213748455Y-51000488D01*
X213748422Y-50996964D01*
X213756516Y-50947521D01*
X213771381Y-50915875D01*
X213807976Y-50881044D01*
X213856435Y-50860849D01*
X213860530Y-50859699D01*
X213820365Y-50831229D01*
X213783393Y-50794913D01*
X213779441Y-50790090D01*
X213756177Y-50746432D01*
X213748453Y-50696740D01*
X213748422Y-50693126D01*
G37*
X212427693Y-65620038D02*
X212332455Y-65572419D01*
X212332455Y-65572419D02*
X212189598Y-65572419D01*
X212189598Y-65572419D02*
X212046741Y-65620038D01*
X212046741Y-65620038D02*
X211951503Y-65715276D01*
X211951503Y-65715276D02*
X211903884Y-65810514D01*
X211903884Y-65810514D02*
X211856265Y-66000990D01*
X211856265Y-66000990D02*
X211856265Y-66143847D01*
X211856265Y-66143847D02*
X211903884Y-66334323D01*
X211903884Y-66334323D02*
X211951503Y-66429561D01*
X211951503Y-66429561D02*
X212046741Y-66524800D01*
X212046741Y-66524800D02*
X212189598Y-66572419D01*
X212189598Y-66572419D02*
X212284836Y-66572419D01*
X212284836Y-66572419D02*
X212427693Y-66524800D01*
X212427693Y-66524800D02*
X212475312Y-66477180D01*
X212475312Y-66477180D02*
X212475312Y-66143847D01*
X212475312Y-66143847D02*
X212284836Y-66143847D01*
X212903884Y-66572419D02*
X212903884Y-65572419D01*
X212903884Y-65572419D02*
X213475312Y-66572419D01*
X213475312Y-66572419D02*
X213475312Y-65572419D01*
X213951503Y-66572419D02*
X213951503Y-65572419D01*
X213951503Y-65572419D02*
X214189598Y-65572419D01*
X214189598Y-65572419D02*
X214332455Y-65620038D01*
X214332455Y-65620038D02*
X214427693Y-65715276D01*
X214427693Y-65715276D02*
X214475312Y-65810514D01*
X214475312Y-65810514D02*
X214522931Y-66000990D01*
X214522931Y-66000990D02*
X214522931Y-66143847D01*
X214522931Y-66143847D02*
X214475312Y-66334323D01*
X214475312Y-66334323D02*
X214427693Y-66429561D01*
X214427693Y-66429561D02*
X214332455Y-66524800D01*
X214332455Y-66524800D02*
X214189598Y-66572419D01*
X214189598Y-66572419D02*
X213951503Y-66572419D01*
X210703884Y-63591466D02*
X211465789Y-63591466D01*
X211084836Y-63972419D02*
X211084836Y-63210514D01*
X211846741Y-62972419D02*
X212465788Y-62972419D01*
X212465788Y-62972419D02*
X212132455Y-63353371D01*
X212132455Y-63353371D02*
X212275312Y-63353371D01*
X212275312Y-63353371D02*
X212370550Y-63400990D01*
X212370550Y-63400990D02*
X212418169Y-63448609D01*
X212418169Y-63448609D02*
X212465788Y-63543847D01*
X212465788Y-63543847D02*
X212465788Y-63781942D01*
X212465788Y-63781942D02*
X212418169Y-63877180D01*
X212418169Y-63877180D02*
X212370550Y-63924800D01*
X212370550Y-63924800D02*
X212275312Y-63972419D01*
X212275312Y-63972419D02*
X211989598Y-63972419D01*
X211989598Y-63972419D02*
X211894360Y-63924800D01*
X211894360Y-63924800D02*
X211846741Y-63877180D01*
X212894360Y-63877180D02*
X212941979Y-63924800D01*
X212941979Y-63924800D02*
X212894360Y-63972419D01*
X212894360Y-63972419D02*
X212846741Y-63924800D01*
X212846741Y-63924800D02*
X212894360Y-63877180D01*
X212894360Y-63877180D02*
X212894360Y-63972419D01*
X213275312Y-62972419D02*
X213894359Y-62972419D01*
X213894359Y-62972419D02*
X213561026Y-63353371D01*
X213561026Y-63353371D02*
X213703883Y-63353371D01*
X213703883Y-63353371D02*
X213799121Y-63400990D01*
X213799121Y-63400990D02*
X213846740Y-63448609D01*
X213846740Y-63448609D02*
X213894359Y-63543847D01*
X213894359Y-63543847D02*
X213894359Y-63781942D01*
X213894359Y-63781942D02*
X213846740Y-63877180D01*
X213846740Y-63877180D02*
X213799121Y-63924800D01*
X213799121Y-63924800D02*
X213703883Y-63972419D01*
X213703883Y-63972419D02*
X213418169Y-63972419D01*
X213418169Y-63972419D02*
X213322931Y-63924800D01*
X213322931Y-63924800D02*
X213275312Y-63877180D01*
X214180074Y-62972419D02*
X214513407Y-63972419D01*
X214513407Y-63972419D02*
X214846740Y-62972419D01*
G36*
X212409481Y-45746819D02*
G01*
X212466309Y-45750678D01*
X212519543Y-45757108D01*
X212569181Y-45766111D01*
X212626174Y-45780981D01*
X212677550Y-45799871D01*
X212723308Y-45822779D01*
X212731786Y-45827843D01*
X212777272Y-45861331D01*
X212813348Y-45900246D01*
X212840012Y-45944587D01*
X212857266Y-45994356D01*
X212865108Y-46049551D01*
X212865631Y-46069155D01*
X212860926Y-46126251D01*
X212846809Y-46177920D01*
X212823282Y-46224162D01*
X212790343Y-46264977D01*
X212747994Y-46300365D01*
X212731786Y-46310956D01*
X212687151Y-46334597D01*
X212636899Y-46354232D01*
X212581029Y-46369860D01*
X212532289Y-46379477D01*
X212479955Y-46386530D01*
X212424025Y-46391018D01*
X212364500Y-46392941D01*
X212349057Y-46393021D01*
X212288813Y-46391739D01*
X212232157Y-46387892D01*
X212179087Y-46381481D01*
X212129605Y-46372505D01*
X212072797Y-46357678D01*
X212021595Y-46338845D01*
X211975997Y-46316004D01*
X211967550Y-46310956D01*
X211922147Y-46277376D01*
X211886137Y-46238370D01*
X211859521Y-46193936D01*
X211842299Y-46144077D01*
X211834471Y-46088790D01*
X211833949Y-46069155D01*
X211933600Y-46069155D01*
X211941309Y-46117466D01*
X211967956Y-46163939D01*
X212008213Y-46199279D01*
X212031053Y-46213014D01*
X212079649Y-46233380D01*
X212130792Y-46246856D01*
X212180101Y-46255278D01*
X212235492Y-46261148D01*
X212296965Y-46264465D01*
X212350523Y-46265282D01*
X212400619Y-46264668D01*
X212456169Y-46262309D01*
X212506739Y-46258182D01*
X212559442Y-46251131D01*
X212611374Y-46240125D01*
X212005896Y-45937752D01*
X211967771Y-45970105D01*
X211942143Y-46014839D01*
X211933671Y-46063821D01*
X211933600Y-46069155D01*
X211833949Y-46069155D01*
X211838646Y-46012151D01*
X211852737Y-45960574D01*
X211876221Y-45914423D01*
X211889134Y-45898429D01*
X212095533Y-45898429D01*
X212702965Y-46199092D01*
X212738842Y-46163352D01*
X212759826Y-46118261D01*
X212765980Y-46069155D01*
X212758349Y-46020628D01*
X212731968Y-45974050D01*
X212692116Y-45938737D01*
X212669504Y-45925052D01*
X212621345Y-45904591D01*
X212570764Y-45891052D01*
X212522054Y-45882591D01*
X212467381Y-45876693D01*
X212406745Y-45873360D01*
X212353942Y-45872540D01*
X212304035Y-45873172D01*
X212248805Y-45875599D01*
X212198659Y-45879846D01*
X212146580Y-45887103D01*
X212095533Y-45898429D01*
X211889134Y-45898429D01*
X211909100Y-45873700D01*
X211951372Y-45838403D01*
X211967550Y-45827843D01*
X212012027Y-45804131D01*
X212062108Y-45784438D01*
X212117795Y-45768763D01*
X212166380Y-45759118D01*
X212218553Y-45752044D01*
X212274313Y-45747543D01*
X212333660Y-45745614D01*
X212349057Y-45745533D01*
X212409481Y-45746819D01*
G37*
G36*
X212739846Y-45335694D02*
G01*
X212689242Y-45325561D01*
X212651919Y-45299790D01*
X212623523Y-45256542D01*
X212615526Y-45209909D01*
X212624624Y-45160022D01*
X212651919Y-45119295D01*
X212694737Y-45090899D01*
X212739846Y-45082903D01*
X212788389Y-45092001D01*
X212828995Y-45119295D01*
X212856472Y-45160022D01*
X212865631Y-45209909D01*
X212856472Y-45259368D01*
X212828995Y-45299790D01*
X212785588Y-45327805D01*
X212739846Y-45335694D01*
G37*
G36*
X212739846Y-44474982D02*
G01*
X212689242Y-44464849D01*
X212651919Y-44439078D01*
X212623523Y-44395830D01*
X212615526Y-44349197D01*
X212624624Y-44299310D01*
X212651919Y-44258583D01*
X212694737Y-44230187D01*
X212739846Y-44222191D01*
X212788389Y-44231289D01*
X212828995Y-44258583D01*
X212856472Y-44299310D01*
X212865631Y-44349197D01*
X212856472Y-44398656D01*
X212828995Y-44439078D01*
X212785588Y-44467093D01*
X212739846Y-44474982D01*
G37*
G36*
X212739846Y-43614270D02*
G01*
X212689242Y-43604137D01*
X212651919Y-43578367D01*
X212623523Y-43535118D01*
X212615526Y-43488485D01*
X212624624Y-43438599D01*
X212651919Y-43397871D01*
X212694737Y-43369475D01*
X212739846Y-43361479D01*
X212788389Y-43370577D01*
X212828995Y-43397871D01*
X212856472Y-43438599D01*
X212865631Y-43488485D01*
X212856472Y-43537944D01*
X212828995Y-43578367D01*
X212785588Y-43606381D01*
X212739846Y-43614270D01*
G37*
G36*
X212739846Y-42753558D02*
G01*
X212689242Y-42743425D01*
X212651919Y-42717655D01*
X212623523Y-42674406D01*
X212615526Y-42627773D01*
X212624624Y-42577887D01*
X212651919Y-42537159D01*
X212694737Y-42508763D01*
X212739846Y-42500767D01*
X212788389Y-42509865D01*
X212828995Y-42537159D01*
X212856472Y-42577887D01*
X212865631Y-42627773D01*
X212856472Y-42677233D01*
X212828995Y-42717655D01*
X212785588Y-42745669D01*
X212739846Y-42753558D01*
G37*
G36*
X212739846Y-41892847D02*
G01*
X212689242Y-41882714D01*
X212651919Y-41856943D01*
X212623523Y-41813694D01*
X212615526Y-41767062D01*
X212624624Y-41717175D01*
X212651919Y-41676448D01*
X212694737Y-41648052D01*
X212739846Y-41640055D01*
X212788389Y-41649153D01*
X212828995Y-41676448D01*
X212856472Y-41717175D01*
X212865631Y-41767062D01*
X212856472Y-41816521D01*
X212828995Y-41856943D01*
X212785588Y-41884958D01*
X212739846Y-41892847D01*
G37*
G36*
X212739846Y-41032135D02*
G01*
X212689242Y-41022002D01*
X212651919Y-40996231D01*
X212623523Y-40952983D01*
X212615526Y-40906350D01*
X212624624Y-40856463D01*
X212651919Y-40815736D01*
X212694737Y-40787340D01*
X212739846Y-40779344D01*
X212788389Y-40788442D01*
X212828995Y-40815736D01*
X212856472Y-40856463D01*
X212865631Y-40906350D01*
X212856472Y-40955809D01*
X212828995Y-40996231D01*
X212785588Y-41024246D01*
X212739846Y-41032135D01*
G37*
G36*
X212739846Y-40171423D02*
G01*
X212689242Y-40161290D01*
X212651919Y-40135519D01*
X212623523Y-40092271D01*
X212615526Y-40045638D01*
X212624624Y-39995751D01*
X212651919Y-39955024D01*
X212694737Y-39926628D01*
X212739846Y-39918632D01*
X212788389Y-39927730D01*
X212828995Y-39955024D01*
X212856472Y-39995751D01*
X212865631Y-40045638D01*
X212856472Y-40095097D01*
X212828995Y-40135519D01*
X212785588Y-40163534D01*
X212739846Y-40171423D01*
G37*
G36*
X212739846Y-39310711D02*
G01*
X212689242Y-39300578D01*
X212651919Y-39274808D01*
X212623523Y-39231559D01*
X212615526Y-39184926D01*
X212624624Y-39135040D01*
X212651919Y-39094312D01*
X212694737Y-39065916D01*
X212739846Y-39057920D01*
X212788389Y-39067018D01*
X212828995Y-39094312D01*
X212856472Y-39135040D01*
X212865631Y-39184926D01*
X212856472Y-39234385D01*
X212828995Y-39274808D01*
X212785588Y-39302822D01*
X212739846Y-39310711D01*
G37*
G36*
X212739846Y-38450000D02*
G01*
X212689242Y-38439867D01*
X212651919Y-38414096D01*
X212623523Y-38370847D01*
X212615526Y-38324214D01*
X212624624Y-38274328D01*
X212651919Y-38233600D01*
X212694737Y-38205204D01*
X212739846Y-38197208D01*
X212788389Y-38206306D01*
X212828995Y-38233600D01*
X212856472Y-38274328D01*
X212865631Y-38324214D01*
X212856472Y-38373674D01*
X212828995Y-38414096D01*
X212785588Y-38442111D01*
X212739846Y-38450000D01*
G37*
G36*
X212739846Y-37589288D02*
G01*
X212689242Y-37579155D01*
X212651919Y-37553384D01*
X212623523Y-37510135D01*
X212615526Y-37463503D01*
X212624624Y-37413616D01*
X212651919Y-37372889D01*
X212694737Y-37344493D01*
X212739846Y-37336496D01*
X212788389Y-37345594D01*
X212828995Y-37372889D01*
X212856472Y-37413616D01*
X212865631Y-37463503D01*
X212856472Y-37512962D01*
X212828995Y-37553384D01*
X212785588Y-37581399D01*
X212739846Y-37589288D01*
G37*
G36*
X212739846Y-36728576D02*
G01*
X212689242Y-36718443D01*
X212651919Y-36692672D01*
X212623523Y-36649424D01*
X212615526Y-36602791D01*
X212624624Y-36552904D01*
X212651919Y-36512177D01*
X212694737Y-36483781D01*
X212739846Y-36475785D01*
X212788389Y-36484883D01*
X212828995Y-36512177D01*
X212856472Y-36552904D01*
X212865631Y-36602791D01*
X212856472Y-36652250D01*
X212828995Y-36692672D01*
X212785588Y-36720687D01*
X212739846Y-36728576D01*
G37*
G36*
X212739846Y-35867864D02*
G01*
X212689242Y-35857731D01*
X212651919Y-35831960D01*
X212623523Y-35788712D01*
X212615526Y-35742079D01*
X212624624Y-35692192D01*
X212651919Y-35651465D01*
X212694737Y-35623069D01*
X212739846Y-35615073D01*
X212788389Y-35624171D01*
X212828995Y-35651465D01*
X212856472Y-35692192D01*
X212865631Y-35742079D01*
X212856472Y-35791538D01*
X212828995Y-35831960D01*
X212785588Y-35859975D01*
X212739846Y-35867864D01*
G37*
G36*
X212739846Y-35007152D02*
G01*
X212689242Y-34997019D01*
X212651919Y-34971249D01*
X212623523Y-34928000D01*
X212615526Y-34881367D01*
X212624624Y-34831481D01*
X212651919Y-34790753D01*
X212694737Y-34762357D01*
X212739846Y-34754361D01*
X212788389Y-34763459D01*
X212828995Y-34790753D01*
X212856472Y-34831481D01*
X212865631Y-34881367D01*
X212856472Y-34930826D01*
X212828995Y-34971249D01*
X212785588Y-34999263D01*
X212739846Y-35007152D01*
G37*
G36*
X212739846Y-34146441D02*
G01*
X212689242Y-34136308D01*
X212651919Y-34110537D01*
X212623523Y-34067288D01*
X212615526Y-34020655D01*
X212624624Y-33970769D01*
X212651919Y-33930041D01*
X212694737Y-33901646D01*
X212739846Y-33893649D01*
X212788389Y-33902747D01*
X212828995Y-33930041D01*
X212856472Y-33970769D01*
X212865631Y-34020655D01*
X212856472Y-34070115D01*
X212828995Y-34110537D01*
X212785588Y-34138552D01*
X212739846Y-34146441D01*
G37*
G36*
X212739846Y-33285729D02*
G01*
X212689242Y-33275596D01*
X212651919Y-33249825D01*
X212623523Y-33206576D01*
X212615526Y-33159944D01*
X212624624Y-33110057D01*
X212651919Y-33069330D01*
X212694737Y-33040934D01*
X212739846Y-33032937D01*
X212788389Y-33042035D01*
X212828995Y-33069330D01*
X212856472Y-33110057D01*
X212865631Y-33159944D01*
X212856472Y-33209403D01*
X212828995Y-33249825D01*
X212785588Y-33277840D01*
X212739846Y-33285729D01*
G37*
G36*
X212739846Y-32425017D02*
G01*
X212689242Y-32414884D01*
X212651919Y-32389113D01*
X212623523Y-32345865D01*
X212615526Y-32299232D01*
X212624624Y-32249345D01*
X212651919Y-32208618D01*
X212694737Y-32180222D01*
X212739846Y-32172226D01*
X212788389Y-32181324D01*
X212828995Y-32208618D01*
X212856472Y-32249345D01*
X212865631Y-32299232D01*
X212856472Y-32348691D01*
X212828995Y-32389113D01*
X212785588Y-32417128D01*
X212739846Y-32425017D01*
G37*
G36*
X212739846Y-31564305D02*
G01*
X212689242Y-31554172D01*
X212651919Y-31528401D01*
X212623523Y-31485153D01*
X212615526Y-31438520D01*
X212624624Y-31388633D01*
X212651919Y-31347906D01*
X212694737Y-31319510D01*
X212739846Y-31311514D01*
X212788389Y-31320612D01*
X212828995Y-31347906D01*
X212856472Y-31388633D01*
X212865631Y-31438520D01*
X212856472Y-31487979D01*
X212828995Y-31528401D01*
X212785588Y-31556416D01*
X212739846Y-31564305D01*
G37*
G36*
X212739846Y-30703593D02*
G01*
X212689242Y-30693460D01*
X212651919Y-30667690D01*
X212623523Y-30624441D01*
X212615526Y-30577808D01*
X212624624Y-30527922D01*
X212651919Y-30487194D01*
X212694737Y-30458798D01*
X212739846Y-30450802D01*
X212788389Y-30459900D01*
X212828995Y-30487194D01*
X212856472Y-30527922D01*
X212865631Y-30577808D01*
X212856472Y-30627267D01*
X212828995Y-30667690D01*
X212785588Y-30695704D01*
X212739846Y-30703593D01*
G37*
G36*
X212739846Y-29842882D02*
G01*
X212689242Y-29832749D01*
X212651919Y-29806978D01*
X212623523Y-29763729D01*
X212615526Y-29717096D01*
X212624624Y-29667210D01*
X212651919Y-29626482D01*
X212694737Y-29598087D01*
X212739846Y-29590090D01*
X212788389Y-29599188D01*
X212828995Y-29626482D01*
X212856472Y-29667210D01*
X212865631Y-29717096D01*
X212856472Y-29766556D01*
X212828995Y-29806978D01*
X212785588Y-29834993D01*
X212739846Y-29842882D01*
G37*
G36*
X212739846Y-28982170D02*
G01*
X212689242Y-28972037D01*
X212651919Y-28946266D01*
X212623523Y-28903017D01*
X212615526Y-28856385D01*
X212624624Y-28806498D01*
X212651919Y-28765771D01*
X212694737Y-28737375D01*
X212739846Y-28729378D01*
X212788389Y-28738476D01*
X212828995Y-28765771D01*
X212856472Y-28806498D01*
X212865631Y-28856385D01*
X212856472Y-28905844D01*
X212828995Y-28946266D01*
X212785588Y-28974281D01*
X212739846Y-28982170D01*
G37*
G36*
X212861723Y-28094103D02*
G01*
X212827285Y-28206699D01*
X211949232Y-27821284D01*
X211949232Y-28285101D01*
X211849581Y-28285101D01*
X211849581Y-27699895D01*
X211941416Y-27699895D01*
X212861723Y-28094103D01*
G37*
G36*
X214195633Y-40573373D02*
G01*
X214249073Y-40579250D01*
X214299368Y-40589402D01*
X214346518Y-40603827D01*
X214352191Y-40605931D01*
X214399952Y-40627735D01*
X214441569Y-40654678D01*
X214480605Y-40690641D01*
X214494096Y-40706803D01*
X214521273Y-40751507D01*
X214538384Y-40802268D01*
X214545178Y-40853133D01*
X214545631Y-40871179D01*
X214541038Y-40925956D01*
X214527258Y-40975310D01*
X214504293Y-41019242D01*
X214472141Y-41057750D01*
X214449644Y-41077320D01*
X214530000Y-41085868D01*
X214530000Y-41191381D01*
X213456064Y-41191381D01*
X213440921Y-41070725D01*
X213871032Y-41070725D01*
X213830812Y-41038142D01*
X213798080Y-41001574D01*
X213780418Y-40974982D01*
X213759702Y-40928719D01*
X213749950Y-40881193D01*
X213848073Y-40881193D01*
X213854604Y-40930091D01*
X213876242Y-40977162D01*
X213887641Y-40992568D01*
X213921200Y-41028679D01*
X213960496Y-41060896D01*
X213975324Y-41070725D01*
X214348527Y-41070725D01*
X214386702Y-41039813D01*
X214418194Y-40999269D01*
X214419846Y-40996475D01*
X214439446Y-40949886D01*
X214445980Y-40900000D01*
X214440145Y-40850152D01*
X214419976Y-40802877D01*
X214385401Y-40764142D01*
X214372219Y-40754187D01*
X214324507Y-40729511D01*
X214271651Y-40714356D01*
X214217338Y-40706330D01*
X214164793Y-40703339D01*
X214146050Y-40703140D01*
X214092798Y-40704705D01*
X214029944Y-40711660D01*
X213976401Y-40724179D01*
X213922568Y-40747653D01*
X213883284Y-40779821D01*
X213855348Y-40829898D01*
X213848073Y-40881193D01*
X213749950Y-40881193D01*
X213749547Y-40879231D01*
X213748422Y-40855303D01*
X213752325Y-40801497D01*
X213764033Y-40753834D01*
X213786196Y-40708082D01*
X213797759Y-40691905D01*
X213832555Y-40656117D01*
X213875268Y-40626913D01*
X213920481Y-40606258D01*
X213936978Y-40600558D01*
X213989775Y-40586626D01*
X214040696Y-40578070D01*
X214095372Y-40573116D01*
X214146294Y-40571737D01*
X214195633Y-40573373D01*
G37*
G36*
X214196193Y-39720874D02*
G01*
X214250071Y-39727296D01*
X214300591Y-39738390D01*
X214347753Y-39754155D01*
X214353412Y-39756454D01*
X214400918Y-39780139D01*
X214442318Y-39809426D01*
X214477614Y-39844315D01*
X214494584Y-39866120D01*
X214519260Y-39909532D01*
X214535860Y-39958160D01*
X214544385Y-40012005D01*
X214545631Y-40044173D01*
X214541801Y-40101526D01*
X214530312Y-40153418D01*
X214511164Y-40199849D01*
X214484357Y-40240819D01*
X214449890Y-40276327D01*
X214436699Y-40286950D01*
X214393350Y-40315005D01*
X214345005Y-40337256D01*
X214291661Y-40353703D01*
X214243391Y-40362974D01*
X214191651Y-40368214D01*
X214147759Y-40369504D01*
X214097564Y-40367716D01*
X214043403Y-40361293D01*
X213992661Y-40350199D01*
X213945339Y-40334434D01*
X213939665Y-40332135D01*
X213892000Y-40308313D01*
X213850672Y-40278889D01*
X213815682Y-40243862D01*
X213798981Y-40221981D01*
X213774541Y-40178275D01*
X213758100Y-40129314D01*
X213749657Y-40075098D01*
X213748422Y-40042707D01*
X213848073Y-40042707D01*
X213853889Y-40093894D01*
X213873991Y-40141932D01*
X213908452Y-40180667D01*
X213921591Y-40190474D01*
X213969124Y-40214560D01*
X214021984Y-40229352D01*
X214076425Y-40237185D01*
X214129173Y-40240105D01*
X214148004Y-40240300D01*
X214202200Y-40238574D01*
X214250849Y-40233396D01*
X214300596Y-40222992D01*
X214348204Y-40205350D01*
X214372951Y-40191207D01*
X214411463Y-40155648D01*
X214435710Y-40110645D01*
X214445338Y-40062066D01*
X214445980Y-40044173D01*
X214440184Y-39993181D01*
X214420148Y-39945496D01*
X214385802Y-39907257D01*
X214372707Y-39897627D01*
X214325113Y-39873777D01*
X214272330Y-39859130D01*
X214218056Y-39851373D01*
X214165525Y-39848483D01*
X214146782Y-39848290D01*
X214092337Y-39850007D01*
X214043491Y-39855159D01*
X213993579Y-39865511D01*
X213945867Y-39883066D01*
X213921102Y-39897138D01*
X213882591Y-39932344D01*
X213858343Y-39976899D01*
X213848715Y-40024993D01*
X213848073Y-40042707D01*
X213748422Y-40042707D01*
X213752226Y-39985463D01*
X213763638Y-39933714D01*
X213782657Y-39887460D01*
X213814462Y-39840443D01*
X213849965Y-39806097D01*
X213856622Y-39800907D01*
X213899773Y-39773100D01*
X213948076Y-39751047D01*
X214001530Y-39734746D01*
X214050012Y-39725558D01*
X214102071Y-39720364D01*
X214146294Y-39719085D01*
X214196193Y-39720874D01*
G37*
G36*
X214545875Y-38896475D02*
G01*
X214533026Y-38944740D01*
X214512414Y-38981716D01*
X214476217Y-39014990D01*
X214431570Y-39034961D01*
X214469889Y-39068472D01*
X214500584Y-39107822D01*
X214516810Y-39137299D01*
X214534373Y-39184961D01*
X214543830Y-39235988D01*
X214545631Y-39271877D01*
X214541571Y-39325549D01*
X214529389Y-39373237D01*
X214505977Y-39419734D01*
X214480662Y-39450662D01*
X214440619Y-39482186D01*
X214393851Y-39503393D01*
X214340361Y-39514283D01*
X214307739Y-39515875D01*
X214258162Y-39511516D01*
X214208058Y-39495858D01*
X214164945Y-39468812D01*
X214128824Y-39430378D01*
X214124801Y-39424773D01*
X214099962Y-39381023D01*
X214081223Y-39329490D01*
X214070018Y-39279124D01*
X214063294Y-39223039D01*
X214061115Y-39171932D01*
X214061053Y-39161235D01*
X214061053Y-39159036D01*
X214139211Y-39159036D01*
X214141315Y-39210217D01*
X214148871Y-39260066D01*
X214166044Y-39309410D01*
X214183175Y-39335380D01*
X214223655Y-39368589D01*
X214274051Y-39384868D01*
X214300655Y-39386671D01*
X214350043Y-39381545D01*
X214399998Y-39358761D01*
X214431788Y-39317751D01*
X214444703Y-39266916D01*
X214445980Y-39240858D01*
X214439701Y-39189603D01*
X214420864Y-39140709D01*
X214417404Y-39134368D01*
X214387931Y-39093355D01*
X214349951Y-39058794D01*
X214337536Y-39050104D01*
X214139211Y-39050104D01*
X214139211Y-39159036D01*
X214061053Y-39159036D01*
X214061053Y-39050104D01*
X213998039Y-39050104D01*
X213947443Y-39055761D01*
X213902234Y-39077032D01*
X213882267Y-39097976D01*
X213860128Y-39142760D01*
X213849710Y-39194904D01*
X213848073Y-39230111D01*
X213851259Y-39279051D01*
X213857110Y-39317794D01*
X213868159Y-39366842D01*
X213883119Y-39416009D01*
X213886908Y-39426971D01*
X213795561Y-39458478D01*
X213779690Y-39412020D01*
X213766393Y-39363380D01*
X213759169Y-39328297D01*
X213752211Y-39279336D01*
X213748685Y-39228953D01*
X213748422Y-39211549D01*
X213750758Y-39161239D01*
X213759387Y-39108731D01*
X213777033Y-39056879D01*
X213802984Y-39013728D01*
X213814856Y-38999790D01*
X213855759Y-38965433D01*
X213904003Y-38942320D01*
X213953050Y-38931214D01*
X213993642Y-38928715D01*
X214357564Y-38928715D01*
X214407317Y-38922194D01*
X214424731Y-38913572D01*
X214453174Y-38872686D01*
X214455017Y-38866922D01*
X214545875Y-38896475D01*
G37*
G36*
X214530000Y-38602163D02*
G01*
X214430348Y-38602163D01*
X214430348Y-38484438D01*
X213857843Y-38484438D01*
X213857843Y-38602163D01*
X213764054Y-38602163D01*
X213764054Y-38392358D01*
X213944794Y-38370132D01*
X213900555Y-38347112D01*
X213857137Y-38318441D01*
X213816779Y-38283141D01*
X213799713Y-38264131D01*
X213772665Y-38221116D01*
X213755635Y-38170231D01*
X213748873Y-38117704D01*
X213748422Y-38098778D01*
X213751788Y-38048876D01*
X213752819Y-38042602D01*
X213763629Y-37993417D01*
X213764054Y-37991800D01*
X214021242Y-38009141D01*
X214021242Y-38108060D01*
X213857843Y-38108060D01*
X213857843Y-38114654D01*
X213864027Y-38166525D01*
X213882578Y-38213601D01*
X213913495Y-38255883D01*
X213956781Y-38293371D01*
X214000313Y-38319910D01*
X214051761Y-38343380D01*
X214111123Y-38363782D01*
X214430348Y-38363782D01*
X214430348Y-38210153D01*
X214530000Y-38210153D01*
X214530000Y-38602163D01*
G37*
G36*
X214530000Y-37281297D02*
G01*
X214427173Y-37292777D01*
X214465453Y-37323327D01*
X214498392Y-37360078D01*
X214517055Y-37389986D01*
X214535557Y-37435845D01*
X214544626Y-37484124D01*
X214545631Y-37507222D01*
X214541670Y-37559865D01*
X214527979Y-37611967D01*
X214504509Y-37657342D01*
X214495561Y-37669644D01*
X214460404Y-37706290D01*
X214417518Y-37736543D01*
X214372314Y-37758306D01*
X214355854Y-37764410D01*
X214303154Y-37779286D01*
X214252481Y-37788422D01*
X214198206Y-37793712D01*
X214147759Y-37795184D01*
X214098706Y-37793501D01*
X214045507Y-37787456D01*
X213995360Y-37777015D01*
X213948267Y-37762177D01*
X213942595Y-37760013D01*
X213894815Y-37737757D01*
X213853140Y-37710554D01*
X213813994Y-37674528D01*
X213800446Y-37658408D01*
X213773012Y-37614263D01*
X213755738Y-37564871D01*
X213748880Y-37515931D01*
X213748422Y-37498674D01*
X213751048Y-37467166D01*
X213848073Y-37467166D01*
X213853966Y-37517014D01*
X213874336Y-37564288D01*
X213909255Y-37603024D01*
X213922568Y-37612979D01*
X213970518Y-37637537D01*
X214023293Y-37652619D01*
X214077311Y-37660607D01*
X214129435Y-37663583D01*
X214148004Y-37663782D01*
X214201255Y-37662187D01*
X214264110Y-37655098D01*
X214317652Y-37642338D01*
X214371486Y-37618414D01*
X214410770Y-37585628D01*
X214438705Y-37534589D01*
X214445980Y-37482309D01*
X214440014Y-37433299D01*
X214420246Y-37387191D01*
X214409832Y-37372400D01*
X214376239Y-37335214D01*
X214335889Y-37302012D01*
X214327278Y-37296196D01*
X213950900Y-37296196D01*
X213909934Y-37328067D01*
X213876885Y-37368215D01*
X213875184Y-37370935D01*
X213854851Y-37416852D01*
X213848073Y-37467166D01*
X213751048Y-37467166D01*
X213752805Y-37446075D01*
X213765953Y-37398129D01*
X213791713Y-37349028D01*
X213823645Y-37311049D01*
X213840013Y-37296196D01*
X213440921Y-37296196D01*
X213456064Y-37175540D01*
X214530000Y-37175540D01*
X214530000Y-37281297D01*
G37*
G36*
X214445980Y-35770167D02*
G01*
X214442784Y-35719038D01*
X214431885Y-35671282D01*
X214413251Y-35632414D01*
X214377470Y-35596300D01*
X214328064Y-35582149D01*
X214324591Y-35582100D01*
X214274831Y-35590484D01*
X214264996Y-35594801D01*
X214229275Y-35628323D01*
X214218590Y-35646092D01*
X214199234Y-35691447D01*
X214183904Y-35740946D01*
X214177557Y-35765038D01*
X214163373Y-35816515D01*
X214147689Y-35863143D01*
X214132128Y-35901325D01*
X214106529Y-35946853D01*
X214072565Y-35984738D01*
X214064961Y-35990963D01*
X214020615Y-36013928D01*
X213969444Y-36022677D01*
X213957250Y-36022958D01*
X213906071Y-36016660D01*
X213856774Y-35994888D01*
X213819218Y-35961997D01*
X213804598Y-35943335D01*
X213780021Y-35900409D01*
X213762466Y-35851500D01*
X213751933Y-35796606D01*
X213748477Y-35743666D01*
X213748422Y-35735729D01*
X213750393Y-35686220D01*
X213757205Y-35635607D01*
X213770318Y-35585276D01*
X213773335Y-35576727D01*
X213793462Y-35528687D01*
X213818522Y-35483156D01*
X213833419Y-35461444D01*
X213924277Y-35514445D01*
X213895712Y-35556380D01*
X213872299Y-35602501D01*
X213869567Y-35608967D01*
X213854874Y-35658555D01*
X213848829Y-35707533D01*
X213848073Y-35734263D01*
X213850816Y-35784796D01*
X213862584Y-35835440D01*
X213876161Y-35860537D01*
X213914995Y-35891739D01*
X213948213Y-35897906D01*
X213995642Y-35885813D01*
X214004389Y-35879588D01*
X214033717Y-35840133D01*
X214043956Y-35817550D01*
X214061019Y-35769264D01*
X214075828Y-35720126D01*
X214082302Y-35696894D01*
X214097105Y-35648238D01*
X214115229Y-35600227D01*
X214130174Y-35567690D01*
X214157596Y-35524112D01*
X214194240Y-35487902D01*
X214202470Y-35481960D01*
X214249993Y-35460047D01*
X214300644Y-35451907D01*
X214317997Y-35451430D01*
X214370138Y-35456856D01*
X214418790Y-35475151D01*
X214449644Y-35497348D01*
X214483532Y-35535598D01*
X214509727Y-35581474D01*
X214522916Y-35616294D01*
X214535849Y-35667315D01*
X214543413Y-35720298D01*
X214545631Y-35770167D01*
X214543769Y-35819565D01*
X214537221Y-35870613D01*
X214524418Y-35921713D01*
X214515833Y-35945045D01*
X214493876Y-35991839D01*
X214466564Y-36036632D01*
X214443782Y-36065945D01*
X214364403Y-35997069D01*
X214393628Y-35955481D01*
X214417617Y-35908939D01*
X214423510Y-35894731D01*
X214438058Y-35846248D01*
X214445190Y-35794862D01*
X214445980Y-35770167D01*
G37*
G36*
X214168276Y-34561653D02*
G01*
X214186106Y-34563363D01*
X214186106Y-35071632D01*
X214241988Y-35066655D01*
X214290811Y-35055998D01*
X214337965Y-35036863D01*
X214379993Y-35006468D01*
X214383942Y-35002512D01*
X214416657Y-34959970D01*
X214437256Y-34912943D01*
X214445738Y-34861433D01*
X214445980Y-34850593D01*
X214442223Y-34798618D01*
X214429935Y-34748739D01*
X214428883Y-34745812D01*
X214407634Y-34698246D01*
X214382229Y-34655123D01*
X214378080Y-34648848D01*
X214458681Y-34592184D01*
X214486799Y-34633652D01*
X214509972Y-34679653D01*
X214522672Y-34712840D01*
X214535744Y-34760035D01*
X214543815Y-34812310D01*
X214545631Y-34852058D01*
X214542502Y-34905181D01*
X214533114Y-34954152D01*
X214515071Y-35004281D01*
X214495561Y-35039637D01*
X214464267Y-35080172D01*
X214426713Y-35114950D01*
X214382900Y-35143971D01*
X214355854Y-35157606D01*
X214309234Y-35175344D01*
X214259012Y-35188014D01*
X214205187Y-35195616D01*
X214155135Y-35198111D01*
X214147759Y-35198150D01*
X214098158Y-35196210D01*
X214044562Y-35189242D01*
X213994263Y-35177205D01*
X213947262Y-35160100D01*
X213941618Y-35157606D01*
X213893975Y-35132016D01*
X213852437Y-35101131D01*
X213817005Y-35064954D01*
X213799958Y-35042568D01*
X213775046Y-34998715D01*
X213758287Y-34950690D01*
X213749681Y-34898492D01*
X213748422Y-34867690D01*
X213748525Y-34866224D01*
X213848073Y-34866224D01*
X213853893Y-34916089D01*
X213873739Y-34964824D01*
X213904002Y-35003569D01*
X213907669Y-35007152D01*
X213951308Y-35037726D01*
X214001514Y-35056962D01*
X214054836Y-35067476D01*
X214092316Y-35070900D01*
X214092316Y-34676692D01*
X214042084Y-34679991D01*
X213991716Y-34689486D01*
X213944030Y-34707466D01*
X213909623Y-34729937D01*
X213874580Y-34769072D01*
X213854084Y-34816288D01*
X213848073Y-34866224D01*
X213748525Y-34866224D01*
X213752020Y-34816247D01*
X213765312Y-34761635D01*
X213788398Y-34712844D01*
X213821278Y-34669872D01*
X213850760Y-34642742D01*
X213891707Y-34614770D01*
X213937978Y-34592584D01*
X213989572Y-34576187D01*
X214046490Y-34565577D01*
X214097989Y-34561156D01*
X214130662Y-34560432D01*
X214168276Y-34561653D01*
G37*
G36*
X213451423Y-34011374D02*
G01*
X214341444Y-34011374D01*
X214390109Y-34002704D01*
X214422288Y-33976692D01*
X214441445Y-33930985D01*
X214445980Y-33886566D01*
X214441996Y-33837290D01*
X214438897Y-33821598D01*
X214424317Y-33772898D01*
X214419113Y-33759316D01*
X214508018Y-33727076D01*
X214525884Y-33773884D01*
X214534152Y-33803524D01*
X214542761Y-33852128D01*
X214545620Y-33903018D01*
X214545631Y-33906594D01*
X214541168Y-33960065D01*
X214527779Y-34007547D01*
X214502434Y-34053281D01*
X214489211Y-34069504D01*
X214449727Y-34102477D01*
X214401799Y-34123237D01*
X214351444Y-34131481D01*
X214333140Y-34132030D01*
X213551074Y-34132030D01*
X213551074Y-34363817D01*
X213451423Y-34363817D01*
X213451423Y-34011374D01*
G37*
G36*
X214168276Y-32840230D02*
G01*
X214186106Y-32841939D01*
X214186106Y-33350209D01*
X214241988Y-33345232D01*
X214290811Y-33334574D01*
X214337965Y-33315440D01*
X214379993Y-33285045D01*
X214383942Y-33281088D01*
X214416657Y-33238546D01*
X214437256Y-33191520D01*
X214445738Y-33140009D01*
X214445980Y-33129169D01*
X214442223Y-33077195D01*
X214429935Y-33027316D01*
X214428883Y-33024389D01*
X214407634Y-32976823D01*
X214382229Y-32933699D01*
X214378080Y-32927424D01*
X214458681Y-32870760D01*
X214486799Y-32912228D01*
X214509972Y-32958230D01*
X214522672Y-32991416D01*
X214535744Y-33038611D01*
X214543815Y-33090887D01*
X214545631Y-33130635D01*
X214542502Y-33183757D01*
X214533114Y-33232728D01*
X214515071Y-33282857D01*
X214495561Y-33318213D01*
X214464267Y-33358749D01*
X214426713Y-33393527D01*
X214382900Y-33422547D01*
X214355854Y-33436182D01*
X214309234Y-33453920D01*
X214259012Y-33466591D01*
X214205187Y-33474193D01*
X214155135Y-33476687D01*
X214147759Y-33476727D01*
X214098158Y-33474787D01*
X214044562Y-33467818D01*
X213994263Y-33455781D01*
X213947262Y-33438677D01*
X213941618Y-33436182D01*
X213893975Y-33410592D01*
X213852437Y-33379708D01*
X213817005Y-33343530D01*
X213799958Y-33321144D01*
X213775046Y-33277292D01*
X213758287Y-33229267D01*
X213749681Y-33177068D01*
X213748422Y-33146266D01*
X213748524Y-33144801D01*
X213848073Y-33144801D01*
X213853893Y-33194665D01*
X213873739Y-33243401D01*
X213904002Y-33282145D01*
X213907669Y-33285729D01*
X213951308Y-33316302D01*
X214001514Y-33335538D01*
X214054836Y-33346052D01*
X214092316Y-33349476D01*
X214092316Y-32955268D01*
X214042084Y-32958567D01*
X213991716Y-32968062D01*
X213944030Y-32986043D01*
X213909623Y-33008513D01*
X213874580Y-33047648D01*
X213854084Y-33094864D01*
X213848073Y-33144801D01*
X213748524Y-33144801D01*
X213752020Y-33094823D01*
X213765312Y-33040211D01*
X213788398Y-32991420D01*
X213821278Y-32948449D01*
X213850760Y-32921318D01*
X213891707Y-32893346D01*
X213937978Y-32871161D01*
X213989572Y-32854763D01*
X214046490Y-32844153D01*
X214097989Y-32839732D01*
X214130662Y-32839009D01*
X214168276Y-32840230D01*
G37*
G36*
X214445980Y-32242568D02*
G01*
X214441955Y-32191108D01*
X214429880Y-32142977D01*
X214427662Y-32136810D01*
X214406290Y-32089427D01*
X214379302Y-32045952D01*
X214459413Y-31987090D01*
X214489177Y-32030562D01*
X214511714Y-32076701D01*
X214522672Y-32106280D01*
X214535744Y-32153790D01*
X214543815Y-32204829D01*
X214545631Y-32242568D01*
X214542578Y-32296789D01*
X214533419Y-32346859D01*
X214515816Y-32398225D01*
X214496782Y-32434542D01*
X214466019Y-32476218D01*
X214428956Y-32511943D01*
X214385596Y-32541717D01*
X214358785Y-32555687D01*
X214312303Y-32573852D01*
X214262004Y-32586828D01*
X214207889Y-32594613D01*
X214157408Y-32597168D01*
X214149958Y-32597208D01*
X214100892Y-32595221D01*
X214047651Y-32588085D01*
X213997433Y-32575758D01*
X213950236Y-32558241D01*
X213944549Y-32555687D01*
X213901517Y-32532438D01*
X213858835Y-32500627D01*
X213822219Y-32462826D01*
X213801179Y-32434298D01*
X213775676Y-32386825D01*
X213760014Y-32340117D01*
X213750947Y-32289166D01*
X213748422Y-32241102D01*
X213751479Y-32188234D01*
X213760650Y-32137890D01*
X213775934Y-32090071D01*
X213797332Y-32044777D01*
X213824844Y-32002006D01*
X213835373Y-31988311D01*
X213923300Y-32047173D01*
X213893988Y-32090166D01*
X213869304Y-32139129D01*
X213854024Y-32187909D01*
X213848147Y-32236506D01*
X213848073Y-32242568D01*
X213854043Y-32294798D01*
X213871953Y-32341580D01*
X213901802Y-32382914D01*
X213923545Y-32403524D01*
X213966028Y-32431092D01*
X214018250Y-32450785D01*
X214071933Y-32461554D01*
X214123883Y-32465984D01*
X214151912Y-32466538D01*
X214207067Y-32464323D01*
X214256211Y-32457677D01*
X214305949Y-32444323D01*
X214352775Y-32421677D01*
X214376615Y-32403524D01*
X214410146Y-32365216D01*
X214432703Y-32321461D01*
X214444286Y-32272257D01*
X214445980Y-32242568D01*
G37*
G36*
X214491409Y-31123447D02*
G01*
X214515418Y-31169205D01*
X214531221Y-31217480D01*
X214541072Y-31265405D01*
X214545504Y-31315924D01*
X214545631Y-31325924D01*
X214542569Y-31376581D01*
X214531570Y-31427948D01*
X214509636Y-31477416D01*
X214481639Y-31513991D01*
X214442589Y-31545869D01*
X214397705Y-31567314D01*
X214346986Y-31578327D01*
X214316287Y-31579937D01*
X213863705Y-31579937D01*
X213863705Y-31753838D01*
X213764054Y-31753838D01*
X213764054Y-31579937D01*
X213590153Y-31579937D01*
X213575743Y-31459281D01*
X213764054Y-31459281D01*
X213764054Y-31197941D01*
X213863705Y-31212351D01*
X213863705Y-31459281D01*
X214316043Y-31459281D01*
X214365811Y-31452923D01*
X214410657Y-31428107D01*
X214412763Y-31426064D01*
X214437676Y-31381612D01*
X214445688Y-31329308D01*
X214445980Y-31315177D01*
X214442068Y-31264631D01*
X214435966Y-31236775D01*
X214419426Y-31189832D01*
X214410076Y-31170097D01*
X214491409Y-31123447D01*
G37*
D11*
X167511538Y-72285078D02*
X167511538Y-71415078D01*
X167511538Y-71746507D02*
X167594396Y-71705078D01*
X167594396Y-71705078D02*
X167760110Y-71705078D01*
X167760110Y-71705078D02*
X167842967Y-71746507D01*
X167842967Y-71746507D02*
X167884396Y-71787935D01*
X167884396Y-71787935D02*
X167925824Y-71870792D01*
X167925824Y-71870792D02*
X167925824Y-72119364D01*
X167925824Y-72119364D02*
X167884396Y-72202221D01*
X167884396Y-72202221D02*
X167842967Y-72243650D01*
X167842967Y-72243650D02*
X167760110Y-72285078D01*
X167760110Y-72285078D02*
X167594396Y-72285078D01*
X167594396Y-72285078D02*
X167511538Y-72243650D01*
X168422967Y-72285078D02*
X168340110Y-72243650D01*
X168340110Y-72243650D02*
X168298681Y-72202221D01*
X168298681Y-72202221D02*
X168257253Y-72119364D01*
X168257253Y-72119364D02*
X168257253Y-71870792D01*
X168257253Y-71870792D02*
X168298681Y-71787935D01*
X168298681Y-71787935D02*
X168340110Y-71746507D01*
X168340110Y-71746507D02*
X168422967Y-71705078D01*
X168422967Y-71705078D02*
X168547253Y-71705078D01*
X168547253Y-71705078D02*
X168630110Y-71746507D01*
X168630110Y-71746507D02*
X168671539Y-71787935D01*
X168671539Y-71787935D02*
X168712967Y-71870792D01*
X168712967Y-71870792D02*
X168712967Y-72119364D01*
X168712967Y-72119364D02*
X168671539Y-72202221D01*
X168671539Y-72202221D02*
X168630110Y-72243650D01*
X168630110Y-72243650D02*
X168547253Y-72285078D01*
X168547253Y-72285078D02*
X168422967Y-72285078D01*
X169458682Y-72285078D02*
X169458682Y-71829364D01*
X169458682Y-71829364D02*
X169417253Y-71746507D01*
X169417253Y-71746507D02*
X169334396Y-71705078D01*
X169334396Y-71705078D02*
X169168682Y-71705078D01*
X169168682Y-71705078D02*
X169085824Y-71746507D01*
X169458682Y-72243650D02*
X169375824Y-72285078D01*
X169375824Y-72285078D02*
X169168682Y-72285078D01*
X169168682Y-72285078D02*
X169085824Y-72243650D01*
X169085824Y-72243650D02*
X169044396Y-72160792D01*
X169044396Y-72160792D02*
X169044396Y-72077935D01*
X169044396Y-72077935D02*
X169085824Y-71995078D01*
X169085824Y-71995078D02*
X169168682Y-71953650D01*
X169168682Y-71953650D02*
X169375824Y-71953650D01*
X169375824Y-71953650D02*
X169458682Y-71912221D01*
X169872967Y-72285078D02*
X169872967Y-71705078D01*
X169872967Y-71870792D02*
X169914396Y-71787935D01*
X169914396Y-71787935D02*
X169955825Y-71746507D01*
X169955825Y-71746507D02*
X170038682Y-71705078D01*
X170038682Y-71705078D02*
X170121539Y-71705078D01*
X170784396Y-72285078D02*
X170784396Y-71415078D01*
X170784396Y-72243650D02*
X170701538Y-72285078D01*
X170701538Y-72285078D02*
X170535824Y-72285078D01*
X170535824Y-72285078D02*
X170452967Y-72243650D01*
X170452967Y-72243650D02*
X170411538Y-72202221D01*
X170411538Y-72202221D02*
X170370110Y-72119364D01*
X170370110Y-72119364D02*
X170370110Y-71870792D01*
X170370110Y-71870792D02*
X170411538Y-71787935D01*
X170411538Y-71787935D02*
X170452967Y-71746507D01*
X170452967Y-71746507D02*
X170535824Y-71705078D01*
X170535824Y-71705078D02*
X170701538Y-71705078D01*
X170701538Y-71705078D02*
X170784396Y-71746507D01*
X171820110Y-72243650D02*
X171902967Y-72285078D01*
X171902967Y-72285078D02*
X172068681Y-72285078D01*
X172068681Y-72285078D02*
X172151538Y-72243650D01*
X172151538Y-72243650D02*
X172192967Y-72160792D01*
X172192967Y-72160792D02*
X172192967Y-72119364D01*
X172192967Y-72119364D02*
X172151538Y-72036507D01*
X172151538Y-72036507D02*
X172068681Y-71995078D01*
X172068681Y-71995078D02*
X171944396Y-71995078D01*
X171944396Y-71995078D02*
X171861538Y-71953650D01*
X171861538Y-71953650D02*
X171820110Y-71870792D01*
X171820110Y-71870792D02*
X171820110Y-71829364D01*
X171820110Y-71829364D02*
X171861538Y-71746507D01*
X171861538Y-71746507D02*
X171944396Y-71705078D01*
X171944396Y-71705078D02*
X172068681Y-71705078D01*
X172068681Y-71705078D02*
X172151538Y-71746507D01*
X172897253Y-72243650D02*
X172814396Y-72285078D01*
X172814396Y-72285078D02*
X172648682Y-72285078D01*
X172648682Y-72285078D02*
X172565824Y-72243650D01*
X172565824Y-72243650D02*
X172524396Y-72160792D01*
X172524396Y-72160792D02*
X172524396Y-71829364D01*
X172524396Y-71829364D02*
X172565824Y-71746507D01*
X172565824Y-71746507D02*
X172648682Y-71705078D01*
X172648682Y-71705078D02*
X172814396Y-71705078D01*
X172814396Y-71705078D02*
X172897253Y-71746507D01*
X172897253Y-71746507D02*
X172938682Y-71829364D01*
X172938682Y-71829364D02*
X172938682Y-71912221D01*
X172938682Y-71912221D02*
X172524396Y-71995078D01*
X173435824Y-72285078D02*
X173352967Y-72243650D01*
X173352967Y-72243650D02*
X173311538Y-72160792D01*
X173311538Y-72160792D02*
X173311538Y-71415078D01*
X174098681Y-72243650D02*
X174015824Y-72285078D01*
X174015824Y-72285078D02*
X173850110Y-72285078D01*
X173850110Y-72285078D02*
X173767252Y-72243650D01*
X173767252Y-72243650D02*
X173725824Y-72160792D01*
X173725824Y-72160792D02*
X173725824Y-71829364D01*
X173725824Y-71829364D02*
X173767252Y-71746507D01*
X173767252Y-71746507D02*
X173850110Y-71705078D01*
X173850110Y-71705078D02*
X174015824Y-71705078D01*
X174015824Y-71705078D02*
X174098681Y-71746507D01*
X174098681Y-71746507D02*
X174140110Y-71829364D01*
X174140110Y-71829364D02*
X174140110Y-71912221D01*
X174140110Y-71912221D02*
X173725824Y-71995078D01*
X174885824Y-72243650D02*
X174802966Y-72285078D01*
X174802966Y-72285078D02*
X174637252Y-72285078D01*
X174637252Y-72285078D02*
X174554395Y-72243650D01*
X174554395Y-72243650D02*
X174512966Y-72202221D01*
X174512966Y-72202221D02*
X174471538Y-72119364D01*
X174471538Y-72119364D02*
X174471538Y-71870792D01*
X174471538Y-71870792D02*
X174512966Y-71787935D01*
X174512966Y-71787935D02*
X174554395Y-71746507D01*
X174554395Y-71746507D02*
X174637252Y-71705078D01*
X174637252Y-71705078D02*
X174802966Y-71705078D01*
X174802966Y-71705078D02*
X174885824Y-71746507D01*
X175134395Y-71705078D02*
X175465823Y-71705078D01*
X175258680Y-71415078D02*
X175258680Y-72160792D01*
X175258680Y-72160792D02*
X175300109Y-72243650D01*
X175300109Y-72243650D02*
X175382966Y-72285078D01*
X175382966Y-72285078D02*
X175465823Y-72285078D01*
X157361541Y-73685729D02*
X156864398Y-73685729D01*
X157112969Y-73685729D02*
X157112969Y-72815729D01*
X157112969Y-72815729D02*
X157030112Y-72940015D01*
X157030112Y-72940015D02*
X156947255Y-73022872D01*
X156947255Y-73022872D02*
X156864398Y-73064301D01*
X159060111Y-73354301D02*
X159722969Y-73354301D01*
X161421540Y-72898586D02*
X161462968Y-72857158D01*
X161462968Y-72857158D02*
X161545826Y-72815729D01*
X161545826Y-72815729D02*
X161752968Y-72815729D01*
X161752968Y-72815729D02*
X161835826Y-72857158D01*
X161835826Y-72857158D02*
X161877254Y-72898586D01*
X161877254Y-72898586D02*
X161918683Y-72981443D01*
X161918683Y-72981443D02*
X161918683Y-73064301D01*
X161918683Y-73064301D02*
X161877254Y-73188586D01*
X161877254Y-73188586D02*
X161380111Y-73685729D01*
X161380111Y-73685729D02*
X161918683Y-73685729D01*
X163617253Y-73354301D02*
X164280111Y-73354301D01*
X166392968Y-73105729D02*
X166392968Y-73685729D01*
X166185825Y-72774301D02*
X165978682Y-73395729D01*
X165978682Y-73395729D02*
X166517253Y-73395729D01*
X168174395Y-73354301D02*
X168837253Y-73354301D01*
X170701538Y-73188586D02*
X170618681Y-73147158D01*
X170618681Y-73147158D02*
X170577252Y-73105729D01*
X170577252Y-73105729D02*
X170535824Y-73022872D01*
X170535824Y-73022872D02*
X170535824Y-72981443D01*
X170535824Y-72981443D02*
X170577252Y-72898586D01*
X170577252Y-72898586D02*
X170618681Y-72857158D01*
X170618681Y-72857158D02*
X170701538Y-72815729D01*
X170701538Y-72815729D02*
X170867252Y-72815729D01*
X170867252Y-72815729D02*
X170950110Y-72857158D01*
X170950110Y-72857158D02*
X170991538Y-72898586D01*
X170991538Y-72898586D02*
X171032967Y-72981443D01*
X171032967Y-72981443D02*
X171032967Y-73022872D01*
X171032967Y-73022872D02*
X170991538Y-73105729D01*
X170991538Y-73105729D02*
X170950110Y-73147158D01*
X170950110Y-73147158D02*
X170867252Y-73188586D01*
X170867252Y-73188586D02*
X170701538Y-73188586D01*
X170701538Y-73188586D02*
X170618681Y-73230015D01*
X170618681Y-73230015D02*
X170577252Y-73271443D01*
X170577252Y-73271443D02*
X170535824Y-73354301D01*
X170535824Y-73354301D02*
X170535824Y-73520015D01*
X170535824Y-73520015D02*
X170577252Y-73602872D01*
X170577252Y-73602872D02*
X170618681Y-73644301D01*
X170618681Y-73644301D02*
X170701538Y-73685729D01*
X170701538Y-73685729D02*
X170867252Y-73685729D01*
X170867252Y-73685729D02*
X170950110Y-73644301D01*
X170950110Y-73644301D02*
X170991538Y-73602872D01*
X170991538Y-73602872D02*
X171032967Y-73520015D01*
X171032967Y-73520015D02*
X171032967Y-73354301D01*
X171032967Y-73354301D02*
X170991538Y-73271443D01*
X170991538Y-73271443D02*
X170950110Y-73230015D01*
X170950110Y-73230015D02*
X170867252Y-73188586D01*
X172731537Y-73354301D02*
X173394395Y-73354301D01*
X174927252Y-73685729D02*
X174430109Y-73685729D01*
X174678680Y-73685729D02*
X174678680Y-72815729D01*
X174678680Y-72815729D02*
X174595823Y-72940015D01*
X174595823Y-72940015D02*
X174512966Y-73022872D01*
X174512966Y-73022872D02*
X174430109Y-73064301D01*
X175672966Y-72815729D02*
X175507251Y-72815729D01*
X175507251Y-72815729D02*
X175424394Y-72857158D01*
X175424394Y-72857158D02*
X175382966Y-72898586D01*
X175382966Y-72898586D02*
X175300108Y-73022872D01*
X175300108Y-73022872D02*
X175258680Y-73188586D01*
X175258680Y-73188586D02*
X175258680Y-73520015D01*
X175258680Y-73520015D02*
X175300108Y-73602872D01*
X175300108Y-73602872D02*
X175341537Y-73644301D01*
X175341537Y-73644301D02*
X175424394Y-73685729D01*
X175424394Y-73685729D02*
X175590108Y-73685729D01*
X175590108Y-73685729D02*
X175672966Y-73644301D01*
X175672966Y-73644301D02*
X175714394Y-73602872D01*
X175714394Y-73602872D02*
X175755823Y-73520015D01*
X175755823Y-73520015D02*
X175755823Y-73312872D01*
X175755823Y-73312872D02*
X175714394Y-73230015D01*
X175714394Y-73230015D02*
X175672966Y-73188586D01*
X175672966Y-73188586D02*
X175590108Y-73147158D01*
X175590108Y-73147158D02*
X175424394Y-73147158D01*
X175424394Y-73147158D02*
X175341537Y-73188586D01*
X175341537Y-73188586D02*
X175300108Y-73230015D01*
X175300108Y-73230015D02*
X175258680Y-73312872D01*
X177454393Y-73354301D02*
X178117251Y-73354301D01*
X179111536Y-72815729D02*
X179650108Y-72815729D01*
X179650108Y-72815729D02*
X179360108Y-73147158D01*
X179360108Y-73147158D02*
X179484393Y-73147158D01*
X179484393Y-73147158D02*
X179567251Y-73188586D01*
X179567251Y-73188586D02*
X179608679Y-73230015D01*
X179608679Y-73230015D02*
X179650108Y-73312872D01*
X179650108Y-73312872D02*
X179650108Y-73520015D01*
X179650108Y-73520015D02*
X179608679Y-73602872D01*
X179608679Y-73602872D02*
X179567251Y-73644301D01*
X179567251Y-73644301D02*
X179484393Y-73685729D01*
X179484393Y-73685729D02*
X179235822Y-73685729D01*
X179235822Y-73685729D02*
X179152965Y-73644301D01*
X179152965Y-73644301D02*
X179111536Y-73602872D01*
X179981536Y-72898586D02*
X180022964Y-72857158D01*
X180022964Y-72857158D02*
X180105822Y-72815729D01*
X180105822Y-72815729D02*
X180312964Y-72815729D01*
X180312964Y-72815729D02*
X180395822Y-72857158D01*
X180395822Y-72857158D02*
X180437250Y-72898586D01*
X180437250Y-72898586D02*
X180478679Y-72981443D01*
X180478679Y-72981443D02*
X180478679Y-73064301D01*
X180478679Y-73064301D02*
X180437250Y-73188586D01*
X180437250Y-73188586D02*
X179940107Y-73685729D01*
X179940107Y-73685729D02*
X180478679Y-73685729D01*
X182177249Y-73354301D02*
X182840107Y-73354301D01*
X184290107Y-72815729D02*
X184124392Y-72815729D01*
X184124392Y-72815729D02*
X184041535Y-72857158D01*
X184041535Y-72857158D02*
X184000107Y-72898586D01*
X184000107Y-72898586D02*
X183917249Y-73022872D01*
X183917249Y-73022872D02*
X183875821Y-73188586D01*
X183875821Y-73188586D02*
X183875821Y-73520015D01*
X183875821Y-73520015D02*
X183917249Y-73602872D01*
X183917249Y-73602872D02*
X183958678Y-73644301D01*
X183958678Y-73644301D02*
X184041535Y-73685729D01*
X184041535Y-73685729D02*
X184207249Y-73685729D01*
X184207249Y-73685729D02*
X184290107Y-73644301D01*
X184290107Y-73644301D02*
X184331535Y-73602872D01*
X184331535Y-73602872D02*
X184372964Y-73520015D01*
X184372964Y-73520015D02*
X184372964Y-73312872D01*
X184372964Y-73312872D02*
X184331535Y-73230015D01*
X184331535Y-73230015D02*
X184290107Y-73188586D01*
X184290107Y-73188586D02*
X184207249Y-73147158D01*
X184207249Y-73147158D02*
X184041535Y-73147158D01*
X184041535Y-73147158D02*
X183958678Y-73188586D01*
X183958678Y-73188586D02*
X183917249Y-73230015D01*
X183917249Y-73230015D02*
X183875821Y-73312872D01*
X185118678Y-73105729D02*
X185118678Y-73685729D01*
X184911535Y-72774301D02*
X184704392Y-73395729D01*
X184704392Y-73395729D02*
X185242963Y-73395729D01*
X186900105Y-73354301D02*
X187562963Y-73354301D01*
X189095820Y-73685729D02*
X188598677Y-73685729D01*
X188847248Y-73685729D02*
X188847248Y-72815729D01*
X188847248Y-72815729D02*
X188764391Y-72940015D01*
X188764391Y-72940015D02*
X188681534Y-73022872D01*
X188681534Y-73022872D02*
X188598677Y-73064301D01*
X189427248Y-72898586D02*
X189468676Y-72857158D01*
X189468676Y-72857158D02*
X189551534Y-72815729D01*
X189551534Y-72815729D02*
X189758676Y-72815729D01*
X189758676Y-72815729D02*
X189841534Y-72857158D01*
X189841534Y-72857158D02*
X189882962Y-72898586D01*
X189882962Y-72898586D02*
X189924391Y-72981443D01*
X189924391Y-72981443D02*
X189924391Y-73064301D01*
X189924391Y-73064301D02*
X189882962Y-73188586D01*
X189882962Y-73188586D02*
X189385819Y-73685729D01*
X189385819Y-73685729D02*
X189924391Y-73685729D01*
X190421533Y-73188586D02*
X190338676Y-73147158D01*
X190338676Y-73147158D02*
X190297247Y-73105729D01*
X190297247Y-73105729D02*
X190255819Y-73022872D01*
X190255819Y-73022872D02*
X190255819Y-72981443D01*
X190255819Y-72981443D02*
X190297247Y-72898586D01*
X190297247Y-72898586D02*
X190338676Y-72857158D01*
X190338676Y-72857158D02*
X190421533Y-72815729D01*
X190421533Y-72815729D02*
X190587247Y-72815729D01*
X190587247Y-72815729D02*
X190670105Y-72857158D01*
X190670105Y-72857158D02*
X190711533Y-72898586D01*
X190711533Y-72898586D02*
X190752962Y-72981443D01*
X190752962Y-72981443D02*
X190752962Y-73022872D01*
X190752962Y-73022872D02*
X190711533Y-73105729D01*
X190711533Y-73105729D02*
X190670105Y-73147158D01*
X190670105Y-73147158D02*
X190587247Y-73188586D01*
X190587247Y-73188586D02*
X190421533Y-73188586D01*
X190421533Y-73188586D02*
X190338676Y-73230015D01*
X190338676Y-73230015D02*
X190297247Y-73271443D01*
X190297247Y-73271443D02*
X190255819Y-73354301D01*
X190255819Y-73354301D02*
X190255819Y-73520015D01*
X190255819Y-73520015D02*
X190297247Y-73602872D01*
X190297247Y-73602872D02*
X190338676Y-73644301D01*
X190338676Y-73644301D02*
X190421533Y-73685729D01*
X190421533Y-73685729D02*
X190587247Y-73685729D01*
X190587247Y-73685729D02*
X190670105Y-73644301D01*
X190670105Y-73644301D02*
X190711533Y-73602872D01*
X190711533Y-73602872D02*
X190752962Y-73520015D01*
X190752962Y-73520015D02*
X190752962Y-73354301D01*
X190752962Y-73354301D02*
X190711533Y-73271443D01*
X190711533Y-73271443D02*
X190670105Y-73230015D01*
X190670105Y-73230015D02*
X190587247Y-73188586D01*
D10*
X203678538Y-65710401D02*
X203678538Y-66253258D01*
X203678538Y-65981830D02*
X202728538Y-65981830D01*
X202728538Y-65981830D02*
X202864252Y-66072306D01*
X202864252Y-66072306D02*
X202954728Y-66162782D01*
X202954728Y-66162782D02*
X202999966Y-66253258D01*
X203316633Y-64579448D02*
X203316633Y-63855639D01*
X203316633Y-63403258D02*
X203316633Y-62679449D01*
X203316633Y-62227068D02*
X203316633Y-61503259D01*
X203316633Y-61050878D02*
X203316633Y-60327069D01*
X203316633Y-59874688D02*
X203316633Y-59150879D01*
X203316633Y-58698498D02*
X203316633Y-57974689D01*
X203316633Y-57522308D02*
X203316633Y-56798499D01*
X203316633Y-56346118D02*
X203316633Y-55622309D01*
X203316633Y-55169928D02*
X203316633Y-54446119D01*
X203316633Y-53993738D02*
X203316633Y-53269929D01*
X203316633Y-52817548D02*
X203316633Y-52093739D01*
X203316633Y-51641358D02*
X203316633Y-50917549D01*
X203633300Y-49786596D02*
X203678538Y-49696120D01*
X203678538Y-49696120D02*
X203678538Y-49515168D01*
X203678538Y-49515168D02*
X203633300Y-49424691D01*
X203633300Y-49424691D02*
X203542823Y-49379453D01*
X203542823Y-49379453D02*
X203497585Y-49379453D01*
X203497585Y-49379453D02*
X203407109Y-49424691D01*
X203407109Y-49424691D02*
X203361871Y-49515168D01*
X203361871Y-49515168D02*
X203361871Y-49650882D01*
X203361871Y-49650882D02*
X203316633Y-49741358D01*
X203316633Y-49741358D02*
X203226157Y-49786596D01*
X203226157Y-49786596D02*
X203180919Y-49786596D01*
X203180919Y-49786596D02*
X203090442Y-49741358D01*
X203090442Y-49741358D02*
X203045204Y-49650882D01*
X203045204Y-49650882D02*
X203045204Y-49515168D01*
X203045204Y-49515168D02*
X203090442Y-49424691D01*
X203633300Y-48610405D02*
X203678538Y-48700881D01*
X203678538Y-48700881D02*
X203678538Y-48881834D01*
X203678538Y-48881834D02*
X203633300Y-48972310D01*
X203633300Y-48972310D02*
X203542823Y-49017548D01*
X203542823Y-49017548D02*
X203180919Y-49017548D01*
X203180919Y-49017548D02*
X203090442Y-48972310D01*
X203090442Y-48972310D02*
X203045204Y-48881834D01*
X203045204Y-48881834D02*
X203045204Y-48700881D01*
X203045204Y-48700881D02*
X203090442Y-48610405D01*
X203090442Y-48610405D02*
X203180919Y-48565167D01*
X203180919Y-48565167D02*
X203271395Y-48565167D01*
X203271395Y-48565167D02*
X203361871Y-49017548D01*
X203045204Y-48158024D02*
X203678538Y-48158024D01*
X203135680Y-48158024D02*
X203090442Y-48112786D01*
X203090442Y-48112786D02*
X203045204Y-48022310D01*
X203045204Y-48022310D02*
X203045204Y-47886595D01*
X203045204Y-47886595D02*
X203090442Y-47796119D01*
X203090442Y-47796119D02*
X203180919Y-47750881D01*
X203180919Y-47750881D02*
X203678538Y-47750881D01*
X203633300Y-47343738D02*
X203678538Y-47253262D01*
X203678538Y-47253262D02*
X203678538Y-47072310D01*
X203678538Y-47072310D02*
X203633300Y-46981833D01*
X203633300Y-46981833D02*
X203542823Y-46936595D01*
X203542823Y-46936595D02*
X203497585Y-46936595D01*
X203497585Y-46936595D02*
X203407109Y-46981833D01*
X203407109Y-46981833D02*
X203361871Y-47072310D01*
X203361871Y-47072310D02*
X203361871Y-47208024D01*
X203361871Y-47208024D02*
X203316633Y-47298500D01*
X203316633Y-47298500D02*
X203226157Y-47343738D01*
X203226157Y-47343738D02*
X203180919Y-47343738D01*
X203180919Y-47343738D02*
X203090442Y-47298500D01*
X203090442Y-47298500D02*
X203045204Y-47208024D01*
X203045204Y-47208024D02*
X203045204Y-47072310D01*
X203045204Y-47072310D02*
X203090442Y-46981833D01*
X203678538Y-46393738D02*
X203633300Y-46484214D01*
X203633300Y-46484214D02*
X203588061Y-46529452D01*
X203588061Y-46529452D02*
X203497585Y-46574690D01*
X203497585Y-46574690D02*
X203226157Y-46574690D01*
X203226157Y-46574690D02*
X203135680Y-46529452D01*
X203135680Y-46529452D02*
X203090442Y-46484214D01*
X203090442Y-46484214D02*
X203045204Y-46393738D01*
X203045204Y-46393738D02*
X203045204Y-46258023D01*
X203045204Y-46258023D02*
X203090442Y-46167547D01*
X203090442Y-46167547D02*
X203135680Y-46122309D01*
X203135680Y-46122309D02*
X203226157Y-46077071D01*
X203226157Y-46077071D02*
X203497585Y-46077071D01*
X203497585Y-46077071D02*
X203588061Y-46122309D01*
X203588061Y-46122309D02*
X203633300Y-46167547D01*
X203633300Y-46167547D02*
X203678538Y-46258023D01*
X203678538Y-46258023D02*
X203678538Y-46393738D01*
X203678538Y-45669928D02*
X203045204Y-45669928D01*
X203226157Y-45669928D02*
X203135680Y-45624690D01*
X203135680Y-45624690D02*
X203090442Y-45579452D01*
X203090442Y-45579452D02*
X203045204Y-45488976D01*
X203045204Y-45488976D02*
X203045204Y-45398499D01*
X203633300Y-45127071D02*
X203678538Y-45036595D01*
X203678538Y-45036595D02*
X203678538Y-44855643D01*
X203678538Y-44855643D02*
X203633300Y-44765166D01*
X203633300Y-44765166D02*
X203542823Y-44719928D01*
X203542823Y-44719928D02*
X203497585Y-44719928D01*
X203497585Y-44719928D02*
X203407109Y-44765166D01*
X203407109Y-44765166D02*
X203361871Y-44855643D01*
X203361871Y-44855643D02*
X203361871Y-44991357D01*
X203361871Y-44991357D02*
X203316633Y-45081833D01*
X203316633Y-45081833D02*
X203226157Y-45127071D01*
X203226157Y-45127071D02*
X203180919Y-45127071D01*
X203180919Y-45127071D02*
X203090442Y-45081833D01*
X203090442Y-45081833D02*
X203045204Y-44991357D01*
X203045204Y-44991357D02*
X203045204Y-44855643D01*
X203045204Y-44855643D02*
X203090442Y-44765166D01*
X203316633Y-43588975D02*
X203316633Y-42865166D01*
X203316633Y-42412785D02*
X203316633Y-41688976D01*
X203316633Y-41236595D02*
X203316633Y-40512786D01*
X203316633Y-40060405D02*
X203316633Y-39336596D01*
X203316633Y-38884215D02*
X203316633Y-38160406D01*
X203316633Y-37708025D02*
X203316633Y-36984216D01*
X203316633Y-36531835D02*
X203316633Y-35808026D01*
X203316633Y-35355645D02*
X203316633Y-34631836D01*
X203316633Y-34179455D02*
X203316633Y-33455646D01*
X203316633Y-33003265D02*
X203316633Y-32279456D01*
X203316633Y-31827075D02*
X203316633Y-31103266D01*
X203316633Y-30650885D02*
X203316633Y-29927076D01*
X203678538Y-28253266D02*
X203678538Y-28796123D01*
X203678538Y-28524695D02*
X202728538Y-28524695D01*
X202728538Y-28524695D02*
X202864252Y-28615171D01*
X202864252Y-28615171D02*
X202954728Y-28705647D01*
X202954728Y-28705647D02*
X202999966Y-28796123D01*
X202728538Y-27438980D02*
X202728538Y-27619933D01*
X202728538Y-27619933D02*
X202773776Y-27710409D01*
X202773776Y-27710409D02*
X202819014Y-27755647D01*
X202819014Y-27755647D02*
X202954728Y-27846123D01*
X202954728Y-27846123D02*
X203135680Y-27891361D01*
X203135680Y-27891361D02*
X203497585Y-27891361D01*
X203497585Y-27891361D02*
X203588061Y-27846123D01*
X203588061Y-27846123D02*
X203633300Y-27800885D01*
X203633300Y-27800885D02*
X203678538Y-27710409D01*
X203678538Y-27710409D02*
X203678538Y-27529456D01*
X203678538Y-27529456D02*
X203633300Y-27438980D01*
X203633300Y-27438980D02*
X203588061Y-27393742D01*
X203588061Y-27393742D02*
X203497585Y-27348504D01*
X203497585Y-27348504D02*
X203271395Y-27348504D01*
X203271395Y-27348504D02*
X203180919Y-27393742D01*
X203180919Y-27393742D02*
X203135680Y-27438980D01*
X203135680Y-27438980D02*
X203090442Y-27529456D01*
X203090442Y-27529456D02*
X203090442Y-27710409D01*
X203090442Y-27710409D02*
X203135680Y-27800885D01*
X203135680Y-27800885D02*
X203180919Y-27846123D01*
X203180919Y-27846123D02*
X203271395Y-27891361D01*
X63180074Y-39092800D02*
X63265789Y-39121371D01*
X63265789Y-39121371D02*
X63408646Y-39121371D01*
X63408646Y-39121371D02*
X63465789Y-39092800D01*
X63465789Y-39092800D02*
X63494360Y-39064228D01*
X63494360Y-39064228D02*
X63522931Y-39007085D01*
X63522931Y-39007085D02*
X63522931Y-38949942D01*
X63522931Y-38949942D02*
X63494360Y-38892800D01*
X63494360Y-38892800D02*
X63465789Y-38864228D01*
X63465789Y-38864228D02*
X63408646Y-38835657D01*
X63408646Y-38835657D02*
X63294360Y-38807085D01*
X63294360Y-38807085D02*
X63237217Y-38778514D01*
X63237217Y-38778514D02*
X63208646Y-38749942D01*
X63208646Y-38749942D02*
X63180074Y-38692800D01*
X63180074Y-38692800D02*
X63180074Y-38635657D01*
X63180074Y-38635657D02*
X63208646Y-38578514D01*
X63208646Y-38578514D02*
X63237217Y-38549942D01*
X63237217Y-38549942D02*
X63294360Y-38521371D01*
X63294360Y-38521371D02*
X63437217Y-38521371D01*
X63437217Y-38521371D02*
X63522931Y-38549942D01*
X63780075Y-39121371D02*
X63780075Y-38521371D01*
X63780075Y-38521371D02*
X64008646Y-38521371D01*
X64008646Y-38521371D02*
X64065789Y-38549942D01*
X64065789Y-38549942D02*
X64094360Y-38578514D01*
X64094360Y-38578514D02*
X64122932Y-38635657D01*
X64122932Y-38635657D02*
X64122932Y-38721371D01*
X64122932Y-38721371D02*
X64094360Y-38778514D01*
X64094360Y-38778514D02*
X64065789Y-38807085D01*
X64065789Y-38807085D02*
X64008646Y-38835657D01*
X64008646Y-38835657D02*
X63780075Y-38835657D01*
X64351503Y-39092800D02*
X64437218Y-39121371D01*
X64437218Y-39121371D02*
X64580075Y-39121371D01*
X64580075Y-39121371D02*
X64637218Y-39092800D01*
X64637218Y-39092800D02*
X64665789Y-39064228D01*
X64665789Y-39064228D02*
X64694360Y-39007085D01*
X64694360Y-39007085D02*
X64694360Y-38949942D01*
X64694360Y-38949942D02*
X64665789Y-38892800D01*
X64665789Y-38892800D02*
X64637218Y-38864228D01*
X64637218Y-38864228D02*
X64580075Y-38835657D01*
X64580075Y-38835657D02*
X64465789Y-38807085D01*
X64465789Y-38807085D02*
X64408646Y-38778514D01*
X64408646Y-38778514D02*
X64380075Y-38749942D01*
X64380075Y-38749942D02*
X64351503Y-38692800D01*
X64351503Y-38692800D02*
X64351503Y-38635657D01*
X64351503Y-38635657D02*
X64380075Y-38578514D01*
X64380075Y-38578514D02*
X64408646Y-38549942D01*
X64408646Y-38549942D02*
X64465789Y-38521371D01*
X64465789Y-38521371D02*
X64608646Y-38521371D01*
X64608646Y-38521371D02*
X64694360Y-38549942D01*
X64865789Y-38521371D02*
X65208647Y-38521371D01*
X65037218Y-39121371D02*
X65037218Y-38521371D01*
X65837218Y-39092800D02*
X65922933Y-39121371D01*
X65922933Y-39121371D02*
X66065790Y-39121371D01*
X66065790Y-39121371D02*
X66122933Y-39092800D01*
X66122933Y-39092800D02*
X66151504Y-39064228D01*
X66151504Y-39064228D02*
X66180075Y-39007085D01*
X66180075Y-39007085D02*
X66180075Y-38949942D01*
X66180075Y-38949942D02*
X66151504Y-38892800D01*
X66151504Y-38892800D02*
X66122933Y-38864228D01*
X66122933Y-38864228D02*
X66065790Y-38835657D01*
X66065790Y-38835657D02*
X65951504Y-38807085D01*
X65951504Y-38807085D02*
X65894361Y-38778514D01*
X65894361Y-38778514D02*
X65865790Y-38749942D01*
X65865790Y-38749942D02*
X65837218Y-38692800D01*
X65837218Y-38692800D02*
X65837218Y-38635657D01*
X65837218Y-38635657D02*
X65865790Y-38578514D01*
X65865790Y-38578514D02*
X65894361Y-38549942D01*
X65894361Y-38549942D02*
X65951504Y-38521371D01*
X65951504Y-38521371D02*
X66094361Y-38521371D01*
X66094361Y-38521371D02*
X66180075Y-38549942D01*
X66380076Y-38721371D02*
X66494362Y-39121371D01*
X66494362Y-39121371D02*
X66608647Y-38835657D01*
X66608647Y-38835657D02*
X66722933Y-39121371D01*
X66722933Y-39121371D02*
X66837219Y-38721371D01*
X67065790Y-39121371D02*
X67065790Y-38721371D01*
X67065790Y-38521371D02*
X67037218Y-38549942D01*
X67037218Y-38549942D02*
X67065790Y-38578514D01*
X67065790Y-38578514D02*
X67094361Y-38549942D01*
X67094361Y-38549942D02*
X67065790Y-38521371D01*
X67065790Y-38521371D02*
X67065790Y-38578514D01*
X67265789Y-38721371D02*
X67494361Y-38721371D01*
X67351504Y-38521371D02*
X67351504Y-39035657D01*
X67351504Y-39035657D02*
X67380075Y-39092800D01*
X67380075Y-39092800D02*
X67437218Y-39121371D01*
X67437218Y-39121371D02*
X67494361Y-39121371D01*
X67951504Y-39092800D02*
X67894361Y-39121371D01*
X67894361Y-39121371D02*
X67780075Y-39121371D01*
X67780075Y-39121371D02*
X67722932Y-39092800D01*
X67722932Y-39092800D02*
X67694361Y-39064228D01*
X67694361Y-39064228D02*
X67665789Y-39007085D01*
X67665789Y-39007085D02*
X67665789Y-38835657D01*
X67665789Y-38835657D02*
X67694361Y-38778514D01*
X67694361Y-38778514D02*
X67722932Y-38749942D01*
X67722932Y-38749942D02*
X67780075Y-38721371D01*
X67780075Y-38721371D02*
X67894361Y-38721371D01*
X67894361Y-38721371D02*
X67951504Y-38749942D01*
X68208647Y-39121371D02*
X68208647Y-38521371D01*
X68465790Y-39121371D02*
X68465790Y-38807085D01*
X68465790Y-38807085D02*
X68437218Y-38749942D01*
X68437218Y-38749942D02*
X68380075Y-38721371D01*
X68380075Y-38721371D02*
X68294361Y-38721371D01*
X68294361Y-38721371D02*
X68237218Y-38749942D01*
X68237218Y-38749942D02*
X68208647Y-38778514D01*
X171027693Y-31772419D02*
X170456265Y-31772419D01*
X170741979Y-31772419D02*
X170741979Y-30772419D01*
X170741979Y-30772419D02*
X170646741Y-30915276D01*
X170646741Y-30915276D02*
X170551503Y-31010514D01*
X170551503Y-31010514D02*
X170456265Y-31058133D01*
X171884836Y-31105752D02*
X171884836Y-31772419D01*
X171646741Y-30724800D02*
X171408646Y-31439085D01*
X171408646Y-31439085D02*
X172027693Y-31439085D01*
X146527693Y-31972419D02*
X145956265Y-31972419D01*
X146241979Y-31972419D02*
X146241979Y-30972419D01*
X146241979Y-30972419D02*
X146146741Y-31115276D01*
X146146741Y-31115276D02*
X146051503Y-31210514D01*
X146051503Y-31210514D02*
X145956265Y-31258133D01*
X147480074Y-31972419D02*
X146908646Y-31972419D01*
X147194360Y-31972419D02*
X147194360Y-30972419D01*
X147194360Y-30972419D02*
X147099122Y-31115276D01*
X147099122Y-31115276D02*
X147003884Y-31210514D01*
X147003884Y-31210514D02*
X146908646Y-31258133D01*
X186927693Y-31972419D02*
X186356265Y-31972419D01*
X186641979Y-31972419D02*
X186641979Y-30972419D01*
X186641979Y-30972419D02*
X186546741Y-31115276D01*
X186546741Y-31115276D02*
X186451503Y-31210514D01*
X186451503Y-31210514D02*
X186356265Y-31258133D01*
X187784836Y-30972419D02*
X187594360Y-30972419D01*
X187594360Y-30972419D02*
X187499122Y-31020038D01*
X187499122Y-31020038D02*
X187451503Y-31067657D01*
X187451503Y-31067657D02*
X187356265Y-31210514D01*
X187356265Y-31210514D02*
X187308646Y-31400990D01*
X187308646Y-31400990D02*
X187308646Y-31781942D01*
X187308646Y-31781942D02*
X187356265Y-31877180D01*
X187356265Y-31877180D02*
X187403884Y-31924800D01*
X187403884Y-31924800D02*
X187499122Y-31972419D01*
X187499122Y-31972419D02*
X187689598Y-31972419D01*
X187689598Y-31972419D02*
X187784836Y-31924800D01*
X187784836Y-31924800D02*
X187832455Y-31877180D01*
X187832455Y-31877180D02*
X187880074Y-31781942D01*
X187880074Y-31781942D02*
X187880074Y-31543847D01*
X187880074Y-31543847D02*
X187832455Y-31448609D01*
X187832455Y-31448609D02*
X187784836Y-31400990D01*
X187784836Y-31400990D02*
X187689598Y-31353371D01*
X187689598Y-31353371D02*
X187499122Y-31353371D01*
X187499122Y-31353371D02*
X187403884Y-31400990D01*
X187403884Y-31400990D02*
X187356265Y-31448609D01*
X187356265Y-31448609D02*
X187308646Y-31543847D01*
X130551503Y-32072419D02*
X130741979Y-32072419D01*
X130741979Y-32072419D02*
X130837217Y-32024800D01*
X130837217Y-32024800D02*
X130884836Y-31977180D01*
X130884836Y-31977180D02*
X130980074Y-31834323D01*
X130980074Y-31834323D02*
X131027693Y-31643847D01*
X131027693Y-31643847D02*
X131027693Y-31262895D01*
X131027693Y-31262895D02*
X130980074Y-31167657D01*
X130980074Y-31167657D02*
X130932455Y-31120038D01*
X130932455Y-31120038D02*
X130837217Y-31072419D01*
X130837217Y-31072419D02*
X130646741Y-31072419D01*
X130646741Y-31072419D02*
X130551503Y-31120038D01*
X130551503Y-31120038D02*
X130503884Y-31167657D01*
X130503884Y-31167657D02*
X130456265Y-31262895D01*
X130456265Y-31262895D02*
X130456265Y-31500990D01*
X130456265Y-31500990D02*
X130503884Y-31596228D01*
X130503884Y-31596228D02*
X130551503Y-31643847D01*
X130551503Y-31643847D02*
X130646741Y-31691466D01*
X130646741Y-31691466D02*
X130837217Y-31691466D01*
X130837217Y-31691466D02*
X130932455Y-31643847D01*
X130932455Y-31643847D02*
X130980074Y-31596228D01*
X130980074Y-31596228D02*
X131027693Y-31500990D01*
X113908646Y-30772419D02*
X114575312Y-30772419D01*
X114575312Y-30772419D02*
X114146741Y-31772419D01*
X73456265Y-30967657D02*
X73503884Y-30920038D01*
X73503884Y-30920038D02*
X73599122Y-30872419D01*
X73599122Y-30872419D02*
X73837217Y-30872419D01*
X73837217Y-30872419D02*
X73932455Y-30920038D01*
X73932455Y-30920038D02*
X73980074Y-30967657D01*
X73980074Y-30967657D02*
X74027693Y-31062895D01*
X74027693Y-31062895D02*
X74027693Y-31158133D01*
X74027693Y-31158133D02*
X73980074Y-31300990D01*
X73980074Y-31300990D02*
X73408646Y-31872419D01*
X73408646Y-31872419D02*
X74027693Y-31872419D01*
X90032455Y-31405752D02*
X90032455Y-32072419D01*
X89794360Y-31024800D02*
X89556265Y-31739085D01*
X89556265Y-31739085D02*
X90175312Y-31739085D01*
X122246741Y-31300990D02*
X122151503Y-31253371D01*
X122151503Y-31253371D02*
X122103884Y-31205752D01*
X122103884Y-31205752D02*
X122056265Y-31110514D01*
X122056265Y-31110514D02*
X122056265Y-31062895D01*
X122056265Y-31062895D02*
X122103884Y-30967657D01*
X122103884Y-30967657D02*
X122151503Y-30920038D01*
X122151503Y-30920038D02*
X122246741Y-30872419D01*
X122246741Y-30872419D02*
X122437217Y-30872419D01*
X122437217Y-30872419D02*
X122532455Y-30920038D01*
X122532455Y-30920038D02*
X122580074Y-30967657D01*
X122580074Y-30967657D02*
X122627693Y-31062895D01*
X122627693Y-31062895D02*
X122627693Y-31110514D01*
X122627693Y-31110514D02*
X122580074Y-31205752D01*
X122580074Y-31205752D02*
X122532455Y-31253371D01*
X122532455Y-31253371D02*
X122437217Y-31300990D01*
X122437217Y-31300990D02*
X122246741Y-31300990D01*
X122246741Y-31300990D02*
X122151503Y-31348609D01*
X122151503Y-31348609D02*
X122103884Y-31396228D01*
X122103884Y-31396228D02*
X122056265Y-31491466D01*
X122056265Y-31491466D02*
X122056265Y-31681942D01*
X122056265Y-31681942D02*
X122103884Y-31777180D01*
X122103884Y-31777180D02*
X122151503Y-31824800D01*
X122151503Y-31824800D02*
X122246741Y-31872419D01*
X122246741Y-31872419D02*
X122437217Y-31872419D01*
X122437217Y-31872419D02*
X122532455Y-31824800D01*
X122532455Y-31824800D02*
X122580074Y-31777180D01*
X122580074Y-31777180D02*
X122627693Y-31681942D01*
X122627693Y-31681942D02*
X122627693Y-31491466D01*
X122627693Y-31491466D02*
X122580074Y-31396228D01*
X122580074Y-31396228D02*
X122532455Y-31348609D01*
X122532455Y-31348609D02*
X122437217Y-31300990D01*
X154427693Y-32172419D02*
X153856265Y-32172419D01*
X154141979Y-32172419D02*
X154141979Y-31172419D01*
X154141979Y-31172419D02*
X154046741Y-31315276D01*
X154046741Y-31315276D02*
X153951503Y-31410514D01*
X153951503Y-31410514D02*
X153856265Y-31458133D01*
X154808646Y-31267657D02*
X154856265Y-31220038D01*
X154856265Y-31220038D02*
X154951503Y-31172419D01*
X154951503Y-31172419D02*
X155189598Y-31172419D01*
X155189598Y-31172419D02*
X155284836Y-31220038D01*
X155284836Y-31220038D02*
X155332455Y-31267657D01*
X155332455Y-31267657D02*
X155380074Y-31362895D01*
X155380074Y-31362895D02*
X155380074Y-31458133D01*
X155380074Y-31458133D02*
X155332455Y-31600990D01*
X155332455Y-31600990D02*
X154761027Y-32172419D01*
X154761027Y-32172419D02*
X155380074Y-32172419D01*
X186672419Y-84919925D02*
X186672419Y-85396115D01*
X186672419Y-85396115D02*
X187148609Y-85443734D01*
X187148609Y-85443734D02*
X187100990Y-85396115D01*
X187100990Y-85396115D02*
X187053371Y-85300877D01*
X187053371Y-85300877D02*
X187053371Y-85062782D01*
X187053371Y-85062782D02*
X187100990Y-84967544D01*
X187100990Y-84967544D02*
X187148609Y-84919925D01*
X187148609Y-84919925D02*
X187243847Y-84872306D01*
X187243847Y-84872306D02*
X187481942Y-84872306D01*
X187481942Y-84872306D02*
X187577180Y-84919925D01*
X187577180Y-84919925D02*
X187624800Y-84967544D01*
X187624800Y-84967544D02*
X187672419Y-85062782D01*
X187672419Y-85062782D02*
X187672419Y-85300877D01*
X187672419Y-85300877D02*
X187624800Y-85396115D01*
X187624800Y-85396115D02*
X187577180Y-85443734D01*
X186672419Y-84586591D02*
X187672419Y-84253258D01*
X187672419Y-84253258D02*
X186672419Y-83919925D01*
X138527693Y-31972419D02*
X137956265Y-31972419D01*
X138241979Y-31972419D02*
X138241979Y-30972419D01*
X138241979Y-30972419D02*
X138146741Y-31115276D01*
X138146741Y-31115276D02*
X138051503Y-31210514D01*
X138051503Y-31210514D02*
X137956265Y-31258133D01*
X139146741Y-30972419D02*
X139241979Y-30972419D01*
X139241979Y-30972419D02*
X139337217Y-31020038D01*
X139337217Y-31020038D02*
X139384836Y-31067657D01*
X139384836Y-31067657D02*
X139432455Y-31162895D01*
X139432455Y-31162895D02*
X139480074Y-31353371D01*
X139480074Y-31353371D02*
X139480074Y-31591466D01*
X139480074Y-31591466D02*
X139432455Y-31781942D01*
X139432455Y-31781942D02*
X139384836Y-31877180D01*
X139384836Y-31877180D02*
X139337217Y-31924800D01*
X139337217Y-31924800D02*
X139241979Y-31972419D01*
X139241979Y-31972419D02*
X139146741Y-31972419D01*
X139146741Y-31972419D02*
X139051503Y-31924800D01*
X139051503Y-31924800D02*
X139003884Y-31877180D01*
X139003884Y-31877180D02*
X138956265Y-31781942D01*
X138956265Y-31781942D02*
X138908646Y-31591466D01*
X138908646Y-31591466D02*
X138908646Y-31353371D01*
X138908646Y-31353371D02*
X138956265Y-31162895D01*
X138956265Y-31162895D02*
X139003884Y-31067657D01*
X139003884Y-31067657D02*
X139051503Y-31020038D01*
X139051503Y-31020038D02*
X139146741Y-30972419D01*
X179027693Y-31772419D02*
X178456265Y-31772419D01*
X178741979Y-31772419D02*
X178741979Y-30772419D01*
X178741979Y-30772419D02*
X178646741Y-30915276D01*
X178646741Y-30915276D02*
X178551503Y-31010514D01*
X178551503Y-31010514D02*
X178456265Y-31058133D01*
X179932455Y-30772419D02*
X179456265Y-30772419D01*
X179456265Y-30772419D02*
X179408646Y-31248609D01*
X179408646Y-31248609D02*
X179456265Y-31200990D01*
X179456265Y-31200990D02*
X179551503Y-31153371D01*
X179551503Y-31153371D02*
X179789598Y-31153371D01*
X179789598Y-31153371D02*
X179884836Y-31200990D01*
X179884836Y-31200990D02*
X179932455Y-31248609D01*
X179932455Y-31248609D02*
X179980074Y-31343847D01*
X179980074Y-31343847D02*
X179980074Y-31581942D01*
X179980074Y-31581942D02*
X179932455Y-31677180D01*
X179932455Y-31677180D02*
X179884836Y-31724800D01*
X179884836Y-31724800D02*
X179789598Y-31772419D01*
X179789598Y-31772419D02*
X179551503Y-31772419D01*
X179551503Y-31772419D02*
X179456265Y-31724800D01*
X179456265Y-31724800D02*
X179408646Y-31677180D01*
X98480074Y-30772419D02*
X98003884Y-30772419D01*
X98003884Y-30772419D02*
X97956265Y-31248609D01*
X97956265Y-31248609D02*
X98003884Y-31200990D01*
X98003884Y-31200990D02*
X98099122Y-31153371D01*
X98099122Y-31153371D02*
X98337217Y-31153371D01*
X98337217Y-31153371D02*
X98432455Y-31200990D01*
X98432455Y-31200990D02*
X98480074Y-31248609D01*
X98480074Y-31248609D02*
X98527693Y-31343847D01*
X98527693Y-31343847D02*
X98527693Y-31581942D01*
X98527693Y-31581942D02*
X98480074Y-31677180D01*
X98480074Y-31677180D02*
X98432455Y-31724800D01*
X98432455Y-31724800D02*
X98337217Y-31772419D01*
X98337217Y-31772419D02*
X98099122Y-31772419D01*
X98099122Y-31772419D02*
X98003884Y-31724800D01*
X98003884Y-31724800D02*
X97956265Y-31677180D01*
X81408646Y-31072419D02*
X82027693Y-31072419D01*
X82027693Y-31072419D02*
X81694360Y-31453371D01*
X81694360Y-31453371D02*
X81837217Y-31453371D01*
X81837217Y-31453371D02*
X81932455Y-31500990D01*
X81932455Y-31500990D02*
X81980074Y-31548609D01*
X81980074Y-31548609D02*
X82027693Y-31643847D01*
X82027693Y-31643847D02*
X82027693Y-31881942D01*
X82027693Y-31881942D02*
X81980074Y-31977180D01*
X81980074Y-31977180D02*
X81932455Y-32024800D01*
X81932455Y-32024800D02*
X81837217Y-32072419D01*
X81837217Y-32072419D02*
X81551503Y-32072419D01*
X81551503Y-32072419D02*
X81456265Y-32024800D01*
X81456265Y-32024800D02*
X81408646Y-31977180D01*
X189220038Y-86072306D02*
X189172419Y-86167544D01*
X189172419Y-86167544D02*
X189172419Y-86310401D01*
X189172419Y-86310401D02*
X189220038Y-86453258D01*
X189220038Y-86453258D02*
X189315276Y-86548496D01*
X189315276Y-86548496D02*
X189410514Y-86596115D01*
X189410514Y-86596115D02*
X189600990Y-86643734D01*
X189600990Y-86643734D02*
X189743847Y-86643734D01*
X189743847Y-86643734D02*
X189934323Y-86596115D01*
X189934323Y-86596115D02*
X190029561Y-86548496D01*
X190029561Y-86548496D02*
X190124800Y-86453258D01*
X190124800Y-86453258D02*
X190172419Y-86310401D01*
X190172419Y-86310401D02*
X190172419Y-86215163D01*
X190172419Y-86215163D02*
X190124800Y-86072306D01*
X190124800Y-86072306D02*
X190077180Y-86024687D01*
X190077180Y-86024687D02*
X189743847Y-86024687D01*
X189743847Y-86024687D02*
X189743847Y-86215163D01*
X190172419Y-85596115D02*
X189172419Y-85596115D01*
X189172419Y-85596115D02*
X190172419Y-85024687D01*
X190172419Y-85024687D02*
X189172419Y-85024687D01*
X190172419Y-84548496D02*
X189172419Y-84548496D01*
X189172419Y-84548496D02*
X189172419Y-84310401D01*
X189172419Y-84310401D02*
X189220038Y-84167544D01*
X189220038Y-84167544D02*
X189315276Y-84072306D01*
X189315276Y-84072306D02*
X189410514Y-84024687D01*
X189410514Y-84024687D02*
X189600990Y-83977068D01*
X189600990Y-83977068D02*
X189743847Y-83977068D01*
X189743847Y-83977068D02*
X189934323Y-84024687D01*
X189934323Y-84024687D02*
X190029561Y-84072306D01*
X190029561Y-84072306D02*
X190124800Y-84167544D01*
X190124800Y-84167544D02*
X190172419Y-84310401D01*
X190172419Y-84310401D02*
X190172419Y-84548496D01*
X106432455Y-30672419D02*
X106241979Y-30672419D01*
X106241979Y-30672419D02*
X106146741Y-30720038D01*
X106146741Y-30720038D02*
X106099122Y-30767657D01*
X106099122Y-30767657D02*
X106003884Y-30910514D01*
X106003884Y-30910514D02*
X105956265Y-31100990D01*
X105956265Y-31100990D02*
X105956265Y-31481942D01*
X105956265Y-31481942D02*
X106003884Y-31577180D01*
X106003884Y-31577180D02*
X106051503Y-31624800D01*
X106051503Y-31624800D02*
X106146741Y-31672419D01*
X106146741Y-31672419D02*
X106337217Y-31672419D01*
X106337217Y-31672419D02*
X106432455Y-31624800D01*
X106432455Y-31624800D02*
X106480074Y-31577180D01*
X106480074Y-31577180D02*
X106527693Y-31481942D01*
X106527693Y-31481942D02*
X106527693Y-31243847D01*
X106527693Y-31243847D02*
X106480074Y-31148609D01*
X106480074Y-31148609D02*
X106432455Y-31100990D01*
X106432455Y-31100990D02*
X106337217Y-31053371D01*
X106337217Y-31053371D02*
X106146741Y-31053371D01*
X106146741Y-31053371D02*
X106051503Y-31100990D01*
X106051503Y-31100990D02*
X106003884Y-31148609D01*
X106003884Y-31148609D02*
X105956265Y-31243847D01*
X193981522Y-83196115D02*
X193981522Y-82434211D01*
X194362475Y-82815163D02*
X193600570Y-82815163D01*
X193981522Y-79672305D02*
X193981522Y-78910401D01*
X195924800Y-82767544D02*
X195972419Y-82862782D01*
X195972419Y-82862782D02*
X195972419Y-83053258D01*
X195972419Y-83053258D02*
X195924800Y-83148496D01*
X195924800Y-83148496D02*
X195877180Y-83196115D01*
X195877180Y-83196115D02*
X195781942Y-83243734D01*
X195781942Y-83243734D02*
X195496228Y-83243734D01*
X195496228Y-83243734D02*
X195400990Y-83196115D01*
X195400990Y-83196115D02*
X195353371Y-83148496D01*
X195353371Y-83148496D02*
X195305752Y-83053258D01*
X195305752Y-83053258D02*
X195305752Y-82862782D01*
X195305752Y-82862782D02*
X195353371Y-82767544D01*
X195972419Y-82196115D02*
X195924800Y-82291353D01*
X195924800Y-82291353D02*
X195877180Y-82338972D01*
X195877180Y-82338972D02*
X195781942Y-82386591D01*
X195781942Y-82386591D02*
X195496228Y-82386591D01*
X195496228Y-82386591D02*
X195400990Y-82338972D01*
X195400990Y-82338972D02*
X195353371Y-82291353D01*
X195353371Y-82291353D02*
X195305752Y-82196115D01*
X195305752Y-82196115D02*
X195305752Y-82053258D01*
X195305752Y-82053258D02*
X195353371Y-81958020D01*
X195353371Y-81958020D02*
X195400990Y-81910401D01*
X195400990Y-81910401D02*
X195496228Y-81862782D01*
X195496228Y-81862782D02*
X195781942Y-81862782D01*
X195781942Y-81862782D02*
X195877180Y-81910401D01*
X195877180Y-81910401D02*
X195924800Y-81958020D01*
X195924800Y-81958020D02*
X195972419Y-82053258D01*
X195972419Y-82053258D02*
X195972419Y-82196115D01*
X195972419Y-81434210D02*
X195305752Y-81434210D01*
X195400990Y-81434210D02*
X195353371Y-81386591D01*
X195353371Y-81386591D02*
X195305752Y-81291353D01*
X195305752Y-81291353D02*
X195305752Y-81148496D01*
X195305752Y-81148496D02*
X195353371Y-81053258D01*
X195353371Y-81053258D02*
X195448609Y-81005639D01*
X195448609Y-81005639D02*
X195972419Y-81005639D01*
X195448609Y-81005639D02*
X195353371Y-80958020D01*
X195353371Y-80958020D02*
X195305752Y-80862782D01*
X195305752Y-80862782D02*
X195305752Y-80719925D01*
X195305752Y-80719925D02*
X195353371Y-80624686D01*
X195353371Y-80624686D02*
X195448609Y-80577067D01*
X195448609Y-80577067D02*
X195972419Y-80577067D01*
X195972419Y-80100877D02*
X195305752Y-80100877D01*
X195400990Y-80100877D02*
X195353371Y-80053258D01*
X195353371Y-80053258D02*
X195305752Y-79958020D01*
X195305752Y-79958020D02*
X195305752Y-79815163D01*
X195305752Y-79815163D02*
X195353371Y-79719925D01*
X195353371Y-79719925D02*
X195448609Y-79672306D01*
X195448609Y-79672306D02*
X195972419Y-79672306D01*
X195448609Y-79672306D02*
X195353371Y-79624687D01*
X195353371Y-79624687D02*
X195305752Y-79529449D01*
X195305752Y-79529449D02*
X195305752Y-79386592D01*
X195305752Y-79386592D02*
X195353371Y-79291353D01*
X195353371Y-79291353D02*
X195448609Y-79243734D01*
X195448609Y-79243734D02*
X195972419Y-79243734D01*
X195067657Y-78815163D02*
X195020038Y-78767544D01*
X195020038Y-78767544D02*
X194972419Y-78672306D01*
X194972419Y-78672306D02*
X194972419Y-78434211D01*
X194972419Y-78434211D02*
X195020038Y-78338973D01*
X195020038Y-78338973D02*
X195067657Y-78291354D01*
X195067657Y-78291354D02*
X195162895Y-78243735D01*
X195162895Y-78243735D02*
X195258133Y-78243735D01*
X195258133Y-78243735D02*
X195400990Y-78291354D01*
X195400990Y-78291354D02*
X195972419Y-78862782D01*
X195972419Y-78862782D02*
X195972419Y-78243735D01*
X184072419Y-86891353D02*
X184072419Y-86272306D01*
X184072419Y-86272306D02*
X184453371Y-86605639D01*
X184453371Y-86605639D02*
X184453371Y-86462782D01*
X184453371Y-86462782D02*
X184500990Y-86367544D01*
X184500990Y-86367544D02*
X184548609Y-86319925D01*
X184548609Y-86319925D02*
X184643847Y-86272306D01*
X184643847Y-86272306D02*
X184881942Y-86272306D01*
X184881942Y-86272306D02*
X184977180Y-86319925D01*
X184977180Y-86319925D02*
X185024800Y-86367544D01*
X185024800Y-86367544D02*
X185072419Y-86462782D01*
X185072419Y-86462782D02*
X185072419Y-86748496D01*
X185072419Y-86748496D02*
X185024800Y-86843734D01*
X185024800Y-86843734D02*
X184977180Y-86891353D01*
X184977180Y-85843734D02*
X185024800Y-85796115D01*
X185024800Y-85796115D02*
X185072419Y-85843734D01*
X185072419Y-85843734D02*
X185024800Y-85891353D01*
X185024800Y-85891353D02*
X184977180Y-85843734D01*
X184977180Y-85843734D02*
X185072419Y-85843734D01*
X184072419Y-85462782D02*
X184072419Y-84843735D01*
X184072419Y-84843735D02*
X184453371Y-85177068D01*
X184453371Y-85177068D02*
X184453371Y-85034211D01*
X184453371Y-85034211D02*
X184500990Y-84938973D01*
X184500990Y-84938973D02*
X184548609Y-84891354D01*
X184548609Y-84891354D02*
X184643847Y-84843735D01*
X184643847Y-84843735D02*
X184881942Y-84843735D01*
X184881942Y-84843735D02*
X184977180Y-84891354D01*
X184977180Y-84891354D02*
X185024800Y-84938973D01*
X185024800Y-84938973D02*
X185072419Y-85034211D01*
X185072419Y-85034211D02*
X185072419Y-85319925D01*
X185072419Y-85319925D02*
X185024800Y-85415163D01*
X185024800Y-85415163D02*
X184977180Y-85462782D01*
X184072419Y-84558020D02*
X185072419Y-84224687D01*
X185072419Y-84224687D02*
X184072419Y-83891354D01*
X163027693Y-31872419D02*
X162456265Y-31872419D01*
X162741979Y-31872419D02*
X162741979Y-30872419D01*
X162741979Y-30872419D02*
X162646741Y-31015276D01*
X162646741Y-31015276D02*
X162551503Y-31110514D01*
X162551503Y-31110514D02*
X162456265Y-31158133D01*
X163361027Y-30872419D02*
X163980074Y-30872419D01*
X163980074Y-30872419D02*
X163646741Y-31253371D01*
X163646741Y-31253371D02*
X163789598Y-31253371D01*
X163789598Y-31253371D02*
X163884836Y-31300990D01*
X163884836Y-31300990D02*
X163932455Y-31348609D01*
X163932455Y-31348609D02*
X163980074Y-31443847D01*
X163980074Y-31443847D02*
X163980074Y-31681942D01*
X163980074Y-31681942D02*
X163932455Y-31777180D01*
X163932455Y-31777180D02*
X163884836Y-31824800D01*
X163884836Y-31824800D02*
X163789598Y-31872419D01*
X163789598Y-31872419D02*
X163503884Y-31872419D01*
X163503884Y-31872419D02*
X163408646Y-31824800D01*
X163408646Y-31824800D02*
X163361027Y-31777180D01*
D11*
X111586033Y-70123333D02*
X110886033Y-70123333D01*
X110886033Y-70123333D02*
X110886033Y-69956666D01*
X110886033Y-69956666D02*
X110919366Y-69856666D01*
X110919366Y-69856666D02*
X110986033Y-69790000D01*
X110986033Y-69790000D02*
X111052700Y-69756666D01*
X111052700Y-69756666D02*
X111186033Y-69723333D01*
X111186033Y-69723333D02*
X111286033Y-69723333D01*
X111286033Y-69723333D02*
X111419366Y-69756666D01*
X111419366Y-69756666D02*
X111486033Y-69790000D01*
X111486033Y-69790000D02*
X111552700Y-69856666D01*
X111552700Y-69856666D02*
X111586033Y-69956666D01*
X111586033Y-69956666D02*
X111586033Y-70123333D01*
X110886033Y-69523333D02*
X111586033Y-69290000D01*
X111586033Y-69290000D02*
X110886033Y-69056666D01*
X110886033Y-68623333D02*
X111386033Y-68623333D01*
X111386033Y-68623333D02*
X111486033Y-68656666D01*
X111486033Y-68656666D02*
X111552700Y-68723333D01*
X111552700Y-68723333D02*
X111586033Y-68823333D01*
X111586033Y-68823333D02*
X111586033Y-68890000D01*
X110886033Y-67990000D02*
X110886033Y-68123333D01*
X110886033Y-68123333D02*
X110919366Y-68190000D01*
X110919366Y-68190000D02*
X110952700Y-68223333D01*
X110952700Y-68223333D02*
X111052700Y-68290000D01*
X111052700Y-68290000D02*
X111186033Y-68323333D01*
X111186033Y-68323333D02*
X111452700Y-68323333D01*
X111452700Y-68323333D02*
X111519366Y-68290000D01*
X111519366Y-68290000D02*
X111552700Y-68256667D01*
X111552700Y-68256667D02*
X111586033Y-68190000D01*
X111586033Y-68190000D02*
X111586033Y-68056667D01*
X111586033Y-68056667D02*
X111552700Y-67990000D01*
X111552700Y-67990000D02*
X111519366Y-67956667D01*
X111519366Y-67956667D02*
X111452700Y-67923333D01*
X111452700Y-67923333D02*
X111286033Y-67923333D01*
X111286033Y-67923333D02*
X111219366Y-67956667D01*
X111219366Y-67956667D02*
X111186033Y-67990000D01*
X111186033Y-67990000D02*
X111152700Y-68056667D01*
X111152700Y-68056667D02*
X111152700Y-68190000D01*
X111152700Y-68190000D02*
X111186033Y-68256667D01*
X111186033Y-68256667D02*
X111219366Y-68290000D01*
X111219366Y-68290000D02*
X111286033Y-68323333D01*
X111386033Y-67656666D02*
X111386033Y-67323333D01*
X111586033Y-67723333D02*
X110886033Y-67490000D01*
X110886033Y-67490000D02*
X111586033Y-67256666D01*
X134820953Y-69374819D02*
X134820953Y-68374819D01*
X134820953Y-68374819D02*
X135154286Y-69089104D01*
X135154286Y-69089104D02*
X135487619Y-68374819D01*
X135487619Y-68374819D02*
X135487619Y-69374819D01*
X135963810Y-69374819D02*
X135963810Y-68708152D01*
X135963810Y-68374819D02*
X135916191Y-68422438D01*
X135916191Y-68422438D02*
X135963810Y-68470057D01*
X135963810Y-68470057D02*
X136011429Y-68422438D01*
X136011429Y-68422438D02*
X135963810Y-68374819D01*
X135963810Y-68374819D02*
X135963810Y-68470057D01*
X136868571Y-69327200D02*
X136773333Y-69374819D01*
X136773333Y-69374819D02*
X136582857Y-69374819D01*
X136582857Y-69374819D02*
X136487619Y-69327200D01*
X136487619Y-69327200D02*
X136440000Y-69279580D01*
X136440000Y-69279580D02*
X136392381Y-69184342D01*
X136392381Y-69184342D02*
X136392381Y-68898628D01*
X136392381Y-68898628D02*
X136440000Y-68803390D01*
X136440000Y-68803390D02*
X136487619Y-68755771D01*
X136487619Y-68755771D02*
X136582857Y-68708152D01*
X136582857Y-68708152D02*
X136773333Y-68708152D01*
X136773333Y-68708152D02*
X136868571Y-68755771D01*
X137297143Y-69374819D02*
X137297143Y-68708152D01*
X137297143Y-68898628D02*
X137344762Y-68803390D01*
X137344762Y-68803390D02*
X137392381Y-68755771D01*
X137392381Y-68755771D02*
X137487619Y-68708152D01*
X137487619Y-68708152D02*
X137582857Y-68708152D01*
X138059048Y-69374819D02*
X137963810Y-69327200D01*
X137963810Y-69327200D02*
X137916191Y-69279580D01*
X137916191Y-69279580D02*
X137868572Y-69184342D01*
X137868572Y-69184342D02*
X137868572Y-68898628D01*
X137868572Y-68898628D02*
X137916191Y-68803390D01*
X137916191Y-68803390D02*
X137963810Y-68755771D01*
X137963810Y-68755771D02*
X138059048Y-68708152D01*
X138059048Y-68708152D02*
X138201905Y-68708152D01*
X138201905Y-68708152D02*
X138297143Y-68755771D01*
X138297143Y-68755771D02*
X138344762Y-68803390D01*
X138344762Y-68803390D02*
X138392381Y-68898628D01*
X138392381Y-68898628D02*
X138392381Y-69184342D01*
X138392381Y-69184342D02*
X138344762Y-69279580D01*
X138344762Y-69279580D02*
X138297143Y-69327200D01*
X138297143Y-69327200D02*
X138201905Y-69374819D01*
X138201905Y-69374819D02*
X138059048Y-69374819D01*
X139535239Y-69327200D02*
X139678096Y-69374819D01*
X139678096Y-69374819D02*
X139916191Y-69374819D01*
X139916191Y-69374819D02*
X140011429Y-69327200D01*
X140011429Y-69327200D02*
X140059048Y-69279580D01*
X140059048Y-69279580D02*
X140106667Y-69184342D01*
X140106667Y-69184342D02*
X140106667Y-69089104D01*
X140106667Y-69089104D02*
X140059048Y-68993866D01*
X140059048Y-68993866D02*
X140011429Y-68946247D01*
X140011429Y-68946247D02*
X139916191Y-68898628D01*
X139916191Y-68898628D02*
X139725715Y-68851009D01*
X139725715Y-68851009D02*
X139630477Y-68803390D01*
X139630477Y-68803390D02*
X139582858Y-68755771D01*
X139582858Y-68755771D02*
X139535239Y-68660533D01*
X139535239Y-68660533D02*
X139535239Y-68565295D01*
X139535239Y-68565295D02*
X139582858Y-68470057D01*
X139582858Y-68470057D02*
X139630477Y-68422438D01*
X139630477Y-68422438D02*
X139725715Y-68374819D01*
X139725715Y-68374819D02*
X139963810Y-68374819D01*
X139963810Y-68374819D02*
X140106667Y-68422438D01*
X140535239Y-69374819D02*
X140535239Y-68374819D01*
X140535239Y-68374819D02*
X140773334Y-68374819D01*
X140773334Y-68374819D02*
X140916191Y-68422438D01*
X140916191Y-68422438D02*
X141011429Y-68517676D01*
X141011429Y-68517676D02*
X141059048Y-68612914D01*
X141059048Y-68612914D02*
X141106667Y-68803390D01*
X141106667Y-68803390D02*
X141106667Y-68946247D01*
X141106667Y-68946247D02*
X141059048Y-69136723D01*
X141059048Y-69136723D02*
X141011429Y-69231961D01*
X141011429Y-69231961D02*
X140916191Y-69327200D01*
X140916191Y-69327200D02*
X140773334Y-69374819D01*
X140773334Y-69374819D02*
X140535239Y-69374819D01*
X92034676Y-70864019D02*
X92034676Y-71673542D01*
X92034676Y-71673542D02*
X92082295Y-71768780D01*
X92082295Y-71768780D02*
X92129914Y-71816400D01*
X92129914Y-71816400D02*
X92225152Y-71864019D01*
X92225152Y-71864019D02*
X92415628Y-71864019D01*
X92415628Y-71864019D02*
X92510866Y-71816400D01*
X92510866Y-71816400D02*
X92558485Y-71768780D01*
X92558485Y-71768780D02*
X92606104Y-71673542D01*
X92606104Y-71673542D02*
X92606104Y-70864019D01*
X93034676Y-71816400D02*
X93177533Y-71864019D01*
X93177533Y-71864019D02*
X93415628Y-71864019D01*
X93415628Y-71864019D02*
X93510866Y-71816400D01*
X93510866Y-71816400D02*
X93558485Y-71768780D01*
X93558485Y-71768780D02*
X93606104Y-71673542D01*
X93606104Y-71673542D02*
X93606104Y-71578304D01*
X93606104Y-71578304D02*
X93558485Y-71483066D01*
X93558485Y-71483066D02*
X93510866Y-71435447D01*
X93510866Y-71435447D02*
X93415628Y-71387828D01*
X93415628Y-71387828D02*
X93225152Y-71340209D01*
X93225152Y-71340209D02*
X93129914Y-71292590D01*
X93129914Y-71292590D02*
X93082295Y-71244971D01*
X93082295Y-71244971D02*
X93034676Y-71149733D01*
X93034676Y-71149733D02*
X93034676Y-71054495D01*
X93034676Y-71054495D02*
X93082295Y-70959257D01*
X93082295Y-70959257D02*
X93129914Y-70911638D01*
X93129914Y-70911638D02*
X93225152Y-70864019D01*
X93225152Y-70864019D02*
X93463247Y-70864019D01*
X93463247Y-70864019D02*
X93606104Y-70911638D01*
X94368009Y-71340209D02*
X94510866Y-71387828D01*
X94510866Y-71387828D02*
X94558485Y-71435447D01*
X94558485Y-71435447D02*
X94606104Y-71530685D01*
X94606104Y-71530685D02*
X94606104Y-71673542D01*
X94606104Y-71673542D02*
X94558485Y-71768780D01*
X94558485Y-71768780D02*
X94510866Y-71816400D01*
X94510866Y-71816400D02*
X94415628Y-71864019D01*
X94415628Y-71864019D02*
X94034676Y-71864019D01*
X94034676Y-71864019D02*
X94034676Y-70864019D01*
X94034676Y-70864019D02*
X94368009Y-70864019D01*
X94368009Y-70864019D02*
X94463247Y-70911638D01*
X94463247Y-70911638D02*
X94510866Y-70959257D01*
X94510866Y-70959257D02*
X94558485Y-71054495D01*
X94558485Y-71054495D02*
X94558485Y-71149733D01*
X94558485Y-71149733D02*
X94510866Y-71244971D01*
X94510866Y-71244971D02*
X94463247Y-71292590D01*
X94463247Y-71292590D02*
X94368009Y-71340209D01*
X94368009Y-71340209D02*
X94034676Y-71340209D01*
X95796581Y-71864019D02*
X95796581Y-70864019D01*
X95796581Y-71340209D02*
X96368009Y-71340209D01*
X96368009Y-71864019D02*
X96368009Y-70864019D01*
X96987057Y-71864019D02*
X96891819Y-71816400D01*
X96891819Y-71816400D02*
X96844200Y-71768780D01*
X96844200Y-71768780D02*
X96796581Y-71673542D01*
X96796581Y-71673542D02*
X96796581Y-71387828D01*
X96796581Y-71387828D02*
X96844200Y-71292590D01*
X96844200Y-71292590D02*
X96891819Y-71244971D01*
X96891819Y-71244971D02*
X96987057Y-71197352D01*
X96987057Y-71197352D02*
X97129914Y-71197352D01*
X97129914Y-71197352D02*
X97225152Y-71244971D01*
X97225152Y-71244971D02*
X97272771Y-71292590D01*
X97272771Y-71292590D02*
X97320390Y-71387828D01*
X97320390Y-71387828D02*
X97320390Y-71673542D01*
X97320390Y-71673542D02*
X97272771Y-71768780D01*
X97272771Y-71768780D02*
X97225152Y-71816400D01*
X97225152Y-71816400D02*
X97129914Y-71864019D01*
X97129914Y-71864019D02*
X96987057Y-71864019D01*
X97701343Y-71816400D02*
X97796581Y-71864019D01*
X97796581Y-71864019D02*
X97987057Y-71864019D01*
X97987057Y-71864019D02*
X98082295Y-71816400D01*
X98082295Y-71816400D02*
X98129914Y-71721161D01*
X98129914Y-71721161D02*
X98129914Y-71673542D01*
X98129914Y-71673542D02*
X98082295Y-71578304D01*
X98082295Y-71578304D02*
X97987057Y-71530685D01*
X97987057Y-71530685D02*
X97844200Y-71530685D01*
X97844200Y-71530685D02*
X97748962Y-71483066D01*
X97748962Y-71483066D02*
X97701343Y-71387828D01*
X97701343Y-71387828D02*
X97701343Y-71340209D01*
X97701343Y-71340209D02*
X97748962Y-71244971D01*
X97748962Y-71244971D02*
X97844200Y-71197352D01*
X97844200Y-71197352D02*
X97987057Y-71197352D01*
X97987057Y-71197352D02*
X98082295Y-71244971D01*
X98415629Y-71197352D02*
X98796581Y-71197352D01*
X98558486Y-70864019D02*
X98558486Y-71721161D01*
X98558486Y-71721161D02*
X98606105Y-71816400D01*
X98606105Y-71816400D02*
X98701343Y-71864019D01*
X98701343Y-71864019D02*
X98796581Y-71864019D01*
X101676009Y-68500543D02*
X101676009Y-68167210D01*
X102199819Y-68024353D02*
X102199819Y-68500543D01*
X102199819Y-68500543D02*
X101199819Y-68500543D01*
X101199819Y-68500543D02*
X101199819Y-68024353D01*
X101533152Y-67738638D02*
X101533152Y-67357686D01*
X101199819Y-67595781D02*
X102056961Y-67595781D01*
X102056961Y-67595781D02*
X102152200Y-67548162D01*
X102152200Y-67548162D02*
X102199819Y-67452924D01*
X102199819Y-67452924D02*
X102199819Y-67357686D01*
X102199819Y-67024352D02*
X101199819Y-67024352D01*
X102199819Y-66595781D02*
X101676009Y-66595781D01*
X101676009Y-66595781D02*
X101580771Y-66643400D01*
X101580771Y-66643400D02*
X101533152Y-66738638D01*
X101533152Y-66738638D02*
X101533152Y-66881495D01*
X101533152Y-66881495D02*
X101580771Y-66976733D01*
X101580771Y-66976733D02*
X101628390Y-67024352D01*
X102152200Y-65738638D02*
X102199819Y-65833876D01*
X102199819Y-65833876D02*
X102199819Y-66024352D01*
X102199819Y-66024352D02*
X102152200Y-66119590D01*
X102152200Y-66119590D02*
X102056961Y-66167209D01*
X102056961Y-66167209D02*
X101676009Y-66167209D01*
X101676009Y-66167209D02*
X101580771Y-66119590D01*
X101580771Y-66119590D02*
X101533152Y-66024352D01*
X101533152Y-66024352D02*
X101533152Y-65833876D01*
X101533152Y-65833876D02*
X101580771Y-65738638D01*
X101580771Y-65738638D02*
X101676009Y-65691019D01*
X101676009Y-65691019D02*
X101771247Y-65691019D01*
X101771247Y-65691019D02*
X101866485Y-66167209D01*
X102199819Y-65262447D02*
X101533152Y-65262447D01*
X101723628Y-65262447D02*
X101628390Y-65214828D01*
X101628390Y-65214828D02*
X101580771Y-65167209D01*
X101580771Y-65167209D02*
X101533152Y-65071971D01*
X101533152Y-65071971D02*
X101533152Y-64976733D01*
X101533152Y-64643399D02*
X102199819Y-64643399D01*
X101628390Y-64643399D02*
X101580771Y-64595780D01*
X101580771Y-64595780D02*
X101533152Y-64500542D01*
X101533152Y-64500542D02*
X101533152Y-64357685D01*
X101533152Y-64357685D02*
X101580771Y-64262447D01*
X101580771Y-64262447D02*
X101676009Y-64214828D01*
X101676009Y-64214828D02*
X102199819Y-64214828D01*
X102152200Y-63357685D02*
X102199819Y-63452923D01*
X102199819Y-63452923D02*
X102199819Y-63643399D01*
X102199819Y-63643399D02*
X102152200Y-63738637D01*
X102152200Y-63738637D02*
X102056961Y-63786256D01*
X102056961Y-63786256D02*
X101676009Y-63786256D01*
X101676009Y-63786256D02*
X101580771Y-63738637D01*
X101580771Y-63738637D02*
X101533152Y-63643399D01*
X101533152Y-63643399D02*
X101533152Y-63452923D01*
X101533152Y-63452923D02*
X101580771Y-63357685D01*
X101580771Y-63357685D02*
X101676009Y-63310066D01*
X101676009Y-63310066D02*
X101771247Y-63310066D01*
X101771247Y-63310066D02*
X101866485Y-63786256D01*
X101533152Y-63024351D02*
X101533152Y-62643399D01*
X101199819Y-62881494D02*
X102056961Y-62881494D01*
X102056961Y-62881494D02*
X102152200Y-62833875D01*
X102152200Y-62833875D02*
X102199819Y-62738637D01*
X102199819Y-62738637D02*
X102199819Y-62643399D01*
X86594819Y-70181904D02*
X87404342Y-70181904D01*
X87404342Y-70181904D02*
X87499580Y-70134285D01*
X87499580Y-70134285D02*
X87547200Y-70086666D01*
X87547200Y-70086666D02*
X87594819Y-69991428D01*
X87594819Y-69991428D02*
X87594819Y-69800952D01*
X87594819Y-69800952D02*
X87547200Y-69705714D01*
X87547200Y-69705714D02*
X87499580Y-69658095D01*
X87499580Y-69658095D02*
X87404342Y-69610476D01*
X87404342Y-69610476D02*
X86594819Y-69610476D01*
X87547200Y-69181904D02*
X87594819Y-69039047D01*
X87594819Y-69039047D02*
X87594819Y-68800952D01*
X87594819Y-68800952D02*
X87547200Y-68705714D01*
X87547200Y-68705714D02*
X87499580Y-68658095D01*
X87499580Y-68658095D02*
X87404342Y-68610476D01*
X87404342Y-68610476D02*
X87309104Y-68610476D01*
X87309104Y-68610476D02*
X87213866Y-68658095D01*
X87213866Y-68658095D02*
X87166247Y-68705714D01*
X87166247Y-68705714D02*
X87118628Y-68800952D01*
X87118628Y-68800952D02*
X87071009Y-68991428D01*
X87071009Y-68991428D02*
X87023390Y-69086666D01*
X87023390Y-69086666D02*
X86975771Y-69134285D01*
X86975771Y-69134285D02*
X86880533Y-69181904D01*
X86880533Y-69181904D02*
X86785295Y-69181904D01*
X86785295Y-69181904D02*
X86690057Y-69134285D01*
X86690057Y-69134285D02*
X86642438Y-69086666D01*
X86642438Y-69086666D02*
X86594819Y-68991428D01*
X86594819Y-68991428D02*
X86594819Y-68753333D01*
X86594819Y-68753333D02*
X86642438Y-68610476D01*
X87071009Y-67848571D02*
X87118628Y-67705714D01*
X87118628Y-67705714D02*
X87166247Y-67658095D01*
X87166247Y-67658095D02*
X87261485Y-67610476D01*
X87261485Y-67610476D02*
X87404342Y-67610476D01*
X87404342Y-67610476D02*
X87499580Y-67658095D01*
X87499580Y-67658095D02*
X87547200Y-67705714D01*
X87547200Y-67705714D02*
X87594819Y-67800952D01*
X87594819Y-67800952D02*
X87594819Y-68181904D01*
X87594819Y-68181904D02*
X86594819Y-68181904D01*
X86594819Y-68181904D02*
X86594819Y-67848571D01*
X86594819Y-67848571D02*
X86642438Y-67753333D01*
X86642438Y-67753333D02*
X86690057Y-67705714D01*
X86690057Y-67705714D02*
X86785295Y-67658095D01*
X86785295Y-67658095D02*
X86880533Y-67658095D01*
X86880533Y-67658095D02*
X86975771Y-67705714D01*
X86975771Y-67705714D02*
X87023390Y-67753333D01*
X87023390Y-67753333D02*
X87071009Y-67848571D01*
X87071009Y-67848571D02*
X87071009Y-68181904D01*
X112856032Y-72003333D02*
X112156032Y-72003333D01*
X112156032Y-72003333D02*
X112656032Y-71770000D01*
X112656032Y-71770000D02*
X112156032Y-71536666D01*
X112156032Y-71536666D02*
X112856032Y-71536666D01*
X112856032Y-71203333D02*
X112156032Y-71203333D01*
X112856032Y-70870000D02*
X112156032Y-70870000D01*
X112156032Y-70870000D02*
X112656032Y-70636667D01*
X112656032Y-70636667D02*
X112156032Y-70403333D01*
X112156032Y-70403333D02*
X112856032Y-70403333D01*
X112156032Y-70136667D02*
X112856032Y-69670000D01*
X112156032Y-69670000D02*
X112856032Y-70136667D01*
X112856032Y-69003333D02*
X112522699Y-69236666D01*
X112856032Y-69403333D02*
X112156032Y-69403333D01*
X112156032Y-69403333D02*
X112156032Y-69136666D01*
X112156032Y-69136666D02*
X112189365Y-69070000D01*
X112189365Y-69070000D02*
X112222699Y-69036666D01*
X112222699Y-69036666D02*
X112289365Y-69003333D01*
X112289365Y-69003333D02*
X112389365Y-69003333D01*
X112389365Y-69003333D02*
X112456032Y-69036666D01*
X112456032Y-69036666D02*
X112489365Y-69070000D01*
X112489365Y-69070000D02*
X112522699Y-69136666D01*
X112522699Y-69136666D02*
X112522699Y-69403333D01*
X112156032Y-68803333D02*
X112156032Y-68403333D01*
X112856032Y-68603333D02*
X112156032Y-68603333D01*
X112856032Y-67803333D02*
X112856032Y-68203333D01*
X112856032Y-68003333D02*
X112156032Y-68003333D01*
X112156032Y-68003333D02*
X112256032Y-68070000D01*
X112256032Y-68070000D02*
X112322699Y-68136667D01*
X112322699Y-68136667D02*
X112356032Y-68203333D01*
X112156032Y-67370000D02*
X112156032Y-67303333D01*
X112156032Y-67303333D02*
X112189365Y-67236666D01*
X112189365Y-67236666D02*
X112222699Y-67203333D01*
X112222699Y-67203333D02*
X112289365Y-67170000D01*
X112289365Y-67170000D02*
X112422699Y-67136666D01*
X112422699Y-67136666D02*
X112589365Y-67136666D01*
X112589365Y-67136666D02*
X112722699Y-67170000D01*
X112722699Y-67170000D02*
X112789365Y-67203333D01*
X112789365Y-67203333D02*
X112822699Y-67236666D01*
X112822699Y-67236666D02*
X112856032Y-67303333D01*
X112856032Y-67303333D02*
X112856032Y-67370000D01*
X112856032Y-67370000D02*
X112822699Y-67436666D01*
X112822699Y-67436666D02*
X112789365Y-67470000D01*
X112789365Y-67470000D02*
X112722699Y-67503333D01*
X112722699Y-67503333D02*
X112589365Y-67536666D01*
X112589365Y-67536666D02*
X112422699Y-67536666D01*
X112422699Y-67536666D02*
X112289365Y-67503333D01*
X112289365Y-67503333D02*
X112222699Y-67470000D01*
X112222699Y-67470000D02*
X112189365Y-67436666D01*
X112189365Y-67436666D02*
X112156032Y-67370000D01*
X112156032Y-66536666D02*
X112156032Y-66669999D01*
X112156032Y-66669999D02*
X112189365Y-66736666D01*
X112189365Y-66736666D02*
X112222699Y-66769999D01*
X112222699Y-66769999D02*
X112322699Y-66836666D01*
X112322699Y-66836666D02*
X112456032Y-66869999D01*
X112456032Y-66869999D02*
X112722699Y-66869999D01*
X112722699Y-66869999D02*
X112789365Y-66836666D01*
X112789365Y-66836666D02*
X112822699Y-66803333D01*
X112822699Y-66803333D02*
X112856032Y-66736666D01*
X112856032Y-66736666D02*
X112856032Y-66603333D01*
X112856032Y-66603333D02*
X112822699Y-66536666D01*
X112822699Y-66536666D02*
X112789365Y-66503333D01*
X112789365Y-66503333D02*
X112722699Y-66469999D01*
X112722699Y-66469999D02*
X112556032Y-66469999D01*
X112556032Y-66469999D02*
X112489365Y-66503333D01*
X112489365Y-66503333D02*
X112456032Y-66536666D01*
X112456032Y-66536666D02*
X112422699Y-66603333D01*
X112422699Y-66603333D02*
X112422699Y-66736666D01*
X112422699Y-66736666D02*
X112456032Y-66803333D01*
X112456032Y-66803333D02*
X112489365Y-66836666D01*
X112489365Y-66836666D02*
X112556032Y-66869999D01*
X112222699Y-66203332D02*
X112189365Y-66169999D01*
X112189365Y-66169999D02*
X112156032Y-66103332D01*
X112156032Y-66103332D02*
X112156032Y-65936666D01*
X112156032Y-65936666D02*
X112189365Y-65869999D01*
X112189365Y-65869999D02*
X112222699Y-65836666D01*
X112222699Y-65836666D02*
X112289365Y-65803332D01*
X112289365Y-65803332D02*
X112356032Y-65803332D01*
X112356032Y-65803332D02*
X112456032Y-65836666D01*
X112456032Y-65836666D02*
X112856032Y-66236666D01*
X112856032Y-66236666D02*
X112856032Y-65803332D01*
D12*
%TO.C,C13*%
X192590000Y-69411252D02*
X192590000Y-67988748D01*
X194410000Y-69411252D02*
X194410000Y-67988748D01*
%TO.C,U7*%
X146600000Y-35170000D02*
X145825000Y-35170000D01*
X146600000Y-35170000D02*
X147375000Y-35170000D01*
X146600000Y-38290000D02*
X145825000Y-38290000D01*
X146600000Y-38290000D02*
X147375000Y-38290000D01*
X145237500Y-35220000D02*
X144997500Y-34890000D01*
X145477500Y-34890000D01*
X145237500Y-35220000D01*
G36*
X145237500Y-35220000D02*
G01*
X144997500Y-34890000D01*
X145477500Y-34890000D01*
X145237500Y-35220000D01*
G37*
%TO.C,U9*%
X130600000Y-35170000D02*
X129825000Y-35170000D01*
X130600000Y-35170000D02*
X131375000Y-35170000D01*
X130600000Y-38290000D02*
X129825000Y-38290000D01*
X130600000Y-38290000D02*
X131375000Y-38290000D01*
X129237500Y-35220000D02*
X128997500Y-34890000D01*
X129477500Y-34890000D01*
X129237500Y-35220000D01*
G36*
X129237500Y-35220000D02*
G01*
X128997500Y-34890000D01*
X129477500Y-34890000D01*
X129237500Y-35220000D01*
G37*
%TO.C,U17*%
X65750000Y-35090000D02*
X64975000Y-35090000D01*
X65750000Y-35090000D02*
X66525000Y-35090000D01*
X65750000Y-38210000D02*
X64975000Y-38210000D01*
X65750000Y-38210000D02*
X66525000Y-38210000D01*
X64387500Y-35140000D02*
X64147500Y-34810000D01*
X64627500Y-34810000D01*
X64387500Y-35140000D01*
G36*
X64387500Y-35140000D02*
G01*
X64147500Y-34810000D01*
X64627500Y-34810000D01*
X64387500Y-35140000D01*
G37*
%TO.C,U11*%
X114150000Y-35090000D02*
X113375000Y-35090000D01*
X114150000Y-35090000D02*
X114925000Y-35090000D01*
X114150000Y-38210000D02*
X113375000Y-38210000D01*
X114150000Y-38210000D02*
X114925000Y-38210000D01*
X112787500Y-35140000D02*
X112547500Y-34810000D01*
X113027500Y-34810000D01*
X112787500Y-35140000D01*
G36*
X112787500Y-35140000D02*
G01*
X112547500Y-34810000D01*
X113027500Y-34810000D01*
X112787500Y-35140000D01*
G37*
%TO.C,JP24*%
X187540001Y-75692500D02*
X187540001Y-75092500D01*
X188090001Y-76892500D02*
X188690001Y-76892500D01*
X188190001Y-74392500D02*
X190990001Y-74392500D01*
X188390001Y-76592500D02*
X188090001Y-76892500D01*
X188390001Y-76592500D02*
X188690001Y-76892500D01*
X190990001Y-76392500D02*
X188190001Y-76392500D01*
X191640001Y-75092500D02*
X191640001Y-75692500D01*
X187540001Y-75092500D02*
G75*
G02*
X188240001Y-74392500I699999J1D01*
G01*
X188240001Y-76392500D02*
G75*
G02*
X187540001Y-75692500I-1J699999D01*
G01*
X190940001Y-74392500D02*
G75*
G02*
X191640001Y-75092500I0J-700000D01*
G01*
X191640001Y-75692500D02*
G75*
G02*
X190940001Y-76392500I-700000J0D01*
G01*
%TO.C,U4*%
X171130000Y-35090000D02*
X170355000Y-35090000D01*
X171130000Y-35090000D02*
X171905000Y-35090000D01*
X171130000Y-38210000D02*
X170355000Y-38210000D01*
X171130000Y-38210000D02*
X171905000Y-38210000D01*
X169767500Y-35140000D02*
X169527500Y-34810000D01*
X170007500Y-34810000D01*
X169767500Y-35140000D01*
G36*
X169767500Y-35140000D02*
G01*
X169527500Y-34810000D01*
X170007500Y-34810000D01*
X169767500Y-35140000D01*
G37*
%TO.C,JP22*%
X178300001Y-75700000D02*
X178300001Y-75100000D01*
X178850001Y-76900000D02*
X179450001Y-76900000D01*
X178950001Y-74400000D02*
X181750001Y-74400000D01*
X179150001Y-76600000D02*
X178850001Y-76900000D01*
X179150001Y-76600000D02*
X179450001Y-76900000D01*
X181750001Y-76400000D02*
X178950001Y-76400000D01*
X182400001Y-75100000D02*
X182400001Y-75700000D01*
X178300001Y-75100000D02*
G75*
G02*
X179000001Y-74400000I699999J1D01*
G01*
X179000001Y-76400000D02*
G75*
G02*
X178300001Y-75700000I-1J699999D01*
G01*
X181700001Y-74400000D02*
G75*
G02*
X182400001Y-75100000I0J-700000D01*
G01*
X182400001Y-75700000D02*
G75*
G02*
X181700001Y-76400000I-700000J0D01*
G01*
%TO.C,U12*%
X106150000Y-35090000D02*
X105375000Y-35090000D01*
X106150000Y-35090000D02*
X106925000Y-35090000D01*
X106150000Y-38210000D02*
X105375000Y-38210000D01*
X106150000Y-38210000D02*
X106925000Y-38210000D01*
X104787500Y-35140000D02*
X104547500Y-34810000D01*
X105027500Y-34810000D01*
X104787500Y-35140000D01*
G36*
X104787500Y-35140000D02*
G01*
X104547500Y-34810000D01*
X105027500Y-34810000D01*
X104787500Y-35140000D01*
G37*
%TO.C,U5*%
X163130000Y-35090000D02*
X162355000Y-35090000D01*
X163130000Y-35090000D02*
X163905000Y-35090000D01*
X163130000Y-38210000D02*
X162355000Y-38210000D01*
X163130000Y-38210000D02*
X163905000Y-38210000D01*
X161767500Y-35140000D02*
X161527500Y-34810000D01*
X162007500Y-34810000D01*
X161767500Y-35140000D01*
G36*
X161767500Y-35140000D02*
G01*
X161527500Y-34810000D01*
X162007500Y-34810000D01*
X161767500Y-35140000D01*
G37*
D11*
%TO.C,U1*%
X82060000Y-65110000D02*
X83330000Y-65110000D01*
X82060000Y-72730000D02*
X82060000Y-65110000D01*
X83330000Y-60030000D02*
X144290000Y-60030000D01*
X83330000Y-72730000D02*
X82060000Y-72730000D01*
X83330000Y-77810000D02*
X83330000Y-60030000D01*
X88410000Y-65110000D02*
X83330000Y-65110000D01*
X88410000Y-72730000D02*
X83330000Y-72730000D01*
X88410000Y-72730000D02*
X88410000Y-65110000D01*
X89629200Y-72219200D02*
X92169200Y-72219200D01*
X89629200Y-72219200D02*
X102329200Y-72219200D01*
X89629200Y-74759200D02*
X89629200Y-72219200D01*
X92169200Y-72219200D02*
X92169200Y-74759199D01*
X96560000Y-62568401D02*
X96560000Y-62818400D01*
X96560000Y-62818400D02*
X96560000Y-68818400D01*
X96560000Y-68818400D02*
X100560000Y-68818400D01*
X100560000Y-62568400D02*
X96560000Y-62568401D01*
X100560000Y-68818400D02*
X100560000Y-62568400D01*
X102329200Y-72219200D02*
X102329200Y-74759199D01*
X102329200Y-74759199D02*
X89629200Y-74759200D01*
X106190000Y-62570000D02*
X106190000Y-75270000D01*
X106190000Y-75270000D02*
X118890000Y-75270001D01*
X118890000Y-62569999D02*
X106190000Y-62570000D01*
X118890000Y-75270001D02*
X118890000Y-62569999D01*
X123970000Y-67649999D02*
X127780000Y-67650000D01*
X123970000Y-70190001D02*
X123970000Y-67649999D01*
X127780000Y-67650000D02*
X127780000Y-70190000D01*
X127780000Y-70190000D02*
X123970000Y-70190001D01*
X131590001Y-62570000D02*
X131590001Y-75270000D01*
X131590001Y-75270000D02*
X144290000Y-75270000D01*
X143020001Y-63840000D02*
X143020001Y-74000000D01*
X143020001Y-74000000D02*
X144290000Y-74000000D01*
X144290000Y-60030000D02*
X144290000Y-77810000D01*
X144290000Y-62570000D02*
X131590001Y-62570000D01*
X144290000Y-63840000D02*
X143020001Y-63840000D01*
X144290000Y-77810000D02*
X83330000Y-77810000D01*
X126773026Y-68920000D02*
G75*
G02*
X124976974Y-68920000I-898026J0D01*
G01*
X124976974Y-68920000D02*
G75*
G02*
X126773026Y-68920000I898026J0D01*
G01*
D10*
X114721000Y-68232000D02*
X114467000Y-68486000D01*
X114213000Y-68105000D01*
X114467000Y-67851000D01*
X114721000Y-68232000D01*
G36*
X114721000Y-68232000D02*
G01*
X114467000Y-68486000D01*
X114213000Y-68105000D01*
X114467000Y-67851000D01*
X114721000Y-68232000D01*
G37*
X115102000Y-68740000D02*
X114848000Y-68994000D01*
X114594000Y-68613000D01*
X114848000Y-68359000D01*
X115102000Y-68740000D01*
G36*
X115102000Y-68740000D02*
G01*
X114848000Y-68994000D01*
X114594000Y-68613000D01*
X114848000Y-68359000D01*
X115102000Y-68740000D01*
G37*
X115483001Y-68359000D02*
X115229000Y-68613000D01*
X114975000Y-68232000D01*
X115229000Y-67978000D01*
X115483001Y-68359000D01*
G36*
X115483001Y-68359000D02*
G01*
X115229000Y-68613000D01*
X114975000Y-68232000D01*
X115229000Y-67978000D01*
X115483001Y-68359000D01*
G37*
X115483001Y-69248000D02*
X115229000Y-69502000D01*
X114975000Y-69121000D01*
X115229000Y-68867000D01*
X115483001Y-69248000D01*
G36*
X115483001Y-69248000D02*
G01*
X115229000Y-69502000D01*
X114975000Y-69121000D01*
X115229000Y-68867000D01*
X115483001Y-69248000D01*
G37*
X115864000Y-68867000D02*
X115610000Y-69121000D01*
X115356000Y-68740000D01*
X115610000Y-68486000D01*
X115864000Y-68867000D01*
G36*
X115864000Y-68867000D02*
G01*
X115610000Y-69121000D01*
X115356000Y-68740000D01*
X115610000Y-68486000D01*
X115864000Y-68867000D01*
G37*
X116245000Y-69375001D02*
X115991000Y-69629000D01*
X115737000Y-69248000D01*
X115991000Y-68994000D01*
X116245000Y-69375001D01*
G36*
X116245000Y-69375001D02*
G01*
X115991000Y-69629000D01*
X115737000Y-69248000D01*
X115991000Y-68994000D01*
X116245000Y-69375001D01*
G37*
X116626000Y-68994000D02*
X116372001Y-69248000D01*
X116118000Y-68867000D01*
X116372000Y-68613000D01*
X116626000Y-68994000D01*
G36*
X116626000Y-68994000D02*
G01*
X116372001Y-69248000D01*
X116118000Y-68867000D01*
X116372000Y-68613000D01*
X116626000Y-68994000D01*
G37*
X117007000Y-68613000D02*
X116753000Y-68867000D01*
X116499000Y-68486000D01*
X116753000Y-68232000D01*
X117007000Y-68613000D01*
G36*
X117007000Y-68613000D02*
G01*
X116753000Y-68867000D01*
X116499000Y-68486000D01*
X116753000Y-68232000D01*
X117007000Y-68613000D01*
G37*
D12*
%TO.C,U16*%
X73750000Y-35090000D02*
X72975000Y-35090000D01*
X73750000Y-35090000D02*
X74525000Y-35090000D01*
X73750000Y-38210000D02*
X72975000Y-38210000D01*
X73750000Y-38210000D02*
X74525000Y-38210000D01*
X72387500Y-35140000D02*
X72147500Y-34810000D01*
X72627500Y-34810000D01*
X72387500Y-35140000D01*
G36*
X72387500Y-35140000D02*
G01*
X72147500Y-34810000D01*
X72627500Y-34810000D01*
X72387500Y-35140000D01*
G37*
%TO.C,U2*%
X187130000Y-35090000D02*
X186355000Y-35090000D01*
X187130000Y-35090000D02*
X187905000Y-35090000D01*
X187130000Y-38210000D02*
X186355000Y-38210000D01*
X187130000Y-38210000D02*
X187905000Y-38210000D01*
X185767500Y-35140000D02*
X185527500Y-34810000D01*
X186007500Y-34810000D01*
X185767500Y-35140000D01*
G36*
X185767500Y-35140000D02*
G01*
X185527500Y-34810000D01*
X186007500Y-34810000D01*
X185767500Y-35140000D01*
G37*
%TO.C,U3*%
X179130000Y-35090000D02*
X178355000Y-35090000D01*
X179130000Y-35090000D02*
X179905000Y-35090000D01*
X179130000Y-38210000D02*
X178355000Y-38210000D01*
X179130000Y-38210000D02*
X179905000Y-38210000D01*
X177767500Y-35140000D02*
X177527500Y-34810000D01*
X178007500Y-34810000D01*
X177767500Y-35140000D01*
G36*
X177767500Y-35140000D02*
G01*
X177527500Y-34810000D01*
X178007500Y-34810000D01*
X177767500Y-35140000D01*
G37*
%TO.C,JP19*%
X164320000Y-75629999D02*
X164320000Y-75029999D01*
X164870000Y-76829999D02*
X165470000Y-76829999D01*
X164970000Y-74329999D02*
X167770000Y-74329999D01*
X165170000Y-76529999D02*
X164870000Y-76829999D01*
X165170000Y-76529999D02*
X165470000Y-76829999D01*
X167770000Y-76329999D02*
X164970000Y-76329999D01*
X168420000Y-75029999D02*
X168420000Y-75629999D01*
X164320000Y-75029999D02*
G75*
G02*
X165020000Y-74329999I699999J1D01*
G01*
X165020000Y-76329999D02*
G75*
G02*
X164320000Y-75629999I-1J699999D01*
G01*
X167720000Y-74329999D02*
G75*
G02*
X168420000Y-75029999I0J-700000D01*
G01*
X168420000Y-75629999D02*
G75*
G02*
X167720000Y-76329999I-700000J0D01*
G01*
%TO.C,U14*%
X89750000Y-35090000D02*
X88975000Y-35090000D01*
X89750000Y-35090000D02*
X90525000Y-35090000D01*
X89750000Y-38210000D02*
X88975000Y-38210000D01*
X89750000Y-38210000D02*
X90525000Y-38210000D01*
X88387500Y-35140000D02*
X88147500Y-34810000D01*
X88627500Y-34810000D01*
X88387500Y-35140000D01*
G36*
X88387500Y-35140000D02*
G01*
X88147500Y-34810000D01*
X88627500Y-34810000D01*
X88387500Y-35140000D01*
G37*
%TO.C,U8*%
X138650000Y-35170000D02*
X137875000Y-35170000D01*
X138650000Y-35170000D02*
X139425000Y-35170000D01*
X138650000Y-38290000D02*
X137875000Y-38290000D01*
X138650000Y-38290000D02*
X139425000Y-38290000D01*
X137287500Y-35220000D02*
X137047500Y-34890000D01*
X137527500Y-34890000D01*
X137287500Y-35220000D01*
G36*
X137287500Y-35220000D02*
G01*
X137047500Y-34890000D01*
X137527500Y-34890000D01*
X137287500Y-35220000D01*
G37*
%TO.C,U13*%
X98050000Y-35090000D02*
X97275000Y-35090000D01*
X98050000Y-35090000D02*
X98825000Y-35090000D01*
X98050000Y-38210000D02*
X97275000Y-38210000D01*
X98050000Y-38210000D02*
X98825000Y-38210000D01*
X96687500Y-35140000D02*
X96447500Y-34810000D01*
X96927500Y-34810000D01*
X96687500Y-35140000D01*
G36*
X96687500Y-35140000D02*
G01*
X96447500Y-34810000D01*
X96927500Y-34810000D01*
X96687500Y-35140000D01*
G37*
%TO.C,U18*%
X177525000Y-61190000D02*
X177760000Y-61190000D01*
X177525000Y-65050000D02*
X177525000Y-61190000D01*
X177525000Y-65050000D02*
X177525000Y-68910000D01*
X177525000Y-68910000D02*
X177760000Y-68910000D01*
X190545000Y-61190000D02*
X190310000Y-61190000D01*
X190545000Y-65050000D02*
X190545000Y-61190000D01*
X190545000Y-65050000D02*
X190545000Y-68910000D01*
X190545000Y-68910000D02*
X190310000Y-68910000D01*
X190780000Y-60677500D02*
X190310000Y-60337500D01*
X190780000Y-59997500D01*
X190780000Y-60677500D01*
G36*
X190780000Y-60677500D02*
G01*
X190310000Y-60337500D01*
X190780000Y-59997500D01*
X190780000Y-60677500D01*
G37*
%TO.C,JP23*%
X182940001Y-75735000D02*
X182940001Y-75135000D01*
X183490001Y-76935000D02*
X184090001Y-76935000D01*
X183590001Y-74435000D02*
X186390001Y-74435000D01*
X183790001Y-76635000D02*
X183490001Y-76935000D01*
X183790001Y-76635000D02*
X184090001Y-76935000D01*
X186390001Y-76435000D02*
X183590001Y-76435000D01*
X187040001Y-75135000D02*
X187040001Y-75735000D01*
X182940001Y-75135000D02*
G75*
G02*
X183640001Y-74435000I699999J1D01*
G01*
X183640001Y-76435000D02*
G75*
G02*
X182940001Y-75735000I-1J699999D01*
G01*
X186340001Y-74435000D02*
G75*
G02*
X187040001Y-75135000I0J-700000D01*
G01*
X187040001Y-75735000D02*
G75*
G02*
X186340001Y-76435000I-700000J0D01*
G01*
%TO.C,JP20*%
X168990000Y-75664999D02*
X168990000Y-75064999D01*
X169540000Y-76864999D02*
X170140000Y-76864999D01*
X169640000Y-74364999D02*
X172440000Y-74364999D01*
X169840000Y-76564999D02*
X169540000Y-76864999D01*
X169840000Y-76564999D02*
X170140000Y-76864999D01*
X172440000Y-76364999D02*
X169640000Y-76364999D01*
X173090000Y-75064999D02*
X173090000Y-75664999D01*
X168990000Y-75064999D02*
G75*
G02*
X169690000Y-74364999I699999J1D01*
G01*
X169690000Y-76364999D02*
G75*
G02*
X168990000Y-75664999I-1J699999D01*
G01*
X172390000Y-74364999D02*
G75*
G02*
X173090000Y-75064999I0J-700000D01*
G01*
X173090000Y-75664999D02*
G75*
G02*
X172390000Y-76364999I-700000J0D01*
G01*
%TO.C,U15*%
X81750000Y-35090000D02*
X80975000Y-35090000D01*
X81750000Y-35090000D02*
X82525000Y-35090000D01*
X81750000Y-38210000D02*
X80975000Y-38210000D01*
X81750000Y-38210000D02*
X82525000Y-38210000D01*
X80387500Y-35140000D02*
X80147500Y-34810000D01*
X80627500Y-34810000D01*
X80387500Y-35140000D01*
G36*
X80387500Y-35140000D02*
G01*
X80147500Y-34810000D01*
X80627500Y-34810000D01*
X80387500Y-35140000D01*
G37*
%TO.C,U10*%
X122150000Y-35090000D02*
X121375000Y-35090000D01*
X122150000Y-35090000D02*
X122925000Y-35090000D01*
X122150000Y-38210000D02*
X121375000Y-38210000D01*
X122150000Y-38210000D02*
X122925000Y-38210000D01*
X120787500Y-35140000D02*
X120547500Y-34810000D01*
X121027500Y-34810000D01*
X120787500Y-35140000D01*
G36*
X120787500Y-35140000D02*
G01*
X120547500Y-34810000D01*
X121027500Y-34810000D01*
X120787500Y-35140000D01*
G37*
%TO.C,JP17*%
X154949999Y-75594999D02*
X154949999Y-74994999D01*
X155499999Y-76794999D02*
X156099999Y-76794999D01*
X155599999Y-74294999D02*
X158399999Y-74294999D01*
X155799999Y-76494999D02*
X155499999Y-76794999D01*
X155799999Y-76494999D02*
X156099999Y-76794999D01*
X158399999Y-76294999D02*
X155599999Y-76294999D01*
X159049999Y-74994999D02*
X159049999Y-75594999D01*
X154949999Y-74994999D02*
G75*
G02*
X155649999Y-74294999I699999J1D01*
G01*
X155649999Y-76294999D02*
G75*
G02*
X154949999Y-75594999I-1J699999D01*
G01*
X158349999Y-74294999D02*
G75*
G02*
X159049999Y-74994999I0J-700000D01*
G01*
X159049999Y-75594999D02*
G75*
G02*
X158349999Y-76294999I-700000J0D01*
G01*
%TO.C,U6*%
X154700000Y-35170000D02*
X153925000Y-35170000D01*
X154700000Y-35170000D02*
X155475000Y-35170000D01*
X154700000Y-38290000D02*
X153925000Y-38290000D01*
X154700000Y-38290000D02*
X155475000Y-38290000D01*
X153337500Y-35220000D02*
X153097500Y-34890000D01*
X153577500Y-34890000D01*
X153337500Y-35220000D01*
G36*
X153337500Y-35220000D02*
G01*
X153097500Y-34890000D01*
X153577500Y-34890000D01*
X153337500Y-35220000D01*
G37*
%TO.C,JP21*%
X173650000Y-75700000D02*
X173650000Y-75100000D01*
X174200000Y-76900000D02*
X174800000Y-76900000D01*
X174300000Y-74400000D02*
X177100000Y-74400000D01*
X174500000Y-76600000D02*
X174200000Y-76900000D01*
X174500000Y-76600000D02*
X174800000Y-76900000D01*
X177100000Y-76400000D02*
X174300000Y-76400000D01*
X177750000Y-75100000D02*
X177750000Y-75700000D01*
X173650000Y-75100000D02*
G75*
G02*
X174350000Y-74400000I699999J1D01*
G01*
X174350000Y-76400000D02*
G75*
G02*
X173650000Y-75700000I-1J699999D01*
G01*
X177050000Y-74400000D02*
G75*
G02*
X177750000Y-75100000I0J-700000D01*
G01*
X177750000Y-75700000D02*
G75*
G02*
X177050000Y-76400000I-700000J0D01*
G01*
%TO.C,J9*%
D10*
X204020000Y-25440000D02*
X211640000Y-25440000D01*
X211640000Y-71160000D01*
X204020000Y-71160000D01*
X204020000Y-25440000D01*
D12*
%TO.C,JP18*%
X159639999Y-75629999D02*
X159639999Y-75029999D01*
X160189999Y-76829999D02*
X160789999Y-76829999D01*
X160289999Y-74329999D02*
X163089999Y-74329999D01*
X160489999Y-76529999D02*
X160189999Y-76829999D01*
X160489999Y-76529999D02*
X160789999Y-76829999D01*
X163089999Y-76329999D02*
X160289999Y-76329999D01*
X163739999Y-75029999D02*
X163739999Y-75629999D01*
X159639999Y-75029999D02*
G75*
G02*
X160339999Y-74329999I699999J1D01*
G01*
X160339999Y-76329999D02*
G75*
G02*
X159639999Y-75629999I-1J699999D01*
G01*
X163039999Y-74329999D02*
G75*
G02*
X163739999Y-75029999I0J-700000D01*
G01*
X163739999Y-75629999D02*
G75*
G02*
X163039999Y-76329999I-700000J0D01*
G01*
%TD*%
M02*
