%TF.GenerationSoftware,KiCad,Pcbnew,8.0.3-1.fc40*%
%TF.CreationDate,2024-07-04T16:01:24-04:00*%
%TF.ProjectId,boards_v3,626f6172-6473-45f7-9633-2e6b69636164,rev?*%
%TF.SameCoordinates,Original*%
%TF.FileFunction,Legend,Bot*%
%TF.FilePolarity,Positive*%
%FSLAX46Y46*%
G04 Gerber Fmt 4.6, Leading zero omitted, Abs format (unit mm)*
G04 Created by KiCad (PCBNEW 8.0.3-1.fc40) date 2024-07-04 16:01:24*
%MOMM*%
%LPD*%
G01*
G04 APERTURE LIST*
%ADD10C,0.120000*%
G04 APERTURE END LIST*
D10*
%TO.C,JP12*%
X99550000Y-32100000D02*
G75*
G02*
X100250000Y-32800000I0J-700000D01*
G01*
X100250000Y-33400000D02*
G75*
G02*
X99550000Y-34100000I-700000J0D01*
G01*
X96150000Y-32800000D02*
G75*
G02*
X96850000Y-32100000I699999J1D01*
G01*
X96850000Y-34100000D02*
G75*
G02*
X96150000Y-33400000I-1J699999D01*
G01*
X100250000Y-32800000D02*
X100250000Y-33400000D01*
X96800000Y-32100000D02*
X99600000Y-32100000D01*
X97300000Y-31600000D02*
X97000000Y-31900000D01*
X96700000Y-31600000D02*
X97000000Y-31900000D01*
X99600000Y-34100000D02*
X96800000Y-34100000D01*
X97300000Y-31600000D02*
X96700000Y-31600000D01*
X96150000Y-33400000D02*
X96150000Y-32800000D01*
%TO.C,JP11*%
X107450000Y-31942500D02*
G75*
G02*
X108150000Y-32642500I0J-700000D01*
G01*
X108150000Y-33242500D02*
G75*
G02*
X107450000Y-33942500I-700000J0D01*
G01*
X104050000Y-32642500D02*
G75*
G02*
X104750000Y-31942500I699999J1D01*
G01*
X104750000Y-33942500D02*
G75*
G02*
X104050000Y-33242500I-1J699999D01*
G01*
X108150000Y-32642500D02*
X108150000Y-33242500D01*
X104700000Y-31942500D02*
X107500000Y-31942500D01*
X105200000Y-31442500D02*
X104900000Y-31742500D01*
X104600000Y-31442500D02*
X104900000Y-31742500D01*
X107500000Y-33942500D02*
X104700000Y-33942500D01*
X105200000Y-31442500D02*
X104600000Y-31442500D01*
X104050000Y-33242500D02*
X104050000Y-32642500D01*
%TO.C,JP10*%
X115630000Y-31880000D02*
G75*
G02*
X116330000Y-32580000I0J-700000D01*
G01*
X116330000Y-33180000D02*
G75*
G02*
X115630000Y-33880000I-700000J0D01*
G01*
X112230000Y-32580000D02*
G75*
G02*
X112930000Y-31880000I699999J1D01*
G01*
X112930000Y-33880000D02*
G75*
G02*
X112230000Y-33180000I-1J699999D01*
G01*
X116330000Y-32580000D02*
X116330000Y-33180000D01*
X112880000Y-31880000D02*
X115680000Y-31880000D01*
X113380000Y-31380000D02*
X113080000Y-31680000D01*
X112780000Y-31380000D02*
X113080000Y-31680000D01*
X115680000Y-33880000D02*
X112880000Y-33880000D01*
X113380000Y-31380000D02*
X112780000Y-31380000D01*
X112230000Y-33180000D02*
X112230000Y-32580000D01*
%TO.C,JP9*%
X123550000Y-32142500D02*
G75*
G02*
X124250000Y-32842500I0J-700000D01*
G01*
X124250000Y-33442500D02*
G75*
G02*
X123550000Y-34142500I-700000J0D01*
G01*
X120150000Y-32842500D02*
G75*
G02*
X120850000Y-32142500I699999J1D01*
G01*
X120850000Y-34142500D02*
G75*
G02*
X120150000Y-33442500I-1J699999D01*
G01*
X124250000Y-32842500D02*
X124250000Y-33442500D01*
X120800000Y-32142500D02*
X123600000Y-32142500D01*
X121300000Y-31642500D02*
X121000000Y-31942500D01*
X120700000Y-31642500D02*
X121000000Y-31942500D01*
X123600000Y-34142500D02*
X120800000Y-34142500D01*
X121300000Y-31642500D02*
X120700000Y-31642500D01*
X120150000Y-33442500D02*
X120150000Y-32842500D01*
%TO.C,JP8*%
X132050000Y-32130000D02*
G75*
G02*
X132750000Y-32830000I0J-700000D01*
G01*
X132750000Y-33430000D02*
G75*
G02*
X132050000Y-34130000I-700000J0D01*
G01*
X128650000Y-32830000D02*
G75*
G02*
X129350000Y-32130000I699999J1D01*
G01*
X129350000Y-34130000D02*
G75*
G02*
X128650000Y-33430000I-1J699999D01*
G01*
X132750000Y-32830000D02*
X132750000Y-33430000D01*
X129300000Y-32130000D02*
X132100000Y-32130000D01*
X129800000Y-31630000D02*
X129500000Y-31930000D01*
X129200000Y-31630000D02*
X129500000Y-31930000D01*
X132100000Y-34130000D02*
X129300000Y-34130000D01*
X129800000Y-31630000D02*
X129200000Y-31630000D01*
X128650000Y-33430000D02*
X128650000Y-32830000D01*
%TO.C,JP7*%
X139950000Y-32130000D02*
G75*
G02*
X140650000Y-32830000I0J-700000D01*
G01*
X140650000Y-33430000D02*
G75*
G02*
X139950000Y-34130000I-700000J0D01*
G01*
X136550000Y-32830000D02*
G75*
G02*
X137250000Y-32130000I699999J1D01*
G01*
X137250000Y-34130000D02*
G75*
G02*
X136550000Y-33430000I-1J699999D01*
G01*
X140650000Y-32830000D02*
X140650000Y-33430000D01*
X137200000Y-32130000D02*
X140000000Y-32130000D01*
X137700000Y-31630000D02*
X137400000Y-31930000D01*
X137100000Y-31630000D02*
X137400000Y-31930000D01*
X140000000Y-34130000D02*
X137200000Y-34130000D01*
X137700000Y-31630000D02*
X137100000Y-31630000D01*
X136550000Y-33430000D02*
X136550000Y-32830000D01*
%TO.C,JP6*%
X147950000Y-32130000D02*
G75*
G02*
X148650000Y-32830000I0J-700000D01*
G01*
X148650000Y-33430000D02*
G75*
G02*
X147950000Y-34130000I-700000J0D01*
G01*
X144550000Y-32830000D02*
G75*
G02*
X145250000Y-32130000I699999J1D01*
G01*
X145250000Y-34130000D02*
G75*
G02*
X144550000Y-33430000I-1J699999D01*
G01*
X148650000Y-32830000D02*
X148650000Y-33430000D01*
X145200000Y-32130000D02*
X148000000Y-32130000D01*
X145700000Y-31630000D02*
X145400000Y-31930000D01*
X145100000Y-31630000D02*
X145400000Y-31930000D01*
X148000000Y-34130000D02*
X145200000Y-34130000D01*
X145700000Y-31630000D02*
X145100000Y-31630000D01*
X144550000Y-33430000D02*
X144550000Y-32830000D01*
%TO.C,JP5*%
X152550000Y-33530000D02*
X152550000Y-32930000D01*
X153700000Y-31730000D02*
X153100000Y-31730000D01*
X156000000Y-34230000D02*
X153200000Y-34230000D01*
X153100000Y-31730000D02*
X153400000Y-32030000D01*
X153700000Y-31730000D02*
X153400000Y-32030000D01*
X153200000Y-32230000D02*
X156000000Y-32230000D01*
X156650000Y-32930000D02*
X156650000Y-33530000D01*
X153250000Y-34230000D02*
G75*
G02*
X152550000Y-33530000I-1J699999D01*
G01*
X152550000Y-32930000D02*
G75*
G02*
X153250000Y-32230000I699999J1D01*
G01*
X156650000Y-33530000D02*
G75*
G02*
X155950000Y-34230000I-700000J0D01*
G01*
X155950000Y-32230000D02*
G75*
G02*
X156650000Y-32930000I0J-700000D01*
G01*
%TO.C,JP13*%
X87750000Y-33400000D02*
X87750000Y-32800000D01*
X88900000Y-31600000D02*
X88300000Y-31600000D01*
X91200000Y-34100000D02*
X88400000Y-34100000D01*
X88300000Y-31600000D02*
X88600000Y-31900000D01*
X88900000Y-31600000D02*
X88600000Y-31900000D01*
X88400000Y-32100000D02*
X91200000Y-32100000D01*
X91850000Y-32800000D02*
X91850000Y-33400000D01*
X88450000Y-34100000D02*
G75*
G02*
X87750000Y-33400000I-1J699999D01*
G01*
X87750000Y-32800000D02*
G75*
G02*
X88450000Y-32100000I699999J1D01*
G01*
X91850000Y-33400000D02*
G75*
G02*
X91150000Y-34100000I-700000J0D01*
G01*
X91150000Y-32100000D02*
G75*
G02*
X91850000Y-32800000I0J-700000D01*
G01*
%TO.C,JP16*%
X63650000Y-33400000D02*
X63650000Y-32800000D01*
X64800000Y-31600000D02*
X64200000Y-31600000D01*
X67100000Y-34100000D02*
X64300000Y-34100000D01*
X64200000Y-31600000D02*
X64500000Y-31900000D01*
X64800000Y-31600000D02*
X64500000Y-31900000D01*
X64300000Y-32100000D02*
X67100000Y-32100000D01*
X67750000Y-32800000D02*
X67750000Y-33400000D01*
X64350000Y-34100000D02*
G75*
G02*
X63650000Y-33400000I-1J699999D01*
G01*
X63650000Y-32800000D02*
G75*
G02*
X64350000Y-32100000I699999J1D01*
G01*
X67750000Y-33400000D02*
G75*
G02*
X67050000Y-34100000I-700000J0D01*
G01*
X67050000Y-32100000D02*
G75*
G02*
X67750000Y-32800000I0J-700000D01*
G01*
%TO.C,JP15*%
X71650000Y-33300000D02*
X71650000Y-32700000D01*
X72800000Y-31500000D02*
X72200000Y-31500000D01*
X75100000Y-34000000D02*
X72300000Y-34000000D01*
X72200000Y-31500000D02*
X72500000Y-31800000D01*
X72800000Y-31500000D02*
X72500000Y-31800000D01*
X72300000Y-32000000D02*
X75100000Y-32000000D01*
X75750000Y-32700000D02*
X75750000Y-33300000D01*
X72350000Y-34000000D02*
G75*
G02*
X71650000Y-33300000I-1J699999D01*
G01*
X71650000Y-32700000D02*
G75*
G02*
X72350000Y-32000000I699999J1D01*
G01*
X75750000Y-33300000D02*
G75*
G02*
X75050000Y-34000000I-700000J0D01*
G01*
X75050000Y-32000000D02*
G75*
G02*
X75750000Y-32700000I0J-700000D01*
G01*
%TO.C,JP14*%
X79650000Y-33400000D02*
X79650000Y-32800000D01*
X80800000Y-31600000D02*
X80200000Y-31600000D01*
X83100000Y-34100000D02*
X80300000Y-34100000D01*
X80200000Y-31600000D02*
X80500000Y-31900000D01*
X80800000Y-31600000D02*
X80500000Y-31900000D01*
X80300000Y-32100000D02*
X83100000Y-32100000D01*
X83750000Y-32800000D02*
X83750000Y-33400000D01*
X80350000Y-34100000D02*
G75*
G02*
X79650000Y-33400000I-1J699999D01*
G01*
X79650000Y-32800000D02*
G75*
G02*
X80350000Y-32100000I699999J1D01*
G01*
X83750000Y-33400000D02*
G75*
G02*
X83050000Y-34100000I-700000J0D01*
G01*
X83050000Y-32100000D02*
G75*
G02*
X83750000Y-32800000I0J-700000D01*
G01*
%TO.C,JP1*%
X188530000Y-32100000D02*
G75*
G02*
X189230000Y-32800000I0J-700000D01*
G01*
X189230000Y-33400000D02*
G75*
G02*
X188530000Y-34100000I-700000J0D01*
G01*
X185130000Y-32800000D02*
G75*
G02*
X185830000Y-32100000I699999J1D01*
G01*
X185830000Y-34100000D02*
G75*
G02*
X185130000Y-33400000I-1J699999D01*
G01*
X189230000Y-32800000D02*
X189230000Y-33400000D01*
X185780000Y-32100000D02*
X188580000Y-32100000D01*
X186280000Y-31600000D02*
X185980000Y-31900000D01*
X185680000Y-31600000D02*
X185980000Y-31900000D01*
X188580000Y-34100000D02*
X185780000Y-34100000D01*
X186280000Y-31600000D02*
X185680000Y-31600000D01*
X185130000Y-33400000D02*
X185130000Y-32800000D01*
%TO.C,JP3*%
X169030000Y-33300000D02*
X169030000Y-32700000D01*
X170180000Y-31500000D02*
X169580000Y-31500000D01*
X172480000Y-34000000D02*
X169680000Y-34000000D01*
X169580000Y-31500000D02*
X169880000Y-31800000D01*
X170180000Y-31500000D02*
X169880000Y-31800000D01*
X169680000Y-32000000D02*
X172480000Y-32000000D01*
X173130000Y-32700000D02*
X173130000Y-33300000D01*
X169730000Y-34000000D02*
G75*
G02*
X169030000Y-33300000I-1J699999D01*
G01*
X169030000Y-32700000D02*
G75*
G02*
X169730000Y-32000000I699999J1D01*
G01*
X173130000Y-33300000D02*
G75*
G02*
X172430000Y-34000000I-700000J0D01*
G01*
X172430000Y-32000000D02*
G75*
G02*
X173130000Y-32700000I0J-700000D01*
G01*
%TO.C,JP2*%
X177130000Y-33342500D02*
X177130000Y-32742500D01*
X178280000Y-31542500D02*
X177680000Y-31542500D01*
X180580000Y-34042500D02*
X177780000Y-34042500D01*
X177680000Y-31542500D02*
X177980000Y-31842500D01*
X178280000Y-31542500D02*
X177980000Y-31842500D01*
X177780000Y-32042500D02*
X180580000Y-32042500D01*
X181230000Y-32742500D02*
X181230000Y-33342500D01*
X177830000Y-34042500D02*
G75*
G02*
X177130000Y-33342500I-1J699999D01*
G01*
X177130000Y-32742500D02*
G75*
G02*
X177830000Y-32042500I699999J1D01*
G01*
X181230000Y-33342500D02*
G75*
G02*
X180530000Y-34042500I-700000J0D01*
G01*
X180530000Y-32042500D02*
G75*
G02*
X181230000Y-32742500I0J-700000D01*
G01*
%TO.C,JP4*%
X161130000Y-33400000D02*
X161130000Y-32800000D01*
X162280000Y-31600000D02*
X161680000Y-31600000D01*
X164580000Y-34100000D02*
X161780000Y-34100000D01*
X161680000Y-31600000D02*
X161980000Y-31900000D01*
X162280000Y-31600000D02*
X161980000Y-31900000D01*
X161780000Y-32100000D02*
X164580000Y-32100000D01*
X165230000Y-32800000D02*
X165230000Y-33400000D01*
X161830000Y-34100000D02*
G75*
G02*
X161130000Y-33400000I-1J699999D01*
G01*
X161130000Y-32800000D02*
G75*
G02*
X161830000Y-32100000I699999J1D01*
G01*
X165230000Y-33400000D02*
G75*
G02*
X164530000Y-34100000I-700000J0D01*
G01*
X164530000Y-32100000D02*
G75*
G02*
X165230000Y-32800000I0J-700000D01*
G01*
%TD*%
M02*
