%TF.GenerationSoftware,KiCad,Pcbnew,8.0.2-1*%
%TF.CreationDate,2024-07-06T17:14:08-04:00*%
%TF.ProjectId,boards_v3,626f6172-6473-45f7-9633-2e6b69636164,rev?*%
%TF.SameCoordinates,Original*%
%TF.FileFunction,Drillmap*%
%TF.FilePolarity,Positive*%
%FSLAX45Y45*%
G04 Gerber Fmt 4.5, Leading zero omitted, Abs format (unit mm)*
G04 Created by KiCad (PCBNEW 8.0.2-1) date 2024-07-06 17:14:08*
%MOMM*%
%LPD*%
G01*
G04 APERTURE LIST*
%ADD10C,0.050000*%
%ADD11C,0.200000*%
%ADD12C,0.100000*%
%ADD13C,0.110000*%
%ADD14C,0.114300*%
G04 APERTURE END LIST*
D10*
X6800000Y-6000000D02*
G75*
G02*
X6600000Y-6000000I-100000J0D01*
G01*
X6600000Y-6000000D02*
G75*
G02*
X6800000Y-6000000I100000J0D01*
G01*
X15000000Y-5600000D02*
G75*
G02*
X14800000Y-5600000I-100000J0D01*
G01*
X14800000Y-5600000D02*
G75*
G02*
X15000000Y-5600000I100000J0D01*
G01*
X19800000Y-8500000D02*
G75*
G02*
X19600000Y-8500000I-100000J0D01*
G01*
X19600000Y-8500000D02*
G75*
G02*
X19800000Y-8500000I100000J0D01*
G01*
X21100000Y-8000000D02*
G75*
G02*
X20900000Y-8000000I-100000J0D01*
G01*
X20900000Y-8000000D02*
G75*
G02*
X21100000Y-8000000I100000J0D01*
G01*
X21510000Y-2510000D02*
X21510000Y-8490000D01*
X20998153Y-9001847D01*
X18380000Y-9000000D01*
X18045043Y-8651086D01*
X7002225Y-8645950D01*
X6330000Y-7938053D01*
X6330000Y-5977568D01*
X6330000Y-4110000D01*
X6010000Y-3790000D01*
X6010000Y-2790000D01*
X6610000Y-2190000D01*
X21190000Y-2190000D01*
X21510000Y-2510000D01*
X15510000Y-6500000D02*
G75*
G02*
X15310000Y-6500000I-100000J0D01*
G01*
X15310000Y-6500000D02*
G75*
G02*
X15510000Y-6500000I100000J0D01*
G01*
X12200000Y-2610000D02*
G75*
G02*
X12000000Y-2610000I-100000J0D01*
G01*
X12000000Y-2610000D02*
G75*
G02*
X12200000Y-2610000I100000J0D01*
G01*
X20100000Y-2600000D02*
G75*
G02*
X19900000Y-2600000I-100000J0D01*
G01*
X19900000Y-2600000D02*
G75*
G02*
X20100000Y-2600000I100000J0D01*
G01*
X12100000Y-5400000D02*
G75*
G02*
X11900000Y-5400000I-100000J0D01*
G01*
X11900000Y-5400000D02*
G75*
G02*
X12100000Y-5400000I100000J0D01*
G01*
X15700000Y-2600000D02*
G75*
G02*
X15500000Y-2600000I-100000J0D01*
G01*
X15500000Y-2600000D02*
G75*
G02*
X15700000Y-2600000I100000J0D01*
G01*
X9100000Y-2600000D02*
G75*
G02*
X8900000Y-2600000I-100000J0D01*
G01*
X8900000Y-2600000D02*
G75*
G02*
X9100000Y-2600000I100000J0D01*
G01*
X10100000Y-8300000D02*
G75*
G02*
X9900000Y-8300000I-100000J0D01*
G01*
X9900000Y-8300000D02*
G75*
G02*
X10100000Y-8300000I100000J0D01*
G01*
D11*
D12*
X6435000Y-3295000D02*
X6465000Y-3325000D01*
X6465000Y-3295000D02*
X6435000Y-3325000D01*
X6445000Y-3745000D02*
X6475000Y-3775000D01*
X6475000Y-3745000D02*
X6445000Y-3775000D01*
X6555000Y-3295000D02*
X6585000Y-3325000D01*
X6585000Y-3295000D02*
X6555000Y-3325000D01*
X6565000Y-4147000D02*
X6595000Y-4177000D01*
X6595000Y-4147000D02*
X6565000Y-4177000D01*
X6675000Y-3555000D02*
X6705000Y-3585000D01*
X6705000Y-3555000D02*
X6675000Y-3585000D01*
X6675000Y-3745000D02*
X6705000Y-3775000D01*
X6705000Y-3745000D02*
X6675000Y-3775000D01*
X6685000Y-3295000D02*
X6715000Y-3325000D01*
X6715000Y-3295000D02*
X6685000Y-3325000D01*
X7215000Y-3835000D02*
X7245000Y-3865000D01*
X7245000Y-3835000D02*
X7215000Y-3865000D01*
X7225000Y-3285000D02*
X7255000Y-3315000D01*
X7255000Y-3285000D02*
X7225000Y-3315000D01*
X7355000Y-3295000D02*
X7385000Y-3325000D01*
X7385000Y-3295000D02*
X7355000Y-3325000D01*
X7365000Y-4157000D02*
X7395000Y-4187000D01*
X7395000Y-4157000D02*
X7365000Y-4187000D01*
X7475000Y-3285000D02*
X7505000Y-3315000D01*
X7505000Y-3285000D02*
X7475000Y-3315000D01*
X7485000Y-3555000D02*
X7515000Y-3585000D01*
X7515000Y-3555000D02*
X7485000Y-3585000D01*
X7485000Y-3745000D02*
X7515000Y-3775000D01*
X7515000Y-3745000D02*
X7485000Y-3775000D01*
X8015000Y-3835000D02*
X8045000Y-3865000D01*
X8045000Y-3835000D02*
X8015000Y-3865000D01*
X8025000Y-3295000D02*
X8055000Y-3325000D01*
X8055000Y-3295000D02*
X8025000Y-3325000D01*
X8155000Y-3295000D02*
X8185000Y-3325000D01*
X8185000Y-3295000D02*
X8155000Y-3325000D01*
X8165000Y-4157000D02*
X8195000Y-4187000D01*
X8195000Y-4157000D02*
X8165000Y-4187000D01*
X8275000Y-3745000D02*
X8305000Y-3775000D01*
X8305000Y-3745000D02*
X8275000Y-3775000D01*
X8285000Y-3295000D02*
X8315000Y-3325000D01*
X8315000Y-3295000D02*
X8285000Y-3325000D01*
X8285000Y-3555000D02*
X8315000Y-3585000D01*
X8315000Y-3555000D02*
X8285000Y-3585000D01*
X8815000Y-3835000D02*
X8845000Y-3865000D01*
X8845000Y-3835000D02*
X8815000Y-3865000D01*
X8835000Y-3295000D02*
X8865000Y-3325000D01*
X8865000Y-3295000D02*
X8835000Y-3325000D01*
X8965000Y-3295000D02*
X8995000Y-3325000D01*
X8995000Y-3295000D02*
X8965000Y-3325000D01*
X8965000Y-4147000D02*
X8995000Y-4177000D01*
X8995000Y-4147000D02*
X8965000Y-4177000D01*
X9075000Y-3555000D02*
X9105000Y-3585000D01*
X9105000Y-3555000D02*
X9075000Y-3585000D01*
X9075000Y-3745000D02*
X9105000Y-3775000D01*
X9105000Y-3745000D02*
X9075000Y-3775000D01*
X9095000Y-3295000D02*
X9125000Y-3325000D01*
X9125000Y-3295000D02*
X9095000Y-3325000D01*
X9355000Y-8005000D02*
X9385000Y-8035000D01*
X9385000Y-8005000D02*
X9355000Y-8035000D01*
X9425000Y-5135000D02*
X9455000Y-5165000D01*
X9455000Y-5135000D02*
X9425000Y-5165000D01*
X9465000Y-5035000D02*
X9495000Y-5065000D01*
X9495000Y-5035000D02*
X9465000Y-5065000D01*
X9565000Y-5135000D02*
X9595000Y-5165000D01*
X9595000Y-5135000D02*
X9565000Y-5165000D01*
X9645000Y-3845000D02*
X9675000Y-3875000D01*
X9675000Y-3845000D02*
X9645000Y-3875000D01*
X9675000Y-3295000D02*
X9705000Y-3325000D01*
X9705000Y-3295000D02*
X9675000Y-3325000D01*
X9795000Y-3295000D02*
X9825000Y-3325000D01*
X9825000Y-3295000D02*
X9795000Y-3325000D01*
X9795623Y-5245000D02*
X9825623Y-5275000D01*
X9825623Y-5245000D02*
X9795623Y-5275000D01*
X9805000Y-4130000D02*
X9835000Y-4160000D01*
X9835000Y-4130000D02*
X9805000Y-4160000D01*
X9905000Y-3555000D02*
X9935000Y-3585000D01*
X9935000Y-3555000D02*
X9905000Y-3585000D01*
X9922902Y-5245000D02*
X9952902Y-5275000D01*
X9952902Y-5245000D02*
X9922902Y-5275000D01*
X9925000Y-3745000D02*
X9955000Y-3775000D01*
X9955000Y-3745000D02*
X9925000Y-3775000D01*
X9935000Y-3295000D02*
X9965000Y-3325000D01*
X9965000Y-3295000D02*
X9935000Y-3325000D01*
X10050181Y-5245000D02*
X10080181Y-5275000D01*
X10080181Y-5245000D02*
X10050181Y-5275000D01*
X10177460Y-5245000D02*
X10207460Y-5275000D01*
X10207460Y-5245000D02*
X10177460Y-5275000D01*
X10304739Y-5245000D02*
X10334739Y-5275000D01*
X10334739Y-5245000D02*
X10304739Y-5275000D01*
X10432018Y-5245000D02*
X10462018Y-5275000D01*
X10462018Y-5245000D02*
X10432018Y-5275000D01*
X10455000Y-3845000D02*
X10485000Y-3875000D01*
X10485000Y-3845000D02*
X10455000Y-3875000D01*
X10465000Y-3275000D02*
X10495000Y-3305000D01*
X10495000Y-3275000D02*
X10465000Y-3305000D01*
X10595000Y-3285000D02*
X10625000Y-3315000D01*
X10625000Y-3285000D02*
X10595000Y-3315000D01*
X10605000Y-4140000D02*
X10635000Y-4170000D01*
X10635000Y-4140000D02*
X10605000Y-4170000D01*
X10630851Y-5252851D02*
X10660851Y-5282851D01*
X10660851Y-5252851D02*
X10630851Y-5282851D01*
X10725000Y-3285000D02*
X10755000Y-3315000D01*
X10755000Y-3285000D02*
X10725000Y-3315000D01*
X10725000Y-3555000D02*
X10755000Y-3585000D01*
X10755000Y-3555000D02*
X10725000Y-3585000D01*
X10725000Y-3745000D02*
X10755000Y-3775000D01*
X10755000Y-3745000D02*
X10725000Y-3775000D01*
X11265000Y-3835000D02*
X11295000Y-3865000D01*
X11295000Y-3835000D02*
X11265000Y-3865000D01*
X11285000Y-3275000D02*
X11315000Y-3305000D01*
X11315000Y-3275000D02*
X11285000Y-3305000D01*
X11405000Y-4140000D02*
X11435000Y-4170000D01*
X11435000Y-4140000D02*
X11405000Y-4170000D01*
X11413000Y-3273000D02*
X11443000Y-3303000D01*
X11443000Y-3273000D02*
X11413000Y-3303000D01*
X11525000Y-3555000D02*
X11555000Y-3585000D01*
X11555000Y-3555000D02*
X11525000Y-3585000D01*
X11525000Y-3745000D02*
X11555000Y-3775000D01*
X11555000Y-3745000D02*
X11525000Y-3775000D01*
X11545000Y-3275000D02*
X11575000Y-3305000D01*
X11575000Y-3275000D02*
X11545000Y-3305000D01*
X12055000Y-3835000D02*
X12085000Y-3865000D01*
X12085000Y-3835000D02*
X12055000Y-3865000D01*
X12075000Y-3305000D02*
X12105000Y-3335000D01*
X12105000Y-3305000D02*
X12075000Y-3335000D01*
X12205000Y-3295000D02*
X12235000Y-3325000D01*
X12235000Y-3295000D02*
X12205000Y-3325000D01*
X12205000Y-4130000D02*
X12235000Y-4160000D01*
X12235000Y-4130000D02*
X12205000Y-4160000D01*
X12315000Y-3555000D02*
X12345000Y-3585000D01*
X12345000Y-3555000D02*
X12315000Y-3585000D01*
X12315000Y-3745000D02*
X12345000Y-3775000D01*
X12345000Y-3745000D02*
X12315000Y-3775000D01*
X12335000Y-3295000D02*
X12365000Y-3325000D01*
X12365000Y-3295000D02*
X12335000Y-3325000D01*
X12509000Y-5615000D02*
X12539000Y-5645000D01*
X12539000Y-5615000D02*
X12509000Y-5645000D01*
X12555000Y-5445000D02*
X12585000Y-5475000D01*
X12585000Y-5445000D02*
X12555000Y-5475000D01*
X12905000Y-3855000D02*
X12935000Y-3885000D01*
X12935000Y-3855000D02*
X12905000Y-3885000D01*
X12925000Y-3308000D02*
X12955000Y-3338000D01*
X12955000Y-3308000D02*
X12925000Y-3338000D01*
X13051000Y-4149000D02*
X13081000Y-4179000D01*
X13081000Y-4149000D02*
X13051000Y-4179000D01*
X13055000Y-3308000D02*
X13085000Y-3338000D01*
X13085000Y-3308000D02*
X13055000Y-3338000D01*
X13165000Y-3568000D02*
X13195000Y-3598000D01*
X13195000Y-3568000D02*
X13165000Y-3598000D01*
X13165000Y-3758000D02*
X13195000Y-3788000D01*
X13195000Y-3758000D02*
X13165000Y-3788000D01*
X13185000Y-3305000D02*
X13215000Y-3335000D01*
X13215000Y-3305000D02*
X13185000Y-3335000D01*
X13715000Y-3298000D02*
X13745000Y-3328000D01*
X13745000Y-3298000D02*
X13715000Y-3328000D01*
X13715000Y-3845000D02*
X13745000Y-3875000D01*
X13745000Y-3845000D02*
X13715000Y-3875000D01*
X13845000Y-3298000D02*
X13875000Y-3328000D01*
X13875000Y-3298000D02*
X13845000Y-3328000D01*
X13851000Y-4159000D02*
X13881000Y-4189000D01*
X13881000Y-4159000D02*
X13851000Y-4189000D01*
X13965000Y-3568000D02*
X13995000Y-3598000D01*
X13995000Y-3568000D02*
X13965000Y-3598000D01*
X13965000Y-3758000D02*
X13995000Y-3788000D01*
X13995000Y-3758000D02*
X13965000Y-3788000D01*
X13975000Y-3305000D02*
X14005000Y-3335000D01*
X14005000Y-3305000D02*
X13975000Y-3335000D01*
X14505000Y-3855000D02*
X14535000Y-3885000D01*
X14535000Y-3855000D02*
X14505000Y-3885000D01*
X14525000Y-3305000D02*
X14555000Y-3335000D01*
X14555000Y-3305000D02*
X14525000Y-3335000D01*
X14645000Y-3298000D02*
X14675000Y-3328000D01*
X14675000Y-3298000D02*
X14645000Y-3328000D01*
X14651000Y-4159000D02*
X14681000Y-4189000D01*
X14681000Y-4159000D02*
X14651000Y-4189000D01*
X14765000Y-3568000D02*
X14795000Y-3598000D01*
X14795000Y-3568000D02*
X14765000Y-3598000D01*
X14765000Y-3758000D02*
X14795000Y-3788000D01*
X14795000Y-3758000D02*
X14765000Y-3788000D01*
X14775000Y-3305000D02*
X14805000Y-3335000D01*
X14805000Y-3305000D02*
X14775000Y-3335000D01*
X15305000Y-3845000D02*
X15335000Y-3875000D01*
X15335000Y-3845000D02*
X15305000Y-3875000D01*
X15325000Y-3305000D02*
X15355000Y-3335000D01*
X15355000Y-3305000D02*
X15325000Y-3335000D01*
X15445000Y-3308000D02*
X15475000Y-3338000D01*
X15475000Y-3308000D02*
X15445000Y-3338000D01*
X15451000Y-4149000D02*
X15481000Y-4179000D01*
X15481000Y-4149000D02*
X15451000Y-4179000D01*
X15565000Y-3568000D02*
X15595000Y-3598000D01*
X15595000Y-3568000D02*
X15565000Y-3598000D01*
X15575000Y-3315000D02*
X15605000Y-3345000D01*
X15605000Y-3315000D02*
X15575000Y-3345000D01*
X15575000Y-3758000D02*
X15605000Y-3788000D01*
X15605000Y-3758000D02*
X15575000Y-3788000D01*
X15855000Y-7855000D02*
X15885000Y-7885000D01*
X15885000Y-7855000D02*
X15855000Y-7885000D01*
X16035000Y-7515000D02*
X16065000Y-7545000D01*
X16065000Y-7515000D02*
X16035000Y-7545000D01*
X16155000Y-3845000D02*
X16185000Y-3875000D01*
X16185000Y-3845000D02*
X16155000Y-3875000D01*
X16173000Y-3295000D02*
X16203000Y-3325000D01*
X16203000Y-3295000D02*
X16173000Y-3325000D01*
X16285000Y-4245000D02*
X16315000Y-4275000D01*
X16315000Y-4245000D02*
X16285000Y-4275000D01*
X16293000Y-3305000D02*
X16323000Y-3335000D01*
X16323000Y-3305000D02*
X16293000Y-3335000D01*
X16385000Y-5255000D02*
X16415000Y-5285000D01*
X16415000Y-5255000D02*
X16385000Y-5285000D01*
X16413000Y-3555000D02*
X16443000Y-3585000D01*
X16443000Y-3555000D02*
X16413000Y-3585000D01*
X16413000Y-3745000D02*
X16443000Y-3775000D01*
X16443000Y-3745000D02*
X16413000Y-3775000D01*
X16425000Y-3305000D02*
X16455000Y-3335000D01*
X16455000Y-3305000D02*
X16425000Y-3335000D01*
X16515000Y-7525000D02*
X16545000Y-7555000D01*
X16545000Y-7525000D02*
X16515000Y-7555000D01*
X16955000Y-3835000D02*
X16985000Y-3865000D01*
X16985000Y-3835000D02*
X16955000Y-3865000D01*
X16963000Y-3295000D02*
X16993000Y-3325000D01*
X16993000Y-3295000D02*
X16963000Y-3325000D01*
X16975000Y-7535000D02*
X17005000Y-7565000D01*
X17005000Y-7535000D02*
X16975000Y-7565000D01*
X17085000Y-4255000D02*
X17115000Y-4285000D01*
X17115000Y-4255000D02*
X17085000Y-4285000D01*
X17093000Y-3285000D02*
X17123000Y-3315000D01*
X17123000Y-3285000D02*
X17093000Y-3315000D01*
X17213000Y-3555000D02*
X17243000Y-3585000D01*
X17243000Y-3555000D02*
X17213000Y-3585000D01*
X17213000Y-3745000D02*
X17243000Y-3775000D01*
X17243000Y-3745000D02*
X17213000Y-3775000D01*
X17225000Y-3285000D02*
X17255000Y-3315000D01*
X17255000Y-3285000D02*
X17225000Y-3315000D01*
X17435000Y-7525000D02*
X17465000Y-7555000D01*
X17465000Y-7525000D02*
X17435000Y-7555000D01*
X17755000Y-3835000D02*
X17785000Y-3865000D01*
X17785000Y-3835000D02*
X17755000Y-3865000D01*
X17773000Y-3295000D02*
X17803000Y-3325000D01*
X17803000Y-3295000D02*
X17773000Y-3325000D01*
X17815000Y-6205000D02*
X17845000Y-6235000D01*
X17845000Y-6205000D02*
X17815000Y-6235000D01*
X17885000Y-4255000D02*
X17915000Y-4285000D01*
X17915000Y-4255000D02*
X17885000Y-4285000D01*
X17893000Y-3295000D02*
X17923000Y-3325000D01*
X17923000Y-3295000D02*
X17893000Y-3325000D01*
X17905000Y-7525000D02*
X17935000Y-7555000D01*
X17935000Y-7525000D02*
X17905000Y-7555000D01*
X17945000Y-6025000D02*
X17975000Y-6055000D01*
X17975000Y-6025000D02*
X17945000Y-6055000D01*
X17945000Y-6955000D02*
X17975000Y-6985000D01*
X17975000Y-6955000D02*
X17945000Y-6985000D01*
X18013000Y-3555000D02*
X18043000Y-3585000D01*
X18043000Y-3555000D02*
X18013000Y-3585000D01*
X18013000Y-3745000D02*
X18043000Y-3775000D01*
X18043000Y-3745000D02*
X18013000Y-3775000D01*
X18035000Y-3295000D02*
X18065000Y-3325000D01*
X18065000Y-3295000D02*
X18035000Y-3325000D01*
X18195000Y-6025000D02*
X18225000Y-6055000D01*
X18225000Y-6025000D02*
X18195000Y-6055000D01*
X18195000Y-6955000D02*
X18225000Y-6985000D01*
X18225000Y-6955000D02*
X18195000Y-6985000D01*
X18365000Y-7535000D02*
X18395000Y-7565000D01*
X18395000Y-7535000D02*
X18365000Y-7565000D01*
X18455000Y-6025000D02*
X18485000Y-6055000D01*
X18485000Y-6025000D02*
X18455000Y-6055000D01*
X18455000Y-6955000D02*
X18485000Y-6985000D01*
X18485000Y-6955000D02*
X18455000Y-6985000D01*
X18555000Y-3835000D02*
X18585000Y-3865000D01*
X18585000Y-3835000D02*
X18555000Y-3865000D01*
X18573000Y-3295000D02*
X18603000Y-3325000D01*
X18603000Y-3295000D02*
X18573000Y-3325000D01*
X18685000Y-4245000D02*
X18715000Y-4275000D01*
X18715000Y-4245000D02*
X18685000Y-4275000D01*
X18703000Y-3295000D02*
X18733000Y-3325000D01*
X18733000Y-3295000D02*
X18703000Y-3325000D01*
X18705000Y-6025000D02*
X18735000Y-6055000D01*
X18735000Y-6025000D02*
X18705000Y-6055000D01*
X18705000Y-6955000D02*
X18735000Y-6985000D01*
X18735000Y-6955000D02*
X18705000Y-6985000D01*
X18813000Y-3555000D02*
X18843000Y-3585000D01*
X18843000Y-3555000D02*
X18813000Y-3585000D01*
X18813000Y-3745000D02*
X18843000Y-3775000D01*
X18843000Y-3745000D02*
X18813000Y-3775000D01*
X18815000Y-7525000D02*
X18845000Y-7555000D01*
X18845000Y-7525000D02*
X18815000Y-7555000D01*
X18825000Y-3305000D02*
X18855000Y-3335000D01*
X18855000Y-3305000D02*
X18825000Y-3335000D01*
X18835000Y-6945000D02*
X18865000Y-6975000D01*
X18865000Y-6945000D02*
X18835000Y-6975000D01*
X18965000Y-6025000D02*
X18995000Y-6055000D01*
X18995000Y-6025000D02*
X18965000Y-6055000D01*
X19285000Y-5735000D02*
X19315000Y-5765000D01*
X19315000Y-5735000D02*
X19285000Y-5765000D01*
X19285000Y-5945000D02*
X19315000Y-5975000D01*
X19315000Y-5945000D02*
X19285000Y-5975000D01*
X19285000Y-6055000D02*
X19315000Y-6085000D01*
X19315000Y-6055000D02*
X19285000Y-6085000D01*
X19286569Y-5833431D02*
X19316569Y-5863431D01*
X19316569Y-5833431D02*
X19286569Y-5863431D01*
X19585000Y-7655000D02*
X19615000Y-7685000D01*
X19615000Y-7655000D02*
X19585000Y-7685000D01*
X19665000Y-4265000D02*
X19695000Y-4295000D01*
X19695000Y-4265000D02*
X19665000Y-4295000D01*
X19715000Y-5945000D02*
X19745000Y-5975000D01*
X19745000Y-5945000D02*
X19715000Y-5975000D01*
X19795000Y-4385000D02*
X19825000Y-4415000D01*
X19825000Y-4385000D02*
X19795000Y-4415000D01*
X19835000Y-7805000D02*
X19865000Y-7835000D01*
X19865000Y-7805000D02*
X19835000Y-7835000D01*
X19935000Y-4495000D02*
X19965000Y-4525000D01*
X19965000Y-4495000D02*
X19935000Y-4525000D01*
X20115000Y-4575000D02*
X20145000Y-4605000D01*
X20145000Y-4575000D02*
X20115000Y-4605000D01*
X20694100Y-2798000D02*
G75*
G02*
X20617900Y-2798000I-38100J0D01*
G01*
X20617900Y-2798000D02*
G75*
G02*
X20694100Y-2798000I38100J0D01*
G01*
X20694100Y-3052000D02*
G75*
G02*
X20617900Y-3052000I-38100J0D01*
G01*
X20617900Y-3052000D02*
G75*
G02*
X20694100Y-3052000I38100J0D01*
G01*
X20694100Y-3306000D02*
G75*
G02*
X20617900Y-3306000I-38100J0D01*
G01*
X20617900Y-3306000D02*
G75*
G02*
X20694100Y-3306000I38100J0D01*
G01*
X20694100Y-3560000D02*
G75*
G02*
X20617900Y-3560000I-38100J0D01*
G01*
X20617900Y-3560000D02*
G75*
G02*
X20694100Y-3560000I38100J0D01*
G01*
X20694100Y-3814000D02*
G75*
G02*
X20617900Y-3814000I-38100J0D01*
G01*
X20617900Y-3814000D02*
G75*
G02*
X20694100Y-3814000I38100J0D01*
G01*
X20694100Y-4068000D02*
G75*
G02*
X20617900Y-4068000I-38100J0D01*
G01*
X20617900Y-4068000D02*
G75*
G02*
X20694100Y-4068000I38100J0D01*
G01*
X20694100Y-4322000D02*
G75*
G02*
X20617900Y-4322000I-38100J0D01*
G01*
X20617900Y-4322000D02*
G75*
G02*
X20694100Y-4322000I38100J0D01*
G01*
X20694100Y-4576000D02*
G75*
G02*
X20617900Y-4576000I-38100J0D01*
G01*
X20617900Y-4576000D02*
G75*
G02*
X20694100Y-4576000I38100J0D01*
G01*
X20694100Y-4830000D02*
G75*
G02*
X20617900Y-4830000I-38100J0D01*
G01*
X20617900Y-4830000D02*
G75*
G02*
X20694100Y-4830000I38100J0D01*
G01*
X20694100Y-5084000D02*
G75*
G02*
X20617900Y-5084000I-38100J0D01*
G01*
X20617900Y-5084000D02*
G75*
G02*
X20694100Y-5084000I38100J0D01*
G01*
X20694100Y-5338000D02*
G75*
G02*
X20617900Y-5338000I-38100J0D01*
G01*
X20617900Y-5338000D02*
G75*
G02*
X20694100Y-5338000I38100J0D01*
G01*
X20694100Y-5592000D02*
G75*
G02*
X20617900Y-5592000I-38100J0D01*
G01*
X20617900Y-5592000D02*
G75*
G02*
X20694100Y-5592000I38100J0D01*
G01*
X20694100Y-5846000D02*
G75*
G02*
X20617900Y-5846000I-38100J0D01*
G01*
X20617900Y-5846000D02*
G75*
G02*
X20694100Y-5846000I38100J0D01*
G01*
X20694100Y-6100000D02*
G75*
G02*
X20617900Y-6100000I-38100J0D01*
G01*
X20617900Y-6100000D02*
G75*
G02*
X20694100Y-6100000I38100J0D01*
G01*
X20694100Y-6354000D02*
G75*
G02*
X20617900Y-6354000I-38100J0D01*
G01*
X20617900Y-6354000D02*
G75*
G02*
X20694100Y-6354000I38100J0D01*
G01*
X20694100Y-6608000D02*
G75*
G02*
X20617900Y-6608000I-38100J0D01*
G01*
X20617900Y-6608000D02*
G75*
G02*
X20694100Y-6608000I38100J0D01*
G01*
X20694100Y-6862000D02*
G75*
G02*
X20617900Y-6862000I-38100J0D01*
G01*
X20617900Y-6862000D02*
G75*
G02*
X20694100Y-6862000I38100J0D01*
G01*
X20948100Y-2798000D02*
G75*
G02*
X20871900Y-2798000I-38100J0D01*
G01*
X20871900Y-2798000D02*
G75*
G02*
X20948100Y-2798000I38100J0D01*
G01*
X20948100Y-3052000D02*
G75*
G02*
X20871900Y-3052000I-38100J0D01*
G01*
X20871900Y-3052000D02*
G75*
G02*
X20948100Y-3052000I38100J0D01*
G01*
X20948100Y-3306000D02*
G75*
G02*
X20871900Y-3306000I-38100J0D01*
G01*
X20871900Y-3306000D02*
G75*
G02*
X20948100Y-3306000I38100J0D01*
G01*
X20948100Y-3560000D02*
G75*
G02*
X20871900Y-3560000I-38100J0D01*
G01*
X20871900Y-3560000D02*
G75*
G02*
X20948100Y-3560000I38100J0D01*
G01*
X20948100Y-3814000D02*
G75*
G02*
X20871900Y-3814000I-38100J0D01*
G01*
X20871900Y-3814000D02*
G75*
G02*
X20948100Y-3814000I38100J0D01*
G01*
X20948100Y-4068000D02*
G75*
G02*
X20871900Y-4068000I-38100J0D01*
G01*
X20871900Y-4068000D02*
G75*
G02*
X20948100Y-4068000I38100J0D01*
G01*
X20948100Y-4322000D02*
G75*
G02*
X20871900Y-4322000I-38100J0D01*
G01*
X20871900Y-4322000D02*
G75*
G02*
X20948100Y-4322000I38100J0D01*
G01*
X20948100Y-4576000D02*
G75*
G02*
X20871900Y-4576000I-38100J0D01*
G01*
X20871900Y-4576000D02*
G75*
G02*
X20948100Y-4576000I38100J0D01*
G01*
X20948100Y-4830000D02*
G75*
G02*
X20871900Y-4830000I-38100J0D01*
G01*
X20871900Y-4830000D02*
G75*
G02*
X20948100Y-4830000I38100J0D01*
G01*
X20948100Y-5084000D02*
G75*
G02*
X20871900Y-5084000I-38100J0D01*
G01*
X20871900Y-5084000D02*
G75*
G02*
X20948100Y-5084000I38100J0D01*
G01*
X20948100Y-5338000D02*
G75*
G02*
X20871900Y-5338000I-38100J0D01*
G01*
X20871900Y-5338000D02*
G75*
G02*
X20948100Y-5338000I38100J0D01*
G01*
X20948100Y-5592000D02*
G75*
G02*
X20871900Y-5592000I-38100J0D01*
G01*
X20871900Y-5592000D02*
G75*
G02*
X20948100Y-5592000I38100J0D01*
G01*
X20948100Y-5846000D02*
G75*
G02*
X20871900Y-5846000I-38100J0D01*
G01*
X20871900Y-5846000D02*
G75*
G02*
X20948100Y-5846000I38100J0D01*
G01*
X20948100Y-6100000D02*
G75*
G02*
X20871900Y-6100000I-38100J0D01*
G01*
X20871900Y-6100000D02*
G75*
G02*
X20948100Y-6100000I38100J0D01*
G01*
X20948100Y-6354000D02*
G75*
G02*
X20871900Y-6354000I-38100J0D01*
G01*
X20871900Y-6354000D02*
G75*
G02*
X20948100Y-6354000I38100J0D01*
G01*
X20948100Y-6608000D02*
G75*
G02*
X20871900Y-6608000I-38100J0D01*
G01*
X20871900Y-6608000D02*
G75*
G02*
X20948100Y-6608000I38100J0D01*
G01*
X20948100Y-6862000D02*
G75*
G02*
X20871900Y-6862000I-38100J0D01*
G01*
X20871900Y-6862000D02*
G75*
G02*
X20948100Y-6862000I38100J0D01*
G01*
X8533000Y-6725000D02*
X8533000Y-6805000D01*
X8493000Y-6765000D02*
X8573000Y-6765000D01*
X8533000Y-6979000D02*
X8533000Y-7059000D01*
X8493000Y-7019000D02*
X8573000Y-7019000D01*
X9757000Y-6333840D02*
X9757000Y-6413840D01*
X9717000Y-6373840D02*
X9797000Y-6373840D01*
X9757000Y-6533840D02*
X9757000Y-6613840D01*
X9717000Y-6573840D02*
X9797000Y-6573840D01*
X9757000Y-6733840D02*
X9757000Y-6813840D01*
X9717000Y-6773840D02*
X9797000Y-6773840D01*
X9957000Y-6333840D02*
X9957000Y-6413840D01*
X9917000Y-6373840D02*
X9997000Y-6373840D01*
X9957000Y-6533840D02*
X9957000Y-6613840D01*
X9917000Y-6573840D02*
X9997000Y-6573840D01*
X9957000Y-6733840D02*
X9957000Y-6813840D01*
X9917000Y-6773840D02*
X9997000Y-6773840D01*
D13*
X8498891Y-6168891D02*
X8498891Y-6091109D01*
X8421109Y-6091109D01*
X8421109Y-6168891D01*
X8498891Y-6168891D01*
X8498891Y-7692891D02*
X8498891Y-7615109D01*
X8421109Y-7615109D01*
X8421109Y-7692891D01*
X8498891Y-7692891D01*
X8752891Y-6168891D02*
X8752891Y-6091109D01*
X8675109Y-6091109D01*
X8675109Y-6168891D01*
X8752891Y-6168891D01*
X8752891Y-7692891D02*
X8752891Y-7615109D01*
X8675109Y-7615109D01*
X8675109Y-7692891D01*
X8752891Y-7692891D01*
X8752891Y-6422891D02*
X8752891Y-6345109D01*
X8675109Y-6345109D01*
X8675109Y-6422891D01*
X8752891Y-6422891D01*
X9006891Y-6168891D02*
X9006891Y-6091109D01*
X8929109Y-6091109D01*
X8929109Y-6168891D01*
X9006891Y-6168891D01*
X9006891Y-7692891D02*
X9006891Y-7615109D01*
X8929109Y-7615109D01*
X8929109Y-7692891D01*
X9006891Y-7692891D01*
X9128811Y-7387811D02*
X9128811Y-7310029D01*
X9051029Y-7310029D01*
X9051029Y-7387811D01*
X9128811Y-7387811D01*
X9260891Y-6168891D02*
X9260891Y-6091109D01*
X9183109Y-6091109D01*
X9183109Y-6168891D01*
X9260891Y-6168891D01*
X9260891Y-7692891D02*
X9260891Y-7615109D01*
X9183109Y-7615109D01*
X9183109Y-7692891D01*
X9260891Y-7692891D01*
X9382811Y-7387811D02*
X9382811Y-7310029D01*
X9305029Y-7310029D01*
X9305029Y-7387811D01*
X9382811Y-7387811D01*
X9514891Y-6168891D02*
X9514891Y-6091109D01*
X9437109Y-6091109D01*
X9437109Y-6168891D01*
X9514891Y-6168891D01*
X9514891Y-7692891D02*
X9514891Y-7615109D01*
X9437109Y-7615109D01*
X9437109Y-7692891D01*
X9514891Y-7692891D01*
X9636811Y-7387811D02*
X9636811Y-7310029D01*
X9559029Y-7310029D01*
X9559029Y-7387811D01*
X9636811Y-7387811D01*
X9768891Y-6168891D02*
X9768891Y-6091109D01*
X9691109Y-6091109D01*
X9691109Y-6168891D01*
X9768891Y-6168891D01*
X9768891Y-7692891D02*
X9768891Y-7615109D01*
X9691109Y-7615109D01*
X9691109Y-7692891D01*
X9768891Y-7692891D01*
X9890811Y-7387811D02*
X9890811Y-7310029D01*
X9813029Y-7310029D01*
X9813029Y-7387811D01*
X9890811Y-7387811D01*
X10022891Y-6168891D02*
X10022891Y-6091109D01*
X9945109Y-6091109D01*
X9945109Y-6168891D01*
X10022891Y-6168891D01*
X10022891Y-7692891D02*
X10022891Y-7615109D01*
X9945109Y-7615109D01*
X9945109Y-7692891D01*
X10022891Y-7692891D01*
X10144811Y-7387811D02*
X10144811Y-7310029D01*
X10067029Y-7310029D01*
X10067029Y-7387811D01*
X10144811Y-7387811D01*
X10276891Y-6168891D02*
X10276891Y-6091109D01*
X10199109Y-6091109D01*
X10199109Y-6168891D01*
X10276891Y-6168891D01*
X10276891Y-7692891D02*
X10276891Y-7615109D01*
X10199109Y-7615109D01*
X10199109Y-7692891D01*
X10276891Y-7692891D01*
X10530891Y-6168891D02*
X10530891Y-6091109D01*
X10453109Y-6091109D01*
X10453109Y-6168891D01*
X10530891Y-6168891D01*
X10530891Y-7692891D02*
X10530891Y-7615109D01*
X10453109Y-7615109D01*
X10453109Y-7692891D01*
X10530891Y-7692891D01*
X10784891Y-6168891D02*
X10784891Y-6091109D01*
X10707109Y-6091109D01*
X10707109Y-6168891D01*
X10784891Y-6168891D01*
X10784891Y-7692891D02*
X10784891Y-7615109D01*
X10707109Y-7615109D01*
X10707109Y-7692891D01*
X10784891Y-7692891D01*
X11038891Y-6168891D02*
X11038891Y-6091109D01*
X10961109Y-6091109D01*
X10961109Y-6168891D01*
X11038891Y-6168891D01*
X11038891Y-7692891D02*
X11038891Y-7615109D01*
X10961109Y-7615109D01*
X10961109Y-7692891D01*
X11038891Y-7692891D01*
X11292891Y-6168891D02*
X11292891Y-6091109D01*
X11215109Y-6091109D01*
X11215109Y-6168891D01*
X11292891Y-6168891D01*
X11292891Y-7692891D02*
X11292891Y-7615109D01*
X11215109Y-7615109D01*
X11215109Y-7692891D01*
X11292891Y-7692891D01*
X11546891Y-6168891D02*
X11546891Y-6091109D01*
X11469109Y-6091109D01*
X11469109Y-6168891D01*
X11546891Y-6168891D01*
X11546891Y-7692891D02*
X11546891Y-7615109D01*
X11469109Y-7615109D01*
X11469109Y-7692891D01*
X11546891Y-7692891D01*
X11800891Y-6168891D02*
X11800891Y-6091109D01*
X11723109Y-6091109D01*
X11723109Y-6168891D01*
X11800891Y-6168891D01*
X11800891Y-7692891D02*
X11800891Y-7615109D01*
X11723109Y-7615109D01*
X11723109Y-7692891D01*
X11800891Y-7692891D01*
X12054891Y-6168891D02*
X12054891Y-6091109D01*
X11977109Y-6091109D01*
X11977109Y-6168891D01*
X12054891Y-6168891D01*
X12054891Y-7692891D02*
X12054891Y-7615109D01*
X11977109Y-7615109D01*
X11977109Y-7692891D01*
X12054891Y-7692891D01*
X12308891Y-6168891D02*
X12308891Y-6091109D01*
X12231109Y-6091109D01*
X12231109Y-6168891D01*
X12308891Y-6168891D01*
X12308891Y-7692891D02*
X12308891Y-7615109D01*
X12231109Y-7615109D01*
X12231109Y-7692891D01*
X12308891Y-7692891D01*
X12562891Y-6168891D02*
X12562891Y-6091109D01*
X12485109Y-6091109D01*
X12485109Y-6168891D01*
X12562891Y-6168891D01*
X12562891Y-7692891D02*
X12562891Y-7615109D01*
X12485109Y-7615109D01*
X12485109Y-7692891D01*
X12562891Y-7692891D01*
X12816891Y-6168891D02*
X12816891Y-6091109D01*
X12739109Y-6091109D01*
X12739109Y-6168891D01*
X12816891Y-6168891D01*
X12816891Y-7692891D02*
X12816891Y-7615109D01*
X12739109Y-7615109D01*
X12739109Y-7692891D01*
X12816891Y-7692891D01*
X13070891Y-6168891D02*
X13070891Y-6091109D01*
X12993109Y-6091109D01*
X12993109Y-6168891D01*
X13070891Y-6168891D01*
X13070891Y-6422891D02*
X13070891Y-6345109D01*
X12993109Y-6345109D01*
X12993109Y-6422891D01*
X13070891Y-6422891D01*
X13070891Y-6676891D02*
X13070891Y-6599109D01*
X12993109Y-6599109D01*
X12993109Y-6676891D01*
X13070891Y-6676891D01*
X13070891Y-6930891D02*
X13070891Y-6853109D01*
X12993109Y-6853109D01*
X12993109Y-6930891D01*
X13070891Y-6930891D01*
X13070891Y-7184891D02*
X13070891Y-7107109D01*
X12993109Y-7107109D01*
X12993109Y-7184891D01*
X13070891Y-7184891D01*
X13070891Y-7438891D02*
X13070891Y-7361109D01*
X12993109Y-7361109D01*
X12993109Y-7438891D01*
X13070891Y-7438891D01*
X13070891Y-7692891D02*
X13070891Y-7615109D01*
X12993109Y-7615109D01*
X12993109Y-7692891D01*
X13070891Y-7692891D01*
X13324891Y-6168891D02*
X13324891Y-6091109D01*
X13247109Y-6091109D01*
X13247109Y-6168891D01*
X13324891Y-6168891D01*
X13324891Y-7692891D02*
X13324891Y-7615109D01*
X13247109Y-7615109D01*
X13247109Y-7692891D01*
X13324891Y-7692891D01*
X13578891Y-6168891D02*
X13578891Y-6091109D01*
X13501109Y-6091109D01*
X13501109Y-6168891D01*
X13578891Y-6168891D01*
X13578891Y-7692891D02*
X13578891Y-7615109D01*
X13501109Y-7615109D01*
X13501109Y-7692891D01*
X13578891Y-7692891D01*
X13832891Y-6168891D02*
X13832891Y-6091109D01*
X13755109Y-6091109D01*
X13755109Y-6168891D01*
X13832891Y-6168891D01*
X13832891Y-7692891D02*
X13832891Y-7615109D01*
X13755109Y-7615109D01*
X13755109Y-7692891D01*
X13832891Y-7692891D01*
X14086891Y-6168891D02*
X14086891Y-6091109D01*
X14009109Y-6091109D01*
X14009109Y-6168891D01*
X14086891Y-6168891D01*
X14086891Y-7692891D02*
X14086891Y-7615109D01*
X14009109Y-7615109D01*
X14009109Y-7692891D01*
X14086891Y-7692891D01*
X14340891Y-6168891D02*
X14340891Y-6091109D01*
X14263109Y-6091109D01*
X14263109Y-6168891D01*
X14340891Y-6168891D01*
X14340891Y-7692891D02*
X14340891Y-7615109D01*
X14263109Y-7615109D01*
X14263109Y-7692891D01*
X14340891Y-7692891D01*
D14*
X7150000Y-6293150D02*
X7207150Y-6236000D01*
X7150000Y-6178850D01*
X7092850Y-6236000D01*
X7150000Y-6293150D01*
X7150000Y-6547150D02*
X7207150Y-6490000D01*
X7150000Y-6432850D01*
X7092850Y-6490000D01*
X7150000Y-6547150D01*
X7150000Y-6801150D02*
X7207150Y-6744000D01*
X7150000Y-6686850D01*
X7092850Y-6744000D01*
X7150000Y-6801150D01*
X7150000Y-7055150D02*
X7207150Y-6998000D01*
X7150000Y-6940850D01*
X7092850Y-6998000D01*
X7150000Y-7055150D01*
X7156000Y-7515150D02*
X7213150Y-7458000D01*
X7156000Y-7400850D01*
X7098850Y-7458000D01*
X7156000Y-7515150D01*
X7156000Y-7769150D02*
X7213150Y-7712000D01*
X7156000Y-7654850D01*
X7098850Y-7712000D01*
X7156000Y-7769150D01*
X7156000Y-8023150D02*
X7213150Y-7966000D01*
X7156000Y-7908850D01*
X7098850Y-7966000D01*
X7156000Y-8023150D01*
X7156000Y-8277150D02*
X7213150Y-8220000D01*
X7156000Y-8162850D01*
X7098850Y-8220000D01*
X7156000Y-8277150D01*
X7312000Y-2597150D02*
X7369150Y-2540000D01*
X7312000Y-2482850D01*
X7254850Y-2540000D01*
X7312000Y-2597150D01*
X7312000Y-2851150D02*
X7369150Y-2794000D01*
X7312000Y-2736850D01*
X7254850Y-2794000D01*
X7312000Y-2851150D01*
X7404000Y-6293150D02*
X7461150Y-6236000D01*
X7404000Y-6178850D01*
X7346850Y-6236000D01*
X7404000Y-6293150D01*
X7404000Y-6547150D02*
X7461150Y-6490000D01*
X7404000Y-6432850D01*
X7346850Y-6490000D01*
X7404000Y-6547150D01*
X7404000Y-6801150D02*
X7461150Y-6744000D01*
X7404000Y-6686850D01*
X7346850Y-6744000D01*
X7404000Y-6801150D01*
X7404000Y-7055150D02*
X7461150Y-6998000D01*
X7404000Y-6940850D01*
X7346850Y-6998000D01*
X7404000Y-7055150D01*
X7410000Y-7515150D02*
X7467150Y-7458000D01*
X7410000Y-7400850D01*
X7352850Y-7458000D01*
X7410000Y-7515150D01*
X7410000Y-7769150D02*
X7467150Y-7712000D01*
X7410000Y-7654850D01*
X7352850Y-7712000D01*
X7410000Y-7769150D01*
X7410000Y-8023150D02*
X7467150Y-7966000D01*
X7410000Y-7908850D01*
X7352850Y-7966000D01*
X7410000Y-8023150D01*
X7410000Y-8277150D02*
X7467150Y-8220000D01*
X7410000Y-8162850D01*
X7352850Y-8220000D01*
X7410000Y-8277150D01*
X7566000Y-2597150D02*
X7623150Y-2540000D01*
X7566000Y-2482850D01*
X7508850Y-2540000D01*
X7566000Y-2597150D01*
X7566000Y-2851150D02*
X7623150Y-2794000D01*
X7566000Y-2736850D01*
X7508850Y-2794000D01*
X7566000Y-2851150D01*
X7820000Y-2597150D02*
X7877150Y-2540000D01*
X7820000Y-2482850D01*
X7762850Y-2540000D01*
X7820000Y-2597150D01*
X7820000Y-2851150D02*
X7877150Y-2794000D01*
X7820000Y-2736850D01*
X7762850Y-2794000D01*
X7820000Y-2851150D01*
X8074000Y-2597150D02*
X8131150Y-2540000D01*
X8074000Y-2482850D01*
X8016850Y-2540000D01*
X8074000Y-2597150D01*
X8074000Y-2851150D02*
X8131150Y-2794000D01*
X8074000Y-2736850D01*
X8016850Y-2794000D01*
X8074000Y-2851150D01*
X10542000Y-2583150D02*
X10599150Y-2526000D01*
X10542000Y-2468850D01*
X10484850Y-2526000D01*
X10542000Y-2583150D01*
X10542000Y-2837150D02*
X10599150Y-2780000D01*
X10542000Y-2722850D01*
X10484850Y-2780000D01*
X10542000Y-2837150D01*
X10796000Y-2583150D02*
X10853150Y-2526000D01*
X10796000Y-2468850D01*
X10738850Y-2526000D01*
X10796000Y-2583150D01*
X10796000Y-2837150D02*
X10853150Y-2780000D01*
X10796000Y-2722850D01*
X10738850Y-2780000D01*
X10796000Y-2837150D01*
X11050000Y-2583150D02*
X11107150Y-2526000D01*
X11050000Y-2468850D01*
X10992850Y-2526000D01*
X11050000Y-2583150D01*
X11050000Y-2837150D02*
X11107150Y-2780000D01*
X11050000Y-2722850D01*
X10992850Y-2780000D01*
X11050000Y-2837150D01*
X11304000Y-2583150D02*
X11361150Y-2526000D01*
X11304000Y-2468850D01*
X11246850Y-2526000D01*
X11304000Y-2583150D01*
X11304000Y-2837150D02*
X11361150Y-2780000D01*
X11304000Y-2722850D01*
X11246850Y-2780000D01*
X11304000Y-2837150D01*
X13808000Y-2606150D02*
X13865150Y-2549000D01*
X13808000Y-2491850D01*
X13750850Y-2549000D01*
X13808000Y-2606150D01*
X13808000Y-2860150D02*
X13865150Y-2803000D01*
X13808000Y-2745850D01*
X13750850Y-2803000D01*
X13808000Y-2860150D01*
X14062000Y-2606150D02*
X14119150Y-2549000D01*
X14062000Y-2491850D01*
X14004850Y-2549000D01*
X14062000Y-2606150D01*
X14062000Y-2860150D02*
X14119150Y-2803000D01*
X14062000Y-2745850D01*
X14004850Y-2803000D01*
X14062000Y-2860150D01*
X14316000Y-2606150D02*
X14373150Y-2549000D01*
X14316000Y-2491850D01*
X14258850Y-2549000D01*
X14316000Y-2606150D01*
X14316000Y-2860150D02*
X14373150Y-2803000D01*
X14316000Y-2745850D01*
X14258850Y-2803000D01*
X14316000Y-2860150D01*
X14570000Y-2606150D02*
X14627150Y-2549000D01*
X14570000Y-2491850D01*
X14512850Y-2549000D01*
X14570000Y-2606150D01*
X14570000Y-2860150D02*
X14627150Y-2803000D01*
X14570000Y-2745850D01*
X14512850Y-2803000D01*
X14570000Y-2860150D01*
X17046000Y-2593150D02*
X17103150Y-2536000D01*
X17046000Y-2478850D01*
X16988850Y-2536000D01*
X17046000Y-2593150D01*
X17046000Y-2847150D02*
X17103150Y-2790000D01*
X17046000Y-2732850D01*
X16988850Y-2790000D01*
X17046000Y-2847150D01*
X17300000Y-2593150D02*
X17357150Y-2536000D01*
X17300000Y-2478850D01*
X17242850Y-2536000D01*
X17300000Y-2593150D01*
X17300000Y-2847150D02*
X17357150Y-2790000D01*
X17300000Y-2732850D01*
X17242850Y-2790000D01*
X17300000Y-2847150D01*
X17554000Y-2593150D02*
X17611150Y-2536000D01*
X17554000Y-2478850D01*
X17496850Y-2536000D01*
X17554000Y-2593150D01*
X17554000Y-2847150D02*
X17611150Y-2790000D01*
X17554000Y-2732850D01*
X17496850Y-2790000D01*
X17554000Y-2847150D01*
X17808000Y-2593150D02*
X17865150Y-2536000D01*
X17808000Y-2478850D01*
X17750850Y-2536000D01*
X17808000Y-2593150D01*
X17808000Y-2847150D02*
X17865150Y-2790000D01*
X17808000Y-2732850D01*
X17750850Y-2790000D01*
X17808000Y-2847150D01*
X18458000Y-8037150D02*
X18515150Y-7980000D01*
X18458000Y-7922850D01*
X18400850Y-7980000D01*
X18458000Y-8037150D01*
X18458000Y-8291150D02*
X18515150Y-8234000D01*
X18458000Y-8176850D01*
X18400850Y-8234000D01*
X18458000Y-8291150D01*
X18712000Y-8037150D02*
X18769150Y-7980000D01*
X18712000Y-7922850D01*
X18654850Y-7980000D01*
X18712000Y-8037150D01*
X18712000Y-8291150D02*
X18769150Y-8234000D01*
X18712000Y-8176850D01*
X18654850Y-8234000D01*
X18712000Y-8291150D01*
X18966000Y-8037150D02*
X19023150Y-7980000D01*
X18966000Y-7922850D01*
X18908850Y-7980000D01*
X18966000Y-8037150D01*
X18966000Y-8291150D02*
X19023150Y-8234000D01*
X18966000Y-8176850D01*
X18908850Y-8234000D01*
X18966000Y-8291150D01*
X19220000Y-8037150D02*
X19277150Y-7980000D01*
X19220000Y-7922850D01*
X19162850Y-7980000D01*
X19220000Y-8037150D01*
X19220000Y-8291150D02*
X19277150Y-8234000D01*
X19220000Y-8176850D01*
X19162850Y-8234000D01*
X19220000Y-8291150D01*
D11*
X6268277Y-9315831D02*
X6268277Y-9115831D01*
X6268277Y-9115831D02*
X6315896Y-9115831D01*
X6315896Y-9115831D02*
X6344467Y-9125355D01*
X6344467Y-9125355D02*
X6363515Y-9144402D01*
X6363515Y-9144402D02*
X6373039Y-9163450D01*
X6373039Y-9163450D02*
X6382562Y-9201545D01*
X6382562Y-9201545D02*
X6382562Y-9230117D01*
X6382562Y-9230117D02*
X6373039Y-9268212D01*
X6373039Y-9268212D02*
X6363515Y-9287259D01*
X6363515Y-9287259D02*
X6344467Y-9306307D01*
X6344467Y-9306307D02*
X6315896Y-9315831D01*
X6315896Y-9315831D02*
X6268277Y-9315831D01*
X6468277Y-9315831D02*
X6468277Y-9182498D01*
X6468277Y-9220593D02*
X6477801Y-9201545D01*
X6477801Y-9201545D02*
X6487324Y-9192021D01*
X6487324Y-9192021D02*
X6506372Y-9182498D01*
X6506372Y-9182498D02*
X6525420Y-9182498D01*
X6592086Y-9315831D02*
X6592086Y-9182498D01*
X6592086Y-9115831D02*
X6582562Y-9125355D01*
X6582562Y-9125355D02*
X6592086Y-9134879D01*
X6592086Y-9134879D02*
X6601610Y-9125355D01*
X6601610Y-9125355D02*
X6592086Y-9115831D01*
X6592086Y-9115831D02*
X6592086Y-9134879D01*
X6715896Y-9315831D02*
X6696848Y-9306307D01*
X6696848Y-9306307D02*
X6687324Y-9287259D01*
X6687324Y-9287259D02*
X6687324Y-9115831D01*
X6820658Y-9315831D02*
X6801610Y-9306307D01*
X6801610Y-9306307D02*
X6792086Y-9287259D01*
X6792086Y-9287259D02*
X6792086Y-9115831D01*
X7049229Y-9315831D02*
X7049229Y-9115831D01*
X7049229Y-9115831D02*
X7115896Y-9258688D01*
X7115896Y-9258688D02*
X7182562Y-9115831D01*
X7182562Y-9115831D02*
X7182562Y-9315831D01*
X7363515Y-9315831D02*
X7363515Y-9211069D01*
X7363515Y-9211069D02*
X7353991Y-9192021D01*
X7353991Y-9192021D02*
X7334943Y-9182498D01*
X7334943Y-9182498D02*
X7296848Y-9182498D01*
X7296848Y-9182498D02*
X7277801Y-9192021D01*
X7363515Y-9306307D02*
X7344467Y-9315831D01*
X7344467Y-9315831D02*
X7296848Y-9315831D01*
X7296848Y-9315831D02*
X7277801Y-9306307D01*
X7277801Y-9306307D02*
X7268277Y-9287259D01*
X7268277Y-9287259D02*
X7268277Y-9268212D01*
X7268277Y-9268212D02*
X7277801Y-9249164D01*
X7277801Y-9249164D02*
X7296848Y-9239640D01*
X7296848Y-9239640D02*
X7344467Y-9239640D01*
X7344467Y-9239640D02*
X7363515Y-9230117D01*
X7458753Y-9182498D02*
X7458753Y-9382498D01*
X7458753Y-9192021D02*
X7477801Y-9182498D01*
X7477801Y-9182498D02*
X7515896Y-9182498D01*
X7515896Y-9182498D02*
X7534943Y-9192021D01*
X7534943Y-9192021D02*
X7544467Y-9201545D01*
X7544467Y-9201545D02*
X7553991Y-9220593D01*
X7553991Y-9220593D02*
X7553991Y-9277736D01*
X7553991Y-9277736D02*
X7544467Y-9296783D01*
X7544467Y-9296783D02*
X7534943Y-9306307D01*
X7534943Y-9306307D02*
X7515896Y-9315831D01*
X7515896Y-9315831D02*
X7477801Y-9315831D01*
X7477801Y-9315831D02*
X7458753Y-9306307D01*
X7639705Y-9296783D02*
X7649229Y-9306307D01*
X7649229Y-9306307D02*
X7639705Y-9315831D01*
X7639705Y-9315831D02*
X7630182Y-9306307D01*
X7630182Y-9306307D02*
X7639705Y-9296783D01*
X7639705Y-9296783D02*
X7639705Y-9315831D01*
X7639705Y-9192021D02*
X7649229Y-9201545D01*
X7649229Y-9201545D02*
X7639705Y-9211069D01*
X7639705Y-9211069D02*
X7630182Y-9201545D01*
X7630182Y-9201545D02*
X7639705Y-9192021D01*
X7639705Y-9192021D02*
X7639705Y-9211069D01*
D12*
X5977500Y-9629347D02*
X6007500Y-9659347D01*
X6007500Y-9629347D02*
X5977500Y-9659347D01*
D11*
X6306372Y-9535831D02*
X6325420Y-9535831D01*
X6325420Y-9535831D02*
X6344467Y-9545355D01*
X6344467Y-9545355D02*
X6353991Y-9554879D01*
X6353991Y-9554879D02*
X6363515Y-9573926D01*
X6363515Y-9573926D02*
X6373039Y-9612021D01*
X6373039Y-9612021D02*
X6373039Y-9659640D01*
X6373039Y-9659640D02*
X6363515Y-9697736D01*
X6363515Y-9697736D02*
X6353991Y-9716783D01*
X6353991Y-9716783D02*
X6344467Y-9726307D01*
X6344467Y-9726307D02*
X6325420Y-9735831D01*
X6325420Y-9735831D02*
X6306372Y-9735831D01*
X6306372Y-9735831D02*
X6287324Y-9726307D01*
X6287324Y-9726307D02*
X6277801Y-9716783D01*
X6277801Y-9716783D02*
X6268277Y-9697736D01*
X6268277Y-9697736D02*
X6258753Y-9659640D01*
X6258753Y-9659640D02*
X6258753Y-9612021D01*
X6258753Y-9612021D02*
X6268277Y-9573926D01*
X6268277Y-9573926D02*
X6277801Y-9554879D01*
X6277801Y-9554879D02*
X6287324Y-9545355D01*
X6287324Y-9545355D02*
X6306372Y-9535831D01*
X6458753Y-9716783D02*
X6468277Y-9726307D01*
X6468277Y-9726307D02*
X6458753Y-9735831D01*
X6458753Y-9735831D02*
X6449229Y-9726307D01*
X6449229Y-9726307D02*
X6458753Y-9716783D01*
X6458753Y-9716783D02*
X6458753Y-9735831D01*
X6534943Y-9535831D02*
X6658753Y-9535831D01*
X6658753Y-9535831D02*
X6592086Y-9612021D01*
X6592086Y-9612021D02*
X6620658Y-9612021D01*
X6620658Y-9612021D02*
X6639705Y-9621545D01*
X6639705Y-9621545D02*
X6649229Y-9631069D01*
X6649229Y-9631069D02*
X6658753Y-9650117D01*
X6658753Y-9650117D02*
X6658753Y-9697736D01*
X6658753Y-9697736D02*
X6649229Y-9716783D01*
X6649229Y-9716783D02*
X6639705Y-9726307D01*
X6639705Y-9726307D02*
X6620658Y-9735831D01*
X6620658Y-9735831D02*
X6563515Y-9735831D01*
X6563515Y-9735831D02*
X6544467Y-9726307D01*
X6544467Y-9726307D02*
X6534943Y-9716783D01*
X6782562Y-9535831D02*
X6801610Y-9535831D01*
X6801610Y-9535831D02*
X6820658Y-9545355D01*
X6820658Y-9545355D02*
X6830182Y-9554879D01*
X6830182Y-9554879D02*
X6839705Y-9573926D01*
X6839705Y-9573926D02*
X6849229Y-9612021D01*
X6849229Y-9612021D02*
X6849229Y-9659640D01*
X6849229Y-9659640D02*
X6839705Y-9697736D01*
X6839705Y-9697736D02*
X6830182Y-9716783D01*
X6830182Y-9716783D02*
X6820658Y-9726307D01*
X6820658Y-9726307D02*
X6801610Y-9735831D01*
X6801610Y-9735831D02*
X6782562Y-9735831D01*
X6782562Y-9735831D02*
X6763515Y-9726307D01*
X6763515Y-9726307D02*
X6753991Y-9716783D01*
X6753991Y-9716783D02*
X6744467Y-9697736D01*
X6744467Y-9697736D02*
X6734943Y-9659640D01*
X6734943Y-9659640D02*
X6734943Y-9612021D01*
X6734943Y-9612021D02*
X6744467Y-9573926D01*
X6744467Y-9573926D02*
X6753991Y-9554879D01*
X6753991Y-9554879D02*
X6763515Y-9545355D01*
X6763515Y-9545355D02*
X6782562Y-9535831D01*
X6973039Y-9535831D02*
X6992086Y-9535831D01*
X6992086Y-9535831D02*
X7011134Y-9545355D01*
X7011134Y-9545355D02*
X7020658Y-9554879D01*
X7020658Y-9554879D02*
X7030182Y-9573926D01*
X7030182Y-9573926D02*
X7039705Y-9612021D01*
X7039705Y-9612021D02*
X7039705Y-9659640D01*
X7039705Y-9659640D02*
X7030182Y-9697736D01*
X7030182Y-9697736D02*
X7020658Y-9716783D01*
X7020658Y-9716783D02*
X7011134Y-9726307D01*
X7011134Y-9726307D02*
X6992086Y-9735831D01*
X6992086Y-9735831D02*
X6973039Y-9735831D01*
X6973039Y-9735831D02*
X6953991Y-9726307D01*
X6953991Y-9726307D02*
X6944467Y-9716783D01*
X6944467Y-9716783D02*
X6934943Y-9697736D01*
X6934943Y-9697736D02*
X6925420Y-9659640D01*
X6925420Y-9659640D02*
X6925420Y-9612021D01*
X6925420Y-9612021D02*
X6934943Y-9573926D01*
X6934943Y-9573926D02*
X6944467Y-9554879D01*
X6944467Y-9554879D02*
X6953991Y-9545355D01*
X6953991Y-9545355D02*
X6973039Y-9535831D01*
X7125420Y-9735831D02*
X7125420Y-9602498D01*
X7125420Y-9621545D02*
X7134943Y-9612021D01*
X7134943Y-9612021D02*
X7153991Y-9602498D01*
X7153991Y-9602498D02*
X7182563Y-9602498D01*
X7182563Y-9602498D02*
X7201610Y-9612021D01*
X7201610Y-9612021D02*
X7211134Y-9631069D01*
X7211134Y-9631069D02*
X7211134Y-9735831D01*
X7211134Y-9631069D02*
X7220658Y-9612021D01*
X7220658Y-9612021D02*
X7239705Y-9602498D01*
X7239705Y-9602498D02*
X7268277Y-9602498D01*
X7268277Y-9602498D02*
X7287324Y-9612021D01*
X7287324Y-9612021D02*
X7296848Y-9631069D01*
X7296848Y-9631069D02*
X7296848Y-9735831D01*
X7392086Y-9735831D02*
X7392086Y-9602498D01*
X7392086Y-9621545D02*
X7401610Y-9612021D01*
X7401610Y-9612021D02*
X7420658Y-9602498D01*
X7420658Y-9602498D02*
X7449229Y-9602498D01*
X7449229Y-9602498D02*
X7468277Y-9612021D01*
X7468277Y-9612021D02*
X7477801Y-9631069D01*
X7477801Y-9631069D02*
X7477801Y-9735831D01*
X7477801Y-9631069D02*
X7487324Y-9612021D01*
X7487324Y-9612021D02*
X7506372Y-9602498D01*
X7506372Y-9602498D02*
X7534943Y-9602498D01*
X7534943Y-9602498D02*
X7553991Y-9612021D01*
X7553991Y-9612021D02*
X7563515Y-9631069D01*
X7563515Y-9631069D02*
X7563515Y-9735831D01*
X7953991Y-9526307D02*
X7782563Y-9783450D01*
X8211134Y-9535831D02*
X8230182Y-9535831D01*
X8230182Y-9535831D02*
X8249229Y-9545355D01*
X8249229Y-9545355D02*
X8258753Y-9554879D01*
X8258753Y-9554879D02*
X8268277Y-9573926D01*
X8268277Y-9573926D02*
X8277801Y-9612021D01*
X8277801Y-9612021D02*
X8277801Y-9659640D01*
X8277801Y-9659640D02*
X8268277Y-9697736D01*
X8268277Y-9697736D02*
X8258753Y-9716783D01*
X8258753Y-9716783D02*
X8249229Y-9726307D01*
X8249229Y-9726307D02*
X8230182Y-9735831D01*
X8230182Y-9735831D02*
X8211134Y-9735831D01*
X8211134Y-9735831D02*
X8192086Y-9726307D01*
X8192086Y-9726307D02*
X8182563Y-9716783D01*
X8182563Y-9716783D02*
X8173039Y-9697736D01*
X8173039Y-9697736D02*
X8163515Y-9659640D01*
X8163515Y-9659640D02*
X8163515Y-9612021D01*
X8163515Y-9612021D02*
X8173039Y-9573926D01*
X8173039Y-9573926D02*
X8182563Y-9554879D01*
X8182563Y-9554879D02*
X8192086Y-9545355D01*
X8192086Y-9545355D02*
X8211134Y-9535831D01*
X8363515Y-9716783D02*
X8373039Y-9726307D01*
X8373039Y-9726307D02*
X8363515Y-9735831D01*
X8363515Y-9735831D02*
X8353991Y-9726307D01*
X8353991Y-9726307D02*
X8363515Y-9716783D01*
X8363515Y-9716783D02*
X8363515Y-9735831D01*
X8496848Y-9535831D02*
X8515896Y-9535831D01*
X8515896Y-9535831D02*
X8534944Y-9545355D01*
X8534944Y-9545355D02*
X8544468Y-9554879D01*
X8544468Y-9554879D02*
X8553991Y-9573926D01*
X8553991Y-9573926D02*
X8563515Y-9612021D01*
X8563515Y-9612021D02*
X8563515Y-9659640D01*
X8563515Y-9659640D02*
X8553991Y-9697736D01*
X8553991Y-9697736D02*
X8544468Y-9716783D01*
X8544468Y-9716783D02*
X8534944Y-9726307D01*
X8534944Y-9726307D02*
X8515896Y-9735831D01*
X8515896Y-9735831D02*
X8496848Y-9735831D01*
X8496848Y-9735831D02*
X8477801Y-9726307D01*
X8477801Y-9726307D02*
X8468277Y-9716783D01*
X8468277Y-9716783D02*
X8458753Y-9697736D01*
X8458753Y-9697736D02*
X8449229Y-9659640D01*
X8449229Y-9659640D02*
X8449229Y-9612021D01*
X8449229Y-9612021D02*
X8458753Y-9573926D01*
X8458753Y-9573926D02*
X8468277Y-9554879D01*
X8468277Y-9554879D02*
X8477801Y-9545355D01*
X8477801Y-9545355D02*
X8496848Y-9535831D01*
X8753991Y-9735831D02*
X8639706Y-9735831D01*
X8696848Y-9735831D02*
X8696848Y-9535831D01*
X8696848Y-9535831D02*
X8677801Y-9564402D01*
X8677801Y-9564402D02*
X8658753Y-9583450D01*
X8658753Y-9583450D02*
X8639706Y-9592974D01*
X8944468Y-9735831D02*
X8830182Y-9735831D01*
X8887325Y-9735831D02*
X8887325Y-9535831D01*
X8887325Y-9535831D02*
X8868277Y-9564402D01*
X8868277Y-9564402D02*
X8849229Y-9583450D01*
X8849229Y-9583450D02*
X8830182Y-9592974D01*
X9058753Y-9621545D02*
X9039706Y-9612021D01*
X9039706Y-9612021D02*
X9030182Y-9602498D01*
X9030182Y-9602498D02*
X9020658Y-9583450D01*
X9020658Y-9583450D02*
X9020658Y-9573926D01*
X9020658Y-9573926D02*
X9030182Y-9554879D01*
X9030182Y-9554879D02*
X9039706Y-9545355D01*
X9039706Y-9545355D02*
X9058753Y-9535831D01*
X9058753Y-9535831D02*
X9096849Y-9535831D01*
X9096849Y-9535831D02*
X9115896Y-9545355D01*
X9115896Y-9545355D02*
X9125420Y-9554879D01*
X9125420Y-9554879D02*
X9134944Y-9573926D01*
X9134944Y-9573926D02*
X9134944Y-9583450D01*
X9134944Y-9583450D02*
X9125420Y-9602498D01*
X9125420Y-9602498D02*
X9115896Y-9612021D01*
X9115896Y-9612021D02*
X9096849Y-9621545D01*
X9096849Y-9621545D02*
X9058753Y-9621545D01*
X9058753Y-9621545D02*
X9039706Y-9631069D01*
X9039706Y-9631069D02*
X9030182Y-9640593D01*
X9030182Y-9640593D02*
X9020658Y-9659640D01*
X9020658Y-9659640D02*
X9020658Y-9697736D01*
X9020658Y-9697736D02*
X9030182Y-9716783D01*
X9030182Y-9716783D02*
X9039706Y-9726307D01*
X9039706Y-9726307D02*
X9058753Y-9735831D01*
X9058753Y-9735831D02*
X9096849Y-9735831D01*
X9096849Y-9735831D02*
X9115896Y-9726307D01*
X9115896Y-9726307D02*
X9125420Y-9716783D01*
X9125420Y-9716783D02*
X9134944Y-9697736D01*
X9134944Y-9697736D02*
X9134944Y-9659640D01*
X9134944Y-9659640D02*
X9125420Y-9640593D01*
X9125420Y-9640593D02*
X9115896Y-9631069D01*
X9115896Y-9631069D02*
X9096849Y-9621545D01*
X9211134Y-9535831D02*
X9211134Y-9573926D01*
X9287325Y-9535831D02*
X9287325Y-9573926D01*
X9582563Y-9812021D02*
X9573039Y-9802498D01*
X9573039Y-9802498D02*
X9553991Y-9773926D01*
X9553991Y-9773926D02*
X9544468Y-9754879D01*
X9544468Y-9754879D02*
X9534944Y-9726307D01*
X9534944Y-9726307D02*
X9525420Y-9678688D01*
X9525420Y-9678688D02*
X9525420Y-9640593D01*
X9525420Y-9640593D02*
X9534944Y-9592974D01*
X9534944Y-9592974D02*
X9544468Y-9564402D01*
X9544468Y-9564402D02*
X9553991Y-9545355D01*
X9553991Y-9545355D02*
X9573039Y-9516783D01*
X9573039Y-9516783D02*
X9582563Y-9507259D01*
X9763515Y-9735831D02*
X9649230Y-9735831D01*
X9706372Y-9735831D02*
X9706372Y-9535831D01*
X9706372Y-9535831D02*
X9687325Y-9564402D01*
X9687325Y-9564402D02*
X9668277Y-9583450D01*
X9668277Y-9583450D02*
X9649230Y-9592974D01*
X9944468Y-9535831D02*
X9849230Y-9535831D01*
X9849230Y-9535831D02*
X9839706Y-9631069D01*
X9839706Y-9631069D02*
X9849230Y-9621545D01*
X9849230Y-9621545D02*
X9868277Y-9612021D01*
X9868277Y-9612021D02*
X9915896Y-9612021D01*
X9915896Y-9612021D02*
X9934944Y-9621545D01*
X9934944Y-9621545D02*
X9944468Y-9631069D01*
X9944468Y-9631069D02*
X9953991Y-9650117D01*
X9953991Y-9650117D02*
X9953991Y-9697736D01*
X9953991Y-9697736D02*
X9944468Y-9716783D01*
X9944468Y-9716783D02*
X9934944Y-9726307D01*
X9934944Y-9726307D02*
X9915896Y-9735831D01*
X9915896Y-9735831D02*
X9868277Y-9735831D01*
X9868277Y-9735831D02*
X9849230Y-9726307D01*
X9849230Y-9726307D02*
X9839706Y-9716783D01*
X10125420Y-9535831D02*
X10087325Y-9535831D01*
X10087325Y-9535831D02*
X10068277Y-9545355D01*
X10068277Y-9545355D02*
X10058753Y-9554879D01*
X10058753Y-9554879D02*
X10039706Y-9583450D01*
X10039706Y-9583450D02*
X10030182Y-9621545D01*
X10030182Y-9621545D02*
X10030182Y-9697736D01*
X10030182Y-9697736D02*
X10039706Y-9716783D01*
X10039706Y-9716783D02*
X10049230Y-9726307D01*
X10049230Y-9726307D02*
X10068277Y-9735831D01*
X10068277Y-9735831D02*
X10106372Y-9735831D01*
X10106372Y-9735831D02*
X10125420Y-9726307D01*
X10125420Y-9726307D02*
X10134944Y-9716783D01*
X10134944Y-9716783D02*
X10144468Y-9697736D01*
X10144468Y-9697736D02*
X10144468Y-9650117D01*
X10144468Y-9650117D02*
X10134944Y-9631069D01*
X10134944Y-9631069D02*
X10125420Y-9621545D01*
X10125420Y-9621545D02*
X10106372Y-9612021D01*
X10106372Y-9612021D02*
X10068277Y-9612021D01*
X10068277Y-9612021D02*
X10049230Y-9621545D01*
X10049230Y-9621545D02*
X10039706Y-9631069D01*
X10039706Y-9631069D02*
X10030182Y-9650117D01*
X10382563Y-9735831D02*
X10382563Y-9535831D01*
X10468277Y-9735831D02*
X10468277Y-9631069D01*
X10468277Y-9631069D02*
X10458753Y-9612021D01*
X10458753Y-9612021D02*
X10439706Y-9602498D01*
X10439706Y-9602498D02*
X10411134Y-9602498D01*
X10411134Y-9602498D02*
X10392087Y-9612021D01*
X10392087Y-9612021D02*
X10382563Y-9621545D01*
X10592087Y-9735831D02*
X10573039Y-9726307D01*
X10573039Y-9726307D02*
X10563515Y-9716783D01*
X10563515Y-9716783D02*
X10553992Y-9697736D01*
X10553992Y-9697736D02*
X10553992Y-9640593D01*
X10553992Y-9640593D02*
X10563515Y-9621545D01*
X10563515Y-9621545D02*
X10573039Y-9612021D01*
X10573039Y-9612021D02*
X10592087Y-9602498D01*
X10592087Y-9602498D02*
X10620658Y-9602498D01*
X10620658Y-9602498D02*
X10639706Y-9612021D01*
X10639706Y-9612021D02*
X10649230Y-9621545D01*
X10649230Y-9621545D02*
X10658753Y-9640593D01*
X10658753Y-9640593D02*
X10658753Y-9697736D01*
X10658753Y-9697736D02*
X10649230Y-9716783D01*
X10649230Y-9716783D02*
X10639706Y-9726307D01*
X10639706Y-9726307D02*
X10620658Y-9735831D01*
X10620658Y-9735831D02*
X10592087Y-9735831D01*
X10773039Y-9735831D02*
X10753992Y-9726307D01*
X10753992Y-9726307D02*
X10744468Y-9707259D01*
X10744468Y-9707259D02*
X10744468Y-9535831D01*
X10925420Y-9726307D02*
X10906373Y-9735831D01*
X10906373Y-9735831D02*
X10868277Y-9735831D01*
X10868277Y-9735831D02*
X10849230Y-9726307D01*
X10849230Y-9726307D02*
X10839706Y-9707259D01*
X10839706Y-9707259D02*
X10839706Y-9631069D01*
X10839706Y-9631069D02*
X10849230Y-9612021D01*
X10849230Y-9612021D02*
X10868277Y-9602498D01*
X10868277Y-9602498D02*
X10906373Y-9602498D01*
X10906373Y-9602498D02*
X10925420Y-9612021D01*
X10925420Y-9612021D02*
X10934944Y-9631069D01*
X10934944Y-9631069D02*
X10934944Y-9650117D01*
X10934944Y-9650117D02*
X10839706Y-9669164D01*
X11011134Y-9726307D02*
X11030182Y-9735831D01*
X11030182Y-9735831D02*
X11068277Y-9735831D01*
X11068277Y-9735831D02*
X11087325Y-9726307D01*
X11087325Y-9726307D02*
X11096849Y-9707259D01*
X11096849Y-9707259D02*
X11096849Y-9697736D01*
X11096849Y-9697736D02*
X11087325Y-9678688D01*
X11087325Y-9678688D02*
X11068277Y-9669164D01*
X11068277Y-9669164D02*
X11039706Y-9669164D01*
X11039706Y-9669164D02*
X11020658Y-9659640D01*
X11020658Y-9659640D02*
X11011134Y-9640593D01*
X11011134Y-9640593D02*
X11011134Y-9631069D01*
X11011134Y-9631069D02*
X11020658Y-9612021D01*
X11020658Y-9612021D02*
X11039706Y-9602498D01*
X11039706Y-9602498D02*
X11068277Y-9602498D01*
X11068277Y-9602498D02*
X11087325Y-9612021D01*
X11163515Y-9812021D02*
X11173039Y-9802498D01*
X11173039Y-9802498D02*
X11192087Y-9773926D01*
X11192087Y-9773926D02*
X11201611Y-9754879D01*
X11201611Y-9754879D02*
X11211134Y-9726307D01*
X11211134Y-9726307D02*
X11220658Y-9678688D01*
X11220658Y-9678688D02*
X11220658Y-9640593D01*
X11220658Y-9640593D02*
X11211134Y-9592974D01*
X11211134Y-9592974D02*
X11201611Y-9564402D01*
X11201611Y-9564402D02*
X11192087Y-9545355D01*
X11192087Y-9545355D02*
X11173039Y-9516783D01*
X11173039Y-9516783D02*
X11163515Y-9507259D01*
D12*
X6007500Y-9908347D02*
G75*
G02*
X5931300Y-9908347I-38100J0D01*
G01*
X5931300Y-9908347D02*
G75*
G02*
X6007500Y-9908347I38100J0D01*
G01*
D11*
X6306372Y-9799831D02*
X6325420Y-9799831D01*
X6325420Y-9799831D02*
X6344467Y-9809355D01*
X6344467Y-9809355D02*
X6353991Y-9818879D01*
X6353991Y-9818879D02*
X6363515Y-9837926D01*
X6363515Y-9837926D02*
X6373039Y-9876021D01*
X6373039Y-9876021D02*
X6373039Y-9923640D01*
X6373039Y-9923640D02*
X6363515Y-9961736D01*
X6363515Y-9961736D02*
X6353991Y-9980783D01*
X6353991Y-9980783D02*
X6344467Y-9990307D01*
X6344467Y-9990307D02*
X6325420Y-9999831D01*
X6325420Y-9999831D02*
X6306372Y-9999831D01*
X6306372Y-9999831D02*
X6287324Y-9990307D01*
X6287324Y-9990307D02*
X6277801Y-9980783D01*
X6277801Y-9980783D02*
X6268277Y-9961736D01*
X6268277Y-9961736D02*
X6258753Y-9923640D01*
X6258753Y-9923640D02*
X6258753Y-9876021D01*
X6258753Y-9876021D02*
X6268277Y-9837926D01*
X6268277Y-9837926D02*
X6277801Y-9818879D01*
X6277801Y-9818879D02*
X6287324Y-9809355D01*
X6287324Y-9809355D02*
X6306372Y-9799831D01*
X6458753Y-9980783D02*
X6468277Y-9990307D01*
X6468277Y-9990307D02*
X6458753Y-9999831D01*
X6458753Y-9999831D02*
X6449229Y-9990307D01*
X6449229Y-9990307D02*
X6458753Y-9980783D01*
X6458753Y-9980783D02*
X6458753Y-9999831D01*
X6534943Y-9799831D02*
X6668277Y-9799831D01*
X6668277Y-9799831D02*
X6582562Y-9999831D01*
X6830182Y-9799831D02*
X6792086Y-9799831D01*
X6792086Y-9799831D02*
X6773039Y-9809355D01*
X6773039Y-9809355D02*
X6763515Y-9818879D01*
X6763515Y-9818879D02*
X6744467Y-9847450D01*
X6744467Y-9847450D02*
X6734943Y-9885545D01*
X6734943Y-9885545D02*
X6734943Y-9961736D01*
X6734943Y-9961736D02*
X6744467Y-9980783D01*
X6744467Y-9980783D02*
X6753991Y-9990307D01*
X6753991Y-9990307D02*
X6773039Y-9999831D01*
X6773039Y-9999831D02*
X6811134Y-9999831D01*
X6811134Y-9999831D02*
X6830182Y-9990307D01*
X6830182Y-9990307D02*
X6839705Y-9980783D01*
X6839705Y-9980783D02*
X6849229Y-9961736D01*
X6849229Y-9961736D02*
X6849229Y-9914117D01*
X6849229Y-9914117D02*
X6839705Y-9895069D01*
X6839705Y-9895069D02*
X6830182Y-9885545D01*
X6830182Y-9885545D02*
X6811134Y-9876021D01*
X6811134Y-9876021D02*
X6773039Y-9876021D01*
X6773039Y-9876021D02*
X6753991Y-9885545D01*
X6753991Y-9885545D02*
X6744467Y-9895069D01*
X6744467Y-9895069D02*
X6734943Y-9914117D01*
X6925420Y-9818879D02*
X6934943Y-9809355D01*
X6934943Y-9809355D02*
X6953991Y-9799831D01*
X6953991Y-9799831D02*
X7001610Y-9799831D01*
X7001610Y-9799831D02*
X7020658Y-9809355D01*
X7020658Y-9809355D02*
X7030182Y-9818879D01*
X7030182Y-9818879D02*
X7039705Y-9837926D01*
X7039705Y-9837926D02*
X7039705Y-9856974D01*
X7039705Y-9856974D02*
X7030182Y-9885545D01*
X7030182Y-9885545D02*
X6915896Y-9999831D01*
X6915896Y-9999831D02*
X7039705Y-9999831D01*
X7125420Y-9999831D02*
X7125420Y-9866498D01*
X7125420Y-9885545D02*
X7134943Y-9876021D01*
X7134943Y-9876021D02*
X7153991Y-9866498D01*
X7153991Y-9866498D02*
X7182563Y-9866498D01*
X7182563Y-9866498D02*
X7201610Y-9876021D01*
X7201610Y-9876021D02*
X7211134Y-9895069D01*
X7211134Y-9895069D02*
X7211134Y-9999831D01*
X7211134Y-9895069D02*
X7220658Y-9876021D01*
X7220658Y-9876021D02*
X7239705Y-9866498D01*
X7239705Y-9866498D02*
X7268277Y-9866498D01*
X7268277Y-9866498D02*
X7287324Y-9876021D01*
X7287324Y-9876021D02*
X7296848Y-9895069D01*
X7296848Y-9895069D02*
X7296848Y-9999831D01*
X7392086Y-9999831D02*
X7392086Y-9866498D01*
X7392086Y-9885545D02*
X7401610Y-9876021D01*
X7401610Y-9876021D02*
X7420658Y-9866498D01*
X7420658Y-9866498D02*
X7449229Y-9866498D01*
X7449229Y-9866498D02*
X7468277Y-9876021D01*
X7468277Y-9876021D02*
X7477801Y-9895069D01*
X7477801Y-9895069D02*
X7477801Y-9999831D01*
X7477801Y-9895069D02*
X7487324Y-9876021D01*
X7487324Y-9876021D02*
X7506372Y-9866498D01*
X7506372Y-9866498D02*
X7534943Y-9866498D01*
X7534943Y-9866498D02*
X7553991Y-9876021D01*
X7553991Y-9876021D02*
X7563515Y-9895069D01*
X7563515Y-9895069D02*
X7563515Y-9999831D01*
X7953991Y-9790307D02*
X7782563Y-10047450D01*
X8211134Y-9799831D02*
X8230182Y-9799831D01*
X8230182Y-9799831D02*
X8249229Y-9809355D01*
X8249229Y-9809355D02*
X8258753Y-9818879D01*
X8258753Y-9818879D02*
X8268277Y-9837926D01*
X8268277Y-9837926D02*
X8277801Y-9876021D01*
X8277801Y-9876021D02*
X8277801Y-9923640D01*
X8277801Y-9923640D02*
X8268277Y-9961736D01*
X8268277Y-9961736D02*
X8258753Y-9980783D01*
X8258753Y-9980783D02*
X8249229Y-9990307D01*
X8249229Y-9990307D02*
X8230182Y-9999831D01*
X8230182Y-9999831D02*
X8211134Y-9999831D01*
X8211134Y-9999831D02*
X8192086Y-9990307D01*
X8192086Y-9990307D02*
X8182563Y-9980783D01*
X8182563Y-9980783D02*
X8173039Y-9961736D01*
X8173039Y-9961736D02*
X8163515Y-9923640D01*
X8163515Y-9923640D02*
X8163515Y-9876021D01*
X8163515Y-9876021D02*
X8173039Y-9837926D01*
X8173039Y-9837926D02*
X8182563Y-9818879D01*
X8182563Y-9818879D02*
X8192086Y-9809355D01*
X8192086Y-9809355D02*
X8211134Y-9799831D01*
X8363515Y-9980783D02*
X8373039Y-9990307D01*
X8373039Y-9990307D02*
X8363515Y-9999831D01*
X8363515Y-9999831D02*
X8353991Y-9990307D01*
X8353991Y-9990307D02*
X8363515Y-9980783D01*
X8363515Y-9980783D02*
X8363515Y-9999831D01*
X8496848Y-9799831D02*
X8515896Y-9799831D01*
X8515896Y-9799831D02*
X8534944Y-9809355D01*
X8534944Y-9809355D02*
X8544468Y-9818879D01*
X8544468Y-9818879D02*
X8553991Y-9837926D01*
X8553991Y-9837926D02*
X8563515Y-9876021D01*
X8563515Y-9876021D02*
X8563515Y-9923640D01*
X8563515Y-9923640D02*
X8553991Y-9961736D01*
X8553991Y-9961736D02*
X8544468Y-9980783D01*
X8544468Y-9980783D02*
X8534944Y-9990307D01*
X8534944Y-9990307D02*
X8515896Y-9999831D01*
X8515896Y-9999831D02*
X8496848Y-9999831D01*
X8496848Y-9999831D02*
X8477801Y-9990307D01*
X8477801Y-9990307D02*
X8468277Y-9980783D01*
X8468277Y-9980783D02*
X8458753Y-9961736D01*
X8458753Y-9961736D02*
X8449229Y-9923640D01*
X8449229Y-9923640D02*
X8449229Y-9876021D01*
X8449229Y-9876021D02*
X8458753Y-9837926D01*
X8458753Y-9837926D02*
X8468277Y-9818879D01*
X8468277Y-9818879D02*
X8477801Y-9809355D01*
X8477801Y-9809355D02*
X8496848Y-9799831D01*
X8630182Y-9799831D02*
X8753991Y-9799831D01*
X8753991Y-9799831D02*
X8687325Y-9876021D01*
X8687325Y-9876021D02*
X8715896Y-9876021D01*
X8715896Y-9876021D02*
X8734944Y-9885545D01*
X8734944Y-9885545D02*
X8744468Y-9895069D01*
X8744468Y-9895069D02*
X8753991Y-9914117D01*
X8753991Y-9914117D02*
X8753991Y-9961736D01*
X8753991Y-9961736D02*
X8744468Y-9980783D01*
X8744468Y-9980783D02*
X8734944Y-9990307D01*
X8734944Y-9990307D02*
X8715896Y-9999831D01*
X8715896Y-9999831D02*
X8658753Y-9999831D01*
X8658753Y-9999831D02*
X8639706Y-9990307D01*
X8639706Y-9990307D02*
X8630182Y-9980783D01*
X8877801Y-9799831D02*
X8896849Y-9799831D01*
X8896849Y-9799831D02*
X8915896Y-9809355D01*
X8915896Y-9809355D02*
X8925420Y-9818879D01*
X8925420Y-9818879D02*
X8934944Y-9837926D01*
X8934944Y-9837926D02*
X8944468Y-9876021D01*
X8944468Y-9876021D02*
X8944468Y-9923640D01*
X8944468Y-9923640D02*
X8934944Y-9961736D01*
X8934944Y-9961736D02*
X8925420Y-9980783D01*
X8925420Y-9980783D02*
X8915896Y-9990307D01*
X8915896Y-9990307D02*
X8896849Y-9999831D01*
X8896849Y-9999831D02*
X8877801Y-9999831D01*
X8877801Y-9999831D02*
X8858753Y-9990307D01*
X8858753Y-9990307D02*
X8849229Y-9980783D01*
X8849229Y-9980783D02*
X8839706Y-9961736D01*
X8839706Y-9961736D02*
X8830182Y-9923640D01*
X8830182Y-9923640D02*
X8830182Y-9876021D01*
X8830182Y-9876021D02*
X8839706Y-9837926D01*
X8839706Y-9837926D02*
X8849229Y-9818879D01*
X8849229Y-9818879D02*
X8858753Y-9809355D01*
X8858753Y-9809355D02*
X8877801Y-9799831D01*
X9068277Y-9799831D02*
X9087325Y-9799831D01*
X9087325Y-9799831D02*
X9106372Y-9809355D01*
X9106372Y-9809355D02*
X9115896Y-9818879D01*
X9115896Y-9818879D02*
X9125420Y-9837926D01*
X9125420Y-9837926D02*
X9134944Y-9876021D01*
X9134944Y-9876021D02*
X9134944Y-9923640D01*
X9134944Y-9923640D02*
X9125420Y-9961736D01*
X9125420Y-9961736D02*
X9115896Y-9980783D01*
X9115896Y-9980783D02*
X9106372Y-9990307D01*
X9106372Y-9990307D02*
X9087325Y-9999831D01*
X9087325Y-9999831D02*
X9068277Y-9999831D01*
X9068277Y-9999831D02*
X9049229Y-9990307D01*
X9049229Y-9990307D02*
X9039706Y-9980783D01*
X9039706Y-9980783D02*
X9030182Y-9961736D01*
X9030182Y-9961736D02*
X9020658Y-9923640D01*
X9020658Y-9923640D02*
X9020658Y-9876021D01*
X9020658Y-9876021D02*
X9030182Y-9837926D01*
X9030182Y-9837926D02*
X9039706Y-9818879D01*
X9039706Y-9818879D02*
X9049229Y-9809355D01*
X9049229Y-9809355D02*
X9068277Y-9799831D01*
X9211134Y-9799831D02*
X9211134Y-9837926D01*
X9287325Y-9799831D02*
X9287325Y-9837926D01*
X9582563Y-10076021D02*
X9573039Y-10066498D01*
X9573039Y-10066498D02*
X9553991Y-10037926D01*
X9553991Y-10037926D02*
X9544468Y-10018879D01*
X9544468Y-10018879D02*
X9534944Y-9990307D01*
X9534944Y-9990307D02*
X9525420Y-9942688D01*
X9525420Y-9942688D02*
X9525420Y-9904593D01*
X9525420Y-9904593D02*
X9534944Y-9856974D01*
X9534944Y-9856974D02*
X9544468Y-9828402D01*
X9544468Y-9828402D02*
X9553991Y-9809355D01*
X9553991Y-9809355D02*
X9573039Y-9780783D01*
X9573039Y-9780783D02*
X9582563Y-9771259D01*
X9639706Y-9799831D02*
X9763515Y-9799831D01*
X9763515Y-9799831D02*
X9696849Y-9876021D01*
X9696849Y-9876021D02*
X9725420Y-9876021D01*
X9725420Y-9876021D02*
X9744468Y-9885545D01*
X9744468Y-9885545D02*
X9753991Y-9895069D01*
X9753991Y-9895069D02*
X9763515Y-9914117D01*
X9763515Y-9914117D02*
X9763515Y-9961736D01*
X9763515Y-9961736D02*
X9753991Y-9980783D01*
X9753991Y-9980783D02*
X9744468Y-9990307D01*
X9744468Y-9990307D02*
X9725420Y-9999831D01*
X9725420Y-9999831D02*
X9668277Y-9999831D01*
X9668277Y-9999831D02*
X9649230Y-9990307D01*
X9649230Y-9990307D02*
X9639706Y-9980783D01*
X9934944Y-9866498D02*
X9934944Y-9999831D01*
X9887325Y-9790307D02*
X9839706Y-9933164D01*
X9839706Y-9933164D02*
X9963515Y-9933164D01*
X10192087Y-9999831D02*
X10192087Y-9799831D01*
X10277801Y-9999831D02*
X10277801Y-9895069D01*
X10277801Y-9895069D02*
X10268277Y-9876021D01*
X10268277Y-9876021D02*
X10249230Y-9866498D01*
X10249230Y-9866498D02*
X10220658Y-9866498D01*
X10220658Y-9866498D02*
X10201611Y-9876021D01*
X10201611Y-9876021D02*
X10192087Y-9885545D01*
X10401611Y-9999831D02*
X10382563Y-9990307D01*
X10382563Y-9990307D02*
X10373039Y-9980783D01*
X10373039Y-9980783D02*
X10363515Y-9961736D01*
X10363515Y-9961736D02*
X10363515Y-9904593D01*
X10363515Y-9904593D02*
X10373039Y-9885545D01*
X10373039Y-9885545D02*
X10382563Y-9876021D01*
X10382563Y-9876021D02*
X10401611Y-9866498D01*
X10401611Y-9866498D02*
X10430182Y-9866498D01*
X10430182Y-9866498D02*
X10449230Y-9876021D01*
X10449230Y-9876021D02*
X10458753Y-9885545D01*
X10458753Y-9885545D02*
X10468277Y-9904593D01*
X10468277Y-9904593D02*
X10468277Y-9961736D01*
X10468277Y-9961736D02*
X10458753Y-9980783D01*
X10458753Y-9980783D02*
X10449230Y-9990307D01*
X10449230Y-9990307D02*
X10430182Y-9999831D01*
X10430182Y-9999831D02*
X10401611Y-9999831D01*
X10582563Y-9999831D02*
X10563515Y-9990307D01*
X10563515Y-9990307D02*
X10553992Y-9971259D01*
X10553992Y-9971259D02*
X10553992Y-9799831D01*
X10734944Y-9990307D02*
X10715896Y-9999831D01*
X10715896Y-9999831D02*
X10677801Y-9999831D01*
X10677801Y-9999831D02*
X10658753Y-9990307D01*
X10658753Y-9990307D02*
X10649230Y-9971259D01*
X10649230Y-9971259D02*
X10649230Y-9895069D01*
X10649230Y-9895069D02*
X10658753Y-9876021D01*
X10658753Y-9876021D02*
X10677801Y-9866498D01*
X10677801Y-9866498D02*
X10715896Y-9866498D01*
X10715896Y-9866498D02*
X10734944Y-9876021D01*
X10734944Y-9876021D02*
X10744468Y-9895069D01*
X10744468Y-9895069D02*
X10744468Y-9914117D01*
X10744468Y-9914117D02*
X10649230Y-9933164D01*
X10820658Y-9990307D02*
X10839706Y-9999831D01*
X10839706Y-9999831D02*
X10877801Y-9999831D01*
X10877801Y-9999831D02*
X10896849Y-9990307D01*
X10896849Y-9990307D02*
X10906373Y-9971259D01*
X10906373Y-9971259D02*
X10906373Y-9961736D01*
X10906373Y-9961736D02*
X10896849Y-9942688D01*
X10896849Y-9942688D02*
X10877801Y-9933164D01*
X10877801Y-9933164D02*
X10849230Y-9933164D01*
X10849230Y-9933164D02*
X10830182Y-9923640D01*
X10830182Y-9923640D02*
X10820658Y-9904593D01*
X10820658Y-9904593D02*
X10820658Y-9895069D01*
X10820658Y-9895069D02*
X10830182Y-9876021D01*
X10830182Y-9876021D02*
X10849230Y-9866498D01*
X10849230Y-9866498D02*
X10877801Y-9866498D01*
X10877801Y-9866498D02*
X10896849Y-9876021D01*
X10973039Y-10076021D02*
X10982563Y-10066498D01*
X10982563Y-10066498D02*
X11001611Y-10037926D01*
X11001611Y-10037926D02*
X11011134Y-10018879D01*
X11011134Y-10018879D02*
X11020658Y-9990307D01*
X11020658Y-9990307D02*
X11030182Y-9942688D01*
X11030182Y-9942688D02*
X11030182Y-9904593D01*
X11030182Y-9904593D02*
X11020658Y-9856974D01*
X11020658Y-9856974D02*
X11011134Y-9828402D01*
X11011134Y-9828402D02*
X11001611Y-9809355D01*
X11001611Y-9809355D02*
X10982563Y-9780783D01*
X10982563Y-9780783D02*
X10973039Y-9771259D01*
D12*
X5967500Y-10132347D02*
X5967500Y-10212347D01*
X5927500Y-10172347D02*
X6007500Y-10172347D01*
D11*
X6306372Y-10063831D02*
X6325420Y-10063831D01*
X6325420Y-10063831D02*
X6344467Y-10073355D01*
X6344467Y-10073355D02*
X6353991Y-10082879D01*
X6353991Y-10082879D02*
X6363515Y-10101926D01*
X6363515Y-10101926D02*
X6373039Y-10140021D01*
X6373039Y-10140021D02*
X6373039Y-10187640D01*
X6373039Y-10187640D02*
X6363515Y-10225736D01*
X6363515Y-10225736D02*
X6353991Y-10244783D01*
X6353991Y-10244783D02*
X6344467Y-10254307D01*
X6344467Y-10254307D02*
X6325420Y-10263831D01*
X6325420Y-10263831D02*
X6306372Y-10263831D01*
X6306372Y-10263831D02*
X6287324Y-10254307D01*
X6287324Y-10254307D02*
X6277801Y-10244783D01*
X6277801Y-10244783D02*
X6268277Y-10225736D01*
X6268277Y-10225736D02*
X6258753Y-10187640D01*
X6258753Y-10187640D02*
X6258753Y-10140021D01*
X6258753Y-10140021D02*
X6268277Y-10101926D01*
X6268277Y-10101926D02*
X6277801Y-10082879D01*
X6277801Y-10082879D02*
X6287324Y-10073355D01*
X6287324Y-10073355D02*
X6306372Y-10063831D01*
X6458753Y-10244783D02*
X6468277Y-10254307D01*
X6468277Y-10254307D02*
X6458753Y-10263831D01*
X6458753Y-10263831D02*
X6449229Y-10254307D01*
X6449229Y-10254307D02*
X6458753Y-10244783D01*
X6458753Y-10244783D02*
X6458753Y-10263831D01*
X6582562Y-10149545D02*
X6563515Y-10140021D01*
X6563515Y-10140021D02*
X6553991Y-10130498D01*
X6553991Y-10130498D02*
X6544467Y-10111450D01*
X6544467Y-10111450D02*
X6544467Y-10101926D01*
X6544467Y-10101926D02*
X6553991Y-10082879D01*
X6553991Y-10082879D02*
X6563515Y-10073355D01*
X6563515Y-10073355D02*
X6582562Y-10063831D01*
X6582562Y-10063831D02*
X6620658Y-10063831D01*
X6620658Y-10063831D02*
X6639705Y-10073355D01*
X6639705Y-10073355D02*
X6649229Y-10082879D01*
X6649229Y-10082879D02*
X6658753Y-10101926D01*
X6658753Y-10101926D02*
X6658753Y-10111450D01*
X6658753Y-10111450D02*
X6649229Y-10130498D01*
X6649229Y-10130498D02*
X6639705Y-10140021D01*
X6639705Y-10140021D02*
X6620658Y-10149545D01*
X6620658Y-10149545D02*
X6582562Y-10149545D01*
X6582562Y-10149545D02*
X6563515Y-10159069D01*
X6563515Y-10159069D02*
X6553991Y-10168593D01*
X6553991Y-10168593D02*
X6544467Y-10187640D01*
X6544467Y-10187640D02*
X6544467Y-10225736D01*
X6544467Y-10225736D02*
X6553991Y-10244783D01*
X6553991Y-10244783D02*
X6563515Y-10254307D01*
X6563515Y-10254307D02*
X6582562Y-10263831D01*
X6582562Y-10263831D02*
X6620658Y-10263831D01*
X6620658Y-10263831D02*
X6639705Y-10254307D01*
X6639705Y-10254307D02*
X6649229Y-10244783D01*
X6649229Y-10244783D02*
X6658753Y-10225736D01*
X6658753Y-10225736D02*
X6658753Y-10187640D01*
X6658753Y-10187640D02*
X6649229Y-10168593D01*
X6649229Y-10168593D02*
X6639705Y-10159069D01*
X6639705Y-10159069D02*
X6620658Y-10149545D01*
X6782562Y-10063831D02*
X6801610Y-10063831D01*
X6801610Y-10063831D02*
X6820658Y-10073355D01*
X6820658Y-10073355D02*
X6830182Y-10082879D01*
X6830182Y-10082879D02*
X6839705Y-10101926D01*
X6839705Y-10101926D02*
X6849229Y-10140021D01*
X6849229Y-10140021D02*
X6849229Y-10187640D01*
X6849229Y-10187640D02*
X6839705Y-10225736D01*
X6839705Y-10225736D02*
X6830182Y-10244783D01*
X6830182Y-10244783D02*
X6820658Y-10254307D01*
X6820658Y-10254307D02*
X6801610Y-10263831D01*
X6801610Y-10263831D02*
X6782562Y-10263831D01*
X6782562Y-10263831D02*
X6763515Y-10254307D01*
X6763515Y-10254307D02*
X6753991Y-10244783D01*
X6753991Y-10244783D02*
X6744467Y-10225736D01*
X6744467Y-10225736D02*
X6734943Y-10187640D01*
X6734943Y-10187640D02*
X6734943Y-10140021D01*
X6734943Y-10140021D02*
X6744467Y-10101926D01*
X6744467Y-10101926D02*
X6753991Y-10082879D01*
X6753991Y-10082879D02*
X6763515Y-10073355D01*
X6763515Y-10073355D02*
X6782562Y-10063831D01*
X6973039Y-10063831D02*
X6992086Y-10063831D01*
X6992086Y-10063831D02*
X7011134Y-10073355D01*
X7011134Y-10073355D02*
X7020658Y-10082879D01*
X7020658Y-10082879D02*
X7030182Y-10101926D01*
X7030182Y-10101926D02*
X7039705Y-10140021D01*
X7039705Y-10140021D02*
X7039705Y-10187640D01*
X7039705Y-10187640D02*
X7030182Y-10225736D01*
X7030182Y-10225736D02*
X7020658Y-10244783D01*
X7020658Y-10244783D02*
X7011134Y-10254307D01*
X7011134Y-10254307D02*
X6992086Y-10263831D01*
X6992086Y-10263831D02*
X6973039Y-10263831D01*
X6973039Y-10263831D02*
X6953991Y-10254307D01*
X6953991Y-10254307D02*
X6944467Y-10244783D01*
X6944467Y-10244783D02*
X6934943Y-10225736D01*
X6934943Y-10225736D02*
X6925420Y-10187640D01*
X6925420Y-10187640D02*
X6925420Y-10140021D01*
X6925420Y-10140021D02*
X6934943Y-10101926D01*
X6934943Y-10101926D02*
X6944467Y-10082879D01*
X6944467Y-10082879D02*
X6953991Y-10073355D01*
X6953991Y-10073355D02*
X6973039Y-10063831D01*
X7125420Y-10263831D02*
X7125420Y-10130498D01*
X7125420Y-10149545D02*
X7134943Y-10140021D01*
X7134943Y-10140021D02*
X7153991Y-10130498D01*
X7153991Y-10130498D02*
X7182563Y-10130498D01*
X7182563Y-10130498D02*
X7201610Y-10140021D01*
X7201610Y-10140021D02*
X7211134Y-10159069D01*
X7211134Y-10159069D02*
X7211134Y-10263831D01*
X7211134Y-10159069D02*
X7220658Y-10140021D01*
X7220658Y-10140021D02*
X7239705Y-10130498D01*
X7239705Y-10130498D02*
X7268277Y-10130498D01*
X7268277Y-10130498D02*
X7287324Y-10140021D01*
X7287324Y-10140021D02*
X7296848Y-10159069D01*
X7296848Y-10159069D02*
X7296848Y-10263831D01*
X7392086Y-10263831D02*
X7392086Y-10130498D01*
X7392086Y-10149545D02*
X7401610Y-10140021D01*
X7401610Y-10140021D02*
X7420658Y-10130498D01*
X7420658Y-10130498D02*
X7449229Y-10130498D01*
X7449229Y-10130498D02*
X7468277Y-10140021D01*
X7468277Y-10140021D02*
X7477801Y-10159069D01*
X7477801Y-10159069D02*
X7477801Y-10263831D01*
X7477801Y-10159069D02*
X7487324Y-10140021D01*
X7487324Y-10140021D02*
X7506372Y-10130498D01*
X7506372Y-10130498D02*
X7534943Y-10130498D01*
X7534943Y-10130498D02*
X7553991Y-10140021D01*
X7553991Y-10140021D02*
X7563515Y-10159069D01*
X7563515Y-10159069D02*
X7563515Y-10263831D01*
X7953991Y-10054307D02*
X7782563Y-10311450D01*
X8211134Y-10063831D02*
X8230182Y-10063831D01*
X8230182Y-10063831D02*
X8249229Y-10073355D01*
X8249229Y-10073355D02*
X8258753Y-10082879D01*
X8258753Y-10082879D02*
X8268277Y-10101926D01*
X8268277Y-10101926D02*
X8277801Y-10140021D01*
X8277801Y-10140021D02*
X8277801Y-10187640D01*
X8277801Y-10187640D02*
X8268277Y-10225736D01*
X8268277Y-10225736D02*
X8258753Y-10244783D01*
X8258753Y-10244783D02*
X8249229Y-10254307D01*
X8249229Y-10254307D02*
X8230182Y-10263831D01*
X8230182Y-10263831D02*
X8211134Y-10263831D01*
X8211134Y-10263831D02*
X8192086Y-10254307D01*
X8192086Y-10254307D02*
X8182563Y-10244783D01*
X8182563Y-10244783D02*
X8173039Y-10225736D01*
X8173039Y-10225736D02*
X8163515Y-10187640D01*
X8163515Y-10187640D02*
X8163515Y-10140021D01*
X8163515Y-10140021D02*
X8173039Y-10101926D01*
X8173039Y-10101926D02*
X8182563Y-10082879D01*
X8182563Y-10082879D02*
X8192086Y-10073355D01*
X8192086Y-10073355D02*
X8211134Y-10063831D01*
X8363515Y-10244783D02*
X8373039Y-10254307D01*
X8373039Y-10254307D02*
X8363515Y-10263831D01*
X8363515Y-10263831D02*
X8353991Y-10254307D01*
X8353991Y-10254307D02*
X8363515Y-10244783D01*
X8363515Y-10244783D02*
X8363515Y-10263831D01*
X8496848Y-10063831D02*
X8515896Y-10063831D01*
X8515896Y-10063831D02*
X8534944Y-10073355D01*
X8534944Y-10073355D02*
X8544468Y-10082879D01*
X8544468Y-10082879D02*
X8553991Y-10101926D01*
X8553991Y-10101926D02*
X8563515Y-10140021D01*
X8563515Y-10140021D02*
X8563515Y-10187640D01*
X8563515Y-10187640D02*
X8553991Y-10225736D01*
X8553991Y-10225736D02*
X8544468Y-10244783D01*
X8544468Y-10244783D02*
X8534944Y-10254307D01*
X8534944Y-10254307D02*
X8515896Y-10263831D01*
X8515896Y-10263831D02*
X8496848Y-10263831D01*
X8496848Y-10263831D02*
X8477801Y-10254307D01*
X8477801Y-10254307D02*
X8468277Y-10244783D01*
X8468277Y-10244783D02*
X8458753Y-10225736D01*
X8458753Y-10225736D02*
X8449229Y-10187640D01*
X8449229Y-10187640D02*
X8449229Y-10140021D01*
X8449229Y-10140021D02*
X8458753Y-10101926D01*
X8458753Y-10101926D02*
X8468277Y-10082879D01*
X8468277Y-10082879D02*
X8477801Y-10073355D01*
X8477801Y-10073355D02*
X8496848Y-10063831D01*
X8630182Y-10063831D02*
X8753991Y-10063831D01*
X8753991Y-10063831D02*
X8687325Y-10140021D01*
X8687325Y-10140021D02*
X8715896Y-10140021D01*
X8715896Y-10140021D02*
X8734944Y-10149545D01*
X8734944Y-10149545D02*
X8744468Y-10159069D01*
X8744468Y-10159069D02*
X8753991Y-10178117D01*
X8753991Y-10178117D02*
X8753991Y-10225736D01*
X8753991Y-10225736D02*
X8744468Y-10244783D01*
X8744468Y-10244783D02*
X8734944Y-10254307D01*
X8734944Y-10254307D02*
X8715896Y-10263831D01*
X8715896Y-10263831D02*
X8658753Y-10263831D01*
X8658753Y-10263831D02*
X8639706Y-10254307D01*
X8639706Y-10254307D02*
X8630182Y-10244783D01*
X8944468Y-10263831D02*
X8830182Y-10263831D01*
X8887325Y-10263831D02*
X8887325Y-10063831D01*
X8887325Y-10063831D02*
X8868277Y-10092402D01*
X8868277Y-10092402D02*
X8849229Y-10111450D01*
X8849229Y-10111450D02*
X8830182Y-10120974D01*
X9125420Y-10063831D02*
X9030182Y-10063831D01*
X9030182Y-10063831D02*
X9020658Y-10159069D01*
X9020658Y-10159069D02*
X9030182Y-10149545D01*
X9030182Y-10149545D02*
X9049229Y-10140021D01*
X9049229Y-10140021D02*
X9096849Y-10140021D01*
X9096849Y-10140021D02*
X9115896Y-10149545D01*
X9115896Y-10149545D02*
X9125420Y-10159069D01*
X9125420Y-10159069D02*
X9134944Y-10178117D01*
X9134944Y-10178117D02*
X9134944Y-10225736D01*
X9134944Y-10225736D02*
X9125420Y-10244783D01*
X9125420Y-10244783D02*
X9115896Y-10254307D01*
X9115896Y-10254307D02*
X9096849Y-10263831D01*
X9096849Y-10263831D02*
X9049229Y-10263831D01*
X9049229Y-10263831D02*
X9030182Y-10254307D01*
X9030182Y-10254307D02*
X9020658Y-10244783D01*
X9211134Y-10063831D02*
X9211134Y-10101926D01*
X9287325Y-10063831D02*
X9287325Y-10101926D01*
X9582563Y-10340021D02*
X9573039Y-10330498D01*
X9573039Y-10330498D02*
X9553991Y-10301926D01*
X9553991Y-10301926D02*
X9544468Y-10282879D01*
X9544468Y-10282879D02*
X9534944Y-10254307D01*
X9534944Y-10254307D02*
X9525420Y-10206688D01*
X9525420Y-10206688D02*
X9525420Y-10168593D01*
X9525420Y-10168593D02*
X9534944Y-10120974D01*
X9534944Y-10120974D02*
X9544468Y-10092402D01*
X9544468Y-10092402D02*
X9553991Y-10073355D01*
X9553991Y-10073355D02*
X9573039Y-10044783D01*
X9573039Y-10044783D02*
X9582563Y-10035259D01*
X9687325Y-10149545D02*
X9668277Y-10140021D01*
X9668277Y-10140021D02*
X9658753Y-10130498D01*
X9658753Y-10130498D02*
X9649230Y-10111450D01*
X9649230Y-10111450D02*
X9649230Y-10101926D01*
X9649230Y-10101926D02*
X9658753Y-10082879D01*
X9658753Y-10082879D02*
X9668277Y-10073355D01*
X9668277Y-10073355D02*
X9687325Y-10063831D01*
X9687325Y-10063831D02*
X9725420Y-10063831D01*
X9725420Y-10063831D02*
X9744468Y-10073355D01*
X9744468Y-10073355D02*
X9753991Y-10082879D01*
X9753991Y-10082879D02*
X9763515Y-10101926D01*
X9763515Y-10101926D02*
X9763515Y-10111450D01*
X9763515Y-10111450D02*
X9753991Y-10130498D01*
X9753991Y-10130498D02*
X9744468Y-10140021D01*
X9744468Y-10140021D02*
X9725420Y-10149545D01*
X9725420Y-10149545D02*
X9687325Y-10149545D01*
X9687325Y-10149545D02*
X9668277Y-10159069D01*
X9668277Y-10159069D02*
X9658753Y-10168593D01*
X9658753Y-10168593D02*
X9649230Y-10187640D01*
X9649230Y-10187640D02*
X9649230Y-10225736D01*
X9649230Y-10225736D02*
X9658753Y-10244783D01*
X9658753Y-10244783D02*
X9668277Y-10254307D01*
X9668277Y-10254307D02*
X9687325Y-10263831D01*
X9687325Y-10263831D02*
X9725420Y-10263831D01*
X9725420Y-10263831D02*
X9744468Y-10254307D01*
X9744468Y-10254307D02*
X9753991Y-10244783D01*
X9753991Y-10244783D02*
X9763515Y-10225736D01*
X9763515Y-10225736D02*
X9763515Y-10187640D01*
X9763515Y-10187640D02*
X9753991Y-10168593D01*
X9753991Y-10168593D02*
X9744468Y-10159069D01*
X9744468Y-10159069D02*
X9725420Y-10149545D01*
X10001611Y-10263831D02*
X10001611Y-10063831D01*
X10087325Y-10263831D02*
X10087325Y-10159069D01*
X10087325Y-10159069D02*
X10077801Y-10140021D01*
X10077801Y-10140021D02*
X10058753Y-10130498D01*
X10058753Y-10130498D02*
X10030182Y-10130498D01*
X10030182Y-10130498D02*
X10011134Y-10140021D01*
X10011134Y-10140021D02*
X10001611Y-10149545D01*
X10211134Y-10263831D02*
X10192087Y-10254307D01*
X10192087Y-10254307D02*
X10182563Y-10244783D01*
X10182563Y-10244783D02*
X10173039Y-10225736D01*
X10173039Y-10225736D02*
X10173039Y-10168593D01*
X10173039Y-10168593D02*
X10182563Y-10149545D01*
X10182563Y-10149545D02*
X10192087Y-10140021D01*
X10192087Y-10140021D02*
X10211134Y-10130498D01*
X10211134Y-10130498D02*
X10239706Y-10130498D01*
X10239706Y-10130498D02*
X10258753Y-10140021D01*
X10258753Y-10140021D02*
X10268277Y-10149545D01*
X10268277Y-10149545D02*
X10277801Y-10168593D01*
X10277801Y-10168593D02*
X10277801Y-10225736D01*
X10277801Y-10225736D02*
X10268277Y-10244783D01*
X10268277Y-10244783D02*
X10258753Y-10254307D01*
X10258753Y-10254307D02*
X10239706Y-10263831D01*
X10239706Y-10263831D02*
X10211134Y-10263831D01*
X10392087Y-10263831D02*
X10373039Y-10254307D01*
X10373039Y-10254307D02*
X10363515Y-10235259D01*
X10363515Y-10235259D02*
X10363515Y-10063831D01*
X10544468Y-10254307D02*
X10525420Y-10263831D01*
X10525420Y-10263831D02*
X10487325Y-10263831D01*
X10487325Y-10263831D02*
X10468277Y-10254307D01*
X10468277Y-10254307D02*
X10458753Y-10235259D01*
X10458753Y-10235259D02*
X10458753Y-10159069D01*
X10458753Y-10159069D02*
X10468277Y-10140021D01*
X10468277Y-10140021D02*
X10487325Y-10130498D01*
X10487325Y-10130498D02*
X10525420Y-10130498D01*
X10525420Y-10130498D02*
X10544468Y-10140021D01*
X10544468Y-10140021D02*
X10553992Y-10159069D01*
X10553992Y-10159069D02*
X10553992Y-10178117D01*
X10553992Y-10178117D02*
X10458753Y-10197164D01*
X10630182Y-10254307D02*
X10649230Y-10263831D01*
X10649230Y-10263831D02*
X10687325Y-10263831D01*
X10687325Y-10263831D02*
X10706373Y-10254307D01*
X10706373Y-10254307D02*
X10715896Y-10235259D01*
X10715896Y-10235259D02*
X10715896Y-10225736D01*
X10715896Y-10225736D02*
X10706373Y-10206688D01*
X10706373Y-10206688D02*
X10687325Y-10197164D01*
X10687325Y-10197164D02*
X10658753Y-10197164D01*
X10658753Y-10197164D02*
X10639706Y-10187640D01*
X10639706Y-10187640D02*
X10630182Y-10168593D01*
X10630182Y-10168593D02*
X10630182Y-10159069D01*
X10630182Y-10159069D02*
X10639706Y-10140021D01*
X10639706Y-10140021D02*
X10658753Y-10130498D01*
X10658753Y-10130498D02*
X10687325Y-10130498D01*
X10687325Y-10130498D02*
X10706373Y-10140021D01*
X10782563Y-10340021D02*
X10792087Y-10330498D01*
X10792087Y-10330498D02*
X10811134Y-10301926D01*
X10811134Y-10301926D02*
X10820658Y-10282879D01*
X10820658Y-10282879D02*
X10830182Y-10254307D01*
X10830182Y-10254307D02*
X10839706Y-10206688D01*
X10839706Y-10206688D02*
X10839706Y-10168593D01*
X10839706Y-10168593D02*
X10830182Y-10120974D01*
X10830182Y-10120974D02*
X10820658Y-10092402D01*
X10820658Y-10092402D02*
X10811134Y-10073355D01*
X10811134Y-10073355D02*
X10792087Y-10044783D01*
X10792087Y-10044783D02*
X10782563Y-10035259D01*
D13*
X5991391Y-10475238D02*
X5991391Y-10397456D01*
X5913609Y-10397456D01*
X5913609Y-10475238D01*
X5991391Y-10475238D01*
D11*
X6373039Y-10527831D02*
X6258753Y-10527831D01*
X6315896Y-10527831D02*
X6315896Y-10327831D01*
X6315896Y-10327831D02*
X6296848Y-10356402D01*
X6296848Y-10356402D02*
X6277801Y-10375450D01*
X6277801Y-10375450D02*
X6258753Y-10384974D01*
X6458753Y-10508783D02*
X6468277Y-10518307D01*
X6468277Y-10518307D02*
X6458753Y-10527831D01*
X6458753Y-10527831D02*
X6449229Y-10518307D01*
X6449229Y-10518307D02*
X6458753Y-10508783D01*
X6458753Y-10508783D02*
X6458753Y-10527831D01*
X6658753Y-10527831D02*
X6544467Y-10527831D01*
X6601610Y-10527831D02*
X6601610Y-10327831D01*
X6601610Y-10327831D02*
X6582562Y-10356402D01*
X6582562Y-10356402D02*
X6563515Y-10375450D01*
X6563515Y-10375450D02*
X6544467Y-10384974D01*
X6782562Y-10327831D02*
X6801610Y-10327831D01*
X6801610Y-10327831D02*
X6820658Y-10337355D01*
X6820658Y-10337355D02*
X6830182Y-10346879D01*
X6830182Y-10346879D02*
X6839705Y-10365926D01*
X6839705Y-10365926D02*
X6849229Y-10404021D01*
X6849229Y-10404021D02*
X6849229Y-10451640D01*
X6849229Y-10451640D02*
X6839705Y-10489736D01*
X6839705Y-10489736D02*
X6830182Y-10508783D01*
X6830182Y-10508783D02*
X6820658Y-10518307D01*
X6820658Y-10518307D02*
X6801610Y-10527831D01*
X6801610Y-10527831D02*
X6782562Y-10527831D01*
X6782562Y-10527831D02*
X6763515Y-10518307D01*
X6763515Y-10518307D02*
X6753991Y-10508783D01*
X6753991Y-10508783D02*
X6744467Y-10489736D01*
X6744467Y-10489736D02*
X6734943Y-10451640D01*
X6734943Y-10451640D02*
X6734943Y-10404021D01*
X6734943Y-10404021D02*
X6744467Y-10365926D01*
X6744467Y-10365926D02*
X6753991Y-10346879D01*
X6753991Y-10346879D02*
X6763515Y-10337355D01*
X6763515Y-10337355D02*
X6782562Y-10327831D01*
X6973039Y-10327831D02*
X6992086Y-10327831D01*
X6992086Y-10327831D02*
X7011134Y-10337355D01*
X7011134Y-10337355D02*
X7020658Y-10346879D01*
X7020658Y-10346879D02*
X7030182Y-10365926D01*
X7030182Y-10365926D02*
X7039705Y-10404021D01*
X7039705Y-10404021D02*
X7039705Y-10451640D01*
X7039705Y-10451640D02*
X7030182Y-10489736D01*
X7030182Y-10489736D02*
X7020658Y-10508783D01*
X7020658Y-10508783D02*
X7011134Y-10518307D01*
X7011134Y-10518307D02*
X6992086Y-10527831D01*
X6992086Y-10527831D02*
X6973039Y-10527831D01*
X6973039Y-10527831D02*
X6953991Y-10518307D01*
X6953991Y-10518307D02*
X6944467Y-10508783D01*
X6944467Y-10508783D02*
X6934943Y-10489736D01*
X6934943Y-10489736D02*
X6925420Y-10451640D01*
X6925420Y-10451640D02*
X6925420Y-10404021D01*
X6925420Y-10404021D02*
X6934943Y-10365926D01*
X6934943Y-10365926D02*
X6944467Y-10346879D01*
X6944467Y-10346879D02*
X6953991Y-10337355D01*
X6953991Y-10337355D02*
X6973039Y-10327831D01*
X7125420Y-10527831D02*
X7125420Y-10394498D01*
X7125420Y-10413545D02*
X7134943Y-10404021D01*
X7134943Y-10404021D02*
X7153991Y-10394498D01*
X7153991Y-10394498D02*
X7182563Y-10394498D01*
X7182563Y-10394498D02*
X7201610Y-10404021D01*
X7201610Y-10404021D02*
X7211134Y-10423069D01*
X7211134Y-10423069D02*
X7211134Y-10527831D01*
X7211134Y-10423069D02*
X7220658Y-10404021D01*
X7220658Y-10404021D02*
X7239705Y-10394498D01*
X7239705Y-10394498D02*
X7268277Y-10394498D01*
X7268277Y-10394498D02*
X7287324Y-10404021D01*
X7287324Y-10404021D02*
X7296848Y-10423069D01*
X7296848Y-10423069D02*
X7296848Y-10527831D01*
X7392086Y-10527831D02*
X7392086Y-10394498D01*
X7392086Y-10413545D02*
X7401610Y-10404021D01*
X7401610Y-10404021D02*
X7420658Y-10394498D01*
X7420658Y-10394498D02*
X7449229Y-10394498D01*
X7449229Y-10394498D02*
X7468277Y-10404021D01*
X7468277Y-10404021D02*
X7477801Y-10423069D01*
X7477801Y-10423069D02*
X7477801Y-10527831D01*
X7477801Y-10423069D02*
X7487324Y-10404021D01*
X7487324Y-10404021D02*
X7506372Y-10394498D01*
X7506372Y-10394498D02*
X7534943Y-10394498D01*
X7534943Y-10394498D02*
X7553991Y-10404021D01*
X7553991Y-10404021D02*
X7563515Y-10423069D01*
X7563515Y-10423069D02*
X7563515Y-10527831D01*
X7953991Y-10318307D02*
X7782563Y-10575450D01*
X8211134Y-10327831D02*
X8230182Y-10327831D01*
X8230182Y-10327831D02*
X8249229Y-10337355D01*
X8249229Y-10337355D02*
X8258753Y-10346879D01*
X8258753Y-10346879D02*
X8268277Y-10365926D01*
X8268277Y-10365926D02*
X8277801Y-10404021D01*
X8277801Y-10404021D02*
X8277801Y-10451640D01*
X8277801Y-10451640D02*
X8268277Y-10489736D01*
X8268277Y-10489736D02*
X8258753Y-10508783D01*
X8258753Y-10508783D02*
X8249229Y-10518307D01*
X8249229Y-10518307D02*
X8230182Y-10527831D01*
X8230182Y-10527831D02*
X8211134Y-10527831D01*
X8211134Y-10527831D02*
X8192086Y-10518307D01*
X8192086Y-10518307D02*
X8182563Y-10508783D01*
X8182563Y-10508783D02*
X8173039Y-10489736D01*
X8173039Y-10489736D02*
X8163515Y-10451640D01*
X8163515Y-10451640D02*
X8163515Y-10404021D01*
X8163515Y-10404021D02*
X8173039Y-10365926D01*
X8173039Y-10365926D02*
X8182563Y-10346879D01*
X8182563Y-10346879D02*
X8192086Y-10337355D01*
X8192086Y-10337355D02*
X8211134Y-10327831D01*
X8363515Y-10508783D02*
X8373039Y-10518307D01*
X8373039Y-10518307D02*
X8363515Y-10527831D01*
X8363515Y-10527831D02*
X8353991Y-10518307D01*
X8353991Y-10518307D02*
X8363515Y-10508783D01*
X8363515Y-10508783D02*
X8363515Y-10527831D01*
X8496848Y-10327831D02*
X8515896Y-10327831D01*
X8515896Y-10327831D02*
X8534944Y-10337355D01*
X8534944Y-10337355D02*
X8544468Y-10346879D01*
X8544468Y-10346879D02*
X8553991Y-10365926D01*
X8553991Y-10365926D02*
X8563515Y-10404021D01*
X8563515Y-10404021D02*
X8563515Y-10451640D01*
X8563515Y-10451640D02*
X8553991Y-10489736D01*
X8553991Y-10489736D02*
X8544468Y-10508783D01*
X8544468Y-10508783D02*
X8534944Y-10518307D01*
X8534944Y-10518307D02*
X8515896Y-10527831D01*
X8515896Y-10527831D02*
X8496848Y-10527831D01*
X8496848Y-10527831D02*
X8477801Y-10518307D01*
X8477801Y-10518307D02*
X8468277Y-10508783D01*
X8468277Y-10508783D02*
X8458753Y-10489736D01*
X8458753Y-10489736D02*
X8449229Y-10451640D01*
X8449229Y-10451640D02*
X8449229Y-10404021D01*
X8449229Y-10404021D02*
X8458753Y-10365926D01*
X8458753Y-10365926D02*
X8468277Y-10346879D01*
X8468277Y-10346879D02*
X8477801Y-10337355D01*
X8477801Y-10337355D02*
X8496848Y-10327831D01*
X8734944Y-10394498D02*
X8734944Y-10527831D01*
X8687325Y-10318307D02*
X8639706Y-10461164D01*
X8639706Y-10461164D02*
X8763515Y-10461164D01*
X8820658Y-10327831D02*
X8944468Y-10327831D01*
X8944468Y-10327831D02*
X8877801Y-10404021D01*
X8877801Y-10404021D02*
X8906372Y-10404021D01*
X8906372Y-10404021D02*
X8925420Y-10413545D01*
X8925420Y-10413545D02*
X8934944Y-10423069D01*
X8934944Y-10423069D02*
X8944468Y-10442117D01*
X8944468Y-10442117D02*
X8944468Y-10489736D01*
X8944468Y-10489736D02*
X8934944Y-10508783D01*
X8934944Y-10508783D02*
X8925420Y-10518307D01*
X8925420Y-10518307D02*
X8906372Y-10527831D01*
X8906372Y-10527831D02*
X8849229Y-10527831D01*
X8849229Y-10527831D02*
X8830182Y-10518307D01*
X8830182Y-10518307D02*
X8820658Y-10508783D01*
X9011134Y-10327831D02*
X9134944Y-10327831D01*
X9134944Y-10327831D02*
X9068277Y-10404021D01*
X9068277Y-10404021D02*
X9096849Y-10404021D01*
X9096849Y-10404021D02*
X9115896Y-10413545D01*
X9115896Y-10413545D02*
X9125420Y-10423069D01*
X9125420Y-10423069D02*
X9134944Y-10442117D01*
X9134944Y-10442117D02*
X9134944Y-10489736D01*
X9134944Y-10489736D02*
X9125420Y-10508783D01*
X9125420Y-10508783D02*
X9115896Y-10518307D01*
X9115896Y-10518307D02*
X9096849Y-10527831D01*
X9096849Y-10527831D02*
X9039706Y-10527831D01*
X9039706Y-10527831D02*
X9020658Y-10518307D01*
X9020658Y-10518307D02*
X9011134Y-10508783D01*
X9211134Y-10327831D02*
X9211134Y-10365926D01*
X9287325Y-10327831D02*
X9287325Y-10365926D01*
X9582563Y-10604021D02*
X9573039Y-10594498D01*
X9573039Y-10594498D02*
X9553991Y-10565926D01*
X9553991Y-10565926D02*
X9544468Y-10546879D01*
X9544468Y-10546879D02*
X9534944Y-10518307D01*
X9534944Y-10518307D02*
X9525420Y-10470688D01*
X9525420Y-10470688D02*
X9525420Y-10432593D01*
X9525420Y-10432593D02*
X9534944Y-10384974D01*
X9534944Y-10384974D02*
X9544468Y-10356402D01*
X9544468Y-10356402D02*
X9553991Y-10337355D01*
X9553991Y-10337355D02*
X9573039Y-10308783D01*
X9573039Y-10308783D02*
X9582563Y-10299259D01*
X9753991Y-10327831D02*
X9658753Y-10327831D01*
X9658753Y-10327831D02*
X9649230Y-10423069D01*
X9649230Y-10423069D02*
X9658753Y-10413545D01*
X9658753Y-10413545D02*
X9677801Y-10404021D01*
X9677801Y-10404021D02*
X9725420Y-10404021D01*
X9725420Y-10404021D02*
X9744468Y-10413545D01*
X9744468Y-10413545D02*
X9753991Y-10423069D01*
X9753991Y-10423069D02*
X9763515Y-10442117D01*
X9763515Y-10442117D02*
X9763515Y-10489736D01*
X9763515Y-10489736D02*
X9753991Y-10508783D01*
X9753991Y-10508783D02*
X9744468Y-10518307D01*
X9744468Y-10518307D02*
X9725420Y-10527831D01*
X9725420Y-10527831D02*
X9677801Y-10527831D01*
X9677801Y-10527831D02*
X9658753Y-10518307D01*
X9658753Y-10518307D02*
X9649230Y-10508783D01*
X9858753Y-10527831D02*
X9896849Y-10527831D01*
X9896849Y-10527831D02*
X9915896Y-10518307D01*
X9915896Y-10518307D02*
X9925420Y-10508783D01*
X9925420Y-10508783D02*
X9944468Y-10480212D01*
X9944468Y-10480212D02*
X9953991Y-10442117D01*
X9953991Y-10442117D02*
X9953991Y-10365926D01*
X9953991Y-10365926D02*
X9944468Y-10346879D01*
X9944468Y-10346879D02*
X9934944Y-10337355D01*
X9934944Y-10337355D02*
X9915896Y-10327831D01*
X9915896Y-10327831D02*
X9877801Y-10327831D01*
X9877801Y-10327831D02*
X9858753Y-10337355D01*
X9858753Y-10337355D02*
X9849230Y-10346879D01*
X9849230Y-10346879D02*
X9839706Y-10365926D01*
X9839706Y-10365926D02*
X9839706Y-10413545D01*
X9839706Y-10413545D02*
X9849230Y-10432593D01*
X9849230Y-10432593D02*
X9858753Y-10442117D01*
X9858753Y-10442117D02*
X9877801Y-10451640D01*
X9877801Y-10451640D02*
X9915896Y-10451640D01*
X9915896Y-10451640D02*
X9934944Y-10442117D01*
X9934944Y-10442117D02*
X9944468Y-10432593D01*
X9944468Y-10432593D02*
X9953991Y-10413545D01*
X10192087Y-10527831D02*
X10192087Y-10327831D01*
X10277801Y-10527831D02*
X10277801Y-10423069D01*
X10277801Y-10423069D02*
X10268277Y-10404021D01*
X10268277Y-10404021D02*
X10249230Y-10394498D01*
X10249230Y-10394498D02*
X10220658Y-10394498D01*
X10220658Y-10394498D02*
X10201611Y-10404021D01*
X10201611Y-10404021D02*
X10192087Y-10413545D01*
X10401611Y-10527831D02*
X10382563Y-10518307D01*
X10382563Y-10518307D02*
X10373039Y-10508783D01*
X10373039Y-10508783D02*
X10363515Y-10489736D01*
X10363515Y-10489736D02*
X10363515Y-10432593D01*
X10363515Y-10432593D02*
X10373039Y-10413545D01*
X10373039Y-10413545D02*
X10382563Y-10404021D01*
X10382563Y-10404021D02*
X10401611Y-10394498D01*
X10401611Y-10394498D02*
X10430182Y-10394498D01*
X10430182Y-10394498D02*
X10449230Y-10404021D01*
X10449230Y-10404021D02*
X10458753Y-10413545D01*
X10458753Y-10413545D02*
X10468277Y-10432593D01*
X10468277Y-10432593D02*
X10468277Y-10489736D01*
X10468277Y-10489736D02*
X10458753Y-10508783D01*
X10458753Y-10508783D02*
X10449230Y-10518307D01*
X10449230Y-10518307D02*
X10430182Y-10527831D01*
X10430182Y-10527831D02*
X10401611Y-10527831D01*
X10582563Y-10527831D02*
X10563515Y-10518307D01*
X10563515Y-10518307D02*
X10553992Y-10499259D01*
X10553992Y-10499259D02*
X10553992Y-10327831D01*
X10734944Y-10518307D02*
X10715896Y-10527831D01*
X10715896Y-10527831D02*
X10677801Y-10527831D01*
X10677801Y-10527831D02*
X10658753Y-10518307D01*
X10658753Y-10518307D02*
X10649230Y-10499259D01*
X10649230Y-10499259D02*
X10649230Y-10423069D01*
X10649230Y-10423069D02*
X10658753Y-10404021D01*
X10658753Y-10404021D02*
X10677801Y-10394498D01*
X10677801Y-10394498D02*
X10715896Y-10394498D01*
X10715896Y-10394498D02*
X10734944Y-10404021D01*
X10734944Y-10404021D02*
X10744468Y-10423069D01*
X10744468Y-10423069D02*
X10744468Y-10442117D01*
X10744468Y-10442117D02*
X10649230Y-10461164D01*
X10820658Y-10518307D02*
X10839706Y-10527831D01*
X10839706Y-10527831D02*
X10877801Y-10527831D01*
X10877801Y-10527831D02*
X10896849Y-10518307D01*
X10896849Y-10518307D02*
X10906373Y-10499259D01*
X10906373Y-10499259D02*
X10906373Y-10489736D01*
X10906373Y-10489736D02*
X10896849Y-10470688D01*
X10896849Y-10470688D02*
X10877801Y-10461164D01*
X10877801Y-10461164D02*
X10849230Y-10461164D01*
X10849230Y-10461164D02*
X10830182Y-10451640D01*
X10830182Y-10451640D02*
X10820658Y-10432593D01*
X10820658Y-10432593D02*
X10820658Y-10423069D01*
X10820658Y-10423069D02*
X10830182Y-10404021D01*
X10830182Y-10404021D02*
X10849230Y-10394498D01*
X10849230Y-10394498D02*
X10877801Y-10394498D01*
X10877801Y-10394498D02*
X10896849Y-10404021D01*
X10973039Y-10604021D02*
X10982563Y-10594498D01*
X10982563Y-10594498D02*
X11001611Y-10565926D01*
X11001611Y-10565926D02*
X11011134Y-10546879D01*
X11011134Y-10546879D02*
X11020658Y-10518307D01*
X11020658Y-10518307D02*
X11030182Y-10470688D01*
X11030182Y-10470688D02*
X11030182Y-10432593D01*
X11030182Y-10432593D02*
X11020658Y-10384974D01*
X11020658Y-10384974D02*
X11011134Y-10356402D01*
X11011134Y-10356402D02*
X11001611Y-10337355D01*
X11001611Y-10337355D02*
X10982563Y-10308783D01*
X10982563Y-10308783D02*
X10973039Y-10299259D01*
D14*
X5950350Y-10757497D02*
X6007500Y-10700347D01*
X5950350Y-10643197D01*
X5893200Y-10700347D01*
X5950350Y-10757497D01*
D11*
X6373039Y-10791831D02*
X6258753Y-10791831D01*
X6315896Y-10791831D02*
X6315896Y-10591831D01*
X6315896Y-10591831D02*
X6296848Y-10620402D01*
X6296848Y-10620402D02*
X6277801Y-10639450D01*
X6277801Y-10639450D02*
X6258753Y-10648974D01*
X6458753Y-10772783D02*
X6468277Y-10782307D01*
X6468277Y-10782307D02*
X6458753Y-10791831D01*
X6458753Y-10791831D02*
X6449229Y-10782307D01*
X6449229Y-10782307D02*
X6458753Y-10772783D01*
X6458753Y-10772783D02*
X6458753Y-10791831D01*
X6658753Y-10791831D02*
X6544467Y-10791831D01*
X6601610Y-10791831D02*
X6601610Y-10591831D01*
X6601610Y-10591831D02*
X6582562Y-10620402D01*
X6582562Y-10620402D02*
X6563515Y-10639450D01*
X6563515Y-10639450D02*
X6544467Y-10648974D01*
X6830182Y-10658498D02*
X6830182Y-10791831D01*
X6782562Y-10582307D02*
X6734943Y-10725164D01*
X6734943Y-10725164D02*
X6858753Y-10725164D01*
X6915896Y-10591831D02*
X7039705Y-10591831D01*
X7039705Y-10591831D02*
X6973039Y-10668021D01*
X6973039Y-10668021D02*
X7001610Y-10668021D01*
X7001610Y-10668021D02*
X7020658Y-10677545D01*
X7020658Y-10677545D02*
X7030182Y-10687069D01*
X7030182Y-10687069D02*
X7039705Y-10706117D01*
X7039705Y-10706117D02*
X7039705Y-10753736D01*
X7039705Y-10753736D02*
X7030182Y-10772783D01*
X7030182Y-10772783D02*
X7020658Y-10782307D01*
X7020658Y-10782307D02*
X7001610Y-10791831D01*
X7001610Y-10791831D02*
X6944467Y-10791831D01*
X6944467Y-10791831D02*
X6925420Y-10782307D01*
X6925420Y-10782307D02*
X6915896Y-10772783D01*
X7125420Y-10791831D02*
X7125420Y-10658498D01*
X7125420Y-10677545D02*
X7134943Y-10668021D01*
X7134943Y-10668021D02*
X7153991Y-10658498D01*
X7153991Y-10658498D02*
X7182563Y-10658498D01*
X7182563Y-10658498D02*
X7201610Y-10668021D01*
X7201610Y-10668021D02*
X7211134Y-10687069D01*
X7211134Y-10687069D02*
X7211134Y-10791831D01*
X7211134Y-10687069D02*
X7220658Y-10668021D01*
X7220658Y-10668021D02*
X7239705Y-10658498D01*
X7239705Y-10658498D02*
X7268277Y-10658498D01*
X7268277Y-10658498D02*
X7287324Y-10668021D01*
X7287324Y-10668021D02*
X7296848Y-10687069D01*
X7296848Y-10687069D02*
X7296848Y-10791831D01*
X7392086Y-10791831D02*
X7392086Y-10658498D01*
X7392086Y-10677545D02*
X7401610Y-10668021D01*
X7401610Y-10668021D02*
X7420658Y-10658498D01*
X7420658Y-10658498D02*
X7449229Y-10658498D01*
X7449229Y-10658498D02*
X7468277Y-10668021D01*
X7468277Y-10668021D02*
X7477801Y-10687069D01*
X7477801Y-10687069D02*
X7477801Y-10791831D01*
X7477801Y-10687069D02*
X7487324Y-10668021D01*
X7487324Y-10668021D02*
X7506372Y-10658498D01*
X7506372Y-10658498D02*
X7534943Y-10658498D01*
X7534943Y-10658498D02*
X7553991Y-10668021D01*
X7553991Y-10668021D02*
X7563515Y-10687069D01*
X7563515Y-10687069D02*
X7563515Y-10791831D01*
X7953991Y-10582307D02*
X7782563Y-10839450D01*
X8211134Y-10591831D02*
X8230182Y-10591831D01*
X8230182Y-10591831D02*
X8249229Y-10601355D01*
X8249229Y-10601355D02*
X8258753Y-10610879D01*
X8258753Y-10610879D02*
X8268277Y-10629926D01*
X8268277Y-10629926D02*
X8277801Y-10668021D01*
X8277801Y-10668021D02*
X8277801Y-10715640D01*
X8277801Y-10715640D02*
X8268277Y-10753736D01*
X8268277Y-10753736D02*
X8258753Y-10772783D01*
X8258753Y-10772783D02*
X8249229Y-10782307D01*
X8249229Y-10782307D02*
X8230182Y-10791831D01*
X8230182Y-10791831D02*
X8211134Y-10791831D01*
X8211134Y-10791831D02*
X8192086Y-10782307D01*
X8192086Y-10782307D02*
X8182563Y-10772783D01*
X8182563Y-10772783D02*
X8173039Y-10753736D01*
X8173039Y-10753736D02*
X8163515Y-10715640D01*
X8163515Y-10715640D02*
X8163515Y-10668021D01*
X8163515Y-10668021D02*
X8173039Y-10629926D01*
X8173039Y-10629926D02*
X8182563Y-10610879D01*
X8182563Y-10610879D02*
X8192086Y-10601355D01*
X8192086Y-10601355D02*
X8211134Y-10591831D01*
X8363515Y-10772783D02*
X8373039Y-10782307D01*
X8373039Y-10782307D02*
X8363515Y-10791831D01*
X8363515Y-10791831D02*
X8353991Y-10782307D01*
X8353991Y-10782307D02*
X8363515Y-10772783D01*
X8363515Y-10772783D02*
X8363515Y-10791831D01*
X8496848Y-10591831D02*
X8515896Y-10591831D01*
X8515896Y-10591831D02*
X8534944Y-10601355D01*
X8534944Y-10601355D02*
X8544468Y-10610879D01*
X8544468Y-10610879D02*
X8553991Y-10629926D01*
X8553991Y-10629926D02*
X8563515Y-10668021D01*
X8563515Y-10668021D02*
X8563515Y-10715640D01*
X8563515Y-10715640D02*
X8553991Y-10753736D01*
X8553991Y-10753736D02*
X8544468Y-10772783D01*
X8544468Y-10772783D02*
X8534944Y-10782307D01*
X8534944Y-10782307D02*
X8515896Y-10791831D01*
X8515896Y-10791831D02*
X8496848Y-10791831D01*
X8496848Y-10791831D02*
X8477801Y-10782307D01*
X8477801Y-10782307D02*
X8468277Y-10772783D01*
X8468277Y-10772783D02*
X8458753Y-10753736D01*
X8458753Y-10753736D02*
X8449229Y-10715640D01*
X8449229Y-10715640D02*
X8449229Y-10668021D01*
X8449229Y-10668021D02*
X8458753Y-10629926D01*
X8458753Y-10629926D02*
X8468277Y-10610879D01*
X8468277Y-10610879D02*
X8477801Y-10601355D01*
X8477801Y-10601355D02*
X8496848Y-10591831D01*
X8734944Y-10658498D02*
X8734944Y-10791831D01*
X8687325Y-10582307D02*
X8639706Y-10725164D01*
X8639706Y-10725164D02*
X8763515Y-10725164D01*
X8934944Y-10591831D02*
X8839706Y-10591831D01*
X8839706Y-10591831D02*
X8830182Y-10687069D01*
X8830182Y-10687069D02*
X8839706Y-10677545D01*
X8839706Y-10677545D02*
X8858753Y-10668021D01*
X8858753Y-10668021D02*
X8906372Y-10668021D01*
X8906372Y-10668021D02*
X8925420Y-10677545D01*
X8925420Y-10677545D02*
X8934944Y-10687069D01*
X8934944Y-10687069D02*
X8944468Y-10706117D01*
X8944468Y-10706117D02*
X8944468Y-10753736D01*
X8944468Y-10753736D02*
X8934944Y-10772783D01*
X8934944Y-10772783D02*
X8925420Y-10782307D01*
X8925420Y-10782307D02*
X8906372Y-10791831D01*
X8906372Y-10791831D02*
X8858753Y-10791831D01*
X8858753Y-10791831D02*
X8839706Y-10782307D01*
X8839706Y-10782307D02*
X8830182Y-10772783D01*
X9068277Y-10591831D02*
X9087325Y-10591831D01*
X9087325Y-10591831D02*
X9106372Y-10601355D01*
X9106372Y-10601355D02*
X9115896Y-10610879D01*
X9115896Y-10610879D02*
X9125420Y-10629926D01*
X9125420Y-10629926D02*
X9134944Y-10668021D01*
X9134944Y-10668021D02*
X9134944Y-10715640D01*
X9134944Y-10715640D02*
X9125420Y-10753736D01*
X9125420Y-10753736D02*
X9115896Y-10772783D01*
X9115896Y-10772783D02*
X9106372Y-10782307D01*
X9106372Y-10782307D02*
X9087325Y-10791831D01*
X9087325Y-10791831D02*
X9068277Y-10791831D01*
X9068277Y-10791831D02*
X9049229Y-10782307D01*
X9049229Y-10782307D02*
X9039706Y-10772783D01*
X9039706Y-10772783D02*
X9030182Y-10753736D01*
X9030182Y-10753736D02*
X9020658Y-10715640D01*
X9020658Y-10715640D02*
X9020658Y-10668021D01*
X9020658Y-10668021D02*
X9030182Y-10629926D01*
X9030182Y-10629926D02*
X9039706Y-10610879D01*
X9039706Y-10610879D02*
X9049229Y-10601355D01*
X9049229Y-10601355D02*
X9068277Y-10591831D01*
X9211134Y-10591831D02*
X9211134Y-10629926D01*
X9287325Y-10591831D02*
X9287325Y-10629926D01*
X9582563Y-10868021D02*
X9573039Y-10858498D01*
X9573039Y-10858498D02*
X9553991Y-10829926D01*
X9553991Y-10829926D02*
X9544468Y-10810879D01*
X9544468Y-10810879D02*
X9534944Y-10782307D01*
X9534944Y-10782307D02*
X9525420Y-10734688D01*
X9525420Y-10734688D02*
X9525420Y-10696593D01*
X9525420Y-10696593D02*
X9534944Y-10648974D01*
X9534944Y-10648974D02*
X9544468Y-10620402D01*
X9544468Y-10620402D02*
X9553991Y-10601355D01*
X9553991Y-10601355D02*
X9573039Y-10572783D01*
X9573039Y-10572783D02*
X9582563Y-10563259D01*
X9753991Y-10591831D02*
X9658753Y-10591831D01*
X9658753Y-10591831D02*
X9649230Y-10687069D01*
X9649230Y-10687069D02*
X9658753Y-10677545D01*
X9658753Y-10677545D02*
X9677801Y-10668021D01*
X9677801Y-10668021D02*
X9725420Y-10668021D01*
X9725420Y-10668021D02*
X9744468Y-10677545D01*
X9744468Y-10677545D02*
X9753991Y-10687069D01*
X9753991Y-10687069D02*
X9763515Y-10706117D01*
X9763515Y-10706117D02*
X9763515Y-10753736D01*
X9763515Y-10753736D02*
X9753991Y-10772783D01*
X9753991Y-10772783D02*
X9744468Y-10782307D01*
X9744468Y-10782307D02*
X9725420Y-10791831D01*
X9725420Y-10791831D02*
X9677801Y-10791831D01*
X9677801Y-10791831D02*
X9658753Y-10782307D01*
X9658753Y-10782307D02*
X9649230Y-10772783D01*
X9934944Y-10591831D02*
X9896849Y-10591831D01*
X9896849Y-10591831D02*
X9877801Y-10601355D01*
X9877801Y-10601355D02*
X9868277Y-10610879D01*
X9868277Y-10610879D02*
X9849230Y-10639450D01*
X9849230Y-10639450D02*
X9839706Y-10677545D01*
X9839706Y-10677545D02*
X9839706Y-10753736D01*
X9839706Y-10753736D02*
X9849230Y-10772783D01*
X9849230Y-10772783D02*
X9858753Y-10782307D01*
X9858753Y-10782307D02*
X9877801Y-10791831D01*
X9877801Y-10791831D02*
X9915896Y-10791831D01*
X9915896Y-10791831D02*
X9934944Y-10782307D01*
X9934944Y-10782307D02*
X9944468Y-10772783D01*
X9944468Y-10772783D02*
X9953991Y-10753736D01*
X9953991Y-10753736D02*
X9953991Y-10706117D01*
X9953991Y-10706117D02*
X9944468Y-10687069D01*
X9944468Y-10687069D02*
X9934944Y-10677545D01*
X9934944Y-10677545D02*
X9915896Y-10668021D01*
X9915896Y-10668021D02*
X9877801Y-10668021D01*
X9877801Y-10668021D02*
X9858753Y-10677545D01*
X9858753Y-10677545D02*
X9849230Y-10687069D01*
X9849230Y-10687069D02*
X9839706Y-10706117D01*
X10192087Y-10791831D02*
X10192087Y-10591831D01*
X10277801Y-10791831D02*
X10277801Y-10687069D01*
X10277801Y-10687069D02*
X10268277Y-10668021D01*
X10268277Y-10668021D02*
X10249230Y-10658498D01*
X10249230Y-10658498D02*
X10220658Y-10658498D01*
X10220658Y-10658498D02*
X10201611Y-10668021D01*
X10201611Y-10668021D02*
X10192087Y-10677545D01*
X10401611Y-10791831D02*
X10382563Y-10782307D01*
X10382563Y-10782307D02*
X10373039Y-10772783D01*
X10373039Y-10772783D02*
X10363515Y-10753736D01*
X10363515Y-10753736D02*
X10363515Y-10696593D01*
X10363515Y-10696593D02*
X10373039Y-10677545D01*
X10373039Y-10677545D02*
X10382563Y-10668021D01*
X10382563Y-10668021D02*
X10401611Y-10658498D01*
X10401611Y-10658498D02*
X10430182Y-10658498D01*
X10430182Y-10658498D02*
X10449230Y-10668021D01*
X10449230Y-10668021D02*
X10458753Y-10677545D01*
X10458753Y-10677545D02*
X10468277Y-10696593D01*
X10468277Y-10696593D02*
X10468277Y-10753736D01*
X10468277Y-10753736D02*
X10458753Y-10772783D01*
X10458753Y-10772783D02*
X10449230Y-10782307D01*
X10449230Y-10782307D02*
X10430182Y-10791831D01*
X10430182Y-10791831D02*
X10401611Y-10791831D01*
X10582563Y-10791831D02*
X10563515Y-10782307D01*
X10563515Y-10782307D02*
X10553992Y-10763259D01*
X10553992Y-10763259D02*
X10553992Y-10591831D01*
X10734944Y-10782307D02*
X10715896Y-10791831D01*
X10715896Y-10791831D02*
X10677801Y-10791831D01*
X10677801Y-10791831D02*
X10658753Y-10782307D01*
X10658753Y-10782307D02*
X10649230Y-10763259D01*
X10649230Y-10763259D02*
X10649230Y-10687069D01*
X10649230Y-10687069D02*
X10658753Y-10668021D01*
X10658753Y-10668021D02*
X10677801Y-10658498D01*
X10677801Y-10658498D02*
X10715896Y-10658498D01*
X10715896Y-10658498D02*
X10734944Y-10668021D01*
X10734944Y-10668021D02*
X10744468Y-10687069D01*
X10744468Y-10687069D02*
X10744468Y-10706117D01*
X10744468Y-10706117D02*
X10649230Y-10725164D01*
X10820658Y-10782307D02*
X10839706Y-10791831D01*
X10839706Y-10791831D02*
X10877801Y-10791831D01*
X10877801Y-10791831D02*
X10896849Y-10782307D01*
X10896849Y-10782307D02*
X10906373Y-10763259D01*
X10906373Y-10763259D02*
X10906373Y-10753736D01*
X10906373Y-10753736D02*
X10896849Y-10734688D01*
X10896849Y-10734688D02*
X10877801Y-10725164D01*
X10877801Y-10725164D02*
X10849230Y-10725164D01*
X10849230Y-10725164D02*
X10830182Y-10715640D01*
X10830182Y-10715640D02*
X10820658Y-10696593D01*
X10820658Y-10696593D02*
X10820658Y-10687069D01*
X10820658Y-10687069D02*
X10830182Y-10668021D01*
X10830182Y-10668021D02*
X10849230Y-10658498D01*
X10849230Y-10658498D02*
X10877801Y-10658498D01*
X10877801Y-10658498D02*
X10896849Y-10668021D01*
X10973039Y-10868021D02*
X10982563Y-10858498D01*
X10982563Y-10858498D02*
X11001611Y-10829926D01*
X11001611Y-10829926D02*
X11011134Y-10810879D01*
X11011134Y-10810879D02*
X11020658Y-10782307D01*
X11020658Y-10782307D02*
X11030182Y-10734688D01*
X11030182Y-10734688D02*
X11030182Y-10696593D01*
X11030182Y-10696593D02*
X11020658Y-10648974D01*
X11020658Y-10648974D02*
X11011134Y-10620402D01*
X11011134Y-10620402D02*
X11001611Y-10601355D01*
X11001611Y-10601355D02*
X10982563Y-10572783D01*
X10982563Y-10572783D02*
X10973039Y-10563259D01*
M02*
