M48
; DRILL file {KiCad 8.0.3-1.fc40} date 2024-07-04T16:01:13-0400
; FORMAT={-:-/ absolute / metric / decimal}
; #@! TF.CreationDate,2024-07-04T16:01:13-04:00
; #@! TF.GenerationSoftware,Kicad,Pcbnew,8.0.3-1.fc40
; #@! TF.FileFunction,Plated,1,4,PTH
FMAT,2
METRIC
; #@! TA.AperFunction,Plated,PTH,ViaDrill
T1C0.300
; #@! TA.AperFunction,Plated,PTH,ComponentDrill
T2C0.800
; #@! TA.AperFunction,Plated,PTH,ComponentDrill
T3C1.100
; #@! TA.AperFunction,Plated,PTH,ComponentDrill
T4C1.143
%
G90
G05
T1
X64.5Y-33.1
X65.7Y-33.1
X65.8Y-41.62
X66.9Y-35.7
X66.9Y-37.6
X68.7Y-40.32
X72.4Y-33.0
X73.7Y-33.1
X73.8Y-41.72
X75.0Y-35.7
X75.0Y-37.6
X76.5Y-40.32
X80.4Y-33.1
X81.7Y-33.1
X81.8Y-41.72
X82.9Y-37.6
X83.0Y-35.7
X84.7Y-40.12
X88.5Y-33.1
X89.8Y-33.1
X89.8Y-41.62
X90.9Y-35.7
X90.9Y-37.6
X92.1Y-55.2
X92.6Y-40.22
X94.7Y-55.6
X96.9Y-33.1
X97.3Y-56.0
X98.1Y-33.1
X98.2Y-41.45
X99.2Y-35.7
X99.4Y-37.6
X99.8Y-56.4
X101.1Y-40.35
X102.3Y-56.8
X104.8Y-32.9
X104.9Y-57.2
X106.1Y-33.0
X106.2Y-41.55
X107.4Y-35.7
X107.4Y-37.6
X107.4Y-57.6
X108.9Y-40.35
X109.9Y-58.0
X112.4Y-58.4
X113.0Y-32.9
X114.2Y-41.55
X114.28Y-32.88
X115.1Y-59.0
X115.4Y-35.7
X115.4Y-37.6
X117.0Y-40.15
X120.9Y-33.2
X122.2Y-33.1
X122.2Y-41.45
X123.3Y-35.7
X123.3Y-37.6
X125.0Y-40.15
X129.4Y-33.23
X130.6Y-53.3
X130.66Y-41.64
X130.7Y-33.23
X131.8Y-35.83
X131.8Y-37.73
X133.56Y-40.34
X137.3Y-33.13
X138.6Y-33.13
X138.66Y-41.74
X139.8Y-35.83
X139.8Y-37.73
X141.46Y-40.34
X145.4Y-33.2
X146.6Y-33.13
X146.66Y-41.74
X147.8Y-35.83
X147.8Y-37.73
X149.56Y-40.34
X153.4Y-33.2
X154.6Y-33.23
X154.66Y-41.64
X155.8Y-35.83
X155.9Y-37.73
X155.9Y-75.4
X157.56Y-40.34
X160.5Y-75.3
X161.88Y-33.1
X163.0Y-42.6
X163.08Y-33.2
X164.28Y-35.7
X164.28Y-37.6
X165.3Y-75.4
X166.08Y-40.3
X169.78Y-33.1
X169.9Y-75.5
X171.0Y-42.7
X171.08Y-33.0
X172.28Y-35.7
X172.28Y-37.6
X173.98Y-40.3
X174.5Y-75.4
X177.88Y-33.1
X178.3Y-62.2
X179.0Y-42.7
X179.08Y-33.1
X179.2Y-75.4
X179.6Y-60.4
X179.6Y-69.7
X180.28Y-35.7
X180.28Y-37.6
X182.08Y-40.3
X182.1Y-60.4
X182.1Y-69.7
X183.8Y-75.5
X184.7Y-60.4
X184.7Y-69.7
X185.88Y-33.1
X187.0Y-42.6
X187.18Y-33.1
X187.2Y-60.4
X187.2Y-69.7
X188.28Y-35.7
X188.28Y-37.6
X188.4Y-75.4
X188.5Y-69.6
X189.8Y-60.4
X190.08Y-40.3
X198.2Y-73.7
X200.5Y-73.4
X202.1Y-72.8
X203.5Y-71.8
X207.9Y-30.7
X207.9Y-32.7
X207.9Y-34.7
X208.0Y-82.7
X208.0Y-84.7
X208.0Y-88.7
X208.1Y-36.6
T2
X85.33Y-67.65
X85.33Y-70.19
X97.57Y-63.738
X97.57Y-65.738
X97.57Y-67.738
X99.57Y-63.738
X99.57Y-65.738
X99.57Y-67.738
T3
X84.6Y-61.3
X84.6Y-76.54
X87.14Y-61.3
X87.14Y-76.54
X87.14Y-63.84
X89.68Y-61.3
X89.68Y-76.54
X90.899Y-73.489
X92.22Y-61.3
X92.22Y-76.54
X93.439Y-73.489
X94.76Y-61.3
X94.76Y-76.54
X95.979Y-73.489
X97.3Y-61.3
X97.3Y-76.54
X98.519Y-73.489
X99.84Y-61.3
X99.84Y-76.54
X101.059Y-73.489
X102.38Y-61.3
X102.38Y-76.54
X104.92Y-61.3
X104.92Y-76.54
X107.46Y-61.3
X107.46Y-76.54
X110.0Y-61.3
X110.0Y-76.54
X112.54Y-61.3
X112.54Y-76.54
X115.08Y-61.3
X115.08Y-76.54
X117.62Y-61.3
X117.62Y-76.54
X120.16Y-61.3
X120.16Y-76.54
X122.7Y-61.3
X122.7Y-76.54
X125.24Y-61.3
X125.24Y-76.54
X127.78Y-61.3
X127.78Y-76.54
X130.32Y-61.3
X130.32Y-63.84
X130.32Y-66.38
X130.32Y-68.92
X130.32Y-71.46
X130.32Y-74.0
X130.32Y-76.54
X132.86Y-61.3
X132.86Y-76.54
X135.4Y-61.3
X135.4Y-76.54
X137.94Y-61.3
X137.94Y-76.54
X140.48Y-61.3
X140.48Y-76.54
X143.02Y-61.3
X143.02Y-76.54
T4
X73.12Y-25.4
X73.12Y-27.94
X75.66Y-25.4
X75.66Y-27.94
X78.2Y-25.4
X78.2Y-27.94
X80.74Y-25.4
X80.74Y-27.94
X105.42Y-25.26
X105.42Y-27.8
X107.96Y-25.26
X107.96Y-27.8
X110.5Y-25.26
X110.5Y-27.8
X113.04Y-25.26
X113.04Y-27.8
X138.08Y-25.49
X138.08Y-28.03
X140.62Y-25.49
X140.62Y-28.03
X143.16Y-25.49
X143.16Y-28.03
X145.7Y-25.49
X145.7Y-28.03
X170.46Y-25.36
X170.46Y-27.9
X173.0Y-25.36
X173.0Y-27.9
X175.54Y-25.36
X175.54Y-27.9
X178.08Y-25.36
X178.08Y-27.9
X184.58Y-79.8
X184.58Y-82.34
X187.12Y-79.8
X187.12Y-82.34
X189.66Y-79.8
X189.66Y-82.34
X192.2Y-79.8
X192.2Y-82.34
M30
