%TF.GenerationSoftware,KiCad,Pcbnew,8.0.3-1.fc40*%
%TF.CreationDate,2024-07-09T23:55:12-04:00*%
%TF.ProjectId,boards_v3,626f6172-6473-45f7-9633-2e6b69636164,rev?*%
%TF.SameCoordinates,Original*%
%TF.FileFunction,Copper,L4,Bot*%
%TF.FilePolarity,Positive*%
%FSLAX46Y46*%
G04 Gerber Fmt 4.6, Leading zero omitted, Abs format (unit mm)*
G04 Created by KiCad (PCBNEW 8.0.3-1.fc40) date 2024-07-09 23:55:12*
%MOMM*%
%LPD*%
G01*
G04 APERTURE LIST*
G04 Aperture macros list*
%AMRoundRect*
0 Rectangle with rounded corners*
0 $1 Rounding radius*
0 $2 $3 $4 $5 $6 $7 $8 $9 X,Y pos of 4 corners*
0 Add a 4 corners polygon primitive as box body*
4,1,4,$2,$3,$4,$5,$6,$7,$8,$9,$2,$3,0*
0 Add four circle primitives for the rounded corners*
1,1,$1+$1,$2,$3*
1,1,$1+$1,$4,$5*
1,1,$1+$1,$6,$7*
1,1,$1+$1,$8,$9*
0 Add four rect primitives between the rounded corners*
20,1,$1+$1,$2,$3,$4,$5,0*
20,1,$1+$1,$4,$5,$6,$7,0*
20,1,$1+$1,$6,$7,$8,$9,0*
20,1,$1+$1,$8,$9,$2,$3,0*%
%AMFreePoly0*
4,1,19,0.550000,-0.750000,0.000000,-0.750000,0.000000,-0.744911,-0.071157,-0.744911,-0.207708,-0.704816,-0.327430,-0.627875,-0.420627,-0.520320,-0.479746,-0.390866,-0.500000,-0.250000,-0.500000,0.250000,-0.479746,0.390866,-0.420627,0.520320,-0.327430,0.627875,-0.207708,0.704816,-0.071157,0.744911,0.000000,0.744911,0.000000,0.750000,0.550000,0.750000,0.550000,-0.750000,0.550000,-0.750000,
$1*%
%AMFreePoly1*
4,1,19,0.000000,0.744911,0.071157,0.744911,0.207708,0.704816,0.327430,0.627875,0.420627,0.520320,0.479746,0.390866,0.500000,0.250000,0.500000,-0.250000,0.479746,-0.390866,0.420627,-0.520320,0.327430,-0.627875,0.207708,-0.704816,0.071157,-0.744911,0.000000,-0.744911,0.000000,-0.750000,-0.550000,-0.750000,-0.550000,0.750000,0.000000,0.750000,0.000000,0.744911,0.000000,0.744911,
$1*%
G04 Aperture macros list end*
%TA.AperFunction,SMDPad,CuDef*%
%ADD10RoundRect,0.250000X-0.537500X-1.450000X0.537500X-1.450000X0.537500X1.450000X-0.537500X1.450000X0*%
%TD*%
%TA.AperFunction,SMDPad,CuDef*%
%ADD11RoundRect,0.250000X-0.650000X0.412500X-0.650000X-0.412500X0.650000X-0.412500X0.650000X0.412500X0*%
%TD*%
%TA.AperFunction,ComponentPad*%
%ADD12C,2.286000*%
%TD*%
%TA.AperFunction,ComponentPad*%
%ADD13R,1.600000X1.600000*%
%TD*%
%TA.AperFunction,ComponentPad*%
%ADD14C,1.600000*%
%TD*%
%TA.AperFunction,ComponentPad*%
%ADD15R,1.300000X1.300000*%
%TD*%
%TA.AperFunction,ComponentPad*%
%ADD16C,1.300000*%
%TD*%
%TA.AperFunction,ComponentPad*%
%ADD17C,1.524000*%
%TD*%
%TA.AperFunction,SMDPad,CuDef*%
%ADD18FreePoly0,0.000000*%
%TD*%
%TA.AperFunction,SMDPad,CuDef*%
%ADD19R,1.000000X1.500000*%
%TD*%
%TA.AperFunction,SMDPad,CuDef*%
%ADD20FreePoly1,0.000000*%
%TD*%
%TA.AperFunction,ViaPad*%
%ADD21C,0.900000*%
%TD*%
%TA.AperFunction,Conductor*%
%ADD22C,0.600000*%
%TD*%
%TA.AperFunction,Conductor*%
%ADD23C,0.400000*%
%TD*%
%TA.AperFunction,Conductor*%
%ADD24C,0.900000*%
%TD*%
%TA.AperFunction,Conductor*%
%ADD25C,0.200000*%
%TD*%
%TA.AperFunction,Conductor*%
%ADD26C,0.500000*%
%TD*%
G04 APERTURE END LIST*
D10*
%TO.P,C18,1*%
%TO.N,+5V*%
X85000000Y-64500000D03*
%TO.P,C18,2*%
%TO.N,GND*%
X89275000Y-64500000D03*
%TD*%
D11*
%TO.P,C17,1*%
%TO.N,+3.3V*%
X140300000Y-35937500D03*
%TO.P,C17,2*%
%TO.N,GND*%
X140300000Y-39062500D03*
%TD*%
%TO.P,C16,1*%
%TO.N,+3.3V*%
X148300000Y-35937500D03*
%TO.P,C16,2*%
%TO.N,GND*%
X148300000Y-39062500D03*
%TD*%
%TO.P,C15,1*%
%TO.N,+3.3V*%
X132300000Y-36037500D03*
%TO.P,C15,2*%
%TO.N,GND*%
X132300000Y-39162500D03*
%TD*%
%TO.P,C14,1*%
%TO.N,+3.3V*%
X123800000Y-35937500D03*
%TO.P,C14,2*%
%TO.N,GND*%
X123800000Y-39062500D03*
%TD*%
%TO.P,C12,1*%
%TO.N,+3.3V*%
X156300000Y-35937500D03*
%TO.P,C12,2*%
%TO.N,GND*%
X156300000Y-39062500D03*
%TD*%
%TO.P,C11,1*%
%TO.N,+3.3V*%
X172800000Y-35937500D03*
%TO.P,C11,2*%
%TO.N,GND*%
X172800000Y-39062500D03*
%TD*%
%TO.P,C9,1*%
%TO.N,+3.3V*%
X115900000Y-35937500D03*
%TO.P,C9,2*%
%TO.N,GND*%
X115900000Y-39062500D03*
%TD*%
%TO.P,C8,1*%
%TO.N,+3.3V*%
X107900000Y-35937500D03*
%TO.P,C8,2*%
%TO.N,GND*%
X107900000Y-39062500D03*
%TD*%
%TO.P,C7,1*%
%TO.N,+3.3V*%
X99700000Y-35937500D03*
%TO.P,C7,2*%
%TO.N,GND*%
X99700000Y-39062500D03*
%TD*%
%TO.P,C6,1*%
%TO.N,+3.3V*%
X91400000Y-35937500D03*
%TO.P,C6,2*%
%TO.N,GND*%
X91400000Y-39062500D03*
%TD*%
%TO.P,C5,2*%
%TO.N,GND*%
X180500000Y-39162500D03*
%TO.P,C5,1*%
%TO.N,+3.3V*%
X180500000Y-36037500D03*
%TD*%
%TO.P,C4,1*%
%TO.N,+3.3V*%
X164800000Y-35937500D03*
%TO.P,C4,2*%
%TO.N,GND*%
X164800000Y-39062500D03*
%TD*%
%TO.P,C3,1*%
%TO.N,+3.3V*%
X83500000Y-35937500D03*
%TO.P,C3,2*%
%TO.N,GND*%
X83500000Y-39062500D03*
%TD*%
%TO.P,C2,1*%
%TO.N,+3.3V*%
X75500000Y-35937500D03*
%TO.P,C2,2*%
%TO.N,GND*%
X75500000Y-39062500D03*
%TD*%
%TO.P,C1,1*%
%TO.N,+3.3V*%
X67400000Y-35937500D03*
%TO.P,C1,2*%
%TO.N,GND*%
X67400000Y-39062500D03*
%TD*%
D12*
%TO.P,J2,1,Pin_1*%
%TO.N,+3.3V*%
X145700000Y-25490000D03*
%TO.P,J2,2,Pin_2*%
%TO.N,unconnected-(J2-Pin_2-Pad2)*%
X143160000Y-25490000D03*
%TO.P,J2,3,Pin_3*%
%TO.N,unconnected-(J2-Pin_3-Pad3)*%
X140620000Y-25490000D03*
%TO.P,J2,4,Pin_4*%
%TO.N,GND*%
X138080000Y-25490000D03*
%TO.P,J2,5,Pin_5*%
%TO.N,Net-(J2-Pin_5)*%
X138080001Y-28030000D03*
%TO.P,J2,6,Pin_6*%
%TO.N,Net-(J2-Pin_6)*%
X140620000Y-28030000D03*
%TO.P,J2,7,Pin_7*%
%TO.N,Net-(J2-Pin_7)*%
X143160000Y-28030000D03*
%TO.P,J2,8,Pin_8*%
%TO.N,Net-(J2-Pin_8)*%
X145700000Y-28030000D03*
%TD*%
D13*
%TO.P,U1,1,GND*%
%TO.N,unconnected-(U1-GND-Pad1)*%
X84600000Y-76540000D03*
D14*
%TO.P,U1,2,0_RX1_CRX2_CS1*%
%TO.N,Net-(J7-Pin_4)*%
X87140000Y-76540000D03*
%TO.P,U1,3,1_TX1_CTX2_MISO1*%
%TO.N,Net-(J7-Pin_3)*%
X89680000Y-76540000D03*
%TO.P,U1,4,2_OUT2*%
%TO.N,Net-(J7-Pin_2)*%
X92220000Y-76540000D03*
%TO.P,U1,5,3_LRCLK2*%
%TO.N,Net-(J7-Pin_1)*%
X94760000Y-76540000D03*
%TO.P,U1,6,4_BCLK2*%
%TO.N,Net-(J7-Pin_5)*%
X97300000Y-76540000D03*
%TO.P,U1,7,5_IN2*%
%TO.N,Net-(J9-Pin_34)*%
X99840000Y-76540000D03*
%TO.P,U1,8,6_OUT1D*%
%TO.N,Net-(J9-Pin_33)*%
X102380000Y-76540000D03*
%TO.P,U1,9,7_RX2_OUT1A*%
%TO.N,Net-(J9-Pin_32)*%
X104920000Y-76540000D03*
%TO.P,U1,10,8_TX2_IN1*%
%TO.N,Net-(J9-Pin_31)*%
X107460000Y-76540000D03*
%TO.P,U1,11,9_OUT1C*%
%TO.N,Net-(J9-Pin_30)*%
X110000000Y-76540000D03*
%TO.P,U1,12,10_CS_MQSR*%
%TO.N,Net-(J9-Pin_29)*%
X112540000Y-76540000D03*
%TO.P,U1,13,11_MOSI_CTX1*%
%TO.N,Net-(J9-Pin_28)*%
X115080000Y-76540000D03*
%TO.P,U1,14,12_MISO_MQSL*%
%TO.N,Net-(J9-Pin_27)*%
X117620000Y-76540000D03*
%TO.P,U1,15,3V3*%
%TO.N,unconnected-(U1-3V3-Pad15)*%
X120160000Y-76540000D03*
%TO.P,U1,16,24_A10_TX6_SCL2*%
%TO.N,Net-(J9-Pin_6)*%
X122700000Y-76540000D03*
%TO.P,U1,17,25_A11_RX6_SDA2*%
%TO.N,Net-(J9-Pin_5)*%
X125240000Y-76540000D03*
%TO.P,U1,18,26_A12_MOSI1*%
%TO.N,Net-(J9-Pin_4)*%
X127780000Y-76540000D03*
%TO.P,U1,19,27_A13_SCK1*%
%TO.N,Net-(J9-Pin_3)*%
X130320000Y-76540000D03*
%TO.P,U1,20,28_RX7*%
%TO.N,Net-(J9-Pin_26)*%
X132860000Y-76540000D03*
%TO.P,U1,21,29_TX7*%
%TO.N,Net-(J9-Pin_25)*%
X135400000Y-76540000D03*
%TO.P,U1,22,30_CRX3*%
%TO.N,Net-(J9-Pin_24)*%
X137940000Y-76540000D03*
%TO.P,U1,23,31_CTX3*%
%TO.N,Net-(J9-Pin_23)*%
X140480000Y-76540000D03*
%TO.P,U1,24,32_OUT1B*%
%TO.N,unconnected-(U1-32_OUT1B-Pad24)*%
X143020000Y-76540000D03*
%TO.P,U1,25,33_MCLK2*%
%TO.N,Net-(J8-Pin_5)*%
X143020000Y-61300000D03*
%TO.P,U1,26,34_RX8*%
%TO.N,Net-(J6-Pin_5)*%
X140480000Y-61300000D03*
%TO.P,U1,27,35_TX8*%
%TO.N,Net-(J6-Pin_4)*%
X137940000Y-61300000D03*
%TO.P,U1,28,36_CS*%
%TO.N,Net-(J8-Pin_4)*%
X135400000Y-61300000D03*
%TO.P,U1,29,37_CS*%
%TO.N,Net-(J8-Pin_3)*%
X132860000Y-61300000D03*
%TO.P,U1,30,38_CS1_IN1*%
%TO.N,Net-(J8-Pin_2)*%
X130320000Y-61300000D03*
%TO.P,U1,31,39_MISO1_OUT1A*%
%TO.N,Net-(J8-Pin_1)*%
X127780000Y-61300000D03*
%TO.P,U1,32,40_A16*%
%TO.N,Net-(J9-Pin_2)*%
X125240000Y-61300000D03*
%TO.P,U1,33,41_A17*%
%TO.N,Net-(J9-Pin_1)*%
X122700000Y-61300000D03*
%TO.P,U1,34,GND*%
%TO.N,unconnected-(U1-GND-Pad34)*%
X120160000Y-61300000D03*
%TO.P,U1,35,13_SCK_LED*%
%TO.N,unconnected-(U1-13_SCK_LED-Pad35)*%
X117620000Y-61300000D03*
%TO.P,U1,36,14_A0_TX3_SPDIF_OUT*%
%TO.N,Net-(J9-Pin_16)*%
X115080000Y-61300000D03*
%TO.P,U1,37,15_A1_RX3_SPDIF_IN*%
%TO.N,Net-(J9-Pin_15)*%
X112540000Y-61300000D03*
%TO.P,U1,38,16_A2_RX4_SCL1*%
%TO.N,Net-(J9-Pin_14)*%
X110000000Y-61300000D03*
%TO.P,U1,39,17_A3_TX4_SDA1*%
%TO.N,Net-(J9-Pin_13)*%
X107460000Y-61300000D03*
%TO.P,U1,40,18_A4_SDA*%
%TO.N,Net-(J9-Pin_12)*%
X104920000Y-61300000D03*
%TO.P,U1,41,19_A5_SCL*%
%TO.N,Net-(J9-Pin_11)*%
X102380000Y-61300000D03*
%TO.P,U1,42,20_A6_TX5_LRCLK1*%
%TO.N,Net-(J9-Pin_10)*%
X99840000Y-61300000D03*
%TO.P,U1,43,21_A7_RX5_BCLK1*%
%TO.N,Net-(J9-Pin_9)*%
X97300000Y-61300000D03*
%TO.P,U1,44,22_A8_CTX1*%
%TO.N,Net-(J9-Pin_8)*%
X94760000Y-61300000D03*
%TO.P,U1,45,23_A9_CRX1_MCLK1*%
%TO.N,Net-(J9-Pin_7)*%
X92220000Y-61300000D03*
%TO.P,U1,46,3V3*%
%TO.N,unconnected-(U1-3V3-Pad46)*%
X89680000Y-61300000D03*
%TO.P,U1,47,GND*%
%TO.N,GND*%
X87140000Y-61300000D03*
%TO.P,U1,48,VIN*%
%TO.N,+5V*%
X84600000Y-61300000D03*
%TO.P,U1,49,VUSB*%
%TO.N,unconnected-(U1-VUSB-Pad49)*%
X87140001Y-63840000D03*
%TO.P,U1,50,VBAT*%
%TO.N,unconnected-(U1-VBAT-Pad50)*%
X130320000Y-73999999D03*
%TO.P,U1,51,3V3*%
%TO.N,unconnected-(U1-3V3-Pad51)*%
X130320000Y-71460000D03*
%TO.P,U1,52,GND*%
%TO.N,unconnected-(U1-GND-Pad52)*%
X130320000Y-68920000D03*
%TO.P,U1,53,PROGRAM*%
%TO.N,unconnected-(U1-PROGRAM-Pad53)*%
X130320000Y-66380000D03*
%TO.P,U1,54,ON_OFF*%
%TO.N,unconnected-(U1-ON_OFF-Pad54)*%
X130320000Y-63840001D03*
D13*
%TO.P,U1,55,5V*%
%TO.N,unconnected-(U1-5V-Pad55)*%
X90899200Y-73489200D03*
D14*
%TO.P,U1,56,D-*%
%TO.N,unconnected-(U1-D--Pad56)*%
X93439200Y-73489200D03*
%TO.P,U1,57,D+*%
%TO.N,unconnected-(U1-D+-Pad57)*%
X95979200Y-73489200D03*
%TO.P,U1,58,GND*%
%TO.N,unconnected-(U1-GND-Pad58)*%
X98519200Y-73489200D03*
%TO.P,U1,59,GND*%
%TO.N,unconnected-(U1-GND-Pad59)*%
X101059200Y-73489200D03*
D15*
%TO.P,U1,60,R+*%
%TO.N,unconnected-(U1-R+-Pad60)*%
X97569999Y-63738400D03*
D16*
%TO.P,U1,61,LED*%
%TO.N,unconnected-(U1-LED-Pad61)*%
X97570000Y-65738400D03*
%TO.P,U1,62,T-*%
%TO.N,unconnected-(U1-T--Pad62)*%
X97570000Y-67738401D03*
%TO.P,U1,63,T+*%
%TO.N,unconnected-(U1-T+-Pad63)*%
X99570000Y-67738400D03*
%TO.P,U1,64,GND*%
%TO.N,unconnected-(U1-GND-Pad64)*%
X99570000Y-65738401D03*
%TO.P,U1,65,R-*%
%TO.N,unconnected-(U1-R--Pad65)*%
X99570000Y-63738400D03*
%TO.P,U1,66,D-*%
%TO.N,unconnected-(U1-D--Pad66)*%
X85329999Y-67650000D03*
%TO.P,U1,67,D+*%
%TO.N,unconnected-(U1-D+-Pad67)*%
X85329999Y-70190000D03*
%TD*%
D12*
%TO.P,J1,1,Pin_1*%
%TO.N,+3.3V*%
X178080000Y-25360000D03*
%TO.P,J1,2,Pin_2*%
%TO.N,unconnected-(J1-Pin_2-Pad2)*%
X175540000Y-25360000D03*
%TO.P,J1,3,Pin_3*%
%TO.N,unconnected-(J1-Pin_3-Pad3)*%
X173000000Y-25360000D03*
%TO.P,J1,4,Pin_4*%
%TO.N,GND*%
X170460000Y-25360000D03*
%TO.P,J1,5,Pin_5*%
%TO.N,Net-(J1-Pin_5)*%
X170460001Y-27900000D03*
%TO.P,J1,6,Pin_6*%
%TO.N,Net-(J1-Pin_6)*%
X173000000Y-27900000D03*
%TO.P,J1,7,Pin_7*%
%TO.N,Net-(J1-Pin_7)*%
X175540000Y-27900000D03*
%TO.P,J1,8,Pin_8*%
%TO.N,Net-(J1-Pin_8)*%
X178080000Y-27900000D03*
%TD*%
%TO.P,J7,1,Pin_1*%
%TO.N,Net-(J7-Pin_1)*%
X74100000Y-82200000D03*
%TO.P,J7,2,Pin_2*%
%TO.N,Net-(J7-Pin_2)*%
X74100000Y-79660000D03*
%TO.P,J7,3,Pin_3*%
%TO.N,Net-(J7-Pin_3)*%
X74100000Y-77120000D03*
%TO.P,J7,4,Pin_4*%
%TO.N,Net-(J7-Pin_4)*%
X74100000Y-74580000D03*
%TO.P,J7,5,Pin_5*%
%TO.N,Net-(J7-Pin_5)*%
X71560000Y-74580001D03*
%TO.P,J7,6,Pin_6*%
%TO.N,+5V*%
X71560000Y-77120000D03*
%TO.P,J7,7,Pin_7*%
%TO.N,+3.3V*%
X71560000Y-79660000D03*
%TO.P,J7,8,Pin_8*%
%TO.N,GND*%
X71560000Y-82200000D03*
%TD*%
%TO.P,J6,1,Pin_1*%
%TO.N,+3.3V*%
X184580000Y-82340000D03*
%TO.P,J6,2,Pin_2*%
%TO.N,+5V*%
X187120000Y-82340000D03*
%TO.P,J6,3,Pin_3*%
%TO.N,GND*%
X189660000Y-82340000D03*
%TO.P,J6,4,Pin_4*%
%TO.N,Net-(J6-Pin_4)*%
X192200000Y-82340000D03*
%TO.P,J6,5,Pin_5*%
%TO.N,Net-(J6-Pin_5)*%
X192200000Y-79800000D03*
%TO.P,J6,6,Pin_6*%
%TO.N,GND*%
X189660000Y-79800000D03*
%TO.P,J6,7,Pin_7*%
%TO.N,+5V*%
X187120000Y-79800000D03*
%TO.P,J6,8,Pin_8*%
%TO.N,+3.3V*%
X184580000Y-79800000D03*
%TD*%
%TO.P,J3,1,Pin_1*%
%TO.N,+3.3V*%
X113040000Y-25260000D03*
%TO.P,J3,2,Pin_2*%
%TO.N,unconnected-(J3-Pin_2-Pad2)*%
X110500000Y-25260000D03*
%TO.P,J3,3,Pin_3*%
%TO.N,unconnected-(J3-Pin_3-Pad3)*%
X107960000Y-25260000D03*
%TO.P,J3,4,Pin_4*%
%TO.N,GND*%
X105420000Y-25260000D03*
%TO.P,J3,5,Pin_5*%
%TO.N,Net-(J3-Pin_5)*%
X105420001Y-27800000D03*
%TO.P,J3,6,Pin_6*%
%TO.N,Net-(J3-Pin_6)*%
X107960000Y-27800000D03*
%TO.P,J3,7,Pin_7*%
%TO.N,Net-(J3-Pin_7)*%
X110500000Y-27800000D03*
%TO.P,J3,8,Pin_8*%
%TO.N,Net-(J3-Pin_8)*%
X113040000Y-27800000D03*
%TD*%
%TO.P,J8,1,Pin_1*%
%TO.N,Net-(J8-Pin_1)*%
X74040000Y-69980000D03*
%TO.P,J8,2,Pin_2*%
%TO.N,Net-(J8-Pin_2)*%
X74040000Y-67440000D03*
%TO.P,J8,3,Pin_3*%
%TO.N,Net-(J8-Pin_3)*%
X74040000Y-64900000D03*
%TO.P,J8,4,Pin_4*%
%TO.N,Net-(J8-Pin_4)*%
X74040000Y-62360000D03*
%TO.P,J8,5,Pin_5*%
%TO.N,Net-(J8-Pin_5)*%
X71500000Y-62360001D03*
%TO.P,J8,6,Pin_6*%
%TO.N,+5V*%
X71500000Y-64900000D03*
%TO.P,J8,7,Pin_7*%
%TO.N,+3.3V*%
X71500000Y-67440000D03*
%TO.P,J8,8,Pin_8*%
%TO.N,GND*%
X71500000Y-69980000D03*
%TD*%
%TO.P,J4,1,Pin_1*%
%TO.N,+3.3V*%
X80740000Y-25400000D03*
%TO.P,J4,2,Pin_2*%
%TO.N,unconnected-(J4-Pin_2-Pad2)*%
X78200000Y-25400000D03*
%TO.P,J4,3,Pin_3*%
%TO.N,unconnected-(J4-Pin_3-Pad3)*%
X75660000Y-25400000D03*
%TO.P,J4,4,Pin_4*%
%TO.N,GND*%
X73120000Y-25400000D03*
%TO.P,J4,5,Pin_5*%
%TO.N,Net-(J4-Pin_5)*%
X73120001Y-27940000D03*
%TO.P,J4,6,Pin_6*%
%TO.N,Net-(J4-Pin_6)*%
X75660000Y-27940000D03*
%TO.P,J4,7,Pin_7*%
%TO.N,Net-(J4-Pin_7)*%
X78200000Y-27940000D03*
%TO.P,J4,8,Pin_8*%
%TO.N,Net-(J4-Pin_8)*%
X80740000Y-27940000D03*
%TD*%
D17*
%TO.P,J9,1,Pin_1*%
%TO.N,Net-(J9-Pin_1)*%
X206560000Y-27980000D03*
%TO.P,J9,2,Pin_2*%
%TO.N,Net-(J9-Pin_2)*%
X206560000Y-30520000D03*
%TO.P,J9,3,Pin_3*%
%TO.N,Net-(J9-Pin_3)*%
X206560000Y-33060000D03*
%TO.P,J9,4,Pin_4*%
%TO.N,Net-(J9-Pin_4)*%
X206560000Y-35600000D03*
%TO.P,J9,5,Pin_5*%
%TO.N,Net-(J9-Pin_5)*%
X206560000Y-38140000D03*
%TO.P,J9,6,Pin_6*%
%TO.N,Net-(J9-Pin_6)*%
X206560000Y-40680000D03*
%TO.P,J9,7,Pin_7*%
%TO.N,Net-(J9-Pin_7)*%
X206560000Y-43220000D03*
%TO.P,J9,8,Pin_8*%
%TO.N,Net-(J9-Pin_8)*%
X206560000Y-45760000D03*
%TO.P,J9,9,Pin_9*%
%TO.N,Net-(J9-Pin_9)*%
X206560000Y-48300000D03*
%TO.P,J9,10,Pin_10*%
%TO.N,Net-(J9-Pin_10)*%
X206560000Y-50840000D03*
%TO.P,J9,11,Pin_11*%
%TO.N,Net-(J9-Pin_11)*%
X206560000Y-53380000D03*
%TO.P,J9,12,Pin_12*%
%TO.N,Net-(J9-Pin_12)*%
X206560000Y-55920000D03*
%TO.P,J9,13,Pin_13*%
%TO.N,Net-(J9-Pin_13)*%
X206560000Y-58460000D03*
%TO.P,J9,14,Pin_14*%
%TO.N,Net-(J9-Pin_14)*%
X206560000Y-61000000D03*
%TO.P,J9,15,Pin_15*%
%TO.N,Net-(J9-Pin_15)*%
X206560000Y-63540000D03*
%TO.P,J9,16,Pin_16*%
%TO.N,Net-(J9-Pin_16)*%
X206560000Y-66080000D03*
%TO.P,J9,17,Pin_17*%
%TO.N,unconnected-(J9-Pin_17-Pad17)*%
X206560000Y-68620000D03*
%TO.P,J9,18,Pin_18*%
%TO.N,unconnected-(J9-Pin_18-Pad18)*%
X209100000Y-68620000D03*
%TO.P,J9,19,Pin_19*%
%TO.N,GND*%
X209100000Y-66080000D03*
%TO.P,J9,20,Pin_20*%
%TO.N,+3.3V*%
X209100000Y-63540000D03*
%TO.P,J9,21,Pin_21*%
%TO.N,+5V*%
X209100000Y-61000000D03*
%TO.P,J9,22,Pin_22*%
%TO.N,GND*%
X209100000Y-58460000D03*
%TO.P,J9,23,Pin_23*%
%TO.N,Net-(J9-Pin_23)*%
X209100000Y-55920000D03*
%TO.P,J9,24,Pin_24*%
%TO.N,Net-(J9-Pin_24)*%
X209100000Y-53380000D03*
%TO.P,J9,25,Pin_25*%
%TO.N,Net-(J9-Pin_25)*%
X209100000Y-50840000D03*
%TO.P,J9,26,Pin_26*%
%TO.N,Net-(J9-Pin_26)*%
X209100000Y-48300000D03*
%TO.P,J9,27,Pin_27*%
%TO.N,Net-(J9-Pin_27)*%
X209100000Y-45760000D03*
%TO.P,J9,28,Pin_28*%
%TO.N,Net-(J9-Pin_28)*%
X209100000Y-43220000D03*
%TO.P,J9,29,Pin_29*%
%TO.N,Net-(J9-Pin_29)*%
X209100000Y-40680000D03*
%TO.P,J9,30,Pin_30*%
%TO.N,Net-(J9-Pin_30)*%
X209100000Y-38140000D03*
%TO.P,J9,31,Pin_31*%
%TO.N,Net-(J9-Pin_31)*%
X209100000Y-35600000D03*
%TO.P,J9,32,Pin_32*%
%TO.N,Net-(J9-Pin_32)*%
X209100000Y-33060000D03*
%TO.P,J9,33,Pin_33*%
%TO.N,Net-(J9-Pin_33)*%
X209100000Y-30520000D03*
%TO.P,J9,34,Pin_34*%
%TO.N,Net-(J9-Pin_34)*%
X209100000Y-27980000D03*
%TD*%
D18*
%TO.P,JP1,1,A*%
%TO.N,Net-(J1-Pin_8)*%
X185880000Y-33100000D03*
D19*
%TO.P,JP1,2,C*%
%TO.N,Net-(J9-Pin_1)*%
X187180000Y-33100000D03*
D20*
%TO.P,JP1,3,B*%
%TO.N,GND*%
X188480000Y-33100000D03*
%TD*%
D18*
%TO.P,JP11,1,A*%
%TO.N,Net-(J3-Pin_6)*%
X104800000Y-32942500D03*
D19*
%TO.P,JP11,2,C*%
%TO.N,Net-(J9-Pin_11)*%
X106100000Y-32942500D03*
D20*
%TO.P,JP11,3,B*%
%TO.N,GND*%
X107400000Y-32942500D03*
%TD*%
D18*
%TO.P,JP16,1,A*%
%TO.N,Net-(J4-Pin_5)*%
X64400000Y-33100000D03*
D19*
%TO.P,JP16,2,C*%
%TO.N,Net-(J9-Pin_16)*%
X65700000Y-33100000D03*
D20*
%TO.P,JP16,3,B*%
%TO.N,GND*%
X67000000Y-33100000D03*
%TD*%
D18*
%TO.P,JP10,1,A*%
%TO.N,Net-(J3-Pin_7)*%
X112980000Y-32880000D03*
D19*
%TO.P,JP10,2,C*%
%TO.N,Net-(J9-Pin_10)*%
X114280000Y-32880000D03*
D20*
%TO.P,JP10,3,B*%
%TO.N,GND*%
X115580000Y-32880000D03*
%TD*%
D18*
%TO.P,JP13,1,A*%
%TO.N,Net-(J4-Pin_8)*%
X88500000Y-33100000D03*
D19*
%TO.P,JP13,2,C*%
%TO.N,Net-(J9-Pin_13)*%
X89800000Y-33100000D03*
D20*
%TO.P,JP13,3,B*%
%TO.N,GND*%
X91100000Y-33100000D03*
%TD*%
D18*
%TO.P,JP6,1,A*%
%TO.N,Net-(J2-Pin_7)*%
X145300000Y-33130000D03*
D19*
%TO.P,JP6,2,C*%
%TO.N,Net-(J9-Pin_6)*%
X146600000Y-33130000D03*
D20*
%TO.P,JP6,3,B*%
%TO.N,GND*%
X147900000Y-33130000D03*
%TD*%
D18*
%TO.P,JP15,1,A*%
%TO.N,Net-(J4-Pin_6)*%
X72400000Y-33000000D03*
D19*
%TO.P,JP15,2,C*%
%TO.N,Net-(J9-Pin_15)*%
X73700000Y-33000000D03*
D20*
%TO.P,JP15,3,B*%
%TO.N,GND*%
X75000000Y-33000000D03*
%TD*%
D18*
%TO.P,JP3,1,A*%
%TO.N,Net-(J1-Pin_6)*%
X169780000Y-33000000D03*
D19*
%TO.P,JP3,2,C*%
%TO.N,Net-(J9-Pin_3)*%
X171080000Y-33000000D03*
D20*
%TO.P,JP3,3,B*%
%TO.N,GND*%
X172380000Y-33000000D03*
%TD*%
D18*
%TO.P,JP12,1,A*%
%TO.N,Net-(J3-Pin_5)*%
X96900000Y-33100000D03*
D19*
%TO.P,JP12,2,C*%
%TO.N,Net-(J9-Pin_12)*%
X98200000Y-33100000D03*
D20*
%TO.P,JP12,3,B*%
%TO.N,GND*%
X99500000Y-33100000D03*
%TD*%
D18*
%TO.P,JP2,1,A*%
%TO.N,Net-(J1-Pin_7)*%
X177880000Y-33042500D03*
D19*
%TO.P,JP2,2,C*%
%TO.N,Net-(J9-Pin_2)*%
X179180000Y-33042500D03*
D20*
%TO.P,JP2,3,B*%
%TO.N,GND*%
X180480000Y-33042500D03*
%TD*%
D18*
%TO.P,JP14,1,A*%
%TO.N,Net-(J4-Pin_7)*%
X80400000Y-33100000D03*
D19*
%TO.P,JP14,2,C*%
%TO.N,Net-(J9-Pin_14)*%
X81700000Y-33100000D03*
D20*
%TO.P,JP14,3,B*%
%TO.N,GND*%
X83000000Y-33100000D03*
%TD*%
D18*
%TO.P,JP9,1,A*%
%TO.N,Net-(J3-Pin_8)*%
X120900000Y-33142500D03*
D19*
%TO.P,JP9,2,C*%
%TO.N,Net-(J9-Pin_9)*%
X122200000Y-33142500D03*
D20*
%TO.P,JP9,3,B*%
%TO.N,GND*%
X123500000Y-33142500D03*
%TD*%
D18*
%TO.P,JP4,1,A*%
%TO.N,Net-(J1-Pin_5)*%
X161880000Y-33100000D03*
D19*
%TO.P,JP4,2,C*%
%TO.N,Net-(J9-Pin_4)*%
X163180000Y-33100000D03*
D20*
%TO.P,JP4,3,B*%
%TO.N,GND*%
X164480000Y-33100000D03*
%TD*%
D18*
%TO.P,JP8,1,A*%
%TO.N,Net-(J2-Pin_5)*%
X129400000Y-33130000D03*
D19*
%TO.P,JP8,2,C*%
%TO.N,Net-(J9-Pin_8)*%
X130700000Y-33130000D03*
D20*
%TO.P,JP8,3,B*%
%TO.N,GND*%
X132000000Y-33130000D03*
%TD*%
D18*
%TO.P,JP7,1,A*%
%TO.N,Net-(J2-Pin_6)*%
X137300000Y-33130000D03*
D19*
%TO.P,JP7,2,C*%
%TO.N,Net-(J9-Pin_7)*%
X138600000Y-33130000D03*
D20*
%TO.P,JP7,3,B*%
%TO.N,GND*%
X139900000Y-33130000D03*
%TD*%
D18*
%TO.P,JP5,1,A*%
%TO.N,Net-(J2-Pin_8)*%
X153300000Y-33230000D03*
D19*
%TO.P,JP5,2,C*%
%TO.N,Net-(J9-Pin_5)*%
X154600000Y-33230000D03*
D20*
%TO.P,JP5,3,B*%
%TO.N,GND*%
X155900000Y-33230000D03*
%TD*%
D11*
%TO.P,C10,1*%
%TO.N,+3.3V*%
X188800000Y-35937500D03*
%TO.P,C10,2*%
%TO.N,GND*%
X188800000Y-39062500D03*
%TD*%
D21*
%TO.N,Net-(U10-~E)*%
X69300000Y-37600000D03*
%TO.N,GND*%
X72200000Y-38700000D03*
%TO.N,Net-(U10-~E)*%
X77200000Y-37600000D03*
%TO.N,GND*%
X80100000Y-38700000D03*
%TO.N,Net-(U10-~E)*%
X85300000Y-37600000D03*
%TO.N,GND*%
X88100000Y-38700000D03*
%TO.N,Net-(U10-~E)*%
X93300000Y-37600000D03*
%TO.N,GND*%
X96500000Y-38700000D03*
%TO.N,Net-(U10-~E)*%
X101500000Y-37600000D03*
%TO.N,GND*%
X104600000Y-38700000D03*
%TO.N,Net-(U10-~E)*%
X109700000Y-37600000D03*
%TO.N,GND*%
X112700000Y-38700000D03*
%TO.N,Net-(U10-~E)*%
X117700000Y-37600000D03*
X125700000Y-37600000D03*
%TO.N,GND*%
X120600000Y-38700000D03*
%TO.N,Net-(U10-~E)*%
X142200000Y-37600000D03*
X134200000Y-37600000D03*
%TO.N,GND*%
X137100000Y-38700000D03*
X153200000Y-38700000D03*
%TO.N,Net-(U10-~E)*%
X150200000Y-37600000D03*
X158300000Y-37600000D03*
%TO.N,GND*%
X161700000Y-38700000D03*
%TO.N,Net-(U10-~E)*%
X166700000Y-37500000D03*
%TO.N,GND*%
X169600000Y-38700000D03*
%TO.N,Net-(U10-~E)*%
X174600000Y-37600000D03*
%TO.N,GND*%
X177500000Y-38700000D03*
%TO.N,Net-(U10-~E)*%
X182600000Y-37600000D03*
X190700000Y-37600000D03*
%TO.N,GND*%
X185500000Y-38700000D03*
X172380000Y-33000000D03*
X115600000Y-32800000D03*
X193500000Y-67200000D03*
%TO.N,Net-(J1-Pin_8)*%
X185880000Y-33100000D03*
%TO.N,GND*%
X160500000Y-75300000D03*
X196900000Y-34700000D03*
X188400000Y-33200000D03*
X91100000Y-33100000D03*
X193400000Y-29200000D03*
X107400000Y-33000000D03*
X152500000Y-43900000D03*
X164400000Y-33200000D03*
X183800000Y-75500000D03*
X188300000Y-75400000D03*
X145200000Y-38700000D03*
X197600000Y-59000000D03*
X68600000Y-51100000D03*
X83000000Y-33100000D03*
X64600000Y-37600000D03*
X123500000Y-33100000D03*
X169740000Y-75364999D03*
X147900000Y-33200000D03*
X139900000Y-33200000D03*
X179200000Y-75400000D03*
X132000000Y-33200000D03*
X155900000Y-33300000D03*
X180500000Y-33100000D03*
X145100000Y-44400000D03*
X167700000Y-43000000D03*
X204800000Y-67600000D03*
X99500000Y-33100000D03*
X178300000Y-62200000D03*
X165070000Y-75329999D03*
X67000000Y-33100000D03*
X175000000Y-42500000D03*
X174500000Y-75400000D03*
X183200000Y-41700000D03*
X129200000Y-38700000D03*
X189750000Y-60400000D03*
X159900000Y-43300000D03*
X75200000Y-55700000D03*
X71000000Y-42900000D03*
X202000000Y-29800000D03*
X157600000Y-77600000D03*
X74900000Y-33000000D03*
%TO.N,Net-(J1-Pin_6)*%
X169780000Y-33100000D03*
%TO.N,Net-(J1-Pin_7)*%
X177880000Y-33100000D03*
%TO.N,Net-(J1-Pin_5)*%
X161880000Y-33100000D03*
%TO.N,+3.3V*%
X139800000Y-35780000D03*
X164280000Y-35700000D03*
X131750000Y-35780000D03*
%TO.N,Net-(J9-Pin_1)*%
X187180000Y-33100000D03*
%TO.N,+3.3V*%
X172280000Y-35700000D03*
X107400000Y-35700000D03*
X123300000Y-35700000D03*
%TO.N,Net-(J9-Pin_1)*%
X187000000Y-42600000D03*
%TO.N,+3.3V*%
X196800000Y-76700000D03*
X180280000Y-35700000D03*
X83000000Y-35700000D03*
X155850000Y-35780000D03*
X66900000Y-35700000D03*
X115400000Y-35700000D03*
X75000000Y-35700000D03*
X90900000Y-35700000D03*
X147750000Y-35780000D03*
X188280000Y-35700000D03*
X99200000Y-35700000D03*
%TO.N,Net-(J2-Pin_7)*%
X145400000Y-33200000D03*
%TO.N,Net-(J2-Pin_8)*%
X153400000Y-33200000D03*
%TO.N,Net-(J2-Pin_6)*%
X137300000Y-33130000D03*
%TO.N,Net-(J2-Pin_5)*%
X129400000Y-33230000D03*
%TO.N,Net-(J3-Pin_7)*%
X113000000Y-32900000D03*
%TO.N,Net-(J3-Pin_6)*%
X104800000Y-32900000D03*
%TO.N,Net-(J3-Pin_5)*%
X96900000Y-33100000D03*
%TO.N,Net-(J3-Pin_8)*%
X120900000Y-33200000D03*
%TO.N,Net-(J4-Pin_8)*%
X88500000Y-33100000D03*
%TO.N,Net-(J4-Pin_6)*%
X72400000Y-33000000D03*
%TO.N,Net-(J4-Pin_5)*%
X64500000Y-33100000D03*
%TO.N,Net-(J4-Pin_7)*%
X80400000Y-33100000D03*
%TO.N,+5V*%
X92100000Y-81800000D03*
X198500000Y-78200000D03*
%TO.N,Net-(J6-Pin_5)*%
X147600000Y-72200000D03*
%TO.N,Net-(J6-Pin_4)*%
X148700000Y-71200000D03*
%TO.N,Net-(U10-~E)*%
X188500000Y-69600000D03*
%TO.N,Net-(J9-Pin_24)*%
X193000000Y-59200000D03*
%TO.N,Net-(J9-Pin_33)*%
X184700000Y-69700000D03*
%TO.N,Net-(J9-Pin_14)*%
X81800000Y-41720000D03*
X81700000Y-33100000D03*
X103197392Y-52600000D03*
%TO.N,Net-(J9-Pin_26)*%
X193000000Y-56900000D03*
%TO.N,Net-(J9-Pin_13)*%
X89800000Y-41620000D03*
X89800000Y-33100000D03*
X101924601Y-52600000D03*
%TO.N,Net-(J9-Pin_25)*%
X193000000Y-58000000D03*
%TO.N,Net-(J9-Pin_11)*%
X99379018Y-52600000D03*
X106200000Y-41550000D03*
X106100000Y-33000000D03*
%TO.N,Net-(J9-Pin_5)*%
X154660000Y-41640000D03*
X199500000Y-45100000D03*
X154600000Y-33230000D03*
%TO.N,Net-(J9-Pin_15)*%
X73700000Y-33100000D03*
X104470184Y-52600000D03*
X73800000Y-41720000D03*
%TO.N,Net-(J9-Pin_29)*%
X182100000Y-60400000D03*
%TO.N,Net-(J9-Pin_7)*%
X98600000Y-50500000D03*
X138660000Y-41740000D03*
X138600000Y-33130000D03*
%TO.N,Net-(J9-Pin_6)*%
X146660000Y-41740000D03*
X146600000Y-33130000D03*
X201300000Y-45900000D03*
%TO.N,Net-(J9-Pin_10)*%
X98106226Y-52599999D03*
X114280000Y-32880000D03*
X114200000Y-41550000D03*
%TO.N,Net-(J9-Pin_23)*%
X193000000Y-60400000D03*
%TO.N,Net-(J9-Pin_16)*%
X65800000Y-41620000D03*
X106458511Y-52678511D03*
X65750000Y-33250000D03*
%TO.N,Net-(J9-Pin_34)*%
X187200000Y-69700000D03*
%TO.N,Net-(J9-Pin_32)*%
X182100000Y-69700000D03*
%TO.N,Net-(J9-Pin_2)*%
X179080000Y-33100000D03*
X125240000Y-56400000D03*
X179000000Y-42700000D03*
X125240000Y-54200000D03*
%TO.N,Net-(J9-Pin_12)*%
X100651809Y-52600000D03*
X98100000Y-33100000D03*
X98200000Y-41450000D03*
%TO.N,Net-(J9-Pin_3)*%
X171080000Y-33000000D03*
X196800000Y-42800000D03*
X171000000Y-42700000D03*
%TO.N,Net-(J9-Pin_30)*%
X179600000Y-60400000D03*
%TO.N,Net-(J9-Pin_9)*%
X96700000Y-52400000D03*
X122200000Y-33100000D03*
X122200000Y-41450000D03*
%TO.N,Net-(J9-Pin_28)*%
X184700000Y-60400000D03*
%TO.N,Net-(J9-Pin_31)*%
X179600000Y-69700000D03*
%TO.N,Net-(J9-Pin_8)*%
X130700000Y-33230000D03*
X130660000Y-41640000D03*
X94000000Y-51500000D03*
%TO.N,Net-(J9-Pin_4)*%
X163000000Y-42600000D03*
X163080000Y-33200000D03*
X198100000Y-44000000D03*
%TO.N,Net-(J9-Pin_27)*%
X187200000Y-60400000D03*
%TD*%
D22*
%TO.N,GND*%
X80100000Y-38700000D02*
X72200000Y-38700000D01*
D23*
%TO.N,Net-(U10-~E)*%
X85300000Y-37600000D02*
X69300000Y-37600000D01*
D22*
%TO.N,GND*%
X88100000Y-38700000D02*
X80200000Y-38700000D01*
D23*
%TO.N,Net-(U10-~E)*%
X93300000Y-37600000D02*
X85300000Y-37600000D01*
X109700000Y-37600000D02*
X93300000Y-37600000D01*
X117700000Y-37600000D02*
X109700000Y-37600000D01*
X125700000Y-37600000D02*
X117700000Y-37600000D01*
X142200000Y-37600000D02*
X134200000Y-37600000D01*
D22*
%TO.N,GND*%
X137100000Y-38700000D02*
X120600000Y-38700000D01*
X161700000Y-38700000D02*
X153200000Y-38700000D01*
X169600000Y-38700000D02*
X161700000Y-38700000D01*
X177500000Y-38700000D02*
X169600000Y-38700000D01*
D23*
%TO.N,Net-(U10-~E)*%
X182600000Y-37600000D02*
X142200000Y-37600000D01*
X190700000Y-37600000D02*
X198000000Y-37600000D01*
D22*
%TO.N,GND*%
X185500000Y-38700000D02*
X177500000Y-38700000D01*
X72200000Y-38700000D02*
X67525000Y-38700000D01*
X80200000Y-38700000D02*
X80100000Y-38700000D01*
X88200000Y-38700000D02*
X88100000Y-38700000D01*
X96500000Y-38700000D02*
X88200000Y-38700000D01*
X104600000Y-38700000D02*
X96500000Y-38700000D01*
X112700000Y-38700000D02*
X104600000Y-38700000D01*
X120600000Y-38700000D02*
X112700000Y-38700000D01*
X137200000Y-38700000D02*
X137100000Y-38700000D01*
X153200000Y-38700000D02*
X137200000Y-38700000D01*
D23*
%TO.N,Net-(U10-~E)*%
X134200000Y-37600000D02*
X125700000Y-37600000D01*
D24*
%TO.N,+3.3V*%
X196800000Y-76700000D02*
X208300000Y-76700000D01*
X208300000Y-76700000D02*
X213700000Y-71300000D01*
X213700000Y-71300000D02*
X213700000Y-65250000D01*
D23*
%TO.N,Net-(U10-~E)*%
X203800000Y-54300000D02*
X188500000Y-69600000D01*
X188900000Y-37600000D02*
X182600000Y-37600000D01*
X188900000Y-37600000D02*
X190700000Y-37600000D01*
X198000000Y-37600000D02*
X203800000Y-43400000D01*
X203800000Y-43400000D02*
X203800000Y-54300000D01*
D25*
%TO.N,Net-(J9-Pin_33)*%
X184700000Y-69700000D02*
X183500000Y-70900000D01*
X183500000Y-70900000D02*
X181465686Y-70900000D01*
X181465686Y-70900000D02*
X166861148Y-85504538D01*
X166861148Y-85504538D02*
X111318704Y-85478704D01*
X111318704Y-85478704D02*
X102380000Y-76540000D01*
%TO.N,Net-(J9-Pin_34)*%
X187200000Y-69700000D02*
X185600000Y-71300000D01*
X185600000Y-71300000D02*
X181631372Y-71300000D01*
X181631372Y-71300000D02*
X167026757Y-85904615D01*
X167026757Y-85904615D02*
X109177708Y-85877708D01*
X109177708Y-85877708D02*
X99840000Y-76540000D01*
%TO.N,Net-(J9-Pin_29)*%
X182100000Y-60400000D02*
X181000000Y-59300000D01*
X167827207Y-69707107D02*
X167827207Y-74966909D01*
X181000000Y-59300000D02*
X178234314Y-59300000D01*
X178234314Y-59300000D02*
X167827207Y-69707107D01*
X167827207Y-74966909D02*
X158893284Y-83900832D01*
X158893284Y-83900832D02*
X119882688Y-83882688D01*
X119882688Y-83882688D02*
X112540000Y-76540000D01*
%TO.N,Net-(J9-Pin_28)*%
X115080000Y-76540000D02*
X122023684Y-83483684D01*
X167427207Y-74801223D02*
X167427207Y-69541421D01*
X167427207Y-69541421D02*
X178068628Y-58900000D01*
X122023684Y-83483684D02*
X158727675Y-83500755D01*
X158727675Y-83500755D02*
X167427207Y-74801223D01*
X178068628Y-58900000D02*
X183200000Y-58900000D01*
X183200000Y-58900000D02*
X184700000Y-60400000D01*
%TO.N,Net-(J9-Pin_27)*%
X187200000Y-60400000D02*
X185300000Y-58500000D01*
X167027207Y-69375735D02*
X167027207Y-74635537D01*
X185300000Y-58500000D02*
X177902942Y-58500000D01*
X177902942Y-58500000D02*
X167027207Y-69375735D01*
X117620000Y-77520000D02*
X117620000Y-76540000D01*
X167027207Y-74635537D02*
X158562066Y-83100678D01*
X158562066Y-83100678D02*
X123184224Y-83084224D01*
X123184224Y-83084224D02*
X117620000Y-77520000D01*
D22*
%TO.N,+5V*%
X80700000Y-61300000D02*
X81800000Y-61300000D01*
X81800000Y-61300000D02*
X84600000Y-61300000D01*
X85000000Y-64500000D02*
X81800000Y-61300000D01*
%TO.N,GND*%
X87110051Y-61310051D02*
X89089949Y-63289949D01*
%TO.N,+5V*%
X84600000Y-61300000D02*
X84600000Y-64100000D01*
X84600000Y-64100000D02*
X85000000Y-64500000D01*
%TO.N,GND*%
X189490000Y-38700000D02*
X185500000Y-38700000D01*
X67525000Y-38700000D02*
X67400000Y-38825000D01*
%TO.N,+3.3V*%
X185060000Y-25360000D02*
X178080000Y-25360000D01*
D24*
X211990000Y-63540000D02*
X213700000Y-65250000D01*
D22*
X191000000Y-34400000D02*
X191000000Y-31300000D01*
X188280000Y-35700000D02*
X189700000Y-35700000D01*
D24*
X211990000Y-63540000D02*
X212060000Y-63540000D01*
X212660000Y-63540000D02*
X213700000Y-62500000D01*
D26*
X148400000Y-23300000D02*
X119000000Y-23300000D01*
D24*
X189200000Y-23300000D02*
X207900000Y-23300000D01*
D22*
X191000000Y-31300000D02*
X185060000Y-25360000D01*
X187140000Y-25360000D02*
X189200000Y-23300000D01*
D23*
%TO.N,Net-(J9-Pin_1)*%
X128000000Y-55200000D02*
X133800000Y-49400000D01*
D26*
%TO.N,+3.3V*%
X180800000Y-23300000D02*
X189200000Y-23300000D01*
D23*
%TO.N,Net-(J9-Pin_1)*%
X180200000Y-49400000D02*
X187000000Y-42600000D01*
D26*
%TO.N,+3.3V*%
X82840000Y-23300000D02*
X80740000Y-25400000D01*
D24*
X212060000Y-63540000D02*
X213700000Y-61900000D01*
D26*
X180800000Y-23300000D02*
X148400000Y-23300000D01*
X119000000Y-23300000D02*
X82840000Y-23300000D01*
D23*
%TO.N,Net-(J9-Pin_1)*%
X133800000Y-49400000D02*
X180200000Y-49400000D01*
D24*
%TO.N,+3.3V*%
X213700000Y-61900000D02*
X213700000Y-62500000D01*
X207900000Y-23300000D02*
X213700000Y-29100000D01*
D22*
X189700000Y-35700000D02*
X191000000Y-34400000D01*
D24*
X213700000Y-62500000D02*
X213700000Y-64300000D01*
D23*
%TO.N,Net-(J9-Pin_1)*%
X122700000Y-56300000D02*
X123800000Y-55200000D01*
D24*
%TO.N,+3.3V*%
X211990000Y-63540000D02*
X212660000Y-63540000D01*
D23*
%TO.N,Net-(J9-Pin_1)*%
X122700000Y-61300000D02*
X122700000Y-56300000D01*
D26*
%TO.N,+3.3V*%
X180140000Y-23300000D02*
X178080000Y-25360000D01*
D24*
X212660000Y-63540000D02*
X212940000Y-63540000D01*
D26*
X180800000Y-23300000D02*
X180140000Y-23300000D01*
D24*
X209100000Y-63540000D02*
X211990000Y-63540000D01*
X212940000Y-63540000D02*
X213700000Y-64300000D01*
D26*
X148400000Y-23300000D02*
X147890000Y-23300000D01*
X119000000Y-23300000D02*
X115000000Y-23300000D01*
D22*
X188280000Y-35700000D02*
X66900000Y-35700000D01*
D26*
X147890000Y-23300000D02*
X145700000Y-25490000D01*
D23*
%TO.N,Net-(J9-Pin_1)*%
X123800000Y-55200000D02*
X128000000Y-55200000D01*
D24*
%TO.N,+3.3V*%
X213700000Y-64300000D02*
X213700000Y-65250000D01*
X213700000Y-29100000D02*
X213700000Y-61900000D01*
D22*
X185060000Y-25360000D02*
X187140000Y-25360000D01*
D26*
X115000000Y-23300000D02*
X114350000Y-23950000D01*
X114350000Y-23950000D02*
X113040000Y-25260000D01*
D22*
%TO.N,+5V*%
X68500000Y-80180000D02*
X65900000Y-77580000D01*
X92100000Y-81800000D02*
X89200000Y-84700000D01*
X65900000Y-77580000D02*
X65900000Y-64400000D01*
X65900000Y-64400000D02*
X71700000Y-58600000D01*
X89200000Y-84700000D02*
X70000000Y-84700000D01*
X68500000Y-80180000D02*
X71560000Y-77120000D01*
X71700000Y-58600000D02*
X78000000Y-58600000D01*
X70000000Y-84700000D02*
X68500000Y-83200000D01*
X78000000Y-58600000D02*
X80700000Y-61300000D01*
X68500000Y-83200000D02*
X68500000Y-80180000D01*
D25*
%TO.N,Net-(J6-Pin_5)*%
X140480000Y-61300000D02*
X140480000Y-65080000D01*
X140480000Y-65080000D02*
X147600000Y-72200000D01*
%TO.N,Net-(J6-Pin_4)*%
X140935635Y-60200000D02*
X141580000Y-60844365D01*
X141580000Y-64080000D02*
X148700000Y-71200000D01*
X139040000Y-60200000D02*
X140935635Y-60200000D01*
X141580000Y-60844365D02*
X141580000Y-64080000D01*
X137940000Y-61300000D02*
X139040000Y-60200000D01*
%TO.N,Net-(J7-Pin_1)*%
X91240000Y-80060000D02*
X76240000Y-80060000D01*
X94760000Y-76540000D02*
X91240000Y-80060000D01*
X76240000Y-80060000D02*
X74100000Y-82200000D01*
%TO.N,Net-(J7-Pin_2)*%
X89100000Y-79660000D02*
X74100000Y-79660000D01*
X92220000Y-76540000D02*
X89100000Y-79660000D01*
%TO.N,Net-(J7-Pin_4)*%
X78120000Y-78600000D02*
X74100000Y-74580000D01*
X85080000Y-78600000D02*
X78120000Y-78600000D01*
X87140000Y-76540000D02*
X85080000Y-78600000D01*
%TO.N,Net-(J7-Pin_5)*%
X95349200Y-74589200D02*
X76789200Y-74589200D01*
X75100000Y-72900000D02*
X73240001Y-72900000D01*
X97300000Y-76540000D02*
X95349200Y-74589200D01*
X73240001Y-72900000D02*
X71560000Y-74580001D01*
X76789200Y-74589200D02*
X75100000Y-72900000D01*
%TO.N,Net-(J7-Pin_3)*%
X87157711Y-79062289D02*
X76042289Y-79062289D01*
X89680000Y-76540000D02*
X87157711Y-79062289D01*
X76042289Y-79062289D02*
X74100000Y-77120000D01*
D23*
%TO.N,Net-(J8-Pin_2)*%
X120020000Y-71600000D02*
X130320000Y-61300000D01*
X78200000Y-71600000D02*
X120020000Y-71600000D01*
X74040000Y-67440000D02*
X78200000Y-71600000D01*
%TO.N,Net-(J9-Pin_14)*%
X81800000Y-48956855D02*
X81800000Y-41720000D01*
X98997392Y-56800000D02*
X89643145Y-56800000D01*
X103197392Y-52600000D02*
X98997392Y-56800000D01*
X89643145Y-56800000D02*
X81800000Y-48956855D01*
%TO.N,Net-(J9-Pin_13)*%
X89974516Y-56000000D02*
X87100000Y-53125484D01*
X87100000Y-53125484D02*
X87100000Y-44320000D01*
X101924601Y-52600000D02*
X98524601Y-56000000D01*
X87100000Y-44320000D02*
X89800000Y-41620000D01*
X98524601Y-56000000D02*
X89974516Y-56000000D01*
%TO.N,Net-(J9-Pin_11)*%
X100950000Y-46800000D02*
X106200000Y-41550000D01*
X99379018Y-52600000D02*
X97579018Y-54400000D01*
X90637258Y-54400000D02*
X88700000Y-52462742D01*
X88700000Y-49137258D02*
X91037258Y-46800000D01*
X91037258Y-46800000D02*
X100950000Y-46800000D01*
X88700000Y-52462742D02*
X88700000Y-49137258D01*
X97579018Y-54400000D02*
X90637258Y-54400000D01*
%TO.N,Net-(J9-Pin_5)*%
X189000000Y-55600000D02*
X199500000Y-45100000D01*
X148500000Y-80700000D02*
X173600000Y-55600000D01*
X129400000Y-80700000D02*
X148500000Y-80700000D01*
X173600000Y-55600000D02*
X189000000Y-55600000D01*
X125240000Y-76540000D02*
X129400000Y-80700000D01*
%TO.N,Net-(J9-Pin_15)*%
X104470184Y-52600000D02*
X99470184Y-57600000D01*
X89311774Y-57600000D02*
X73800000Y-42088226D01*
X99470184Y-57600000D02*
X89311774Y-57600000D01*
X73800000Y-42088226D02*
X73800000Y-41720000D01*
%TO.N,Net-(J9-Pin_7)*%
X132660000Y-41740000D02*
X138660000Y-41740000D01*
X123900000Y-50500000D02*
X132660000Y-41740000D01*
X98600000Y-50500000D02*
X123900000Y-50500000D01*
%TO.N,Net-(J9-Pin_6)*%
X190100000Y-57100000D02*
X201300000Y-45900000D01*
X150800000Y-81700000D02*
X175400000Y-57100000D01*
X175400000Y-57100000D02*
X190100000Y-57100000D01*
X122700000Y-76540000D02*
X127860000Y-81700000D01*
X127860000Y-81700000D02*
X150800000Y-81700000D01*
%TO.N,Net-(J9-Pin_10)*%
X97106225Y-53600000D02*
X90968629Y-53600000D01*
X98106226Y-52599999D02*
X97106225Y-53600000D01*
X90968629Y-53600000D02*
X89500000Y-52131371D01*
X91368629Y-47600000D02*
X108150000Y-47600000D01*
X108150000Y-47600000D02*
X114200000Y-41550000D01*
X89500000Y-52131371D02*
X89500000Y-49468629D01*
X89500000Y-49468629D02*
X91368629Y-47600000D01*
%TO.N,Net-(J9-Pin_16)*%
X106421489Y-52678511D02*
X100700000Y-58400000D01*
X106458511Y-52678511D02*
X106421489Y-52678511D01*
X100700000Y-58400000D02*
X82580000Y-58400000D01*
X82580000Y-58400000D02*
X65800000Y-41620000D01*
D25*
%TO.N,Net-(J9-Pin_32)*%
X182100000Y-69700000D02*
X166695539Y-85104461D01*
X113459700Y-85079700D02*
X104920000Y-76540000D01*
X166695539Y-85104461D02*
X113459700Y-85079700D01*
D23*
%TO.N,Net-(J9-Pin_2)*%
X174400000Y-47300000D02*
X179000000Y-42700000D01*
X132100000Y-47300000D02*
X174400000Y-47300000D01*
X125240000Y-56400000D02*
X125240000Y-61300000D01*
X125240000Y-54200000D02*
X125240000Y-54160000D01*
X125240000Y-54160000D02*
X132100000Y-47300000D01*
%TO.N,Net-(J9-Pin_12)*%
X90305887Y-55200000D02*
X87900000Y-52794113D01*
X95255887Y-41450000D02*
X98200000Y-41450000D01*
X98051809Y-55200000D02*
X90305887Y-55200000D01*
X87900000Y-52794113D02*
X87900000Y-48805887D01*
X100651809Y-52600000D02*
X98051809Y-55200000D01*
X87900000Y-48805887D02*
X95255887Y-41450000D01*
%TO.N,Net-(J9-Pin_3)*%
X184700000Y-52600000D02*
X187000000Y-52600000D01*
X130320000Y-77120000D02*
X130320000Y-76540000D01*
X170400000Y-52600000D02*
X144500000Y-78500000D01*
X187000000Y-52600000D02*
X196800000Y-42800000D01*
X144500000Y-78500000D02*
X131700000Y-78500000D01*
X184700000Y-52600000D02*
X170400000Y-52600000D01*
X131700000Y-78500000D02*
X130320000Y-77120000D01*
D25*
%TO.N,Net-(J9-Pin_30)*%
X159058893Y-84300909D02*
X117741692Y-84281692D01*
X117741692Y-84281692D02*
X110000000Y-76540000D01*
X168227207Y-69872793D02*
X168227207Y-75132595D01*
X177700000Y-60400000D02*
X168227207Y-69872793D01*
X179600000Y-60400000D02*
X177700000Y-60400000D01*
X168227207Y-75132595D02*
X159058893Y-84300909D01*
D23*
%TO.N,Net-(J9-Pin_9)*%
X90300000Y-49800000D02*
X91700000Y-48400000D01*
X115250000Y-48400000D02*
X122200000Y-41450000D01*
X91700000Y-48400000D02*
X115250000Y-48400000D01*
X90300000Y-51800000D02*
X90300000Y-49800000D01*
X96300000Y-52800000D02*
X91300000Y-52800000D01*
X96700000Y-52400000D02*
X96300000Y-52800000D01*
X91300000Y-52800000D02*
X90300000Y-51800000D01*
D25*
%TO.N,Net-(J9-Pin_31)*%
X179600000Y-71634314D02*
X166529930Y-84704384D01*
X179600000Y-69700000D02*
X179600000Y-71634314D01*
X166529930Y-84704384D02*
X115600696Y-84680696D01*
X115600696Y-84680696D02*
X107460000Y-76540000D01*
D23*
%TO.N,Net-(J9-Pin_8)*%
X92700000Y-51500000D02*
X92100000Y-50900000D01*
X94000000Y-51500000D02*
X92700000Y-51500000D01*
X126660000Y-41640000D02*
X130660000Y-41640000D01*
X119100000Y-49200000D02*
X126660000Y-41640000D01*
X92100000Y-49900000D02*
X92800000Y-49200000D01*
X92100000Y-50900000D02*
X92100000Y-49900000D01*
X92800000Y-49200000D02*
X119100000Y-49200000D01*
%TO.N,Net-(J9-Pin_4)*%
X130940000Y-79700000D02*
X146500000Y-79700000D01*
X188000000Y-54100000D02*
X198100000Y-44000000D01*
X127780000Y-76540000D02*
X130940000Y-79700000D01*
X172100000Y-54100000D02*
X188000000Y-54100000D01*
X146500000Y-79700000D02*
X172100000Y-54100000D01*
%TD*%
%TA.AperFunction,Conductor*%
%TO.N,+3.3V*%
G36*
X205443039Y-23319685D02*
G01*
X205488794Y-23372489D01*
X205500000Y-23424000D01*
X205500000Y-23648638D01*
X205480315Y-23715677D01*
X205463681Y-23736319D01*
X198936319Y-30263681D01*
X198874996Y-30297166D01*
X198848638Y-30300000D01*
X193853429Y-30300000D01*
X193786390Y-30280315D01*
X193740635Y-30227511D01*
X193730691Y-30158353D01*
X193759716Y-30094797D01*
X193794976Y-30066642D01*
X193930623Y-29994137D01*
X193930626Y-29994135D01*
X194075357Y-29875357D01*
X194194135Y-29730626D01*
X194194137Y-29730623D01*
X194207630Y-29705380D01*
X194282396Y-29565501D01*
X194336747Y-29386331D01*
X194355099Y-29200000D01*
X194336747Y-29013669D01*
X194282396Y-28834499D01*
X194282395Y-28834497D01*
X194194137Y-28669376D01*
X194194135Y-28669373D01*
X194075357Y-28524642D01*
X193930626Y-28405864D01*
X193930623Y-28405862D01*
X193765502Y-28317604D01*
X193586333Y-28263253D01*
X193586331Y-28263252D01*
X193400000Y-28244901D01*
X193213668Y-28263252D01*
X193213666Y-28263253D01*
X193034497Y-28317604D01*
X192869376Y-28405862D01*
X192869373Y-28405864D01*
X192724642Y-28524642D01*
X192605864Y-28669373D01*
X192605862Y-28669376D01*
X192517604Y-28834497D01*
X192463253Y-29013666D01*
X192463252Y-29013668D01*
X192444901Y-29200000D01*
X192463252Y-29386331D01*
X192463253Y-29386333D01*
X192517604Y-29565502D01*
X192605862Y-29730623D01*
X192605864Y-29730626D01*
X192724642Y-29875357D01*
X192869373Y-29994135D01*
X192869376Y-29994137D01*
X193005024Y-30066642D01*
X193054868Y-30115604D01*
X193070329Y-30183742D01*
X193046497Y-30249421D01*
X192990940Y-30291790D01*
X192946571Y-30300000D01*
X186451362Y-30300000D01*
X186384323Y-30280315D01*
X186363681Y-30263681D01*
X183000000Y-26900000D01*
X179751362Y-26900000D01*
X179684323Y-26880315D01*
X179663681Y-26863681D01*
X179363271Y-26563271D01*
X179329786Y-26501948D01*
X179334770Y-26432256D01*
X179356663Y-26395057D01*
X179413326Y-26328714D01*
X179413328Y-26328712D01*
X179548450Y-26108213D01*
X179593276Y-25999994D01*
X198494357Y-25999994D01*
X198494357Y-26000005D01*
X198514890Y-26247812D01*
X198514892Y-26247824D01*
X198575936Y-26488881D01*
X198675826Y-26716606D01*
X198811833Y-26924782D01*
X198811836Y-26924785D01*
X198980256Y-27107738D01*
X199176491Y-27260474D01*
X199395190Y-27378828D01*
X199630386Y-27459571D01*
X199875665Y-27500500D01*
X200124335Y-27500500D01*
X200369614Y-27459571D01*
X200604810Y-27378828D01*
X200823509Y-27260474D01*
X201019744Y-27107738D01*
X201188164Y-26924785D01*
X201324173Y-26716607D01*
X201424063Y-26488881D01*
X201485108Y-26247821D01*
X201485109Y-26247812D01*
X201505643Y-26000005D01*
X201505643Y-25999994D01*
X201485109Y-25752187D01*
X201485107Y-25752175D01*
X201424063Y-25511118D01*
X201324173Y-25283393D01*
X201188166Y-25075217D01*
X201150322Y-25034108D01*
X201019744Y-24892262D01*
X200823509Y-24739526D01*
X200823507Y-24739525D01*
X200823506Y-24739524D01*
X200604811Y-24621172D01*
X200604802Y-24621169D01*
X200369616Y-24540429D01*
X200124335Y-24499500D01*
X199875665Y-24499500D01*
X199630383Y-24540429D01*
X199395197Y-24621169D01*
X199395188Y-24621172D01*
X199176493Y-24739524D01*
X198980257Y-24892261D01*
X198811833Y-25075217D01*
X198675826Y-25283393D01*
X198575936Y-25511118D01*
X198514892Y-25752175D01*
X198514890Y-25752187D01*
X198494357Y-25999994D01*
X179593276Y-25999994D01*
X179647417Y-25869285D01*
X179707788Y-25617820D01*
X179728079Y-25360000D01*
X179707788Y-25102179D01*
X179647417Y-24850714D01*
X179548450Y-24611786D01*
X179413325Y-24391283D01*
X179408232Y-24385319D01*
X178621341Y-25172208D01*
X178612553Y-25139409D01*
X178537313Y-25009091D01*
X178464111Y-24935889D01*
X180063681Y-23336319D01*
X180125004Y-23302834D01*
X180151362Y-23300000D01*
X205376000Y-23300000D01*
X205443039Y-23319685D01*
G37*
%TD.AperFunction*%
%TD*%
M02*
