%TF.GenerationSoftware,KiCad,Pcbnew,8.0.2-1*%
%TF.CreationDate,2024-07-06T17:14:09-04:00*%
%TF.ProjectId,boards_v3,626f6172-6473-45f7-9633-2e6b69636164,rev?*%
%TF.SameCoordinates,Original*%
%TF.FileFunction,Copper,L1,Top*%
%TF.FilePolarity,Positive*%
%FSLAX46Y46*%
G04 Gerber Fmt 4.6, Leading zero omitted, Abs format (unit mm)*
G04 Created by KiCad (PCBNEW 8.0.2-1) date 2024-07-06 17:14:09*
%MOMM*%
%LPD*%
G01*
G04 APERTURE LIST*
G04 Aperture macros list*
%AMRoundRect*
0 Rectangle with rounded corners*
0 $1 Rounding radius*
0 $2 $3 $4 $5 $6 $7 $8 $9 X,Y pos of 4 corners*
0 Add a 4 corners polygon primitive as box body*
4,1,4,$2,$3,$4,$5,$6,$7,$8,$9,$2,$3,0*
0 Add four circle primitives for the rounded corners*
1,1,$1+$1,$2,$3*
1,1,$1+$1,$4,$5*
1,1,$1+$1,$6,$7*
1,1,$1+$1,$8,$9*
0 Add four rect primitives between the rounded corners*
20,1,$1+$1,$2,$3,$4,$5,0*
20,1,$1+$1,$4,$5,$6,$7,0*
20,1,$1+$1,$6,$7,$8,$9,0*
20,1,$1+$1,$8,$9,$2,$3,0*%
%AMFreePoly0*
4,1,19,0.550000,-0.750000,0.000000,-0.750000,0.000000,-0.744911,-0.071157,-0.744911,-0.207708,-0.704816,-0.327430,-0.627875,-0.420627,-0.520320,-0.479746,-0.390866,-0.500000,-0.250000,-0.500000,0.250000,-0.479746,0.390866,-0.420627,0.520320,-0.327430,0.627875,-0.207708,0.704816,-0.071157,0.744911,0.000000,0.744911,0.000000,0.750000,0.550000,0.750000,0.550000,-0.750000,0.550000,-0.750000,
$1*%
%AMFreePoly1*
4,1,19,0.000000,0.744911,0.071157,0.744911,0.207708,0.704816,0.327430,0.627875,0.420627,0.520320,0.479746,0.390866,0.500000,0.250000,0.500000,-0.250000,0.479746,-0.390866,0.420627,-0.520320,0.327430,-0.627875,0.207708,-0.704816,0.071157,-0.744911,0.000000,-0.744911,0.000000,-0.750000,-0.550000,-0.750000,-0.550000,0.750000,0.000000,0.750000,0.000000,0.744911,0.000000,0.744911,
$1*%
G04 Aperture macros list end*
%TA.AperFunction,SMDPad,CuDef*%
%ADD10RoundRect,0.150000X-0.650000X-0.150000X0.650000X-0.150000X0.650000X0.150000X-0.650000X0.150000X0*%
%TD*%
%TA.AperFunction,ComponentPad*%
%ADD11C,2.286000*%
%TD*%
%TA.AperFunction,SMDPad,CuDef*%
%ADD12FreePoly0,0.000000*%
%TD*%
%TA.AperFunction,SMDPad,CuDef*%
%ADD13R,1.000000X1.500000*%
%TD*%
%TA.AperFunction,SMDPad,CuDef*%
%ADD14FreePoly1,0.000000*%
%TD*%
%TA.AperFunction,ComponentPad*%
%ADD15R,1.600000X1.600000*%
%TD*%
%TA.AperFunction,ComponentPad*%
%ADD16C,1.600000*%
%TD*%
%TA.AperFunction,ComponentPad*%
%ADD17R,1.300000X1.300000*%
%TD*%
%TA.AperFunction,ComponentPad*%
%ADD18C,1.300000*%
%TD*%
%TA.AperFunction,SMDPad,CuDef*%
%ADD19RoundRect,0.150000X-0.150000X0.875000X-0.150000X-0.875000X0.150000X-0.875000X0.150000X0.875000X0*%
%TD*%
%TA.AperFunction,ComponentPad*%
%ADD20C,1.524000*%
%TD*%
%TA.AperFunction,ViaPad*%
%ADD21C,0.600000*%
%TD*%
%TA.AperFunction,ViaPad*%
%ADD22C,0.800000*%
%TD*%
%TA.AperFunction,Conductor*%
%ADD23C,0.400000*%
%TD*%
%TA.AperFunction,Conductor*%
%ADD24C,0.200000*%
%TD*%
%TA.AperFunction,Conductor*%
%ADD25C,0.600000*%
%TD*%
%TA.AperFunction,Conductor*%
%ADD26C,0.900000*%
%TD*%
G04 APERTURE END LIST*
D10*
%TO.P,U7,1,Y*%
%TO.N,Net-(J9-Pin_6)*%
X145450000Y-35780000D03*
%TO.P,U7,2,Z*%
%TO.N,Net-(J2-Pin_7)*%
X145450000Y-36730000D03*
%TO.P,U7,3,GND*%
%TO.N,GND*%
X145450000Y-37680000D03*
%TO.P,U7,4,~E*%
%TO.N,Net-(U10-~E)*%
X147750000Y-37680000D03*
%TO.P,U7,5,VCC*%
%TO.N,+3.3V*%
X147750000Y-35780000D03*
%TD*%
D11*
%TO.P,J2,1,Pin_1*%
%TO.N,+3.3V*%
X145700000Y-25490000D03*
%TO.P,J2,2,Pin_2*%
%TO.N,unconnected-(J2-Pin_2-Pad2)*%
X143160000Y-25490000D03*
%TO.P,J2,3,Pin_3*%
%TO.N,unconnected-(J2-Pin_3-Pad3)*%
X140620000Y-25490000D03*
%TO.P,J2,4,Pin_4*%
%TO.N,GND*%
X138080000Y-25490000D03*
%TO.P,J2,5,Pin_5*%
%TO.N,Net-(J2-Pin_5)*%
X138080001Y-28030000D03*
%TO.P,J2,6,Pin_6*%
%TO.N,Net-(J2-Pin_6)*%
X140620000Y-28030000D03*
%TO.P,J2,7,Pin_7*%
%TO.N,Net-(J2-Pin_7)*%
X143160000Y-28030000D03*
%TO.P,J2,8,Pin_8*%
%TO.N,Net-(J2-Pin_8)*%
X145700000Y-28030000D03*
%TD*%
D10*
%TO.P,U9,1,Y*%
%TO.N,Net-(J9-Pin_8)*%
X129450000Y-35780000D03*
%TO.P,U9,2,Z*%
%TO.N,Net-(J2-Pin_5)*%
X129450000Y-36730000D03*
%TO.P,U9,3,GND*%
%TO.N,GND*%
X129450000Y-37680000D03*
%TO.P,U9,4,~E*%
%TO.N,Net-(U10-~E)*%
X131750000Y-37680000D03*
%TO.P,U9,5,VCC*%
%TO.N,+3.3V*%
X131750000Y-35780000D03*
%TD*%
%TO.P,U17,1,Y*%
%TO.N,Net-(J9-Pin_16)*%
X64600000Y-35700000D03*
%TO.P,U17,2,Z*%
%TO.N,Net-(J4-Pin_5)*%
X64600000Y-36650000D03*
%TO.P,U17,3,GND*%
%TO.N,GND*%
X64600000Y-37600000D03*
%TO.P,U17,4,~E*%
%TO.N,Net-(U10-~E)*%
X66900000Y-37600000D03*
%TO.P,U17,5,VCC*%
%TO.N,+3.3V*%
X66900000Y-35700000D03*
%TD*%
%TO.P,U11,1,Y*%
%TO.N,Net-(J9-Pin_10)*%
X113000000Y-35700000D03*
%TO.P,U11,2,Z*%
%TO.N,Net-(J3-Pin_7)*%
X113000000Y-36650000D03*
%TO.P,U11,3,GND*%
%TO.N,GND*%
X113000000Y-37600000D03*
%TO.P,U11,4,~E*%
%TO.N,Net-(U10-~E)*%
X115300000Y-37600000D03*
%TO.P,U11,5,VCC*%
%TO.N,+3.3V*%
X115300000Y-35700000D03*
%TD*%
D12*
%TO.P,JP24,1,A*%
%TO.N,GND*%
X188290001Y-75392500D03*
D13*
%TO.P,JP24,2,C*%
%TO.N,Net-(JP24-C)*%
X189590001Y-75392500D03*
D14*
%TO.P,JP24,3,B*%
%TO.N,+3.3V*%
X190890001Y-75392500D03*
%TD*%
D10*
%TO.P,U4,1,Y*%
%TO.N,Net-(J9-Pin_3)*%
X169980000Y-35700000D03*
%TO.P,U4,2,Z*%
%TO.N,Net-(J1-Pin_6)*%
X169980000Y-36650000D03*
%TO.P,U4,3,GND*%
%TO.N,GND*%
X169980000Y-37600000D03*
%TO.P,U4,4,~E*%
%TO.N,Net-(U10-~E)*%
X172280000Y-37600000D03*
%TO.P,U4,5,VCC*%
%TO.N,+3.3V*%
X172280000Y-35700000D03*
%TD*%
D12*
%TO.P,JP22,1,A*%
%TO.N,GND*%
X179050001Y-75400000D03*
D13*
%TO.P,JP22,2,C*%
%TO.N,Net-(JP22-C)*%
X180350001Y-75400000D03*
D14*
%TO.P,JP22,3,B*%
%TO.N,+3.3V*%
X181650001Y-75400000D03*
%TD*%
D10*
%TO.P,U12,1,Y*%
%TO.N,Net-(J9-Pin_11)*%
X105000000Y-35700000D03*
%TO.P,U12,2,Z*%
%TO.N,Net-(J3-Pin_6)*%
X105000000Y-36650000D03*
%TO.P,U12,3,GND*%
%TO.N,GND*%
X105000000Y-37600000D03*
%TO.P,U12,4,~E*%
%TO.N,Net-(U10-~E)*%
X107300000Y-37600000D03*
%TO.P,U12,5,VCC*%
%TO.N,+3.3V*%
X107300000Y-35700000D03*
%TD*%
%TO.P,U5,1,Y*%
%TO.N,Net-(J9-Pin_4)*%
X161980000Y-35700000D03*
%TO.P,U5,2,Z*%
%TO.N,Net-(J1-Pin_5)*%
X161980000Y-36650000D03*
%TO.P,U5,3,GND*%
%TO.N,GND*%
X161980000Y-37600000D03*
%TO.P,U5,4,~E*%
%TO.N,Net-(U10-~E)*%
X164280000Y-37600000D03*
%TO.P,U5,5,VCC*%
%TO.N,+3.3V*%
X164280000Y-35700000D03*
%TD*%
D15*
%TO.P,U1,1,GND*%
%TO.N,unconnected-(U1-GND-Pad1)*%
X84600000Y-76540000D03*
D16*
%TO.P,U1,2,0_RX1_CRX2_CS1*%
%TO.N,Net-(J7-Pin_4)*%
X87140000Y-76540000D03*
%TO.P,U1,3,1_TX1_CTX2_MISO1*%
%TO.N,Net-(J7-Pin_3)*%
X89680000Y-76540000D03*
%TO.P,U1,4,2_OUT2*%
%TO.N,Net-(J7-Pin_2)*%
X92220000Y-76540000D03*
%TO.P,U1,5,3_LRCLK2*%
%TO.N,Net-(J7-Pin_1)*%
X94760000Y-76540000D03*
%TO.P,U1,6,4_BCLK2*%
%TO.N,Net-(J7-Pin_5)*%
X97300000Y-76540000D03*
%TO.P,U1,7,5_IN2*%
%TO.N,Net-(J9-Pin_34)*%
X99840000Y-76540000D03*
%TO.P,U1,8,6_OUT1D*%
%TO.N,Net-(J9-Pin_33)*%
X102380000Y-76540000D03*
%TO.P,U1,9,7_RX2_OUT1A*%
%TO.N,Net-(J9-Pin_32)*%
X104920000Y-76540000D03*
%TO.P,U1,10,8_TX2_IN1*%
%TO.N,Net-(J9-Pin_31)*%
X107460000Y-76540000D03*
%TO.P,U1,11,9_OUT1C*%
%TO.N,Net-(J9-Pin_30)*%
X110000000Y-76540000D03*
%TO.P,U1,12,10_CS_MQSR*%
%TO.N,Net-(J9-Pin_29)*%
X112540000Y-76540000D03*
%TO.P,U1,13,11_MOSI_CTX1*%
%TO.N,Net-(J9-Pin_28)*%
X115080000Y-76540000D03*
%TO.P,U1,14,12_MISO_MQSL*%
%TO.N,Net-(J9-Pin_27)*%
X117620000Y-76540000D03*
%TO.P,U1,15,3V3*%
%TO.N,unconnected-(U1-3V3-Pad15)*%
X120160000Y-76540000D03*
%TO.P,U1,16,24_A10_TX6_SCL2*%
%TO.N,Net-(J9-Pin_6)*%
X122700000Y-76540000D03*
%TO.P,U1,17,25_A11_RX6_SDA2*%
%TO.N,Net-(J9-Pin_5)*%
X125240000Y-76540000D03*
%TO.P,U1,18,26_A12_MOSI1*%
%TO.N,Net-(J9-Pin_4)*%
X127780000Y-76540000D03*
%TO.P,U1,19,27_A13_SCK1*%
%TO.N,Net-(J9-Pin_3)*%
X130320000Y-76540000D03*
%TO.P,U1,20,28_RX7*%
%TO.N,Net-(J9-Pin_26)*%
X132860000Y-76540000D03*
%TO.P,U1,21,29_TX7*%
%TO.N,Net-(J9-Pin_25)*%
X135400000Y-76540000D03*
%TO.P,U1,22,30_CRX3*%
%TO.N,Net-(J9-Pin_24)*%
X137940000Y-76540000D03*
%TO.P,U1,23,31_CTX3*%
%TO.N,Net-(J9-Pin_23)*%
X140480000Y-76540000D03*
%TO.P,U1,24,32_OUT1B*%
%TO.N,unconnected-(U1-32_OUT1B-Pad24)*%
X143020000Y-76540000D03*
%TO.P,U1,25,33_MCLK2*%
%TO.N,Net-(J8-Pin_5)*%
X143020000Y-61300000D03*
%TO.P,U1,26,34_RX8*%
%TO.N,Net-(J6-Pin_5)*%
X140480000Y-61300000D03*
%TO.P,U1,27,35_TX8*%
%TO.N,Net-(J6-Pin_4)*%
X137940000Y-61300000D03*
%TO.P,U1,28,36_CS*%
%TO.N,Net-(J8-Pin_4)*%
X135400000Y-61300000D03*
%TO.P,U1,29,37_CS*%
%TO.N,Net-(J8-Pin_3)*%
X132860000Y-61300000D03*
%TO.P,U1,30,38_CS1_IN1*%
%TO.N,Net-(J8-Pin_2)*%
X130320000Y-61300000D03*
%TO.P,U1,31,39_MISO1_OUT1A*%
%TO.N,Net-(J8-Pin_1)*%
X127780000Y-61300000D03*
%TO.P,U1,32,40_A16*%
%TO.N,Net-(J9-Pin_2)*%
X125240000Y-61300000D03*
%TO.P,U1,33,41_A17*%
%TO.N,Net-(J9-Pin_1)*%
X122700000Y-61300000D03*
%TO.P,U1,34,GND*%
%TO.N,unconnected-(U1-GND-Pad34)*%
X120160000Y-61300000D03*
%TO.P,U1,35,13_SCK_LED*%
%TO.N,unconnected-(U1-13_SCK_LED-Pad35)*%
X117620000Y-61300000D03*
%TO.P,U1,36,14_A0_TX3_SPDIF_OUT*%
%TO.N,Net-(J9-Pin_16)*%
X115080000Y-61300000D03*
%TO.P,U1,37,15_A1_RX3_SPDIF_IN*%
%TO.N,Net-(J9-Pin_15)*%
X112540000Y-61300000D03*
%TO.P,U1,38,16_A2_RX4_SCL1*%
%TO.N,Net-(J9-Pin_14)*%
X110000000Y-61300000D03*
%TO.P,U1,39,17_A3_TX4_SDA1*%
%TO.N,Net-(J9-Pin_13)*%
X107460000Y-61300000D03*
%TO.P,U1,40,18_A4_SDA*%
%TO.N,Net-(J9-Pin_12)*%
X104920000Y-61300000D03*
%TO.P,U1,41,19_A5_SCL*%
%TO.N,Net-(J9-Pin_11)*%
X102380000Y-61300000D03*
%TO.P,U1,42,20_A6_TX5_LRCLK1*%
%TO.N,Net-(J9-Pin_10)*%
X99840000Y-61300000D03*
%TO.P,U1,43,21_A7_RX5_BCLK1*%
%TO.N,Net-(J9-Pin_9)*%
X97300000Y-61300000D03*
%TO.P,U1,44,22_A8_CTX1*%
%TO.N,Net-(J9-Pin_8)*%
X94760000Y-61300000D03*
%TO.P,U1,45,23_A9_CRX1_MCLK1*%
%TO.N,Net-(J9-Pin_7)*%
X92220000Y-61300000D03*
%TO.P,U1,46,3V3*%
%TO.N,unconnected-(U1-3V3-Pad46)*%
X89680000Y-61300000D03*
%TO.P,U1,47,GND*%
%TO.N,GND*%
X87140000Y-61300000D03*
%TO.P,U1,48,VIN*%
%TO.N,+5V*%
X84600000Y-61300000D03*
%TO.P,U1,49,VUSB*%
%TO.N,unconnected-(U1-VUSB-Pad49)*%
X87140001Y-63840000D03*
%TO.P,U1,50,VBAT*%
%TO.N,unconnected-(U1-VBAT-Pad50)*%
X130320000Y-73999999D03*
%TO.P,U1,51,3V3*%
%TO.N,unconnected-(U1-3V3-Pad51)*%
X130320000Y-71460000D03*
%TO.P,U1,52,GND*%
%TO.N,unconnected-(U1-GND-Pad52)*%
X130320000Y-68920000D03*
%TO.P,U1,53,PROGRAM*%
%TO.N,unconnected-(U1-PROGRAM-Pad53)*%
X130320000Y-66380000D03*
%TO.P,U1,54,ON_OFF*%
%TO.N,unconnected-(U1-ON_OFF-Pad54)*%
X130320000Y-63840001D03*
D15*
%TO.P,U1,55,5V*%
%TO.N,unconnected-(U1-5V-Pad55)*%
X90899200Y-73489200D03*
D16*
%TO.P,U1,56,D-*%
%TO.N,unconnected-(U1-D--Pad56)*%
X93439200Y-73489200D03*
%TO.P,U1,57,D+*%
%TO.N,unconnected-(U1-D+-Pad57)*%
X95979200Y-73489200D03*
%TO.P,U1,58,GND*%
%TO.N,unconnected-(U1-GND-Pad58)*%
X98519200Y-73489200D03*
%TO.P,U1,59,GND*%
%TO.N,unconnected-(U1-GND-Pad59)*%
X101059200Y-73489200D03*
D17*
%TO.P,U1,60,R+*%
%TO.N,unconnected-(U1-R+-Pad60)*%
X97569999Y-63738400D03*
D18*
%TO.P,U1,61,LED*%
%TO.N,unconnected-(U1-LED-Pad61)*%
X97570000Y-65738400D03*
%TO.P,U1,62,T-*%
%TO.N,unconnected-(U1-T--Pad62)*%
X97570000Y-67738401D03*
%TO.P,U1,63,T+*%
%TO.N,unconnected-(U1-T+-Pad63)*%
X99570000Y-67738400D03*
%TO.P,U1,64,GND*%
%TO.N,unconnected-(U1-GND-Pad64)*%
X99570000Y-65738401D03*
%TO.P,U1,65,R-*%
%TO.N,unconnected-(U1-R--Pad65)*%
X99570000Y-63738400D03*
%TO.P,U1,66,D-*%
%TO.N,unconnected-(U1-D--Pad66)*%
X85329999Y-67650000D03*
%TO.P,U1,67,D+*%
%TO.N,unconnected-(U1-D+-Pad67)*%
X85329999Y-70190000D03*
%TD*%
D10*
%TO.P,U16,1,Y*%
%TO.N,Net-(J9-Pin_15)*%
X72600000Y-35700000D03*
%TO.P,U16,2,Z*%
%TO.N,Net-(J4-Pin_6)*%
X72600000Y-36650000D03*
%TO.P,U16,3,GND*%
%TO.N,GND*%
X72600000Y-37600000D03*
%TO.P,U16,4,~E*%
%TO.N,Net-(U10-~E)*%
X74900000Y-37600000D03*
%TO.P,U16,5,VCC*%
%TO.N,+3.3V*%
X74900000Y-35700000D03*
%TD*%
%TO.P,U2,1,Y*%
%TO.N,Net-(J9-Pin_1)*%
X185980000Y-35700000D03*
%TO.P,U2,2,Z*%
%TO.N,Net-(J1-Pin_8)*%
X185980000Y-36650000D03*
%TO.P,U2,3,GND*%
%TO.N,GND*%
X185980000Y-37600000D03*
%TO.P,U2,4,~E*%
%TO.N,Net-(U10-~E)*%
X188280000Y-37600000D03*
%TO.P,U2,5,VCC*%
%TO.N,+3.3V*%
X188280000Y-35700000D03*
%TD*%
%TO.P,U3,1,Y*%
%TO.N,Net-(J9-Pin_2)*%
X177980000Y-35700000D03*
%TO.P,U3,2,Z*%
%TO.N,Net-(J1-Pin_7)*%
X177980000Y-36650000D03*
%TO.P,U3,3,GND*%
%TO.N,GND*%
X177980000Y-37600000D03*
%TO.P,U3,4,~E*%
%TO.N,Net-(U10-~E)*%
X180280000Y-37600000D03*
%TO.P,U3,5,VCC*%
%TO.N,+3.3V*%
X180280000Y-35700000D03*
%TD*%
D12*
%TO.P,JP19,1,A*%
%TO.N,GND*%
X165070000Y-75329999D03*
D13*
%TO.P,JP19,2,C*%
%TO.N,Net-(JP19-C)*%
X166370000Y-75329999D03*
D14*
%TO.P,JP19,3,B*%
%TO.N,+3.3V*%
X167670000Y-75329999D03*
%TD*%
D11*
%TO.P,J1,1,Pin_1*%
%TO.N,+3.3V*%
X178080000Y-25360000D03*
%TO.P,J1,2,Pin_2*%
%TO.N,unconnected-(J1-Pin_2-Pad2)*%
X175540000Y-25360000D03*
%TO.P,J1,3,Pin_3*%
%TO.N,unconnected-(J1-Pin_3-Pad3)*%
X173000000Y-25360000D03*
%TO.P,J1,4,Pin_4*%
%TO.N,GND*%
X170460000Y-25360000D03*
%TO.P,J1,5,Pin_5*%
%TO.N,Net-(J1-Pin_5)*%
X170460001Y-27900000D03*
%TO.P,J1,6,Pin_6*%
%TO.N,Net-(J1-Pin_6)*%
X173000000Y-27900000D03*
%TO.P,J1,7,Pin_7*%
%TO.N,Net-(J1-Pin_7)*%
X175540000Y-27900000D03*
%TO.P,J1,8,Pin_8*%
%TO.N,Net-(J1-Pin_8)*%
X178080000Y-27900000D03*
%TD*%
D10*
%TO.P,U14,1,Y*%
%TO.N,Net-(J9-Pin_13)*%
X88600000Y-35700000D03*
%TO.P,U14,2,Z*%
%TO.N,Net-(J4-Pin_8)*%
X88600000Y-36650000D03*
%TO.P,U14,3,GND*%
%TO.N,GND*%
X88600000Y-37600000D03*
%TO.P,U14,4,~E*%
%TO.N,Net-(U10-~E)*%
X90900000Y-37600000D03*
%TO.P,U14,5,VCC*%
%TO.N,+3.3V*%
X90900000Y-35700000D03*
%TD*%
%TO.P,U8,1,Y*%
%TO.N,Net-(J9-Pin_7)*%
X137500000Y-35780000D03*
%TO.P,U8,2,Z*%
%TO.N,Net-(J2-Pin_6)*%
X137500000Y-36730000D03*
%TO.P,U8,3,GND*%
%TO.N,GND*%
X137500000Y-37680000D03*
%TO.P,U8,4,~E*%
%TO.N,Net-(U10-~E)*%
X139800000Y-37680000D03*
%TO.P,U8,5,VCC*%
%TO.N,+3.3V*%
X139800000Y-35780000D03*
%TD*%
%TO.P,U13,1,Y*%
%TO.N,Net-(J9-Pin_12)*%
X96900000Y-35700000D03*
%TO.P,U13,2,Z*%
%TO.N,Net-(J3-Pin_5)*%
X96900000Y-36650000D03*
%TO.P,U13,3,GND*%
%TO.N,GND*%
X96900000Y-37600000D03*
%TO.P,U13,4,~E*%
%TO.N,Net-(U10-~E)*%
X99200000Y-37600000D03*
%TO.P,U13,5,VCC*%
%TO.N,+3.3V*%
X99200000Y-35700000D03*
%TD*%
D11*
%TO.P,J7,1,Pin_1*%
%TO.N,Net-(J7-Pin_1)*%
X74100000Y-82200000D03*
%TO.P,J7,2,Pin_2*%
%TO.N,Net-(J7-Pin_2)*%
X74100000Y-79660000D03*
%TO.P,J7,3,Pin_3*%
%TO.N,Net-(J7-Pin_3)*%
X74100000Y-77120000D03*
%TO.P,J7,4,Pin_4*%
%TO.N,Net-(J7-Pin_4)*%
X74100000Y-74580000D03*
%TO.P,J7,5,Pin_5*%
%TO.N,Net-(J7-Pin_5)*%
X71560000Y-74580001D03*
%TO.P,J7,6,Pin_6*%
%TO.N,+5V*%
X71560000Y-77120000D03*
%TO.P,J7,7,Pin_7*%
%TO.N,+3.3V*%
X71560000Y-79660000D03*
%TO.P,J7,8,Pin_8*%
%TO.N,GND*%
X71560000Y-82200000D03*
%TD*%
%TO.P,J6,1,Pin_1*%
%TO.N,+3.3V*%
X184580000Y-82340000D03*
%TO.P,J6,2,Pin_2*%
%TO.N,+5V*%
X187120000Y-82340000D03*
%TO.P,J6,3,Pin_3*%
%TO.N,GND*%
X189660000Y-82340000D03*
%TO.P,J6,4,Pin_4*%
%TO.N,Net-(J6-Pin_4)*%
X192200000Y-82340000D03*
%TO.P,J6,5,Pin_5*%
%TO.N,Net-(J6-Pin_5)*%
X192200000Y-79800000D03*
%TO.P,J6,6,Pin_6*%
%TO.N,GND*%
X189660000Y-79800000D03*
%TO.P,J6,7,Pin_7*%
%TO.N,+5V*%
X187120000Y-79800000D03*
%TO.P,J6,8,Pin_8*%
%TO.N,+3.3V*%
X184580000Y-79800000D03*
%TD*%
D19*
%TO.P,U18,1,~E*%
%TO.N,GND*%
X189750000Y-60400000D03*
%TO.P,U18,2,A0*%
%TO.N,Net-(JP17-C)*%
X188480000Y-60400000D03*
%TO.P,U18,3,B0*%
%TO.N,Net-(J9-Pin_27)*%
X187210000Y-60399999D03*
%TO.P,U18,4,A1*%
%TO.N,Net-(JP18-C)*%
X185940000Y-60400000D03*
%TO.P,U18,5,B1*%
%TO.N,Net-(J9-Pin_28)*%
X184670000Y-60400000D03*
%TO.P,U18,6,A2*%
%TO.N,Net-(JP19-C)*%
X183400000Y-60400000D03*
%TO.P,U18,7,B2*%
%TO.N,Net-(J9-Pin_29)*%
X182130000Y-60400000D03*
%TO.P,U18,8,A3*%
%TO.N,Net-(JP20-C)*%
X180860000Y-60399999D03*
%TO.P,U18,9,B3*%
%TO.N,Net-(J9-Pin_30)*%
X179590000Y-60400000D03*
%TO.P,U18,10,GND*%
%TO.N,GND*%
X178320000Y-60400000D03*
%TO.P,U18,11,A4*%
%TO.N,Net-(JP21-C)*%
X178320000Y-69700000D03*
%TO.P,U18,12,B4*%
%TO.N,Net-(J9-Pin_31)*%
X179590000Y-69700000D03*
%TO.P,U18,13,A5*%
%TO.N,Net-(JP22-C)*%
X180860000Y-69700001D03*
%TO.P,U18,14,B5*%
%TO.N,Net-(J9-Pin_32)*%
X182130000Y-69700000D03*
%TO.P,U18,15,A6*%
%TO.N,Net-(JP23-C)*%
X183400000Y-69700000D03*
%TO.P,U18,16,B6*%
%TO.N,Net-(J9-Pin_33)*%
X184670000Y-69700000D03*
%TO.P,U18,17,A7*%
%TO.N,Net-(JP24-C)*%
X185940000Y-69700000D03*
%TO.P,U18,18,B7*%
%TO.N,Net-(J9-Pin_34)*%
X187210000Y-69700001D03*
%TO.P,U18,19,Y*%
%TO.N,Net-(U10-~E)*%
X188480000Y-69700000D03*
%TO.P,U18,20,VCC*%
%TO.N,+3.3V*%
X189750000Y-69700000D03*
%TD*%
D11*
%TO.P,J3,1,Pin_1*%
%TO.N,+3.3V*%
X113040000Y-25260000D03*
%TO.P,J3,2,Pin_2*%
%TO.N,unconnected-(J3-Pin_2-Pad2)*%
X110500000Y-25260000D03*
%TO.P,J3,3,Pin_3*%
%TO.N,unconnected-(J3-Pin_3-Pad3)*%
X107960000Y-25260000D03*
%TO.P,J3,4,Pin_4*%
%TO.N,GND*%
X105420000Y-25260000D03*
%TO.P,J3,5,Pin_5*%
%TO.N,Net-(J3-Pin_5)*%
X105420001Y-27800000D03*
%TO.P,J3,6,Pin_6*%
%TO.N,Net-(J3-Pin_6)*%
X107960000Y-27800000D03*
%TO.P,J3,7,Pin_7*%
%TO.N,Net-(J3-Pin_7)*%
X110500000Y-27800000D03*
%TO.P,J3,8,Pin_8*%
%TO.N,Net-(J3-Pin_8)*%
X113040000Y-27800000D03*
%TD*%
D12*
%TO.P,JP23,1,A*%
%TO.N,GND*%
X183690001Y-75435000D03*
D13*
%TO.P,JP23,2,C*%
%TO.N,Net-(JP23-C)*%
X184990001Y-75435000D03*
D14*
%TO.P,JP23,3,B*%
%TO.N,+3.3V*%
X186290001Y-75435000D03*
%TD*%
D11*
%TO.P,J8,1,Pin_1*%
%TO.N,Net-(J8-Pin_1)*%
X74040000Y-69980000D03*
%TO.P,J8,2,Pin_2*%
%TO.N,Net-(J8-Pin_2)*%
X74040000Y-67440000D03*
%TO.P,J8,3,Pin_3*%
%TO.N,Net-(J8-Pin_3)*%
X74040000Y-64900000D03*
%TO.P,J8,4,Pin_4*%
%TO.N,Net-(J8-Pin_4)*%
X74040000Y-62360000D03*
%TO.P,J8,5,Pin_5*%
%TO.N,Net-(J8-Pin_5)*%
X71500000Y-62360001D03*
%TO.P,J8,6,Pin_6*%
%TO.N,+5V*%
X71500000Y-64900000D03*
%TO.P,J8,7,Pin_7*%
%TO.N,+3.3V*%
X71500000Y-67440000D03*
%TO.P,J8,8,Pin_8*%
%TO.N,GND*%
X71500000Y-69980000D03*
%TD*%
D12*
%TO.P,JP20,1,A*%
%TO.N,GND*%
X169740000Y-75364999D03*
D13*
%TO.P,JP20,2,C*%
%TO.N,Net-(JP20-C)*%
X171040000Y-75364999D03*
D14*
%TO.P,JP20,3,B*%
%TO.N,+3.3V*%
X172340000Y-75364999D03*
%TD*%
D11*
%TO.P,J4,1,Pin_1*%
%TO.N,+3.3V*%
X80740000Y-25400000D03*
%TO.P,J4,2,Pin_2*%
%TO.N,unconnected-(J4-Pin_2-Pad2)*%
X78200000Y-25400000D03*
%TO.P,J4,3,Pin_3*%
%TO.N,unconnected-(J4-Pin_3-Pad3)*%
X75660000Y-25400000D03*
%TO.P,J4,4,Pin_4*%
%TO.N,GND*%
X73120000Y-25400000D03*
%TO.P,J4,5,Pin_5*%
%TO.N,Net-(J4-Pin_5)*%
X73120001Y-27940000D03*
%TO.P,J4,6,Pin_6*%
%TO.N,Net-(J4-Pin_6)*%
X75660000Y-27940000D03*
%TO.P,J4,7,Pin_7*%
%TO.N,Net-(J4-Pin_7)*%
X78200000Y-27940000D03*
%TO.P,J4,8,Pin_8*%
%TO.N,Net-(J4-Pin_8)*%
X80740000Y-27940000D03*
%TD*%
D10*
%TO.P,U15,1,Y*%
%TO.N,Net-(J9-Pin_14)*%
X80600000Y-35700000D03*
%TO.P,U15,2,Z*%
%TO.N,Net-(J4-Pin_7)*%
X80600000Y-36650000D03*
%TO.P,U15,3,GND*%
%TO.N,GND*%
X80600000Y-37600000D03*
%TO.P,U15,4,~E*%
%TO.N,Net-(U10-~E)*%
X82900000Y-37600000D03*
%TO.P,U15,5,VCC*%
%TO.N,+3.3V*%
X82900000Y-35700000D03*
%TD*%
%TO.P,U10,1,Y*%
%TO.N,Net-(J9-Pin_9)*%
X121000000Y-35700000D03*
%TO.P,U10,2,Z*%
%TO.N,Net-(J3-Pin_8)*%
X121000000Y-36650000D03*
%TO.P,U10,3,GND*%
%TO.N,GND*%
X121000000Y-37600000D03*
%TO.P,U10,4,~E*%
%TO.N,Net-(U10-~E)*%
X123300000Y-37600000D03*
%TO.P,U10,5,VCC*%
%TO.N,+3.3V*%
X123300000Y-35700000D03*
%TD*%
D12*
%TO.P,JP17,1,A*%
%TO.N,GND*%
X155699999Y-75294999D03*
D13*
%TO.P,JP17,2,C*%
%TO.N,Net-(JP17-C)*%
X156999999Y-75294999D03*
D14*
%TO.P,JP17,3,B*%
%TO.N,+3.3V*%
X158299999Y-75294999D03*
%TD*%
D10*
%TO.P,U6,1,Y*%
%TO.N,Net-(J9-Pin_5)*%
X153550000Y-35780000D03*
%TO.P,U6,2,Z*%
%TO.N,Net-(J2-Pin_8)*%
X153550000Y-36730000D03*
%TO.P,U6,3,GND*%
%TO.N,GND*%
X153550000Y-37680000D03*
%TO.P,U6,4,~E*%
%TO.N,Net-(U10-~E)*%
X155850000Y-37680000D03*
%TO.P,U6,5,VCC*%
%TO.N,+3.3V*%
X155850000Y-35780000D03*
%TD*%
D12*
%TO.P,JP21,1,A*%
%TO.N,GND*%
X174400000Y-75400000D03*
D13*
%TO.P,JP21,2,C*%
%TO.N,Net-(JP21-C)*%
X175700000Y-75400000D03*
D14*
%TO.P,JP21,3,B*%
%TO.N,+3.3V*%
X177000000Y-75400000D03*
%TD*%
D20*
%TO.P,J9,1,Pin_1*%
%TO.N,Net-(J9-Pin_1)*%
X206560000Y-27980000D03*
%TO.P,J9,2,Pin_2*%
%TO.N,Net-(J9-Pin_2)*%
X206560000Y-30520000D03*
%TO.P,J9,3,Pin_3*%
%TO.N,Net-(J9-Pin_3)*%
X206560000Y-33060000D03*
%TO.P,J9,4,Pin_4*%
%TO.N,Net-(J9-Pin_4)*%
X206560000Y-35600000D03*
%TO.P,J9,5,Pin_5*%
%TO.N,Net-(J9-Pin_5)*%
X206560000Y-38140000D03*
%TO.P,J9,6,Pin_6*%
%TO.N,Net-(J9-Pin_6)*%
X206560000Y-40680000D03*
%TO.P,J9,7,Pin_7*%
%TO.N,Net-(J9-Pin_7)*%
X206560000Y-43220000D03*
%TO.P,J9,8,Pin_8*%
%TO.N,Net-(J9-Pin_8)*%
X206560000Y-45760000D03*
%TO.P,J9,9,Pin_9*%
%TO.N,Net-(J9-Pin_9)*%
X206560000Y-48300000D03*
%TO.P,J9,10,Pin_10*%
%TO.N,Net-(J9-Pin_10)*%
X206560000Y-50840000D03*
%TO.P,J9,11,Pin_11*%
%TO.N,Net-(J9-Pin_11)*%
X206560000Y-53380000D03*
%TO.P,J9,12,Pin_12*%
%TO.N,Net-(J9-Pin_12)*%
X206560000Y-55920000D03*
%TO.P,J9,13,Pin_13*%
%TO.N,Net-(J9-Pin_13)*%
X206560000Y-58460000D03*
%TO.P,J9,14,Pin_14*%
%TO.N,Net-(J9-Pin_14)*%
X206560000Y-61000000D03*
%TO.P,J9,15,Pin_15*%
%TO.N,Net-(J9-Pin_15)*%
X206560000Y-63540000D03*
%TO.P,J9,16,Pin_16*%
%TO.N,Net-(J9-Pin_16)*%
X206560000Y-66080000D03*
%TO.P,J9,17,Pin_17*%
%TO.N,unconnected-(J9-Pin_17-Pad17)*%
X206560000Y-68620000D03*
%TO.P,J9,18,Pin_18*%
%TO.N,unconnected-(J9-Pin_18-Pad18)*%
X209100000Y-68620000D03*
%TO.P,J9,19,Pin_19*%
%TO.N,GND*%
X209100000Y-66080000D03*
%TO.P,J9,20,Pin_20*%
%TO.N,+3.3V*%
X209100000Y-63540000D03*
%TO.P,J9,21,Pin_21*%
%TO.N,+5V*%
X209100000Y-61000000D03*
%TO.P,J9,22,Pin_22*%
%TO.N,GND*%
X209100000Y-58460000D03*
%TO.P,J9,23,Pin_23*%
%TO.N,Net-(J9-Pin_23)*%
X209100000Y-55920000D03*
%TO.P,J9,24,Pin_24*%
%TO.N,Net-(J9-Pin_24)*%
X209100000Y-53380000D03*
%TO.P,J9,25,Pin_25*%
%TO.N,Net-(J9-Pin_25)*%
X209100000Y-50840000D03*
%TO.P,J9,26,Pin_26*%
%TO.N,Net-(J9-Pin_26)*%
X209100000Y-48300000D03*
%TO.P,J9,27,Pin_27*%
%TO.N,Net-(J9-Pin_27)*%
X209100000Y-45760000D03*
%TO.P,J9,28,Pin_28*%
%TO.N,Net-(J9-Pin_28)*%
X209100000Y-43220000D03*
%TO.P,J9,29,Pin_29*%
%TO.N,Net-(J9-Pin_29)*%
X209100000Y-40680000D03*
%TO.P,J9,30,Pin_30*%
%TO.N,Net-(J9-Pin_30)*%
X209100000Y-38140000D03*
%TO.P,J9,31,Pin_31*%
%TO.N,Net-(J9-Pin_31)*%
X209100000Y-35600000D03*
%TO.P,J9,32,Pin_32*%
%TO.N,Net-(J9-Pin_32)*%
X209100000Y-33060000D03*
%TO.P,J9,33,Pin_33*%
%TO.N,Net-(J9-Pin_33)*%
X209100000Y-30520000D03*
%TO.P,J9,34,Pin_34*%
%TO.N,Net-(J9-Pin_34)*%
X209100000Y-27980000D03*
%TD*%
D12*
%TO.P,JP18,1,A*%
%TO.N,GND*%
X160389999Y-75329999D03*
D13*
%TO.P,JP18,2,C*%
%TO.N,Net-(JP18-C)*%
X161689999Y-75329999D03*
D14*
%TO.P,JP18,3,B*%
%TO.N,+3.3V*%
X162989999Y-75329999D03*
%TD*%
D21*
%TO.N,Net-(J1-Pin_8)*%
X185880000Y-33100000D03*
%TO.N,GND*%
X160500000Y-75300000D03*
X137300000Y-38600000D03*
X96600000Y-38600000D03*
X80300000Y-38500000D03*
X153200000Y-38600000D03*
X72300000Y-38500000D03*
X188400000Y-33200000D03*
X91100000Y-33100000D03*
X115600000Y-32900000D03*
X107400000Y-33000000D03*
X185700000Y-38500000D03*
X164400000Y-33200000D03*
X183800000Y-75500000D03*
X188300000Y-75400000D03*
X145200000Y-38700000D03*
X104700000Y-38600000D03*
X177700000Y-38500000D03*
X88300000Y-38500000D03*
X83000000Y-33100000D03*
X172400000Y-33000000D03*
X64600000Y-37600000D03*
X123500000Y-33100000D03*
X169900000Y-75500000D03*
X120700000Y-38500000D03*
X147900000Y-33200000D03*
X139900000Y-33200000D03*
X179200000Y-75400000D03*
X132000000Y-33200000D03*
X155900000Y-33300000D03*
X180500000Y-33100000D03*
X169700000Y-38500000D03*
X112800000Y-38500000D03*
X99500000Y-33100000D03*
X178300000Y-62200000D03*
X165300000Y-75400000D03*
X67000000Y-33100000D03*
X174500000Y-75400000D03*
X129200000Y-38700000D03*
X189800000Y-60400000D03*
X158700000Y-78700000D03*
X74900000Y-33000000D03*
X161700000Y-38600000D03*
%TO.N,Net-(J1-Pin_6)*%
X169780000Y-33100000D03*
%TO.N,Net-(J1-Pin_7)*%
X177880000Y-33100000D03*
%TO.N,Net-(J1-Pin_5)*%
X161880000Y-33100000D03*
%TO.N,+3.3V*%
X139800000Y-35830000D03*
X164280000Y-35700000D03*
X131800000Y-35830000D03*
X172280000Y-35700000D03*
X107400000Y-35700000D03*
X123300000Y-35700000D03*
D22*
X196000000Y-76700000D03*
D21*
X180280000Y-35700000D03*
X83000000Y-35700000D03*
X155800000Y-35830000D03*
X66900000Y-35700000D03*
X115400000Y-35700000D03*
X75000000Y-35700000D03*
X90900000Y-35700000D03*
X147800000Y-35830000D03*
X188280000Y-35700000D03*
X99200000Y-35700000D03*
%TO.N,Net-(J2-Pin_7)*%
X145400000Y-33200000D03*
%TO.N,Net-(J2-Pin_8)*%
X153400000Y-33200000D03*
%TO.N,Net-(J2-Pin_6)*%
X137300000Y-33130000D03*
%TO.N,Net-(J2-Pin_5)*%
X129400000Y-33230000D03*
%TO.N,Net-(J3-Pin_7)*%
X113000000Y-32900000D03*
%TO.N,Net-(J3-Pin_6)*%
X104800000Y-32900000D03*
%TO.N,Net-(J3-Pin_5)*%
X96900000Y-33100000D03*
%TO.N,Net-(J3-Pin_8)*%
X120900000Y-33200000D03*
%TO.N,Net-(J4-Pin_8)*%
X88500000Y-33100000D03*
%TO.N,Net-(J4-Pin_6)*%
X72400000Y-33000000D03*
%TO.N,Net-(J4-Pin_5)*%
X64500000Y-33100000D03*
%TO.N,Net-(J4-Pin_7)*%
X80400000Y-33100000D03*
%TO.N,+5V*%
X93700000Y-80200000D03*
X198500000Y-78200000D03*
%TO.N,Net-(U10-~E)*%
X164280000Y-37600000D03*
X172280000Y-37600000D03*
X115400000Y-37600000D03*
X90900000Y-37600000D03*
X188500000Y-69600000D03*
X66900000Y-37600000D03*
X188280000Y-37600000D03*
X147800000Y-37730000D03*
X139800000Y-37730000D03*
X164000000Y-52700000D03*
X131800000Y-37730000D03*
X180280000Y-37600000D03*
X123300000Y-37600000D03*
X107400000Y-37600000D03*
X99400000Y-37600000D03*
X82900000Y-37600000D03*
X75000000Y-37600000D03*
X197300000Y-59600000D03*
X155900000Y-37730000D03*
%TO.N,Net-(J9-Pin_24)*%
X193000000Y-59600000D03*
%TO.N,Net-(J9-Pin_33)*%
X184700000Y-69700000D03*
%TO.N,Net-(J9-Pin_14)*%
X81800000Y-41720000D03*
X81700000Y-33100000D03*
X103197392Y-52600000D03*
%TO.N,Net-(J9-Pin_1)*%
X187180000Y-33100000D03*
X187000000Y-42600000D03*
%TO.N,Net-(J9-Pin_26)*%
X193000000Y-57500000D03*
%TO.N,Net-(J9-Pin_13)*%
X89800000Y-41620000D03*
X89800000Y-33100000D03*
X101924601Y-52600000D03*
%TO.N,Net-(J9-Pin_25)*%
X193015686Y-58484314D03*
%TO.N,Net-(J9-Pin_11)*%
X99379018Y-52600000D03*
X106200000Y-41550000D03*
X106100000Y-33000000D03*
%TO.N,Net-(J9-Pin_5)*%
X154660000Y-41640000D03*
X199500000Y-45100000D03*
X154600000Y-33230000D03*
%TO.N,Net-(J9-Pin_15)*%
X73700000Y-33100000D03*
X104470184Y-52600000D03*
X73800000Y-41720000D03*
%TO.N,Net-(J9-Pin_29)*%
X182100000Y-60400000D03*
%TO.N,Net-(J9-Pin_7)*%
X94800000Y-50500000D03*
X138660000Y-41740000D03*
X138600000Y-33130000D03*
%TO.N,Net-(J9-Pin_6)*%
X146660000Y-41740000D03*
X146600000Y-33130000D03*
X201300000Y-45900000D03*
%TO.N,Net-(J9-Pin_10)*%
X98106226Y-52599999D03*
X114280000Y-32880000D03*
X114200000Y-41550000D03*
%TO.N,Net-(J9-Pin_23)*%
X193000000Y-60700000D03*
%TO.N,Net-(J9-Pin_16)*%
X65800000Y-41620000D03*
X106458511Y-52678511D03*
X65700000Y-33100000D03*
%TO.N,Net-(J9-Pin_34)*%
X187200000Y-69700000D03*
%TO.N,Net-(J9-Pin_32)*%
X182100000Y-69700000D03*
%TO.N,Net-(J9-Pin_2)*%
X179080000Y-33100000D03*
X125240000Y-56300000D03*
X179000000Y-42700000D03*
X125700000Y-54600000D03*
%TO.N,Net-(J9-Pin_12)*%
X100651809Y-52600000D03*
X98100000Y-33100000D03*
X98200000Y-41450000D03*
%TO.N,Net-(J9-Pin_3)*%
X171080000Y-33000000D03*
X196800000Y-42800000D03*
X171000000Y-42700000D03*
%TO.N,Net-(J9-Pin_30)*%
X179600000Y-60400000D03*
%TO.N,Net-(J9-Pin_9)*%
X95800000Y-51500000D03*
X122200000Y-33100000D03*
X122200000Y-41450000D03*
%TO.N,Net-(J9-Pin_28)*%
X184700000Y-60400000D03*
%TO.N,Net-(J9-Pin_31)*%
X179600000Y-69700000D03*
%TO.N,Net-(J9-Pin_8)*%
X130700000Y-33230000D03*
X130660000Y-41640000D03*
X94400000Y-51500000D03*
%TO.N,Net-(J9-Pin_4)*%
X163000000Y-42600000D03*
X163080000Y-33200000D03*
X198100000Y-44000000D03*
%TO.N,Net-(J9-Pin_27)*%
X187200000Y-60400000D03*
%TD*%
D23*
%TO.N,Net-(J1-Pin_8)*%
X182980000Y-27900000D02*
X178080000Y-27900000D01*
X184280000Y-34700000D02*
X185880000Y-33100000D01*
X185880000Y-30800000D02*
X182980000Y-27900000D01*
X185980000Y-36650000D02*
X184730000Y-36650000D01*
X184280000Y-36200000D02*
X184280000Y-34700000D01*
X184730000Y-36650000D02*
X184280000Y-36200000D01*
X185880000Y-33100000D02*
X185880000Y-30800000D01*
D24*
%TO.N,GND*%
X178320000Y-60400000D02*
X178320000Y-62180000D01*
D23*
X88550000Y-37480000D02*
X88550000Y-38250000D01*
X137300000Y-38600000D02*
X137250000Y-38650000D01*
X185950000Y-38250000D02*
X185700000Y-38500000D01*
X96850000Y-38350000D02*
X96600000Y-38600000D01*
X177950000Y-37480000D02*
X177950000Y-38250000D01*
X129450000Y-38450000D02*
X129200000Y-38700000D01*
X137500000Y-37630000D02*
X137500000Y-38400000D01*
X153450000Y-38350000D02*
X153200000Y-38600000D01*
X104950000Y-37580000D02*
X104950000Y-38350000D01*
D25*
X189660000Y-82340000D02*
X189660000Y-79800000D01*
D23*
X145450000Y-38450000D02*
X145200000Y-38700000D01*
X177950000Y-38250000D02*
X177700000Y-38500000D01*
X72550000Y-37480000D02*
X72550000Y-38250000D01*
X137500000Y-38400000D02*
X137300000Y-38600000D01*
X129450000Y-37680000D02*
X129450000Y-38450000D01*
X72550000Y-38250000D02*
X72300000Y-38500000D01*
D24*
X178320000Y-62180000D02*
X178300000Y-62200000D01*
D23*
X185950000Y-37480000D02*
X185950000Y-38250000D01*
X88550000Y-38250000D02*
X88300000Y-38500000D01*
X104950000Y-38350000D02*
X104700000Y-38600000D01*
X161950000Y-37580000D02*
X161950000Y-38350000D01*
X153450000Y-37580000D02*
X153450000Y-38350000D01*
X145450000Y-37680000D02*
X145450000Y-38450000D01*
X120950000Y-37480000D02*
X120950000Y-38250000D01*
D24*
X155699999Y-75294999D02*
X155699999Y-75699999D01*
X155699999Y-75699999D02*
X158700000Y-78700000D01*
D23*
X113050000Y-37480000D02*
X113050000Y-38250000D01*
X169950000Y-37480000D02*
X169950000Y-38250000D01*
X120950000Y-38250000D02*
X120700000Y-38500000D01*
X169950000Y-38250000D02*
X169700000Y-38500000D01*
X96850000Y-37580000D02*
X96850000Y-38350000D01*
X80550000Y-38250000D02*
X80300000Y-38500000D01*
X80550000Y-37480000D02*
X80550000Y-38250000D01*
X113050000Y-38250000D02*
X112800000Y-38500000D01*
X161950000Y-38350000D02*
X161700000Y-38600000D01*
%TO.N,Net-(J1-Pin_6)*%
X169780000Y-31100000D02*
X169780000Y-33100000D01*
X172980000Y-27900000D02*
X169780000Y-31100000D01*
X173000000Y-27900000D02*
X172980000Y-27900000D01*
X169780000Y-33100000D02*
X168180000Y-34700000D01*
X168630000Y-36650000D02*
X169880000Y-36650000D01*
X168180000Y-36200000D02*
X168630000Y-36650000D01*
X168180000Y-34700000D02*
X168180000Y-36200000D01*
%TO.N,Net-(J1-Pin_7)*%
X176280000Y-34700000D02*
X177880000Y-33100000D01*
X176730000Y-36650000D02*
X176280000Y-36200000D01*
X176280000Y-36200000D02*
X176280000Y-34700000D01*
X177980000Y-36650000D02*
X176730000Y-36650000D01*
X177880000Y-33100000D02*
X177880000Y-30240000D01*
X177880000Y-30240000D02*
X175540000Y-27900000D01*
%TO.N,Net-(J1-Pin_5)*%
X160730000Y-36650000D02*
X160280000Y-36200000D01*
X160280000Y-34700000D02*
X161880000Y-33100000D01*
X164780000Y-27900000D02*
X170460001Y-27900000D01*
X161980000Y-36650000D02*
X160730000Y-36650000D01*
X161880000Y-30800000D02*
X164780000Y-27900000D01*
X160280000Y-36200000D02*
X160280000Y-34700000D01*
X161880000Y-33100000D02*
X161880000Y-30800000D01*
D25*
%TO.N,+3.3V*%
X167700000Y-76700000D02*
X167670000Y-76670000D01*
X181600000Y-76700000D02*
X181600000Y-75450001D01*
D26*
X196000000Y-76700000D02*
X195500000Y-77200000D01*
X187180000Y-77200000D02*
X184580000Y-79800000D01*
D24*
X190890001Y-70840001D02*
X189750000Y-69700000D01*
X190890001Y-76390001D02*
X191700000Y-77200000D01*
D25*
X172400000Y-76700000D02*
X167700000Y-76700000D01*
D24*
X190890001Y-75392500D02*
X190890001Y-76390001D01*
D25*
X162989999Y-76589999D02*
X162989999Y-75329999D01*
X163100000Y-76700000D02*
X162989999Y-76589999D01*
D26*
X191700000Y-77200000D02*
X187180000Y-77200000D01*
D24*
X190890001Y-75392500D02*
X190890001Y-70840001D01*
D25*
X167700000Y-76700000D02*
X163100000Y-76700000D01*
D26*
X195500000Y-77200000D02*
X191700000Y-77200000D01*
D25*
X158700000Y-76700000D02*
X158299999Y-76299999D01*
X181600000Y-76700000D02*
X177000000Y-76700000D01*
X186300000Y-76700000D02*
X181600000Y-76700000D01*
X184600000Y-79730000D02*
X184600000Y-82270000D01*
X209100000Y-63600000D02*
X209100000Y-63540000D01*
X177000000Y-76700000D02*
X172400000Y-76700000D01*
X186680000Y-76700000D02*
X187180000Y-77200000D01*
X177000000Y-76700000D02*
X177000000Y-75400000D01*
X167670000Y-76670000D02*
X167670000Y-75329999D01*
X186290001Y-76690001D02*
X186290001Y-75435000D01*
X186300000Y-76700000D02*
X186290001Y-76690001D01*
X163100000Y-76700000D02*
X158700000Y-76700000D01*
X172400000Y-76700000D02*
X172340000Y-76640000D01*
X181600000Y-75450001D02*
X181650001Y-75400000D01*
X186300000Y-76700000D02*
X186680000Y-76700000D01*
X172340000Y-76640000D02*
X172340000Y-75364999D01*
X158299999Y-76299999D02*
X158299999Y-75294999D01*
D23*
%TO.N,Net-(J2-Pin_7)*%
X145400000Y-33230000D02*
X145400000Y-33200000D01*
X145500000Y-36780000D02*
X144250000Y-36780000D01*
X145400000Y-33200000D02*
X145400000Y-30370000D01*
X143800000Y-34830000D02*
X145400000Y-33230000D01*
X143800000Y-36330000D02*
X143800000Y-34830000D01*
X145400000Y-30370000D02*
X143060000Y-28030000D01*
X144250000Y-36780000D02*
X143800000Y-36330000D01*
%TO.N,Net-(J2-Pin_8)*%
X152250000Y-36780000D02*
X151800000Y-36330000D01*
X153500000Y-36780000D02*
X152250000Y-36780000D01*
X153400000Y-33200000D02*
X153400000Y-30930000D01*
X151800000Y-34830000D02*
X153400000Y-33230000D01*
X150500000Y-28030000D02*
X145600000Y-28030000D01*
X151800000Y-36330000D02*
X151800000Y-34830000D01*
X153400000Y-33230000D02*
X153400000Y-33200000D01*
X153400000Y-30930000D02*
X150500000Y-28030000D01*
%TO.N,Net-(J2-Pin_6)*%
X137300000Y-33230000D02*
X135700000Y-34830000D01*
X140500000Y-28030000D02*
X137300000Y-31230000D01*
X140520000Y-28030000D02*
X140500000Y-28030000D01*
X137300000Y-31230000D02*
X137300000Y-33130000D01*
X136150000Y-36780000D02*
X137400000Y-36780000D01*
X135700000Y-36330000D02*
X136150000Y-36780000D01*
X135700000Y-34830000D02*
X135700000Y-36330000D01*
X137300000Y-33130000D02*
X137300000Y-33230000D01*
%TO.N,Net-(J2-Pin_5)*%
X129400000Y-33230000D02*
X129400000Y-30930000D01*
X128250000Y-36780000D02*
X127800000Y-36330000D01*
X127800000Y-36330000D02*
X127800000Y-34830000D01*
X129400000Y-30930000D02*
X132300000Y-28030000D01*
X132300000Y-28030000D02*
X137980001Y-28030000D01*
X129500000Y-36780000D02*
X128250000Y-36780000D01*
X127800000Y-34830000D02*
X129400000Y-33230000D01*
%TO.N,Net-(J3-Pin_7)*%
X113000000Y-36650000D02*
X111750000Y-36650000D01*
X112900000Y-33000000D02*
X113000000Y-32900000D01*
X112900000Y-30240000D02*
X110560000Y-27900000D01*
X111300000Y-36200000D02*
X111300000Y-34700000D01*
X112900000Y-32800000D02*
X112900000Y-30240000D01*
X112900000Y-33100000D02*
X112900000Y-33000000D01*
X111750000Y-36650000D02*
X111300000Y-36200000D01*
X111300000Y-34700000D02*
X112900000Y-33100000D01*
X113000000Y-32900000D02*
X112900000Y-32800000D01*
%TO.N,Net-(J3-Pin_6)*%
X103650000Y-36650000D02*
X104900000Y-36650000D01*
X103200000Y-34700000D02*
X103200000Y-36200000D01*
X104800000Y-31100000D02*
X104800000Y-32900000D01*
X104800000Y-33100000D02*
X103200000Y-34700000D01*
X108000000Y-27900000D02*
X104800000Y-31100000D01*
X103200000Y-36200000D02*
X103650000Y-36650000D01*
X108020000Y-27900000D02*
X108000000Y-27900000D01*
X104800000Y-32900000D02*
X104800000Y-33100000D01*
%TO.N,Net-(J3-Pin_5)*%
X99800000Y-27900000D02*
X105480001Y-27900000D01*
X96900000Y-33100000D02*
X96900000Y-30800000D01*
X95750000Y-36650000D02*
X95300000Y-36200000D01*
X96900000Y-30800000D02*
X99800000Y-27900000D01*
X95300000Y-36200000D02*
X95300000Y-34700000D01*
X95300000Y-34700000D02*
X96900000Y-33100000D01*
X97000000Y-36650000D02*
X95750000Y-36650000D01*
%TO.N,Net-(J3-Pin_8)*%
X120800000Y-33200000D02*
X120900000Y-33200000D01*
X120900000Y-33100000D02*
X120900000Y-33100000D01*
X119300000Y-34700000D02*
X120800000Y-33200000D01*
X119750000Y-36650000D02*
X119300000Y-36200000D01*
X120900000Y-33200000D02*
X120900000Y-33100000D01*
X118000000Y-27900000D02*
X113100000Y-27900000D01*
X120900000Y-33100000D02*
X120900000Y-30800000D01*
X119300000Y-36200000D02*
X119300000Y-34700000D01*
X120900000Y-30800000D02*
X118000000Y-27900000D01*
X121000000Y-36650000D02*
X119750000Y-36650000D01*
%TO.N,Net-(J4-Pin_8)*%
X87350000Y-36650000D02*
X86900000Y-36200000D01*
X86900000Y-34700000D02*
X88500000Y-33100000D01*
X85600000Y-27900000D02*
X80700000Y-27900000D01*
X88500000Y-33100000D02*
X88500000Y-30800000D01*
X86900000Y-36200000D02*
X86900000Y-34700000D01*
X88600000Y-36650000D02*
X87350000Y-36650000D01*
X88500000Y-30800000D02*
X85600000Y-27900000D01*
%TO.N,Net-(J4-Pin_6)*%
X70800000Y-36200000D02*
X71250000Y-36650000D01*
X72400000Y-33100000D02*
X70800000Y-34700000D01*
X70800000Y-34700000D02*
X70800000Y-36200000D01*
X72400000Y-33000000D02*
X72400000Y-33100000D01*
X75600000Y-27900000D02*
X72400000Y-31100000D01*
X72400000Y-31100000D02*
X72400000Y-33000000D01*
X75620000Y-27900000D02*
X75600000Y-27900000D01*
X71250000Y-36650000D02*
X72500000Y-36650000D01*
%TO.N,Net-(J4-Pin_5)*%
X64600000Y-36650000D02*
X63350000Y-36650000D01*
X63350000Y-36650000D02*
X62900000Y-36200000D01*
X62900000Y-36200000D02*
X62900000Y-34700000D01*
X69700000Y-27900000D02*
X73080001Y-27900000D01*
X64500000Y-33100000D02*
X69700000Y-27900000D01*
X62900000Y-34700000D02*
X64500000Y-33100000D01*
%TO.N,Net-(J4-Pin_7)*%
X78900000Y-34700000D02*
X80400000Y-33200000D01*
X79350000Y-36650000D02*
X78900000Y-36200000D01*
X80600000Y-36650000D02*
X79350000Y-36650000D01*
X80500000Y-33100000D02*
X80500000Y-30240000D01*
X78900000Y-36200000D02*
X78900000Y-34700000D01*
X80500000Y-33100000D02*
X80500000Y-33100000D01*
X80500000Y-30240000D02*
X78160000Y-27900000D01*
X80400000Y-33200000D02*
X80400000Y-33100000D01*
X80400000Y-33100000D02*
X80500000Y-33100000D01*
D25*
%TO.N,+5V*%
X67600000Y-66500000D02*
X69200000Y-64900000D01*
X183500000Y-84700000D02*
X186220000Y-84700000D01*
X69200000Y-64900000D02*
X71500000Y-64900000D01*
X188763000Y-78157000D02*
X187120000Y-79800000D01*
X71560000Y-77120000D02*
X67600000Y-73160000D01*
X198457000Y-78157000D02*
X188763000Y-78157000D01*
X67600000Y-73160000D02*
X67600000Y-66500000D01*
X187120000Y-83800000D02*
X187120000Y-79800000D01*
X186220000Y-84700000D02*
X187120000Y-83800000D01*
X179000000Y-80200000D02*
X183500000Y-84700000D01*
X198500000Y-78200000D02*
X198457000Y-78157000D01*
X93700000Y-80200000D02*
X179000000Y-80200000D01*
D24*
%TO.N,Net-(JP17-C)*%
X156999999Y-74863663D02*
X158263662Y-73600000D01*
X156999999Y-75294999D02*
X156999999Y-74863663D01*
X160802943Y-73600000D02*
X177502943Y-56900000D01*
X188480000Y-59480000D02*
X188480000Y-60400000D01*
X158263662Y-73600000D02*
X160802943Y-73600000D01*
X185900000Y-56900000D02*
X188480000Y-59480000D01*
X177502943Y-56900000D02*
X185900000Y-56900000D01*
%TO.N,Net-(JP18-C)*%
X185940000Y-59040000D02*
X185940000Y-60400000D01*
X177568628Y-57400000D02*
X184300000Y-57400000D01*
X161689999Y-75329999D02*
X161689999Y-73278629D01*
X161689999Y-73278629D02*
X177568628Y-57400000D01*
X184300000Y-57400000D02*
X185940000Y-59040000D01*
%TO.N,Net-(JP19-C)*%
X177734314Y-57800000D02*
X182000000Y-57800000D01*
X183400000Y-59200000D02*
X183400000Y-60400000D01*
X182000000Y-57800000D02*
X183400000Y-59200000D01*
X166370000Y-69164314D02*
X177734314Y-57800000D01*
X166370000Y-75329999D02*
X166370000Y-69164314D01*
%TO.N,Net-(JP20-C)*%
X180860000Y-59375000D02*
X180860000Y-60399999D01*
X180860000Y-60795552D02*
X180860000Y-60400001D01*
X179685000Y-58200000D02*
X180860000Y-59375000D01*
X171040000Y-75364999D02*
X171040000Y-65060000D01*
X171040000Y-65060000D02*
X177900000Y-58200000D01*
X177900000Y-58200000D02*
X179685000Y-58200000D01*
%TO.N,Net-(JP21-C)*%
X175700000Y-75400000D02*
X175700000Y-72320000D01*
X175700000Y-72320000D02*
X178320000Y-69700000D01*
%TO.N,Net-(JP22-C)*%
X180860000Y-73240000D02*
X180860000Y-69700001D01*
X180350001Y-73749999D02*
X180860000Y-73240000D01*
X180350001Y-75400000D02*
X180350001Y-73749999D01*
%TO.N,Net-(JP23-C)*%
X183400000Y-72900000D02*
X183400000Y-69700000D01*
X184194999Y-73694999D02*
X183400000Y-72900000D01*
X184990001Y-75435000D02*
X184990001Y-74485000D01*
X184200000Y-73694999D02*
X184194999Y-73694999D01*
X184990001Y-74485000D02*
X184200000Y-73694999D01*
%TO.N,Net-(JP24-C)*%
X185940000Y-71311163D02*
X185940000Y-69700000D01*
X189590001Y-74961164D02*
X185940000Y-71311163D01*
X189590001Y-75392500D02*
X189590001Y-74961164D01*
%TO.N,Net-(J8-Pin_3)*%
X124000000Y-61900000D02*
X124000000Y-59500000D01*
X130260000Y-58700000D02*
X132860000Y-61300000D01*
X116700000Y-69200000D02*
X124000000Y-61900000D01*
X124000000Y-59500000D02*
X124800000Y-58700000D01*
X78340000Y-69200000D02*
X116700000Y-69200000D01*
X74040000Y-64900000D02*
X78340000Y-69200000D01*
X124800000Y-58700000D02*
X130260000Y-58700000D01*
D23*
%TO.N,Net-(J8-Pin_1)*%
X74040000Y-69980000D02*
X75660000Y-71600000D01*
X117480000Y-71600000D02*
X127780000Y-61300000D01*
X75660000Y-71600000D02*
X117480000Y-71600000D01*
D24*
%TO.N,Net-(J8-Pin_4)*%
X121400000Y-63674314D02*
X121400000Y-59070051D01*
X132400000Y-58300000D02*
X135400000Y-61300000D01*
X116274314Y-68800000D02*
X121400000Y-63674314D01*
X80480000Y-68800000D02*
X116274314Y-68800000D01*
X121400000Y-59070051D02*
X122170051Y-58300000D01*
X74040000Y-62360000D02*
X80480000Y-68800000D01*
X122170051Y-58300000D02*
X132400000Y-58300000D01*
%TO.N,Net-(J8-Pin_5)*%
X73360001Y-60500000D02*
X75100000Y-60500000D01*
X114027235Y-66788400D02*
X119060000Y-61755635D01*
X86600000Y-67600000D02*
X87400000Y-68400000D01*
X93700000Y-68400000D02*
X95311600Y-66788400D01*
X78622843Y-66377157D02*
X85400659Y-66377157D01*
X75922843Y-61322843D02*
X75922843Y-63677157D01*
X119060000Y-61755635D02*
X119060000Y-60844365D01*
X95311600Y-66788400D02*
X114027235Y-66788400D01*
X85400659Y-66377157D02*
X86600000Y-67576498D01*
X75100000Y-60500000D02*
X75922843Y-61322843D01*
X71500000Y-62360001D02*
X73360001Y-60500000D01*
X119060000Y-60844365D02*
X122004365Y-57900000D01*
X87400000Y-68400000D02*
X93700000Y-68400000D01*
X122004365Y-57900000D02*
X139620000Y-57900000D01*
X86600000Y-67576498D02*
X86600000Y-67600000D01*
X139620000Y-57900000D02*
X143020000Y-61300000D01*
X75922843Y-63677157D02*
X78622843Y-66377157D01*
%TO.N,Net-(J9-Pin_24)*%
X193000000Y-59500000D02*
X189500000Y-56000000D01*
X158231372Y-67900000D02*
X146580000Y-67900000D01*
X146580000Y-67900000D02*
X137940000Y-76540000D01*
X189500000Y-56000000D02*
X170131372Y-56000000D01*
X193000000Y-59600000D02*
X193000000Y-59500000D01*
X170131372Y-56000000D02*
X158231372Y-67900000D01*
X193000000Y-59600000D02*
X192900000Y-59600000D01*
%TO.N,Net-(J9-Pin_33)*%
X184700000Y-69700000D02*
X184735001Y-69650000D01*
X213300000Y-34720000D02*
X209100000Y-30520000D01*
X213300000Y-70431372D02*
X213300000Y-34720000D01*
X203105884Y-73200000D02*
X210531372Y-73200000D01*
X184670000Y-69700000D02*
X184670000Y-65455000D01*
X186000000Y-64125000D02*
X194030884Y-64125000D01*
X210531372Y-73200000D02*
X213300000Y-70431372D01*
X184670000Y-65455000D02*
X186000000Y-64125000D01*
X194030884Y-64125000D02*
X203105884Y-73200000D01*
D23*
%TO.N,Net-(J9-Pin_14)*%
X81750000Y-34650000D02*
X81750000Y-33150000D01*
D24*
X85000000Y-44900000D02*
X96851472Y-44900000D01*
X81800000Y-41720000D02*
X81820000Y-41720000D01*
X81750000Y-33050000D02*
X81750000Y-32950000D01*
X196000000Y-50500000D02*
X206500000Y-61000000D01*
D23*
X80650000Y-35750000D02*
X81750000Y-34650000D01*
X81750000Y-33150000D02*
X81700000Y-33100000D01*
D24*
X81820000Y-41720000D02*
X85000000Y-44900000D01*
X96851472Y-44900000D02*
X102451472Y-50500000D01*
D23*
X103197392Y-52600000D02*
X110000000Y-59402608D01*
X110000000Y-59402608D02*
X110000000Y-61300000D01*
D24*
X102451472Y-50500000D02*
X196000000Y-50500000D01*
X81700000Y-33100000D02*
X81750000Y-33050000D01*
X206500000Y-61000000D02*
X206560000Y-61000000D01*
D23*
%TO.N,Net-(J9-Pin_1)*%
X187130000Y-33150000D02*
X187180000Y-33100000D01*
D24*
X187000000Y-42600000D02*
X191940000Y-42600000D01*
D23*
X187130000Y-34650000D02*
X187130000Y-33150000D01*
D24*
X191940000Y-42600000D02*
X206560000Y-27980000D01*
D23*
X186030000Y-35750000D02*
X187130000Y-34650000D01*
D24*
X187180000Y-33100000D02*
X187130000Y-33050000D01*
X187130000Y-33050000D02*
X187130000Y-32950000D01*
%TO.N,Net-(J9-Pin_26)*%
X192900000Y-57500000D02*
X190600000Y-55200000D01*
X157900000Y-67100000D02*
X142300000Y-67100000D01*
X142300000Y-67100000D02*
X132860000Y-76540000D01*
X193000000Y-57500000D02*
X192900000Y-57500000D01*
X190600000Y-55200000D02*
X169800000Y-55200000D01*
X169800000Y-55200000D02*
X157900000Y-67100000D01*
%TO.N,Net-(J9-Pin_13)*%
X102700000Y-49900000D02*
X198000000Y-49900000D01*
D23*
X88650000Y-35750000D02*
X89750000Y-34650000D01*
D24*
X89800000Y-33100000D02*
X89750000Y-33050000D01*
D23*
X89750000Y-33150000D02*
X89800000Y-33100000D01*
D24*
X89750000Y-33050000D02*
X89750000Y-32950000D01*
D23*
X89750000Y-34650000D02*
X89750000Y-33150000D01*
X107460000Y-58135399D02*
X107460000Y-61300000D01*
D24*
X89800000Y-41620000D02*
X94420000Y-41620000D01*
X94420000Y-41620000D02*
X102700000Y-49900000D01*
X198000000Y-49900000D02*
X206560000Y-58460000D01*
D23*
X101924601Y-52600000D02*
X107460000Y-58135399D01*
D24*
%TO.N,Net-(J9-Pin_25)*%
X169731372Y-55834315D02*
X167932844Y-57632843D01*
X193015685Y-58484314D02*
X190131371Y-55600000D01*
X167932844Y-57632843D02*
X167932843Y-57632843D01*
X158065686Y-67500000D02*
X144440000Y-67500000D01*
X167932843Y-57632843D02*
X158065686Y-67500000D01*
X144440000Y-67500000D02*
X135400000Y-76540000D01*
X190131371Y-55600000D02*
X169965686Y-55600000D01*
X169965686Y-55600000D02*
X169731372Y-55834315D01*
X193015686Y-58484314D02*
X193015685Y-58484314D01*
%TO.N,Net-(J9-Pin_11)*%
X106100000Y-33000000D02*
X106100000Y-32900000D01*
D23*
X99379018Y-52600000D02*
X102380000Y-55600982D01*
X106100000Y-34600000D02*
X106100000Y-33000000D01*
D24*
X201980000Y-48800000D02*
X206560000Y-53380000D01*
X106200000Y-41550000D02*
X113450000Y-48800000D01*
D23*
X105000000Y-35700000D02*
X106100000Y-34600000D01*
D24*
X113450000Y-48800000D02*
X201980000Y-48800000D01*
D23*
X102380000Y-55600982D02*
X102380000Y-61300000D01*
D24*
%TO.N,Net-(J9-Pin_5)*%
X199600000Y-45100000D02*
X206560000Y-38140000D01*
X154650000Y-33180000D02*
X154650000Y-33080000D01*
D23*
X154650000Y-34780000D02*
X154650000Y-33280000D01*
D24*
X198900000Y-45800000D02*
X199500000Y-45200000D01*
X154660000Y-41640000D02*
X158820000Y-45800000D01*
X199500000Y-45200000D02*
X199500000Y-45100000D01*
D23*
X153550000Y-35880000D02*
X154650000Y-34780000D01*
X154700000Y-33230000D02*
X154700000Y-33230000D01*
X154700000Y-33230000D02*
X154600000Y-33230000D01*
D24*
X154600000Y-33130000D02*
X154650000Y-33180000D01*
D23*
X154650000Y-33280000D02*
X154700000Y-33230000D01*
D24*
X154600000Y-33230000D02*
X154600000Y-33130000D01*
X158820000Y-45800000D02*
X198900000Y-45800000D01*
X199500000Y-45100000D02*
X199600000Y-45100000D01*
%TO.N,Net-(J9-Pin_15)*%
X196100000Y-53080000D02*
X196080000Y-53080000D01*
D23*
X112540000Y-60669816D02*
X112540000Y-61300000D01*
D24*
X73700000Y-33100000D02*
X73700000Y-33000000D01*
X102200000Y-51200000D02*
X194200000Y-51200000D01*
X73700000Y-33000000D02*
X73700000Y-32900000D01*
X73800000Y-41720000D02*
X77680000Y-45600000D01*
X196080000Y-53080000D02*
X194200000Y-51200000D01*
X77680000Y-45600000D02*
X96600000Y-45600000D01*
D23*
X104470184Y-52600000D02*
X112540000Y-60669816D01*
D24*
X96600000Y-45600000D02*
X102200000Y-51200000D01*
X196100000Y-53080000D02*
X206560000Y-63540000D01*
D23*
X72600000Y-35700000D02*
X73700000Y-34600000D01*
X73700000Y-34600000D02*
X73700000Y-33100000D01*
D24*
%TO.N,Net-(J9-Pin_29)*%
X203768628Y-71600000D02*
X209631372Y-71600000D01*
X182130000Y-61424999D02*
X183230001Y-62525000D01*
X182100000Y-60400000D02*
X182130000Y-60400000D01*
X209631372Y-71600000D02*
X211700000Y-69531372D01*
X211700000Y-69531372D02*
X211700000Y-43280000D01*
X194693628Y-62525000D02*
X203768628Y-71600000D01*
X182130000Y-60400000D02*
X182130000Y-61424999D01*
X211700000Y-43280000D02*
X209100000Y-40680000D01*
X183230001Y-62525000D02*
X194693628Y-62525000D01*
D23*
%TO.N,Net-(J9-Pin_7)*%
X137500000Y-35830000D02*
X138600000Y-34730000D01*
X92220000Y-52080000D02*
X92220000Y-61300000D01*
X94800000Y-50500000D02*
X93800000Y-50500000D01*
D24*
X138600000Y-33130000D02*
X138600000Y-33030000D01*
X138660000Y-41740000D02*
X143720000Y-46800000D01*
X143720000Y-46800000D02*
X202980000Y-46800000D01*
X202980000Y-46800000D02*
X206560000Y-43220000D01*
D23*
X93800000Y-50500000D02*
X92220000Y-52080000D01*
X138600000Y-34730000D02*
X138600000Y-33130000D01*
D24*
%TO.N,Net-(J9-Pin_6)*%
X146660000Y-41740000D02*
X151220000Y-46300000D01*
X200940000Y-46300000D02*
X201300000Y-45940000D01*
X201300000Y-45940000D02*
X201300000Y-45900000D01*
X146600000Y-33130000D02*
X146650000Y-33080000D01*
D23*
X145550000Y-35880000D02*
X146650000Y-34780000D01*
D24*
X201300000Y-45900000D02*
X201340000Y-45900000D01*
X151220000Y-46300000D02*
X200940000Y-46300000D01*
D23*
X146650000Y-34780000D02*
X146650000Y-33280000D01*
D24*
X201340000Y-45900000D02*
X206560000Y-40680000D01*
D23*
X146650000Y-33180000D02*
X146600000Y-33130000D01*
X146600000Y-33230000D02*
X146650000Y-33180000D01*
X146650000Y-33280000D02*
X146600000Y-33230000D01*
%TO.N,Net-(J9-Pin_10)*%
X114400000Y-33140000D02*
X114400000Y-34400000D01*
X99840000Y-54333773D02*
X99840000Y-61300000D01*
D24*
X114280000Y-32880000D02*
X114210000Y-32950000D01*
X114210000Y-32950000D02*
X114150000Y-32950000D01*
X114250000Y-41550000D02*
X121000000Y-48300000D01*
D23*
X114280000Y-33020000D02*
X114400000Y-33140000D01*
X114400000Y-34400000D02*
X113050000Y-35750000D01*
X114280000Y-32880000D02*
X114280000Y-33020000D01*
D24*
X204020000Y-48300000D02*
X206560000Y-50840000D01*
D23*
X98106226Y-52599999D02*
X99840000Y-54333773D01*
D24*
X114200000Y-41550000D02*
X114250000Y-41550000D01*
X121000000Y-48300000D02*
X204020000Y-48300000D01*
%TO.N,Net-(J9-Pin_23)*%
X193000000Y-60700000D02*
X188700000Y-56400000D01*
X170297058Y-56400000D02*
X158397058Y-68300000D01*
X148720000Y-68300000D02*
X140480000Y-76540000D01*
X158397058Y-68300000D02*
X148720000Y-68300000D01*
X188700000Y-56400000D02*
X170297058Y-56400000D01*
%TO.N,Net-(J9-Pin_16)*%
X192280000Y-51800000D02*
X206560000Y-66080000D01*
D23*
X65700000Y-33200000D02*
X65750000Y-33150000D01*
D24*
X96300000Y-46300000D02*
X101800000Y-51800000D01*
X101800000Y-51800000D02*
X192280000Y-51800000D01*
D23*
X65750000Y-34750000D02*
X65750000Y-33250000D01*
X65750000Y-33250000D02*
X65700000Y-33200000D01*
D24*
X65700000Y-33100000D02*
X65750000Y-33050000D01*
D23*
X106458511Y-52678511D02*
X115080000Y-61300000D01*
D24*
X70480000Y-46300000D02*
X96300000Y-46300000D01*
D23*
X64650000Y-35850000D02*
X65750000Y-34750000D01*
D24*
X65800000Y-41620000D02*
X70480000Y-46300000D01*
D23*
X65750000Y-33150000D02*
X65700000Y-33100000D01*
D24*
%TO.N,Net-(J9-Pin_34)*%
X187210000Y-65815000D02*
X188500000Y-64525000D01*
X213700000Y-32580000D02*
X209100000Y-27980000D01*
X213700000Y-70597058D02*
X213700000Y-32580000D01*
X188500000Y-64525000D02*
X193865198Y-64525000D01*
X187210000Y-69700001D02*
X187200000Y-69700000D01*
X187210000Y-69700001D02*
X187210000Y-65815000D01*
X210697058Y-73600000D02*
X213700000Y-70597058D01*
X202940198Y-73600000D02*
X210697058Y-73600000D01*
X193865198Y-64525000D02*
X202940198Y-73600000D01*
%TO.N,Net-(J9-Pin_32)*%
X182130000Y-65395000D02*
X183800000Y-63725000D01*
X194196570Y-63725000D02*
X203271570Y-72800000D01*
X182130000Y-69700000D02*
X182130000Y-65395000D01*
X212900000Y-70265686D02*
X212900000Y-36860000D01*
X182130000Y-69700000D02*
X182100000Y-69700000D01*
X210365686Y-72800000D02*
X210600000Y-72565685D01*
X183800000Y-63725000D02*
X194196570Y-63725000D01*
X210600000Y-72565685D02*
X212900000Y-70265686D01*
X212900000Y-36860000D02*
X209100000Y-33060000D01*
X203271570Y-72800000D02*
X210365686Y-72800000D01*
X182100000Y-69700000D02*
X182130000Y-68675001D01*
%TO.N,Net-(J9-Pin_2)*%
X192880000Y-44200000D02*
X206560000Y-30520000D01*
X179000000Y-42700000D02*
X180500000Y-44200000D01*
X180500000Y-44200000D02*
X192880000Y-44200000D01*
X179130000Y-33050000D02*
X179130000Y-32950000D01*
D23*
X178030000Y-35750000D02*
X179130000Y-34650000D01*
X179130000Y-33150000D02*
X179080000Y-33100000D01*
X179130000Y-34650000D02*
X179130000Y-33150000D01*
D24*
X179080000Y-33100000D02*
X179130000Y-33050000D01*
%TO.N,Net-(J9-Pin_12)*%
X98100000Y-33100000D02*
X98150000Y-33050000D01*
D23*
X98150000Y-33150000D02*
X98100000Y-33100000D01*
D24*
X98200000Y-41450000D02*
X98200000Y-41500000D01*
D23*
X98100000Y-33200000D02*
X98150000Y-33150000D01*
D24*
X98200000Y-41500000D02*
X106000000Y-49300000D01*
D23*
X98150000Y-33250000D02*
X98100000Y-33200000D01*
D24*
X106000000Y-49300000D02*
X199940000Y-49300000D01*
X199940000Y-49300000D02*
X206560000Y-55920000D01*
D23*
X104920000Y-56868191D02*
X104920000Y-61300000D01*
X100651809Y-52600000D02*
X104920000Y-56868191D01*
X97050000Y-35850000D02*
X98150000Y-34750000D01*
X98150000Y-34750000D02*
X98150000Y-33250000D01*
D24*
%TO.N,Net-(J9-Pin_3)*%
X190200000Y-44800000D02*
X173100000Y-44800000D01*
D23*
X171080000Y-34600000D02*
X171080000Y-33000000D01*
D24*
X194820000Y-44800000D02*
X206560000Y-33060000D01*
X190200000Y-44800000D02*
X194820000Y-44800000D01*
X171080000Y-33000000D02*
X171080000Y-32900000D01*
D23*
X169980000Y-35700000D02*
X171080000Y-34600000D01*
D24*
X173100000Y-44800000D02*
X171000000Y-42700000D01*
%TO.N,Net-(J9-Pin_30)*%
X181090001Y-62925000D02*
X194527942Y-62925000D01*
X212100000Y-69697058D02*
X212100000Y-41140000D01*
X179590000Y-61424999D02*
X181090001Y-62925000D01*
X203602942Y-72000000D02*
X209797058Y-72000000D01*
X179600000Y-60400000D02*
X179590000Y-60400000D01*
X212100000Y-41140000D02*
X209100000Y-38140000D01*
X179590000Y-60400000D02*
X179590000Y-61424999D01*
X194527942Y-62925000D02*
X203602942Y-72000000D01*
X209797058Y-72000000D02*
X212100000Y-69697058D01*
D23*
%TO.N,Net-(J9-Pin_9)*%
X121050000Y-35750000D02*
X122150000Y-34650000D01*
D24*
X122151471Y-41551471D02*
X128400000Y-47800000D01*
X122150000Y-33050000D02*
X122150000Y-32950000D01*
X128400000Y-47800000D02*
X206060000Y-47800000D01*
D23*
X122150000Y-34650000D02*
X122150000Y-33150000D01*
D24*
X122151471Y-41500000D02*
X122151471Y-41551471D01*
D23*
X97300000Y-61300000D02*
X97300000Y-53000000D01*
X122150000Y-33150000D02*
X122200000Y-33100000D01*
D24*
X206060000Y-47800000D02*
X206560000Y-48300000D01*
D23*
X97300000Y-53000000D02*
X95800000Y-51500000D01*
D24*
X122200000Y-33100000D02*
X122150000Y-33050000D01*
%TO.N,Net-(J9-Pin_28)*%
X184670000Y-60400000D02*
X184670000Y-60795552D01*
X211300000Y-45420000D02*
X209100000Y-43220000D01*
X185999448Y-62125000D02*
X194859314Y-62125000D01*
X184670000Y-60795552D02*
X185999448Y-62125000D01*
X203934314Y-71200000D02*
X209465686Y-71200000D01*
X184700000Y-60400000D02*
X184670000Y-60400000D01*
X209465686Y-71200000D02*
X211300000Y-69365686D01*
X194859314Y-62125000D02*
X203934314Y-71200000D01*
X211300000Y-69365686D02*
X211300000Y-45420000D01*
%TO.N,Net-(J9-Pin_31)*%
X212500000Y-70100000D02*
X212500000Y-39000000D01*
X179590000Y-69700000D02*
X179590000Y-65835000D01*
X179600000Y-69700000D02*
X179590000Y-68675001D01*
X194362256Y-63325000D02*
X203437256Y-72400000D01*
X210200000Y-72400000D02*
X212500000Y-70100000D01*
X179590000Y-65835000D02*
X182100000Y-63325000D01*
X203437256Y-72400000D02*
X210200000Y-72400000D01*
X179590000Y-69700000D02*
X179600000Y-69700000D01*
X182100000Y-63325000D02*
X194362256Y-63325000D01*
X212500000Y-39000000D02*
X209100000Y-35600000D01*
%TO.N,Net-(J9-Pin_8)*%
X130700000Y-33230000D02*
X130650000Y-33180000D01*
D23*
X94400000Y-51500000D02*
X94760000Y-51860000D01*
X130600000Y-33330000D02*
X130650000Y-33280000D01*
D24*
X136300000Y-47300000D02*
X205020000Y-47300000D01*
D23*
X130650000Y-34880000D02*
X130650000Y-33380000D01*
D24*
X130660000Y-41640000D02*
X130660000Y-41660000D01*
D23*
X129550000Y-35980000D02*
X130650000Y-34880000D01*
X130650000Y-33280000D02*
X130700000Y-33230000D01*
D24*
X205020000Y-47300000D02*
X206560000Y-45760000D01*
D23*
X94760000Y-51860000D02*
X94760000Y-61300000D01*
X130650000Y-33380000D02*
X130600000Y-33330000D01*
D24*
X130660000Y-41660000D02*
X136300000Y-47300000D01*
%TO.N,Net-(J9-Pin_4)*%
X163130000Y-33150000D02*
X163130000Y-33050000D01*
X198100000Y-44060000D02*
X198100000Y-44000000D01*
D23*
X163130000Y-34750000D02*
X163130000Y-33250000D01*
D24*
X165700000Y-45300000D02*
X196860000Y-45300000D01*
X163000000Y-42600000D02*
X165700000Y-45300000D01*
X198100000Y-44000000D02*
X198160000Y-44000000D01*
X196860000Y-45300000D02*
X198100000Y-44060000D01*
D23*
X162030000Y-35850000D02*
X163130000Y-34750000D01*
D24*
X198160000Y-44000000D02*
X206560000Y-35600000D01*
X163080000Y-33200000D02*
X163130000Y-33150000D01*
D23*
X163130000Y-33250000D02*
X163080000Y-33200000D01*
D24*
%TO.N,Net-(J9-Pin_27)*%
X209300000Y-70800000D02*
X210900000Y-69200000D01*
X187210000Y-60795552D02*
X188139448Y-61725000D01*
X187210000Y-60399999D02*
X187210000Y-60795552D01*
X195025000Y-61725000D02*
X204100000Y-70800000D01*
X210900000Y-47560000D02*
X209100000Y-45760000D01*
X204100000Y-70800000D02*
X209300000Y-70800000D01*
X210900000Y-69200000D02*
X210900000Y-47560000D01*
X188139448Y-61725000D02*
X195025000Y-61725000D01*
X187200000Y-60400000D02*
X187210000Y-60399999D01*
%TD*%
M02*
