%TF.GenerationSoftware,KiCad,Pcbnew,8.0.3-1.fc40*%
%TF.CreationDate,2024-07-04T16:01:22-04:00*%
%TF.ProjectId,boards_v3,626f6172-6473-45f7-9633-2e6b69636164,rev?*%
%TF.SameCoordinates,Original*%
%TF.FileFunction,Copper,L1,Top*%
%TF.FilePolarity,Positive*%
%FSLAX46Y46*%
G04 Gerber Fmt 4.6, Leading zero omitted, Abs format (unit mm)*
G04 Created by KiCad (PCBNEW 8.0.3-1.fc40) date 2024-07-04 16:01:22*
%MOMM*%
%LPD*%
G01*
G04 APERTURE LIST*
G04 Aperture macros list*
%AMRoundRect*
0 Rectangle with rounded corners*
0 $1 Rounding radius*
0 $2 $3 $4 $5 $6 $7 $8 $9 X,Y pos of 4 corners*
0 Add a 4 corners polygon primitive as box body*
4,1,4,$2,$3,$4,$5,$6,$7,$8,$9,$2,$3,0*
0 Add four circle primitives for the rounded corners*
1,1,$1+$1,$2,$3*
1,1,$1+$1,$4,$5*
1,1,$1+$1,$6,$7*
1,1,$1+$1,$8,$9*
0 Add four rect primitives between the rounded corners*
20,1,$1+$1,$2,$3,$4,$5,0*
20,1,$1+$1,$4,$5,$6,$7,0*
20,1,$1+$1,$6,$7,$8,$9,0*
20,1,$1+$1,$8,$9,$2,$3,0*%
%AMFreePoly0*
4,1,19,0.550000,-0.750000,0.000000,-0.750000,0.000000,-0.744911,-0.071157,-0.744911,-0.207708,-0.704816,-0.327430,-0.627875,-0.420627,-0.520320,-0.479746,-0.390866,-0.500000,-0.250000,-0.500000,0.250000,-0.479746,0.390866,-0.420627,0.520320,-0.327430,0.627875,-0.207708,0.704816,-0.071157,0.744911,0.000000,0.744911,0.000000,0.750000,0.550000,0.750000,0.550000,-0.750000,0.550000,-0.750000,
$1*%
%AMFreePoly1*
4,1,19,0.000000,0.744911,0.071157,0.744911,0.207708,0.704816,0.327430,0.627875,0.420627,0.520320,0.479746,0.390866,0.500000,0.250000,0.500000,-0.250000,0.479746,-0.390866,0.420627,-0.520320,0.327430,-0.627875,0.207708,-0.704816,0.071157,-0.744911,0.000000,-0.744911,0.000000,-0.750000,-0.550000,-0.750000,-0.550000,0.750000,0.000000,0.750000,0.000000,0.744911,0.000000,0.744911,
$1*%
G04 Aperture macros list end*
%TA.AperFunction,SMDPad,CuDef*%
%ADD10RoundRect,0.150000X-0.650000X-0.150000X0.650000X-0.150000X0.650000X0.150000X-0.650000X0.150000X0*%
%TD*%
%TA.AperFunction,ComponentPad*%
%ADD11C,1.600000*%
%TD*%
%TA.AperFunction,ComponentPad*%
%ADD12R,1.600000X1.600000*%
%TD*%
%TA.AperFunction,ComponentPad*%
%ADD13R,1.300000X1.300000*%
%TD*%
%TA.AperFunction,ComponentPad*%
%ADD14C,1.300000*%
%TD*%
%TA.AperFunction,SMDPad,CuDef*%
%ADD15FreePoly0,0.000000*%
%TD*%
%TA.AperFunction,SMDPad,CuDef*%
%ADD16R,1.000000X1.500000*%
%TD*%
%TA.AperFunction,SMDPad,CuDef*%
%ADD17FreePoly1,0.000000*%
%TD*%
%TA.AperFunction,ComponentPad*%
%ADD18C,2.286000*%
%TD*%
%TA.AperFunction,SMDPad,CuDef*%
%ADD19RoundRect,0.381000X0.762000X0.381000X-0.762000X0.381000X-0.762000X-0.381000X0.762000X-0.381000X0*%
%TD*%
%TA.AperFunction,SMDPad,CuDef*%
%ADD20RoundRect,0.150000X-0.150000X0.875000X-0.150000X-0.875000X0.150000X-0.875000X0.150000X0.875000X0*%
%TD*%
%TA.AperFunction,ViaPad*%
%ADD21C,0.600000*%
%TD*%
%TA.AperFunction,Conductor*%
%ADD22C,0.200000*%
%TD*%
%TA.AperFunction,Conductor*%
%ADD23C,0.600000*%
%TD*%
G04 APERTURE END LIST*
D10*
%TO.P,U13,5,VCC*%
%TO.N,+3.3V*%
X99200000Y-35700000D03*
%TO.P,U13,4,~E*%
%TO.N,Net-(U10-~E)*%
X99200000Y-37600000D03*
%TO.P,U13,3,GND*%
%TO.N,GND*%
X96900000Y-37600000D03*
%TO.P,U13,2,Z*%
%TO.N,Net-(J3-Pin_5)*%
X96900000Y-36650000D03*
%TO.P,U13,1,Y*%
%TO.N,Net-(J5-Pin_21)*%
X96900000Y-35700000D03*
%TD*%
%TO.P,U12,5,VCC*%
%TO.N,+3.3V*%
X107300000Y-35700000D03*
%TO.P,U12,4,~E*%
%TO.N,Net-(U10-~E)*%
X107300000Y-37600000D03*
%TO.P,U12,3,GND*%
%TO.N,GND*%
X105000000Y-37600000D03*
%TO.P,U12,2,Z*%
%TO.N,Net-(J3-Pin_6)*%
X105000000Y-36650000D03*
%TO.P,U12,1,Y*%
%TO.N,Net-(J5-Pin_22)*%
X105000000Y-35700000D03*
%TD*%
%TO.P,U11,5,VCC*%
%TO.N,+3.3V*%
X115300000Y-35700000D03*
%TO.P,U11,4,~E*%
%TO.N,Net-(U10-~E)*%
X115300000Y-37600000D03*
%TO.P,U11,3,GND*%
%TO.N,GND*%
X113000000Y-37600000D03*
%TO.P,U11,2,Z*%
%TO.N,Net-(J3-Pin_7)*%
X113000000Y-36650000D03*
%TO.P,U11,1,Y*%
%TO.N,Net-(J5-Pin_23)*%
X113000000Y-35700000D03*
%TD*%
%TO.P,U10,5,VCC*%
%TO.N,+3.3V*%
X123300000Y-35700000D03*
%TO.P,U10,4,~E*%
%TO.N,Net-(U10-~E)*%
X123300000Y-37600000D03*
%TO.P,U10,3,GND*%
%TO.N,GND*%
X121000000Y-37600000D03*
%TO.P,U10,2,Z*%
%TO.N,Net-(J3-Pin_8)*%
X121000000Y-36650000D03*
%TO.P,U10,1,Y*%
%TO.N,Net-(J5-Pin_24)*%
X121000000Y-35700000D03*
%TD*%
%TO.P,U9,5,VCC*%
%TO.N,+3.3V*%
X131750000Y-35780000D03*
%TO.P,U9,4,~E*%
%TO.N,Net-(U10-~E)*%
X131750000Y-37680000D03*
%TO.P,U9,3,GND*%
%TO.N,GND*%
X129450000Y-37680000D03*
%TO.P,U9,2,Z*%
%TO.N,Net-(J2-Pin_5)*%
X129450000Y-36730000D03*
%TO.P,U9,1,Y*%
%TO.N,Net-(J5-Pin_25)*%
X129450000Y-35780000D03*
%TD*%
%TO.P,U8,5,VCC*%
%TO.N,+3.3V*%
X139800000Y-35780000D03*
%TO.P,U8,4,~E*%
%TO.N,Net-(U10-~E)*%
X139800000Y-37680000D03*
%TO.P,U8,3,GND*%
%TO.N,GND*%
X137500000Y-37680000D03*
%TO.P,U8,2,Z*%
%TO.N,Net-(J2-Pin_6)*%
X137500000Y-36730000D03*
%TO.P,U8,1,Y*%
%TO.N,Net-(J5-Pin_26)*%
X137500000Y-35780000D03*
%TD*%
%TO.P,U7,5,VCC*%
%TO.N,+3.3V*%
X147750000Y-35780000D03*
%TO.P,U7,4,~E*%
%TO.N,Net-(U10-~E)*%
X147750000Y-37680000D03*
%TO.P,U7,3,GND*%
%TO.N,GND*%
X145450000Y-37680000D03*
%TO.P,U7,2,Z*%
%TO.N,Net-(J2-Pin_7)*%
X145450000Y-36730000D03*
%TO.P,U7,1,Y*%
%TO.N,Net-(J5-Pin_27)*%
X145450000Y-35780000D03*
%TD*%
%TO.P,U6,5,VCC*%
%TO.N,+3.3V*%
X155850000Y-35780000D03*
%TO.P,U6,4,~E*%
%TO.N,Net-(U10-~E)*%
X155850000Y-37680000D03*
%TO.P,U6,3,GND*%
%TO.N,GND*%
X153550000Y-37680000D03*
%TO.P,U6,2,Z*%
%TO.N,Net-(J2-Pin_8)*%
X153550000Y-36730000D03*
%TO.P,U6,1,Y*%
%TO.N,Net-(J5-Pin_28)*%
X153550000Y-35780000D03*
%TD*%
D11*
%TO.P,U1,49,VUSB*%
%TO.N,unconnected-(U1-VUSB-Pad49)*%
X87140001Y-63840000D03*
%TO.P,U1,59,GND*%
%TO.N,unconnected-(U1-GND-Pad59)*%
X101059200Y-73489200D03*
%TO.P,U1,58,GND*%
%TO.N,unconnected-(U1-GND-Pad58)*%
X98519200Y-73489200D03*
%TO.P,U1,57,D+*%
%TO.N,unconnected-(U1-D+-Pad57)*%
X95979200Y-73489200D03*
%TO.P,U1,56,D-*%
%TO.N,unconnected-(U1-D--Pad56)*%
X93439200Y-73489200D03*
D12*
%TO.P,U1,55,5V*%
%TO.N,unconnected-(U1-5V-Pad55)*%
X90899200Y-73489200D03*
D11*
%TO.P,U1,48,VIN*%
%TO.N,+5V*%
X84600000Y-61300000D03*
%TO.P,U1,47,GND*%
%TO.N,GND*%
X87140000Y-61300000D03*
%TO.P,U1,46,3V3*%
%TO.N,unconnected-(U1-3V3-Pad46)*%
X89680000Y-61300000D03*
%TO.P,U1,45,23_A9_CRX1_MCLK1*%
%TO.N,Net-(J5-Pin_26)*%
X92220000Y-61300000D03*
%TO.P,U1,44,22_A8_CTX1*%
%TO.N,Net-(J5-Pin_25)*%
X94760000Y-61300000D03*
%TO.P,U1,43,21_A7_RX5_BCLK1*%
%TO.N,Net-(J5-Pin_24)*%
X97300000Y-61300000D03*
%TO.P,U1,42,20_A6_TX5_LRCLK1*%
%TO.N,Net-(J5-Pin_23)*%
X99840000Y-61300000D03*
%TO.P,U1,41,19_A5_SCL*%
%TO.N,Net-(J5-Pin_22)*%
X102380000Y-61300000D03*
%TO.P,U1,40,18_A4_SDA*%
%TO.N,Net-(J5-Pin_21)*%
X104920000Y-61300000D03*
%TO.P,U1,39,17_A3_TX4_SDA1*%
%TO.N,Net-(J5-Pin_20)*%
X107460000Y-61300000D03*
%TO.P,U1,38,16_A2_RX4_SCL1*%
%TO.N,Net-(J5-Pin_19)*%
X110000000Y-61300000D03*
%TO.P,U1,37,15_A1_RX3_SPDIF_IN*%
%TO.N,Net-(J5-Pin_18)*%
X112540000Y-61300000D03*
%TO.P,U1,36,14_A0_TX3_SPDIF_OUT*%
%TO.N,Net-(J5-Pin_17)*%
X115080000Y-61300000D03*
%TO.P,U1,35,13_SCK_LED*%
%TO.N,unconnected-(U1-13_SCK_LED-Pad35)*%
X117620000Y-61300000D03*
D12*
%TO.P,U1,1,GND*%
%TO.N,unconnected-(U1-GND-Pad1)*%
X84600000Y-76540000D03*
D11*
%TO.P,U1,2,0_RX1_CRX2_CS1*%
%TO.N,unconnected-(U1-0_RX1_CRX2_CS1-Pad2)*%
X87140000Y-76540000D03*
%TO.P,U1,3,1_TX1_CTX2_MISO1*%
%TO.N,unconnected-(U1-1_TX1_CTX2_MISO1-Pad3)*%
X89680000Y-76540000D03*
%TO.P,U1,4,2_OUT2*%
%TO.N,unconnected-(U1-2_OUT2-Pad4)*%
X92220000Y-76540000D03*
%TO.P,U1,5,3_LRCLK2*%
%TO.N,unconnected-(U1-3_LRCLK2-Pad5)*%
X94760000Y-76540000D03*
%TO.P,U1,6,4_BCLK2*%
%TO.N,unconnected-(U1-4_BCLK2-Pad6)*%
X97300000Y-76540000D03*
%TO.P,U1,7,5_IN2*%
%TO.N,Net-(J5-Pin_9)*%
X99840000Y-76540000D03*
%TO.P,U1,8,6_OUT1D*%
%TO.N,Net-(J5-Pin_10)*%
X102380000Y-76540000D03*
%TO.P,U1,9,7_RX2_OUT1A*%
%TO.N,Net-(J5-Pin_11)*%
X104920000Y-76540000D03*
%TO.P,U1,10,8_TX2_IN1*%
%TO.N,Net-(J5-Pin_12)*%
X107460000Y-76540000D03*
%TO.P,U1,11,9_OUT1C*%
%TO.N,Net-(J5-Pin_13)*%
X110000000Y-76540000D03*
%TO.P,U1,12,10_CS_MQSR*%
%TO.N,Net-(J5-Pin_14)*%
X112540000Y-76540000D03*
%TO.P,U1,13,11_MOSI_CTX1*%
%TO.N,Net-(J5-Pin_15)*%
X115080000Y-76540000D03*
%TO.P,U1,34,GND*%
%TO.N,unconnected-(U1-GND-Pad34)*%
X120160000Y-61300000D03*
%TO.P,U1,33,41_A17*%
%TO.N,Net-(J5-Pin_32)*%
X122700000Y-61300000D03*
%TO.P,U1,32,40_A16*%
%TO.N,Net-(J5-Pin_31)*%
X125240000Y-61300000D03*
%TO.P,U1,31,39_MISO1_OUT1A*%
%TO.N,unconnected-(U1-39_MISO1_OUT1A-Pad31)*%
X127780000Y-61300000D03*
%TO.P,U1,30,38_CS1_IN1*%
%TO.N,unconnected-(U1-38_CS1_IN1-Pad30)*%
X130320000Y-61300000D03*
%TO.P,U1,29,37_CS*%
%TO.N,unconnected-(U1-37_CS-Pad29)*%
X132860000Y-61300000D03*
%TO.P,U1,28,36_CS*%
%TO.N,unconnected-(U1-36_CS-Pad28)*%
X135400000Y-61300000D03*
%TO.P,U1,27,35_TX8*%
%TO.N,Net-(J6-Pin_4)*%
X137940000Y-61300000D03*
%TO.P,U1,26,34_RX8*%
%TO.N,Net-(J6-Pin_5)*%
X140480000Y-61300000D03*
%TO.P,U1,25,33_MCLK2*%
%TO.N,unconnected-(U1-33_MCLK2-Pad25)*%
X143020000Y-61300000D03*
%TO.P,U1,24,32_OUT1B*%
%TO.N,unconnected-(U1-32_OUT1B-Pad24)*%
X143020000Y-76540000D03*
%TO.P,U1,23,31_CTX3*%
%TO.N,Net-(J5-Pin_5)*%
X140480000Y-76540000D03*
%TO.P,U1,22,30_CRX3*%
%TO.N,Net-(J5-Pin_6)*%
X137940000Y-76540000D03*
%TO.P,U1,21,29_TX7*%
%TO.N,Net-(J5-Pin_7)*%
X135400000Y-76540000D03*
%TO.P,U1,14,12_MISO_MQSL*%
%TO.N,Net-(J5-Pin_16)*%
X117620000Y-76540000D03*
%TO.P,U1,15,3V3*%
%TO.N,unconnected-(U1-3V3-Pad15)*%
X120160000Y-76540000D03*
%TO.P,U1,16,24_A10_TX6_SCL2*%
%TO.N,Net-(J5-Pin_27)*%
X122700000Y-76540000D03*
%TO.P,U1,20,28_RX7*%
%TO.N,Net-(J5-Pin_8)*%
X132860000Y-76540000D03*
%TO.P,U1,19,27_A13_SCK1*%
%TO.N,Net-(J5-Pin_30)*%
X130320000Y-76540000D03*
%TO.P,U1,18,26_A12_MOSI1*%
%TO.N,Net-(J5-Pin_29)*%
X127780000Y-76540000D03*
%TO.P,U1,17,25_A11_RX6_SDA2*%
%TO.N,Net-(J5-Pin_28)*%
X125240000Y-76540000D03*
D13*
%TO.P,U1,60,R+*%
%TO.N,unconnected-(U1-R+-Pad60)*%
X97569999Y-63738400D03*
D14*
%TO.P,U1,65,R-*%
%TO.N,unconnected-(U1-R--Pad65)*%
X99570000Y-63738400D03*
%TO.P,U1,61,LED*%
%TO.N,unconnected-(U1-LED-Pad61)*%
X97570000Y-65738400D03*
%TO.P,U1,64,GND*%
%TO.N,unconnected-(U1-GND-Pad64)*%
X99570000Y-65738401D03*
%TO.P,U1,63,T+*%
%TO.N,unconnected-(U1-T+-Pad63)*%
X99570000Y-67738400D03*
%TO.P,U1,62,T-*%
%TO.N,unconnected-(U1-T--Pad62)*%
X97570000Y-67738401D03*
D11*
%TO.P,U1,50,VBAT*%
%TO.N,unconnected-(U1-VBAT-Pad50)*%
X130320000Y-73999999D03*
%TO.P,U1,51,3V3*%
%TO.N,unconnected-(U1-3V3-Pad51)*%
X130320000Y-71460000D03*
%TO.P,U1,52,GND*%
%TO.N,unconnected-(U1-GND-Pad52)*%
X130320000Y-68920000D03*
%TO.P,U1,53,PROGRAM*%
%TO.N,unconnected-(U1-PROGRAM-Pad53)*%
X130320000Y-66380000D03*
%TO.P,U1,54,ON_OFF*%
%TO.N,unconnected-(U1-ON_OFF-Pad54)*%
X130320000Y-63840001D03*
D14*
%TO.P,U1,67,D+*%
%TO.N,unconnected-(U1-D+-Pad67)*%
X85329999Y-70190000D03*
%TO.P,U1,66,D-*%
%TO.N,unconnected-(U1-D--Pad66)*%
X85329999Y-67650000D03*
%TD*%
D15*
%TO.P,JP24,1,A*%
%TO.N,GND*%
X188290001Y-75392500D03*
D16*
%TO.P,JP24,2,C*%
%TO.N,Net-(JP24-C)*%
X189590001Y-75392500D03*
D17*
%TO.P,JP24,3,B*%
%TO.N,+3.3V*%
X190890001Y-75392500D03*
%TD*%
D15*
%TO.P,JP23,1,A*%
%TO.N,GND*%
X183690001Y-75435000D03*
D16*
%TO.P,JP23,2,C*%
%TO.N,Net-(JP23-C)*%
X184990001Y-75435000D03*
D17*
%TO.P,JP23,3,B*%
%TO.N,+3.3V*%
X186290001Y-75435000D03*
%TD*%
D15*
%TO.P,JP22,1,A*%
%TO.N,GND*%
X179050001Y-75400000D03*
D16*
%TO.P,JP22,2,C*%
%TO.N,Net-(JP22-C)*%
X180350001Y-75400000D03*
D17*
%TO.P,JP22,3,B*%
%TO.N,+3.3V*%
X181650001Y-75400000D03*
%TD*%
D15*
%TO.P,JP21,1,A*%
%TO.N,GND*%
X174400000Y-75400000D03*
D16*
%TO.P,JP21,2,C*%
%TO.N,Net-(JP21-C)*%
X175700000Y-75400000D03*
D17*
%TO.P,JP21,3,B*%
%TO.N,+3.3V*%
X177000000Y-75400000D03*
%TD*%
D15*
%TO.P,JP20,1,A*%
%TO.N,GND*%
X169740000Y-75364999D03*
D16*
%TO.P,JP20,2,C*%
%TO.N,Net-(JP20-C)*%
X171040000Y-75364999D03*
D17*
%TO.P,JP20,3,B*%
%TO.N,+3.3V*%
X172340000Y-75364999D03*
%TD*%
D15*
%TO.P,JP19,1,A*%
%TO.N,GND*%
X165070000Y-75329999D03*
D16*
%TO.P,JP19,2,C*%
%TO.N,Net-(JP19-C)*%
X166370000Y-75329999D03*
D17*
%TO.P,JP19,3,B*%
%TO.N,+3.3V*%
X167670000Y-75329999D03*
%TD*%
D15*
%TO.P,JP18,1,A*%
%TO.N,GND*%
X160389999Y-75329999D03*
D16*
%TO.P,JP18,2,C*%
%TO.N,Net-(JP18-C)*%
X161689999Y-75329999D03*
D17*
%TO.P,JP18,3,B*%
%TO.N,+3.3V*%
X162989999Y-75329999D03*
%TD*%
D15*
%TO.P,JP17,1,A*%
%TO.N,GND*%
X155699999Y-75294999D03*
D16*
%TO.P,JP17,2,C*%
%TO.N,Net-(JP17-C)*%
X156999999Y-75294999D03*
D17*
%TO.P,JP17,3,B*%
%TO.N,+3.3V*%
X158299999Y-75294999D03*
%TD*%
D18*
%TO.P,J6,1,Pin_1*%
%TO.N,+3.3V*%
X184580000Y-82340000D03*
%TO.P,J6,2,Pin_2*%
%TO.N,+5V*%
X187120000Y-82340000D03*
%TO.P,J6,3,Pin_3*%
%TO.N,GND*%
X189660000Y-82340000D03*
%TO.P,J6,4,Pin_4*%
%TO.N,Net-(J6-Pin_4)*%
X192200000Y-82340000D03*
%TO.P,J6,5,Pin_5*%
%TO.N,Net-(J6-Pin_5)*%
X192200000Y-79800000D03*
%TO.P,J6,6,Pin_6*%
%TO.N,GND*%
X189660000Y-79800000D03*
%TO.P,J6,7,Pin_7*%
%TO.N,+5V*%
X187120000Y-79800000D03*
%TO.P,J6,8,Pin_8*%
%TO.N,+3.3V*%
X184580000Y-79800000D03*
%TD*%
D19*
%TO.P,J5,1,Pin_1*%
%TO.N,GND*%
X208000000Y-88700000D03*
%TO.P,J5,2,Pin_2*%
%TO.N,+5V*%
X208000000Y-86700001D03*
%TO.P,J5,3,Pin_3*%
%TO.N,+3.3V*%
X208000000Y-84700000D03*
%TO.P,J5,4,Pin_4*%
%TO.N,GND*%
X208000000Y-82699999D03*
%TO.P,J5,5,Pin_5*%
%TO.N,Net-(J5-Pin_5)*%
X208000000Y-80700000D03*
%TO.P,J5,6,Pin_6*%
%TO.N,Net-(J5-Pin_6)*%
X208000000Y-78700000D03*
%TO.P,J5,7,Pin_7*%
%TO.N,Net-(J5-Pin_7)*%
X208000000Y-76700000D03*
%TO.P,J5,8,Pin_8*%
%TO.N,Net-(J5-Pin_8)*%
X208000000Y-74700000D03*
%TO.P,J5,9,Pin_9*%
%TO.N,Net-(J5-Pin_9)*%
X208000000Y-72700001D03*
%TO.P,J5,10,Pin_10*%
%TO.N,Net-(J5-Pin_10)*%
X208000000Y-70700000D03*
%TO.P,J5,11,Pin_11*%
%TO.N,Net-(J5-Pin_11)*%
X208000000Y-68699999D03*
%TO.P,J5,12,Pin_12*%
%TO.N,Net-(J5-Pin_12)*%
X208000000Y-66700000D03*
%TO.P,J5,13,Pin_13*%
%TO.N,Net-(J5-Pin_13)*%
X208000000Y-64700000D03*
%TO.P,J5,14,Pin_14*%
%TO.N,Net-(J5-Pin_14)*%
X208000000Y-62700000D03*
%TO.P,J5,15,Pin_15*%
%TO.N,Net-(J5-Pin_15)*%
X208000000Y-60700000D03*
%TO.P,J5,16,Pin_16*%
%TO.N,Net-(J5-Pin_16)*%
X208000000Y-58700000D03*
%TO.P,J5,17,Pin_17*%
%TO.N,Net-(J5-Pin_17)*%
X208000000Y-56700000D03*
%TO.P,J5,18,Pin_18*%
%TO.N,Net-(J5-Pin_18)*%
X208000000Y-54700001D03*
%TO.P,J5,19,Pin_19*%
%TO.N,Net-(J5-Pin_19)*%
X208000000Y-52700000D03*
%TO.P,J5,20,Pin_20*%
%TO.N,Net-(J5-Pin_20)*%
X208000000Y-50699999D03*
%TO.P,J5,21,Pin_21*%
%TO.N,Net-(J5-Pin_21)*%
X208000000Y-48700000D03*
%TO.P,J5,22,Pin_22*%
%TO.N,Net-(J5-Pin_22)*%
X208000000Y-46700000D03*
%TO.P,J5,23,Pin_23*%
%TO.N,Net-(J5-Pin_23)*%
X208000000Y-44700000D03*
%TO.P,J5,24,Pin_24*%
%TO.N,Net-(J5-Pin_24)*%
X208000000Y-42700000D03*
%TO.P,J5,25,Pin_25*%
%TO.N,Net-(J5-Pin_25)*%
X208000000Y-40700001D03*
%TO.P,J5,26,Pin_26*%
%TO.N,Net-(J5-Pin_26)*%
X208000000Y-38700000D03*
%TO.P,J5,27,Pin_27*%
%TO.N,Net-(J5-Pin_27)*%
X208000000Y-36699999D03*
%TO.P,J5,28,Pin_28*%
%TO.N,Net-(J5-Pin_28)*%
X208000000Y-34700000D03*
%TO.P,J5,29,Pin_29*%
%TO.N,Net-(J5-Pin_29)*%
X208000000Y-32700000D03*
%TO.P,J5,30,Pin_30*%
%TO.N,Net-(J5-Pin_30)*%
X208000000Y-30700000D03*
%TO.P,J5,31,Pin_31*%
%TO.N,Net-(J5-Pin_31)*%
X208000000Y-28700000D03*
%TO.P,J5,32,Pin_32*%
%TO.N,Net-(J5-Pin_32)*%
X208000000Y-26700000D03*
%TD*%
D18*
%TO.P,J3,8,Pin_8*%
%TO.N,Net-(J3-Pin_8)*%
X113040000Y-27800000D03*
%TO.P,J3,7,Pin_7*%
%TO.N,Net-(J3-Pin_7)*%
X110500000Y-27800000D03*
%TO.P,J3,6,Pin_6*%
%TO.N,Net-(J3-Pin_6)*%
X107960000Y-27800000D03*
%TO.P,J3,5,Pin_5*%
%TO.N,Net-(J3-Pin_5)*%
X105420001Y-27800000D03*
%TO.P,J3,4,Pin_4*%
%TO.N,GND*%
X105420000Y-25260000D03*
%TO.P,J3,3,Pin_3*%
%TO.N,unconnected-(J3-Pin_3-Pad3)*%
X107960000Y-25260000D03*
%TO.P,J3,2,Pin_2*%
%TO.N,unconnected-(J3-Pin_2-Pad2)*%
X110500000Y-25260000D03*
%TO.P,J3,1,Pin_1*%
%TO.N,+3.3V*%
X113040000Y-25260000D03*
%TD*%
%TO.P,J2,8,Pin_8*%
%TO.N,Net-(J2-Pin_8)*%
X145700000Y-28030000D03*
%TO.P,J2,7,Pin_7*%
%TO.N,Net-(J2-Pin_7)*%
X143160000Y-28030000D03*
%TO.P,J2,6,Pin_6*%
%TO.N,Net-(J2-Pin_6)*%
X140620000Y-28030000D03*
%TO.P,J2,5,Pin_5*%
%TO.N,Net-(J2-Pin_5)*%
X138080001Y-28030000D03*
%TO.P,J2,4,Pin_4*%
%TO.N,GND*%
X138080000Y-25490000D03*
%TO.P,J2,3,Pin_3*%
%TO.N,unconnected-(J2-Pin_3-Pad3)*%
X140620000Y-25490000D03*
%TO.P,J2,2,Pin_2*%
%TO.N,unconnected-(J2-Pin_2-Pad2)*%
X143160000Y-25490000D03*
%TO.P,J2,1,Pin_1*%
%TO.N,+3.3V*%
X145700000Y-25490000D03*
%TD*%
D20*
%TO.P,U18,20,VCC*%
%TO.N,+3.3V*%
X189750000Y-69700000D03*
%TO.P,U18,19,Y*%
%TO.N,Net-(U10-~E)*%
X188480000Y-69700000D03*
%TO.P,U18,18,B7*%
%TO.N,Net-(J5-Pin_9)*%
X187210000Y-69700001D03*
%TO.P,U18,17,A7*%
%TO.N,Net-(JP24-C)*%
X185940000Y-69700000D03*
%TO.P,U18,16,B6*%
%TO.N,Net-(J5-Pin_10)*%
X184670000Y-69700000D03*
%TO.P,U18,15,A6*%
%TO.N,Net-(JP23-C)*%
X183400000Y-69700000D03*
%TO.P,U18,14,B5*%
%TO.N,Net-(J5-Pin_11)*%
X182130000Y-69700000D03*
%TO.P,U18,13,A5*%
%TO.N,Net-(JP22-C)*%
X180860000Y-69700001D03*
%TO.P,U18,12,B4*%
%TO.N,Net-(J5-Pin_12)*%
X179590000Y-69700000D03*
%TO.P,U18,11,A4*%
%TO.N,Net-(JP21-C)*%
X178320000Y-69700000D03*
%TO.P,U18,10,GND*%
%TO.N,GND*%
X178320000Y-60400000D03*
%TO.P,U18,9,B3*%
%TO.N,Net-(J5-Pin_13)*%
X179590000Y-60400000D03*
%TO.P,U18,8,A3*%
%TO.N,Net-(JP20-C)*%
X180860000Y-60399999D03*
%TO.P,U18,7,B2*%
%TO.N,Net-(J5-Pin_14)*%
X182130000Y-60400000D03*
%TO.P,U18,6,A2*%
%TO.N,Net-(JP19-C)*%
X183400000Y-60400000D03*
%TO.P,U18,5,B1*%
%TO.N,Net-(J5-Pin_15)*%
X184670000Y-60400000D03*
%TO.P,U18,4,A1*%
%TO.N,Net-(JP18-C)*%
X185940000Y-60400000D03*
%TO.P,U18,3,B0*%
%TO.N,Net-(J5-Pin_16)*%
X187210000Y-60399999D03*
%TO.P,U18,2,A0*%
%TO.N,Net-(JP17-C)*%
X188480000Y-60400000D03*
%TO.P,U18,1,~E*%
%TO.N,GND*%
X189750000Y-60400000D03*
%TD*%
D10*
%TO.P,U16,1,Y*%
%TO.N,Net-(J5-Pin_18)*%
X72600000Y-35700000D03*
%TO.P,U16,2,Z*%
%TO.N,Net-(J4-Pin_6)*%
X72600000Y-36650000D03*
%TO.P,U16,3,GND*%
%TO.N,GND*%
X72600000Y-37600000D03*
%TO.P,U16,4,~E*%
%TO.N,Net-(U10-~E)*%
X74900000Y-37600000D03*
%TO.P,U16,5,VCC*%
%TO.N,+3.3V*%
X74900000Y-35700000D03*
%TD*%
%TO.P,U17,1,Y*%
%TO.N,Net-(J5-Pin_17)*%
X64600000Y-35700000D03*
%TO.P,U17,2,Z*%
%TO.N,Net-(J4-Pin_5)*%
X64600000Y-36650000D03*
%TO.P,U17,3,GND*%
%TO.N,GND*%
X64600000Y-37600000D03*
%TO.P,U17,4,~E*%
%TO.N,Net-(U10-~E)*%
X66900000Y-37600000D03*
%TO.P,U17,5,VCC*%
%TO.N,+3.3V*%
X66900000Y-35700000D03*
%TD*%
%TO.P,U14,1,Y*%
%TO.N,Net-(J5-Pin_20)*%
X88600000Y-35700000D03*
%TO.P,U14,2,Z*%
%TO.N,Net-(J4-Pin_8)*%
X88600000Y-36650000D03*
%TO.P,U14,3,GND*%
%TO.N,GND*%
X88600000Y-37600000D03*
%TO.P,U14,4,~E*%
%TO.N,Net-(U10-~E)*%
X90900000Y-37600000D03*
%TO.P,U14,5,VCC*%
%TO.N,+3.3V*%
X90900000Y-35700000D03*
%TD*%
%TO.P,U15,1,Y*%
%TO.N,Net-(J5-Pin_19)*%
X80600000Y-35700000D03*
%TO.P,U15,2,Z*%
%TO.N,Net-(J4-Pin_7)*%
X80600000Y-36650000D03*
%TO.P,U15,3,GND*%
%TO.N,GND*%
X80600000Y-37600000D03*
%TO.P,U15,4,~E*%
%TO.N,Net-(U10-~E)*%
X82900000Y-37600000D03*
%TO.P,U15,5,VCC*%
%TO.N,+3.3V*%
X82900000Y-35700000D03*
%TD*%
D18*
%TO.P,J4,1,Pin_1*%
%TO.N,+3.3V*%
X80740000Y-25400000D03*
%TO.P,J4,2,Pin_2*%
%TO.N,unconnected-(J4-Pin_2-Pad2)*%
X78200000Y-25400000D03*
%TO.P,J4,3,Pin_3*%
%TO.N,unconnected-(J4-Pin_3-Pad3)*%
X75660000Y-25400000D03*
%TO.P,J4,4,Pin_4*%
%TO.N,GND*%
X73120000Y-25400000D03*
%TO.P,J4,5,Pin_5*%
%TO.N,Net-(J4-Pin_5)*%
X73120001Y-27940000D03*
%TO.P,J4,6,Pin_6*%
%TO.N,Net-(J4-Pin_6)*%
X75660000Y-27940000D03*
%TO.P,J4,7,Pin_7*%
%TO.N,Net-(J4-Pin_7)*%
X78200000Y-27940000D03*
%TO.P,J4,8,Pin_8*%
%TO.N,Net-(J4-Pin_8)*%
X80740000Y-27940000D03*
%TD*%
D10*
%TO.P,U4,1,Y*%
%TO.N,Net-(J5-Pin_30)*%
X169980000Y-35700000D03*
%TO.P,U4,2,Z*%
%TO.N,Net-(J1-Pin_6)*%
X169980000Y-36650000D03*
%TO.P,U4,3,GND*%
%TO.N,GND*%
X169980000Y-37600000D03*
%TO.P,U4,4,~E*%
%TO.N,Net-(U10-~E)*%
X172280000Y-37600000D03*
%TO.P,U4,5,VCC*%
%TO.N,+3.3V*%
X172280000Y-35700000D03*
%TD*%
%TO.P,U2,1,Y*%
%TO.N,Net-(J5-Pin_32)*%
X185980000Y-35700000D03*
%TO.P,U2,2,Z*%
%TO.N,Net-(J1-Pin_8)*%
X185980000Y-36650000D03*
%TO.P,U2,3,GND*%
%TO.N,GND*%
X185980000Y-37600000D03*
%TO.P,U2,4,~E*%
%TO.N,Net-(U10-~E)*%
X188280000Y-37600000D03*
%TO.P,U2,5,VCC*%
%TO.N,+3.3V*%
X188280000Y-35700000D03*
%TD*%
%TO.P,U5,1,Y*%
%TO.N,Net-(J5-Pin_29)*%
X161980000Y-35700000D03*
%TO.P,U5,2,Z*%
%TO.N,Net-(J1-Pin_5)*%
X161980000Y-36650000D03*
%TO.P,U5,3,GND*%
%TO.N,GND*%
X161980000Y-37600000D03*
%TO.P,U5,4,~E*%
%TO.N,Net-(U10-~E)*%
X164280000Y-37600000D03*
%TO.P,U5,5,VCC*%
%TO.N,+3.3V*%
X164280000Y-35700000D03*
%TD*%
%TO.P,U3,1,Y*%
%TO.N,Net-(J5-Pin_31)*%
X177980000Y-35700000D03*
%TO.P,U3,2,Z*%
%TO.N,Net-(J1-Pin_7)*%
X177980000Y-36650000D03*
%TO.P,U3,3,GND*%
%TO.N,GND*%
X177980000Y-37600000D03*
%TO.P,U3,4,~E*%
%TO.N,Net-(U10-~E)*%
X180280000Y-37600000D03*
%TO.P,U3,5,VCC*%
%TO.N,+3.3V*%
X180280000Y-35700000D03*
%TD*%
D18*
%TO.P,J1,1,Pin_1*%
%TO.N,+3.3V*%
X178080000Y-25360000D03*
%TO.P,J1,2,Pin_2*%
%TO.N,unconnected-(J1-Pin_2-Pad2)*%
X175540000Y-25360000D03*
%TO.P,J1,3,Pin_3*%
%TO.N,unconnected-(J1-Pin_3-Pad3)*%
X173000000Y-25360000D03*
%TO.P,J1,4,Pin_4*%
%TO.N,GND*%
X170460000Y-25360000D03*
%TO.P,J1,5,Pin_5*%
%TO.N,Net-(J1-Pin_5)*%
X170460001Y-27900000D03*
%TO.P,J1,6,Pin_6*%
%TO.N,Net-(J1-Pin_6)*%
X173000000Y-27900000D03*
%TO.P,J1,7,Pin_7*%
%TO.N,Net-(J1-Pin_7)*%
X175540000Y-27900000D03*
%TO.P,J1,8,Pin_8*%
%TO.N,Net-(J1-Pin_8)*%
X178080000Y-27900000D03*
%TD*%
D21*
%TO.N,Net-(J2-Pin_8)*%
X153400000Y-33200000D03*
%TO.N,Net-(J2-Pin_7)*%
X145400000Y-33200000D03*
%TO.N,Net-(J5-Pin_8)*%
X203500000Y-71800000D03*
%TO.N,Net-(J5-Pin_7)*%
X202100000Y-72800000D03*
%TO.N,Net-(J5-Pin_6)*%
X200500000Y-73400000D03*
%TO.N,Net-(J5-Pin_5)*%
X198200000Y-73700000D03*
%TO.N,GND*%
X208000000Y-88700000D03*
X208000000Y-82700000D03*
%TO.N,Net-(J5-Pin_26)*%
X92100000Y-55200000D03*
%TO.N,Net-(J5-Pin_25)*%
X94700000Y-55600000D03*
%TO.N,Net-(J5-Pin_24)*%
X97300000Y-56000000D03*
%TO.N,Net-(J5-Pin_23)*%
X99800000Y-56400000D03*
%TO.N,Net-(J5-Pin_22)*%
X102300000Y-56800000D03*
%TO.N,Net-(J5-Pin_30)*%
X207900000Y-30700000D03*
%TO.N,Net-(J5-Pin_29)*%
X207900000Y-32700000D03*
%TO.N,Net-(J5-Pin_31)*%
X130600000Y-53300000D03*
%TO.N,Net-(J5-Pin_21)*%
X104900000Y-57200000D03*
%TO.N,Net-(J5-Pin_20)*%
X107400000Y-57600000D03*
%TO.N,Net-(J5-Pin_19)*%
X109900000Y-58000000D03*
%TO.N,Net-(J5-Pin_18)*%
X112400000Y-58400000D03*
%TO.N,Net-(J5-Pin_17)*%
X115100000Y-59000000D03*
%TO.N,Net-(U10-~E)*%
X188500000Y-69600000D03*
%TO.N,GND*%
X92600000Y-40220000D03*
X84700000Y-40120000D03*
X76500000Y-40320000D03*
X68700000Y-40320000D03*
X157560000Y-40340000D03*
X149560000Y-40340000D03*
X141460000Y-40340000D03*
X133560000Y-40340000D03*
X125000000Y-40150000D03*
X117000000Y-40150000D03*
X108900000Y-40350000D03*
X101100000Y-40350000D03*
%TO.N,Net-(J5-Pin_28)*%
X207900000Y-34700000D03*
%TO.N,Net-(J5-Pin_27)*%
X208100000Y-36600000D03*
%TO.N,+3.3V*%
X208000000Y-84700000D03*
%TO.N,GND*%
X189800000Y-60400000D03*
X155900000Y-75400000D03*
X160500000Y-75300000D03*
X165300000Y-75400000D03*
X169900000Y-75500000D03*
X174500000Y-75400000D03*
X188400000Y-75400000D03*
X183800000Y-75500000D03*
X179200000Y-75400000D03*
X178300000Y-62200000D03*
%TO.N,Net-(J5-Pin_13)*%
X179600000Y-60400000D03*
%TO.N,Net-(J5-Pin_14)*%
X182100000Y-60400000D03*
%TO.N,Net-(J5-Pin_15)*%
X184700000Y-60400000D03*
%TO.N,Net-(J5-Pin_16)*%
X187200000Y-60400000D03*
%TO.N,Net-(J5-Pin_12)*%
X179600000Y-69700000D03*
%TO.N,Net-(J5-Pin_11)*%
X182100000Y-69700000D03*
%TO.N,Net-(J5-Pin_10)*%
X184700000Y-69700000D03*
%TO.N,Net-(J5-Pin_9)*%
X187200000Y-69700000D03*
%TO.N,Net-(J5-Pin_21)*%
X98200000Y-41450000D03*
%TO.N,Net-(J5-Pin_22)*%
X106200000Y-41550000D03*
%TO.N,Net-(J5-Pin_23)*%
X114200000Y-41550000D03*
%TO.N,Net-(J5-Pin_24)*%
X122200000Y-41450000D03*
%TO.N,Net-(J5-Pin_25)*%
X130660000Y-41640000D03*
%TO.N,Net-(J5-Pin_26)*%
X138660000Y-41740000D03*
%TO.N,Net-(J5-Pin_27)*%
X146660000Y-41740000D03*
%TO.N,Net-(J5-Pin_28)*%
X154660000Y-41640000D03*
%TO.N,Net-(J5-Pin_29)*%
X163000000Y-42600000D03*
%TO.N,Net-(J5-Pin_30)*%
X171000000Y-42700000D03*
%TO.N,Net-(J5-Pin_31)*%
X179000000Y-42700000D03*
%TO.N,Net-(J5-Pin_32)*%
X187000000Y-42600000D03*
%TO.N,Net-(U10-~E)*%
X99400000Y-37600000D03*
X107400000Y-37600000D03*
X115400000Y-37600000D03*
X123300000Y-37600000D03*
%TO.N,Net-(J3-Pin_5)*%
X96900000Y-33100000D03*
%TO.N,Net-(J3-Pin_6)*%
X104800000Y-32900000D03*
%TO.N,Net-(J3-Pin_7)*%
X113000000Y-32900000D03*
%TO.N,Net-(J3-Pin_8)*%
X120900000Y-33200000D03*
%TO.N,Net-(J5-Pin_24)*%
X122200000Y-33100000D03*
%TO.N,Net-(J5-Pin_23)*%
X114280000Y-32880000D03*
%TO.N,Net-(J5-Pin_22)*%
X106100000Y-33000000D03*
%TO.N,Net-(J5-Pin_21)*%
X98100000Y-33100000D03*
%TO.N,+3.3V*%
X131800000Y-35830000D03*
%TO.N,Net-(U10-~E)*%
X131800000Y-37730000D03*
X139800000Y-37730000D03*
%TO.N,+3.3V*%
X139800000Y-35830000D03*
X147800000Y-35830000D03*
%TO.N,Net-(U10-~E)*%
X147800000Y-37730000D03*
X155900000Y-37730000D03*
%TO.N,+3.3V*%
X155800000Y-35830000D03*
%TO.N,Net-(J5-Pin_28)*%
X154600000Y-33230000D03*
%TO.N,Net-(J5-Pin_27)*%
X146600000Y-33130000D03*
%TO.N,Net-(J5-Pin_26)*%
X138600000Y-33130000D03*
%TO.N,Net-(J5-Pin_25)*%
X130700000Y-33230000D03*
%TO.N,Net-(J2-Pin_6)*%
X137300000Y-33130000D03*
%TO.N,Net-(J2-Pin_5)*%
X129400000Y-33230000D03*
%TO.N,Net-(U10-~E)*%
X75000000Y-37600000D03*
%TO.N,Net-(J4-Pin_6)*%
X72400000Y-33000000D03*
%TO.N,Net-(U10-~E)*%
X66900000Y-37600000D03*
%TO.N,+3.3V*%
X90900000Y-35700000D03*
%TO.N,Net-(J5-Pin_17)*%
X65700000Y-33100000D03*
X65800000Y-41620000D03*
%TO.N,Net-(J5-Pin_18)*%
X73800000Y-41720000D03*
X73700000Y-33100000D03*
%TO.N,Net-(J5-Pin_20)*%
X89800000Y-33100000D03*
%TO.N,+3.3V*%
X83000000Y-35700000D03*
%TO.N,Net-(J5-Pin_19)*%
X81700000Y-33100000D03*
X81800000Y-41720000D03*
%TO.N,Net-(J4-Pin_8)*%
X88500000Y-33100000D03*
%TO.N,+3.3V*%
X75000000Y-35700000D03*
%TO.N,Net-(U10-~E)*%
X90900000Y-37600000D03*
%TO.N,Net-(J4-Pin_5)*%
X64500000Y-33100000D03*
%TO.N,Net-(J5-Pin_20)*%
X89800000Y-41620000D03*
%TO.N,Net-(U10-~E)*%
X82900000Y-37600000D03*
%TO.N,+3.3V*%
X66900000Y-35700000D03*
%TO.N,Net-(J4-Pin_7)*%
X80400000Y-33100000D03*
%TO.N,Net-(U10-~E)*%
X172280000Y-37600000D03*
%TO.N,GND*%
X173980000Y-40300000D03*
%TO.N,+3.3V*%
X164280000Y-35700000D03*
%TO.N,Net-(J5-Pin_31)*%
X179080000Y-33100000D03*
%TO.N,Net-(J1-Pin_5)*%
X161880000Y-33100000D03*
%TO.N,Net-(J1-Pin_8)*%
X185880000Y-33100000D03*
%TO.N,Net-(J5-Pin_29)*%
X163080000Y-33200000D03*
%TO.N,Net-(U10-~E)*%
X164280000Y-37600000D03*
%TO.N,Net-(J5-Pin_30)*%
X171080000Y-33000000D03*
%TO.N,Net-(J1-Pin_6)*%
X169780000Y-33100000D03*
%TO.N,GND*%
X182080000Y-40300000D03*
X166080000Y-40300000D03*
X190080000Y-40300000D03*
%TO.N,+3.3V*%
X172280000Y-35700000D03*
%TO.N,Net-(U10-~E)*%
X180280000Y-37600000D03*
%TO.N,Net-(J1-Pin_7)*%
X177880000Y-33100000D03*
%TO.N,+3.3V*%
X188280000Y-35700000D03*
X180280000Y-35700000D03*
%TO.N,Net-(J5-Pin_32)*%
X187180000Y-33100000D03*
%TO.N,Net-(U10-~E)*%
X188280000Y-37600000D03*
%TO.N,+3.3V*%
X123300000Y-35700000D03*
X115400000Y-35700000D03*
X107400000Y-35700000D03*
X99200000Y-35700000D03*
%TD*%
D22*
%TO.N,Net-(J2-Pin_8)*%
X153400000Y-33200000D02*
X153400000Y-30930000D01*
%TO.N,Net-(J2-Pin_7)*%
X145400000Y-33200000D02*
X145400000Y-30370000D01*
X145500000Y-36780000D02*
X144250000Y-36780000D01*
X144250000Y-36780000D02*
X143800000Y-36330000D01*
X143800000Y-36330000D02*
X143800000Y-34830000D01*
X143800000Y-34830000D02*
X145400000Y-33230000D01*
X145400000Y-33230000D02*
X145400000Y-33200000D01*
X145400000Y-30370000D02*
X143060000Y-28030000D01*
D23*
%TO.N,GND*%
X203500000Y-88700000D02*
X208000000Y-88700000D01*
X203500000Y-88700000D02*
X200300000Y-85500000D01*
X200300000Y-85500000D02*
X186000000Y-85500000D01*
D22*
%TO.N,+3.3V*%
X186800000Y-76600000D02*
X187580000Y-76600000D01*
X187580000Y-76600000D02*
X187680000Y-76700000D01*
D23*
X208000000Y-84700000D02*
X206000000Y-84700000D01*
X206000000Y-84700000D02*
X198000000Y-76700000D01*
X198000000Y-76700000D02*
X187680000Y-76700000D01*
X187680000Y-76700000D02*
X184580000Y-79800000D01*
%TO.N,+5V*%
X208000000Y-86700001D02*
X205500001Y-86700001D01*
X205500001Y-86700001D02*
X196300000Y-77500000D01*
X196300000Y-77500000D02*
X189420000Y-77500000D01*
X189420000Y-77500000D02*
X187120000Y-79800000D01*
D22*
%TO.N,+3.3V*%
X190300000Y-76600000D02*
X190890001Y-76009999D01*
X190890001Y-76009999D02*
X190890001Y-75392500D01*
X186300000Y-77100000D02*
X186800000Y-76600000D01*
D23*
%TO.N,GND*%
X87140000Y-61300000D02*
X87140000Y-52840000D01*
X87140000Y-52840000D02*
X86200000Y-51900000D01*
X86200000Y-51900000D02*
X81100000Y-51900000D01*
X81100000Y-51900000D02*
X79800000Y-53200000D01*
X79800000Y-77300000D02*
X84000000Y-81500000D01*
X183168630Y-85500000D02*
X186551370Y-85500000D01*
X79800000Y-53200000D02*
X79800000Y-77300000D01*
X84000000Y-81500000D02*
X179168630Y-81500000D01*
X179168630Y-81500000D02*
X183168630Y-85500000D01*
X189660000Y-82391370D02*
X189660000Y-82340000D01*
X186551370Y-85500000D02*
X189660000Y-82391370D01*
%TO.N,+5V*%
X84600000Y-61300000D02*
X84600000Y-61700000D01*
X84600000Y-61700000D02*
X81400000Y-64900000D01*
X81400000Y-64900000D02*
X81400000Y-76900000D01*
X81400000Y-76900000D02*
X84700000Y-80200000D01*
X84700000Y-80200000D02*
X179000000Y-80200000D01*
X179000000Y-80200000D02*
X183500000Y-84700000D01*
X183500000Y-84700000D02*
X186220000Y-84700000D01*
X186220000Y-84700000D02*
X187120000Y-83800000D01*
X187120000Y-83800000D02*
X187120000Y-79800000D01*
%TO.N,GND*%
X189660000Y-82340000D02*
X189660000Y-79800000D01*
%TO.N,+3.3V*%
X184600000Y-79730000D02*
X184600000Y-82270000D01*
D22*
%TO.N,GND*%
X108700000Y-23200000D02*
X107480000Y-23200000D01*
X75320000Y-23200000D02*
X73120000Y-25400000D01*
X143000000Y-23200000D02*
X108700000Y-23200000D01*
X108700000Y-23200000D02*
X75320000Y-23200000D01*
X143000000Y-23200000D02*
X140370000Y-23200000D01*
X174500000Y-23200000D02*
X143000000Y-23200000D01*
X107480000Y-23200000D02*
X105420000Y-25260000D01*
X174500000Y-23200000D02*
X172620000Y-23200000D01*
X208200000Y-23200000D02*
X174500000Y-23200000D01*
X140370000Y-23200000D02*
X138080000Y-25490000D01*
X208000000Y-82700000D02*
X209850000Y-82700000D01*
X209850000Y-82700000D02*
X210800000Y-81750000D01*
X210800000Y-81750000D02*
X210800000Y-25800000D01*
X172620000Y-23200000D02*
X170460000Y-25360000D01*
X210800000Y-25800000D02*
X208200000Y-23200000D01*
%TO.N,Net-(J5-Pin_8)*%
X203500000Y-71800000D02*
X203600000Y-71900000D01*
%TO.N,Net-(J5-Pin_7)*%
X202100000Y-72800000D02*
X202200000Y-72900000D01*
%TO.N,Net-(J5-Pin_6)*%
X200500000Y-73400000D02*
X200600000Y-73500000D01*
%TO.N,Net-(J5-Pin_5)*%
X205200000Y-80700000D02*
X198200000Y-73700000D01*
X208000000Y-80700000D02*
X205200000Y-80700000D01*
%TO.N,Net-(J5-Pin_6)*%
X205800000Y-78700000D02*
X200500000Y-73400000D01*
X208000000Y-78700000D02*
X205800000Y-78700000D01*
%TO.N,Net-(J5-Pin_7)*%
X206000000Y-76700000D02*
X202100000Y-72800000D01*
X208000000Y-76700000D02*
X206000000Y-76700000D01*
%TO.N,Net-(J5-Pin_8)*%
X206400000Y-74700000D02*
X203500000Y-71800000D01*
X208000000Y-74700000D02*
X206400000Y-74700000D01*
%TO.N,GND*%
X208000001Y-82700000D02*
X208000001Y-82700000D01*
X208000000Y-82699999D02*
X208000000Y-82700000D01*
%TO.N,Net-(J5-Pin_28)*%
X208000000Y-34700000D02*
X206857000Y-34700000D01*
X206857000Y-34700000D02*
X197157000Y-44400000D01*
X197157000Y-44400000D02*
X157420000Y-44400000D01*
X157420000Y-44400000D02*
X154660000Y-41640000D01*
%TO.N,Net-(J5-Pin_27)*%
X146660000Y-41740000D02*
X149720000Y-44800000D01*
X149720000Y-44800000D02*
X197322686Y-44800000D01*
X197322686Y-44800000D02*
X205422687Y-36699999D01*
X205422687Y-36699999D02*
X208000000Y-36699999D01*
%TO.N,Net-(J5-Pin_26)*%
X138660000Y-41740000D02*
X142120000Y-45200000D01*
X142120000Y-45200000D02*
X164000000Y-45200000D01*
%TO.N,Net-(J5-Pin_25)*%
X208000000Y-40700001D02*
X202554057Y-40700001D01*
X202554057Y-40700001D02*
X197654058Y-45600000D01*
X197654058Y-45600000D02*
X159057257Y-45600000D01*
X138600000Y-45600000D02*
X134640000Y-41640000D01*
X159057258Y-45600000D02*
X138600000Y-45600000D01*
X134640000Y-41640000D02*
X130660000Y-41640000D01*
%TO.N,Net-(J5-Pin_24)*%
X208000000Y-42700000D02*
X201119744Y-42700000D01*
X201119744Y-42700000D02*
X197819744Y-46000000D01*
X122151471Y-45351471D02*
X122151471Y-41500000D01*
X197819744Y-46000000D02*
X122800000Y-46000000D01*
X122800000Y-46000000D02*
X122151471Y-45351471D01*
%TO.N,Net-(J5-Pin_23)*%
X208000000Y-44700000D02*
X199685430Y-44700000D01*
X199685430Y-44700000D02*
X197985430Y-46400000D01*
X120005884Y-46400000D02*
X118405884Y-48000000D01*
X197985430Y-46400000D02*
X120005884Y-46400000D01*
X118405884Y-48000000D02*
X116700000Y-48000000D01*
X116700000Y-48000000D02*
X114200000Y-45500000D01*
X114200000Y-45500000D02*
X114200000Y-41550000D01*
%TO.N,Net-(J5-Pin_22)*%
X208000000Y-46700000D02*
X207900000Y-46800000D01*
X207900000Y-46800000D02*
X120171570Y-46800000D01*
X120171570Y-46800000D02*
X118571570Y-48400000D01*
X118571570Y-48400000D02*
X108300000Y-48400000D01*
X108300000Y-48400000D02*
X106200000Y-46300000D01*
X106200000Y-46300000D02*
X106200000Y-41550000D01*
%TO.N,Net-(J5-Pin_21)*%
X98200000Y-41450000D02*
X98200000Y-48400000D01*
X98200000Y-48400000D02*
X98600000Y-48800000D01*
X98600000Y-48800000D02*
X118737256Y-48800000D01*
X118737256Y-48800000D02*
X120337256Y-47200000D01*
X120337256Y-47200000D02*
X206393920Y-47200000D01*
X206393920Y-47200000D02*
X206955920Y-47762000D01*
X206955920Y-47762000D02*
X207062000Y-47762000D01*
X207062000Y-47762000D02*
X208000000Y-48700000D01*
%TO.N,Net-(J5-Pin_20)*%
X89800000Y-41620000D02*
X89800000Y-45500000D01*
X206955920Y-49762000D02*
X207062001Y-49762000D01*
X89800000Y-45500000D02*
X93500000Y-49200000D01*
X93500000Y-49200000D02*
X118902942Y-49200000D01*
X120502942Y-47600000D02*
X204793920Y-47600000D01*
X204793920Y-47600000D02*
X206955920Y-49762000D01*
X118902942Y-49200000D02*
X120502942Y-47600000D01*
X207062001Y-49762000D02*
X208000000Y-50699999D01*
%TO.N,Net-(J5-Pin_19)*%
X208000000Y-52700000D02*
X207061999Y-51761999D01*
X207061999Y-51761999D02*
X206955920Y-51761999D01*
X85700000Y-49600000D02*
X81800000Y-45700000D01*
X206955920Y-51761999D02*
X203193921Y-48000000D01*
X81800000Y-45700000D02*
X81800000Y-41720000D01*
X203193921Y-48000000D02*
X120668628Y-48000000D01*
X120668628Y-48000000D02*
X119068628Y-49600000D01*
X119068628Y-49600000D02*
X85700000Y-49600000D01*
%TO.N,Net-(J5-Pin_18)*%
X73800000Y-41720000D02*
X70800000Y-44720000D01*
X70800000Y-44720000D02*
X70800000Y-46054314D01*
X207061999Y-53762000D02*
X208000000Y-54700001D01*
X70800000Y-46054314D02*
X74745686Y-50000000D01*
X206955920Y-53762000D02*
X207061999Y-53762000D01*
X74745686Y-50000000D02*
X119234314Y-50000000D01*
X119234314Y-50000000D02*
X120834314Y-48400000D01*
X120834314Y-48400000D02*
X201593920Y-48400000D01*
X201593920Y-48400000D02*
X206955920Y-53762000D01*
%TO.N,Net-(J5-Pin_17)*%
X199993919Y-48800000D02*
X126400000Y-48800000D01*
X121000000Y-48800000D02*
X120850000Y-48950000D01*
X119400000Y-50400000D02*
X120850000Y-48950000D01*
X126400000Y-48800000D02*
X121000000Y-48800000D01*
X65800000Y-41620000D02*
X74580000Y-50400000D01*
X74580000Y-50400000D02*
X119400000Y-50400000D01*
X208000000Y-56700000D02*
X207062001Y-55762001D01*
X207062001Y-55762001D02*
X206955920Y-55762001D01*
X206955920Y-55762001D02*
X199993919Y-48800000D01*
%TO.N,Net-(J5-Pin_30)*%
X207900000Y-30700000D02*
X203988372Y-30700000D01*
%TO.N,Net-(J5-Pin_31)*%
X130600000Y-53300000D02*
X129800000Y-53300000D01*
X129800000Y-53300000D02*
X125240000Y-57860000D01*
X125240000Y-57860000D02*
X125240000Y-61300000D01*
%TO.N,GND*%
X208000000Y-82699999D02*
X208000000Y-82699999D01*
%TO.N,+3.3V*%
X190890001Y-75392500D02*
X190890001Y-70840001D01*
X190890001Y-70840001D02*
X189750000Y-69700000D01*
X181700000Y-77100000D02*
X186300000Y-77100000D01*
X186290001Y-75435000D02*
X186290001Y-77090001D01*
X186290001Y-77090001D02*
X186300000Y-77100000D01*
X177000000Y-77100000D02*
X181700000Y-77100000D01*
X181650001Y-75400000D02*
X181650001Y-77050001D01*
X181650001Y-77050001D02*
X181700000Y-77100000D01*
X172300000Y-77100000D02*
X177000000Y-77100000D01*
X177000000Y-75400000D02*
X177000000Y-77100000D01*
X167700000Y-77100000D02*
X172300000Y-77100000D01*
X172340000Y-75364999D02*
X172340000Y-77060000D01*
X172340000Y-77060000D02*
X172300000Y-77100000D01*
X163000000Y-77100000D02*
X167700000Y-77100000D01*
X167670000Y-75329999D02*
X167670000Y-77070000D01*
X167670000Y-77070000D02*
X167700000Y-77100000D01*
X159100000Y-77100000D02*
X163000000Y-77100000D01*
X162989999Y-75329999D02*
X162989999Y-77089999D01*
X162989999Y-77089999D02*
X163000000Y-77100000D01*
X159100000Y-77100000D02*
X158299999Y-76299999D01*
X158299999Y-76299999D02*
X158299999Y-75294999D01*
%TO.N,GND*%
X178320000Y-62180000D02*
X178300000Y-62200000D01*
X178320000Y-60400000D02*
X178320000Y-62180000D01*
%TO.N,Net-(J5-Pin_13)*%
X179600000Y-60400000D02*
X179590000Y-60400000D01*
%TO.N,Net-(J5-Pin_14)*%
X182100000Y-60400000D02*
X182130000Y-60400000D01*
%TO.N,Net-(J5-Pin_15)*%
X184700000Y-60400000D02*
X184670000Y-60400000D01*
%TO.N,Net-(J5-Pin_16)*%
X187200000Y-60400000D02*
X187210000Y-60399999D01*
%TO.N,Net-(J5-Pin_12)*%
X179600000Y-69700000D02*
X179590000Y-68675001D01*
%TO.N,Net-(J5-Pin_11)*%
X182100000Y-69700000D02*
X182130000Y-68675001D01*
%TO.N,Net-(J5-Pin_10)*%
X184700000Y-69700000D02*
X184735001Y-69650000D01*
%TO.N,Net-(J5-Pin_9)*%
X187200000Y-69700000D02*
X187210000Y-68675002D01*
%TO.N,Net-(JP17-C)*%
X156999999Y-75294999D02*
X156999999Y-74863663D01*
X156999999Y-74863663D02*
X158363662Y-73500000D01*
X188480000Y-59480000D02*
X188480000Y-60400000D01*
X158363662Y-73500000D02*
X160902943Y-73500000D01*
X160902943Y-73500000D02*
X177502943Y-56900000D01*
X177502943Y-56900000D02*
X185900000Y-56900000D01*
X185900000Y-56900000D02*
X188480000Y-59480000D01*
%TO.N,Net-(JP18-C)*%
X161689999Y-75329999D02*
X161689999Y-73278629D01*
X161689999Y-73278629D02*
X177568628Y-57400000D01*
X177568628Y-57400000D02*
X184300000Y-57400000D01*
X184300000Y-57400000D02*
X185940000Y-59040000D01*
X185940000Y-59040000D02*
X185940000Y-60400000D01*
%TO.N,Net-(JP19-C)*%
X166370000Y-75329999D02*
X166370000Y-69164314D01*
X166370000Y-69164314D02*
X177734314Y-57800000D01*
X177734314Y-57800000D02*
X182000000Y-57800000D01*
X182000000Y-57800000D02*
X183400000Y-59200000D01*
X183400000Y-59200000D02*
X183400000Y-60400000D01*
%TO.N,Net-(JP20-C)*%
X171040000Y-75364999D02*
X171040000Y-65060000D01*
X171040000Y-65060000D02*
X177900000Y-58200000D01*
X177900000Y-58200000D02*
X179685000Y-58200000D01*
X179685000Y-58200000D02*
X180860000Y-59375000D01*
X180860000Y-59375000D02*
X180860000Y-60399999D01*
%TO.N,Net-(JP21-C)*%
X175700000Y-75400000D02*
X175700000Y-72320000D01*
X175700000Y-72320000D02*
X178320000Y-69700000D01*
%TO.N,Net-(JP22-C)*%
X180350001Y-75400000D02*
X180350001Y-73749999D01*
X180350001Y-73749999D02*
X180860000Y-73240000D01*
X180860000Y-73240000D02*
X180860000Y-69700001D01*
%TO.N,Net-(JP23-C)*%
X184990001Y-75435000D02*
X184990001Y-74485000D01*
X184990001Y-74485000D02*
X184200000Y-73694999D01*
X184200000Y-73694999D02*
X184194999Y-73694999D01*
X184194999Y-73694999D02*
X183400000Y-72900000D01*
X183400000Y-72900000D02*
X183400000Y-69700000D01*
%TO.N,Net-(JP24-C)*%
X189590001Y-75392500D02*
X189590001Y-74961164D01*
X189590001Y-74961164D02*
X185940000Y-71311163D01*
X185940000Y-71311163D02*
X185940000Y-69700000D01*
%TO.N,Net-(J5-Pin_16)*%
X208000000Y-58700000D02*
X206800000Y-58700000D01*
X206800000Y-58700000D02*
X202000000Y-63500000D01*
X202000000Y-63500000D02*
X188400000Y-63500000D01*
X188400000Y-63500000D02*
X187210000Y-62310000D01*
X187210000Y-62310000D02*
X187200000Y-60400000D01*
%TO.N,Net-(J5-Pin_15)*%
X208000000Y-60700000D02*
X206857000Y-60700000D01*
X206857000Y-60700000D02*
X203657000Y-63900000D01*
X184670000Y-61770000D02*
X184700000Y-60400000D01*
X203657000Y-63900000D02*
X186800000Y-63900000D01*
X186800000Y-63900000D02*
X184670000Y-61770000D01*
%TO.N,Net-(J5-Pin_14)*%
X208000000Y-62700000D02*
X207062000Y-63638000D01*
X207062000Y-63638000D02*
X206955920Y-63638000D01*
X206955920Y-63638000D02*
X206293920Y-64300000D01*
X185634448Y-64300000D02*
X182130000Y-60795552D01*
X206293920Y-64300000D02*
X185634448Y-64300000D01*
X182130000Y-60795552D02*
X182100000Y-60400000D01*
%TO.N,Net-(J5-Pin_13)*%
X208000000Y-64700000D02*
X182865001Y-64700000D01*
X182865001Y-64700000D02*
X179590000Y-61424999D01*
X179590000Y-61424999D02*
X179600000Y-60400000D01*
%TO.N,Net-(J5-Pin_12)*%
X179590000Y-68675001D02*
X180382500Y-67882500D01*
X180382500Y-67882500D02*
X181525001Y-66740000D01*
X208000000Y-66700000D02*
X181565000Y-66700000D01*
X181565000Y-66700000D02*
X180382500Y-67882500D01*
%TO.N,Net-(J5-Pin_11)*%
X182130000Y-68675001D02*
X183302500Y-67502500D01*
X183302500Y-67502500D02*
X183665001Y-67140000D01*
X208000000Y-68699999D02*
X203988370Y-68699999D01*
X203988370Y-68699999D02*
X202428371Y-67140000D01*
X202428371Y-67140000D02*
X183665000Y-67140000D01*
X183665000Y-67140000D02*
X183302500Y-67502500D01*
%TO.N,Net-(J5-Pin_10)*%
X208000000Y-70700000D02*
X205422685Y-70700000D01*
X205422685Y-70700000D02*
X202262685Y-67540000D01*
X202262685Y-67540000D02*
X186434448Y-67540000D01*
X186434448Y-67540000D02*
X184735001Y-69239447D01*
X184735001Y-69239447D02*
X184700000Y-69700000D01*
%TO.N,Net-(J5-Pin_9)*%
X187945002Y-67940000D02*
X202096999Y-67940000D01*
X202096999Y-67940000D02*
X206857000Y-72700001D01*
X206857000Y-72700001D02*
X208000000Y-72700001D01*
%TO.N,Net-(J5-Pin_12)*%
X179590000Y-69700000D02*
X179600000Y-69700000D01*
%TO.N,Net-(J5-Pin_11)*%
X182130000Y-69700000D02*
X182100000Y-69700000D01*
%TO.N,Net-(J5-Pin_9)*%
X187210000Y-69700001D02*
X187200000Y-69700000D01*
X187210000Y-68675002D02*
X187945002Y-67940000D01*
%TO.N,Net-(JP20-C)*%
X180860000Y-60795552D02*
X180860000Y-60400001D01*
%TO.N,Net-(J5-Pin_26)*%
X208000000Y-38700000D02*
X203988372Y-38700000D01*
X203988372Y-38700000D02*
X197488372Y-45200000D01*
X197488372Y-45200000D02*
X163422943Y-45200000D01*
%TO.N,Net-(J5-Pin_29)*%
X208000000Y-32700000D02*
X202554058Y-32700000D01*
X202554058Y-32700000D02*
X191254058Y-44000000D01*
X191254058Y-44000000D02*
X164400000Y-44000000D01*
X164400000Y-44000000D02*
X163000000Y-42600000D01*
%TO.N,Net-(J5-Pin_30)*%
X208000000Y-30700000D02*
X207900000Y-30700000D01*
X203988372Y-30700000D02*
X191088372Y-43600000D01*
X191088372Y-43600000D02*
X171900000Y-43600000D01*
X171900000Y-43600000D02*
X171000000Y-42700000D01*
%TO.N,Net-(J5-Pin_31)*%
X208000000Y-28700000D02*
X205422686Y-28700000D01*
X205422686Y-28700000D02*
X190922686Y-43200000D01*
X190922686Y-43200000D02*
X179500000Y-43200000D01*
X179500000Y-43200000D02*
X179000000Y-42700000D01*
%TO.N,Net-(J5-Pin_32)*%
X208000000Y-26700000D02*
X206857000Y-26700000D01*
X206857000Y-26700000D02*
X190957000Y-42600000D01*
X190957000Y-42600000D02*
X187000000Y-42600000D01*
%TO.N,Net-(J5-Pin_23)*%
X114280000Y-32880000D02*
X114280000Y-33020000D01*
X114400000Y-34400000D02*
X113050000Y-35750000D01*
X114280000Y-33020000D02*
X114400000Y-33140000D01*
X114400000Y-33140000D02*
X114400000Y-34400000D01*
X114280000Y-32880000D02*
X114210000Y-32950000D01*
X114210000Y-32950000D02*
X114150000Y-32950000D01*
%TO.N,Net-(J3-Pin_6)*%
X104800000Y-32900000D02*
X104800000Y-33100000D01*
%TO.N,Net-(J3-Pin_7)*%
X112900000Y-32800000D02*
X112900000Y-30240000D01*
X113000000Y-32900000D02*
X112900000Y-32800000D01*
X112900000Y-33000000D02*
X113000000Y-32900000D01*
%TO.N,Net-(J3-Pin_8)*%
X120900000Y-33100000D02*
X120900000Y-33100000D01*
X120900000Y-33200000D02*
X120900000Y-33100000D01*
X120800000Y-33200000D02*
X120900000Y-33200000D01*
%TO.N,Net-(J5-Pin_21)*%
X98100000Y-33100000D02*
X98150000Y-33050000D01*
%TO.N,Net-(J5-Pin_28)*%
X154600000Y-33130000D02*
X154650000Y-33180000D01*
X154600000Y-33230000D02*
X154600000Y-33130000D01*
X154700000Y-33230000D02*
X154600000Y-33230000D01*
%TO.N,Net-(J5-Pin_27)*%
X146600000Y-33130000D02*
X146650000Y-33080000D01*
%TO.N,Net-(J5-Pin_25)*%
X130700000Y-33230000D02*
X130650000Y-33180000D01*
%TO.N,Net-(J2-Pin_6)*%
X137300000Y-33130000D02*
X137300000Y-33230000D01*
%TO.N,Net-(J3-Pin_5)*%
X96900000Y-30800000D02*
X99800000Y-27900000D01*
X96900000Y-33100000D02*
X96900000Y-30800000D01*
X95300000Y-34700000D02*
X96900000Y-33100000D01*
X95750000Y-36650000D02*
X95300000Y-36200000D01*
X95300000Y-36200000D02*
X95300000Y-34700000D01*
%TO.N,Net-(J5-Pin_21)*%
X97050000Y-35850000D02*
X98150000Y-34750000D01*
X98150000Y-33250000D02*
X98100000Y-33200000D01*
%TO.N,Net-(J5-Pin_24)*%
X122150000Y-34650000D02*
X122150000Y-33150000D01*
%TO.N,Net-(J3-Pin_7)*%
X113000000Y-36650000D02*
X111750000Y-36650000D01*
%TO.N,Net-(J3-Pin_8)*%
X120900000Y-30800000D02*
X118000000Y-27900000D01*
X119300000Y-34700000D02*
X120800000Y-33200000D01*
%TO.N,Net-(J3-Pin_7)*%
X112900000Y-33100000D02*
X112900000Y-33000000D01*
X111300000Y-36200000D02*
X111300000Y-34700000D01*
X111300000Y-34700000D02*
X112900000Y-33100000D01*
X111750000Y-36650000D02*
X111300000Y-36200000D01*
%TO.N,Net-(J5-Pin_24)*%
X122150000Y-33150000D02*
X122200000Y-33100000D01*
%TO.N,Net-(J3-Pin_8)*%
X118000000Y-27900000D02*
X113100000Y-27900000D01*
X121000000Y-36650000D02*
X119750000Y-36650000D01*
%TO.N,GND*%
X117100000Y-40300000D02*
X119300000Y-40300000D01*
X105000000Y-37600000D02*
X105000000Y-40300000D01*
X105000000Y-40300000D02*
X108850000Y-40300000D01*
X97040000Y-25360000D02*
X93900000Y-28500000D01*
X93900000Y-28500000D02*
X93900000Y-37800000D01*
X113000000Y-37600000D02*
X113000000Y-40300000D01*
%TO.N,Net-(J5-Pin_24)*%
X122200000Y-33100000D02*
X122150000Y-33050000D01*
%TO.N,Net-(J3-Pin_6)*%
X103650000Y-36650000D02*
X104900000Y-36650000D01*
X103200000Y-36200000D02*
X103650000Y-36650000D01*
X103200000Y-34700000D02*
X103200000Y-36200000D01*
X108020000Y-27900000D02*
X108000000Y-27900000D01*
%TO.N,GND*%
X119300000Y-40300000D02*
X121000000Y-38600000D01*
X113000000Y-40300000D02*
X117100000Y-40300000D01*
X101100000Y-40300000D02*
X105000000Y-40300000D01*
%TO.N,Net-(J3-Pin_5)*%
X97000000Y-36650000D02*
X95750000Y-36650000D01*
%TO.N,Net-(J5-Pin_22)*%
X106100000Y-33000000D02*
X106100000Y-32900000D01*
%TO.N,GND*%
X121000000Y-38600000D02*
X121000000Y-37600000D01*
X97000000Y-38600000D02*
X98700000Y-40300000D01*
X97000000Y-37600000D02*
X97000000Y-38600000D01*
%TO.N,Net-(J5-Pin_21)*%
X98100000Y-33200000D02*
X98150000Y-33150000D01*
%TO.N,GND*%
X119300000Y-40300000D02*
X125100000Y-40300000D01*
%TO.N,Net-(J5-Pin_24)*%
X121050000Y-35750000D02*
X122150000Y-34650000D01*
%TO.N,Net-(J5-Pin_22)*%
X106100000Y-34600000D02*
X106100000Y-33000000D01*
X105000000Y-35700000D02*
X106100000Y-34600000D01*
%TO.N,Net-(J3-Pin_8)*%
X119750000Y-36650000D02*
X119300000Y-36200000D01*
%TO.N,Net-(J3-Pin_7)*%
X112900000Y-30240000D02*
X110560000Y-27900000D01*
%TO.N,Net-(J5-Pin_21)*%
X98150000Y-33150000D02*
X98100000Y-33100000D01*
%TO.N,Net-(J5-Pin_24)*%
X122150000Y-33050000D02*
X122150000Y-32950000D01*
%TO.N,Net-(J3-Pin_6)*%
X104800000Y-31100000D02*
X104800000Y-32900000D01*
X104800000Y-33100000D02*
X103200000Y-34700000D01*
X108000000Y-27900000D02*
X104800000Y-31100000D01*
%TO.N,GND*%
X109000000Y-40300000D02*
X113000000Y-40300000D01*
X98700000Y-40300000D02*
X98800000Y-40300000D01*
X96400000Y-40300000D02*
X98800000Y-40300000D01*
%TO.N,Net-(J5-Pin_21)*%
X98150000Y-34750000D02*
X98150000Y-33250000D01*
%TO.N,GND*%
X93900000Y-37800000D02*
X96400000Y-40300000D01*
X105480000Y-25360000D02*
X97040000Y-25360000D01*
X98800000Y-40300000D02*
X101100000Y-40300000D01*
%TO.N,Net-(J3-Pin_5)*%
X99800000Y-27900000D02*
X105480001Y-27900000D01*
%TO.N,Net-(J3-Pin_8)*%
X119300000Y-36200000D02*
X119300000Y-34700000D01*
X120900000Y-33100000D02*
X120900000Y-30800000D01*
%TO.N,Net-(J5-Pin_27)*%
X146650000Y-33180000D02*
X146600000Y-33130000D01*
%TO.N,Net-(J2-Pin_5)*%
X129400000Y-30930000D02*
X132300000Y-28030000D01*
X129400000Y-33230000D02*
X129400000Y-30930000D01*
X127800000Y-34830000D02*
X129400000Y-33230000D01*
X128250000Y-36780000D02*
X127800000Y-36330000D01*
X127800000Y-36330000D02*
X127800000Y-34830000D01*
%TO.N,Net-(J5-Pin_25)*%
X129550000Y-35980000D02*
X130650000Y-34880000D01*
X130650000Y-33380000D02*
X130600000Y-33330000D01*
%TO.N,Net-(J5-Pin_28)*%
X154650000Y-34780000D02*
X154650000Y-33280000D01*
%TO.N,Net-(J2-Pin_8)*%
X153400000Y-30930000D02*
X150500000Y-28030000D01*
X151800000Y-34830000D02*
X153400000Y-33230000D01*
%TO.N,Net-(J5-Pin_28)*%
X154650000Y-33280000D02*
X154700000Y-33230000D01*
%TO.N,Net-(J2-Pin_8)*%
X150500000Y-28030000D02*
X145600000Y-28030000D01*
X153500000Y-36780000D02*
X152250000Y-36780000D01*
%TO.N,GND*%
X149600000Y-40430000D02*
X151800000Y-40430000D01*
X137500000Y-37730000D02*
X137500000Y-40430000D01*
X137500000Y-40430000D02*
X141500000Y-40430000D01*
X129540000Y-25490000D02*
X126400000Y-28630000D01*
X126400000Y-28630000D02*
X126400000Y-37930000D01*
X145500000Y-37730000D02*
X145500000Y-40430000D01*
%TO.N,Net-(J5-Pin_28)*%
X154700000Y-33230000D02*
X154700000Y-33230000D01*
%TO.N,Net-(J5-Pin_27)*%
X146600000Y-33230000D02*
X146650000Y-33180000D01*
%TO.N,Net-(J2-Pin_6)*%
X136150000Y-36780000D02*
X137400000Y-36780000D01*
X135700000Y-36330000D02*
X136150000Y-36780000D01*
X135700000Y-34830000D02*
X135700000Y-36330000D01*
X140520000Y-28030000D02*
X140500000Y-28030000D01*
%TO.N,GND*%
X151800000Y-40430000D02*
X153500000Y-38730000D01*
X145500000Y-40430000D02*
X149600000Y-40430000D01*
X133600000Y-40430000D02*
X137500000Y-40430000D01*
%TO.N,Net-(J2-Pin_5)*%
X129500000Y-36780000D02*
X128250000Y-36780000D01*
%TO.N,Net-(J5-Pin_27)*%
X145550000Y-35880000D02*
X146650000Y-34780000D01*
X146650000Y-33280000D02*
X146600000Y-33230000D01*
%TO.N,Net-(J5-Pin_26)*%
X138600000Y-33130000D02*
X138600000Y-33030000D01*
%TO.N,GND*%
X153500000Y-38730000D02*
X153500000Y-37730000D01*
X129500000Y-38730000D02*
X131200000Y-40430000D01*
X129500000Y-37730000D02*
X129500000Y-38730000D01*
%TO.N,Net-(J5-Pin_25)*%
X130600000Y-33330000D02*
X130650000Y-33280000D01*
%TO.N,Net-(J5-Pin_27)*%
X146650000Y-34780000D02*
X146650000Y-33280000D01*
%TO.N,GND*%
X151800000Y-40430000D02*
X157600000Y-40430000D01*
%TO.N,Net-(J5-Pin_28)*%
X153550000Y-35880000D02*
X154650000Y-34780000D01*
%TO.N,Net-(J5-Pin_26)*%
X138600000Y-34730000D02*
X138600000Y-33130000D01*
X137500000Y-35830000D02*
X138600000Y-34730000D01*
%TO.N,Net-(J2-Pin_8)*%
X152250000Y-36780000D02*
X151800000Y-36330000D01*
%TO.N,Net-(J5-Pin_25)*%
X130650000Y-33280000D02*
X130700000Y-33230000D01*
%TO.N,Net-(J5-Pin_28)*%
X154650000Y-33180000D02*
X154650000Y-33080000D01*
%TO.N,Net-(J2-Pin_6)*%
X137300000Y-31230000D02*
X137300000Y-33130000D01*
X137300000Y-33230000D02*
X135700000Y-34830000D01*
X140500000Y-28030000D02*
X137300000Y-31230000D01*
%TO.N,GND*%
X141500000Y-40430000D02*
X145500000Y-40430000D01*
X131200000Y-40430000D02*
X131300000Y-40430000D01*
X128900000Y-40430000D02*
X131300000Y-40430000D01*
%TO.N,Net-(J5-Pin_25)*%
X130650000Y-34880000D02*
X130650000Y-33380000D01*
%TO.N,GND*%
X126400000Y-37930000D02*
X128900000Y-40430000D01*
X137980000Y-25490000D02*
X129540000Y-25490000D01*
X131300000Y-40430000D02*
X133600000Y-40430000D01*
%TO.N,Net-(J2-Pin_5)*%
X132300000Y-28030000D02*
X137980001Y-28030000D01*
%TO.N,Net-(J2-Pin_8)*%
X151800000Y-36330000D02*
X151800000Y-34830000D01*
X153400000Y-33230000D02*
X153400000Y-33200000D01*
%TO.N,Net-(J4-Pin_7)*%
X80500000Y-30240000D02*
X78160000Y-27900000D01*
%TO.N,GND*%
X86900000Y-40300000D02*
X88600000Y-38600000D01*
X64600000Y-37600000D02*
X64600000Y-38600000D01*
%TO.N,Net-(J4-Pin_5)*%
X63350000Y-36650000D02*
X62900000Y-36200000D01*
%TO.N,Net-(J4-Pin_8)*%
X86900000Y-34700000D02*
X88500000Y-33100000D01*
%TO.N,GND*%
X84700000Y-40300000D02*
X86900000Y-40300000D01*
X68700000Y-40300000D02*
X72600000Y-40300000D01*
%TO.N,Net-(J4-Pin_6)*%
X72400000Y-33000000D02*
X72400000Y-33100000D01*
%TO.N,Net-(J4-Pin_5)*%
X62900000Y-34700000D02*
X64500000Y-33100000D01*
%TO.N,Net-(J4-Pin_7)*%
X80400000Y-33100000D02*
X80500000Y-33100000D01*
%TO.N,Net-(J5-Pin_18)*%
X73700000Y-33100000D02*
X73700000Y-33000000D01*
%TO.N,Net-(J5-Pin_20)*%
X89750000Y-33050000D02*
X89750000Y-32950000D01*
%TO.N,Net-(J5-Pin_18)*%
X73700000Y-34600000D02*
X73700000Y-33100000D01*
%TO.N,Net-(J5-Pin_17)*%
X65700000Y-33100000D02*
X65750000Y-33050000D01*
%TO.N,Net-(J4-Pin_5)*%
X62900000Y-36200000D02*
X62900000Y-34700000D01*
%TO.N,Net-(J4-Pin_6)*%
X70800000Y-36200000D02*
X71250000Y-36650000D01*
%TO.N,Net-(J5-Pin_19)*%
X81750000Y-34650000D02*
X81750000Y-33150000D01*
%TO.N,GND*%
X86900000Y-40300000D02*
X92700000Y-40300000D01*
%TO.N,Net-(J4-Pin_7)*%
X80500000Y-33100000D02*
X80500000Y-30240000D01*
%TO.N,Net-(J4-Pin_5)*%
X67400000Y-27900000D02*
X73080001Y-27900000D01*
%TO.N,GND*%
X76600000Y-40300000D02*
X80600000Y-40300000D01*
%TO.N,Net-(J4-Pin_7)*%
X80400000Y-33200000D02*
X80400000Y-33100000D01*
%TO.N,Net-(J4-Pin_6)*%
X75620000Y-27900000D02*
X75600000Y-27900000D01*
%TO.N,GND*%
X72600000Y-40300000D02*
X76480000Y-40300000D01*
%TO.N,Net-(J5-Pin_17)*%
X65750000Y-33250000D02*
X65700000Y-33200000D01*
%TO.N,Net-(J5-Pin_18)*%
X73700000Y-33000000D02*
X73700000Y-32900000D01*
%TO.N,GND*%
X66300000Y-40300000D02*
X66400000Y-40300000D01*
%TO.N,Net-(J4-Pin_7)*%
X80500000Y-33100000D02*
X80500000Y-33100000D01*
%TO.N,GND*%
X73080000Y-25360000D02*
X64640000Y-25360000D01*
X64000000Y-40300000D02*
X66400000Y-40300000D01*
%TO.N,Net-(J5-Pin_17)*%
X65750000Y-34750000D02*
X65750000Y-33250000D01*
%TO.N,GND*%
X61500000Y-37800000D02*
X64000000Y-40300000D01*
%TO.N,Net-(J5-Pin_20)*%
X88650000Y-35750000D02*
X89750000Y-34650000D01*
%TO.N,Net-(J4-Pin_5)*%
X64500000Y-30800000D02*
X67400000Y-27900000D01*
%TO.N,Net-(J4-Pin_7)*%
X80600000Y-36650000D02*
X79350000Y-36650000D01*
%TO.N,GND*%
X66400000Y-40300000D02*
X68700000Y-40300000D01*
%TO.N,Net-(J5-Pin_17)*%
X64650000Y-35850000D02*
X65750000Y-34750000D01*
%TO.N,Net-(J4-Pin_6)*%
X75600000Y-27900000D02*
X72400000Y-31100000D01*
%TO.N,Net-(J4-Pin_8)*%
X88500000Y-30800000D02*
X85600000Y-27900000D01*
%TO.N,Net-(J4-Pin_6)*%
X72400000Y-33100000D02*
X70800000Y-34700000D01*
%TO.N,Net-(J4-Pin_5)*%
X64500000Y-33100000D02*
X64500000Y-30800000D01*
%TO.N,Net-(J4-Pin_7)*%
X78900000Y-34700000D02*
X80400000Y-33200000D01*
%TO.N,Net-(J4-Pin_8)*%
X86900000Y-36200000D02*
X86900000Y-34700000D01*
X87350000Y-36650000D02*
X86900000Y-36200000D01*
%TO.N,Net-(J4-Pin_6)*%
X72400000Y-31100000D02*
X72400000Y-33000000D01*
%TO.N,Net-(J4-Pin_7)*%
X78900000Y-36200000D02*
X78900000Y-34700000D01*
%TO.N,Net-(J5-Pin_20)*%
X89800000Y-33100000D02*
X89750000Y-33050000D01*
%TO.N,Net-(J5-Pin_17)*%
X65750000Y-33150000D02*
X65700000Y-33100000D01*
%TO.N,Net-(J5-Pin_20)*%
X89750000Y-34650000D02*
X89750000Y-33150000D01*
%TO.N,Net-(J5-Pin_19)*%
X81750000Y-33150000D02*
X81700000Y-33100000D01*
%TO.N,GND*%
X64640000Y-25360000D02*
X61500000Y-28500000D01*
X88600000Y-38600000D02*
X88600000Y-37600000D01*
%TO.N,Net-(J4-Pin_5)*%
X64600000Y-36650000D02*
X63350000Y-36650000D01*
%TO.N,Net-(J5-Pin_19)*%
X80650000Y-35750000D02*
X81750000Y-34650000D01*
%TO.N,Net-(J4-Pin_6)*%
X71250000Y-36650000D02*
X72500000Y-36650000D01*
%TO.N,Net-(J5-Pin_19)*%
X81700000Y-33100000D02*
X81750000Y-33050000D01*
%TO.N,GND*%
X80600000Y-40300000D02*
X84700000Y-40300000D01*
X64600000Y-38600000D02*
X66300000Y-40300000D01*
%TO.N,Net-(J4-Pin_8)*%
X88500000Y-33100000D02*
X88500000Y-30800000D01*
%TO.N,Net-(J5-Pin_19)*%
X81750000Y-33050000D02*
X81750000Y-32950000D01*
%TO.N,Net-(J5-Pin_20)*%
X89750000Y-33150000D02*
X89800000Y-33100000D01*
%TO.N,Net-(J4-Pin_7)*%
X79350000Y-36650000D02*
X78900000Y-36200000D01*
%TO.N,GND*%
X72600000Y-37600000D02*
X72600000Y-40300000D01*
%TO.N,Net-(J4-Pin_6)*%
X70800000Y-34700000D02*
X70800000Y-36200000D01*
%TO.N,Net-(J4-Pin_8)*%
X85600000Y-27900000D02*
X80700000Y-27900000D01*
%TO.N,GND*%
X80600000Y-37600000D02*
X80600000Y-40300000D01*
X61500000Y-28500000D02*
X61500000Y-37800000D01*
%TO.N,Net-(J4-Pin_8)*%
X88600000Y-36650000D02*
X87350000Y-36650000D01*
%TO.N,Net-(J5-Pin_17)*%
X65700000Y-33200000D02*
X65750000Y-33150000D01*
%TO.N,Net-(J5-Pin_18)*%
X72600000Y-35700000D02*
X73700000Y-34600000D01*
%TO.N,Net-(J1-Pin_6)*%
X168180000Y-36200000D02*
X168630000Y-36650000D01*
X173000000Y-27900000D02*
X172980000Y-27900000D01*
%TO.N,GND*%
X184280000Y-40300000D02*
X190080000Y-40300000D01*
X177980000Y-40300000D02*
X182080000Y-40300000D01*
%TO.N,Net-(J1-Pin_5)*%
X161980000Y-36650000D02*
X160730000Y-36650000D01*
%TO.N,Net-(J5-Pin_31)*%
X178030000Y-35750000D02*
X179130000Y-34650000D01*
X179130000Y-33150000D02*
X179080000Y-33100000D01*
%TO.N,Net-(J5-Pin_30)*%
X171080000Y-33000000D02*
X171080000Y-32900000D01*
%TO.N,GND*%
X162020000Y-25360000D02*
X158880000Y-28500000D01*
X185980000Y-38600000D02*
X185980000Y-37600000D01*
X161980000Y-38600000D02*
X163680000Y-40300000D01*
%TO.N,Net-(J5-Pin_29)*%
X163080000Y-33200000D02*
X163130000Y-33150000D01*
X163130000Y-34750000D02*
X163130000Y-33250000D01*
%TO.N,Net-(J1-Pin_5)*%
X160280000Y-36200000D02*
X160280000Y-34700000D01*
%TO.N,Net-(J1-Pin_6)*%
X169780000Y-31100000D02*
X169780000Y-33100000D01*
%TO.N,GND*%
X161380000Y-40300000D02*
X163780000Y-40300000D01*
X158880000Y-37800000D02*
X161380000Y-40300000D01*
X163780000Y-40300000D02*
X166080000Y-40300000D01*
X170460000Y-25360000D02*
X162020000Y-25360000D01*
X173980000Y-40300000D02*
X177980000Y-40300000D01*
%TO.N,Net-(J1-Pin_5)*%
X164780000Y-27900000D02*
X170460001Y-27900000D01*
%TO.N,Net-(J5-Pin_31)*%
X179130000Y-34650000D02*
X179130000Y-33150000D01*
%TO.N,GND*%
X158880000Y-28500000D02*
X158880000Y-37800000D01*
%TO.N,Net-(J1-Pin_8)*%
X184280000Y-36200000D02*
X184280000Y-34700000D01*
%TO.N,Net-(J5-Pin_29)*%
X163130000Y-33250000D02*
X163080000Y-33200000D01*
%TO.N,Net-(J1-Pin_6)*%
X168180000Y-34700000D02*
X168180000Y-36200000D01*
%TO.N,GND*%
X166080000Y-40300000D02*
X169980000Y-40300000D01*
%TO.N,Net-(J1-Pin_6)*%
X169780000Y-33100000D02*
X168180000Y-34700000D01*
%TO.N,Net-(J1-Pin_8)*%
X185880000Y-33100000D02*
X185880000Y-30800000D01*
%TO.N,Net-(J1-Pin_6)*%
X172980000Y-27900000D02*
X169780000Y-31100000D01*
%TO.N,Net-(J5-Pin_32)*%
X187130000Y-33050000D02*
X187130000Y-32950000D01*
%TO.N,GND*%
X161980000Y-37600000D02*
X161980000Y-38600000D01*
%TO.N,Net-(J5-Pin_29)*%
X163130000Y-33150000D02*
X163130000Y-33050000D01*
%TO.N,Net-(J1-Pin_8)*%
X184730000Y-36650000D02*
X184280000Y-36200000D01*
%TO.N,GND*%
X184280000Y-40300000D02*
X185980000Y-38600000D01*
%TO.N,Net-(J5-Pin_30)*%
X169980000Y-35700000D02*
X171080000Y-34600000D01*
%TO.N,GND*%
X163680000Y-40300000D02*
X163780000Y-40300000D01*
%TO.N,Net-(J5-Pin_32)*%
X186030000Y-35750000D02*
X187130000Y-34650000D01*
%TO.N,Net-(J1-Pin_8)*%
X182980000Y-27900000D02*
X178080000Y-27900000D01*
%TO.N,Net-(J1-Pin_7)*%
X177880000Y-30240000D02*
X175540000Y-27900000D01*
%TO.N,Net-(J5-Pin_30)*%
X171080000Y-34600000D02*
X171080000Y-33000000D01*
%TO.N,Net-(J1-Pin_6)*%
X168630000Y-36650000D02*
X169880000Y-36650000D01*
%TO.N,Net-(J5-Pin_31)*%
X179080000Y-33100000D02*
X179130000Y-33050000D01*
%TO.N,Net-(J5-Pin_32)*%
X187180000Y-33100000D02*
X187130000Y-33050000D01*
%TO.N,GND*%
X177980000Y-37600000D02*
X177980000Y-40300000D01*
X169980000Y-40300000D02*
X173980000Y-40300000D01*
%TO.N,Net-(J1-Pin_7)*%
X177880000Y-33100000D02*
X177880000Y-30240000D01*
%TO.N,Net-(J5-Pin_29)*%
X162030000Y-35850000D02*
X163130000Y-34750000D01*
%TO.N,GND*%
X169980000Y-37600000D02*
X169980000Y-40300000D01*
X182080000Y-40300000D02*
X184280000Y-40300000D01*
%TO.N,Net-(J1-Pin_8)*%
X185980000Y-36650000D02*
X184730000Y-36650000D01*
%TO.N,Net-(J5-Pin_32)*%
X187130000Y-33150000D02*
X187180000Y-33100000D01*
%TO.N,Net-(J1-Pin_5)*%
X160280000Y-34700000D02*
X161880000Y-33100000D01*
%TO.N,Net-(J1-Pin_8)*%
X184280000Y-34700000D02*
X185880000Y-33100000D01*
%TO.N,Net-(J1-Pin_7)*%
X176730000Y-36650000D02*
X176280000Y-36200000D01*
X176280000Y-34700000D02*
X177880000Y-33100000D01*
%TO.N,Net-(J1-Pin_5)*%
X161880000Y-30800000D02*
X164780000Y-27900000D01*
%TO.N,Net-(J1-Pin_7)*%
X176280000Y-36200000D02*
X176280000Y-34700000D01*
%TO.N,Net-(J1-Pin_8)*%
X185880000Y-30800000D02*
X182980000Y-27900000D01*
%TO.N,Net-(J1-Pin_7)*%
X177980000Y-36650000D02*
X176730000Y-36650000D01*
%TO.N,Net-(J5-Pin_32)*%
X187130000Y-34650000D02*
X187130000Y-33150000D01*
%TO.N,Net-(J1-Pin_5)*%
X160730000Y-36650000D02*
X160280000Y-36200000D01*
X161880000Y-33100000D02*
X161880000Y-30800000D01*
%TO.N,Net-(J5-Pin_31)*%
X179130000Y-33050000D02*
X179130000Y-32950000D01*
%TD*%
M02*
