%TF.GenerationSoftware,KiCad,Pcbnew,8.0.3-1.fc40*%
%TF.CreationDate,2024-07-04T16:01:24-04:00*%
%TF.ProjectId,boards_v3,626f6172-6473-45f7-9633-2e6b69636164,rev?*%
%TF.SameCoordinates,Original*%
%TF.FileFunction,Soldermask,Bot*%
%TF.FilePolarity,Negative*%
%FSLAX46Y46*%
G04 Gerber Fmt 4.6, Leading zero omitted, Abs format (unit mm)*
G04 Created by KiCad (PCBNEW 8.0.3-1.fc40) date 2024-07-04 16:01:24*
%MOMM*%
%LPD*%
G01*
G04 APERTURE LIST*
G04 Aperture macros list*
%AMFreePoly0*
4,1,19,0.000000,0.744911,0.071157,0.744911,0.207708,0.704816,0.327430,0.627875,0.420627,0.520320,0.479746,0.390866,0.500000,0.250000,0.500000,-0.250000,0.479746,-0.390866,0.420627,-0.520320,0.327430,-0.627875,0.207708,-0.704816,0.071157,-0.744911,0.000000,-0.744911,0.000000,-0.750000,-0.550000,-0.750000,-0.550000,0.750000,0.000000,0.750000,0.000000,0.744911,0.000000,0.744911,
$1*%
%AMFreePoly1*
4,1,19,0.550000,-0.750000,0.000000,-0.750000,0.000000,-0.744911,-0.071157,-0.744911,-0.207708,-0.704816,-0.327430,-0.627875,-0.420627,-0.520320,-0.479746,-0.390866,-0.500000,-0.250000,-0.500000,0.250000,-0.479746,0.390866,-0.420627,0.520320,-0.327430,0.627875,-0.207708,0.704816,-0.071157,0.744911,0.000000,0.744911,0.000000,0.750000,0.550000,0.750000,0.550000,-0.750000,0.550000,-0.750000,
$1*%
G04 Aperture macros list end*
%ADD10FreePoly0,0.000000*%
%ADD11R,1.000000X1.500000*%
%ADD12FreePoly1,0.000000*%
%ADD13C,1.600000*%
%ADD14R,1.600000X1.600000*%
%ADD15R,1.300000X1.300000*%
%ADD16C,1.300000*%
%ADD17C,2.286000*%
G04 APERTURE END LIST*
D10*
%TO.C,JP12*%
X99500000Y-33100000D03*
D11*
X98200000Y-33100000D03*
D12*
X96900000Y-33100000D03*
%TD*%
D10*
%TO.C,JP11*%
X107400000Y-32942500D03*
D11*
X106100000Y-32942500D03*
D12*
X104800000Y-32942500D03*
%TD*%
D10*
%TO.C,JP10*%
X115580000Y-32880000D03*
D11*
X114280000Y-32880000D03*
D12*
X112980000Y-32880000D03*
%TD*%
D10*
%TO.C,JP9*%
X123500000Y-33142500D03*
D11*
X122200000Y-33142500D03*
D12*
X120900000Y-33142500D03*
%TD*%
D10*
%TO.C,JP8*%
X132000000Y-33130000D03*
D11*
X130700000Y-33130000D03*
D12*
X129400000Y-33130000D03*
%TD*%
D10*
%TO.C,JP7*%
X139900000Y-33130000D03*
D11*
X138600000Y-33130000D03*
D12*
X137300000Y-33130000D03*
%TD*%
D10*
%TO.C,JP6*%
X147900000Y-33130000D03*
D11*
X146600000Y-33130000D03*
D12*
X145300000Y-33130000D03*
%TD*%
%TO.C,JP5*%
X153300000Y-33230000D03*
D11*
X154600000Y-33230000D03*
D10*
X155900000Y-33230000D03*
%TD*%
D13*
%TO.C,U1*%
X87140001Y-63840000D03*
X101059200Y-73489200D03*
X98519200Y-73489200D03*
X95979200Y-73489200D03*
X93439200Y-73489200D03*
D14*
X90899200Y-73489200D03*
D13*
X84600000Y-61300000D03*
X87140000Y-61300000D03*
X89680000Y-61300000D03*
X92220000Y-61300000D03*
X94760000Y-61300000D03*
X97300000Y-61300000D03*
X99840000Y-61300000D03*
X102380000Y-61300000D03*
X104920000Y-61300000D03*
X107460000Y-61300000D03*
X110000000Y-61300000D03*
X112540000Y-61300000D03*
X115080000Y-61300000D03*
X117620000Y-61300000D03*
D14*
X84600000Y-76540000D03*
D13*
X87140000Y-76540000D03*
X89680000Y-76540000D03*
X92220000Y-76540000D03*
X94760000Y-76540000D03*
X97300000Y-76540000D03*
X99840000Y-76540000D03*
X102380000Y-76540000D03*
X104920000Y-76540000D03*
X107460000Y-76540000D03*
X110000000Y-76540000D03*
X112540000Y-76540000D03*
X115080000Y-76540000D03*
X120160000Y-61300000D03*
X122700000Y-61300000D03*
X125240000Y-61300000D03*
X127780000Y-61300000D03*
X130320000Y-61300000D03*
X132860000Y-61300000D03*
X135400000Y-61300000D03*
X137940000Y-61300000D03*
X140480000Y-61300000D03*
X143020000Y-61300000D03*
X143020000Y-76540000D03*
X140480000Y-76540000D03*
X137940000Y-76540000D03*
X135400000Y-76540000D03*
X117620000Y-76540000D03*
X120160000Y-76540000D03*
X122700000Y-76540000D03*
X132860000Y-76540000D03*
X130320000Y-76540000D03*
X127780000Y-76540000D03*
X125240000Y-76540000D03*
D15*
X97569999Y-63738400D03*
D16*
X99570000Y-63738400D03*
X97570000Y-65738400D03*
X99570000Y-65738401D03*
X99570000Y-67738400D03*
X97570000Y-67738401D03*
D13*
X130320000Y-73999999D03*
X130320000Y-71460000D03*
X130320000Y-68920000D03*
X130320000Y-66380000D03*
X130320000Y-63840001D03*
D16*
X85329999Y-70190000D03*
X85329999Y-67650000D03*
%TD*%
D17*
%TO.C,J6*%
X184580000Y-82340000D03*
X187120000Y-82340000D03*
X189660000Y-82340000D03*
X192200000Y-82340000D03*
X192200000Y-79800000D03*
X189660000Y-79800000D03*
X187120000Y-79800000D03*
X184580000Y-79800000D03*
%TD*%
%TO.C,J3*%
X113040000Y-27800000D03*
X110500000Y-27800000D03*
X107960000Y-27800000D03*
X105420001Y-27800000D03*
X105420000Y-25260000D03*
X107960000Y-25260000D03*
X110500000Y-25260000D03*
X113040000Y-25260000D03*
%TD*%
%TO.C,J2*%
X145700000Y-28030000D03*
X143160000Y-28030000D03*
X140620000Y-28030000D03*
X138080001Y-28030000D03*
X138080000Y-25490000D03*
X140620000Y-25490000D03*
X143160000Y-25490000D03*
X145700000Y-25490000D03*
%TD*%
D12*
%TO.C,JP13*%
X88500000Y-33100000D03*
D11*
X89800000Y-33100000D03*
D10*
X91100000Y-33100000D03*
%TD*%
D12*
%TO.C,JP16*%
X64400000Y-33100000D03*
D11*
X65700000Y-33100000D03*
D10*
X67000000Y-33100000D03*
%TD*%
D17*
%TO.C,J4*%
X80740000Y-25400000D03*
X78200000Y-25400000D03*
X75660000Y-25400000D03*
X73120000Y-25400000D03*
X73120001Y-27940000D03*
X75660000Y-27940000D03*
X78200000Y-27940000D03*
X80740000Y-27940000D03*
%TD*%
D12*
%TO.C,JP15*%
X72400000Y-33000000D03*
D11*
X73700000Y-33000000D03*
D10*
X75000000Y-33000000D03*
%TD*%
D12*
%TO.C,JP14*%
X80400000Y-33100000D03*
D11*
X81700000Y-33100000D03*
D10*
X83000000Y-33100000D03*
%TD*%
%TO.C,JP1*%
X188480000Y-33100000D03*
D11*
X187180000Y-33100000D03*
D12*
X185880000Y-33100000D03*
%TD*%
%TO.C,JP3*%
X169780000Y-33000000D03*
D11*
X171080000Y-33000000D03*
D10*
X172380000Y-33000000D03*
%TD*%
D12*
%TO.C,JP2*%
X177880000Y-33042500D03*
D11*
X179180000Y-33042500D03*
D10*
X180480000Y-33042500D03*
%TD*%
D17*
%TO.C,J1*%
X178080000Y-25360000D03*
X175540000Y-25360000D03*
X173000000Y-25360000D03*
X170460000Y-25360000D03*
X170460001Y-27900000D03*
X173000000Y-27900000D03*
X175540000Y-27900000D03*
X178080000Y-27900000D03*
%TD*%
D12*
%TO.C,JP4*%
X161880000Y-33100000D03*
D11*
X163180000Y-33100000D03*
D10*
X164480000Y-33100000D03*
%TD*%
M02*
