%TF.GenerationSoftware,KiCad,Pcbnew,8.0.2-1*%
%TF.CreationDate,2024-07-06T17:14:10-04:00*%
%TF.ProjectId,boards_v3,626f6172-6473-45f7-9633-2e6b69636164,rev?*%
%TF.SameCoordinates,Original*%
%TF.FileFunction,Copper,L2,Inr*%
%TF.FilePolarity,Positive*%
%FSLAX46Y46*%
G04 Gerber Fmt 4.6, Leading zero omitted, Abs format (unit mm)*
G04 Created by KiCad (PCBNEW 8.0.2-1) date 2024-07-06 17:14:10*
%MOMM*%
%LPD*%
G01*
G04 APERTURE LIST*
%TA.AperFunction,ComponentPad*%
%ADD10C,2.286000*%
%TD*%
%TA.AperFunction,ComponentPad*%
%ADD11R,1.600000X1.600000*%
%TD*%
%TA.AperFunction,ComponentPad*%
%ADD12C,1.600000*%
%TD*%
%TA.AperFunction,ComponentPad*%
%ADD13R,1.300000X1.300000*%
%TD*%
%TA.AperFunction,ComponentPad*%
%ADD14C,1.300000*%
%TD*%
%TA.AperFunction,ComponentPad*%
%ADD15C,1.524000*%
%TD*%
%TA.AperFunction,ViaPad*%
%ADD16C,0.600000*%
%TD*%
%TA.AperFunction,ViaPad*%
%ADD17C,0.800000*%
%TD*%
%TA.AperFunction,Conductor*%
%ADD18C,0.600000*%
%TD*%
%TA.AperFunction,Conductor*%
%ADD19C,0.200000*%
%TD*%
%TA.AperFunction,Conductor*%
%ADD20C,0.400000*%
%TD*%
G04 APERTURE END LIST*
D10*
%TO.N,+3.3V*%
%TO.C,J2*%
X145700000Y-25490000D03*
%TO.N,unconnected-(J2-Pin_2-Pad2)*%
X143160000Y-25490000D03*
%TO.N,unconnected-(J2-Pin_3-Pad3)*%
X140620000Y-25490000D03*
%TO.N,GND*%
X138080000Y-25490000D03*
%TO.N,Net-(J2-Pin_5)*%
X138080001Y-28030000D03*
%TO.N,Net-(J2-Pin_6)*%
X140620000Y-28030000D03*
%TO.N,Net-(J2-Pin_7)*%
X143160000Y-28030000D03*
%TO.N,Net-(J2-Pin_8)*%
X145700000Y-28030000D03*
%TD*%
D11*
%TO.N,unconnected-(U1-GND-Pad1)*%
%TO.C,U1*%
X84600000Y-76540000D03*
D12*
%TO.N,Net-(J7-Pin_4)*%
X87140000Y-76540000D03*
%TO.N,Net-(J7-Pin_3)*%
X89680000Y-76540000D03*
%TO.N,Net-(J7-Pin_2)*%
X92220000Y-76540000D03*
%TO.N,Net-(J7-Pin_1)*%
X94760000Y-76540000D03*
%TO.N,Net-(J7-Pin_5)*%
X97300000Y-76540000D03*
%TO.N,Net-(J9-Pin_34)*%
X99840000Y-76540000D03*
%TO.N,Net-(J9-Pin_33)*%
X102380000Y-76540000D03*
%TO.N,Net-(J9-Pin_32)*%
X104920000Y-76540000D03*
%TO.N,Net-(J9-Pin_31)*%
X107460000Y-76540000D03*
%TO.N,Net-(J9-Pin_30)*%
X110000000Y-76540000D03*
%TO.N,Net-(J9-Pin_29)*%
X112540000Y-76540000D03*
%TO.N,Net-(J9-Pin_28)*%
X115080000Y-76540000D03*
%TO.N,Net-(J9-Pin_27)*%
X117620000Y-76540000D03*
%TO.N,unconnected-(U1-3V3-Pad15)*%
X120160000Y-76540000D03*
%TO.N,Net-(J9-Pin_6)*%
X122700000Y-76540000D03*
%TO.N,Net-(J9-Pin_5)*%
X125240000Y-76540000D03*
%TO.N,Net-(J9-Pin_4)*%
X127780000Y-76540000D03*
%TO.N,Net-(J9-Pin_3)*%
X130320000Y-76540000D03*
%TO.N,Net-(J9-Pin_26)*%
X132860000Y-76540000D03*
%TO.N,Net-(J9-Pin_25)*%
X135400000Y-76540000D03*
%TO.N,Net-(J9-Pin_24)*%
X137940000Y-76540000D03*
%TO.N,Net-(J9-Pin_23)*%
X140480000Y-76540000D03*
%TO.N,unconnected-(U1-32_OUT1B-Pad24)*%
X143020000Y-76540000D03*
%TO.N,Net-(J8-Pin_5)*%
X143020000Y-61300000D03*
%TO.N,Net-(J6-Pin_5)*%
X140480000Y-61300000D03*
%TO.N,Net-(J6-Pin_4)*%
X137940000Y-61300000D03*
%TO.N,Net-(J8-Pin_4)*%
X135400000Y-61300000D03*
%TO.N,Net-(J8-Pin_3)*%
X132860000Y-61300000D03*
%TO.N,Net-(J8-Pin_2)*%
X130320000Y-61300000D03*
%TO.N,Net-(J8-Pin_1)*%
X127780000Y-61300000D03*
%TO.N,Net-(J9-Pin_2)*%
X125240000Y-61300000D03*
%TO.N,Net-(J9-Pin_1)*%
X122700000Y-61300000D03*
%TO.N,unconnected-(U1-GND-Pad34)*%
X120160000Y-61300000D03*
%TO.N,unconnected-(U1-13_SCK_LED-Pad35)*%
X117620000Y-61300000D03*
%TO.N,Net-(J9-Pin_16)*%
X115080000Y-61300000D03*
%TO.N,Net-(J9-Pin_15)*%
X112540000Y-61300000D03*
%TO.N,Net-(J9-Pin_14)*%
X110000000Y-61300000D03*
%TO.N,Net-(J9-Pin_13)*%
X107460000Y-61300000D03*
%TO.N,Net-(J9-Pin_12)*%
X104920000Y-61300000D03*
%TO.N,Net-(J9-Pin_11)*%
X102380000Y-61300000D03*
%TO.N,Net-(J9-Pin_10)*%
X99840000Y-61300000D03*
%TO.N,Net-(J9-Pin_9)*%
X97300000Y-61300000D03*
%TO.N,Net-(J9-Pin_8)*%
X94760000Y-61300000D03*
%TO.N,Net-(J9-Pin_7)*%
X92220000Y-61300000D03*
%TO.N,unconnected-(U1-3V3-Pad46)*%
X89680000Y-61300000D03*
%TO.N,GND*%
X87140000Y-61300000D03*
%TO.N,+5V*%
X84600000Y-61300000D03*
%TO.N,unconnected-(U1-VUSB-Pad49)*%
X87140001Y-63840000D03*
%TO.N,unconnected-(U1-VBAT-Pad50)*%
X130320000Y-73999999D03*
%TO.N,unconnected-(U1-3V3-Pad51)*%
X130320000Y-71460000D03*
%TO.N,unconnected-(U1-GND-Pad52)*%
X130320000Y-68920000D03*
%TO.N,unconnected-(U1-PROGRAM-Pad53)*%
X130320000Y-66380000D03*
%TO.N,unconnected-(U1-ON_OFF-Pad54)*%
X130320000Y-63840001D03*
D11*
%TO.N,unconnected-(U1-5V-Pad55)*%
X90899200Y-73489200D03*
D12*
%TO.N,unconnected-(U1-D--Pad56)*%
X93439200Y-73489200D03*
%TO.N,unconnected-(U1-D+-Pad57)*%
X95979200Y-73489200D03*
%TO.N,unconnected-(U1-GND-Pad58)*%
X98519200Y-73489200D03*
%TO.N,unconnected-(U1-GND-Pad59)*%
X101059200Y-73489200D03*
D13*
%TO.N,unconnected-(U1-R+-Pad60)*%
X97569999Y-63738400D03*
D14*
%TO.N,unconnected-(U1-LED-Pad61)*%
X97570000Y-65738400D03*
%TO.N,unconnected-(U1-T--Pad62)*%
X97570000Y-67738401D03*
%TO.N,unconnected-(U1-T+-Pad63)*%
X99570000Y-67738400D03*
%TO.N,unconnected-(U1-GND-Pad64)*%
X99570000Y-65738401D03*
%TO.N,unconnected-(U1-R--Pad65)*%
X99570000Y-63738400D03*
%TO.N,unconnected-(U1-D--Pad66)*%
X85329999Y-67650000D03*
%TO.N,unconnected-(U1-D+-Pad67)*%
X85329999Y-70190000D03*
%TD*%
D10*
%TO.N,+3.3V*%
%TO.C,J1*%
X178080000Y-25360000D03*
%TO.N,unconnected-(J1-Pin_2-Pad2)*%
X175540000Y-25360000D03*
%TO.N,unconnected-(J1-Pin_3-Pad3)*%
X173000000Y-25360000D03*
%TO.N,GND*%
X170460000Y-25360000D03*
%TO.N,Net-(J1-Pin_5)*%
X170460001Y-27900000D03*
%TO.N,Net-(J1-Pin_6)*%
X173000000Y-27900000D03*
%TO.N,Net-(J1-Pin_7)*%
X175540000Y-27900000D03*
%TO.N,Net-(J1-Pin_8)*%
X178080000Y-27900000D03*
%TD*%
%TO.N,Net-(J7-Pin_1)*%
%TO.C,J7*%
X74100000Y-82200000D03*
%TO.N,Net-(J7-Pin_2)*%
X74100000Y-79660000D03*
%TO.N,Net-(J7-Pin_3)*%
X74100000Y-77120000D03*
%TO.N,Net-(J7-Pin_4)*%
X74100000Y-74580000D03*
%TO.N,Net-(J7-Pin_5)*%
X71560000Y-74580001D03*
%TO.N,+5V*%
X71560000Y-77120000D03*
%TO.N,+3.3V*%
X71560000Y-79660000D03*
%TO.N,GND*%
X71560000Y-82200000D03*
%TD*%
%TO.N,+3.3V*%
%TO.C,J6*%
X184580000Y-82340000D03*
%TO.N,+5V*%
X187120000Y-82340000D03*
%TO.N,GND*%
X189660000Y-82340000D03*
%TO.N,Net-(J6-Pin_4)*%
X192200000Y-82340000D03*
%TO.N,Net-(J6-Pin_5)*%
X192200000Y-79800000D03*
%TO.N,GND*%
X189660000Y-79800000D03*
%TO.N,+5V*%
X187120000Y-79800000D03*
%TO.N,+3.3V*%
X184580000Y-79800000D03*
%TD*%
%TO.N,+3.3V*%
%TO.C,J3*%
X113040000Y-25260000D03*
%TO.N,unconnected-(J3-Pin_2-Pad2)*%
X110500000Y-25260000D03*
%TO.N,unconnected-(J3-Pin_3-Pad3)*%
X107960000Y-25260000D03*
%TO.N,GND*%
X105420000Y-25260000D03*
%TO.N,Net-(J3-Pin_5)*%
X105420001Y-27800000D03*
%TO.N,Net-(J3-Pin_6)*%
X107960000Y-27800000D03*
%TO.N,Net-(J3-Pin_7)*%
X110500000Y-27800000D03*
%TO.N,Net-(J3-Pin_8)*%
X113040000Y-27800000D03*
%TD*%
%TO.N,Net-(J8-Pin_1)*%
%TO.C,J8*%
X74040000Y-69980000D03*
%TO.N,Net-(J8-Pin_2)*%
X74040000Y-67440000D03*
%TO.N,Net-(J8-Pin_3)*%
X74040000Y-64900000D03*
%TO.N,Net-(J8-Pin_4)*%
X74040000Y-62360000D03*
%TO.N,Net-(J8-Pin_5)*%
X71500000Y-62360001D03*
%TO.N,+5V*%
X71500000Y-64900000D03*
%TO.N,+3.3V*%
X71500000Y-67440000D03*
%TO.N,GND*%
X71500000Y-69980000D03*
%TD*%
%TO.N,+3.3V*%
%TO.C,J4*%
X80740000Y-25400000D03*
%TO.N,unconnected-(J4-Pin_2-Pad2)*%
X78200000Y-25400000D03*
%TO.N,unconnected-(J4-Pin_3-Pad3)*%
X75660000Y-25400000D03*
%TO.N,GND*%
X73120000Y-25400000D03*
%TO.N,Net-(J4-Pin_5)*%
X73120001Y-27940000D03*
%TO.N,Net-(J4-Pin_6)*%
X75660000Y-27940000D03*
%TO.N,Net-(J4-Pin_7)*%
X78200000Y-27940000D03*
%TO.N,Net-(J4-Pin_8)*%
X80740000Y-27940000D03*
%TD*%
D15*
%TO.N,Net-(J9-Pin_1)*%
%TO.C,J9*%
X206560000Y-27980000D03*
%TO.N,Net-(J9-Pin_2)*%
X206560000Y-30520000D03*
%TO.N,Net-(J9-Pin_3)*%
X206560000Y-33060000D03*
%TO.N,Net-(J9-Pin_4)*%
X206560000Y-35600000D03*
%TO.N,Net-(J9-Pin_5)*%
X206560000Y-38140000D03*
%TO.N,Net-(J9-Pin_6)*%
X206560000Y-40680000D03*
%TO.N,Net-(J9-Pin_7)*%
X206560000Y-43220000D03*
%TO.N,Net-(J9-Pin_8)*%
X206560000Y-45760000D03*
%TO.N,Net-(J9-Pin_9)*%
X206560000Y-48300000D03*
%TO.N,Net-(J9-Pin_10)*%
X206560000Y-50840000D03*
%TO.N,Net-(J9-Pin_11)*%
X206560000Y-53380000D03*
%TO.N,Net-(J9-Pin_12)*%
X206560000Y-55920000D03*
%TO.N,Net-(J9-Pin_13)*%
X206560000Y-58460000D03*
%TO.N,Net-(J9-Pin_14)*%
X206560000Y-61000000D03*
%TO.N,Net-(J9-Pin_15)*%
X206560000Y-63540000D03*
%TO.N,Net-(J9-Pin_16)*%
X206560000Y-66080000D03*
%TO.N,unconnected-(J9-Pin_17-Pad17)*%
X206560000Y-68620000D03*
%TO.N,unconnected-(J9-Pin_18-Pad18)*%
X209100000Y-68620000D03*
%TO.N,GND*%
X209100000Y-66080000D03*
%TO.N,+3.3V*%
X209100000Y-63540000D03*
%TO.N,+5V*%
X209100000Y-61000000D03*
%TO.N,GND*%
X209100000Y-58460000D03*
%TO.N,Net-(J9-Pin_23)*%
X209100000Y-55920000D03*
%TO.N,Net-(J9-Pin_24)*%
X209100000Y-53380000D03*
%TO.N,Net-(J9-Pin_25)*%
X209100000Y-50840000D03*
%TO.N,Net-(J9-Pin_26)*%
X209100000Y-48300000D03*
%TO.N,Net-(J9-Pin_27)*%
X209100000Y-45760000D03*
%TO.N,Net-(J9-Pin_28)*%
X209100000Y-43220000D03*
%TO.N,Net-(J9-Pin_29)*%
X209100000Y-40680000D03*
%TO.N,Net-(J9-Pin_30)*%
X209100000Y-38140000D03*
%TO.N,Net-(J9-Pin_31)*%
X209100000Y-35600000D03*
%TO.N,Net-(J9-Pin_32)*%
X209100000Y-33060000D03*
%TO.N,Net-(J9-Pin_33)*%
X209100000Y-30520000D03*
%TO.N,Net-(J9-Pin_34)*%
X209100000Y-27980000D03*
%TD*%
D16*
%TO.N,Net-(J1-Pin_8)*%
X185880000Y-33100000D03*
%TO.N,GND*%
X160500000Y-75300000D03*
X137300000Y-38600000D03*
X96600000Y-38600000D03*
X80300000Y-38500000D03*
X153200000Y-38600000D03*
X72300000Y-38500000D03*
X188400000Y-33200000D03*
X91100000Y-33100000D03*
X115600000Y-32900000D03*
X107400000Y-33000000D03*
X185700000Y-38500000D03*
X164400000Y-33200000D03*
X183800000Y-75500000D03*
X188300000Y-75400000D03*
X145200000Y-38700000D03*
X104700000Y-38600000D03*
X177700000Y-38500000D03*
X88300000Y-38500000D03*
X83000000Y-33100000D03*
X172400000Y-33000000D03*
X64600000Y-37600000D03*
X123500000Y-33100000D03*
X169900000Y-75500000D03*
X120700000Y-38500000D03*
X147900000Y-33200000D03*
X139900000Y-33200000D03*
X179200000Y-75400000D03*
X132000000Y-33200000D03*
X155900000Y-33300000D03*
X180500000Y-33100000D03*
X169700000Y-38500000D03*
X112800000Y-38500000D03*
X99500000Y-33100000D03*
X178300000Y-62200000D03*
X165300000Y-75400000D03*
X67000000Y-33100000D03*
X174500000Y-75400000D03*
X129200000Y-38700000D03*
X189800000Y-60400000D03*
X158700000Y-78700000D03*
X74900000Y-33000000D03*
X161700000Y-38600000D03*
%TO.N,Net-(J1-Pin_6)*%
X169780000Y-33100000D03*
%TO.N,Net-(J1-Pin_7)*%
X177880000Y-33100000D03*
%TO.N,Net-(J1-Pin_5)*%
X161880000Y-33100000D03*
%TO.N,+3.3V*%
X139800000Y-35830000D03*
X164280000Y-35700000D03*
X131800000Y-35830000D03*
X172280000Y-35700000D03*
X107400000Y-35700000D03*
X123300000Y-35700000D03*
D17*
X196000000Y-76700000D03*
D16*
X180280000Y-35700000D03*
X83000000Y-35700000D03*
X155800000Y-35830000D03*
X66900000Y-35700000D03*
X115400000Y-35700000D03*
X75000000Y-35700000D03*
X90900000Y-35700000D03*
X147800000Y-35830000D03*
X188280000Y-35700000D03*
X99200000Y-35700000D03*
%TO.N,Net-(J2-Pin_7)*%
X145400000Y-33200000D03*
%TO.N,Net-(J2-Pin_8)*%
X153400000Y-33200000D03*
%TO.N,Net-(J2-Pin_6)*%
X137300000Y-33130000D03*
%TO.N,Net-(J2-Pin_5)*%
X129400000Y-33230000D03*
%TO.N,Net-(J3-Pin_7)*%
X113000000Y-32900000D03*
%TO.N,Net-(J3-Pin_6)*%
X104800000Y-32900000D03*
%TO.N,Net-(J3-Pin_5)*%
X96900000Y-33100000D03*
%TO.N,Net-(J3-Pin_8)*%
X120900000Y-33200000D03*
%TO.N,Net-(J4-Pin_8)*%
X88500000Y-33100000D03*
%TO.N,Net-(J4-Pin_6)*%
X72400000Y-33000000D03*
%TO.N,Net-(J4-Pin_5)*%
X64500000Y-33100000D03*
%TO.N,Net-(J4-Pin_7)*%
X80400000Y-33100000D03*
%TO.N,+5V*%
X93700000Y-80200000D03*
X198500000Y-78200000D03*
%TO.N,Net-(U10-~E)*%
X164280000Y-37600000D03*
X172280000Y-37600000D03*
X115400000Y-37600000D03*
X90900000Y-37600000D03*
X188500000Y-69600000D03*
X66900000Y-37600000D03*
X188280000Y-37600000D03*
X147800000Y-37730000D03*
X139800000Y-37730000D03*
X164000000Y-52700000D03*
X131800000Y-37730000D03*
X180280000Y-37600000D03*
X123300000Y-37600000D03*
X107400000Y-37600000D03*
X99400000Y-37600000D03*
X82900000Y-37600000D03*
X75000000Y-37600000D03*
X197300000Y-59600000D03*
X155900000Y-37730000D03*
%TO.N,Net-(J9-Pin_24)*%
X193000000Y-59600000D03*
%TO.N,Net-(J9-Pin_33)*%
X184700000Y-69700000D03*
%TO.N,Net-(J9-Pin_14)*%
X81800000Y-41720000D03*
X81700000Y-33100000D03*
X103197392Y-52600000D03*
%TO.N,Net-(J9-Pin_1)*%
X187180000Y-33100000D03*
X187000000Y-42600000D03*
%TO.N,Net-(J9-Pin_26)*%
X193000000Y-57500000D03*
%TO.N,Net-(J9-Pin_13)*%
X89800000Y-41620000D03*
X89800000Y-33100000D03*
X101924601Y-52600000D03*
%TO.N,Net-(J9-Pin_25)*%
X193015686Y-58484314D03*
%TO.N,Net-(J9-Pin_11)*%
X99379018Y-52600000D03*
X106200000Y-41550000D03*
X106100000Y-33000000D03*
%TO.N,Net-(J9-Pin_5)*%
X154660000Y-41640000D03*
X199500000Y-45100000D03*
X154600000Y-33230000D03*
%TO.N,Net-(J9-Pin_15)*%
X73700000Y-33100000D03*
X104470184Y-52600000D03*
X73800000Y-41720000D03*
%TO.N,Net-(J9-Pin_29)*%
X182100000Y-60400000D03*
%TO.N,Net-(J9-Pin_7)*%
X94800000Y-50500000D03*
X138660000Y-41740000D03*
X138600000Y-33130000D03*
%TO.N,Net-(J9-Pin_6)*%
X146660000Y-41740000D03*
X146600000Y-33130000D03*
X201300000Y-45900000D03*
%TO.N,Net-(J9-Pin_10)*%
X98106226Y-52599999D03*
X114280000Y-32880000D03*
X114200000Y-41550000D03*
%TO.N,Net-(J9-Pin_23)*%
X193000000Y-60700000D03*
%TO.N,Net-(J9-Pin_16)*%
X65800000Y-41620000D03*
X106458511Y-52678511D03*
X65700000Y-33100000D03*
%TO.N,Net-(J9-Pin_34)*%
X187200000Y-69700000D03*
%TO.N,Net-(J9-Pin_32)*%
X182100000Y-69700000D03*
%TO.N,Net-(J9-Pin_2)*%
X179080000Y-33100000D03*
X125240000Y-56300000D03*
X179000000Y-42700000D03*
X125700000Y-54600000D03*
%TO.N,Net-(J9-Pin_12)*%
X100651809Y-52600000D03*
X98100000Y-33100000D03*
X98200000Y-41450000D03*
%TO.N,Net-(J9-Pin_3)*%
X171080000Y-33000000D03*
X196800000Y-42800000D03*
X171000000Y-42700000D03*
%TO.N,Net-(J9-Pin_30)*%
X179600000Y-60400000D03*
%TO.N,Net-(J9-Pin_9)*%
X95800000Y-51500000D03*
X122200000Y-33100000D03*
X122200000Y-41450000D03*
%TO.N,Net-(J9-Pin_28)*%
X184700000Y-60400000D03*
%TO.N,Net-(J9-Pin_31)*%
X179600000Y-69700000D03*
%TO.N,Net-(J9-Pin_8)*%
X130700000Y-33230000D03*
X130660000Y-41640000D03*
X94400000Y-51500000D03*
%TO.N,Net-(J9-Pin_4)*%
X163000000Y-42600000D03*
X163080000Y-33200000D03*
X198100000Y-44000000D03*
%TO.N,Net-(J9-Pin_27)*%
X187200000Y-60400000D03*
%TD*%
D18*
%TO.N,+3.3V*%
X67600000Y-75700000D02*
X67600000Y-69500000D01*
X71560000Y-79660000D02*
X67600000Y-75700000D01*
X176600000Y-85700000D02*
X157104588Y-85700000D01*
X69500000Y-81720000D02*
X71560000Y-79660000D01*
X69500000Y-83100000D02*
X69500000Y-81720000D01*
X182500000Y-79800000D02*
X176600000Y-85700000D01*
X67600000Y-69500000D02*
X69660000Y-67440000D01*
X157104588Y-85700000D02*
X72060444Y-85660444D01*
X69660000Y-67440000D02*
X71500000Y-67440000D01*
X184580000Y-79800000D02*
X182500000Y-79800000D01*
X72060444Y-85660444D02*
X69500000Y-83100000D01*
%TO.N,+5V*%
X214300000Y-72600000D02*
X214300000Y-61000000D01*
X91100000Y-82800000D02*
X93700000Y-80200000D01*
X208700000Y-78200000D02*
X214300000Y-72600000D01*
X198500000Y-78200000D02*
X208700000Y-78200000D01*
X84600000Y-61700000D02*
X81400000Y-64900000D01*
X214300000Y-61000000D02*
X209100000Y-61000000D01*
X81400000Y-64900000D02*
X81400000Y-80700000D01*
X84600000Y-61300000D02*
X84600000Y-61700000D01*
X83500000Y-82800000D02*
X91100000Y-82800000D01*
X81400000Y-80700000D02*
X83500000Y-82800000D01*
D19*
%TO.N,Net-(J6-Pin_5)*%
X191500000Y-78000000D02*
X192200000Y-78700000D01*
X140480000Y-61300000D02*
X140480000Y-64480000D01*
X192200000Y-78700000D02*
X192200000Y-79800000D01*
X154000000Y-78000000D02*
X191500000Y-78000000D01*
X140480000Y-64480000D02*
X154000000Y-78000000D01*
%TO.N,Net-(J6-Pin_4)*%
X140935635Y-60200000D02*
X141580000Y-60844365D01*
X193960000Y-82340000D02*
X192200000Y-82340000D01*
X194900000Y-80000000D02*
X194900000Y-81400000D01*
X192500000Y-77600000D02*
X194900000Y-80000000D01*
X154300000Y-77600000D02*
X192500000Y-77600000D01*
X141580000Y-64880000D02*
X154300000Y-77600000D01*
X137940000Y-61300000D02*
X139040000Y-60200000D01*
X139040000Y-60200000D02*
X140935635Y-60200000D01*
X194900000Y-81400000D02*
X193960000Y-82340000D01*
X141580000Y-60844365D02*
X141580000Y-64880000D01*
D20*
%TO.N,Net-(U10-~E)*%
X190400000Y-52700000D02*
X164000000Y-52700000D01*
X197300000Y-59600000D02*
X190400000Y-52700000D01*
X164000000Y-52700000D02*
X163900000Y-52700000D01*
%TO.N,Net-(J9-Pin_14)*%
X81760000Y-32920000D02*
X81760000Y-41560000D01*
D19*
%TO.N,Net-(J9-Pin_1)*%
X187000000Y-42600000D02*
X187040000Y-42640000D01*
X187040000Y-33240000D02*
X187180000Y-33100000D01*
X187000000Y-42600000D02*
X187040000Y-42560000D01*
D20*
X187040000Y-42560000D02*
X187040000Y-33240000D01*
D19*
X187040000Y-42640000D02*
X187040000Y-42760000D01*
D20*
%TO.N,Net-(J9-Pin_13)*%
X89800000Y-32980000D02*
X89800000Y-41620000D01*
%TO.N,Net-(J9-Pin_11)*%
X106200000Y-32910000D02*
X106200000Y-41550000D01*
%TO.N,Net-(J9-Pin_5)*%
X154660000Y-33200000D02*
X154660000Y-41840000D01*
%TO.N,Net-(J9-Pin_15)*%
X73800000Y-32980000D02*
X73800000Y-41620000D01*
%TO.N,Net-(J9-Pin_7)*%
X138660000Y-33200000D02*
X138660000Y-41840000D01*
%TO.N,Net-(J9-Pin_6)*%
X146620000Y-33140000D02*
X146620000Y-41780000D01*
%TO.N,Net-(J9-Pin_10)*%
X114160000Y-32850000D02*
X114160000Y-41490000D01*
%TO.N,Net-(J9-Pin_16)*%
X65760000Y-32920000D02*
X65760000Y-41560000D01*
D19*
%TO.N,Net-(J9-Pin_2)*%
X179000000Y-33180000D02*
X179080000Y-33100000D01*
D20*
X179000000Y-42700000D02*
X179000000Y-33180000D01*
%TO.N,Net-(J9-Pin_12)*%
X98160000Y-32850000D02*
X98160000Y-41490000D01*
D19*
%TO.N,Net-(J9-Pin_3)*%
X171000000Y-42700000D02*
X171040000Y-42740000D01*
X171040000Y-33040000D02*
X171080000Y-33000000D01*
X171040000Y-42740000D02*
X171040000Y-42760000D01*
D20*
X171040000Y-42660000D02*
X171040000Y-33040000D01*
D19*
X171000000Y-42700000D02*
X171040000Y-42660000D01*
D20*
%TO.N,Net-(J9-Pin_9)*%
X122200000Y-32910000D02*
X122200000Y-41550000D01*
%TO.N,Net-(J9-Pin_8)*%
X130620000Y-33140000D02*
X130620000Y-41780000D01*
D19*
%TO.N,Net-(J9-Pin_4)*%
X163000000Y-33280000D02*
X163080000Y-33200000D01*
X163000000Y-42600000D02*
X163000000Y-42700000D01*
D20*
X163000000Y-42600000D02*
X163000000Y-33280000D01*
%TD*%
M02*
