M48
; DRILL file {KiCad 8.0.3-1.fc40} date 2024-07-09T23:55:10-0400
; FORMAT={-:-/ absolute / metric / decimal}
; #@! TF.CreationDate,2024-07-09T23:55:10-04:00
; #@! TF.GenerationSoftware,Kicad,Pcbnew,8.0.3-1.fc40
; #@! TF.FileFunction,Plated,1,4,PTH
FMAT,2
METRIC
; #@! TA.AperFunction,Plated,PTH,ViaDrill
T1C0.300
; #@! TA.AperFunction,Plated,PTH,ComponentDrill
T2C0.762
; #@! TA.AperFunction,Plated,PTH,ComponentDrill
T3C0.800
; #@! TA.AperFunction,Plated,PTH,ComponentDrill
T4C1.100
; #@! TA.AperFunction,Plated,PTH,ComponentDrill
T5C1.143
%
G90
G05
T1
X64.5Y-33.1
X64.6Y-37.6
X65.75Y-33.25
X65.8Y-41.62
X66.9Y-35.7
X67.0Y-33.1
X68.6Y-51.1
X69.3Y-37.6
X71.0Y-42.9
X72.2Y-38.7
X72.4Y-33.0
X73.7Y-33.1
X73.8Y-41.72
X74.9Y-33.0
X75.0Y-35.7
X75.2Y-55.7
X77.2Y-37.6
X80.1Y-38.7
X80.4Y-33.1
X81.7Y-33.1
X81.8Y-41.72
X83.0Y-33.1
X83.0Y-35.7
X85.3Y-37.6
X88.1Y-38.7
X88.5Y-33.1
X89.8Y-33.1
X89.8Y-41.62
X90.9Y-35.7
X91.1Y-33.1
X92.1Y-81.8
X93.3Y-37.6
X94.0Y-51.5
X96.5Y-38.7
X96.7Y-52.4
X96.9Y-33.1
X98.1Y-33.1
X98.106Y-52.6
X98.2Y-41.45
X98.6Y-50.5
X99.2Y-35.7
X99.379Y-52.6
X99.5Y-33.1
X100.652Y-52.6
X101.5Y-37.6
X101.925Y-52.6
X103.197Y-52.6
X104.47Y-52.6
X104.6Y-38.7
X104.8Y-32.9
X106.1Y-33.0
X106.2Y-41.55
X106.459Y-52.679
X107.4Y-33.0
X107.4Y-35.7
X109.7Y-37.6
X112.7Y-38.7
X113.0Y-32.9
X114.2Y-41.55
X114.28Y-32.88
X115.4Y-35.7
X115.6Y-32.8
X117.7Y-37.6
X120.6Y-38.7
X120.9Y-33.2
X122.2Y-33.1
X122.2Y-41.45
X123.3Y-35.7
X123.5Y-33.1
X125.24Y-54.2
X125.24Y-56.4
X125.7Y-37.6
X129.2Y-38.7
X129.4Y-33.23
X130.66Y-41.64
X130.7Y-33.23
X131.75Y-35.78
X132.0Y-33.2
X134.2Y-37.6
X137.1Y-38.7
X137.3Y-33.13
X138.6Y-33.13
X138.66Y-41.74
X139.8Y-35.78
X139.9Y-33.2
X142.2Y-37.6
X145.1Y-44.4
X145.2Y-38.7
X145.4Y-33.2
X146.6Y-33.13
X146.66Y-41.74
X147.6Y-72.2
X147.75Y-35.78
X147.9Y-33.2
X148.7Y-71.2
X150.2Y-37.6
X152.5Y-43.9
X153.2Y-38.7
X153.4Y-33.2
X154.6Y-33.23
X154.66Y-41.64
X155.85Y-35.78
X155.9Y-33.3
X157.6Y-77.6
X158.3Y-37.6
X159.9Y-43.3
X160.5Y-75.3
X161.7Y-38.7
X161.88Y-33.1
X163.0Y-42.6
X163.08Y-33.2
X164.28Y-35.7
X164.4Y-33.2
X165.07Y-75.33
X166.7Y-37.5
X167.7Y-43.0
X169.6Y-38.7
X169.74Y-75.365
X169.78Y-33.1
X171.0Y-42.7
X171.08Y-33.0
X172.28Y-35.7
X172.38Y-33.0
X174.5Y-75.4
X174.6Y-37.6
X175.0Y-42.5
X177.5Y-38.7
X177.88Y-33.1
X178.3Y-62.2
X179.0Y-42.7
X179.08Y-33.1
X179.2Y-75.4
X179.6Y-60.4
X179.6Y-69.7
X180.28Y-35.7
X180.5Y-33.1
X182.1Y-60.4
X182.1Y-69.7
X182.6Y-37.6
X183.2Y-41.7
X183.8Y-75.5
X184.7Y-60.4
X184.7Y-69.7
X185.5Y-38.7
X185.88Y-33.1
X187.0Y-42.6
X187.18Y-33.1
X187.2Y-60.4
X187.2Y-69.7
X188.28Y-35.7
X188.3Y-75.4
X188.4Y-33.2
X188.5Y-69.6
X189.75Y-60.4
X190.7Y-37.6
X193.0Y-56.9
X193.0Y-58.0
X193.0Y-59.2
X193.0Y-60.4
X193.4Y-29.2
X193.5Y-67.2
X196.8Y-42.8
X196.8Y-76.7
X196.9Y-34.7
X197.6Y-59.0
X198.1Y-44.0
X198.5Y-78.2
X199.5Y-45.1
X201.3Y-45.9
X202.0Y-29.8
X204.8Y-67.6
T2
X206.56Y-27.98
X206.56Y-30.52
X206.56Y-33.06
X206.56Y-35.6
X206.56Y-38.14
X206.56Y-40.68
X206.56Y-43.22
X206.56Y-45.76
X206.56Y-48.3
X206.56Y-50.84
X206.56Y-53.38
X206.56Y-55.92
X206.56Y-58.46
X206.56Y-61.0
X206.56Y-63.54
X206.56Y-66.08
X206.56Y-68.62
X209.1Y-27.98
X209.1Y-30.52
X209.1Y-33.06
X209.1Y-35.6
X209.1Y-38.14
X209.1Y-40.68
X209.1Y-43.22
X209.1Y-45.76
X209.1Y-48.3
X209.1Y-50.84
X209.1Y-53.38
X209.1Y-55.92
X209.1Y-58.46
X209.1Y-61.0
X209.1Y-63.54
X209.1Y-66.08
X209.1Y-68.62
T3
X85.33Y-67.65
X85.33Y-70.19
X97.57Y-63.738
X97.57Y-65.738
X97.57Y-67.738
X99.57Y-63.738
X99.57Y-65.738
X99.57Y-67.738
T4
X84.6Y-61.3
X84.6Y-76.54
X87.14Y-61.3
X87.14Y-76.54
X87.14Y-63.84
X89.68Y-61.3
X89.68Y-76.54
X90.899Y-73.489
X92.22Y-61.3
X92.22Y-76.54
X93.439Y-73.489
X94.76Y-61.3
X94.76Y-76.54
X95.979Y-73.489
X97.3Y-61.3
X97.3Y-76.54
X98.519Y-73.489
X99.84Y-61.3
X99.84Y-76.54
X101.059Y-73.489
X102.38Y-61.3
X102.38Y-76.54
X104.92Y-61.3
X104.92Y-76.54
X107.46Y-61.3
X107.46Y-76.54
X110.0Y-61.3
X110.0Y-76.54
X112.54Y-61.3
X112.54Y-76.54
X115.08Y-61.3
X115.08Y-76.54
X117.62Y-61.3
X117.62Y-76.54
X120.16Y-61.3
X120.16Y-76.54
X122.7Y-61.3
X122.7Y-76.54
X125.24Y-61.3
X125.24Y-76.54
X127.78Y-61.3
X127.78Y-76.54
X130.32Y-61.3
X130.32Y-63.84
X130.32Y-66.38
X130.32Y-68.92
X130.32Y-71.46
X130.32Y-74.0
X130.32Y-76.54
X132.86Y-61.3
X132.86Y-76.54
X135.4Y-61.3
X135.4Y-76.54
X137.94Y-61.3
X137.94Y-76.54
X140.48Y-61.3
X140.48Y-76.54
X143.02Y-61.3
X143.02Y-76.54
T5
X71.5Y-62.36
X71.5Y-64.9
X71.5Y-67.44
X71.5Y-69.98
X71.56Y-74.58
X71.56Y-77.12
X71.56Y-79.66
X71.56Y-82.2
X73.12Y-25.4
X73.12Y-27.94
X74.04Y-62.36
X74.04Y-64.9
X74.04Y-67.44
X74.04Y-69.98
X74.1Y-74.58
X74.1Y-77.12
X74.1Y-79.66
X74.1Y-82.2
X75.66Y-25.4
X75.66Y-27.94
X78.2Y-25.4
X78.2Y-27.94
X80.74Y-25.4
X80.74Y-27.94
X105.42Y-25.26
X105.42Y-27.8
X107.96Y-25.26
X107.96Y-27.8
X110.5Y-25.26
X110.5Y-27.8
X113.04Y-25.26
X113.04Y-27.8
X138.08Y-25.49
X138.08Y-28.03
X140.62Y-25.49
X140.62Y-28.03
X143.16Y-25.49
X143.16Y-28.03
X145.7Y-25.49
X145.7Y-28.03
X170.46Y-25.36
X170.46Y-27.9
X173.0Y-25.36
X173.0Y-27.9
X175.54Y-25.36
X175.54Y-27.9
X178.08Y-25.36
X178.08Y-27.9
X184.58Y-79.8
X184.58Y-82.34
X187.12Y-79.8
X187.12Y-82.34
X189.66Y-79.8
X189.66Y-82.34
X192.2Y-79.8
X192.2Y-82.34
M30
