%TF.GenerationSoftware,KiCad,Pcbnew,8.0.3-1.fc40*%
%TF.CreationDate,2024-07-04T16:01:12-04:00*%
%TF.ProjectId,boards_v3,626f6172-6473-45f7-9633-2e6b69636164,rev?*%
%TF.SameCoordinates,Original*%
%TF.FileFunction,Drillmap*%
%TF.FilePolarity,Positive*%
%FSLAX45Y45*%
G04 Gerber Fmt 4.5, Leading zero omitted, Abs format (unit mm)*
G04 Created by KiCad (PCBNEW 8.0.3-1.fc40) date 2024-07-04 16:01:12*
%MOMM*%
%LPD*%
G01*
G04 APERTURE LIST*
%ADD10C,0.050000*%
%ADD11C,0.200000*%
%ADD12C,0.100000*%
%ADD13C,0.110000*%
%ADD14C,0.114300*%
G04 APERTURE END LIST*
D10*
X20100000Y-2600000D02*
G75*
G02*
X19900000Y-2600000I-100000J0D01*
G01*
X19900000Y-2600000D02*
G75*
G02*
X20100000Y-2600000I100000J0D01*
G01*
X15510000Y-6500000D02*
G75*
G02*
X15310000Y-6500000I-100000J0D01*
G01*
X15310000Y-6500000D02*
G75*
G02*
X15510000Y-6500000I100000J0D01*
G01*
X12100000Y-5400000D02*
G75*
G02*
X11900000Y-5400000I-100000J0D01*
G01*
X11900000Y-5400000D02*
G75*
G02*
X12100000Y-5400000I100000J0D01*
G01*
X7400000Y-6700000D02*
G75*
G02*
X7200000Y-6700000I-100000J0D01*
G01*
X7200000Y-6700000D02*
G75*
G02*
X7400000Y-6700000I100000J0D01*
G01*
X9100000Y-2600000D02*
G75*
G02*
X8900000Y-2600000I-100000J0D01*
G01*
X8900000Y-2600000D02*
G75*
G02*
X9100000Y-2600000I100000J0D01*
G01*
X12200000Y-2610000D02*
G75*
G02*
X12000000Y-2610000I-100000J0D01*
G01*
X12000000Y-2610000D02*
G75*
G02*
X12200000Y-2610000I100000J0D01*
G01*
X15700000Y-2600000D02*
G75*
G02*
X15500000Y-2600000I-100000J0D01*
G01*
X15500000Y-2600000D02*
G75*
G02*
X15700000Y-2600000I100000J0D01*
G01*
X19700000Y-5400000D02*
G75*
G02*
X19500000Y-5400000I-100000J0D01*
G01*
X19500000Y-5400000D02*
G75*
G02*
X19700000Y-5400000I100000J0D01*
G01*
X21180000Y-2510000D02*
X21180000Y-8820000D01*
X20998153Y-9001847D01*
X18380000Y-9000000D01*
X17900000Y-8500000D01*
X8470604Y-8495614D01*
X6900000Y-6841668D01*
X6900000Y-5500000D01*
X6900000Y-4680000D01*
X6010000Y-3790000D01*
X6010000Y-2790000D01*
X6610000Y-2190000D01*
X20860000Y-2190000D01*
X21180000Y-2510000D01*
D11*
D12*
X6435000Y-3295000D02*
X6465000Y-3325000D01*
X6465000Y-3295000D02*
X6435000Y-3325000D01*
X6555000Y-3295000D02*
X6585000Y-3325000D01*
X6585000Y-3295000D02*
X6555000Y-3325000D01*
X6565000Y-4147000D02*
X6595000Y-4177000D01*
X6595000Y-4147000D02*
X6565000Y-4177000D01*
X6675000Y-3555000D02*
X6705000Y-3585000D01*
X6705000Y-3555000D02*
X6675000Y-3585000D01*
X6675000Y-3745000D02*
X6705000Y-3775000D01*
X6705000Y-3745000D02*
X6675000Y-3775000D01*
X6855000Y-4017000D02*
X6885000Y-4047000D01*
X6885000Y-4017000D02*
X6855000Y-4047000D01*
X7225000Y-3285000D02*
X7255000Y-3315000D01*
X7255000Y-3285000D02*
X7225000Y-3315000D01*
X7355000Y-3295000D02*
X7385000Y-3325000D01*
X7385000Y-3295000D02*
X7355000Y-3325000D01*
X7365000Y-4157000D02*
X7395000Y-4187000D01*
X7395000Y-4157000D02*
X7365000Y-4187000D01*
X7485000Y-3555000D02*
X7515000Y-3585000D01*
X7515000Y-3555000D02*
X7485000Y-3585000D01*
X7485000Y-3745000D02*
X7515000Y-3775000D01*
X7515000Y-3745000D02*
X7485000Y-3775000D01*
X7635000Y-4017000D02*
X7665000Y-4047000D01*
X7665000Y-4017000D02*
X7635000Y-4047000D01*
X8025000Y-3295000D02*
X8055000Y-3325000D01*
X8055000Y-3295000D02*
X8025000Y-3325000D01*
X8155000Y-3295000D02*
X8185000Y-3325000D01*
X8185000Y-3295000D02*
X8155000Y-3325000D01*
X8165000Y-4157000D02*
X8195000Y-4187000D01*
X8195000Y-4157000D02*
X8165000Y-4187000D01*
X8275000Y-3745000D02*
X8305000Y-3775000D01*
X8305000Y-3745000D02*
X8275000Y-3775000D01*
X8285000Y-3555000D02*
X8315000Y-3585000D01*
X8315000Y-3555000D02*
X8285000Y-3585000D01*
X8455000Y-3997000D02*
X8485000Y-4027000D01*
X8485000Y-3997000D02*
X8455000Y-4027000D01*
X8835000Y-3295000D02*
X8865000Y-3325000D01*
X8865000Y-3295000D02*
X8835000Y-3325000D01*
X8965000Y-3295000D02*
X8995000Y-3325000D01*
X8995000Y-3295000D02*
X8965000Y-3325000D01*
X8965000Y-4147000D02*
X8995000Y-4177000D01*
X8995000Y-4147000D02*
X8965000Y-4177000D01*
X9075000Y-3555000D02*
X9105000Y-3585000D01*
X9105000Y-3555000D02*
X9075000Y-3585000D01*
X9075000Y-3745000D02*
X9105000Y-3775000D01*
X9105000Y-3745000D02*
X9075000Y-3775000D01*
X9195000Y-5505000D02*
X9225000Y-5535000D01*
X9225000Y-5505000D02*
X9195000Y-5535000D01*
X9245000Y-4007000D02*
X9275000Y-4037000D01*
X9275000Y-4007000D02*
X9245000Y-4037000D01*
X9455000Y-5545000D02*
X9485000Y-5575000D01*
X9485000Y-5545000D02*
X9455000Y-5575000D01*
X9675000Y-3295000D02*
X9705000Y-3325000D01*
X9705000Y-3295000D02*
X9675000Y-3325000D01*
X9715000Y-5585000D02*
X9745000Y-5615000D01*
X9745000Y-5585000D02*
X9715000Y-5615000D01*
X9795000Y-3295000D02*
X9825000Y-3325000D01*
X9825000Y-3295000D02*
X9795000Y-3325000D01*
X9805000Y-4130000D02*
X9835000Y-4160000D01*
X9835000Y-4130000D02*
X9805000Y-4160000D01*
X9905000Y-3555000D02*
X9935000Y-3585000D01*
X9935000Y-3555000D02*
X9905000Y-3585000D01*
X9925000Y-3745000D02*
X9955000Y-3775000D01*
X9955000Y-3745000D02*
X9925000Y-3775000D01*
X9965000Y-5625000D02*
X9995000Y-5655000D01*
X9995000Y-5625000D02*
X9965000Y-5655000D01*
X10095000Y-4020000D02*
X10125000Y-4050000D01*
X10125000Y-4020000D02*
X10095000Y-4050000D01*
X10215000Y-5665000D02*
X10245000Y-5695000D01*
X10245000Y-5665000D02*
X10215000Y-5695000D01*
X10465000Y-3275000D02*
X10495000Y-3305000D01*
X10495000Y-3275000D02*
X10465000Y-3305000D01*
X10475000Y-5705000D02*
X10505000Y-5735000D01*
X10505000Y-5705000D02*
X10475000Y-5735000D01*
X10595000Y-3285000D02*
X10625000Y-3315000D01*
X10625000Y-3285000D02*
X10595000Y-3315000D01*
X10605000Y-4140000D02*
X10635000Y-4170000D01*
X10635000Y-4140000D02*
X10605000Y-4170000D01*
X10725000Y-3555000D02*
X10755000Y-3585000D01*
X10755000Y-3555000D02*
X10725000Y-3585000D01*
X10725000Y-3745000D02*
X10755000Y-3775000D01*
X10755000Y-3745000D02*
X10725000Y-3775000D01*
X10725000Y-5745000D02*
X10755000Y-5775000D01*
X10755000Y-5745000D02*
X10725000Y-5775000D01*
X10875000Y-4020000D02*
X10905000Y-4050000D01*
X10905000Y-4020000D02*
X10875000Y-4050000D01*
X10975000Y-5785000D02*
X11005000Y-5815000D01*
X11005000Y-5785000D02*
X10975000Y-5815000D01*
X11225000Y-5825000D02*
X11255000Y-5855000D01*
X11255000Y-5825000D02*
X11225000Y-5855000D01*
X11285000Y-3275000D02*
X11315000Y-3305000D01*
X11315000Y-3275000D02*
X11285000Y-3305000D01*
X11405000Y-4140000D02*
X11435000Y-4170000D01*
X11435000Y-4140000D02*
X11405000Y-4170000D01*
X11413000Y-3273000D02*
X11443000Y-3303000D01*
X11443000Y-3273000D02*
X11413000Y-3303000D01*
X11495000Y-5885000D02*
X11525000Y-5915000D01*
X11525000Y-5885000D02*
X11495000Y-5915000D01*
X11525000Y-3555000D02*
X11555000Y-3585000D01*
X11555000Y-3555000D02*
X11525000Y-3585000D01*
X11525000Y-3745000D02*
X11555000Y-3775000D01*
X11555000Y-3745000D02*
X11525000Y-3775000D01*
X11685000Y-4000000D02*
X11715000Y-4030000D01*
X11715000Y-4000000D02*
X11685000Y-4030000D01*
X12075000Y-3305000D02*
X12105000Y-3335000D01*
X12105000Y-3305000D02*
X12075000Y-3335000D01*
X12205000Y-3295000D02*
X12235000Y-3325000D01*
X12235000Y-3295000D02*
X12205000Y-3325000D01*
X12205000Y-4130000D02*
X12235000Y-4160000D01*
X12235000Y-4130000D02*
X12205000Y-4160000D01*
X12315000Y-3555000D02*
X12345000Y-3585000D01*
X12345000Y-3555000D02*
X12315000Y-3585000D01*
X12315000Y-3745000D02*
X12345000Y-3775000D01*
X12345000Y-3745000D02*
X12315000Y-3775000D01*
X12485000Y-4000000D02*
X12515000Y-4030000D01*
X12515000Y-4000000D02*
X12485000Y-4030000D01*
X12925000Y-3308000D02*
X12955000Y-3338000D01*
X12955000Y-3308000D02*
X12925000Y-3338000D01*
X13045000Y-5315000D02*
X13075000Y-5345000D01*
X13075000Y-5315000D02*
X13045000Y-5345000D01*
X13051000Y-4149000D02*
X13081000Y-4179000D01*
X13081000Y-4149000D02*
X13051000Y-4179000D01*
X13055000Y-3308000D02*
X13085000Y-3338000D01*
X13085000Y-3308000D02*
X13055000Y-3338000D01*
X13165000Y-3568000D02*
X13195000Y-3598000D01*
X13195000Y-3568000D02*
X13165000Y-3598000D01*
X13165000Y-3758000D02*
X13195000Y-3788000D01*
X13195000Y-3758000D02*
X13165000Y-3788000D01*
X13341000Y-4019000D02*
X13371000Y-4049000D01*
X13371000Y-4019000D02*
X13341000Y-4049000D01*
X13715000Y-3298000D02*
X13745000Y-3328000D01*
X13745000Y-3298000D02*
X13715000Y-3328000D01*
X13845000Y-3298000D02*
X13875000Y-3328000D01*
X13875000Y-3298000D02*
X13845000Y-3328000D01*
X13851000Y-4159000D02*
X13881000Y-4189000D01*
X13881000Y-4159000D02*
X13851000Y-4189000D01*
X13965000Y-3568000D02*
X13995000Y-3598000D01*
X13995000Y-3568000D02*
X13965000Y-3598000D01*
X13965000Y-3758000D02*
X13995000Y-3788000D01*
X13995000Y-3758000D02*
X13965000Y-3788000D01*
X14131000Y-4019000D02*
X14161000Y-4049000D01*
X14161000Y-4019000D02*
X14131000Y-4049000D01*
X14525000Y-3305000D02*
X14555000Y-3335000D01*
X14555000Y-3305000D02*
X14525000Y-3335000D01*
X14645000Y-3298000D02*
X14675000Y-3328000D01*
X14675000Y-3298000D02*
X14645000Y-3328000D01*
X14651000Y-4159000D02*
X14681000Y-4189000D01*
X14681000Y-4159000D02*
X14651000Y-4189000D01*
X14765000Y-3568000D02*
X14795000Y-3598000D01*
X14795000Y-3568000D02*
X14765000Y-3598000D01*
X14765000Y-3758000D02*
X14795000Y-3788000D01*
X14795000Y-3758000D02*
X14765000Y-3788000D01*
X14941000Y-4019000D02*
X14971000Y-4049000D01*
X14971000Y-4019000D02*
X14941000Y-4049000D01*
X15325000Y-3305000D02*
X15355000Y-3335000D01*
X15355000Y-3305000D02*
X15325000Y-3335000D01*
X15445000Y-3308000D02*
X15475000Y-3338000D01*
X15475000Y-3308000D02*
X15445000Y-3338000D01*
X15451000Y-4149000D02*
X15481000Y-4179000D01*
X15481000Y-4149000D02*
X15451000Y-4179000D01*
X15565000Y-3568000D02*
X15595000Y-3598000D01*
X15595000Y-3568000D02*
X15565000Y-3598000D01*
X15575000Y-3758000D02*
X15605000Y-3788000D01*
X15605000Y-3758000D02*
X15575000Y-3788000D01*
X15575000Y-7525000D02*
X15605000Y-7555000D01*
X15605000Y-7525000D02*
X15575000Y-7555000D01*
X15741000Y-4019000D02*
X15771000Y-4049000D01*
X15771000Y-4019000D02*
X15741000Y-4049000D01*
X16035000Y-7515000D02*
X16065000Y-7545000D01*
X16065000Y-7515000D02*
X16035000Y-7545000D01*
X16173000Y-3295000D02*
X16203000Y-3325000D01*
X16203000Y-3295000D02*
X16173000Y-3325000D01*
X16285000Y-4245000D02*
X16315000Y-4275000D01*
X16315000Y-4245000D02*
X16285000Y-4275000D01*
X16293000Y-3305000D02*
X16323000Y-3335000D01*
X16323000Y-3305000D02*
X16293000Y-3335000D01*
X16413000Y-3555000D02*
X16443000Y-3585000D01*
X16443000Y-3555000D02*
X16413000Y-3585000D01*
X16413000Y-3745000D02*
X16443000Y-3775000D01*
X16443000Y-3745000D02*
X16413000Y-3775000D01*
X16515000Y-7525000D02*
X16545000Y-7555000D01*
X16545000Y-7525000D02*
X16515000Y-7555000D01*
X16593000Y-4015000D02*
X16623000Y-4045000D01*
X16623000Y-4015000D02*
X16593000Y-4045000D01*
X16963000Y-3295000D02*
X16993000Y-3325000D01*
X16993000Y-3295000D02*
X16963000Y-3325000D01*
X16975000Y-7535000D02*
X17005000Y-7565000D01*
X17005000Y-7535000D02*
X16975000Y-7565000D01*
X17085000Y-4255000D02*
X17115000Y-4285000D01*
X17115000Y-4255000D02*
X17085000Y-4285000D01*
X17093000Y-3285000D02*
X17123000Y-3315000D01*
X17123000Y-3285000D02*
X17093000Y-3315000D01*
X17213000Y-3555000D02*
X17243000Y-3585000D01*
X17243000Y-3555000D02*
X17213000Y-3585000D01*
X17213000Y-3745000D02*
X17243000Y-3775000D01*
X17243000Y-3745000D02*
X17213000Y-3775000D01*
X17383000Y-4015000D02*
X17413000Y-4045000D01*
X17413000Y-4015000D02*
X17383000Y-4045000D01*
X17435000Y-7525000D02*
X17465000Y-7555000D01*
X17465000Y-7525000D02*
X17435000Y-7555000D01*
X17773000Y-3295000D02*
X17803000Y-3325000D01*
X17803000Y-3295000D02*
X17773000Y-3325000D01*
X17815000Y-6205000D02*
X17845000Y-6235000D01*
X17845000Y-6205000D02*
X17815000Y-6235000D01*
X17885000Y-4255000D02*
X17915000Y-4285000D01*
X17915000Y-4255000D02*
X17885000Y-4285000D01*
X17893000Y-3295000D02*
X17923000Y-3325000D01*
X17923000Y-3295000D02*
X17893000Y-3325000D01*
X17905000Y-7525000D02*
X17935000Y-7555000D01*
X17935000Y-7525000D02*
X17905000Y-7555000D01*
X17945000Y-6025000D02*
X17975000Y-6055000D01*
X17975000Y-6025000D02*
X17945000Y-6055000D01*
X17945000Y-6955000D02*
X17975000Y-6985000D01*
X17975000Y-6955000D02*
X17945000Y-6985000D01*
X18013000Y-3555000D02*
X18043000Y-3585000D01*
X18043000Y-3555000D02*
X18013000Y-3585000D01*
X18013000Y-3745000D02*
X18043000Y-3775000D01*
X18043000Y-3745000D02*
X18013000Y-3775000D01*
X18193000Y-4015000D02*
X18223000Y-4045000D01*
X18223000Y-4015000D02*
X18193000Y-4045000D01*
X18195000Y-6025000D02*
X18225000Y-6055000D01*
X18225000Y-6025000D02*
X18195000Y-6055000D01*
X18195000Y-6955000D02*
X18225000Y-6985000D01*
X18225000Y-6955000D02*
X18195000Y-6985000D01*
X18365000Y-7535000D02*
X18395000Y-7565000D01*
X18395000Y-7535000D02*
X18365000Y-7565000D01*
X18455000Y-6025000D02*
X18485000Y-6055000D01*
X18485000Y-6025000D02*
X18455000Y-6055000D01*
X18455000Y-6955000D02*
X18485000Y-6985000D01*
X18485000Y-6955000D02*
X18455000Y-6985000D01*
X18573000Y-3295000D02*
X18603000Y-3325000D01*
X18603000Y-3295000D02*
X18573000Y-3325000D01*
X18685000Y-4245000D02*
X18715000Y-4275000D01*
X18715000Y-4245000D02*
X18685000Y-4275000D01*
X18703000Y-3295000D02*
X18733000Y-3325000D01*
X18733000Y-3295000D02*
X18703000Y-3325000D01*
X18705000Y-6025000D02*
X18735000Y-6055000D01*
X18735000Y-6025000D02*
X18705000Y-6055000D01*
X18705000Y-6955000D02*
X18735000Y-6985000D01*
X18735000Y-6955000D02*
X18705000Y-6985000D01*
X18813000Y-3555000D02*
X18843000Y-3585000D01*
X18843000Y-3555000D02*
X18813000Y-3585000D01*
X18813000Y-3745000D02*
X18843000Y-3775000D01*
X18843000Y-3745000D02*
X18813000Y-3775000D01*
X18825000Y-7525000D02*
X18855000Y-7555000D01*
X18855000Y-7525000D02*
X18825000Y-7555000D01*
X18835000Y-6945000D02*
X18865000Y-6975000D01*
X18865000Y-6945000D02*
X18835000Y-6975000D01*
X18965000Y-6025000D02*
X18995000Y-6055000D01*
X18995000Y-6025000D02*
X18965000Y-6055000D01*
X18993000Y-4015000D02*
X19023000Y-4045000D01*
X19023000Y-4015000D02*
X18993000Y-4045000D01*
X19805000Y-7355000D02*
X19835000Y-7385000D01*
X19835000Y-7355000D02*
X19805000Y-7385000D01*
X20035000Y-7325000D02*
X20065000Y-7355000D01*
X20065000Y-7325000D02*
X20035000Y-7355000D01*
X20195000Y-7265000D02*
X20225000Y-7295000D01*
X20225000Y-7265000D02*
X20195000Y-7295000D01*
X20335000Y-7165000D02*
X20365000Y-7195000D01*
X20365000Y-7165000D02*
X20335000Y-7195000D01*
X20775000Y-3055000D02*
X20805000Y-3085000D01*
X20805000Y-3055000D02*
X20775000Y-3085000D01*
X20775000Y-3255000D02*
X20805000Y-3285000D01*
X20805000Y-3255000D02*
X20775000Y-3285000D01*
X20775000Y-3455000D02*
X20805000Y-3485000D01*
X20805000Y-3455000D02*
X20775000Y-3485000D01*
X20785000Y-8255000D02*
X20815000Y-8285000D01*
X20815000Y-8255000D02*
X20785000Y-8285000D01*
X20785000Y-8455000D02*
X20815000Y-8485000D01*
X20815000Y-8455000D02*
X20785000Y-8485000D01*
X20785000Y-8855000D02*
X20815000Y-8885000D01*
X20815000Y-8855000D02*
X20785000Y-8885000D01*
X20795000Y-3645000D02*
X20825000Y-3675000D01*
X20825000Y-3645000D02*
X20795000Y-3675000D01*
X8573000Y-6765000D02*
G75*
G02*
X8493000Y-6765000I-40000J0D01*
G01*
X8493000Y-6765000D02*
G75*
G02*
X8573000Y-6765000I40000J0D01*
G01*
X8573000Y-7019000D02*
G75*
G02*
X8493000Y-7019000I-40000J0D01*
G01*
X8493000Y-7019000D02*
G75*
G02*
X8573000Y-7019000I40000J0D01*
G01*
X9797000Y-6373840D02*
G75*
G02*
X9717000Y-6373840I-40000J0D01*
G01*
X9717000Y-6373840D02*
G75*
G02*
X9797000Y-6373840I40000J0D01*
G01*
X9797000Y-6573840D02*
G75*
G02*
X9717000Y-6573840I-40000J0D01*
G01*
X9717000Y-6573840D02*
G75*
G02*
X9797000Y-6573840I40000J0D01*
G01*
X9797000Y-6773840D02*
G75*
G02*
X9717000Y-6773840I-40000J0D01*
G01*
X9717000Y-6773840D02*
G75*
G02*
X9797000Y-6773840I40000J0D01*
G01*
X9997000Y-6373840D02*
G75*
G02*
X9917000Y-6373840I-40000J0D01*
G01*
X9917000Y-6373840D02*
G75*
G02*
X9997000Y-6373840I40000J0D01*
G01*
X9997000Y-6573840D02*
G75*
G02*
X9917000Y-6573840I-40000J0D01*
G01*
X9917000Y-6573840D02*
G75*
G02*
X9997000Y-6573840I40000J0D01*
G01*
X9997000Y-6773840D02*
G75*
G02*
X9917000Y-6773840I-40000J0D01*
G01*
X9917000Y-6773840D02*
G75*
G02*
X9997000Y-6773840I40000J0D01*
G01*
D13*
X8460000Y-6075000D02*
X8460000Y-6185000D01*
X8405000Y-6130000D02*
X8515000Y-6130000D01*
X8460000Y-7599000D02*
X8460000Y-7709000D01*
X8405000Y-7654000D02*
X8515000Y-7654000D01*
X8714000Y-6075000D02*
X8714000Y-6185000D01*
X8659000Y-6130000D02*
X8769000Y-6130000D01*
X8714000Y-7599000D02*
X8714000Y-7709000D01*
X8659000Y-7654000D02*
X8769000Y-7654000D01*
X8714000Y-6329000D02*
X8714000Y-6439000D01*
X8659000Y-6384000D02*
X8769000Y-6384000D01*
X8968000Y-6075000D02*
X8968000Y-6185000D01*
X8913000Y-6130000D02*
X9023000Y-6130000D01*
X8968000Y-7599000D02*
X8968000Y-7709000D01*
X8913000Y-7654000D02*
X9023000Y-7654000D01*
X9089920Y-7293920D02*
X9089920Y-7403920D01*
X9034920Y-7348920D02*
X9144920Y-7348920D01*
X9222000Y-6075000D02*
X9222000Y-6185000D01*
X9167000Y-6130000D02*
X9277000Y-6130000D01*
X9222000Y-7599000D02*
X9222000Y-7709000D01*
X9167000Y-7654000D02*
X9277000Y-7654000D01*
X9343920Y-7293920D02*
X9343920Y-7403920D01*
X9288920Y-7348920D02*
X9398920Y-7348920D01*
X9476000Y-6075000D02*
X9476000Y-6185000D01*
X9421000Y-6130000D02*
X9531000Y-6130000D01*
X9476000Y-7599000D02*
X9476000Y-7709000D01*
X9421000Y-7654000D02*
X9531000Y-7654000D01*
X9597920Y-7293920D02*
X9597920Y-7403920D01*
X9542920Y-7348920D02*
X9652920Y-7348920D01*
X9730000Y-6075000D02*
X9730000Y-6185000D01*
X9675000Y-6130000D02*
X9785000Y-6130000D01*
X9730000Y-7599000D02*
X9730000Y-7709000D01*
X9675000Y-7654000D02*
X9785000Y-7654000D01*
X9851920Y-7293920D02*
X9851920Y-7403920D01*
X9796920Y-7348920D02*
X9906920Y-7348920D01*
X9984000Y-6075000D02*
X9984000Y-6185000D01*
X9929000Y-6130000D02*
X10039000Y-6130000D01*
X9984000Y-7599000D02*
X9984000Y-7709000D01*
X9929000Y-7654000D02*
X10039000Y-7654000D01*
X10105920Y-7293920D02*
X10105920Y-7403920D01*
X10050920Y-7348920D02*
X10160920Y-7348920D01*
X10238000Y-6075000D02*
X10238000Y-6185000D01*
X10183000Y-6130000D02*
X10293000Y-6130000D01*
X10238000Y-7599000D02*
X10238000Y-7709000D01*
X10183000Y-7654000D02*
X10293000Y-7654000D01*
X10492000Y-6075000D02*
X10492000Y-6185000D01*
X10437000Y-6130000D02*
X10547000Y-6130000D01*
X10492000Y-7599000D02*
X10492000Y-7709000D01*
X10437000Y-7654000D02*
X10547000Y-7654000D01*
X10746000Y-6075000D02*
X10746000Y-6185000D01*
X10691000Y-6130000D02*
X10801000Y-6130000D01*
X10746000Y-7599000D02*
X10746000Y-7709000D01*
X10691000Y-7654000D02*
X10801000Y-7654000D01*
X11000000Y-6075000D02*
X11000000Y-6185000D01*
X10945000Y-6130000D02*
X11055000Y-6130000D01*
X11000000Y-7599000D02*
X11000000Y-7709000D01*
X10945000Y-7654000D02*
X11055000Y-7654000D01*
X11254000Y-6075000D02*
X11254000Y-6185000D01*
X11199000Y-6130000D02*
X11309000Y-6130000D01*
X11254000Y-7599000D02*
X11254000Y-7709000D01*
X11199000Y-7654000D02*
X11309000Y-7654000D01*
X11508000Y-6075000D02*
X11508000Y-6185000D01*
X11453000Y-6130000D02*
X11563000Y-6130000D01*
X11508000Y-7599000D02*
X11508000Y-7709000D01*
X11453000Y-7654000D02*
X11563000Y-7654000D01*
X11762000Y-6075000D02*
X11762000Y-6185000D01*
X11707000Y-6130000D02*
X11817000Y-6130000D01*
X11762000Y-7599000D02*
X11762000Y-7709000D01*
X11707000Y-7654000D02*
X11817000Y-7654000D01*
X12016000Y-6075000D02*
X12016000Y-6185000D01*
X11961000Y-6130000D02*
X12071000Y-6130000D01*
X12016000Y-7599000D02*
X12016000Y-7709000D01*
X11961000Y-7654000D02*
X12071000Y-7654000D01*
X12270000Y-6075000D02*
X12270000Y-6185000D01*
X12215000Y-6130000D02*
X12325000Y-6130000D01*
X12270000Y-7599000D02*
X12270000Y-7709000D01*
X12215000Y-7654000D02*
X12325000Y-7654000D01*
X12524000Y-6075000D02*
X12524000Y-6185000D01*
X12469000Y-6130000D02*
X12579000Y-6130000D01*
X12524000Y-7599000D02*
X12524000Y-7709000D01*
X12469000Y-7654000D02*
X12579000Y-7654000D01*
X12778000Y-6075000D02*
X12778000Y-6185000D01*
X12723000Y-6130000D02*
X12833000Y-6130000D01*
X12778000Y-7599000D02*
X12778000Y-7709000D01*
X12723000Y-7654000D02*
X12833000Y-7654000D01*
X13032000Y-6075000D02*
X13032000Y-6185000D01*
X12977000Y-6130000D02*
X13087000Y-6130000D01*
X13032000Y-6329000D02*
X13032000Y-6439000D01*
X12977000Y-6384000D02*
X13087000Y-6384000D01*
X13032000Y-6583000D02*
X13032000Y-6693000D01*
X12977000Y-6638000D02*
X13087000Y-6638000D01*
X13032000Y-6837000D02*
X13032000Y-6947000D01*
X12977000Y-6892000D02*
X13087000Y-6892000D01*
X13032000Y-7091000D02*
X13032000Y-7201000D01*
X12977000Y-7146000D02*
X13087000Y-7146000D01*
X13032000Y-7345000D02*
X13032000Y-7455000D01*
X12977000Y-7400000D02*
X13087000Y-7400000D01*
X13032000Y-7599000D02*
X13032000Y-7709000D01*
X12977000Y-7654000D02*
X13087000Y-7654000D01*
X13286000Y-6075000D02*
X13286000Y-6185000D01*
X13231000Y-6130000D02*
X13341000Y-6130000D01*
X13286000Y-7599000D02*
X13286000Y-7709000D01*
X13231000Y-7654000D02*
X13341000Y-7654000D01*
X13540000Y-6075000D02*
X13540000Y-6185000D01*
X13485000Y-6130000D02*
X13595000Y-6130000D01*
X13540000Y-7599000D02*
X13540000Y-7709000D01*
X13485000Y-7654000D02*
X13595000Y-7654000D01*
X13794000Y-6075000D02*
X13794000Y-6185000D01*
X13739000Y-6130000D02*
X13849000Y-6130000D01*
X13794000Y-7599000D02*
X13794000Y-7709000D01*
X13739000Y-7654000D02*
X13849000Y-7654000D01*
X14048000Y-6075000D02*
X14048000Y-6185000D01*
X13993000Y-6130000D02*
X14103000Y-6130000D01*
X14048000Y-7599000D02*
X14048000Y-7709000D01*
X13993000Y-7654000D02*
X14103000Y-7654000D01*
X14302000Y-6075000D02*
X14302000Y-6185000D01*
X14247000Y-6130000D02*
X14357000Y-6130000D01*
X14302000Y-7599000D02*
X14302000Y-7709000D01*
X14247000Y-7654000D02*
X14357000Y-7654000D01*
D14*
X7352411Y-2580412D02*
X7352411Y-2499589D01*
X7271588Y-2499589D01*
X7271588Y-2580412D01*
X7352411Y-2580412D01*
X7352412Y-2834411D02*
X7352412Y-2753589D01*
X7271589Y-2753589D01*
X7271589Y-2834411D01*
X7352412Y-2834411D01*
X7606411Y-2580412D02*
X7606411Y-2499589D01*
X7525588Y-2499589D01*
X7525588Y-2580412D01*
X7606411Y-2580412D01*
X7606411Y-2834411D02*
X7606411Y-2753589D01*
X7525588Y-2753589D01*
X7525588Y-2834411D01*
X7606411Y-2834411D01*
X7860411Y-2580412D02*
X7860411Y-2499589D01*
X7779588Y-2499589D01*
X7779588Y-2580412D01*
X7860411Y-2580412D01*
X7860411Y-2834411D02*
X7860411Y-2753589D01*
X7779588Y-2753589D01*
X7779588Y-2834411D01*
X7860411Y-2834411D01*
X8114411Y-2580412D02*
X8114411Y-2499589D01*
X8033588Y-2499589D01*
X8033588Y-2580412D01*
X8114411Y-2580412D01*
X8114411Y-2834411D02*
X8114411Y-2753589D01*
X8033588Y-2753589D01*
X8033588Y-2834411D01*
X8114411Y-2834411D01*
X10582412Y-2566412D02*
X10582412Y-2485589D01*
X10501589Y-2485589D01*
X10501589Y-2566412D01*
X10582412Y-2566412D01*
X10582412Y-2820411D02*
X10582412Y-2739589D01*
X10501589Y-2739589D01*
X10501589Y-2820411D01*
X10582412Y-2820411D01*
X10836412Y-2566412D02*
X10836412Y-2485589D01*
X10755589Y-2485589D01*
X10755589Y-2566412D01*
X10836412Y-2566412D01*
X10836412Y-2820411D02*
X10836412Y-2739589D01*
X10755589Y-2739589D01*
X10755589Y-2820411D01*
X10836412Y-2820411D01*
X11090412Y-2566412D02*
X11090412Y-2485589D01*
X11009589Y-2485589D01*
X11009589Y-2566412D01*
X11090412Y-2566412D01*
X11090412Y-2820411D02*
X11090412Y-2739589D01*
X11009589Y-2739589D01*
X11009589Y-2820411D01*
X11090412Y-2820411D01*
X11344411Y-2566412D02*
X11344411Y-2485589D01*
X11263588Y-2485589D01*
X11263588Y-2566412D01*
X11344411Y-2566412D01*
X11344411Y-2820411D02*
X11344411Y-2739589D01*
X11263588Y-2739589D01*
X11263588Y-2820411D01*
X11344411Y-2820411D01*
X13848411Y-2589412D02*
X13848411Y-2508589D01*
X13767588Y-2508589D01*
X13767588Y-2589412D01*
X13848411Y-2589412D01*
X13848412Y-2843411D02*
X13848412Y-2762589D01*
X13767589Y-2762589D01*
X13767589Y-2843411D01*
X13848412Y-2843411D01*
X14102411Y-2589412D02*
X14102411Y-2508589D01*
X14021588Y-2508589D01*
X14021588Y-2589412D01*
X14102411Y-2589412D01*
X14102411Y-2843411D02*
X14102411Y-2762589D01*
X14021588Y-2762589D01*
X14021588Y-2843411D01*
X14102411Y-2843411D01*
X14356411Y-2589412D02*
X14356411Y-2508589D01*
X14275588Y-2508589D01*
X14275588Y-2589412D01*
X14356411Y-2589412D01*
X14356411Y-2843411D02*
X14356411Y-2762589D01*
X14275588Y-2762589D01*
X14275588Y-2843411D01*
X14356411Y-2843411D01*
X14610411Y-2589412D02*
X14610411Y-2508589D01*
X14529588Y-2508589D01*
X14529588Y-2589412D01*
X14610411Y-2589412D01*
X14610411Y-2843411D02*
X14610411Y-2762589D01*
X14529588Y-2762589D01*
X14529588Y-2843411D01*
X14610411Y-2843411D01*
X17086412Y-2576412D02*
X17086412Y-2495589D01*
X17005589Y-2495589D01*
X17005589Y-2576412D01*
X17086412Y-2576412D01*
X17086412Y-2830411D02*
X17086412Y-2749589D01*
X17005589Y-2749589D01*
X17005589Y-2830411D01*
X17086412Y-2830411D01*
X17340412Y-2576412D02*
X17340412Y-2495589D01*
X17259589Y-2495589D01*
X17259589Y-2576412D01*
X17340412Y-2576412D01*
X17340412Y-2830411D02*
X17340412Y-2749589D01*
X17259589Y-2749589D01*
X17259589Y-2830411D01*
X17340412Y-2830411D01*
X17594412Y-2576412D02*
X17594412Y-2495589D01*
X17513589Y-2495589D01*
X17513589Y-2576412D01*
X17594412Y-2576412D01*
X17594412Y-2830411D02*
X17594412Y-2749589D01*
X17513589Y-2749589D01*
X17513589Y-2830411D01*
X17594412Y-2830411D01*
X17848412Y-2576412D02*
X17848412Y-2495589D01*
X17767589Y-2495589D01*
X17767589Y-2576412D01*
X17848412Y-2576412D01*
X17848412Y-2830411D02*
X17848412Y-2749589D01*
X17767589Y-2749589D01*
X17767589Y-2830411D01*
X17848412Y-2830411D01*
X18498412Y-8020411D02*
X18498412Y-7939588D01*
X18417589Y-7939588D01*
X18417589Y-8020411D01*
X18498412Y-8020411D01*
X18498412Y-8274411D02*
X18498412Y-8193588D01*
X18417589Y-8193588D01*
X18417589Y-8274411D01*
X18498412Y-8274411D01*
X18752412Y-8020411D02*
X18752412Y-7939588D01*
X18671589Y-7939588D01*
X18671589Y-8020411D01*
X18752412Y-8020411D01*
X18752412Y-8274411D02*
X18752412Y-8193588D01*
X18671589Y-8193588D01*
X18671589Y-8274411D01*
X18752412Y-8274411D01*
X19006412Y-8020411D02*
X19006412Y-7939588D01*
X18925589Y-7939588D01*
X18925589Y-8020411D01*
X19006412Y-8020411D01*
X19006412Y-8274411D02*
X19006412Y-8193588D01*
X18925589Y-8193588D01*
X18925589Y-8274411D01*
X19006412Y-8274411D01*
X19260412Y-8020411D02*
X19260412Y-7939588D01*
X19179589Y-7939588D01*
X19179589Y-8020411D01*
X19260412Y-8020411D01*
X19260412Y-8274411D02*
X19260412Y-8193588D01*
X19179589Y-8193588D01*
X19179589Y-8274411D01*
X19260412Y-8274411D01*
D11*
X6268277Y-9315831D02*
X6268277Y-9115831D01*
X6268277Y-9115831D02*
X6315896Y-9115831D01*
X6315896Y-9115831D02*
X6344467Y-9125355D01*
X6344467Y-9125355D02*
X6363515Y-9144402D01*
X6363515Y-9144402D02*
X6373039Y-9163450D01*
X6373039Y-9163450D02*
X6382562Y-9201545D01*
X6382562Y-9201545D02*
X6382562Y-9230117D01*
X6382562Y-9230117D02*
X6373039Y-9268212D01*
X6373039Y-9268212D02*
X6363515Y-9287259D01*
X6363515Y-9287259D02*
X6344467Y-9306307D01*
X6344467Y-9306307D02*
X6315896Y-9315831D01*
X6315896Y-9315831D02*
X6268277Y-9315831D01*
X6468277Y-9315831D02*
X6468277Y-9182498D01*
X6468277Y-9220593D02*
X6477801Y-9201545D01*
X6477801Y-9201545D02*
X6487324Y-9192021D01*
X6487324Y-9192021D02*
X6506372Y-9182498D01*
X6506372Y-9182498D02*
X6525420Y-9182498D01*
X6592086Y-9315831D02*
X6592086Y-9182498D01*
X6592086Y-9115831D02*
X6582562Y-9125355D01*
X6582562Y-9125355D02*
X6592086Y-9134879D01*
X6592086Y-9134879D02*
X6601610Y-9125355D01*
X6601610Y-9125355D02*
X6592086Y-9115831D01*
X6592086Y-9115831D02*
X6592086Y-9134879D01*
X6715896Y-9315831D02*
X6696848Y-9306307D01*
X6696848Y-9306307D02*
X6687324Y-9287259D01*
X6687324Y-9287259D02*
X6687324Y-9115831D01*
X6820658Y-9315831D02*
X6801610Y-9306307D01*
X6801610Y-9306307D02*
X6792086Y-9287259D01*
X6792086Y-9287259D02*
X6792086Y-9115831D01*
X7049229Y-9315831D02*
X7049229Y-9115831D01*
X7049229Y-9115831D02*
X7115896Y-9258688D01*
X7115896Y-9258688D02*
X7182562Y-9115831D01*
X7182562Y-9115831D02*
X7182562Y-9315831D01*
X7363515Y-9315831D02*
X7363515Y-9211069D01*
X7363515Y-9211069D02*
X7353991Y-9192021D01*
X7353991Y-9192021D02*
X7334943Y-9182498D01*
X7334943Y-9182498D02*
X7296848Y-9182498D01*
X7296848Y-9182498D02*
X7277801Y-9192021D01*
X7363515Y-9306307D02*
X7344467Y-9315831D01*
X7344467Y-9315831D02*
X7296848Y-9315831D01*
X7296848Y-9315831D02*
X7277801Y-9306307D01*
X7277801Y-9306307D02*
X7268277Y-9287259D01*
X7268277Y-9287259D02*
X7268277Y-9268212D01*
X7268277Y-9268212D02*
X7277801Y-9249164D01*
X7277801Y-9249164D02*
X7296848Y-9239640D01*
X7296848Y-9239640D02*
X7344467Y-9239640D01*
X7344467Y-9239640D02*
X7363515Y-9230117D01*
X7458753Y-9182498D02*
X7458753Y-9382498D01*
X7458753Y-9192021D02*
X7477801Y-9182498D01*
X7477801Y-9182498D02*
X7515896Y-9182498D01*
X7515896Y-9182498D02*
X7534943Y-9192021D01*
X7534943Y-9192021D02*
X7544467Y-9201545D01*
X7544467Y-9201545D02*
X7553991Y-9220593D01*
X7553991Y-9220593D02*
X7553991Y-9277736D01*
X7553991Y-9277736D02*
X7544467Y-9296783D01*
X7544467Y-9296783D02*
X7534943Y-9306307D01*
X7534943Y-9306307D02*
X7515896Y-9315831D01*
X7515896Y-9315831D02*
X7477801Y-9315831D01*
X7477801Y-9315831D02*
X7458753Y-9306307D01*
X7639705Y-9296783D02*
X7649229Y-9306307D01*
X7649229Y-9306307D02*
X7639705Y-9315831D01*
X7639705Y-9315831D02*
X7630182Y-9306307D01*
X7630182Y-9306307D02*
X7639705Y-9296783D01*
X7639705Y-9296783D02*
X7639705Y-9315831D01*
X7639705Y-9192021D02*
X7649229Y-9201545D01*
X7649229Y-9201545D02*
X7639705Y-9211069D01*
X7639705Y-9211069D02*
X7630182Y-9201545D01*
X7630182Y-9201545D02*
X7639705Y-9192021D01*
X7639705Y-9192021D02*
X7639705Y-9211069D01*
D12*
X5977500Y-9629347D02*
X6007500Y-9659347D01*
X6007500Y-9629347D02*
X5977500Y-9659347D01*
D11*
X6306372Y-9535831D02*
X6325420Y-9535831D01*
X6325420Y-9535831D02*
X6344467Y-9545355D01*
X6344467Y-9545355D02*
X6353991Y-9554879D01*
X6353991Y-9554879D02*
X6363515Y-9573926D01*
X6363515Y-9573926D02*
X6373039Y-9612021D01*
X6373039Y-9612021D02*
X6373039Y-9659640D01*
X6373039Y-9659640D02*
X6363515Y-9697736D01*
X6363515Y-9697736D02*
X6353991Y-9716783D01*
X6353991Y-9716783D02*
X6344467Y-9726307D01*
X6344467Y-9726307D02*
X6325420Y-9735831D01*
X6325420Y-9735831D02*
X6306372Y-9735831D01*
X6306372Y-9735831D02*
X6287324Y-9726307D01*
X6287324Y-9726307D02*
X6277801Y-9716783D01*
X6277801Y-9716783D02*
X6268277Y-9697736D01*
X6268277Y-9697736D02*
X6258753Y-9659640D01*
X6258753Y-9659640D02*
X6258753Y-9612021D01*
X6258753Y-9612021D02*
X6268277Y-9573926D01*
X6268277Y-9573926D02*
X6277801Y-9554879D01*
X6277801Y-9554879D02*
X6287324Y-9545355D01*
X6287324Y-9545355D02*
X6306372Y-9535831D01*
X6458753Y-9716783D02*
X6468277Y-9726307D01*
X6468277Y-9726307D02*
X6458753Y-9735831D01*
X6458753Y-9735831D02*
X6449229Y-9726307D01*
X6449229Y-9726307D02*
X6458753Y-9716783D01*
X6458753Y-9716783D02*
X6458753Y-9735831D01*
X6534943Y-9535831D02*
X6658753Y-9535831D01*
X6658753Y-9535831D02*
X6592086Y-9612021D01*
X6592086Y-9612021D02*
X6620658Y-9612021D01*
X6620658Y-9612021D02*
X6639705Y-9621545D01*
X6639705Y-9621545D02*
X6649229Y-9631069D01*
X6649229Y-9631069D02*
X6658753Y-9650117D01*
X6658753Y-9650117D02*
X6658753Y-9697736D01*
X6658753Y-9697736D02*
X6649229Y-9716783D01*
X6649229Y-9716783D02*
X6639705Y-9726307D01*
X6639705Y-9726307D02*
X6620658Y-9735831D01*
X6620658Y-9735831D02*
X6563515Y-9735831D01*
X6563515Y-9735831D02*
X6544467Y-9726307D01*
X6544467Y-9726307D02*
X6534943Y-9716783D01*
X6782562Y-9535831D02*
X6801610Y-9535831D01*
X6801610Y-9535831D02*
X6820658Y-9545355D01*
X6820658Y-9545355D02*
X6830182Y-9554879D01*
X6830182Y-9554879D02*
X6839705Y-9573926D01*
X6839705Y-9573926D02*
X6849229Y-9612021D01*
X6849229Y-9612021D02*
X6849229Y-9659640D01*
X6849229Y-9659640D02*
X6839705Y-9697736D01*
X6839705Y-9697736D02*
X6830182Y-9716783D01*
X6830182Y-9716783D02*
X6820658Y-9726307D01*
X6820658Y-9726307D02*
X6801610Y-9735831D01*
X6801610Y-9735831D02*
X6782562Y-9735831D01*
X6782562Y-9735831D02*
X6763515Y-9726307D01*
X6763515Y-9726307D02*
X6753991Y-9716783D01*
X6753991Y-9716783D02*
X6744467Y-9697736D01*
X6744467Y-9697736D02*
X6734943Y-9659640D01*
X6734943Y-9659640D02*
X6734943Y-9612021D01*
X6734943Y-9612021D02*
X6744467Y-9573926D01*
X6744467Y-9573926D02*
X6753991Y-9554879D01*
X6753991Y-9554879D02*
X6763515Y-9545355D01*
X6763515Y-9545355D02*
X6782562Y-9535831D01*
X6973039Y-9535831D02*
X6992086Y-9535831D01*
X6992086Y-9535831D02*
X7011134Y-9545355D01*
X7011134Y-9545355D02*
X7020658Y-9554879D01*
X7020658Y-9554879D02*
X7030182Y-9573926D01*
X7030182Y-9573926D02*
X7039705Y-9612021D01*
X7039705Y-9612021D02*
X7039705Y-9659640D01*
X7039705Y-9659640D02*
X7030182Y-9697736D01*
X7030182Y-9697736D02*
X7020658Y-9716783D01*
X7020658Y-9716783D02*
X7011134Y-9726307D01*
X7011134Y-9726307D02*
X6992086Y-9735831D01*
X6992086Y-9735831D02*
X6973039Y-9735831D01*
X6973039Y-9735831D02*
X6953991Y-9726307D01*
X6953991Y-9726307D02*
X6944467Y-9716783D01*
X6944467Y-9716783D02*
X6934943Y-9697736D01*
X6934943Y-9697736D02*
X6925420Y-9659640D01*
X6925420Y-9659640D02*
X6925420Y-9612021D01*
X6925420Y-9612021D02*
X6934943Y-9573926D01*
X6934943Y-9573926D02*
X6944467Y-9554879D01*
X6944467Y-9554879D02*
X6953991Y-9545355D01*
X6953991Y-9545355D02*
X6973039Y-9535831D01*
X7125420Y-9735831D02*
X7125420Y-9602498D01*
X7125420Y-9621545D02*
X7134943Y-9612021D01*
X7134943Y-9612021D02*
X7153991Y-9602498D01*
X7153991Y-9602498D02*
X7182563Y-9602498D01*
X7182563Y-9602498D02*
X7201610Y-9612021D01*
X7201610Y-9612021D02*
X7211134Y-9631069D01*
X7211134Y-9631069D02*
X7211134Y-9735831D01*
X7211134Y-9631069D02*
X7220658Y-9612021D01*
X7220658Y-9612021D02*
X7239705Y-9602498D01*
X7239705Y-9602498D02*
X7268277Y-9602498D01*
X7268277Y-9602498D02*
X7287324Y-9612021D01*
X7287324Y-9612021D02*
X7296848Y-9631069D01*
X7296848Y-9631069D02*
X7296848Y-9735831D01*
X7392086Y-9735831D02*
X7392086Y-9602498D01*
X7392086Y-9621545D02*
X7401610Y-9612021D01*
X7401610Y-9612021D02*
X7420658Y-9602498D01*
X7420658Y-9602498D02*
X7449229Y-9602498D01*
X7449229Y-9602498D02*
X7468277Y-9612021D01*
X7468277Y-9612021D02*
X7477801Y-9631069D01*
X7477801Y-9631069D02*
X7477801Y-9735831D01*
X7477801Y-9631069D02*
X7487324Y-9612021D01*
X7487324Y-9612021D02*
X7506372Y-9602498D01*
X7506372Y-9602498D02*
X7534943Y-9602498D01*
X7534943Y-9602498D02*
X7553991Y-9612021D01*
X7553991Y-9612021D02*
X7563515Y-9631069D01*
X7563515Y-9631069D02*
X7563515Y-9735831D01*
X7953991Y-9526307D02*
X7782563Y-9783450D01*
X8211134Y-9535831D02*
X8230182Y-9535831D01*
X8230182Y-9535831D02*
X8249229Y-9545355D01*
X8249229Y-9545355D02*
X8258753Y-9554879D01*
X8258753Y-9554879D02*
X8268277Y-9573926D01*
X8268277Y-9573926D02*
X8277801Y-9612021D01*
X8277801Y-9612021D02*
X8277801Y-9659640D01*
X8277801Y-9659640D02*
X8268277Y-9697736D01*
X8268277Y-9697736D02*
X8258753Y-9716783D01*
X8258753Y-9716783D02*
X8249229Y-9726307D01*
X8249229Y-9726307D02*
X8230182Y-9735831D01*
X8230182Y-9735831D02*
X8211134Y-9735831D01*
X8211134Y-9735831D02*
X8192086Y-9726307D01*
X8192086Y-9726307D02*
X8182563Y-9716783D01*
X8182563Y-9716783D02*
X8173039Y-9697736D01*
X8173039Y-9697736D02*
X8163515Y-9659640D01*
X8163515Y-9659640D02*
X8163515Y-9612021D01*
X8163515Y-9612021D02*
X8173039Y-9573926D01*
X8173039Y-9573926D02*
X8182563Y-9554879D01*
X8182563Y-9554879D02*
X8192086Y-9545355D01*
X8192086Y-9545355D02*
X8211134Y-9535831D01*
X8363515Y-9716783D02*
X8373039Y-9726307D01*
X8373039Y-9726307D02*
X8363515Y-9735831D01*
X8363515Y-9735831D02*
X8353991Y-9726307D01*
X8353991Y-9726307D02*
X8363515Y-9716783D01*
X8363515Y-9716783D02*
X8363515Y-9735831D01*
X8496848Y-9535831D02*
X8515896Y-9535831D01*
X8515896Y-9535831D02*
X8534944Y-9545355D01*
X8534944Y-9545355D02*
X8544468Y-9554879D01*
X8544468Y-9554879D02*
X8553991Y-9573926D01*
X8553991Y-9573926D02*
X8563515Y-9612021D01*
X8563515Y-9612021D02*
X8563515Y-9659640D01*
X8563515Y-9659640D02*
X8553991Y-9697736D01*
X8553991Y-9697736D02*
X8544468Y-9716783D01*
X8544468Y-9716783D02*
X8534944Y-9726307D01*
X8534944Y-9726307D02*
X8515896Y-9735831D01*
X8515896Y-9735831D02*
X8496848Y-9735831D01*
X8496848Y-9735831D02*
X8477801Y-9726307D01*
X8477801Y-9726307D02*
X8468277Y-9716783D01*
X8468277Y-9716783D02*
X8458753Y-9697736D01*
X8458753Y-9697736D02*
X8449229Y-9659640D01*
X8449229Y-9659640D02*
X8449229Y-9612021D01*
X8449229Y-9612021D02*
X8458753Y-9573926D01*
X8458753Y-9573926D02*
X8468277Y-9554879D01*
X8468277Y-9554879D02*
X8477801Y-9545355D01*
X8477801Y-9545355D02*
X8496848Y-9535831D01*
X8753991Y-9735831D02*
X8639706Y-9735831D01*
X8696848Y-9735831D02*
X8696848Y-9535831D01*
X8696848Y-9535831D02*
X8677801Y-9564402D01*
X8677801Y-9564402D02*
X8658753Y-9583450D01*
X8658753Y-9583450D02*
X8639706Y-9592974D01*
X8944468Y-9735831D02*
X8830182Y-9735831D01*
X8887325Y-9735831D02*
X8887325Y-9535831D01*
X8887325Y-9535831D02*
X8868277Y-9564402D01*
X8868277Y-9564402D02*
X8849229Y-9583450D01*
X8849229Y-9583450D02*
X8830182Y-9592974D01*
X9058753Y-9621545D02*
X9039706Y-9612021D01*
X9039706Y-9612021D02*
X9030182Y-9602498D01*
X9030182Y-9602498D02*
X9020658Y-9583450D01*
X9020658Y-9583450D02*
X9020658Y-9573926D01*
X9020658Y-9573926D02*
X9030182Y-9554879D01*
X9030182Y-9554879D02*
X9039706Y-9545355D01*
X9039706Y-9545355D02*
X9058753Y-9535831D01*
X9058753Y-9535831D02*
X9096849Y-9535831D01*
X9096849Y-9535831D02*
X9115896Y-9545355D01*
X9115896Y-9545355D02*
X9125420Y-9554879D01*
X9125420Y-9554879D02*
X9134944Y-9573926D01*
X9134944Y-9573926D02*
X9134944Y-9583450D01*
X9134944Y-9583450D02*
X9125420Y-9602498D01*
X9125420Y-9602498D02*
X9115896Y-9612021D01*
X9115896Y-9612021D02*
X9096849Y-9621545D01*
X9096849Y-9621545D02*
X9058753Y-9621545D01*
X9058753Y-9621545D02*
X9039706Y-9631069D01*
X9039706Y-9631069D02*
X9030182Y-9640593D01*
X9030182Y-9640593D02*
X9020658Y-9659640D01*
X9020658Y-9659640D02*
X9020658Y-9697736D01*
X9020658Y-9697736D02*
X9030182Y-9716783D01*
X9030182Y-9716783D02*
X9039706Y-9726307D01*
X9039706Y-9726307D02*
X9058753Y-9735831D01*
X9058753Y-9735831D02*
X9096849Y-9735831D01*
X9096849Y-9735831D02*
X9115896Y-9726307D01*
X9115896Y-9726307D02*
X9125420Y-9716783D01*
X9125420Y-9716783D02*
X9134944Y-9697736D01*
X9134944Y-9697736D02*
X9134944Y-9659640D01*
X9134944Y-9659640D02*
X9125420Y-9640593D01*
X9125420Y-9640593D02*
X9115896Y-9631069D01*
X9115896Y-9631069D02*
X9096849Y-9621545D01*
X9211134Y-9535831D02*
X9211134Y-9573926D01*
X9287325Y-9535831D02*
X9287325Y-9573926D01*
X9582563Y-9812021D02*
X9573039Y-9802498D01*
X9573039Y-9802498D02*
X9553991Y-9773926D01*
X9553991Y-9773926D02*
X9544468Y-9754879D01*
X9544468Y-9754879D02*
X9534944Y-9726307D01*
X9534944Y-9726307D02*
X9525420Y-9678688D01*
X9525420Y-9678688D02*
X9525420Y-9640593D01*
X9525420Y-9640593D02*
X9534944Y-9592974D01*
X9534944Y-9592974D02*
X9544468Y-9564402D01*
X9544468Y-9564402D02*
X9553991Y-9545355D01*
X9553991Y-9545355D02*
X9573039Y-9516783D01*
X9573039Y-9516783D02*
X9582563Y-9507259D01*
X9763515Y-9735831D02*
X9649230Y-9735831D01*
X9706372Y-9735831D02*
X9706372Y-9535831D01*
X9706372Y-9535831D02*
X9687325Y-9564402D01*
X9687325Y-9564402D02*
X9668277Y-9583450D01*
X9668277Y-9583450D02*
X9649230Y-9592974D01*
X9830182Y-9535831D02*
X9953991Y-9535831D01*
X9953991Y-9535831D02*
X9887325Y-9612021D01*
X9887325Y-9612021D02*
X9915896Y-9612021D01*
X9915896Y-9612021D02*
X9934944Y-9621545D01*
X9934944Y-9621545D02*
X9944468Y-9631069D01*
X9944468Y-9631069D02*
X9953991Y-9650117D01*
X9953991Y-9650117D02*
X9953991Y-9697736D01*
X9953991Y-9697736D02*
X9944468Y-9716783D01*
X9944468Y-9716783D02*
X9934944Y-9726307D01*
X9934944Y-9726307D02*
X9915896Y-9735831D01*
X9915896Y-9735831D02*
X9858753Y-9735831D01*
X9858753Y-9735831D02*
X9839706Y-9726307D01*
X9839706Y-9726307D02*
X9830182Y-9716783D01*
X10020658Y-9535831D02*
X10153991Y-9535831D01*
X10153991Y-9535831D02*
X10068277Y-9735831D01*
X10382563Y-9735831D02*
X10382563Y-9535831D01*
X10468277Y-9735831D02*
X10468277Y-9631069D01*
X10468277Y-9631069D02*
X10458753Y-9612021D01*
X10458753Y-9612021D02*
X10439706Y-9602498D01*
X10439706Y-9602498D02*
X10411134Y-9602498D01*
X10411134Y-9602498D02*
X10392087Y-9612021D01*
X10392087Y-9612021D02*
X10382563Y-9621545D01*
X10592087Y-9735831D02*
X10573039Y-9726307D01*
X10573039Y-9726307D02*
X10563515Y-9716783D01*
X10563515Y-9716783D02*
X10553992Y-9697736D01*
X10553992Y-9697736D02*
X10553992Y-9640593D01*
X10553992Y-9640593D02*
X10563515Y-9621545D01*
X10563515Y-9621545D02*
X10573039Y-9612021D01*
X10573039Y-9612021D02*
X10592087Y-9602498D01*
X10592087Y-9602498D02*
X10620658Y-9602498D01*
X10620658Y-9602498D02*
X10639706Y-9612021D01*
X10639706Y-9612021D02*
X10649230Y-9621545D01*
X10649230Y-9621545D02*
X10658753Y-9640593D01*
X10658753Y-9640593D02*
X10658753Y-9697736D01*
X10658753Y-9697736D02*
X10649230Y-9716783D01*
X10649230Y-9716783D02*
X10639706Y-9726307D01*
X10639706Y-9726307D02*
X10620658Y-9735831D01*
X10620658Y-9735831D02*
X10592087Y-9735831D01*
X10773039Y-9735831D02*
X10753992Y-9726307D01*
X10753992Y-9726307D02*
X10744468Y-9707259D01*
X10744468Y-9707259D02*
X10744468Y-9535831D01*
X10925420Y-9726307D02*
X10906373Y-9735831D01*
X10906373Y-9735831D02*
X10868277Y-9735831D01*
X10868277Y-9735831D02*
X10849230Y-9726307D01*
X10849230Y-9726307D02*
X10839706Y-9707259D01*
X10839706Y-9707259D02*
X10839706Y-9631069D01*
X10839706Y-9631069D02*
X10849230Y-9612021D01*
X10849230Y-9612021D02*
X10868277Y-9602498D01*
X10868277Y-9602498D02*
X10906373Y-9602498D01*
X10906373Y-9602498D02*
X10925420Y-9612021D01*
X10925420Y-9612021D02*
X10934944Y-9631069D01*
X10934944Y-9631069D02*
X10934944Y-9650117D01*
X10934944Y-9650117D02*
X10839706Y-9669164D01*
X11011134Y-9726307D02*
X11030182Y-9735831D01*
X11030182Y-9735831D02*
X11068277Y-9735831D01*
X11068277Y-9735831D02*
X11087325Y-9726307D01*
X11087325Y-9726307D02*
X11096849Y-9707259D01*
X11096849Y-9707259D02*
X11096849Y-9697736D01*
X11096849Y-9697736D02*
X11087325Y-9678688D01*
X11087325Y-9678688D02*
X11068277Y-9669164D01*
X11068277Y-9669164D02*
X11039706Y-9669164D01*
X11039706Y-9669164D02*
X11020658Y-9659640D01*
X11020658Y-9659640D02*
X11011134Y-9640593D01*
X11011134Y-9640593D02*
X11011134Y-9631069D01*
X11011134Y-9631069D02*
X11020658Y-9612021D01*
X11020658Y-9612021D02*
X11039706Y-9602498D01*
X11039706Y-9602498D02*
X11068277Y-9602498D01*
X11068277Y-9602498D02*
X11087325Y-9612021D01*
X11163515Y-9812021D02*
X11173039Y-9802498D01*
X11173039Y-9802498D02*
X11192087Y-9773926D01*
X11192087Y-9773926D02*
X11201611Y-9754879D01*
X11201611Y-9754879D02*
X11211134Y-9726307D01*
X11211134Y-9726307D02*
X11220658Y-9678688D01*
X11220658Y-9678688D02*
X11220658Y-9640593D01*
X11220658Y-9640593D02*
X11211134Y-9592974D01*
X11211134Y-9592974D02*
X11201611Y-9564402D01*
X11201611Y-9564402D02*
X11192087Y-9545355D01*
X11192087Y-9545355D02*
X11173039Y-9516783D01*
X11173039Y-9516783D02*
X11163515Y-9507259D01*
D12*
X6007500Y-9908347D02*
G75*
G02*
X5927500Y-9908347I-40000J0D01*
G01*
X5927500Y-9908347D02*
G75*
G02*
X6007500Y-9908347I40000J0D01*
G01*
D11*
X6306372Y-9799831D02*
X6325420Y-9799831D01*
X6325420Y-9799831D02*
X6344467Y-9809355D01*
X6344467Y-9809355D02*
X6353991Y-9818879D01*
X6353991Y-9818879D02*
X6363515Y-9837926D01*
X6363515Y-9837926D02*
X6373039Y-9876021D01*
X6373039Y-9876021D02*
X6373039Y-9923640D01*
X6373039Y-9923640D02*
X6363515Y-9961736D01*
X6363515Y-9961736D02*
X6353991Y-9980783D01*
X6353991Y-9980783D02*
X6344467Y-9990307D01*
X6344467Y-9990307D02*
X6325420Y-9999831D01*
X6325420Y-9999831D02*
X6306372Y-9999831D01*
X6306372Y-9999831D02*
X6287324Y-9990307D01*
X6287324Y-9990307D02*
X6277801Y-9980783D01*
X6277801Y-9980783D02*
X6268277Y-9961736D01*
X6268277Y-9961736D02*
X6258753Y-9923640D01*
X6258753Y-9923640D02*
X6258753Y-9876021D01*
X6258753Y-9876021D02*
X6268277Y-9837926D01*
X6268277Y-9837926D02*
X6277801Y-9818879D01*
X6277801Y-9818879D02*
X6287324Y-9809355D01*
X6287324Y-9809355D02*
X6306372Y-9799831D01*
X6458753Y-9980783D02*
X6468277Y-9990307D01*
X6468277Y-9990307D02*
X6458753Y-9999831D01*
X6458753Y-9999831D02*
X6449229Y-9990307D01*
X6449229Y-9990307D02*
X6458753Y-9980783D01*
X6458753Y-9980783D02*
X6458753Y-9999831D01*
X6582562Y-9885545D02*
X6563515Y-9876021D01*
X6563515Y-9876021D02*
X6553991Y-9866498D01*
X6553991Y-9866498D02*
X6544467Y-9847450D01*
X6544467Y-9847450D02*
X6544467Y-9837926D01*
X6544467Y-9837926D02*
X6553991Y-9818879D01*
X6553991Y-9818879D02*
X6563515Y-9809355D01*
X6563515Y-9809355D02*
X6582562Y-9799831D01*
X6582562Y-9799831D02*
X6620658Y-9799831D01*
X6620658Y-9799831D02*
X6639705Y-9809355D01*
X6639705Y-9809355D02*
X6649229Y-9818879D01*
X6649229Y-9818879D02*
X6658753Y-9837926D01*
X6658753Y-9837926D02*
X6658753Y-9847450D01*
X6658753Y-9847450D02*
X6649229Y-9866498D01*
X6649229Y-9866498D02*
X6639705Y-9876021D01*
X6639705Y-9876021D02*
X6620658Y-9885545D01*
X6620658Y-9885545D02*
X6582562Y-9885545D01*
X6582562Y-9885545D02*
X6563515Y-9895069D01*
X6563515Y-9895069D02*
X6553991Y-9904593D01*
X6553991Y-9904593D02*
X6544467Y-9923640D01*
X6544467Y-9923640D02*
X6544467Y-9961736D01*
X6544467Y-9961736D02*
X6553991Y-9980783D01*
X6553991Y-9980783D02*
X6563515Y-9990307D01*
X6563515Y-9990307D02*
X6582562Y-9999831D01*
X6582562Y-9999831D02*
X6620658Y-9999831D01*
X6620658Y-9999831D02*
X6639705Y-9990307D01*
X6639705Y-9990307D02*
X6649229Y-9980783D01*
X6649229Y-9980783D02*
X6658753Y-9961736D01*
X6658753Y-9961736D02*
X6658753Y-9923640D01*
X6658753Y-9923640D02*
X6649229Y-9904593D01*
X6649229Y-9904593D02*
X6639705Y-9895069D01*
X6639705Y-9895069D02*
X6620658Y-9885545D01*
X6782562Y-9799831D02*
X6801610Y-9799831D01*
X6801610Y-9799831D02*
X6820658Y-9809355D01*
X6820658Y-9809355D02*
X6830182Y-9818879D01*
X6830182Y-9818879D02*
X6839705Y-9837926D01*
X6839705Y-9837926D02*
X6849229Y-9876021D01*
X6849229Y-9876021D02*
X6849229Y-9923640D01*
X6849229Y-9923640D02*
X6839705Y-9961736D01*
X6839705Y-9961736D02*
X6830182Y-9980783D01*
X6830182Y-9980783D02*
X6820658Y-9990307D01*
X6820658Y-9990307D02*
X6801610Y-9999831D01*
X6801610Y-9999831D02*
X6782562Y-9999831D01*
X6782562Y-9999831D02*
X6763515Y-9990307D01*
X6763515Y-9990307D02*
X6753991Y-9980783D01*
X6753991Y-9980783D02*
X6744467Y-9961736D01*
X6744467Y-9961736D02*
X6734943Y-9923640D01*
X6734943Y-9923640D02*
X6734943Y-9876021D01*
X6734943Y-9876021D02*
X6744467Y-9837926D01*
X6744467Y-9837926D02*
X6753991Y-9818879D01*
X6753991Y-9818879D02*
X6763515Y-9809355D01*
X6763515Y-9809355D02*
X6782562Y-9799831D01*
X6973039Y-9799831D02*
X6992086Y-9799831D01*
X6992086Y-9799831D02*
X7011134Y-9809355D01*
X7011134Y-9809355D02*
X7020658Y-9818879D01*
X7020658Y-9818879D02*
X7030182Y-9837926D01*
X7030182Y-9837926D02*
X7039705Y-9876021D01*
X7039705Y-9876021D02*
X7039705Y-9923640D01*
X7039705Y-9923640D02*
X7030182Y-9961736D01*
X7030182Y-9961736D02*
X7020658Y-9980783D01*
X7020658Y-9980783D02*
X7011134Y-9990307D01*
X7011134Y-9990307D02*
X6992086Y-9999831D01*
X6992086Y-9999831D02*
X6973039Y-9999831D01*
X6973039Y-9999831D02*
X6953991Y-9990307D01*
X6953991Y-9990307D02*
X6944467Y-9980783D01*
X6944467Y-9980783D02*
X6934943Y-9961736D01*
X6934943Y-9961736D02*
X6925420Y-9923640D01*
X6925420Y-9923640D02*
X6925420Y-9876021D01*
X6925420Y-9876021D02*
X6934943Y-9837926D01*
X6934943Y-9837926D02*
X6944467Y-9818879D01*
X6944467Y-9818879D02*
X6953991Y-9809355D01*
X6953991Y-9809355D02*
X6973039Y-9799831D01*
X7125420Y-9999831D02*
X7125420Y-9866498D01*
X7125420Y-9885545D02*
X7134943Y-9876021D01*
X7134943Y-9876021D02*
X7153991Y-9866498D01*
X7153991Y-9866498D02*
X7182563Y-9866498D01*
X7182563Y-9866498D02*
X7201610Y-9876021D01*
X7201610Y-9876021D02*
X7211134Y-9895069D01*
X7211134Y-9895069D02*
X7211134Y-9999831D01*
X7211134Y-9895069D02*
X7220658Y-9876021D01*
X7220658Y-9876021D02*
X7239705Y-9866498D01*
X7239705Y-9866498D02*
X7268277Y-9866498D01*
X7268277Y-9866498D02*
X7287324Y-9876021D01*
X7287324Y-9876021D02*
X7296848Y-9895069D01*
X7296848Y-9895069D02*
X7296848Y-9999831D01*
X7392086Y-9999831D02*
X7392086Y-9866498D01*
X7392086Y-9885545D02*
X7401610Y-9876021D01*
X7401610Y-9876021D02*
X7420658Y-9866498D01*
X7420658Y-9866498D02*
X7449229Y-9866498D01*
X7449229Y-9866498D02*
X7468277Y-9876021D01*
X7468277Y-9876021D02*
X7477801Y-9895069D01*
X7477801Y-9895069D02*
X7477801Y-9999831D01*
X7477801Y-9895069D02*
X7487324Y-9876021D01*
X7487324Y-9876021D02*
X7506372Y-9866498D01*
X7506372Y-9866498D02*
X7534943Y-9866498D01*
X7534943Y-9866498D02*
X7553991Y-9876021D01*
X7553991Y-9876021D02*
X7563515Y-9895069D01*
X7563515Y-9895069D02*
X7563515Y-9999831D01*
X7953991Y-9790307D02*
X7782563Y-10047450D01*
X8211134Y-9799831D02*
X8230182Y-9799831D01*
X8230182Y-9799831D02*
X8249229Y-9809355D01*
X8249229Y-9809355D02*
X8258753Y-9818879D01*
X8258753Y-9818879D02*
X8268277Y-9837926D01*
X8268277Y-9837926D02*
X8277801Y-9876021D01*
X8277801Y-9876021D02*
X8277801Y-9923640D01*
X8277801Y-9923640D02*
X8268277Y-9961736D01*
X8268277Y-9961736D02*
X8258753Y-9980783D01*
X8258753Y-9980783D02*
X8249229Y-9990307D01*
X8249229Y-9990307D02*
X8230182Y-9999831D01*
X8230182Y-9999831D02*
X8211134Y-9999831D01*
X8211134Y-9999831D02*
X8192086Y-9990307D01*
X8192086Y-9990307D02*
X8182563Y-9980783D01*
X8182563Y-9980783D02*
X8173039Y-9961736D01*
X8173039Y-9961736D02*
X8163515Y-9923640D01*
X8163515Y-9923640D02*
X8163515Y-9876021D01*
X8163515Y-9876021D02*
X8173039Y-9837926D01*
X8173039Y-9837926D02*
X8182563Y-9818879D01*
X8182563Y-9818879D02*
X8192086Y-9809355D01*
X8192086Y-9809355D02*
X8211134Y-9799831D01*
X8363515Y-9980783D02*
X8373039Y-9990307D01*
X8373039Y-9990307D02*
X8363515Y-9999831D01*
X8363515Y-9999831D02*
X8353991Y-9990307D01*
X8353991Y-9990307D02*
X8363515Y-9980783D01*
X8363515Y-9980783D02*
X8363515Y-9999831D01*
X8496848Y-9799831D02*
X8515896Y-9799831D01*
X8515896Y-9799831D02*
X8534944Y-9809355D01*
X8534944Y-9809355D02*
X8544468Y-9818879D01*
X8544468Y-9818879D02*
X8553991Y-9837926D01*
X8553991Y-9837926D02*
X8563515Y-9876021D01*
X8563515Y-9876021D02*
X8563515Y-9923640D01*
X8563515Y-9923640D02*
X8553991Y-9961736D01*
X8553991Y-9961736D02*
X8544468Y-9980783D01*
X8544468Y-9980783D02*
X8534944Y-9990307D01*
X8534944Y-9990307D02*
X8515896Y-9999831D01*
X8515896Y-9999831D02*
X8496848Y-9999831D01*
X8496848Y-9999831D02*
X8477801Y-9990307D01*
X8477801Y-9990307D02*
X8468277Y-9980783D01*
X8468277Y-9980783D02*
X8458753Y-9961736D01*
X8458753Y-9961736D02*
X8449229Y-9923640D01*
X8449229Y-9923640D02*
X8449229Y-9876021D01*
X8449229Y-9876021D02*
X8458753Y-9837926D01*
X8458753Y-9837926D02*
X8468277Y-9818879D01*
X8468277Y-9818879D02*
X8477801Y-9809355D01*
X8477801Y-9809355D02*
X8496848Y-9799831D01*
X8630182Y-9799831D02*
X8753991Y-9799831D01*
X8753991Y-9799831D02*
X8687325Y-9876021D01*
X8687325Y-9876021D02*
X8715896Y-9876021D01*
X8715896Y-9876021D02*
X8734944Y-9885545D01*
X8734944Y-9885545D02*
X8744468Y-9895069D01*
X8744468Y-9895069D02*
X8753991Y-9914117D01*
X8753991Y-9914117D02*
X8753991Y-9961736D01*
X8753991Y-9961736D02*
X8744468Y-9980783D01*
X8744468Y-9980783D02*
X8734944Y-9990307D01*
X8734944Y-9990307D02*
X8715896Y-9999831D01*
X8715896Y-9999831D02*
X8658753Y-9999831D01*
X8658753Y-9999831D02*
X8639706Y-9990307D01*
X8639706Y-9990307D02*
X8630182Y-9980783D01*
X8944468Y-9999831D02*
X8830182Y-9999831D01*
X8887325Y-9999831D02*
X8887325Y-9799831D01*
X8887325Y-9799831D02*
X8868277Y-9828402D01*
X8868277Y-9828402D02*
X8849229Y-9847450D01*
X8849229Y-9847450D02*
X8830182Y-9856974D01*
X9125420Y-9799831D02*
X9030182Y-9799831D01*
X9030182Y-9799831D02*
X9020658Y-9895069D01*
X9020658Y-9895069D02*
X9030182Y-9885545D01*
X9030182Y-9885545D02*
X9049229Y-9876021D01*
X9049229Y-9876021D02*
X9096849Y-9876021D01*
X9096849Y-9876021D02*
X9115896Y-9885545D01*
X9115896Y-9885545D02*
X9125420Y-9895069D01*
X9125420Y-9895069D02*
X9134944Y-9914117D01*
X9134944Y-9914117D02*
X9134944Y-9961736D01*
X9134944Y-9961736D02*
X9125420Y-9980783D01*
X9125420Y-9980783D02*
X9115896Y-9990307D01*
X9115896Y-9990307D02*
X9096849Y-9999831D01*
X9096849Y-9999831D02*
X9049229Y-9999831D01*
X9049229Y-9999831D02*
X9030182Y-9990307D01*
X9030182Y-9990307D02*
X9020658Y-9980783D01*
X9211134Y-9799831D02*
X9211134Y-9837926D01*
X9287325Y-9799831D02*
X9287325Y-9837926D01*
X9582563Y-10076021D02*
X9573039Y-10066498D01*
X9573039Y-10066498D02*
X9553991Y-10037926D01*
X9553991Y-10037926D02*
X9544468Y-10018879D01*
X9544468Y-10018879D02*
X9534944Y-9990307D01*
X9534944Y-9990307D02*
X9525420Y-9942688D01*
X9525420Y-9942688D02*
X9525420Y-9904593D01*
X9525420Y-9904593D02*
X9534944Y-9856974D01*
X9534944Y-9856974D02*
X9544468Y-9828402D01*
X9544468Y-9828402D02*
X9553991Y-9809355D01*
X9553991Y-9809355D02*
X9573039Y-9780783D01*
X9573039Y-9780783D02*
X9582563Y-9771259D01*
X9687325Y-9885545D02*
X9668277Y-9876021D01*
X9668277Y-9876021D02*
X9658753Y-9866498D01*
X9658753Y-9866498D02*
X9649230Y-9847450D01*
X9649230Y-9847450D02*
X9649230Y-9837926D01*
X9649230Y-9837926D02*
X9658753Y-9818879D01*
X9658753Y-9818879D02*
X9668277Y-9809355D01*
X9668277Y-9809355D02*
X9687325Y-9799831D01*
X9687325Y-9799831D02*
X9725420Y-9799831D01*
X9725420Y-9799831D02*
X9744468Y-9809355D01*
X9744468Y-9809355D02*
X9753991Y-9818879D01*
X9753991Y-9818879D02*
X9763515Y-9837926D01*
X9763515Y-9837926D02*
X9763515Y-9847450D01*
X9763515Y-9847450D02*
X9753991Y-9866498D01*
X9753991Y-9866498D02*
X9744468Y-9876021D01*
X9744468Y-9876021D02*
X9725420Y-9885545D01*
X9725420Y-9885545D02*
X9687325Y-9885545D01*
X9687325Y-9885545D02*
X9668277Y-9895069D01*
X9668277Y-9895069D02*
X9658753Y-9904593D01*
X9658753Y-9904593D02*
X9649230Y-9923640D01*
X9649230Y-9923640D02*
X9649230Y-9961736D01*
X9649230Y-9961736D02*
X9658753Y-9980783D01*
X9658753Y-9980783D02*
X9668277Y-9990307D01*
X9668277Y-9990307D02*
X9687325Y-9999831D01*
X9687325Y-9999831D02*
X9725420Y-9999831D01*
X9725420Y-9999831D02*
X9744468Y-9990307D01*
X9744468Y-9990307D02*
X9753991Y-9980783D01*
X9753991Y-9980783D02*
X9763515Y-9961736D01*
X9763515Y-9961736D02*
X9763515Y-9923640D01*
X9763515Y-9923640D02*
X9753991Y-9904593D01*
X9753991Y-9904593D02*
X9744468Y-9895069D01*
X9744468Y-9895069D02*
X9725420Y-9885545D01*
X10001611Y-9999831D02*
X10001611Y-9799831D01*
X10087325Y-9999831D02*
X10087325Y-9895069D01*
X10087325Y-9895069D02*
X10077801Y-9876021D01*
X10077801Y-9876021D02*
X10058753Y-9866498D01*
X10058753Y-9866498D02*
X10030182Y-9866498D01*
X10030182Y-9866498D02*
X10011134Y-9876021D01*
X10011134Y-9876021D02*
X10001611Y-9885545D01*
X10211134Y-9999831D02*
X10192087Y-9990307D01*
X10192087Y-9990307D02*
X10182563Y-9980783D01*
X10182563Y-9980783D02*
X10173039Y-9961736D01*
X10173039Y-9961736D02*
X10173039Y-9904593D01*
X10173039Y-9904593D02*
X10182563Y-9885545D01*
X10182563Y-9885545D02*
X10192087Y-9876021D01*
X10192087Y-9876021D02*
X10211134Y-9866498D01*
X10211134Y-9866498D02*
X10239706Y-9866498D01*
X10239706Y-9866498D02*
X10258753Y-9876021D01*
X10258753Y-9876021D02*
X10268277Y-9885545D01*
X10268277Y-9885545D02*
X10277801Y-9904593D01*
X10277801Y-9904593D02*
X10277801Y-9961736D01*
X10277801Y-9961736D02*
X10268277Y-9980783D01*
X10268277Y-9980783D02*
X10258753Y-9990307D01*
X10258753Y-9990307D02*
X10239706Y-9999831D01*
X10239706Y-9999831D02*
X10211134Y-9999831D01*
X10392087Y-9999831D02*
X10373039Y-9990307D01*
X10373039Y-9990307D02*
X10363515Y-9971259D01*
X10363515Y-9971259D02*
X10363515Y-9799831D01*
X10544468Y-9990307D02*
X10525420Y-9999831D01*
X10525420Y-9999831D02*
X10487325Y-9999831D01*
X10487325Y-9999831D02*
X10468277Y-9990307D01*
X10468277Y-9990307D02*
X10458753Y-9971259D01*
X10458753Y-9971259D02*
X10458753Y-9895069D01*
X10458753Y-9895069D02*
X10468277Y-9876021D01*
X10468277Y-9876021D02*
X10487325Y-9866498D01*
X10487325Y-9866498D02*
X10525420Y-9866498D01*
X10525420Y-9866498D02*
X10544468Y-9876021D01*
X10544468Y-9876021D02*
X10553992Y-9895069D01*
X10553992Y-9895069D02*
X10553992Y-9914117D01*
X10553992Y-9914117D02*
X10458753Y-9933164D01*
X10630182Y-9990307D02*
X10649230Y-9999831D01*
X10649230Y-9999831D02*
X10687325Y-9999831D01*
X10687325Y-9999831D02*
X10706373Y-9990307D01*
X10706373Y-9990307D02*
X10715896Y-9971259D01*
X10715896Y-9971259D02*
X10715896Y-9961736D01*
X10715896Y-9961736D02*
X10706373Y-9942688D01*
X10706373Y-9942688D02*
X10687325Y-9933164D01*
X10687325Y-9933164D02*
X10658753Y-9933164D01*
X10658753Y-9933164D02*
X10639706Y-9923640D01*
X10639706Y-9923640D02*
X10630182Y-9904593D01*
X10630182Y-9904593D02*
X10630182Y-9895069D01*
X10630182Y-9895069D02*
X10639706Y-9876021D01*
X10639706Y-9876021D02*
X10658753Y-9866498D01*
X10658753Y-9866498D02*
X10687325Y-9866498D01*
X10687325Y-9866498D02*
X10706373Y-9876021D01*
X10782563Y-10076021D02*
X10792087Y-10066498D01*
X10792087Y-10066498D02*
X10811134Y-10037926D01*
X10811134Y-10037926D02*
X10820658Y-10018879D01*
X10820658Y-10018879D02*
X10830182Y-9990307D01*
X10830182Y-9990307D02*
X10839706Y-9942688D01*
X10839706Y-9942688D02*
X10839706Y-9904593D01*
X10839706Y-9904593D02*
X10830182Y-9856974D01*
X10830182Y-9856974D02*
X10820658Y-9828402D01*
X10820658Y-9828402D02*
X10811134Y-9809355D01*
X10811134Y-9809355D02*
X10792087Y-9780783D01*
X10792087Y-9780783D02*
X10782563Y-9771259D01*
D13*
X5952500Y-10117347D02*
X5952500Y-10227347D01*
X5897500Y-10172347D02*
X6007500Y-10172347D01*
D11*
X6373039Y-10263831D02*
X6258753Y-10263831D01*
X6315896Y-10263831D02*
X6315896Y-10063831D01*
X6315896Y-10063831D02*
X6296848Y-10092402D01*
X6296848Y-10092402D02*
X6277801Y-10111450D01*
X6277801Y-10111450D02*
X6258753Y-10120974D01*
X6458753Y-10244783D02*
X6468277Y-10254307D01*
X6468277Y-10254307D02*
X6458753Y-10263831D01*
X6458753Y-10263831D02*
X6449229Y-10254307D01*
X6449229Y-10254307D02*
X6458753Y-10244783D01*
X6458753Y-10244783D02*
X6458753Y-10263831D01*
X6658753Y-10263831D02*
X6544467Y-10263831D01*
X6601610Y-10263831D02*
X6601610Y-10063831D01*
X6601610Y-10063831D02*
X6582562Y-10092402D01*
X6582562Y-10092402D02*
X6563515Y-10111450D01*
X6563515Y-10111450D02*
X6544467Y-10120974D01*
X6782562Y-10063831D02*
X6801610Y-10063831D01*
X6801610Y-10063831D02*
X6820658Y-10073355D01*
X6820658Y-10073355D02*
X6830182Y-10082879D01*
X6830182Y-10082879D02*
X6839705Y-10101926D01*
X6839705Y-10101926D02*
X6849229Y-10140021D01*
X6849229Y-10140021D02*
X6849229Y-10187640D01*
X6849229Y-10187640D02*
X6839705Y-10225736D01*
X6839705Y-10225736D02*
X6830182Y-10244783D01*
X6830182Y-10244783D02*
X6820658Y-10254307D01*
X6820658Y-10254307D02*
X6801610Y-10263831D01*
X6801610Y-10263831D02*
X6782562Y-10263831D01*
X6782562Y-10263831D02*
X6763515Y-10254307D01*
X6763515Y-10254307D02*
X6753991Y-10244783D01*
X6753991Y-10244783D02*
X6744467Y-10225736D01*
X6744467Y-10225736D02*
X6734943Y-10187640D01*
X6734943Y-10187640D02*
X6734943Y-10140021D01*
X6734943Y-10140021D02*
X6744467Y-10101926D01*
X6744467Y-10101926D02*
X6753991Y-10082879D01*
X6753991Y-10082879D02*
X6763515Y-10073355D01*
X6763515Y-10073355D02*
X6782562Y-10063831D01*
X6973039Y-10063831D02*
X6992086Y-10063831D01*
X6992086Y-10063831D02*
X7011134Y-10073355D01*
X7011134Y-10073355D02*
X7020658Y-10082879D01*
X7020658Y-10082879D02*
X7030182Y-10101926D01*
X7030182Y-10101926D02*
X7039705Y-10140021D01*
X7039705Y-10140021D02*
X7039705Y-10187640D01*
X7039705Y-10187640D02*
X7030182Y-10225736D01*
X7030182Y-10225736D02*
X7020658Y-10244783D01*
X7020658Y-10244783D02*
X7011134Y-10254307D01*
X7011134Y-10254307D02*
X6992086Y-10263831D01*
X6992086Y-10263831D02*
X6973039Y-10263831D01*
X6973039Y-10263831D02*
X6953991Y-10254307D01*
X6953991Y-10254307D02*
X6944467Y-10244783D01*
X6944467Y-10244783D02*
X6934943Y-10225736D01*
X6934943Y-10225736D02*
X6925420Y-10187640D01*
X6925420Y-10187640D02*
X6925420Y-10140021D01*
X6925420Y-10140021D02*
X6934943Y-10101926D01*
X6934943Y-10101926D02*
X6944467Y-10082879D01*
X6944467Y-10082879D02*
X6953991Y-10073355D01*
X6953991Y-10073355D02*
X6973039Y-10063831D01*
X7125420Y-10263831D02*
X7125420Y-10130498D01*
X7125420Y-10149545D02*
X7134943Y-10140021D01*
X7134943Y-10140021D02*
X7153991Y-10130498D01*
X7153991Y-10130498D02*
X7182563Y-10130498D01*
X7182563Y-10130498D02*
X7201610Y-10140021D01*
X7201610Y-10140021D02*
X7211134Y-10159069D01*
X7211134Y-10159069D02*
X7211134Y-10263831D01*
X7211134Y-10159069D02*
X7220658Y-10140021D01*
X7220658Y-10140021D02*
X7239705Y-10130498D01*
X7239705Y-10130498D02*
X7268277Y-10130498D01*
X7268277Y-10130498D02*
X7287324Y-10140021D01*
X7287324Y-10140021D02*
X7296848Y-10159069D01*
X7296848Y-10159069D02*
X7296848Y-10263831D01*
X7392086Y-10263831D02*
X7392086Y-10130498D01*
X7392086Y-10149545D02*
X7401610Y-10140021D01*
X7401610Y-10140021D02*
X7420658Y-10130498D01*
X7420658Y-10130498D02*
X7449229Y-10130498D01*
X7449229Y-10130498D02*
X7468277Y-10140021D01*
X7468277Y-10140021D02*
X7477801Y-10159069D01*
X7477801Y-10159069D02*
X7477801Y-10263831D01*
X7477801Y-10159069D02*
X7487324Y-10140021D01*
X7487324Y-10140021D02*
X7506372Y-10130498D01*
X7506372Y-10130498D02*
X7534943Y-10130498D01*
X7534943Y-10130498D02*
X7553991Y-10140021D01*
X7553991Y-10140021D02*
X7563515Y-10159069D01*
X7563515Y-10159069D02*
X7563515Y-10263831D01*
X7953991Y-10054307D02*
X7782563Y-10311450D01*
X8211134Y-10063831D02*
X8230182Y-10063831D01*
X8230182Y-10063831D02*
X8249229Y-10073355D01*
X8249229Y-10073355D02*
X8258753Y-10082879D01*
X8258753Y-10082879D02*
X8268277Y-10101926D01*
X8268277Y-10101926D02*
X8277801Y-10140021D01*
X8277801Y-10140021D02*
X8277801Y-10187640D01*
X8277801Y-10187640D02*
X8268277Y-10225736D01*
X8268277Y-10225736D02*
X8258753Y-10244783D01*
X8258753Y-10244783D02*
X8249229Y-10254307D01*
X8249229Y-10254307D02*
X8230182Y-10263831D01*
X8230182Y-10263831D02*
X8211134Y-10263831D01*
X8211134Y-10263831D02*
X8192086Y-10254307D01*
X8192086Y-10254307D02*
X8182563Y-10244783D01*
X8182563Y-10244783D02*
X8173039Y-10225736D01*
X8173039Y-10225736D02*
X8163515Y-10187640D01*
X8163515Y-10187640D02*
X8163515Y-10140021D01*
X8163515Y-10140021D02*
X8173039Y-10101926D01*
X8173039Y-10101926D02*
X8182563Y-10082879D01*
X8182563Y-10082879D02*
X8192086Y-10073355D01*
X8192086Y-10073355D02*
X8211134Y-10063831D01*
X8363515Y-10244783D02*
X8373039Y-10254307D01*
X8373039Y-10254307D02*
X8363515Y-10263831D01*
X8363515Y-10263831D02*
X8353991Y-10254307D01*
X8353991Y-10254307D02*
X8363515Y-10244783D01*
X8363515Y-10244783D02*
X8363515Y-10263831D01*
X8496848Y-10063831D02*
X8515896Y-10063831D01*
X8515896Y-10063831D02*
X8534944Y-10073355D01*
X8534944Y-10073355D02*
X8544468Y-10082879D01*
X8544468Y-10082879D02*
X8553991Y-10101926D01*
X8553991Y-10101926D02*
X8563515Y-10140021D01*
X8563515Y-10140021D02*
X8563515Y-10187640D01*
X8563515Y-10187640D02*
X8553991Y-10225736D01*
X8553991Y-10225736D02*
X8544468Y-10244783D01*
X8544468Y-10244783D02*
X8534944Y-10254307D01*
X8534944Y-10254307D02*
X8515896Y-10263831D01*
X8515896Y-10263831D02*
X8496848Y-10263831D01*
X8496848Y-10263831D02*
X8477801Y-10254307D01*
X8477801Y-10254307D02*
X8468277Y-10244783D01*
X8468277Y-10244783D02*
X8458753Y-10225736D01*
X8458753Y-10225736D02*
X8449229Y-10187640D01*
X8449229Y-10187640D02*
X8449229Y-10140021D01*
X8449229Y-10140021D02*
X8458753Y-10101926D01*
X8458753Y-10101926D02*
X8468277Y-10082879D01*
X8468277Y-10082879D02*
X8477801Y-10073355D01*
X8477801Y-10073355D02*
X8496848Y-10063831D01*
X8734944Y-10130498D02*
X8734944Y-10263831D01*
X8687325Y-10054307D02*
X8639706Y-10197164D01*
X8639706Y-10197164D02*
X8763515Y-10197164D01*
X8820658Y-10063831D02*
X8944468Y-10063831D01*
X8944468Y-10063831D02*
X8877801Y-10140021D01*
X8877801Y-10140021D02*
X8906372Y-10140021D01*
X8906372Y-10140021D02*
X8925420Y-10149545D01*
X8925420Y-10149545D02*
X8934944Y-10159069D01*
X8934944Y-10159069D02*
X8944468Y-10178117D01*
X8944468Y-10178117D02*
X8944468Y-10225736D01*
X8944468Y-10225736D02*
X8934944Y-10244783D01*
X8934944Y-10244783D02*
X8925420Y-10254307D01*
X8925420Y-10254307D02*
X8906372Y-10263831D01*
X8906372Y-10263831D02*
X8849229Y-10263831D01*
X8849229Y-10263831D02*
X8830182Y-10254307D01*
X8830182Y-10254307D02*
X8820658Y-10244783D01*
X9011134Y-10063831D02*
X9134944Y-10063831D01*
X9134944Y-10063831D02*
X9068277Y-10140021D01*
X9068277Y-10140021D02*
X9096849Y-10140021D01*
X9096849Y-10140021D02*
X9115896Y-10149545D01*
X9115896Y-10149545D02*
X9125420Y-10159069D01*
X9125420Y-10159069D02*
X9134944Y-10178117D01*
X9134944Y-10178117D02*
X9134944Y-10225736D01*
X9134944Y-10225736D02*
X9125420Y-10244783D01*
X9125420Y-10244783D02*
X9115896Y-10254307D01*
X9115896Y-10254307D02*
X9096849Y-10263831D01*
X9096849Y-10263831D02*
X9039706Y-10263831D01*
X9039706Y-10263831D02*
X9020658Y-10254307D01*
X9020658Y-10254307D02*
X9011134Y-10244783D01*
X9211134Y-10063831D02*
X9211134Y-10101926D01*
X9287325Y-10063831D02*
X9287325Y-10101926D01*
X9582563Y-10340021D02*
X9573039Y-10330498D01*
X9573039Y-10330498D02*
X9553991Y-10301926D01*
X9553991Y-10301926D02*
X9544468Y-10282879D01*
X9544468Y-10282879D02*
X9534944Y-10254307D01*
X9534944Y-10254307D02*
X9525420Y-10206688D01*
X9525420Y-10206688D02*
X9525420Y-10168593D01*
X9525420Y-10168593D02*
X9534944Y-10120974D01*
X9534944Y-10120974D02*
X9544468Y-10092402D01*
X9544468Y-10092402D02*
X9553991Y-10073355D01*
X9553991Y-10073355D02*
X9573039Y-10044783D01*
X9573039Y-10044783D02*
X9582563Y-10035259D01*
X9753991Y-10063831D02*
X9658753Y-10063831D01*
X9658753Y-10063831D02*
X9649230Y-10159069D01*
X9649230Y-10159069D02*
X9658753Y-10149545D01*
X9658753Y-10149545D02*
X9677801Y-10140021D01*
X9677801Y-10140021D02*
X9725420Y-10140021D01*
X9725420Y-10140021D02*
X9744468Y-10149545D01*
X9744468Y-10149545D02*
X9753991Y-10159069D01*
X9753991Y-10159069D02*
X9763515Y-10178117D01*
X9763515Y-10178117D02*
X9763515Y-10225736D01*
X9763515Y-10225736D02*
X9753991Y-10244783D01*
X9753991Y-10244783D02*
X9744468Y-10254307D01*
X9744468Y-10254307D02*
X9725420Y-10263831D01*
X9725420Y-10263831D02*
X9677801Y-10263831D01*
X9677801Y-10263831D02*
X9658753Y-10254307D01*
X9658753Y-10254307D02*
X9649230Y-10244783D01*
X9858753Y-10263831D02*
X9896849Y-10263831D01*
X9896849Y-10263831D02*
X9915896Y-10254307D01*
X9915896Y-10254307D02*
X9925420Y-10244783D01*
X9925420Y-10244783D02*
X9944468Y-10216212D01*
X9944468Y-10216212D02*
X9953991Y-10178117D01*
X9953991Y-10178117D02*
X9953991Y-10101926D01*
X9953991Y-10101926D02*
X9944468Y-10082879D01*
X9944468Y-10082879D02*
X9934944Y-10073355D01*
X9934944Y-10073355D02*
X9915896Y-10063831D01*
X9915896Y-10063831D02*
X9877801Y-10063831D01*
X9877801Y-10063831D02*
X9858753Y-10073355D01*
X9858753Y-10073355D02*
X9849230Y-10082879D01*
X9849230Y-10082879D02*
X9839706Y-10101926D01*
X9839706Y-10101926D02*
X9839706Y-10149545D01*
X9839706Y-10149545D02*
X9849230Y-10168593D01*
X9849230Y-10168593D02*
X9858753Y-10178117D01*
X9858753Y-10178117D02*
X9877801Y-10187640D01*
X9877801Y-10187640D02*
X9915896Y-10187640D01*
X9915896Y-10187640D02*
X9934944Y-10178117D01*
X9934944Y-10178117D02*
X9944468Y-10168593D01*
X9944468Y-10168593D02*
X9953991Y-10149545D01*
X10192087Y-10263831D02*
X10192087Y-10063831D01*
X10277801Y-10263831D02*
X10277801Y-10159069D01*
X10277801Y-10159069D02*
X10268277Y-10140021D01*
X10268277Y-10140021D02*
X10249230Y-10130498D01*
X10249230Y-10130498D02*
X10220658Y-10130498D01*
X10220658Y-10130498D02*
X10201611Y-10140021D01*
X10201611Y-10140021D02*
X10192087Y-10149545D01*
X10401611Y-10263831D02*
X10382563Y-10254307D01*
X10382563Y-10254307D02*
X10373039Y-10244783D01*
X10373039Y-10244783D02*
X10363515Y-10225736D01*
X10363515Y-10225736D02*
X10363515Y-10168593D01*
X10363515Y-10168593D02*
X10373039Y-10149545D01*
X10373039Y-10149545D02*
X10382563Y-10140021D01*
X10382563Y-10140021D02*
X10401611Y-10130498D01*
X10401611Y-10130498D02*
X10430182Y-10130498D01*
X10430182Y-10130498D02*
X10449230Y-10140021D01*
X10449230Y-10140021D02*
X10458753Y-10149545D01*
X10458753Y-10149545D02*
X10468277Y-10168593D01*
X10468277Y-10168593D02*
X10468277Y-10225736D01*
X10468277Y-10225736D02*
X10458753Y-10244783D01*
X10458753Y-10244783D02*
X10449230Y-10254307D01*
X10449230Y-10254307D02*
X10430182Y-10263831D01*
X10430182Y-10263831D02*
X10401611Y-10263831D01*
X10582563Y-10263831D02*
X10563515Y-10254307D01*
X10563515Y-10254307D02*
X10553992Y-10235259D01*
X10553992Y-10235259D02*
X10553992Y-10063831D01*
X10734944Y-10254307D02*
X10715896Y-10263831D01*
X10715896Y-10263831D02*
X10677801Y-10263831D01*
X10677801Y-10263831D02*
X10658753Y-10254307D01*
X10658753Y-10254307D02*
X10649230Y-10235259D01*
X10649230Y-10235259D02*
X10649230Y-10159069D01*
X10649230Y-10159069D02*
X10658753Y-10140021D01*
X10658753Y-10140021D02*
X10677801Y-10130498D01*
X10677801Y-10130498D02*
X10715896Y-10130498D01*
X10715896Y-10130498D02*
X10734944Y-10140021D01*
X10734944Y-10140021D02*
X10744468Y-10159069D01*
X10744468Y-10159069D02*
X10744468Y-10178117D01*
X10744468Y-10178117D02*
X10649230Y-10197164D01*
X10820658Y-10254307D02*
X10839706Y-10263831D01*
X10839706Y-10263831D02*
X10877801Y-10263831D01*
X10877801Y-10263831D02*
X10896849Y-10254307D01*
X10896849Y-10254307D02*
X10906373Y-10235259D01*
X10906373Y-10235259D02*
X10906373Y-10225736D01*
X10906373Y-10225736D02*
X10896849Y-10206688D01*
X10896849Y-10206688D02*
X10877801Y-10197164D01*
X10877801Y-10197164D02*
X10849230Y-10197164D01*
X10849230Y-10197164D02*
X10830182Y-10187640D01*
X10830182Y-10187640D02*
X10820658Y-10168593D01*
X10820658Y-10168593D02*
X10820658Y-10159069D01*
X10820658Y-10159069D02*
X10830182Y-10140021D01*
X10830182Y-10140021D02*
X10849230Y-10130498D01*
X10849230Y-10130498D02*
X10877801Y-10130498D01*
X10877801Y-10130498D02*
X10896849Y-10140021D01*
X10973039Y-10340021D02*
X10982563Y-10330498D01*
X10982563Y-10330498D02*
X11001611Y-10301926D01*
X11001611Y-10301926D02*
X11011134Y-10282879D01*
X11011134Y-10282879D02*
X11020658Y-10254307D01*
X11020658Y-10254307D02*
X11030182Y-10206688D01*
X11030182Y-10206688D02*
X11030182Y-10168593D01*
X11030182Y-10168593D02*
X11020658Y-10120974D01*
X11020658Y-10120974D02*
X11011134Y-10092402D01*
X11011134Y-10092402D02*
X11001611Y-10073355D01*
X11001611Y-10073355D02*
X10982563Y-10044783D01*
X10982563Y-10044783D02*
X10973039Y-10035259D01*
D14*
X5990761Y-10476759D02*
X5990761Y-10395936D01*
X5909938Y-10395936D01*
X5909938Y-10476759D01*
X5990761Y-10476759D01*
D11*
X6373039Y-10527831D02*
X6258753Y-10527831D01*
X6315896Y-10527831D02*
X6315896Y-10327831D01*
X6315896Y-10327831D02*
X6296848Y-10356402D01*
X6296848Y-10356402D02*
X6277801Y-10375450D01*
X6277801Y-10375450D02*
X6258753Y-10384974D01*
X6458753Y-10508783D02*
X6468277Y-10518307D01*
X6468277Y-10518307D02*
X6458753Y-10527831D01*
X6458753Y-10527831D02*
X6449229Y-10518307D01*
X6449229Y-10518307D02*
X6458753Y-10508783D01*
X6458753Y-10508783D02*
X6458753Y-10527831D01*
X6658753Y-10527831D02*
X6544467Y-10527831D01*
X6601610Y-10527831D02*
X6601610Y-10327831D01*
X6601610Y-10327831D02*
X6582562Y-10356402D01*
X6582562Y-10356402D02*
X6563515Y-10375450D01*
X6563515Y-10375450D02*
X6544467Y-10384974D01*
X6830182Y-10394498D02*
X6830182Y-10527831D01*
X6782562Y-10318307D02*
X6734943Y-10461164D01*
X6734943Y-10461164D02*
X6858753Y-10461164D01*
X6915896Y-10327831D02*
X7039705Y-10327831D01*
X7039705Y-10327831D02*
X6973039Y-10404021D01*
X6973039Y-10404021D02*
X7001610Y-10404021D01*
X7001610Y-10404021D02*
X7020658Y-10413545D01*
X7020658Y-10413545D02*
X7030182Y-10423069D01*
X7030182Y-10423069D02*
X7039705Y-10442117D01*
X7039705Y-10442117D02*
X7039705Y-10489736D01*
X7039705Y-10489736D02*
X7030182Y-10508783D01*
X7030182Y-10508783D02*
X7020658Y-10518307D01*
X7020658Y-10518307D02*
X7001610Y-10527831D01*
X7001610Y-10527831D02*
X6944467Y-10527831D01*
X6944467Y-10527831D02*
X6925420Y-10518307D01*
X6925420Y-10518307D02*
X6915896Y-10508783D01*
X7125420Y-10527831D02*
X7125420Y-10394498D01*
X7125420Y-10413545D02*
X7134943Y-10404021D01*
X7134943Y-10404021D02*
X7153991Y-10394498D01*
X7153991Y-10394498D02*
X7182563Y-10394498D01*
X7182563Y-10394498D02*
X7201610Y-10404021D01*
X7201610Y-10404021D02*
X7211134Y-10423069D01*
X7211134Y-10423069D02*
X7211134Y-10527831D01*
X7211134Y-10423069D02*
X7220658Y-10404021D01*
X7220658Y-10404021D02*
X7239705Y-10394498D01*
X7239705Y-10394498D02*
X7268277Y-10394498D01*
X7268277Y-10394498D02*
X7287324Y-10404021D01*
X7287324Y-10404021D02*
X7296848Y-10423069D01*
X7296848Y-10423069D02*
X7296848Y-10527831D01*
X7392086Y-10527831D02*
X7392086Y-10394498D01*
X7392086Y-10413545D02*
X7401610Y-10404021D01*
X7401610Y-10404021D02*
X7420658Y-10394498D01*
X7420658Y-10394498D02*
X7449229Y-10394498D01*
X7449229Y-10394498D02*
X7468277Y-10404021D01*
X7468277Y-10404021D02*
X7477801Y-10423069D01*
X7477801Y-10423069D02*
X7477801Y-10527831D01*
X7477801Y-10423069D02*
X7487324Y-10404021D01*
X7487324Y-10404021D02*
X7506372Y-10394498D01*
X7506372Y-10394498D02*
X7534943Y-10394498D01*
X7534943Y-10394498D02*
X7553991Y-10404021D01*
X7553991Y-10404021D02*
X7563515Y-10423069D01*
X7563515Y-10423069D02*
X7563515Y-10527831D01*
X7953991Y-10318307D02*
X7782563Y-10575450D01*
X8211134Y-10327831D02*
X8230182Y-10327831D01*
X8230182Y-10327831D02*
X8249229Y-10337355D01*
X8249229Y-10337355D02*
X8258753Y-10346879D01*
X8258753Y-10346879D02*
X8268277Y-10365926D01*
X8268277Y-10365926D02*
X8277801Y-10404021D01*
X8277801Y-10404021D02*
X8277801Y-10451640D01*
X8277801Y-10451640D02*
X8268277Y-10489736D01*
X8268277Y-10489736D02*
X8258753Y-10508783D01*
X8258753Y-10508783D02*
X8249229Y-10518307D01*
X8249229Y-10518307D02*
X8230182Y-10527831D01*
X8230182Y-10527831D02*
X8211134Y-10527831D01*
X8211134Y-10527831D02*
X8192086Y-10518307D01*
X8192086Y-10518307D02*
X8182563Y-10508783D01*
X8182563Y-10508783D02*
X8173039Y-10489736D01*
X8173039Y-10489736D02*
X8163515Y-10451640D01*
X8163515Y-10451640D02*
X8163515Y-10404021D01*
X8163515Y-10404021D02*
X8173039Y-10365926D01*
X8173039Y-10365926D02*
X8182563Y-10346879D01*
X8182563Y-10346879D02*
X8192086Y-10337355D01*
X8192086Y-10337355D02*
X8211134Y-10327831D01*
X8363515Y-10508783D02*
X8373039Y-10518307D01*
X8373039Y-10518307D02*
X8363515Y-10527831D01*
X8363515Y-10527831D02*
X8353991Y-10518307D01*
X8353991Y-10518307D02*
X8363515Y-10508783D01*
X8363515Y-10508783D02*
X8363515Y-10527831D01*
X8496848Y-10327831D02*
X8515896Y-10327831D01*
X8515896Y-10327831D02*
X8534944Y-10337355D01*
X8534944Y-10337355D02*
X8544468Y-10346879D01*
X8544468Y-10346879D02*
X8553991Y-10365926D01*
X8553991Y-10365926D02*
X8563515Y-10404021D01*
X8563515Y-10404021D02*
X8563515Y-10451640D01*
X8563515Y-10451640D02*
X8553991Y-10489736D01*
X8553991Y-10489736D02*
X8544468Y-10508783D01*
X8544468Y-10508783D02*
X8534944Y-10518307D01*
X8534944Y-10518307D02*
X8515896Y-10527831D01*
X8515896Y-10527831D02*
X8496848Y-10527831D01*
X8496848Y-10527831D02*
X8477801Y-10518307D01*
X8477801Y-10518307D02*
X8468277Y-10508783D01*
X8468277Y-10508783D02*
X8458753Y-10489736D01*
X8458753Y-10489736D02*
X8449229Y-10451640D01*
X8449229Y-10451640D02*
X8449229Y-10404021D01*
X8449229Y-10404021D02*
X8458753Y-10365926D01*
X8458753Y-10365926D02*
X8468277Y-10346879D01*
X8468277Y-10346879D02*
X8477801Y-10337355D01*
X8477801Y-10337355D02*
X8496848Y-10327831D01*
X8734944Y-10394498D02*
X8734944Y-10527831D01*
X8687325Y-10318307D02*
X8639706Y-10461164D01*
X8639706Y-10461164D02*
X8763515Y-10461164D01*
X8934944Y-10327831D02*
X8839706Y-10327831D01*
X8839706Y-10327831D02*
X8830182Y-10423069D01*
X8830182Y-10423069D02*
X8839706Y-10413545D01*
X8839706Y-10413545D02*
X8858753Y-10404021D01*
X8858753Y-10404021D02*
X8906372Y-10404021D01*
X8906372Y-10404021D02*
X8925420Y-10413545D01*
X8925420Y-10413545D02*
X8934944Y-10423069D01*
X8934944Y-10423069D02*
X8944468Y-10442117D01*
X8944468Y-10442117D02*
X8944468Y-10489736D01*
X8944468Y-10489736D02*
X8934944Y-10508783D01*
X8934944Y-10508783D02*
X8925420Y-10518307D01*
X8925420Y-10518307D02*
X8906372Y-10527831D01*
X8906372Y-10527831D02*
X8858753Y-10527831D01*
X8858753Y-10527831D02*
X8839706Y-10518307D01*
X8839706Y-10518307D02*
X8830182Y-10508783D01*
X9068277Y-10327831D02*
X9087325Y-10327831D01*
X9087325Y-10327831D02*
X9106372Y-10337355D01*
X9106372Y-10337355D02*
X9115896Y-10346879D01*
X9115896Y-10346879D02*
X9125420Y-10365926D01*
X9125420Y-10365926D02*
X9134944Y-10404021D01*
X9134944Y-10404021D02*
X9134944Y-10451640D01*
X9134944Y-10451640D02*
X9125420Y-10489736D01*
X9125420Y-10489736D02*
X9115896Y-10508783D01*
X9115896Y-10508783D02*
X9106372Y-10518307D01*
X9106372Y-10518307D02*
X9087325Y-10527831D01*
X9087325Y-10527831D02*
X9068277Y-10527831D01*
X9068277Y-10527831D02*
X9049229Y-10518307D01*
X9049229Y-10518307D02*
X9039706Y-10508783D01*
X9039706Y-10508783D02*
X9030182Y-10489736D01*
X9030182Y-10489736D02*
X9020658Y-10451640D01*
X9020658Y-10451640D02*
X9020658Y-10404021D01*
X9020658Y-10404021D02*
X9030182Y-10365926D01*
X9030182Y-10365926D02*
X9039706Y-10346879D01*
X9039706Y-10346879D02*
X9049229Y-10337355D01*
X9049229Y-10337355D02*
X9068277Y-10327831D01*
X9211134Y-10327831D02*
X9211134Y-10365926D01*
X9287325Y-10327831D02*
X9287325Y-10365926D01*
X9582563Y-10604021D02*
X9573039Y-10594498D01*
X9573039Y-10594498D02*
X9553991Y-10565926D01*
X9553991Y-10565926D02*
X9544468Y-10546879D01*
X9544468Y-10546879D02*
X9534944Y-10518307D01*
X9534944Y-10518307D02*
X9525420Y-10470688D01*
X9525420Y-10470688D02*
X9525420Y-10432593D01*
X9525420Y-10432593D02*
X9534944Y-10384974D01*
X9534944Y-10384974D02*
X9544468Y-10356402D01*
X9544468Y-10356402D02*
X9553991Y-10337355D01*
X9553991Y-10337355D02*
X9573039Y-10308783D01*
X9573039Y-10308783D02*
X9582563Y-10299259D01*
X9744468Y-10394498D02*
X9744468Y-10527831D01*
X9696849Y-10318307D02*
X9649230Y-10461164D01*
X9649230Y-10461164D02*
X9773039Y-10461164D01*
X9887325Y-10327831D02*
X9906372Y-10327831D01*
X9906372Y-10327831D02*
X9925420Y-10337355D01*
X9925420Y-10337355D02*
X9934944Y-10346879D01*
X9934944Y-10346879D02*
X9944468Y-10365926D01*
X9944468Y-10365926D02*
X9953991Y-10404021D01*
X9953991Y-10404021D02*
X9953991Y-10451640D01*
X9953991Y-10451640D02*
X9944468Y-10489736D01*
X9944468Y-10489736D02*
X9934944Y-10508783D01*
X9934944Y-10508783D02*
X9925420Y-10518307D01*
X9925420Y-10518307D02*
X9906372Y-10527831D01*
X9906372Y-10527831D02*
X9887325Y-10527831D01*
X9887325Y-10527831D02*
X9868277Y-10518307D01*
X9868277Y-10518307D02*
X9858753Y-10508783D01*
X9858753Y-10508783D02*
X9849230Y-10489736D01*
X9849230Y-10489736D02*
X9839706Y-10451640D01*
X9839706Y-10451640D02*
X9839706Y-10404021D01*
X9839706Y-10404021D02*
X9849230Y-10365926D01*
X9849230Y-10365926D02*
X9858753Y-10346879D01*
X9858753Y-10346879D02*
X9868277Y-10337355D01*
X9868277Y-10337355D02*
X9887325Y-10327831D01*
X10192087Y-10527831D02*
X10192087Y-10327831D01*
X10277801Y-10527831D02*
X10277801Y-10423069D01*
X10277801Y-10423069D02*
X10268277Y-10404021D01*
X10268277Y-10404021D02*
X10249230Y-10394498D01*
X10249230Y-10394498D02*
X10220658Y-10394498D01*
X10220658Y-10394498D02*
X10201611Y-10404021D01*
X10201611Y-10404021D02*
X10192087Y-10413545D01*
X10401611Y-10527831D02*
X10382563Y-10518307D01*
X10382563Y-10518307D02*
X10373039Y-10508783D01*
X10373039Y-10508783D02*
X10363515Y-10489736D01*
X10363515Y-10489736D02*
X10363515Y-10432593D01*
X10363515Y-10432593D02*
X10373039Y-10413545D01*
X10373039Y-10413545D02*
X10382563Y-10404021D01*
X10382563Y-10404021D02*
X10401611Y-10394498D01*
X10401611Y-10394498D02*
X10430182Y-10394498D01*
X10430182Y-10394498D02*
X10449230Y-10404021D01*
X10449230Y-10404021D02*
X10458753Y-10413545D01*
X10458753Y-10413545D02*
X10468277Y-10432593D01*
X10468277Y-10432593D02*
X10468277Y-10489736D01*
X10468277Y-10489736D02*
X10458753Y-10508783D01*
X10458753Y-10508783D02*
X10449230Y-10518307D01*
X10449230Y-10518307D02*
X10430182Y-10527831D01*
X10430182Y-10527831D02*
X10401611Y-10527831D01*
X10582563Y-10527831D02*
X10563515Y-10518307D01*
X10563515Y-10518307D02*
X10553992Y-10499259D01*
X10553992Y-10499259D02*
X10553992Y-10327831D01*
X10734944Y-10518307D02*
X10715896Y-10527831D01*
X10715896Y-10527831D02*
X10677801Y-10527831D01*
X10677801Y-10527831D02*
X10658753Y-10518307D01*
X10658753Y-10518307D02*
X10649230Y-10499259D01*
X10649230Y-10499259D02*
X10649230Y-10423069D01*
X10649230Y-10423069D02*
X10658753Y-10404021D01*
X10658753Y-10404021D02*
X10677801Y-10394498D01*
X10677801Y-10394498D02*
X10715896Y-10394498D01*
X10715896Y-10394498D02*
X10734944Y-10404021D01*
X10734944Y-10404021D02*
X10744468Y-10423069D01*
X10744468Y-10423069D02*
X10744468Y-10442117D01*
X10744468Y-10442117D02*
X10649230Y-10461164D01*
X10820658Y-10518307D02*
X10839706Y-10527831D01*
X10839706Y-10527831D02*
X10877801Y-10527831D01*
X10877801Y-10527831D02*
X10896849Y-10518307D01*
X10896849Y-10518307D02*
X10906373Y-10499259D01*
X10906373Y-10499259D02*
X10906373Y-10489736D01*
X10906373Y-10489736D02*
X10896849Y-10470688D01*
X10896849Y-10470688D02*
X10877801Y-10461164D01*
X10877801Y-10461164D02*
X10849230Y-10461164D01*
X10849230Y-10461164D02*
X10830182Y-10451640D01*
X10830182Y-10451640D02*
X10820658Y-10432593D01*
X10820658Y-10432593D02*
X10820658Y-10423069D01*
X10820658Y-10423069D02*
X10830182Y-10404021D01*
X10830182Y-10404021D02*
X10849230Y-10394498D01*
X10849230Y-10394498D02*
X10877801Y-10394498D01*
X10877801Y-10394498D02*
X10896849Y-10404021D01*
X10973039Y-10604021D02*
X10982563Y-10594498D01*
X10982563Y-10594498D02*
X11001611Y-10565926D01*
X11001611Y-10565926D02*
X11011134Y-10546879D01*
X11011134Y-10546879D02*
X11020658Y-10518307D01*
X11020658Y-10518307D02*
X11030182Y-10470688D01*
X11030182Y-10470688D02*
X11030182Y-10432593D01*
X11030182Y-10432593D02*
X11020658Y-10384974D01*
X11020658Y-10384974D02*
X11011134Y-10356402D01*
X11011134Y-10356402D02*
X11001611Y-10337355D01*
X11001611Y-10337355D02*
X10982563Y-10308783D01*
X10982563Y-10308783D02*
X10973039Y-10299259D01*
M02*
