%TF.GenerationSoftware,KiCad,Pcbnew,8.0.3-1.fc40*%
%TF.CreationDate,2024-07-09T23:56:32-04:00*%
%TF.ProjectId,sensor_v3,73656e73-6f72-45f7-9633-2e6b69636164,rev?*%
%TF.SameCoordinates,Original*%
%TF.FileFunction,Drillmap*%
%TF.FilePolarity,Positive*%
%FSLAX45Y45*%
G04 Gerber Fmt 4.5, Leading zero omitted, Abs format (unit mm)*
G04 Created by KiCad (PCBNEW 8.0.3-1.fc40) date 2024-07-09 23:56:32*
%MOMM*%
%LPD*%
G01*
G04 APERTURE LIST*
%ADD10C,0.050000*%
%ADD11C,0.200000*%
%ADD12C,0.100000*%
%ADD13C,0.114300*%
G04 APERTURE END LIST*
D10*
X3100000Y-2650000D02*
G75*
G02*
X2900000Y-2650000I-100000J0D01*
G01*
X2900000Y-2650000D02*
G75*
G02*
X3100000Y-2650000I100000J0D01*
G01*
X5800000Y-2250000D02*
G75*
G02*
X5600000Y-2250000I-100000J0D01*
G01*
X5600000Y-2250000D02*
G75*
G02*
X5800000Y-2250000I100000J0D01*
G01*
X4400000Y-2650000D02*
G75*
G02*
X4200000Y-2650000I-100000J0D01*
G01*
X4200000Y-2650000D02*
G75*
G02*
X4400000Y-2650000I100000J0D01*
G01*
X6500000Y-2650000D02*
G75*
G02*
X6300000Y-2650000I-100000J0D01*
G01*
X6300000Y-2650000D02*
G75*
G02*
X6500000Y-2650000I100000J0D01*
G01*
X4400000Y-2250000D02*
G75*
G02*
X4200000Y-2250000I-100000J0D01*
G01*
X4200000Y-2250000D02*
G75*
G02*
X4400000Y-2250000I100000J0D01*
G01*
X3100000Y-2250000D02*
G75*
G02*
X2900000Y-2250000I-100000J0D01*
G01*
X2900000Y-2250000D02*
G75*
G02*
X3100000Y-2250000I100000J0D01*
G01*
X2250000Y-2630000D02*
G75*
G02*
X2050000Y-2630000I-100000J0D01*
G01*
X2050000Y-2630000D02*
G75*
G02*
X2250000Y-2630000I100000J0D01*
G01*
X5800000Y-2650000D02*
G75*
G02*
X5600000Y-2650000I-100000J0D01*
G01*
X5600000Y-2650000D02*
G75*
G02*
X5800000Y-2650000I100000J0D01*
G01*
X6760000Y-2010000D02*
X6760000Y-2740000D01*
X6600000Y-2900000D01*
X3200000Y-2900000D01*
X3200000Y-3250000D01*
X3050000Y-3400000D01*
X2000000Y-3400000D01*
X1930000Y-3330000D01*
X1930000Y-2070000D01*
X2100000Y-1900000D01*
X6650000Y-1900000D01*
X6760000Y-2010000D01*
D11*
D12*
X2066000Y-2236000D02*
X2146000Y-2316000D01*
X2146000Y-2236000D02*
X2066000Y-2316000D01*
X2320000Y-2236000D02*
X2400000Y-2316000D01*
X2400000Y-2236000D02*
X2320000Y-2316000D01*
X2574000Y-2236000D02*
X2654000Y-2316000D01*
X2654000Y-2236000D02*
X2574000Y-2316000D01*
X3406000Y-2236000D02*
X3486000Y-2316000D01*
X3486000Y-2236000D02*
X3406000Y-2316000D01*
X3660000Y-2236000D02*
X3740000Y-2316000D01*
X3740000Y-2236000D02*
X3660000Y-2316000D01*
X3914000Y-2236000D02*
X3994000Y-2316000D01*
X3994000Y-2236000D02*
X3914000Y-2316000D01*
X4746000Y-2236000D02*
X4826000Y-2316000D01*
X4826000Y-2236000D02*
X4746000Y-2316000D01*
X5000000Y-2236000D02*
X5080000Y-2316000D01*
X5080000Y-2236000D02*
X5000000Y-2316000D01*
X5254000Y-2236000D02*
X5334000Y-2316000D01*
X5334000Y-2236000D02*
X5254000Y-2316000D01*
X6086000Y-2236000D02*
X6166000Y-2316000D01*
X6166000Y-2236000D02*
X6086000Y-2316000D01*
X6340000Y-2236000D02*
X6420000Y-2316000D01*
X6420000Y-2236000D02*
X6340000Y-2316000D01*
X6594000Y-2236000D02*
X6674000Y-2316000D01*
X6674000Y-2236000D02*
X6594000Y-2316000D01*
D13*
X2205150Y-2920000D02*
G75*
G02*
X2090850Y-2920000I-57150J0D01*
G01*
X2090850Y-2920000D02*
G75*
G02*
X2205150Y-2920000I57150J0D01*
G01*
X2205150Y-3174000D02*
G75*
G02*
X2090850Y-3174000I-57150J0D01*
G01*
X2090850Y-3174000D02*
G75*
G02*
X2205150Y-3174000I57150J0D01*
G01*
X2459150Y-2920000D02*
G75*
G02*
X2344850Y-2920000I-57150J0D01*
G01*
X2344850Y-2920000D02*
G75*
G02*
X2459150Y-2920000I57150J0D01*
G01*
X2459150Y-3174000D02*
G75*
G02*
X2344850Y-3174000I-57150J0D01*
G01*
X2344850Y-3174000D02*
G75*
G02*
X2459150Y-3174000I57150J0D01*
G01*
X2713150Y-2920000D02*
G75*
G02*
X2598850Y-2920000I-57150J0D01*
G01*
X2598850Y-2920000D02*
G75*
G02*
X2713150Y-2920000I57150J0D01*
G01*
X2713150Y-3174000D02*
G75*
G02*
X2598850Y-3174000I-57150J0D01*
G01*
X2598850Y-3174000D02*
G75*
G02*
X2713150Y-3174000I57150J0D01*
G01*
X2967150Y-2920000D02*
G75*
G02*
X2852850Y-2920000I-57150J0D01*
G01*
X2852850Y-2920000D02*
G75*
G02*
X2967150Y-2920000I57150J0D01*
G01*
X2967150Y-3174000D02*
G75*
G02*
X2852850Y-3174000I-57150J0D01*
G01*
X2852850Y-3174000D02*
G75*
G02*
X2967150Y-3174000I57150J0D01*
G01*
D11*
X2188277Y-3713984D02*
X2188277Y-3513984D01*
X2188277Y-3513984D02*
X2235896Y-3513984D01*
X2235896Y-3513984D02*
X2264467Y-3523508D01*
X2264467Y-3523508D02*
X2283515Y-3542555D01*
X2283515Y-3542555D02*
X2293039Y-3561603D01*
X2293039Y-3561603D02*
X2302563Y-3599698D01*
X2302563Y-3599698D02*
X2302563Y-3628269D01*
X2302563Y-3628269D02*
X2293039Y-3666365D01*
X2293039Y-3666365D02*
X2283515Y-3685412D01*
X2283515Y-3685412D02*
X2264467Y-3704460D01*
X2264467Y-3704460D02*
X2235896Y-3713984D01*
X2235896Y-3713984D02*
X2188277Y-3713984D01*
X2388277Y-3713984D02*
X2388277Y-3580650D01*
X2388277Y-3618746D02*
X2397801Y-3599698D01*
X2397801Y-3599698D02*
X2407324Y-3590174D01*
X2407324Y-3590174D02*
X2426372Y-3580650D01*
X2426372Y-3580650D02*
X2445420Y-3580650D01*
X2512086Y-3713984D02*
X2512086Y-3580650D01*
X2512086Y-3513984D02*
X2502563Y-3523508D01*
X2502563Y-3523508D02*
X2512086Y-3533031D01*
X2512086Y-3533031D02*
X2521610Y-3523508D01*
X2521610Y-3523508D02*
X2512086Y-3513984D01*
X2512086Y-3513984D02*
X2512086Y-3533031D01*
X2635896Y-3713984D02*
X2616848Y-3704460D01*
X2616848Y-3704460D02*
X2607324Y-3685412D01*
X2607324Y-3685412D02*
X2607324Y-3513984D01*
X2740658Y-3713984D02*
X2721610Y-3704460D01*
X2721610Y-3704460D02*
X2712086Y-3685412D01*
X2712086Y-3685412D02*
X2712086Y-3513984D01*
X2969229Y-3713984D02*
X2969229Y-3513984D01*
X2969229Y-3513984D02*
X3035896Y-3656841D01*
X3035896Y-3656841D02*
X3102562Y-3513984D01*
X3102562Y-3513984D02*
X3102562Y-3713984D01*
X3283515Y-3713984D02*
X3283515Y-3609222D01*
X3283515Y-3609222D02*
X3273991Y-3590174D01*
X3273991Y-3590174D02*
X3254943Y-3580650D01*
X3254943Y-3580650D02*
X3216848Y-3580650D01*
X3216848Y-3580650D02*
X3197801Y-3590174D01*
X3283515Y-3704460D02*
X3264467Y-3713984D01*
X3264467Y-3713984D02*
X3216848Y-3713984D01*
X3216848Y-3713984D02*
X3197801Y-3704460D01*
X3197801Y-3704460D02*
X3188277Y-3685412D01*
X3188277Y-3685412D02*
X3188277Y-3666365D01*
X3188277Y-3666365D02*
X3197801Y-3647317D01*
X3197801Y-3647317D02*
X3216848Y-3637793D01*
X3216848Y-3637793D02*
X3264467Y-3637793D01*
X3264467Y-3637793D02*
X3283515Y-3628269D01*
X3378753Y-3580650D02*
X3378753Y-3780650D01*
X3378753Y-3590174D02*
X3397801Y-3580650D01*
X3397801Y-3580650D02*
X3435896Y-3580650D01*
X3435896Y-3580650D02*
X3454943Y-3590174D01*
X3454943Y-3590174D02*
X3464467Y-3599698D01*
X3464467Y-3599698D02*
X3473991Y-3618746D01*
X3473991Y-3618746D02*
X3473991Y-3675888D01*
X3473991Y-3675888D02*
X3464467Y-3694936D01*
X3464467Y-3694936D02*
X3454943Y-3704460D01*
X3454943Y-3704460D02*
X3435896Y-3713984D01*
X3435896Y-3713984D02*
X3397801Y-3713984D01*
X3397801Y-3713984D02*
X3378753Y-3704460D01*
X3559705Y-3694936D02*
X3569229Y-3704460D01*
X3569229Y-3704460D02*
X3559705Y-3713984D01*
X3559705Y-3713984D02*
X3550182Y-3704460D01*
X3550182Y-3704460D02*
X3559705Y-3694936D01*
X3559705Y-3694936D02*
X3559705Y-3713984D01*
X3559705Y-3590174D02*
X3569229Y-3599698D01*
X3569229Y-3599698D02*
X3559705Y-3609222D01*
X3559705Y-3609222D02*
X3550182Y-3599698D01*
X3550182Y-3599698D02*
X3559705Y-3590174D01*
X3559705Y-3590174D02*
X3559705Y-3609222D01*
D12*
X1847500Y-4002500D02*
X1927500Y-4082500D01*
X1927500Y-4002500D02*
X1847500Y-4082500D01*
D11*
X2226372Y-3933984D02*
X2245420Y-3933984D01*
X2245420Y-3933984D02*
X2264467Y-3943508D01*
X2264467Y-3943508D02*
X2273991Y-3953031D01*
X2273991Y-3953031D02*
X2283515Y-3972079D01*
X2283515Y-3972079D02*
X2293039Y-4010174D01*
X2293039Y-4010174D02*
X2293039Y-4057793D01*
X2293039Y-4057793D02*
X2283515Y-4095888D01*
X2283515Y-4095888D02*
X2273991Y-4114936D01*
X2273991Y-4114936D02*
X2264467Y-4124460D01*
X2264467Y-4124460D02*
X2245420Y-4133984D01*
X2245420Y-4133984D02*
X2226372Y-4133984D01*
X2226372Y-4133984D02*
X2207324Y-4124460D01*
X2207324Y-4124460D02*
X2197801Y-4114936D01*
X2197801Y-4114936D02*
X2188277Y-4095888D01*
X2188277Y-4095888D02*
X2178753Y-4057793D01*
X2178753Y-4057793D02*
X2178753Y-4010174D01*
X2178753Y-4010174D02*
X2188277Y-3972079D01*
X2188277Y-3972079D02*
X2197801Y-3953031D01*
X2197801Y-3953031D02*
X2207324Y-3943508D01*
X2207324Y-3943508D02*
X2226372Y-3933984D01*
X2378753Y-4114936D02*
X2388277Y-4124460D01*
X2388277Y-4124460D02*
X2378753Y-4133984D01*
X2378753Y-4133984D02*
X2369229Y-4124460D01*
X2369229Y-4124460D02*
X2378753Y-4114936D01*
X2378753Y-4114936D02*
X2378753Y-4133984D01*
X2502563Y-4019698D02*
X2483515Y-4010174D01*
X2483515Y-4010174D02*
X2473991Y-4000650D01*
X2473991Y-4000650D02*
X2464467Y-3981603D01*
X2464467Y-3981603D02*
X2464467Y-3972079D01*
X2464467Y-3972079D02*
X2473991Y-3953031D01*
X2473991Y-3953031D02*
X2483515Y-3943508D01*
X2483515Y-3943508D02*
X2502563Y-3933984D01*
X2502563Y-3933984D02*
X2540658Y-3933984D01*
X2540658Y-3933984D02*
X2559705Y-3943508D01*
X2559705Y-3943508D02*
X2569229Y-3953031D01*
X2569229Y-3953031D02*
X2578753Y-3972079D01*
X2578753Y-3972079D02*
X2578753Y-3981603D01*
X2578753Y-3981603D02*
X2569229Y-4000650D01*
X2569229Y-4000650D02*
X2559705Y-4010174D01*
X2559705Y-4010174D02*
X2540658Y-4019698D01*
X2540658Y-4019698D02*
X2502563Y-4019698D01*
X2502563Y-4019698D02*
X2483515Y-4029222D01*
X2483515Y-4029222D02*
X2473991Y-4038746D01*
X2473991Y-4038746D02*
X2464467Y-4057793D01*
X2464467Y-4057793D02*
X2464467Y-4095888D01*
X2464467Y-4095888D02*
X2473991Y-4114936D01*
X2473991Y-4114936D02*
X2483515Y-4124460D01*
X2483515Y-4124460D02*
X2502563Y-4133984D01*
X2502563Y-4133984D02*
X2540658Y-4133984D01*
X2540658Y-4133984D02*
X2559705Y-4124460D01*
X2559705Y-4124460D02*
X2569229Y-4114936D01*
X2569229Y-4114936D02*
X2578753Y-4095888D01*
X2578753Y-4095888D02*
X2578753Y-4057793D01*
X2578753Y-4057793D02*
X2569229Y-4038746D01*
X2569229Y-4038746D02*
X2559705Y-4029222D01*
X2559705Y-4029222D02*
X2540658Y-4019698D01*
X2702563Y-3933984D02*
X2721610Y-3933984D01*
X2721610Y-3933984D02*
X2740658Y-3943508D01*
X2740658Y-3943508D02*
X2750182Y-3953031D01*
X2750182Y-3953031D02*
X2759705Y-3972079D01*
X2759705Y-3972079D02*
X2769229Y-4010174D01*
X2769229Y-4010174D02*
X2769229Y-4057793D01*
X2769229Y-4057793D02*
X2759705Y-4095888D01*
X2759705Y-4095888D02*
X2750182Y-4114936D01*
X2750182Y-4114936D02*
X2740658Y-4124460D01*
X2740658Y-4124460D02*
X2721610Y-4133984D01*
X2721610Y-4133984D02*
X2702563Y-4133984D01*
X2702563Y-4133984D02*
X2683515Y-4124460D01*
X2683515Y-4124460D02*
X2673991Y-4114936D01*
X2673991Y-4114936D02*
X2664467Y-4095888D01*
X2664467Y-4095888D02*
X2654944Y-4057793D01*
X2654944Y-4057793D02*
X2654944Y-4010174D01*
X2654944Y-4010174D02*
X2664467Y-3972079D01*
X2664467Y-3972079D02*
X2673991Y-3953031D01*
X2673991Y-3953031D02*
X2683515Y-3943508D01*
X2683515Y-3943508D02*
X2702563Y-3933984D01*
X2893039Y-3933984D02*
X2912086Y-3933984D01*
X2912086Y-3933984D02*
X2931134Y-3943508D01*
X2931134Y-3943508D02*
X2940658Y-3953031D01*
X2940658Y-3953031D02*
X2950182Y-3972079D01*
X2950182Y-3972079D02*
X2959705Y-4010174D01*
X2959705Y-4010174D02*
X2959705Y-4057793D01*
X2959705Y-4057793D02*
X2950182Y-4095888D01*
X2950182Y-4095888D02*
X2940658Y-4114936D01*
X2940658Y-4114936D02*
X2931134Y-4124460D01*
X2931134Y-4124460D02*
X2912086Y-4133984D01*
X2912086Y-4133984D02*
X2893039Y-4133984D01*
X2893039Y-4133984D02*
X2873991Y-4124460D01*
X2873991Y-4124460D02*
X2864467Y-4114936D01*
X2864467Y-4114936D02*
X2854943Y-4095888D01*
X2854943Y-4095888D02*
X2845420Y-4057793D01*
X2845420Y-4057793D02*
X2845420Y-4010174D01*
X2845420Y-4010174D02*
X2854943Y-3972079D01*
X2854943Y-3972079D02*
X2864467Y-3953031D01*
X2864467Y-3953031D02*
X2873991Y-3943508D01*
X2873991Y-3943508D02*
X2893039Y-3933984D01*
X3045420Y-4133984D02*
X3045420Y-4000650D01*
X3045420Y-4019698D02*
X3054943Y-4010174D01*
X3054943Y-4010174D02*
X3073991Y-4000650D01*
X3073991Y-4000650D02*
X3102563Y-4000650D01*
X3102563Y-4000650D02*
X3121610Y-4010174D01*
X3121610Y-4010174D02*
X3131134Y-4029222D01*
X3131134Y-4029222D02*
X3131134Y-4133984D01*
X3131134Y-4029222D02*
X3140658Y-4010174D01*
X3140658Y-4010174D02*
X3159705Y-4000650D01*
X3159705Y-4000650D02*
X3188277Y-4000650D01*
X3188277Y-4000650D02*
X3207324Y-4010174D01*
X3207324Y-4010174D02*
X3216848Y-4029222D01*
X3216848Y-4029222D02*
X3216848Y-4133984D01*
X3312086Y-4133984D02*
X3312086Y-4000650D01*
X3312086Y-4019698D02*
X3321610Y-4010174D01*
X3321610Y-4010174D02*
X3340658Y-4000650D01*
X3340658Y-4000650D02*
X3369229Y-4000650D01*
X3369229Y-4000650D02*
X3388277Y-4010174D01*
X3388277Y-4010174D02*
X3397801Y-4029222D01*
X3397801Y-4029222D02*
X3397801Y-4133984D01*
X3397801Y-4029222D02*
X3407324Y-4010174D01*
X3407324Y-4010174D02*
X3426372Y-4000650D01*
X3426372Y-4000650D02*
X3454943Y-4000650D01*
X3454943Y-4000650D02*
X3473991Y-4010174D01*
X3473991Y-4010174D02*
X3483515Y-4029222D01*
X3483515Y-4029222D02*
X3483515Y-4133984D01*
X3873991Y-3924460D02*
X3702563Y-4181603D01*
X4131134Y-3933984D02*
X4150182Y-3933984D01*
X4150182Y-3933984D02*
X4169229Y-3943508D01*
X4169229Y-3943508D02*
X4178753Y-3953031D01*
X4178753Y-3953031D02*
X4188277Y-3972079D01*
X4188277Y-3972079D02*
X4197801Y-4010174D01*
X4197801Y-4010174D02*
X4197801Y-4057793D01*
X4197801Y-4057793D02*
X4188277Y-4095888D01*
X4188277Y-4095888D02*
X4178753Y-4114936D01*
X4178753Y-4114936D02*
X4169229Y-4124460D01*
X4169229Y-4124460D02*
X4150182Y-4133984D01*
X4150182Y-4133984D02*
X4131134Y-4133984D01*
X4131134Y-4133984D02*
X4112086Y-4124460D01*
X4112086Y-4124460D02*
X4102563Y-4114936D01*
X4102563Y-4114936D02*
X4093039Y-4095888D01*
X4093039Y-4095888D02*
X4083515Y-4057793D01*
X4083515Y-4057793D02*
X4083515Y-4010174D01*
X4083515Y-4010174D02*
X4093039Y-3972079D01*
X4093039Y-3972079D02*
X4102563Y-3953031D01*
X4102563Y-3953031D02*
X4112086Y-3943508D01*
X4112086Y-3943508D02*
X4131134Y-3933984D01*
X4283515Y-4114936D02*
X4293039Y-4124460D01*
X4293039Y-4124460D02*
X4283515Y-4133984D01*
X4283515Y-4133984D02*
X4273991Y-4124460D01*
X4273991Y-4124460D02*
X4283515Y-4114936D01*
X4283515Y-4114936D02*
X4283515Y-4133984D01*
X4416848Y-3933984D02*
X4435896Y-3933984D01*
X4435896Y-3933984D02*
X4454944Y-3943508D01*
X4454944Y-3943508D02*
X4464468Y-3953031D01*
X4464468Y-3953031D02*
X4473991Y-3972079D01*
X4473991Y-3972079D02*
X4483515Y-4010174D01*
X4483515Y-4010174D02*
X4483515Y-4057793D01*
X4483515Y-4057793D02*
X4473991Y-4095888D01*
X4473991Y-4095888D02*
X4464468Y-4114936D01*
X4464468Y-4114936D02*
X4454944Y-4124460D01*
X4454944Y-4124460D02*
X4435896Y-4133984D01*
X4435896Y-4133984D02*
X4416848Y-4133984D01*
X4416848Y-4133984D02*
X4397801Y-4124460D01*
X4397801Y-4124460D02*
X4388277Y-4114936D01*
X4388277Y-4114936D02*
X4378753Y-4095888D01*
X4378753Y-4095888D02*
X4369229Y-4057793D01*
X4369229Y-4057793D02*
X4369229Y-4010174D01*
X4369229Y-4010174D02*
X4378753Y-3972079D01*
X4378753Y-3972079D02*
X4388277Y-3953031D01*
X4388277Y-3953031D02*
X4397801Y-3943508D01*
X4397801Y-3943508D02*
X4416848Y-3933984D01*
X4550182Y-3933984D02*
X4673991Y-3933984D01*
X4673991Y-3933984D02*
X4607325Y-4010174D01*
X4607325Y-4010174D02*
X4635896Y-4010174D01*
X4635896Y-4010174D02*
X4654944Y-4019698D01*
X4654944Y-4019698D02*
X4664468Y-4029222D01*
X4664468Y-4029222D02*
X4673991Y-4048269D01*
X4673991Y-4048269D02*
X4673991Y-4095888D01*
X4673991Y-4095888D02*
X4664468Y-4114936D01*
X4664468Y-4114936D02*
X4654944Y-4124460D01*
X4654944Y-4124460D02*
X4635896Y-4133984D01*
X4635896Y-4133984D02*
X4578753Y-4133984D01*
X4578753Y-4133984D02*
X4559706Y-4124460D01*
X4559706Y-4124460D02*
X4550182Y-4114936D01*
X4864468Y-4133984D02*
X4750182Y-4133984D01*
X4807325Y-4133984D02*
X4807325Y-3933984D01*
X4807325Y-3933984D02*
X4788277Y-3962555D01*
X4788277Y-3962555D02*
X4769229Y-3981603D01*
X4769229Y-3981603D02*
X4750182Y-3991127D01*
X5045420Y-3933984D02*
X4950182Y-3933984D01*
X4950182Y-3933984D02*
X4940658Y-4029222D01*
X4940658Y-4029222D02*
X4950182Y-4019698D01*
X4950182Y-4019698D02*
X4969229Y-4010174D01*
X4969229Y-4010174D02*
X5016849Y-4010174D01*
X5016849Y-4010174D02*
X5035896Y-4019698D01*
X5035896Y-4019698D02*
X5045420Y-4029222D01*
X5045420Y-4029222D02*
X5054944Y-4048269D01*
X5054944Y-4048269D02*
X5054944Y-4095888D01*
X5054944Y-4095888D02*
X5045420Y-4114936D01*
X5045420Y-4114936D02*
X5035896Y-4124460D01*
X5035896Y-4124460D02*
X5016849Y-4133984D01*
X5016849Y-4133984D02*
X4969229Y-4133984D01*
X4969229Y-4133984D02*
X4950182Y-4124460D01*
X4950182Y-4124460D02*
X4940658Y-4114936D01*
X5131134Y-3933984D02*
X5131134Y-3972079D01*
X5207325Y-3933984D02*
X5207325Y-3972079D01*
X5502563Y-4210174D02*
X5493039Y-4200650D01*
X5493039Y-4200650D02*
X5473991Y-4172079D01*
X5473991Y-4172079D02*
X5464468Y-4153031D01*
X5464468Y-4153031D02*
X5454944Y-4124460D01*
X5454944Y-4124460D02*
X5445420Y-4076841D01*
X5445420Y-4076841D02*
X5445420Y-4038746D01*
X5445420Y-4038746D02*
X5454944Y-3991127D01*
X5454944Y-3991127D02*
X5464468Y-3962555D01*
X5464468Y-3962555D02*
X5473991Y-3943508D01*
X5473991Y-3943508D02*
X5493039Y-3914936D01*
X5493039Y-3914936D02*
X5502563Y-3905412D01*
X5683515Y-4133984D02*
X5569230Y-4133984D01*
X5626372Y-4133984D02*
X5626372Y-3933984D01*
X5626372Y-3933984D02*
X5607325Y-3962555D01*
X5607325Y-3962555D02*
X5588277Y-3981603D01*
X5588277Y-3981603D02*
X5569230Y-3991127D01*
X5759706Y-3953031D02*
X5769229Y-3943508D01*
X5769229Y-3943508D02*
X5788277Y-3933984D01*
X5788277Y-3933984D02*
X5835896Y-3933984D01*
X5835896Y-3933984D02*
X5854944Y-3943508D01*
X5854944Y-3943508D02*
X5864468Y-3953031D01*
X5864468Y-3953031D02*
X5873991Y-3972079D01*
X5873991Y-3972079D02*
X5873991Y-3991127D01*
X5873991Y-3991127D02*
X5864468Y-4019698D01*
X5864468Y-4019698D02*
X5750182Y-4133984D01*
X5750182Y-4133984D02*
X5873991Y-4133984D01*
X6112087Y-4133984D02*
X6112087Y-3933984D01*
X6197801Y-4133984D02*
X6197801Y-4029222D01*
X6197801Y-4029222D02*
X6188277Y-4010174D01*
X6188277Y-4010174D02*
X6169230Y-4000650D01*
X6169230Y-4000650D02*
X6140658Y-4000650D01*
X6140658Y-4000650D02*
X6121610Y-4010174D01*
X6121610Y-4010174D02*
X6112087Y-4019698D01*
X6321610Y-4133984D02*
X6302563Y-4124460D01*
X6302563Y-4124460D02*
X6293039Y-4114936D01*
X6293039Y-4114936D02*
X6283515Y-4095888D01*
X6283515Y-4095888D02*
X6283515Y-4038746D01*
X6283515Y-4038746D02*
X6293039Y-4019698D01*
X6293039Y-4019698D02*
X6302563Y-4010174D01*
X6302563Y-4010174D02*
X6321610Y-4000650D01*
X6321610Y-4000650D02*
X6350182Y-4000650D01*
X6350182Y-4000650D02*
X6369230Y-4010174D01*
X6369230Y-4010174D02*
X6378753Y-4019698D01*
X6378753Y-4019698D02*
X6388277Y-4038746D01*
X6388277Y-4038746D02*
X6388277Y-4095888D01*
X6388277Y-4095888D02*
X6378753Y-4114936D01*
X6378753Y-4114936D02*
X6369230Y-4124460D01*
X6369230Y-4124460D02*
X6350182Y-4133984D01*
X6350182Y-4133984D02*
X6321610Y-4133984D01*
X6502563Y-4133984D02*
X6483515Y-4124460D01*
X6483515Y-4124460D02*
X6473991Y-4105412D01*
X6473991Y-4105412D02*
X6473991Y-3933984D01*
X6654944Y-4124460D02*
X6635896Y-4133984D01*
X6635896Y-4133984D02*
X6597801Y-4133984D01*
X6597801Y-4133984D02*
X6578753Y-4124460D01*
X6578753Y-4124460D02*
X6569230Y-4105412D01*
X6569230Y-4105412D02*
X6569230Y-4029222D01*
X6569230Y-4029222D02*
X6578753Y-4010174D01*
X6578753Y-4010174D02*
X6597801Y-4000650D01*
X6597801Y-4000650D02*
X6635896Y-4000650D01*
X6635896Y-4000650D02*
X6654944Y-4010174D01*
X6654944Y-4010174D02*
X6664468Y-4029222D01*
X6664468Y-4029222D02*
X6664468Y-4048269D01*
X6664468Y-4048269D02*
X6569230Y-4067317D01*
X6740658Y-4124460D02*
X6759706Y-4133984D01*
X6759706Y-4133984D02*
X6797801Y-4133984D01*
X6797801Y-4133984D02*
X6816849Y-4124460D01*
X6816849Y-4124460D02*
X6826372Y-4105412D01*
X6826372Y-4105412D02*
X6826372Y-4095888D01*
X6826372Y-4095888D02*
X6816849Y-4076841D01*
X6816849Y-4076841D02*
X6797801Y-4067317D01*
X6797801Y-4067317D02*
X6769230Y-4067317D01*
X6769230Y-4067317D02*
X6750182Y-4057793D01*
X6750182Y-4057793D02*
X6740658Y-4038746D01*
X6740658Y-4038746D02*
X6740658Y-4029222D01*
X6740658Y-4029222D02*
X6750182Y-4010174D01*
X6750182Y-4010174D02*
X6769230Y-4000650D01*
X6769230Y-4000650D02*
X6797801Y-4000650D01*
X6797801Y-4000650D02*
X6816849Y-4010174D01*
X6893039Y-4210174D02*
X6902563Y-4200650D01*
X6902563Y-4200650D02*
X6921611Y-4172079D01*
X6921611Y-4172079D02*
X6931134Y-4153031D01*
X6931134Y-4153031D02*
X6940658Y-4124460D01*
X6940658Y-4124460D02*
X6950182Y-4076841D01*
X6950182Y-4076841D02*
X6950182Y-4038746D01*
X6950182Y-4038746D02*
X6940658Y-3991127D01*
X6940658Y-3991127D02*
X6931134Y-3962555D01*
X6931134Y-3962555D02*
X6921611Y-3943508D01*
X6921611Y-3943508D02*
X6902563Y-3914936D01*
X6902563Y-3914936D02*
X6893039Y-3905412D01*
D13*
X1927500Y-4306500D02*
G75*
G02*
X1813200Y-4306500I-57150J0D01*
G01*
X1813200Y-4306500D02*
G75*
G02*
X1927500Y-4306500I57150J0D01*
G01*
D11*
X2293039Y-4397984D02*
X2178753Y-4397984D01*
X2235896Y-4397984D02*
X2235896Y-4197984D01*
X2235896Y-4197984D02*
X2216848Y-4226555D01*
X2216848Y-4226555D02*
X2197801Y-4245603D01*
X2197801Y-4245603D02*
X2178753Y-4255127D01*
X2378753Y-4378936D02*
X2388277Y-4388460D01*
X2388277Y-4388460D02*
X2378753Y-4397984D01*
X2378753Y-4397984D02*
X2369229Y-4388460D01*
X2369229Y-4388460D02*
X2378753Y-4378936D01*
X2378753Y-4378936D02*
X2378753Y-4397984D01*
X2578753Y-4397984D02*
X2464467Y-4397984D01*
X2521610Y-4397984D02*
X2521610Y-4197984D01*
X2521610Y-4197984D02*
X2502563Y-4226555D01*
X2502563Y-4226555D02*
X2483515Y-4245603D01*
X2483515Y-4245603D02*
X2464467Y-4255127D01*
X2750182Y-4264650D02*
X2750182Y-4397984D01*
X2702563Y-4188460D02*
X2654944Y-4331317D01*
X2654944Y-4331317D02*
X2778753Y-4331317D01*
X2835896Y-4197984D02*
X2959705Y-4197984D01*
X2959705Y-4197984D02*
X2893039Y-4274174D01*
X2893039Y-4274174D02*
X2921610Y-4274174D01*
X2921610Y-4274174D02*
X2940658Y-4283698D01*
X2940658Y-4283698D02*
X2950182Y-4293222D01*
X2950182Y-4293222D02*
X2959705Y-4312270D01*
X2959705Y-4312270D02*
X2959705Y-4359889D01*
X2959705Y-4359889D02*
X2950182Y-4378936D01*
X2950182Y-4378936D02*
X2940658Y-4388460D01*
X2940658Y-4388460D02*
X2921610Y-4397984D01*
X2921610Y-4397984D02*
X2864467Y-4397984D01*
X2864467Y-4397984D02*
X2845420Y-4388460D01*
X2845420Y-4388460D02*
X2835896Y-4378936D01*
X3045420Y-4397984D02*
X3045420Y-4264650D01*
X3045420Y-4283698D02*
X3054943Y-4274174D01*
X3054943Y-4274174D02*
X3073991Y-4264650D01*
X3073991Y-4264650D02*
X3102563Y-4264650D01*
X3102563Y-4264650D02*
X3121610Y-4274174D01*
X3121610Y-4274174D02*
X3131134Y-4293222D01*
X3131134Y-4293222D02*
X3131134Y-4397984D01*
X3131134Y-4293222D02*
X3140658Y-4274174D01*
X3140658Y-4274174D02*
X3159705Y-4264650D01*
X3159705Y-4264650D02*
X3188277Y-4264650D01*
X3188277Y-4264650D02*
X3207324Y-4274174D01*
X3207324Y-4274174D02*
X3216848Y-4293222D01*
X3216848Y-4293222D02*
X3216848Y-4397984D01*
X3312086Y-4397984D02*
X3312086Y-4264650D01*
X3312086Y-4283698D02*
X3321610Y-4274174D01*
X3321610Y-4274174D02*
X3340658Y-4264650D01*
X3340658Y-4264650D02*
X3369229Y-4264650D01*
X3369229Y-4264650D02*
X3388277Y-4274174D01*
X3388277Y-4274174D02*
X3397801Y-4293222D01*
X3397801Y-4293222D02*
X3397801Y-4397984D01*
X3397801Y-4293222D02*
X3407324Y-4274174D01*
X3407324Y-4274174D02*
X3426372Y-4264650D01*
X3426372Y-4264650D02*
X3454943Y-4264650D01*
X3454943Y-4264650D02*
X3473991Y-4274174D01*
X3473991Y-4274174D02*
X3483515Y-4293222D01*
X3483515Y-4293222D02*
X3483515Y-4397984D01*
X3873991Y-4188460D02*
X3702563Y-4445603D01*
X4131134Y-4197984D02*
X4150182Y-4197984D01*
X4150182Y-4197984D02*
X4169229Y-4207508D01*
X4169229Y-4207508D02*
X4178753Y-4217031D01*
X4178753Y-4217031D02*
X4188277Y-4236079D01*
X4188277Y-4236079D02*
X4197801Y-4274174D01*
X4197801Y-4274174D02*
X4197801Y-4321793D01*
X4197801Y-4321793D02*
X4188277Y-4359889D01*
X4188277Y-4359889D02*
X4178753Y-4378936D01*
X4178753Y-4378936D02*
X4169229Y-4388460D01*
X4169229Y-4388460D02*
X4150182Y-4397984D01*
X4150182Y-4397984D02*
X4131134Y-4397984D01*
X4131134Y-4397984D02*
X4112086Y-4388460D01*
X4112086Y-4388460D02*
X4102563Y-4378936D01*
X4102563Y-4378936D02*
X4093039Y-4359889D01*
X4093039Y-4359889D02*
X4083515Y-4321793D01*
X4083515Y-4321793D02*
X4083515Y-4274174D01*
X4083515Y-4274174D02*
X4093039Y-4236079D01*
X4093039Y-4236079D02*
X4102563Y-4217031D01*
X4102563Y-4217031D02*
X4112086Y-4207508D01*
X4112086Y-4207508D02*
X4131134Y-4197984D01*
X4283515Y-4378936D02*
X4293039Y-4388460D01*
X4293039Y-4388460D02*
X4283515Y-4397984D01*
X4283515Y-4397984D02*
X4273991Y-4388460D01*
X4273991Y-4388460D02*
X4283515Y-4378936D01*
X4283515Y-4378936D02*
X4283515Y-4397984D01*
X4416848Y-4197984D02*
X4435896Y-4197984D01*
X4435896Y-4197984D02*
X4454944Y-4207508D01*
X4454944Y-4207508D02*
X4464468Y-4217031D01*
X4464468Y-4217031D02*
X4473991Y-4236079D01*
X4473991Y-4236079D02*
X4483515Y-4274174D01*
X4483515Y-4274174D02*
X4483515Y-4321793D01*
X4483515Y-4321793D02*
X4473991Y-4359889D01*
X4473991Y-4359889D02*
X4464468Y-4378936D01*
X4464468Y-4378936D02*
X4454944Y-4388460D01*
X4454944Y-4388460D02*
X4435896Y-4397984D01*
X4435896Y-4397984D02*
X4416848Y-4397984D01*
X4416848Y-4397984D02*
X4397801Y-4388460D01*
X4397801Y-4388460D02*
X4388277Y-4378936D01*
X4388277Y-4378936D02*
X4378753Y-4359889D01*
X4378753Y-4359889D02*
X4369229Y-4321793D01*
X4369229Y-4321793D02*
X4369229Y-4274174D01*
X4369229Y-4274174D02*
X4378753Y-4236079D01*
X4378753Y-4236079D02*
X4388277Y-4217031D01*
X4388277Y-4217031D02*
X4397801Y-4207508D01*
X4397801Y-4207508D02*
X4416848Y-4197984D01*
X4654944Y-4264650D02*
X4654944Y-4397984D01*
X4607325Y-4188460D02*
X4559706Y-4331317D01*
X4559706Y-4331317D02*
X4683515Y-4331317D01*
X4854944Y-4197984D02*
X4759706Y-4197984D01*
X4759706Y-4197984D02*
X4750182Y-4293222D01*
X4750182Y-4293222D02*
X4759706Y-4283698D01*
X4759706Y-4283698D02*
X4778753Y-4274174D01*
X4778753Y-4274174D02*
X4826372Y-4274174D01*
X4826372Y-4274174D02*
X4845420Y-4283698D01*
X4845420Y-4283698D02*
X4854944Y-4293222D01*
X4854944Y-4293222D02*
X4864468Y-4312270D01*
X4864468Y-4312270D02*
X4864468Y-4359889D01*
X4864468Y-4359889D02*
X4854944Y-4378936D01*
X4854944Y-4378936D02*
X4845420Y-4388460D01*
X4845420Y-4388460D02*
X4826372Y-4397984D01*
X4826372Y-4397984D02*
X4778753Y-4397984D01*
X4778753Y-4397984D02*
X4759706Y-4388460D01*
X4759706Y-4388460D02*
X4750182Y-4378936D01*
X4988277Y-4197984D02*
X5007325Y-4197984D01*
X5007325Y-4197984D02*
X5026372Y-4207508D01*
X5026372Y-4207508D02*
X5035896Y-4217031D01*
X5035896Y-4217031D02*
X5045420Y-4236079D01*
X5045420Y-4236079D02*
X5054944Y-4274174D01*
X5054944Y-4274174D02*
X5054944Y-4321793D01*
X5054944Y-4321793D02*
X5045420Y-4359889D01*
X5045420Y-4359889D02*
X5035896Y-4378936D01*
X5035896Y-4378936D02*
X5026372Y-4388460D01*
X5026372Y-4388460D02*
X5007325Y-4397984D01*
X5007325Y-4397984D02*
X4988277Y-4397984D01*
X4988277Y-4397984D02*
X4969229Y-4388460D01*
X4969229Y-4388460D02*
X4959706Y-4378936D01*
X4959706Y-4378936D02*
X4950182Y-4359889D01*
X4950182Y-4359889D02*
X4940658Y-4321793D01*
X4940658Y-4321793D02*
X4940658Y-4274174D01*
X4940658Y-4274174D02*
X4950182Y-4236079D01*
X4950182Y-4236079D02*
X4959706Y-4217031D01*
X4959706Y-4217031D02*
X4969229Y-4207508D01*
X4969229Y-4207508D02*
X4988277Y-4197984D01*
X5131134Y-4197984D02*
X5131134Y-4236079D01*
X5207325Y-4197984D02*
X5207325Y-4236079D01*
X5502563Y-4474174D02*
X5493039Y-4464650D01*
X5493039Y-4464650D02*
X5473991Y-4436079D01*
X5473991Y-4436079D02*
X5464468Y-4417031D01*
X5464468Y-4417031D02*
X5454944Y-4388460D01*
X5454944Y-4388460D02*
X5445420Y-4340841D01*
X5445420Y-4340841D02*
X5445420Y-4302746D01*
X5445420Y-4302746D02*
X5454944Y-4255127D01*
X5454944Y-4255127D02*
X5464468Y-4226555D01*
X5464468Y-4226555D02*
X5473991Y-4207508D01*
X5473991Y-4207508D02*
X5493039Y-4178936D01*
X5493039Y-4178936D02*
X5502563Y-4169412D01*
X5607325Y-4283698D02*
X5588277Y-4274174D01*
X5588277Y-4274174D02*
X5578753Y-4264650D01*
X5578753Y-4264650D02*
X5569230Y-4245603D01*
X5569230Y-4245603D02*
X5569230Y-4236079D01*
X5569230Y-4236079D02*
X5578753Y-4217031D01*
X5578753Y-4217031D02*
X5588277Y-4207508D01*
X5588277Y-4207508D02*
X5607325Y-4197984D01*
X5607325Y-4197984D02*
X5645420Y-4197984D01*
X5645420Y-4197984D02*
X5664468Y-4207508D01*
X5664468Y-4207508D02*
X5673991Y-4217031D01*
X5673991Y-4217031D02*
X5683515Y-4236079D01*
X5683515Y-4236079D02*
X5683515Y-4245603D01*
X5683515Y-4245603D02*
X5673991Y-4264650D01*
X5673991Y-4264650D02*
X5664468Y-4274174D01*
X5664468Y-4274174D02*
X5645420Y-4283698D01*
X5645420Y-4283698D02*
X5607325Y-4283698D01*
X5607325Y-4283698D02*
X5588277Y-4293222D01*
X5588277Y-4293222D02*
X5578753Y-4302746D01*
X5578753Y-4302746D02*
X5569230Y-4321793D01*
X5569230Y-4321793D02*
X5569230Y-4359889D01*
X5569230Y-4359889D02*
X5578753Y-4378936D01*
X5578753Y-4378936D02*
X5588277Y-4388460D01*
X5588277Y-4388460D02*
X5607325Y-4397984D01*
X5607325Y-4397984D02*
X5645420Y-4397984D01*
X5645420Y-4397984D02*
X5664468Y-4388460D01*
X5664468Y-4388460D02*
X5673991Y-4378936D01*
X5673991Y-4378936D02*
X5683515Y-4359889D01*
X5683515Y-4359889D02*
X5683515Y-4321793D01*
X5683515Y-4321793D02*
X5673991Y-4302746D01*
X5673991Y-4302746D02*
X5664468Y-4293222D01*
X5664468Y-4293222D02*
X5645420Y-4283698D01*
X5921610Y-4397984D02*
X5921610Y-4197984D01*
X6007325Y-4397984D02*
X6007325Y-4293222D01*
X6007325Y-4293222D02*
X5997801Y-4274174D01*
X5997801Y-4274174D02*
X5978753Y-4264650D01*
X5978753Y-4264650D02*
X5950182Y-4264650D01*
X5950182Y-4264650D02*
X5931134Y-4274174D01*
X5931134Y-4274174D02*
X5921610Y-4283698D01*
X6131134Y-4397984D02*
X6112087Y-4388460D01*
X6112087Y-4388460D02*
X6102563Y-4378936D01*
X6102563Y-4378936D02*
X6093039Y-4359889D01*
X6093039Y-4359889D02*
X6093039Y-4302746D01*
X6093039Y-4302746D02*
X6102563Y-4283698D01*
X6102563Y-4283698D02*
X6112087Y-4274174D01*
X6112087Y-4274174D02*
X6131134Y-4264650D01*
X6131134Y-4264650D02*
X6159706Y-4264650D01*
X6159706Y-4264650D02*
X6178753Y-4274174D01*
X6178753Y-4274174D02*
X6188277Y-4283698D01*
X6188277Y-4283698D02*
X6197801Y-4302746D01*
X6197801Y-4302746D02*
X6197801Y-4359889D01*
X6197801Y-4359889D02*
X6188277Y-4378936D01*
X6188277Y-4378936D02*
X6178753Y-4388460D01*
X6178753Y-4388460D02*
X6159706Y-4397984D01*
X6159706Y-4397984D02*
X6131134Y-4397984D01*
X6312087Y-4397984D02*
X6293039Y-4388460D01*
X6293039Y-4388460D02*
X6283515Y-4369412D01*
X6283515Y-4369412D02*
X6283515Y-4197984D01*
X6464468Y-4388460D02*
X6445420Y-4397984D01*
X6445420Y-4397984D02*
X6407325Y-4397984D01*
X6407325Y-4397984D02*
X6388277Y-4388460D01*
X6388277Y-4388460D02*
X6378753Y-4369412D01*
X6378753Y-4369412D02*
X6378753Y-4293222D01*
X6378753Y-4293222D02*
X6388277Y-4274174D01*
X6388277Y-4274174D02*
X6407325Y-4264650D01*
X6407325Y-4264650D02*
X6445420Y-4264650D01*
X6445420Y-4264650D02*
X6464468Y-4274174D01*
X6464468Y-4274174D02*
X6473991Y-4293222D01*
X6473991Y-4293222D02*
X6473991Y-4312270D01*
X6473991Y-4312270D02*
X6378753Y-4331317D01*
X6550182Y-4388460D02*
X6569230Y-4397984D01*
X6569230Y-4397984D02*
X6607325Y-4397984D01*
X6607325Y-4397984D02*
X6626372Y-4388460D01*
X6626372Y-4388460D02*
X6635896Y-4369412D01*
X6635896Y-4369412D02*
X6635896Y-4359889D01*
X6635896Y-4359889D02*
X6626372Y-4340841D01*
X6626372Y-4340841D02*
X6607325Y-4331317D01*
X6607325Y-4331317D02*
X6578753Y-4331317D01*
X6578753Y-4331317D02*
X6559706Y-4321793D01*
X6559706Y-4321793D02*
X6550182Y-4302746D01*
X6550182Y-4302746D02*
X6550182Y-4293222D01*
X6550182Y-4293222D02*
X6559706Y-4274174D01*
X6559706Y-4274174D02*
X6578753Y-4264650D01*
X6578753Y-4264650D02*
X6607325Y-4264650D01*
X6607325Y-4264650D02*
X6626372Y-4274174D01*
X6702563Y-4474174D02*
X6712087Y-4464650D01*
X6712087Y-4464650D02*
X6731134Y-4436079D01*
X6731134Y-4436079D02*
X6740658Y-4417031D01*
X6740658Y-4417031D02*
X6750182Y-4388460D01*
X6750182Y-4388460D02*
X6759706Y-4340841D01*
X6759706Y-4340841D02*
X6759706Y-4302746D01*
X6759706Y-4302746D02*
X6750182Y-4255127D01*
X6750182Y-4255127D02*
X6740658Y-4226555D01*
X6740658Y-4226555D02*
X6731134Y-4207508D01*
X6731134Y-4207508D02*
X6712087Y-4178936D01*
X6712087Y-4178936D02*
X6702563Y-4169412D01*
M02*
