%TF.GenerationSoftware,KiCad,Pcbnew,8.0.2-1*%
%TF.CreationDate,2024-07-06T18:07:39-04:00*%
%TF.ProjectId,sensor_v3,73656e73-6f72-45f7-9633-2e6b69636164,rev?*%
%TF.SameCoordinates,Original*%
%TF.FileFunction,Drillmap*%
%TF.FilePolarity,Positive*%
%FSLAX45Y45*%
G04 Gerber Fmt 4.5, Leading zero omitted, Abs format (unit mm)*
G04 Created by KiCad (PCBNEW 8.0.2-1) date 2024-07-06 18:07:39*
%MOMM*%
%LPD*%
G01*
G04 APERTURE LIST*
%ADD10C,0.050000*%
%ADD11C,0.200000*%
G04 APERTURE END LIST*
D10*
X3100000Y-2650000D02*
G75*
G02*
X2900000Y-2650000I-100000J0D01*
G01*
X2900000Y-2650000D02*
G75*
G02*
X3100000Y-2650000I100000J0D01*
G01*
X5800000Y-2250000D02*
G75*
G02*
X5600000Y-2250000I-100000J0D01*
G01*
X5600000Y-2250000D02*
G75*
G02*
X5800000Y-2250000I100000J0D01*
G01*
X4400000Y-2650000D02*
G75*
G02*
X4200000Y-2650000I-100000J0D01*
G01*
X4200000Y-2650000D02*
G75*
G02*
X4400000Y-2650000I100000J0D01*
G01*
X6500000Y-2650000D02*
G75*
G02*
X6300000Y-2650000I-100000J0D01*
G01*
X6300000Y-2650000D02*
G75*
G02*
X6500000Y-2650000I100000J0D01*
G01*
X4400000Y-2250000D02*
G75*
G02*
X4200000Y-2250000I-100000J0D01*
G01*
X4200000Y-2250000D02*
G75*
G02*
X4400000Y-2250000I100000J0D01*
G01*
X3100000Y-2250000D02*
G75*
G02*
X2900000Y-2250000I-100000J0D01*
G01*
X2900000Y-2250000D02*
G75*
G02*
X3100000Y-2250000I100000J0D01*
G01*
X2250000Y-2630000D02*
G75*
G02*
X2050000Y-2630000I-100000J0D01*
G01*
X2050000Y-2630000D02*
G75*
G02*
X2250000Y-2630000I100000J0D01*
G01*
X5800000Y-2650000D02*
G75*
G02*
X5600000Y-2650000I-100000J0D01*
G01*
X5600000Y-2650000D02*
G75*
G02*
X5800000Y-2650000I100000J0D01*
G01*
X6760000Y-2010000D02*
X6760000Y-2740000D01*
X6600000Y-2900000D01*
X3200000Y-2900000D01*
X3200000Y-3250000D01*
X3050000Y-3400000D01*
X2000000Y-3400000D01*
X1930000Y-3330000D01*
X1930000Y-2070000D01*
X2100000Y-1900000D01*
X6650000Y-1900000D01*
X6760000Y-2010000D01*
D11*
X2188277Y-3713984D02*
X2188277Y-3513984D01*
X2188277Y-3513984D02*
X2235896Y-3513984D01*
X2235896Y-3513984D02*
X2264467Y-3523508D01*
X2264467Y-3523508D02*
X2283515Y-3542555D01*
X2283515Y-3542555D02*
X2293039Y-3561603D01*
X2293039Y-3561603D02*
X2302563Y-3599698D01*
X2302563Y-3599698D02*
X2302563Y-3628269D01*
X2302563Y-3628269D02*
X2293039Y-3666365D01*
X2293039Y-3666365D02*
X2283515Y-3685412D01*
X2283515Y-3685412D02*
X2264467Y-3704460D01*
X2264467Y-3704460D02*
X2235896Y-3713984D01*
X2235896Y-3713984D02*
X2188277Y-3713984D01*
X2388277Y-3713984D02*
X2388277Y-3580650D01*
X2388277Y-3618746D02*
X2397801Y-3599698D01*
X2397801Y-3599698D02*
X2407324Y-3590174D01*
X2407324Y-3590174D02*
X2426372Y-3580650D01*
X2426372Y-3580650D02*
X2445420Y-3580650D01*
X2512086Y-3713984D02*
X2512086Y-3580650D01*
X2512086Y-3513984D02*
X2502563Y-3523508D01*
X2502563Y-3523508D02*
X2512086Y-3533031D01*
X2512086Y-3533031D02*
X2521610Y-3523508D01*
X2521610Y-3523508D02*
X2512086Y-3513984D01*
X2512086Y-3513984D02*
X2512086Y-3533031D01*
X2635896Y-3713984D02*
X2616848Y-3704460D01*
X2616848Y-3704460D02*
X2607324Y-3685412D01*
X2607324Y-3685412D02*
X2607324Y-3513984D01*
X2740658Y-3713984D02*
X2721610Y-3704460D01*
X2721610Y-3704460D02*
X2712086Y-3685412D01*
X2712086Y-3685412D02*
X2712086Y-3513984D01*
X2969229Y-3713984D02*
X2969229Y-3513984D01*
X2969229Y-3513984D02*
X3035896Y-3656841D01*
X3035896Y-3656841D02*
X3102562Y-3513984D01*
X3102562Y-3513984D02*
X3102562Y-3713984D01*
X3283515Y-3713984D02*
X3283515Y-3609222D01*
X3283515Y-3609222D02*
X3273991Y-3590174D01*
X3273991Y-3590174D02*
X3254943Y-3580650D01*
X3254943Y-3580650D02*
X3216848Y-3580650D01*
X3216848Y-3580650D02*
X3197801Y-3590174D01*
X3283515Y-3704460D02*
X3264467Y-3713984D01*
X3264467Y-3713984D02*
X3216848Y-3713984D01*
X3216848Y-3713984D02*
X3197801Y-3704460D01*
X3197801Y-3704460D02*
X3188277Y-3685412D01*
X3188277Y-3685412D02*
X3188277Y-3666365D01*
X3188277Y-3666365D02*
X3197801Y-3647317D01*
X3197801Y-3647317D02*
X3216848Y-3637793D01*
X3216848Y-3637793D02*
X3264467Y-3637793D01*
X3264467Y-3637793D02*
X3283515Y-3628269D01*
X3378753Y-3580650D02*
X3378753Y-3780650D01*
X3378753Y-3590174D02*
X3397801Y-3580650D01*
X3397801Y-3580650D02*
X3435896Y-3580650D01*
X3435896Y-3580650D02*
X3454943Y-3590174D01*
X3454943Y-3590174D02*
X3464467Y-3599698D01*
X3464467Y-3599698D02*
X3473991Y-3618746D01*
X3473991Y-3618746D02*
X3473991Y-3675888D01*
X3473991Y-3675888D02*
X3464467Y-3694936D01*
X3464467Y-3694936D02*
X3454943Y-3704460D01*
X3454943Y-3704460D02*
X3435896Y-3713984D01*
X3435896Y-3713984D02*
X3397801Y-3713984D01*
X3397801Y-3713984D02*
X3378753Y-3704460D01*
X3559705Y-3694936D02*
X3569229Y-3704460D01*
X3569229Y-3704460D02*
X3559705Y-3713984D01*
X3559705Y-3713984D02*
X3550182Y-3704460D01*
X3550182Y-3704460D02*
X3559705Y-3694936D01*
X3559705Y-3694936D02*
X3559705Y-3713984D01*
X3559705Y-3590174D02*
X3569229Y-3599698D01*
X3569229Y-3599698D02*
X3559705Y-3609222D01*
X3559705Y-3609222D02*
X3550182Y-3599698D01*
X3550182Y-3599698D02*
X3559705Y-3590174D01*
X3559705Y-3590174D02*
X3559705Y-3609222D01*
M02*
