M48
; DRILL file {KiCad 8.0.2-1} date 2024-07-06T18:07:40-0400
; FORMAT={-:-/ absolute / inch / decimal}
; #@! TF.CreationDate,2024-07-06T18:07:40-04:00
; #@! TF.GenerationSoftware,Kicad,Pcbnew,8.0.2-1
; #@! TF.FileFunction,Plated,1,2,PTH
FMAT,2
INCH
; #@! TA.AperFunction,Plated,PTH,ComponentDrill
T1C0.0315
; #@! TA.AperFunction,Plated,PTH,ComponentDrill
T2C0.0450
%
G90
G05
T1
X0.8291Y-0.8961
X0.9291Y-0.8961
X1.0291Y-0.8961
X1.3567Y-0.8961
X1.4567Y-0.8961
X1.5567Y-0.8961
X1.8843Y-0.8961
X1.9843Y-0.8961
X2.0843Y-0.8961
X2.4118Y-0.8961
X2.5118Y-0.8961
X2.6118Y-0.8961
T2
X0.8457Y-1.1496
X0.8457Y-1.2496
X0.9457Y-1.1496
X0.9457Y-1.2496
X1.0457Y-1.1496
X1.0457Y-1.2496
X1.1457Y-1.1496
X1.1457Y-1.2496
M30
