%TF.GenerationSoftware,KiCad,Pcbnew,8.0.3-1.fc40*%
%TF.CreationDate,2024-07-09T23:56:35-04:00*%
%TF.ProjectId,sensor_v3,73656e73-6f72-45f7-9633-2e6b69636164,rev?*%
%TF.SameCoordinates,Original*%
%TF.FileFunction,Copper,L2,Bot*%
%TF.FilePolarity,Positive*%
%FSLAX46Y46*%
G04 Gerber Fmt 4.6, Leading zero omitted, Abs format (unit mm)*
G04 Created by KiCad (PCBNEW 8.0.3-1.fc40) date 2024-07-09 23:56:35*
%MOMM*%
%LPD*%
G01*
G04 APERTURE LIST*
%TA.AperFunction,ComponentPad*%
%ADD10R,1.500000X1.500000*%
%TD*%
%TA.AperFunction,ComponentPad*%
%ADD11C,1.500000*%
%TD*%
%TA.AperFunction,ComponentPad*%
%ADD12C,2.286000*%
%TD*%
G04 APERTURE END LIST*
D10*
%TO.P,U4,1,VCC*%
%TO.N,+3.3V*%
X21060000Y-22760000D03*
D11*
%TO.P,U4,2,GND*%
%TO.N,GND*%
X23600000Y-22760000D03*
%TO.P,U4,3,OUT*%
%TO.N,Net-(J1-Pin_8)*%
X26139999Y-22760000D03*
%TD*%
D10*
%TO.P,U3,1,VCC*%
%TO.N,+3.3V*%
X34460000Y-22760000D03*
D11*
%TO.P,U3,2,GND*%
%TO.N,GND*%
X37000000Y-22760000D03*
%TO.P,U3,3,OUT*%
%TO.N,Net-(J1-Pin_7)*%
X39539999Y-22760000D03*
%TD*%
D10*
%TO.P,U1,1,VCC*%
%TO.N,+3.3V*%
X61260000Y-22760000D03*
D11*
%TO.P,U1,2,GND*%
%TO.N,GND*%
X63800000Y-22760000D03*
%TO.P,U1,3,OUT*%
%TO.N,Net-(J1-Pin_5)*%
X66339999Y-22760000D03*
%TD*%
D10*
%TO.P,U2,1,VCC*%
%TO.N,+3.3V*%
X47860000Y-22760000D03*
D11*
%TO.P,U2,2,GND*%
%TO.N,GND*%
X50400000Y-22760000D03*
%TO.P,U2,3,OUT*%
%TO.N,Net-(J1-Pin_6)*%
X52939999Y-22760000D03*
%TD*%
D12*
%TO.P,J1,1,Pin_1*%
%TO.N,+3.3V*%
X21480001Y-31740000D03*
%TO.P,J1,2,Pin_2*%
%TO.N,unconnected-(J1-Pin_2-Pad2)*%
X24020001Y-31740000D03*
%TO.P,J1,3,Pin_3*%
%TO.N,unconnected-(J1-Pin_3-Pad3)*%
X26560001Y-31740000D03*
%TO.P,J1,4,Pin_4*%
%TO.N,GND*%
X29100001Y-31740000D03*
%TO.P,J1,5,Pin_5*%
%TO.N,Net-(J1-Pin_5)*%
X29100000Y-29200000D03*
%TO.P,J1,6,Pin_6*%
%TO.N,Net-(J1-Pin_6)*%
X26560001Y-29200000D03*
%TO.P,J1,7,Pin_7*%
%TO.N,Net-(J1-Pin_7)*%
X24020001Y-29200000D03*
%TO.P,J1,8,Pin_8*%
%TO.N,Net-(J1-Pin_8)*%
X21480001Y-29200000D03*
%TD*%
%TA.AperFunction,Conductor*%
%TO.N,GND*%
G36*
X66308363Y-19520185D02*
G01*
X66329005Y-19536819D01*
X66963681Y-20171495D01*
X66997166Y-20232818D01*
X67000000Y-20259176D01*
X67000000Y-21493347D01*
X66980315Y-21560386D01*
X66927511Y-21606141D01*
X66858353Y-21616085D01*
X66823597Y-21605730D01*
X66795276Y-21592524D01*
X66769329Y-21580425D01*
X66769325Y-21580424D01*
X66769321Y-21580422D01*
X66557976Y-21523793D01*
X66340001Y-21504723D01*
X66339997Y-21504723D01*
X66212150Y-21515908D01*
X66122022Y-21523793D01*
X66122019Y-21523793D01*
X65910676Y-21580422D01*
X65910667Y-21580426D01*
X65712360Y-21672898D01*
X65712356Y-21672900D01*
X65533120Y-21798402D01*
X65378401Y-21953121D01*
X65252899Y-22132357D01*
X65252897Y-22132361D01*
X65160425Y-22330668D01*
X65160421Y-22330677D01*
X65103792Y-22542020D01*
X65103792Y-22542024D01*
X65084722Y-22759997D01*
X65084722Y-22760002D01*
X65103792Y-22977975D01*
X65103792Y-22977979D01*
X65160421Y-23189322D01*
X65160423Y-23189326D01*
X65160424Y-23189330D01*
X65180123Y-23231575D01*
X65252896Y-23387638D01*
X65252897Y-23387639D01*
X65378401Y-23566877D01*
X65533122Y-23721598D01*
X65712360Y-23847102D01*
X65910669Y-23939575D01*
X66122022Y-23996207D01*
X66304925Y-24012208D01*
X66339997Y-24015277D01*
X66339999Y-24015277D01*
X66340001Y-24015277D01*
X66368253Y-24012805D01*
X66557976Y-23996207D01*
X66769329Y-23939575D01*
X66823596Y-23914269D01*
X66892672Y-23903778D01*
X66956456Y-23932298D01*
X66994696Y-23990774D01*
X67000000Y-24026652D01*
X67000000Y-26948638D01*
X66980315Y-27015677D01*
X66963681Y-27036319D01*
X65536819Y-28463181D01*
X65475496Y-28496666D01*
X65449138Y-28499500D01*
X31934108Y-28499500D01*
X31806812Y-28533608D01*
X31692686Y-28599500D01*
X31692683Y-28599502D01*
X31599502Y-28692683D01*
X31599500Y-28692686D01*
X31533608Y-28806812D01*
X31499500Y-28934108D01*
X31499500Y-32241324D01*
X31479815Y-32308363D01*
X31463181Y-32329005D01*
X30329005Y-33463181D01*
X30267682Y-33496666D01*
X30241324Y-33499500D01*
X27230255Y-33499500D01*
X27163216Y-33479815D01*
X27117461Y-33427011D01*
X27107517Y-33357853D01*
X27136542Y-33294297D01*
X27182802Y-33260939D01*
X27308442Y-33208897D01*
X27529013Y-33073731D01*
X27725725Y-32905724D01*
X27893732Y-32709012D01*
X28028898Y-32488441D01*
X28041303Y-32458491D01*
X28068183Y-32418263D01*
X28558658Y-31927788D01*
X28567448Y-31960591D01*
X28642688Y-32090909D01*
X28749092Y-32197313D01*
X28879410Y-32272553D01*
X28912211Y-32281342D01*
X28343653Y-32849899D01*
X28425938Y-32907516D01*
X28638911Y-33006826D01*
X28638920Y-33006830D01*
X28865895Y-33067647D01*
X28865906Y-33067649D01*
X29099999Y-33088130D01*
X29100003Y-33088130D01*
X29334095Y-33067649D01*
X29334106Y-33067647D01*
X29561081Y-33006830D01*
X29561090Y-33006826D01*
X29774064Y-32907515D01*
X29856347Y-32849899D01*
X29287790Y-32281342D01*
X29320592Y-32272553D01*
X29450910Y-32197313D01*
X29557314Y-32090909D01*
X29632554Y-31960591D01*
X29641343Y-31927789D01*
X30209900Y-32496345D01*
X30267516Y-32414063D01*
X30366827Y-32201089D01*
X30366831Y-32201080D01*
X30427648Y-31974105D01*
X30427650Y-31974094D01*
X30448131Y-31740001D01*
X30448131Y-31739998D01*
X30427650Y-31505905D01*
X30427648Y-31505894D01*
X30366831Y-31278919D01*
X30366827Y-31278910D01*
X30267517Y-31065937D01*
X30209900Y-30983652D01*
X29641342Y-31552209D01*
X29632554Y-31519409D01*
X29557314Y-31389091D01*
X29450910Y-31282687D01*
X29320592Y-31207447D01*
X29287789Y-31198657D01*
X29778264Y-30708181D01*
X29818489Y-30681303D01*
X29848441Y-30668897D01*
X30069012Y-30533731D01*
X30265724Y-30365724D01*
X30433731Y-30169012D01*
X30568897Y-29948441D01*
X30667895Y-29709440D01*
X30728285Y-29457895D01*
X30748582Y-29200000D01*
X30728285Y-28942105D01*
X30667895Y-28690560D01*
X30568897Y-28451559D01*
X30568897Y-28451558D01*
X30433732Y-28230990D01*
X30433729Y-28230985D01*
X30358334Y-28142709D01*
X30329763Y-28078947D01*
X30340200Y-28009862D01*
X30386331Y-27957386D01*
X30412361Y-27944896D01*
X30431795Y-27938223D01*
X30604810Y-27878828D01*
X30823509Y-27760474D01*
X31019744Y-27607738D01*
X31188164Y-27424785D01*
X31324173Y-27216607D01*
X31424063Y-26988881D01*
X31485108Y-26747821D01*
X31489403Y-26695993D01*
X31505643Y-26500005D01*
X31505643Y-26499994D01*
X41494357Y-26499994D01*
X41494357Y-26500005D01*
X41514890Y-26747812D01*
X41514892Y-26747824D01*
X41575936Y-26988881D01*
X41675826Y-27216606D01*
X41811833Y-27424782D01*
X41811836Y-27424785D01*
X41980256Y-27607738D01*
X42176491Y-27760474D01*
X42395190Y-27878828D01*
X42630386Y-27959571D01*
X42875665Y-28000500D01*
X43124335Y-28000500D01*
X43369614Y-27959571D01*
X43604810Y-27878828D01*
X43823509Y-27760474D01*
X44019744Y-27607738D01*
X44188164Y-27424785D01*
X44324173Y-27216607D01*
X44424063Y-26988881D01*
X44485108Y-26747821D01*
X44489403Y-26695993D01*
X44505643Y-26500005D01*
X44505643Y-26499994D01*
X55494357Y-26499994D01*
X55494357Y-26500005D01*
X55514890Y-26747812D01*
X55514892Y-26747824D01*
X55575936Y-26988881D01*
X55675826Y-27216606D01*
X55811833Y-27424782D01*
X55811836Y-27424785D01*
X55980256Y-27607738D01*
X56176491Y-27760474D01*
X56395190Y-27878828D01*
X56630386Y-27959571D01*
X56875665Y-28000500D01*
X57124335Y-28000500D01*
X57369614Y-27959571D01*
X57604810Y-27878828D01*
X57823509Y-27760474D01*
X58019744Y-27607738D01*
X58188164Y-27424785D01*
X58324173Y-27216607D01*
X58424063Y-26988881D01*
X58485108Y-26747821D01*
X58489403Y-26695993D01*
X58505643Y-26500005D01*
X58505643Y-26499994D01*
X62494357Y-26499994D01*
X62494357Y-26500005D01*
X62514890Y-26747812D01*
X62514892Y-26747824D01*
X62575936Y-26988881D01*
X62675826Y-27216606D01*
X62811833Y-27424782D01*
X62811836Y-27424785D01*
X62980256Y-27607738D01*
X63176491Y-27760474D01*
X63395190Y-27878828D01*
X63630386Y-27959571D01*
X63875665Y-28000500D01*
X64124335Y-28000500D01*
X64369614Y-27959571D01*
X64604810Y-27878828D01*
X64823509Y-27760474D01*
X65019744Y-27607738D01*
X65188164Y-27424785D01*
X65324173Y-27216607D01*
X65424063Y-26988881D01*
X65485108Y-26747821D01*
X65489403Y-26695993D01*
X65505643Y-26500005D01*
X65505643Y-26499994D01*
X65485109Y-26252187D01*
X65485107Y-26252175D01*
X65424063Y-26011118D01*
X65324173Y-25783393D01*
X65188166Y-25575217D01*
X65166557Y-25551744D01*
X65019744Y-25392262D01*
X64823509Y-25239526D01*
X64823507Y-25239525D01*
X64823506Y-25239524D01*
X64604811Y-25121172D01*
X64604802Y-25121169D01*
X64369616Y-25040429D01*
X64124335Y-24999500D01*
X63875665Y-24999500D01*
X63630383Y-25040429D01*
X63395197Y-25121169D01*
X63395188Y-25121172D01*
X63176493Y-25239524D01*
X62980257Y-25392261D01*
X62811833Y-25575217D01*
X62675826Y-25783393D01*
X62575936Y-26011118D01*
X62514892Y-26252175D01*
X62514890Y-26252187D01*
X62494357Y-26499994D01*
X58505643Y-26499994D01*
X58485109Y-26252187D01*
X58485107Y-26252175D01*
X58424063Y-26011118D01*
X58324173Y-25783393D01*
X58188166Y-25575217D01*
X58166557Y-25551744D01*
X58019744Y-25392262D01*
X57823509Y-25239526D01*
X57823507Y-25239525D01*
X57823506Y-25239524D01*
X57604811Y-25121172D01*
X57604802Y-25121169D01*
X57369616Y-25040429D01*
X57124335Y-24999500D01*
X56875665Y-24999500D01*
X56630383Y-25040429D01*
X56395197Y-25121169D01*
X56395188Y-25121172D01*
X56176493Y-25239524D01*
X55980257Y-25392261D01*
X55811833Y-25575217D01*
X55675826Y-25783393D01*
X55575936Y-26011118D01*
X55514892Y-26252175D01*
X55514890Y-26252187D01*
X55494357Y-26499994D01*
X44505643Y-26499994D01*
X44485109Y-26252187D01*
X44485107Y-26252175D01*
X44424063Y-26011118D01*
X44324173Y-25783393D01*
X44188166Y-25575217D01*
X44166557Y-25551744D01*
X44019744Y-25392262D01*
X43823509Y-25239526D01*
X43823507Y-25239525D01*
X43823506Y-25239524D01*
X43604811Y-25121172D01*
X43604802Y-25121169D01*
X43369616Y-25040429D01*
X43124335Y-24999500D01*
X42875665Y-24999500D01*
X42630383Y-25040429D01*
X42395197Y-25121169D01*
X42395188Y-25121172D01*
X42176493Y-25239524D01*
X41980257Y-25392261D01*
X41811833Y-25575217D01*
X41675826Y-25783393D01*
X41575936Y-26011118D01*
X41514892Y-26252175D01*
X41514890Y-26252187D01*
X41494357Y-26499994D01*
X31505643Y-26499994D01*
X31485109Y-26252187D01*
X31485107Y-26252175D01*
X31424063Y-26011118D01*
X31324173Y-25783393D01*
X31188166Y-25575217D01*
X31166557Y-25551744D01*
X31019744Y-25392262D01*
X30823509Y-25239526D01*
X30823507Y-25239525D01*
X30823506Y-25239524D01*
X30604811Y-25121172D01*
X30604802Y-25121169D01*
X30369616Y-25040429D01*
X30124335Y-24999500D01*
X29875665Y-24999500D01*
X29630383Y-25040429D01*
X29395197Y-25121169D01*
X29395188Y-25121172D01*
X29176493Y-25239524D01*
X28980257Y-25392261D01*
X28811833Y-25575217D01*
X28675826Y-25783393D01*
X28575936Y-26011118D01*
X28514892Y-26252175D01*
X28514890Y-26252187D01*
X28494357Y-26499994D01*
X28494357Y-26500005D01*
X28514890Y-26747812D01*
X28514892Y-26747824D01*
X28575936Y-26988881D01*
X28675826Y-27216606D01*
X28802672Y-27410759D01*
X28822859Y-27477648D01*
X28803679Y-27544834D01*
X28751221Y-27590984D01*
X28727810Y-27599154D01*
X28590570Y-27632102D01*
X28590557Y-27632106D01*
X28351558Y-27731102D01*
X28130990Y-27866267D01*
X28130985Y-27866270D01*
X27962861Y-28009862D01*
X27934276Y-28034276D01*
X27924287Y-28045970D01*
X27865781Y-28084161D01*
X27795913Y-28084659D01*
X27736867Y-28047304D01*
X27735789Y-28046060D01*
X27725725Y-28034276D01*
X27621074Y-27944896D01*
X27529015Y-27866270D01*
X27529010Y-27866267D01*
X27308442Y-27731102D01*
X27069443Y-27632106D01*
X27069445Y-27632106D01*
X27069441Y-27632105D01*
X27069437Y-27632104D01*
X27069431Y-27632102D01*
X26817899Y-27571715D01*
X26560001Y-27551418D01*
X26302102Y-27571715D01*
X26050570Y-27632102D01*
X26050558Y-27632106D01*
X25811559Y-27731102D01*
X25590991Y-27866267D01*
X25590986Y-27866270D01*
X25422862Y-28009862D01*
X25394277Y-28034276D01*
X25384288Y-28045970D01*
X25325782Y-28084161D01*
X25255914Y-28084659D01*
X25196868Y-28047304D01*
X25195752Y-28046016D01*
X25185725Y-28034276D01*
X25081074Y-27944896D01*
X24989015Y-27866270D01*
X24989010Y-27866267D01*
X24768442Y-27731102D01*
X24529443Y-27632106D01*
X24529445Y-27632106D01*
X24529441Y-27632105D01*
X24529437Y-27632104D01*
X24529431Y-27632102D01*
X24277899Y-27571715D01*
X24020001Y-27551418D01*
X23762102Y-27571715D01*
X23510570Y-27632102D01*
X23510558Y-27632106D01*
X23271559Y-27731102D01*
X23050991Y-27866267D01*
X23050986Y-27866270D01*
X22882862Y-28009862D01*
X22854277Y-28034276D01*
X22844288Y-28045970D01*
X22785782Y-28084161D01*
X22715914Y-28084659D01*
X22656868Y-28047304D01*
X22655752Y-28046016D01*
X22645725Y-28034276D01*
X22541074Y-27944896D01*
X22449015Y-27866270D01*
X22449010Y-27866267D01*
X22308580Y-27780211D01*
X22261705Y-27728400D01*
X22250282Y-27659470D01*
X22277939Y-27595307D01*
X22314354Y-27565429D01*
X22323499Y-27560480D01*
X22323505Y-27560476D01*
X22323504Y-27560476D01*
X22323509Y-27560474D01*
X22519744Y-27407738D01*
X22688164Y-27224785D01*
X22824173Y-27016607D01*
X22924063Y-26788881D01*
X22985108Y-26547821D01*
X22989071Y-26499994D01*
X23005643Y-26300005D01*
X23005643Y-26299994D01*
X22985109Y-26052187D01*
X22985107Y-26052175D01*
X22924063Y-25811118D01*
X22824173Y-25583393D01*
X22688166Y-25375217D01*
X22666557Y-25351744D01*
X22519744Y-25192262D01*
X22323509Y-25039526D01*
X22323507Y-25039525D01*
X22323506Y-25039524D01*
X22104811Y-24921172D01*
X22104802Y-24921169D01*
X21869616Y-24840429D01*
X21624335Y-24799500D01*
X21375665Y-24799500D01*
X21130383Y-24840429D01*
X20895197Y-24921169D01*
X20895188Y-24921172D01*
X20676493Y-25039524D01*
X20480257Y-25192261D01*
X20311833Y-25375217D01*
X20175826Y-25583393D01*
X20075936Y-25811118D01*
X20044706Y-25934446D01*
X20009166Y-25994602D01*
X19946746Y-26025994D01*
X19877262Y-26018656D01*
X19822777Y-25974917D01*
X19800588Y-25908664D01*
X19800500Y-25904006D01*
X19800500Y-24001515D01*
X19820185Y-23934476D01*
X19872989Y-23888721D01*
X19942147Y-23878777D01*
X19998810Y-23902248D01*
X20048675Y-23939577D01*
X20067668Y-23953795D01*
X20067671Y-23953797D01*
X20202517Y-24004091D01*
X20202516Y-24004091D01*
X20209444Y-24004835D01*
X20262127Y-24010500D01*
X21857872Y-24010499D01*
X21917483Y-24004091D01*
X22052331Y-23953796D01*
X22167546Y-23867546D01*
X22253796Y-23752331D01*
X22304091Y-23617483D01*
X22310500Y-23557873D01*
X22310499Y-22760000D01*
X22645403Y-22760000D01*
X22663744Y-22946230D01*
X22718068Y-23125311D01*
X22774869Y-23231576D01*
X23200000Y-22806445D01*
X23200000Y-22812661D01*
X23227259Y-22914394D01*
X23279920Y-23005606D01*
X23354394Y-23080080D01*
X23445606Y-23132741D01*
X23547339Y-23160000D01*
X23553553Y-23160000D01*
X23128422Y-23585130D01*
X23234688Y-23641931D01*
X23413769Y-23696255D01*
X23600000Y-23714596D01*
X23786230Y-23696255D01*
X23965309Y-23641931D01*
X24071575Y-23585129D01*
X23646448Y-23160000D01*
X23652661Y-23160000D01*
X23754394Y-23132741D01*
X23845606Y-23080080D01*
X23920080Y-23005606D01*
X23972741Y-22914394D01*
X24000000Y-22812661D01*
X24000000Y-22806446D01*
X24425129Y-23231575D01*
X24481931Y-23125309D01*
X24536255Y-22946230D01*
X24554596Y-22760000D01*
X24554596Y-22759997D01*
X24884722Y-22759997D01*
X24884722Y-22760002D01*
X24903792Y-22977975D01*
X24903792Y-22977979D01*
X24960421Y-23189322D01*
X24960423Y-23189326D01*
X24960424Y-23189330D01*
X24980123Y-23231575D01*
X25052896Y-23387638D01*
X25052897Y-23387639D01*
X25178401Y-23566877D01*
X25333122Y-23721598D01*
X25512360Y-23847102D01*
X25710669Y-23939575D01*
X25922022Y-23996207D01*
X26104925Y-24012208D01*
X26139997Y-24015277D01*
X26139999Y-24015277D01*
X26140001Y-24015277D01*
X26168253Y-24012805D01*
X26357976Y-23996207D01*
X26569329Y-23939575D01*
X26767638Y-23847102D01*
X26946876Y-23721598D01*
X27101597Y-23566877D01*
X27227101Y-23387639D01*
X27319574Y-23189330D01*
X27376206Y-22977977D01*
X27395276Y-22760000D01*
X27376206Y-22542023D01*
X27364944Y-22499994D01*
X28494357Y-22499994D01*
X28494357Y-22500005D01*
X28514890Y-22747812D01*
X28514892Y-22747824D01*
X28575936Y-22988881D01*
X28675826Y-23216606D01*
X28811833Y-23424782D01*
X28811836Y-23424785D01*
X28980256Y-23607738D01*
X29176491Y-23760474D01*
X29176493Y-23760475D01*
X29374344Y-23867547D01*
X29395190Y-23878828D01*
X29630386Y-23959571D01*
X29875665Y-24000500D01*
X30124335Y-24000500D01*
X30369614Y-23959571D01*
X30604810Y-23878828D01*
X30823509Y-23760474D01*
X31019744Y-23607738D01*
X31188164Y-23424785D01*
X31324173Y-23216607D01*
X31424063Y-22988881D01*
X31485108Y-22747821D01*
X31485109Y-22747812D01*
X31505643Y-22500005D01*
X31505643Y-22499994D01*
X31485109Y-22252187D01*
X31485107Y-22252175D01*
X31424063Y-22011118D01*
X31402577Y-21962135D01*
X33209500Y-21962135D01*
X33209500Y-23557870D01*
X33209501Y-23557876D01*
X33215908Y-23617483D01*
X33266202Y-23752328D01*
X33266206Y-23752335D01*
X33352452Y-23867544D01*
X33352455Y-23867547D01*
X33467664Y-23953793D01*
X33467671Y-23953797D01*
X33602517Y-24004091D01*
X33602516Y-24004091D01*
X33609444Y-24004835D01*
X33662127Y-24010500D01*
X35257872Y-24010499D01*
X35317483Y-24004091D01*
X35452331Y-23953796D01*
X35567546Y-23867546D01*
X35653796Y-23752331D01*
X35704091Y-23617483D01*
X35710500Y-23557873D01*
X35710499Y-22760000D01*
X36045403Y-22760000D01*
X36063744Y-22946230D01*
X36118068Y-23125311D01*
X36174869Y-23231576D01*
X36600000Y-22806445D01*
X36600000Y-22812661D01*
X36627259Y-22914394D01*
X36679920Y-23005606D01*
X36754394Y-23080080D01*
X36845606Y-23132741D01*
X36947339Y-23160000D01*
X36953553Y-23160000D01*
X36528422Y-23585130D01*
X36634688Y-23641931D01*
X36813769Y-23696255D01*
X37000000Y-23714596D01*
X37186230Y-23696255D01*
X37365309Y-23641931D01*
X37471576Y-23585129D01*
X37046448Y-23160000D01*
X37052661Y-23160000D01*
X37154394Y-23132741D01*
X37245606Y-23080080D01*
X37320080Y-23005606D01*
X37372741Y-22914394D01*
X37400000Y-22812661D01*
X37400000Y-22806447D01*
X37825129Y-23231575D01*
X37881931Y-23125309D01*
X37936255Y-22946230D01*
X37954596Y-22760000D01*
X37954596Y-22759997D01*
X38284722Y-22759997D01*
X38284722Y-22760002D01*
X38303792Y-22977975D01*
X38303792Y-22977979D01*
X38360421Y-23189322D01*
X38360423Y-23189326D01*
X38360424Y-23189330D01*
X38380123Y-23231575D01*
X38452896Y-23387638D01*
X38452897Y-23387639D01*
X38578401Y-23566877D01*
X38733122Y-23721598D01*
X38912360Y-23847102D01*
X39110669Y-23939575D01*
X39322022Y-23996207D01*
X39504925Y-24012208D01*
X39539997Y-24015277D01*
X39539999Y-24015277D01*
X39540001Y-24015277D01*
X39568253Y-24012805D01*
X39757976Y-23996207D01*
X39969329Y-23939575D01*
X40167638Y-23847102D01*
X40346876Y-23721598D01*
X40501597Y-23566877D01*
X40627101Y-23387639D01*
X40719574Y-23189330D01*
X40776206Y-22977977D01*
X40795276Y-22760000D01*
X40776206Y-22542023D01*
X40764944Y-22499994D01*
X41494357Y-22499994D01*
X41494357Y-22500005D01*
X41514890Y-22747812D01*
X41514892Y-22747824D01*
X41575936Y-22988881D01*
X41675826Y-23216606D01*
X41811833Y-23424782D01*
X41811836Y-23424785D01*
X41980256Y-23607738D01*
X42176491Y-23760474D01*
X42176493Y-23760475D01*
X42374344Y-23867547D01*
X42395190Y-23878828D01*
X42630386Y-23959571D01*
X42875665Y-24000500D01*
X43124335Y-24000500D01*
X43369614Y-23959571D01*
X43604810Y-23878828D01*
X43823509Y-23760474D01*
X44019744Y-23607738D01*
X44188164Y-23424785D01*
X44324173Y-23216607D01*
X44424063Y-22988881D01*
X44485108Y-22747821D01*
X44485109Y-22747812D01*
X44505643Y-22500005D01*
X44505643Y-22499994D01*
X44485109Y-22252187D01*
X44485107Y-22252175D01*
X44424063Y-22011118D01*
X44402577Y-21962135D01*
X46609500Y-21962135D01*
X46609500Y-23557870D01*
X46609501Y-23557876D01*
X46615908Y-23617483D01*
X46666202Y-23752328D01*
X46666206Y-23752335D01*
X46752452Y-23867544D01*
X46752455Y-23867547D01*
X46867664Y-23953793D01*
X46867671Y-23953797D01*
X47002517Y-24004091D01*
X47002516Y-24004091D01*
X47009444Y-24004835D01*
X47062127Y-24010500D01*
X48657872Y-24010499D01*
X48717483Y-24004091D01*
X48852331Y-23953796D01*
X48967546Y-23867546D01*
X49053796Y-23752331D01*
X49104091Y-23617483D01*
X49110500Y-23557873D01*
X49110499Y-22760000D01*
X49445403Y-22760000D01*
X49463744Y-22946230D01*
X49518068Y-23125311D01*
X49574869Y-23231576D01*
X50000000Y-22806445D01*
X50000000Y-22812661D01*
X50027259Y-22914394D01*
X50079920Y-23005606D01*
X50154394Y-23080080D01*
X50245606Y-23132741D01*
X50347339Y-23160000D01*
X50353553Y-23160000D01*
X49928422Y-23585130D01*
X50034688Y-23641931D01*
X50213769Y-23696255D01*
X50400000Y-23714596D01*
X50586230Y-23696255D01*
X50765309Y-23641931D01*
X50871576Y-23585129D01*
X50446448Y-23160000D01*
X50452661Y-23160000D01*
X50554394Y-23132741D01*
X50645606Y-23080080D01*
X50720080Y-23005606D01*
X50772741Y-22914394D01*
X50800000Y-22812661D01*
X50800000Y-22806446D01*
X51225129Y-23231575D01*
X51281931Y-23125309D01*
X51336255Y-22946230D01*
X51354596Y-22760000D01*
X51354596Y-22759997D01*
X51684722Y-22759997D01*
X51684722Y-22760002D01*
X51703792Y-22977975D01*
X51703792Y-22977979D01*
X51760421Y-23189322D01*
X51760423Y-23189326D01*
X51760424Y-23189330D01*
X51780123Y-23231575D01*
X51852896Y-23387638D01*
X51852897Y-23387639D01*
X51978401Y-23566877D01*
X52133122Y-23721598D01*
X52312360Y-23847102D01*
X52510669Y-23939575D01*
X52722022Y-23996207D01*
X52904925Y-24012208D01*
X52939997Y-24015277D01*
X52939999Y-24015277D01*
X52940001Y-24015277D01*
X52968253Y-24012805D01*
X53157976Y-23996207D01*
X53369329Y-23939575D01*
X53567638Y-23847102D01*
X53746876Y-23721598D01*
X53901597Y-23566877D01*
X54027101Y-23387639D01*
X54119574Y-23189330D01*
X54176206Y-22977977D01*
X54195276Y-22760000D01*
X54176206Y-22542023D01*
X54164944Y-22499994D01*
X55494357Y-22499994D01*
X55494357Y-22500005D01*
X55514890Y-22747812D01*
X55514892Y-22747824D01*
X55575936Y-22988881D01*
X55675826Y-23216606D01*
X55811833Y-23424782D01*
X55811836Y-23424785D01*
X55980256Y-23607738D01*
X56176491Y-23760474D01*
X56176493Y-23760475D01*
X56374344Y-23867547D01*
X56395190Y-23878828D01*
X56630386Y-23959571D01*
X56875665Y-24000500D01*
X57124335Y-24000500D01*
X57369614Y-23959571D01*
X57604810Y-23878828D01*
X57823509Y-23760474D01*
X58019744Y-23607738D01*
X58188164Y-23424785D01*
X58324173Y-23216607D01*
X58424063Y-22988881D01*
X58485108Y-22747821D01*
X58485109Y-22747812D01*
X58505643Y-22500005D01*
X58505643Y-22499994D01*
X58485109Y-22252187D01*
X58485107Y-22252175D01*
X58424063Y-22011118D01*
X58402577Y-21962135D01*
X60009500Y-21962135D01*
X60009500Y-23557870D01*
X60009501Y-23557876D01*
X60015908Y-23617483D01*
X60066202Y-23752328D01*
X60066206Y-23752335D01*
X60152452Y-23867544D01*
X60152455Y-23867547D01*
X60267664Y-23953793D01*
X60267671Y-23953797D01*
X60402517Y-24004091D01*
X60402516Y-24004091D01*
X60409444Y-24004835D01*
X60462127Y-24010500D01*
X62057872Y-24010499D01*
X62117483Y-24004091D01*
X62252331Y-23953796D01*
X62367546Y-23867546D01*
X62453796Y-23752331D01*
X62504091Y-23617483D01*
X62510500Y-23557873D01*
X62510499Y-22760000D01*
X62845403Y-22760000D01*
X62863744Y-22946230D01*
X62918068Y-23125311D01*
X62974869Y-23231576D01*
X63400000Y-22806445D01*
X63400000Y-22812661D01*
X63427259Y-22914394D01*
X63479920Y-23005606D01*
X63554394Y-23080080D01*
X63645606Y-23132741D01*
X63747339Y-23160000D01*
X63753553Y-23160000D01*
X63328422Y-23585130D01*
X63434688Y-23641931D01*
X63613769Y-23696255D01*
X63800000Y-23714596D01*
X63986230Y-23696255D01*
X64165309Y-23641931D01*
X64271576Y-23585129D01*
X63846448Y-23160000D01*
X63852661Y-23160000D01*
X63954394Y-23132741D01*
X64045606Y-23080080D01*
X64120080Y-23005606D01*
X64172741Y-22914394D01*
X64200000Y-22812661D01*
X64200000Y-22806447D01*
X64625129Y-23231575D01*
X64681931Y-23125309D01*
X64736255Y-22946230D01*
X64754596Y-22760000D01*
X64736255Y-22573769D01*
X64681931Y-22394688D01*
X64625130Y-22288422D01*
X64200000Y-22713552D01*
X64200000Y-22707339D01*
X64172741Y-22605606D01*
X64120080Y-22514394D01*
X64045606Y-22439920D01*
X63954394Y-22387259D01*
X63852661Y-22360000D01*
X63846447Y-22360000D01*
X64271576Y-21934869D01*
X64165311Y-21878068D01*
X63986230Y-21823744D01*
X63800000Y-21805403D01*
X63613769Y-21823744D01*
X63434686Y-21878069D01*
X63328422Y-21934868D01*
X63753554Y-22360000D01*
X63747339Y-22360000D01*
X63645606Y-22387259D01*
X63554394Y-22439920D01*
X63479920Y-22514394D01*
X63427259Y-22605606D01*
X63400000Y-22707339D01*
X63400000Y-22713554D01*
X62974868Y-22288422D01*
X62918069Y-22394686D01*
X62863744Y-22573769D01*
X62845403Y-22760000D01*
X62510499Y-22760000D01*
X62510499Y-21962128D01*
X62504091Y-21902517D01*
X62494972Y-21878069D01*
X62453797Y-21767671D01*
X62453793Y-21767664D01*
X62367547Y-21652455D01*
X62367544Y-21652452D01*
X62252335Y-21566206D01*
X62252328Y-21566202D01*
X62117482Y-21515908D01*
X62117483Y-21515908D01*
X62057883Y-21509501D01*
X62057881Y-21509500D01*
X62057873Y-21509500D01*
X62057864Y-21509500D01*
X60462129Y-21509500D01*
X60462123Y-21509501D01*
X60402516Y-21515908D01*
X60267671Y-21566202D01*
X60267664Y-21566206D01*
X60152455Y-21652452D01*
X60152452Y-21652455D01*
X60066206Y-21767664D01*
X60066202Y-21767671D01*
X60015908Y-21902517D01*
X60010468Y-21953121D01*
X60009501Y-21962123D01*
X60009500Y-21962135D01*
X58402577Y-21962135D01*
X58324173Y-21783393D01*
X58188166Y-21575217D01*
X58127669Y-21509500D01*
X58019744Y-21392262D01*
X57823509Y-21239526D01*
X57823507Y-21239525D01*
X57823506Y-21239524D01*
X57604811Y-21121172D01*
X57604802Y-21121169D01*
X57369616Y-21040429D01*
X57124335Y-20999500D01*
X56875665Y-20999500D01*
X56630383Y-21040429D01*
X56395197Y-21121169D01*
X56395188Y-21121172D01*
X56176493Y-21239524D01*
X55980257Y-21392261D01*
X55811833Y-21575217D01*
X55675826Y-21783393D01*
X55575936Y-22011118D01*
X55514892Y-22252175D01*
X55514890Y-22252187D01*
X55494357Y-22499994D01*
X54164944Y-22499994D01*
X54119574Y-22330670D01*
X54027101Y-22132362D01*
X54027099Y-22132359D01*
X54027098Y-22132357D01*
X53901598Y-21953124D01*
X53826542Y-21878068D01*
X53746876Y-21798402D01*
X53567638Y-21672898D01*
X53567639Y-21672898D01*
X53567637Y-21672897D01*
X53424477Y-21606141D01*
X53369329Y-21580425D01*
X53369325Y-21580424D01*
X53369321Y-21580422D01*
X53157976Y-21523793D01*
X52940001Y-21504723D01*
X52939997Y-21504723D01*
X52812150Y-21515908D01*
X52722022Y-21523793D01*
X52722019Y-21523793D01*
X52510676Y-21580422D01*
X52510667Y-21580426D01*
X52312360Y-21672898D01*
X52312356Y-21672900D01*
X52133120Y-21798402D01*
X51978401Y-21953121D01*
X51852899Y-22132357D01*
X51852897Y-22132361D01*
X51760425Y-22330668D01*
X51760421Y-22330677D01*
X51703792Y-22542020D01*
X51703792Y-22542024D01*
X51684722Y-22759997D01*
X51354596Y-22759997D01*
X51336255Y-22573769D01*
X51281931Y-22394688D01*
X51225130Y-22288422D01*
X50800000Y-22713552D01*
X50800000Y-22707339D01*
X50772741Y-22605606D01*
X50720080Y-22514394D01*
X50645606Y-22439920D01*
X50554394Y-22387259D01*
X50452661Y-22360000D01*
X50446447Y-22360000D01*
X50871576Y-21934869D01*
X50765311Y-21878068D01*
X50586230Y-21823744D01*
X50400000Y-21805403D01*
X50213769Y-21823744D01*
X50034686Y-21878069D01*
X49928422Y-21934868D01*
X50353554Y-22360000D01*
X50347339Y-22360000D01*
X50245606Y-22387259D01*
X50154394Y-22439920D01*
X50079920Y-22514394D01*
X50027259Y-22605606D01*
X50000000Y-22707339D01*
X50000000Y-22713554D01*
X49574868Y-22288422D01*
X49518069Y-22394686D01*
X49463744Y-22573769D01*
X49445403Y-22760000D01*
X49110499Y-22760000D01*
X49110499Y-21962128D01*
X49104091Y-21902517D01*
X49094972Y-21878069D01*
X49053797Y-21767671D01*
X49053793Y-21767664D01*
X48967547Y-21652455D01*
X48967544Y-21652452D01*
X48852335Y-21566206D01*
X48852328Y-21566202D01*
X48717482Y-21515908D01*
X48717483Y-21515908D01*
X48657883Y-21509501D01*
X48657881Y-21509500D01*
X48657873Y-21509500D01*
X48657864Y-21509500D01*
X47062129Y-21509500D01*
X47062123Y-21509501D01*
X47002516Y-21515908D01*
X46867671Y-21566202D01*
X46867664Y-21566206D01*
X46752455Y-21652452D01*
X46752452Y-21652455D01*
X46666206Y-21767664D01*
X46666202Y-21767671D01*
X46615908Y-21902517D01*
X46610468Y-21953121D01*
X46609501Y-21962123D01*
X46609500Y-21962135D01*
X44402577Y-21962135D01*
X44324173Y-21783393D01*
X44188166Y-21575217D01*
X44127669Y-21509500D01*
X44019744Y-21392262D01*
X43823509Y-21239526D01*
X43823507Y-21239525D01*
X43823506Y-21239524D01*
X43604811Y-21121172D01*
X43604802Y-21121169D01*
X43369616Y-21040429D01*
X43124335Y-20999500D01*
X42875665Y-20999500D01*
X42630383Y-21040429D01*
X42395197Y-21121169D01*
X42395188Y-21121172D01*
X42176493Y-21239524D01*
X41980257Y-21392261D01*
X41811833Y-21575217D01*
X41675826Y-21783393D01*
X41575936Y-22011118D01*
X41514892Y-22252175D01*
X41514890Y-22252187D01*
X41494357Y-22499994D01*
X40764944Y-22499994D01*
X40719574Y-22330670D01*
X40627101Y-22132362D01*
X40627099Y-22132359D01*
X40627098Y-22132357D01*
X40501598Y-21953124D01*
X40426542Y-21878068D01*
X40346876Y-21798402D01*
X40167638Y-21672898D01*
X40167639Y-21672898D01*
X40167637Y-21672897D01*
X40024477Y-21606141D01*
X39969329Y-21580425D01*
X39969325Y-21580424D01*
X39969321Y-21580422D01*
X39757976Y-21523793D01*
X39540001Y-21504723D01*
X39539997Y-21504723D01*
X39412150Y-21515908D01*
X39322022Y-21523793D01*
X39322019Y-21523793D01*
X39110676Y-21580422D01*
X39110667Y-21580426D01*
X38912360Y-21672898D01*
X38912356Y-21672900D01*
X38733120Y-21798402D01*
X38578401Y-21953121D01*
X38452899Y-22132357D01*
X38452897Y-22132361D01*
X38360425Y-22330668D01*
X38360421Y-22330677D01*
X38303792Y-22542020D01*
X38303792Y-22542024D01*
X38284722Y-22759997D01*
X37954596Y-22759997D01*
X37936255Y-22573769D01*
X37881931Y-22394688D01*
X37825130Y-22288422D01*
X37400000Y-22713552D01*
X37400000Y-22707339D01*
X37372741Y-22605606D01*
X37320080Y-22514394D01*
X37245606Y-22439920D01*
X37154394Y-22387259D01*
X37052661Y-22360000D01*
X37046447Y-22360000D01*
X37471576Y-21934869D01*
X37365311Y-21878068D01*
X37186230Y-21823744D01*
X37000000Y-21805403D01*
X36813769Y-21823744D01*
X36634686Y-21878069D01*
X36528422Y-21934868D01*
X36953554Y-22360000D01*
X36947339Y-22360000D01*
X36845606Y-22387259D01*
X36754394Y-22439920D01*
X36679920Y-22514394D01*
X36627259Y-22605606D01*
X36600000Y-22707339D01*
X36600000Y-22713554D01*
X36174868Y-22288422D01*
X36118069Y-22394686D01*
X36063744Y-22573769D01*
X36045403Y-22760000D01*
X35710499Y-22760000D01*
X35710499Y-21962128D01*
X35704091Y-21902517D01*
X35694972Y-21878069D01*
X35653797Y-21767671D01*
X35653793Y-21767664D01*
X35567547Y-21652455D01*
X35567544Y-21652452D01*
X35452335Y-21566206D01*
X35452328Y-21566202D01*
X35317482Y-21515908D01*
X35317483Y-21515908D01*
X35257883Y-21509501D01*
X35257881Y-21509500D01*
X35257873Y-21509500D01*
X35257864Y-21509500D01*
X33662129Y-21509500D01*
X33662123Y-21509501D01*
X33602516Y-21515908D01*
X33467671Y-21566202D01*
X33467664Y-21566206D01*
X33352455Y-21652452D01*
X33352452Y-21652455D01*
X33266206Y-21767664D01*
X33266202Y-21767671D01*
X33215908Y-21902517D01*
X33210468Y-21953121D01*
X33209501Y-21962123D01*
X33209500Y-21962135D01*
X31402577Y-21962135D01*
X31324173Y-21783393D01*
X31188166Y-21575217D01*
X31127669Y-21509500D01*
X31019744Y-21392262D01*
X30823509Y-21239526D01*
X30823507Y-21239525D01*
X30823506Y-21239524D01*
X30604811Y-21121172D01*
X30604802Y-21121169D01*
X30369616Y-21040429D01*
X30124335Y-20999500D01*
X29875665Y-20999500D01*
X29630383Y-21040429D01*
X29395197Y-21121169D01*
X29395188Y-21121172D01*
X29176493Y-21239524D01*
X28980257Y-21392261D01*
X28811833Y-21575217D01*
X28675826Y-21783393D01*
X28575936Y-22011118D01*
X28514892Y-22252175D01*
X28514890Y-22252187D01*
X28494357Y-22499994D01*
X27364944Y-22499994D01*
X27319574Y-22330670D01*
X27227101Y-22132362D01*
X27227099Y-22132359D01*
X27227098Y-22132357D01*
X27101598Y-21953124D01*
X27026542Y-21878068D01*
X26946876Y-21798402D01*
X26767638Y-21672898D01*
X26767639Y-21672898D01*
X26767637Y-21672897D01*
X26624477Y-21606141D01*
X26569329Y-21580425D01*
X26569325Y-21580424D01*
X26569321Y-21580422D01*
X26357976Y-21523793D01*
X26140001Y-21504723D01*
X26139997Y-21504723D01*
X26012150Y-21515908D01*
X25922022Y-21523793D01*
X25922019Y-21523793D01*
X25710676Y-21580422D01*
X25710667Y-21580426D01*
X25512360Y-21672898D01*
X25512356Y-21672900D01*
X25333120Y-21798402D01*
X25178401Y-21953121D01*
X25052899Y-22132357D01*
X25052897Y-22132361D01*
X24960425Y-22330668D01*
X24960421Y-22330677D01*
X24903792Y-22542020D01*
X24903792Y-22542024D01*
X24884722Y-22759997D01*
X24554596Y-22759997D01*
X24536255Y-22573769D01*
X24481931Y-22394688D01*
X24425130Y-22288422D01*
X24000000Y-22713552D01*
X24000000Y-22707339D01*
X23972741Y-22605606D01*
X23920080Y-22514394D01*
X23845606Y-22439920D01*
X23754394Y-22387259D01*
X23652661Y-22360000D01*
X23646447Y-22360000D01*
X24071576Y-21934869D01*
X23965311Y-21878068D01*
X23786230Y-21823744D01*
X23600000Y-21805403D01*
X23413769Y-21823744D01*
X23234686Y-21878069D01*
X23128422Y-21934868D01*
X23553554Y-22360000D01*
X23547339Y-22360000D01*
X23445606Y-22387259D01*
X23354394Y-22439920D01*
X23279920Y-22514394D01*
X23227259Y-22605606D01*
X23200000Y-22707339D01*
X23200000Y-22713554D01*
X22774868Y-22288422D01*
X22718069Y-22394686D01*
X22663744Y-22573769D01*
X22645403Y-22760000D01*
X22310499Y-22760000D01*
X22310499Y-21962128D01*
X22304091Y-21902517D01*
X22294972Y-21878069D01*
X22253797Y-21767671D01*
X22253793Y-21767664D01*
X22167547Y-21652455D01*
X22167544Y-21652452D01*
X22052335Y-21566206D01*
X22052328Y-21566202D01*
X21917482Y-21515908D01*
X21917483Y-21515908D01*
X21857883Y-21509501D01*
X21857881Y-21509500D01*
X21857873Y-21509500D01*
X21857864Y-21509500D01*
X20262129Y-21509500D01*
X20262123Y-21509501D01*
X20202516Y-21515908D01*
X20067671Y-21566202D01*
X20067668Y-21566204D01*
X19998811Y-21617751D01*
X19933347Y-21642168D01*
X19865074Y-21627316D01*
X19815668Y-21577911D01*
X19800500Y-21518484D01*
X19800500Y-20958676D01*
X19820185Y-20891637D01*
X19836819Y-20870995D01*
X21170995Y-19536819D01*
X21232318Y-19503334D01*
X21258676Y-19500500D01*
X66241324Y-19500500D01*
X66308363Y-19520185D01*
G37*
%TD.AperFunction*%
%TA.AperFunction,Conductor*%
G36*
X27923126Y-30352689D02*
G01*
X27924250Y-30353986D01*
X27934276Y-30365724D01*
X28014474Y-30434219D01*
X28130985Y-30533729D01*
X28130987Y-30533730D01*
X28130988Y-30533731D01*
X28351559Y-30668897D01*
X28381510Y-30681303D01*
X28421737Y-30708182D01*
X28912212Y-31198657D01*
X28879410Y-31207447D01*
X28749092Y-31282687D01*
X28642688Y-31389091D01*
X28567448Y-31519409D01*
X28558658Y-31552210D01*
X28068183Y-31061735D01*
X28041304Y-31021509D01*
X28028896Y-30991555D01*
X27893733Y-30770990D01*
X27893730Y-30770985D01*
X27817131Y-30681299D01*
X27725725Y-30574276D01*
X27714032Y-30564289D01*
X27675840Y-30505784D01*
X27675340Y-30435916D01*
X27712693Y-30376869D01*
X27713922Y-30375804D01*
X27725725Y-30365724D01*
X27735708Y-30354034D01*
X27794210Y-30315841D01*
X27864078Y-30315339D01*
X27923126Y-30352689D01*
G37*
%TD.AperFunction*%
%TD*%
M02*
