%TF.GenerationSoftware,KiCad,Pcbnew,8.0.2-1*%
%TF.CreationDate,2024-07-06T18:07:41-04:00*%
%TF.ProjectId,sensor_v3,73656e73-6f72-45f7-9633-2e6b69636164,rev?*%
%TF.SameCoordinates,Original*%
%TF.FileFunction,Legend,Top*%
%TF.FilePolarity,Positive*%
%FSLAX46Y46*%
G04 Gerber Fmt 4.6, Leading zero omitted, Abs format (unit mm)*
G04 Created by KiCad (PCBNEW 8.0.2-1) date 2024-07-06 18:07:41*
%MOMM*%
%LPD*%
G01*
G04 APERTURE LIST*
%ADD10C,0.100000*%
%ADD11C,0.120000*%
G04 APERTURE END LIST*
D10*
X32000000Y-29000000D02*
X32000000Y-27900000D01*
X32000000Y-27500000D02*
X32000000Y-26400000D01*
X32000000Y-26000000D02*
X32000000Y-24900000D01*
X32000000Y-24500000D02*
X32000000Y-23400000D01*
X32000000Y-23000000D02*
X32000000Y-21900000D01*
X32000000Y-21500000D02*
X32000000Y-20400000D01*
X32000000Y-20000000D02*
X32000000Y-19000000D01*
X45000000Y-29000000D02*
X45000000Y-27900000D01*
X45000000Y-27500000D02*
X45000000Y-26400000D01*
X45000000Y-26000000D02*
X45000000Y-24900000D01*
X45000000Y-24500000D02*
X45000000Y-23400000D01*
X45000000Y-23000000D02*
X45000000Y-21900000D01*
X45000000Y-21500000D02*
X45000000Y-20400000D01*
X45000000Y-20000000D02*
X45000000Y-19000000D01*
X59000000Y-29000000D02*
X59000000Y-27900000D01*
X59000000Y-27500000D02*
X59000000Y-26400000D01*
X59000000Y-26000000D02*
X59000000Y-24900000D01*
X59000000Y-24500000D02*
X59000000Y-23400000D01*
X59000000Y-23000000D02*
X59000000Y-21900000D01*
X59000000Y-21500000D02*
X59000000Y-20400000D01*
X59000000Y-20000000D02*
X59000000Y-19000000D01*
D11*
%TO.C,U4*%
X21800000Y-24610001D02*
X25400000Y-24610000D01*
X21243600Y-21661193D02*
G75*
G02*
X23600000Y-20160000I2356400J-1098807D01*
G01*
X21800000Y-24610001D02*
G75*
G02*
X21275815Y-23882795I1800000J1850001D01*
G01*
X23600000Y-20160000D02*
G75*
G02*
X25956401Y-21661193I0J-2600000D01*
G01*
X25924184Y-23882794D02*
G75*
G02*
X25400000Y-24610000I-2324184J1122794D01*
G01*
%TO.C,U3*%
X35200000Y-24610001D02*
X38800000Y-24610000D01*
X34643600Y-21661193D02*
G75*
G02*
X37000000Y-20160000I2356400J-1098807D01*
G01*
X35200000Y-24610001D02*
G75*
G02*
X34675815Y-23882795I1800000J1850001D01*
G01*
X37000000Y-20160000D02*
G75*
G02*
X39356401Y-21661193I0J-2600000D01*
G01*
X39324184Y-23882794D02*
G75*
G02*
X38800000Y-24610000I-2324184J1122794D01*
G01*
%TO.C,U1*%
X62000000Y-24610001D02*
X65600000Y-24610000D01*
X61443600Y-21661193D02*
G75*
G02*
X63800000Y-20160000I2356400J-1098807D01*
G01*
X62000000Y-24610001D02*
G75*
G02*
X61475815Y-23882795I1800000J1850001D01*
G01*
X63800000Y-20160000D02*
G75*
G02*
X66156401Y-21661193I0J-2600000D01*
G01*
X66124184Y-23882794D02*
G75*
G02*
X65600000Y-24610000I-2324184J1122794D01*
G01*
%TO.C,U2*%
X48600000Y-24610001D02*
X52200000Y-24610000D01*
X48043600Y-21661193D02*
G75*
G02*
X50400000Y-20160000I2356400J-1098807D01*
G01*
X48600000Y-24610001D02*
G75*
G02*
X48075815Y-23882795I1800000J1850001D01*
G01*
X50400000Y-20160000D02*
G75*
G02*
X52756401Y-21661193I0J-2600000D01*
G01*
X52724184Y-23882794D02*
G75*
G02*
X52200000Y-24610000I-2324184J1122794D01*
G01*
%TD*%
M02*
