%TF.GenerationSoftware,KiCad,Pcbnew,8.0.2-1*%
%TF.CreationDate,2024-07-06T18:07:41-04:00*%
%TF.ProjectId,sensor_v3,73656e73-6f72-45f7-9633-2e6b69636164,rev?*%
%TF.SameCoordinates,Original*%
%TF.FileFunction,Profile,NP*%
%FSLAX46Y46*%
G04 Gerber Fmt 4.6, Leading zero omitted, Abs format (unit mm)*
G04 Created by KiCad (PCBNEW 8.0.2-1) date 2024-07-06 18:07:41*
%MOMM*%
%LPD*%
G01*
G04 APERTURE LIST*
%TA.AperFunction,Profile*%
%ADD10C,0.050000*%
%TD*%
G04 APERTURE END LIST*
D10*
X31000000Y-26500000D02*
G75*
G02*
X29000000Y-26500000I-1000000J0D01*
G01*
X29000000Y-26500000D02*
G75*
G02*
X31000000Y-26500000I1000000J0D01*
G01*
X58000000Y-22500000D02*
G75*
G02*
X56000000Y-22500000I-1000000J0D01*
G01*
X56000000Y-22500000D02*
G75*
G02*
X58000000Y-22500000I1000000J0D01*
G01*
X44000000Y-26500000D02*
G75*
G02*
X42000000Y-26500000I-1000000J0D01*
G01*
X42000000Y-26500000D02*
G75*
G02*
X44000000Y-26500000I1000000J0D01*
G01*
X65000000Y-26500000D02*
G75*
G02*
X63000000Y-26500000I-1000000J0D01*
G01*
X63000000Y-26500000D02*
G75*
G02*
X65000000Y-26500000I1000000J0D01*
G01*
X44000000Y-22500000D02*
G75*
G02*
X42000000Y-22500000I-1000000J0D01*
G01*
X42000000Y-22500000D02*
G75*
G02*
X44000000Y-22500000I1000000J0D01*
G01*
X31000000Y-22500000D02*
G75*
G02*
X29000000Y-22500000I-1000000J0D01*
G01*
X29000000Y-22500000D02*
G75*
G02*
X31000000Y-22500000I1000000J0D01*
G01*
X22500000Y-26300000D02*
G75*
G02*
X20500000Y-26300000I-1000000J0D01*
G01*
X20500000Y-26300000D02*
G75*
G02*
X22500000Y-26300000I1000000J0D01*
G01*
X58000000Y-26500000D02*
G75*
G02*
X56000000Y-26500000I-1000000J0D01*
G01*
X56000000Y-26500000D02*
G75*
G02*
X58000000Y-26500000I1000000J0D01*
G01*
X67600000Y-20100000D02*
X67600000Y-27400000D01*
X66000000Y-29000000D01*
X32000000Y-29000000D01*
X32000000Y-32500000D01*
X30500000Y-34000000D01*
X20000000Y-34000000D01*
X19300000Y-33300000D01*
X19300000Y-20700000D01*
X21000000Y-19000000D01*
X66500000Y-19000000D01*
X67600000Y-20100000D01*
M02*
