%TF.GenerationSoftware,KiCad,Pcbnew,8.0.2-1*%
%TF.CreationDate,2024-07-06T18:07:41-04:00*%
%TF.ProjectId,sensor_v3,73656e73-6f72-45f7-9633-2e6b69636164,rev?*%
%TF.SameCoordinates,Original*%
%TF.FileFunction,Copper,L1,Top*%
%TF.FilePolarity,Positive*%
%FSLAX46Y46*%
G04 Gerber Fmt 4.6, Leading zero omitted, Abs format (unit mm)*
G04 Created by KiCad (PCBNEW 8.0.2-1) date 2024-07-06 18:07:41*
%MOMM*%
%LPD*%
G01*
G04 APERTURE LIST*
%TA.AperFunction,ComponentPad*%
%ADD10R,1.500000X1.500000*%
%TD*%
%TA.AperFunction,ComponentPad*%
%ADD11C,1.500000*%
%TD*%
%TA.AperFunction,ComponentPad*%
%ADD12C,2.286000*%
%TD*%
%TA.AperFunction,Conductor*%
%ADD13C,0.200000*%
%TD*%
G04 APERTURE END LIST*
D10*
%TO.P,U4,1,VCC*%
%TO.N,+3.3V*%
X21060000Y-22760000D03*
D11*
%TO.P,U4,2,GND*%
%TO.N,GND*%
X23600000Y-22760000D03*
%TO.P,U4,3,OUT*%
%TO.N,Net-(J1-Pin_8)*%
X26139999Y-22760000D03*
%TD*%
D10*
%TO.P,U3,1,VCC*%
%TO.N,+3.3V*%
X34460000Y-22760000D03*
D11*
%TO.P,U3,2,GND*%
%TO.N,GND*%
X37000000Y-22760000D03*
%TO.P,U3,3,OUT*%
%TO.N,Net-(J1-Pin_7)*%
X39539999Y-22760000D03*
%TD*%
D10*
%TO.P,U1,1,VCC*%
%TO.N,+3.3V*%
X61260000Y-22760000D03*
D11*
%TO.P,U1,2,GND*%
%TO.N,GND*%
X63800000Y-22760000D03*
%TO.P,U1,3,OUT*%
%TO.N,Net-(J1-Pin_5)*%
X66339999Y-22760000D03*
%TD*%
D10*
%TO.P,U2,1,VCC*%
%TO.N,+3.3V*%
X47860000Y-22760000D03*
D11*
%TO.P,U2,2,GND*%
%TO.N,GND*%
X50400000Y-22760000D03*
%TO.P,U2,3,OUT*%
%TO.N,Net-(J1-Pin_6)*%
X52939999Y-22760000D03*
%TD*%
D12*
%TO.P,J1,1,Pin_1*%
%TO.N,+3.3V*%
X21480001Y-31740000D03*
%TO.P,J1,2,Pin_2*%
%TO.N,unconnected-(J1-Pin_2-Pad2)*%
X24020001Y-31740000D03*
%TO.P,J1,3,Pin_3*%
%TO.N,unconnected-(J1-Pin_3-Pad3)*%
X26560001Y-31740000D03*
%TO.P,J1,4,Pin_4*%
%TO.N,GND*%
X29100001Y-31740000D03*
%TO.P,J1,5,Pin_5*%
%TO.N,Net-(J1-Pin_5)*%
X29100000Y-29200000D03*
%TO.P,J1,6,Pin_6*%
%TO.N,Net-(J1-Pin_6)*%
X26560001Y-29200000D03*
%TO.P,J1,7,Pin_7*%
%TO.N,Net-(J1-Pin_7)*%
X24020001Y-29200000D03*
%TO.P,J1,8,Pin_8*%
%TO.N,Net-(J1-Pin_8)*%
X21480001Y-29200000D03*
%TD*%
D13*
%TO.N,+3.3V*%
X21013500Y-31763500D02*
X19900000Y-30650000D01*
X21060000Y-22760000D02*
X23820000Y-20000000D01*
X37500000Y-20000000D02*
X37900000Y-20000000D01*
X19900000Y-30650000D02*
X19900000Y-23920000D01*
X34460000Y-22260000D02*
X34460000Y-22760000D01*
X37220000Y-20000000D02*
X37500000Y-20000000D01*
X61260000Y-21060000D02*
X60200000Y-20000000D01*
X60200000Y-20000000D02*
X50600000Y-20000000D01*
X23820000Y-20000000D02*
X37500000Y-20000000D01*
X47860000Y-22760000D02*
X47860000Y-22740000D01*
X19900000Y-23920000D02*
X21060000Y-22760000D01*
X50600000Y-20000000D02*
X37900000Y-20000000D01*
X34460000Y-22760000D02*
X37220000Y-20000000D01*
X61260000Y-22760000D02*
X61260000Y-21060000D01*
X47860000Y-22740000D02*
X50600000Y-20000000D01*
%TO.N,Net-(J1-Pin_7)*%
X24020001Y-27979999D02*
X24020001Y-29200000D01*
X23553500Y-29223500D02*
X23553500Y-28446500D01*
X38199999Y-24100000D02*
X27900000Y-24100000D01*
X27900000Y-24100000D02*
X24020001Y-27979999D01*
X39539999Y-22760000D02*
X38199999Y-24100000D01*
%TO.N,Net-(J1-Pin_5)*%
X28633499Y-29223500D02*
X28633499Y-28533499D01*
X27265686Y-27365686D02*
X29100000Y-29200000D01*
X66339999Y-22760000D02*
X64199999Y-24900000D01*
X28231372Y-24900000D02*
X27265686Y-25865686D01*
X64199999Y-24900000D02*
X28231372Y-24900000D01*
X27265686Y-25865686D02*
X27265686Y-27365686D01*
%TO.N,Net-(J1-Pin_6)*%
X26560001Y-26005685D02*
X28065686Y-24500000D01*
X26093500Y-29223500D02*
X26100000Y-29217000D01*
X28065686Y-24500000D02*
X51199999Y-24500000D01*
X26560001Y-29200000D02*
X26560001Y-26005685D01*
X51199999Y-24500000D02*
X52939999Y-22760000D01*
%TO.N,Net-(J1-Pin_8)*%
X26139999Y-22760000D02*
X26139999Y-24540002D01*
X26139999Y-24540002D02*
X21480001Y-29200000D01*
%TD*%
M02*
