%TF.GenerationSoftware,KiCad,Pcbnew,8.0.3-1.fc40*%
%TF.CreationDate,2024-06-20T14:07:14-04:00*%
%TF.ProjectId,sensor_bar_unified_muxing_1,73656e73-6f72-45f6-9261-725f756e6966,rev?*%
%TF.SameCoordinates,Original*%
%TF.FileFunction,Copper,L4,Bot*%
%TF.FilePolarity,Positive*%
%FSLAX46Y46*%
G04 Gerber Fmt 4.6, Leading zero omitted, Abs format (unit mm)*
G04 Created by KiCad (PCBNEW 8.0.3-1.fc40) date 2024-06-20 14:07:14*
%MOMM*%
%LPD*%
G01*
G04 APERTURE LIST*
G04 Aperture macros list*
%AMFreePoly0*
4,1,6,1.000000,0.000000,0.500000,-0.750000,-0.500000,-0.750000,-0.500000,0.750000,0.500000,0.750000,1.000000,0.000000,1.000000,0.000000,$1*%
%AMFreePoly1*
4,1,6,0.500000,-0.750000,-0.650000,-0.750000,-0.150000,0.000000,-0.650000,0.750000,0.500000,0.750000,0.500000,-0.750000,0.500000,-0.750000,$1*%
G04 Aperture macros list end*
%TA.AperFunction,ComponentPad*%
%ADD10R,1.500000X1.500000*%
%TD*%
%TA.AperFunction,ComponentPad*%
%ADD11C,1.500000*%
%TD*%
%TA.AperFunction,ComponentPad*%
%ADD12R,1.170000X1.170000*%
%TD*%
%TA.AperFunction,ComponentPad*%
%ADD13C,1.170000*%
%TD*%
%TA.AperFunction,ComponentPad*%
%ADD14R,1.370000X1.370000*%
%TD*%
%TA.AperFunction,ComponentPad*%
%ADD15C,1.370000*%
%TD*%
%TA.AperFunction,ComponentPad*%
%ADD16R,1.600000X1.600000*%
%TD*%
%TA.AperFunction,ComponentPad*%
%ADD17C,1.600000*%
%TD*%
%TA.AperFunction,ComponentPad*%
%ADD18R,1.300000X1.300000*%
%TD*%
%TA.AperFunction,ComponentPad*%
%ADD19C,1.300000*%
%TD*%
%TA.AperFunction,SMDPad,CuDef*%
%ADD20FreePoly0,270.000000*%
%TD*%
%TA.AperFunction,SMDPad,CuDef*%
%ADD21FreePoly1,270.000000*%
%TD*%
%TA.AperFunction,SMDPad,CuDef*%
%ADD22FreePoly0,90.000000*%
%TD*%
%TA.AperFunction,SMDPad,CuDef*%
%ADD23FreePoly1,90.000000*%
%TD*%
%TA.AperFunction,ViaPad*%
%ADD24C,0.600000*%
%TD*%
%TA.AperFunction,Conductor*%
%ADD25C,0.200000*%
%TD*%
G04 APERTURE END LIST*
D10*
%TO.P,U16,1,VCC*%
%TO.N,Net-(BOARDSEL_CMP1-VCC)*%
X221340000Y-18385000D03*
D11*
%TO.P,U16,2,GND*%
%TO.N,GND*%
X223880000Y-18385000D03*
%TO.P,U16,3,OUT*%
%TO.N,Net-(JP11-B)*%
X226420000Y-18385000D03*
%TD*%
D12*
%TO.P,BOARDSEL_ENABLE1,1,1A*%
%TO.N,Net-(BOARDSEL_CMP1-1Y)*%
X149560000Y-97305000D03*
D13*
%TO.P,BOARDSEL_ENABLE1,2,1B*%
%TO.N,Net-(BOARDSEL_CMP1-2Y)*%
X149560000Y-94765000D03*
%TO.P,BOARDSEL_ENABLE1,3*%
%TO.N,N/C*%
X149560000Y-92225000D03*
%TO.P,BOARDSEL_ENABLE1,4,1C*%
%TO.N,Net-(BOARDSEL_CMP1-3Y)*%
X149560000Y-89685000D03*
%TO.P,BOARDSEL_ENABLE1,5,1D*%
%TO.N,Net-(BOARDSEL_CMP1-4Y)*%
X149560000Y-87145000D03*
%TO.P,BOARDSEL_ENABLE1,6,1Y*%
%TO.N,Net-(BOARDSEL_ENABLE1-1Y)*%
X149560000Y-84605000D03*
%TO.P,BOARDSEL_ENABLE1,7,GND*%
%TO.N,GND*%
X149560000Y-82065000D03*
%TO.P,BOARDSEL_ENABLE1,8,2Y*%
%TO.N,unconnected-(BOARDSEL_ENABLE1-2Y-Pad8)*%
X141620000Y-82065000D03*
%TO.P,BOARDSEL_ENABLE1,9,2A*%
%TO.N,unconnected-(BOARDSEL_ENABLE1-2A-Pad9)*%
X141620000Y-84605000D03*
%TO.P,BOARDSEL_ENABLE1,10,2B*%
%TO.N,unconnected-(BOARDSEL_ENABLE1-2B-Pad10)*%
X141620000Y-87145000D03*
%TO.P,BOARDSEL_ENABLE1,11*%
%TO.N,N/C*%
X141620000Y-89685000D03*
%TO.P,BOARDSEL_ENABLE1,12,2C*%
%TO.N,unconnected-(BOARDSEL_ENABLE1-2C-Pad12)*%
X141620000Y-92225000D03*
%TO.P,BOARDSEL_ENABLE1,13,2D*%
%TO.N,unconnected-(BOARDSEL_ENABLE1-2D-Pad13)*%
X141620000Y-94765000D03*
%TO.P,BOARDSEL_ENABLE1,14,VCC*%
%TO.N,Net-(BOARDSEL_CMP1-VCC)*%
X141620000Y-97305000D03*
%TD*%
D10*
%TO.P,U13,1,VCC*%
%TO.N,Net-(BOARDSEL_CMP1-VCC)*%
X179340000Y-18345000D03*
D11*
%TO.P,U13,2,GND*%
%TO.N,GND*%
X181880000Y-18345000D03*
%TO.P,U13,3,OUT*%
%TO.N,Net-(JP14-B)*%
X184420000Y-18345000D03*
%TD*%
D10*
%TO.P,U15,1,VCC*%
%TO.N,Net-(BOARDSEL_CMP1-VCC)*%
X207340000Y-18185000D03*
D11*
%TO.P,U15,2,GND*%
%TO.N,GND*%
X209880000Y-18185000D03*
%TO.P,U15,3,OUT*%
%TO.N,Net-(JP12-B)*%
X212420000Y-18185000D03*
%TD*%
D10*
%TO.P,U9,1,VCC*%
%TO.N,Net-(BOARDSEL_CMP1-VCC)*%
X123340000Y-18485000D03*
D11*
%TO.P,U9,2,GND*%
%TO.N,GND*%
X125880000Y-18485000D03*
%TO.P,U9,3,OUT*%
%TO.N,Net-(JP18-B)*%
X128420000Y-18485000D03*
%TD*%
D10*
%TO.P,U19,1,VCC*%
%TO.N,Net-(BOARDSEL_CMP1-VCC)*%
X263340000Y-18185000D03*
D11*
%TO.P,U19,2,GND*%
%TO.N,GND*%
X265880000Y-18185000D03*
%TO.P,U19,3,OUT*%
%TO.N,Net-(JP26-B)*%
X268420000Y-18185000D03*
%TD*%
D10*
%TO.P,U10,1,VCC*%
%TO.N,Net-(BOARDSEL_CMP1-VCC)*%
X137340000Y-18185000D03*
D11*
%TO.P,U10,2,GND*%
%TO.N,GND*%
X139880000Y-18185000D03*
%TO.P,U10,3,OUT*%
%TO.N,Net-(JP17-B)*%
X142420000Y-18185000D03*
%TD*%
D10*
%TO.P,U7,1,VCC*%
%TO.N,Net-(BOARDSEL_CMP1-VCC)*%
X95340000Y-18485000D03*
D11*
%TO.P,U7,2,GND*%
%TO.N,GND*%
X97880000Y-18485000D03*
%TO.P,U7,3,OUT*%
%TO.N,Net-(JP20-B)*%
X100420000Y-18485000D03*
%TD*%
D10*
%TO.P,U11,1,VCC*%
%TO.N,Net-(BOARDSEL_CMP1-VCC)*%
X151340000Y-18345000D03*
D11*
%TO.P,U11,2,GND*%
%TO.N,GND*%
X153880000Y-18345000D03*
%TO.P,U11,3,OUT*%
%TO.N,Net-(JP16-B)*%
X156420000Y-18345000D03*
%TD*%
D10*
%TO.P,U8,1,VCC*%
%TO.N,Net-(BOARDSEL_CMP1-VCC)*%
X109340000Y-18385000D03*
D11*
%TO.P,U8,2,GND*%
%TO.N,GND*%
X111880000Y-18385000D03*
%TO.P,U8,3,OUT*%
%TO.N,Net-(JP19-B)*%
X114420000Y-18385000D03*
%TD*%
D10*
%TO.P,U6,1,VCC*%
%TO.N,Net-(BOARDSEL_CMP1-VCC)*%
X81340000Y-18345000D03*
D11*
%TO.P,U6,2,GND*%
%TO.N,GND*%
X83880000Y-18345000D03*
%TO.P,U6,3,OUT*%
%TO.N,Net-(JP21-B)*%
X86420000Y-18345000D03*
%TD*%
D10*
%TO.P,U17,1,VCC*%
%TO.N,Net-(BOARDSEL_CMP1-VCC)*%
X235340000Y-18385000D03*
D11*
%TO.P,U17,2,GND*%
%TO.N,GND*%
X237880000Y-18385000D03*
%TO.P,U17,3,OUT*%
%TO.N,Net-(JP10-B)*%
X240420000Y-18385000D03*
%TD*%
D10*
%TO.P,U18,1,VCC*%
%TO.N,Net-(BOARDSEL_CMP1-VCC)*%
X249340000Y-18485000D03*
D11*
%TO.P,U18,2,GND*%
%TO.N,GND*%
X251880000Y-18485000D03*
%TO.P,U18,3,OUT*%
%TO.N,Net-(JP25-B)*%
X254420000Y-18485000D03*
%TD*%
D10*
%TO.P,U12,1,VCC*%
%TO.N,Net-(BOARDSEL_CMP1-VCC)*%
X165340000Y-18145000D03*
D11*
%TO.P,U12,2,GND*%
%TO.N,GND*%
X167880000Y-18145000D03*
%TO.P,U12,3,OUT*%
%TO.N,Net-(JP15-B)*%
X170420000Y-18145000D03*
%TD*%
D10*
%TO.P,U3,1,VCC*%
%TO.N,Net-(BOARDSEL_CMP1-VCC)*%
X39340000Y-18545000D03*
D11*
%TO.P,U3,2,GND*%
%TO.N,GND*%
X41880000Y-18545000D03*
%TO.P,U3,3,OUT*%
%TO.N,Net-(JP46-B)*%
X44420000Y-18545000D03*
%TD*%
D10*
%TO.P,U5,1,VCC*%
%TO.N,Net-(BOARDSEL_CMP1-VCC)*%
X67340000Y-18145000D03*
D11*
%TO.P,U5,2,GND*%
%TO.N,GND*%
X69880000Y-18145000D03*
%TO.P,U5,3,OUT*%
%TO.N,Net-(JP22-B)*%
X72420000Y-18145000D03*
%TD*%
D10*
%TO.P,U2,1,VCC*%
%TO.N,Net-(BOARDSEL_CMP1-VCC)*%
X25440000Y-17845000D03*
D11*
%TO.P,U2,2,GND*%
%TO.N,GND*%
X27980000Y-17845000D03*
%TO.P,U2,3,OUT*%
%TO.N,Net-(JP47-B)*%
X30520000Y-17845000D03*
%TD*%
D14*
%TO.P,interboard connect,01,01*%
%TO.N,Net-(BOARDSEL_CMP1-1A)*%
X32440000Y-48725000D03*
D15*
%TO.P,interboard connect,02,02*%
%TO.N,Net-(DG452_0-S_1)*%
X32440000Y-46185000D03*
%TO.P,interboard connect,03,03*%
%TO.N,Net-(BOARDSEL_CMP1-2A)*%
X34980000Y-48725000D03*
%TO.P,interboard connect,04,04*%
%TO.N,Net-(DG452_0-D_4)*%
X34980000Y-46185000D03*
%TO.P,interboard connect,05,05*%
%TO.N,Net-(BOARDSEL_CMP1-3A)*%
X37520000Y-48725000D03*
%TO.P,interboard connect,06,06*%
%TO.N,Net-(DG452_0-S_2)*%
X37520000Y-46185000D03*
%TO.P,interboard connect,07,07*%
%TO.N,Net-(BOARDSEL_CMP1-4A)*%
X40060000Y-48725000D03*
%TO.P,interboard connect,08,08*%
%TO.N,Net-(DG452_0-D_3)*%
X40060000Y-46185000D03*
%TO.P,interboard connect,09,09*%
%TO.N,unconnected-(J1-Pad09)*%
X42600000Y-48725000D03*
%TO.P,interboard connect,10,10*%
%TO.N,Net-(DG452_1-S_1)*%
X42600000Y-46185000D03*
%TO.P,interboard connect,11,11*%
%TO.N,unconnected-(J1-Pad11)*%
X45140000Y-48725000D03*
%TO.P,interboard connect,12,12*%
%TO.N,Net-(DG452_1-D_4)*%
X45140000Y-46185000D03*
%TO.P,interboard connect,13,13*%
%TO.N,unconnected-(J1-Pad13)*%
X47680000Y-48725000D03*
%TO.P,interboard connect,14,14*%
%TO.N,Net-(DG452_1-S_2)*%
X47680000Y-46185000D03*
%TO.P,interboard connect,15,15*%
%TO.N,unconnected-(J1-Pad15)*%
X50220000Y-48725000D03*
%TO.P,interboard connect,16,16*%
%TO.N,Net-(DG452_1-D_3)*%
X50220000Y-46185000D03*
%TO.P,interboard connect,17,17*%
%TO.N,Net-(J2-Pin_9)*%
X52760000Y-48725000D03*
%TO.P,interboard connect,18,18*%
%TO.N,Net-(DG452_2-S_1)*%
X52760000Y-46185000D03*
%TO.P,interboard connect,19,19*%
%TO.N,unconnected-(J1-Pad19)*%
X55300000Y-48725000D03*
%TO.P,interboard connect,20,20*%
%TO.N,Net-(DG452_2-D_4)*%
X55300000Y-46185000D03*
%TO.P,interboard connect,21,21*%
%TO.N,unconnected-(J1-Pad21)*%
X57840000Y-48725000D03*
%TO.P,interboard connect,22,22*%
%TO.N,Net-(DG452_2-S_2)*%
X57840000Y-46185000D03*
%TO.P,interboard connect,23,23*%
%TO.N,unconnected-(J1-Pad23)*%
X60380000Y-48725000D03*
%TO.P,interboard connect,24,24*%
%TO.N,Net-(DG452_2-D_3)*%
X60380000Y-46185000D03*
%TO.P,interboard connect,25,25*%
%TO.N,unconnected-(J1-Pad25)*%
X62920000Y-48725000D03*
%TO.P,interboard connect,26,26*%
%TO.N,Net-(DG452_3-S_1)*%
X62920000Y-46185000D03*
%TO.P,interboard connect,27,27*%
%TO.N,unconnected-(J1-Pad27)*%
X65460000Y-48725000D03*
%TO.P,interboard connect,28,28*%
%TO.N,Net-(DG452_3-D_4)*%
X65460000Y-46185000D03*
%TO.P,interboard connect,29,29*%
%TO.N,Net-(BOARDSEL_CMP1-VCC)*%
X68000000Y-48725000D03*
%TO.P,interboard connect,30,30*%
%TO.N,Net-(DG452_3-S_2)*%
X68000000Y-46185000D03*
%TO.P,interboard connect,31,31*%
%TO.N,unconnected-(J1-Pad31)*%
X70540000Y-48725000D03*
%TO.P,interboard connect,32,32*%
%TO.N,Net-(DG452_3-D_3)*%
X70540000Y-46185000D03*
%TO.P,interboard connect,33,33*%
%TO.N,unconnected-(J1-Pad33)*%
X73080000Y-48725000D03*
%TO.P,interboard connect,34,34*%
%TO.N,Net-(DG45_4-S_1)*%
X73080000Y-46185000D03*
%TO.P,interboard connect,35,35*%
%TO.N,unconnected-(J1-Pad35)*%
X75620000Y-48725000D03*
%TO.P,interboard connect,36,36*%
%TO.N,Net-(DG45_4-D_4)*%
X75620000Y-46185000D03*
%TO.P,interboard connect,37,37*%
%TO.N,unconnected-(J1-Pad37)*%
X78160000Y-48725000D03*
%TO.P,interboard connect,38,38*%
%TO.N,unconnected-(J1-Pad38)*%
X78160000Y-46185000D03*
%TO.P,interboard connect,39,39*%
%TO.N,unconnected-(J1-Pad39)*%
X80700000Y-48725000D03*
%TO.P,interboard connect,40,40*%
%TO.N,GND*%
X80700000Y-46185000D03*
%TD*%
D16*
%TO.P,U1,1,GND*%
%TO.N,unconnected-(U1-GND-Pad1)*%
X29470000Y-90805000D03*
D17*
%TO.P,U1,2,0_RX1_CRX2_CS1*%
%TO.N,Net-(BOARDSEL_CMP1-1A)*%
X32010000Y-90805000D03*
%TO.P,U1,3,1_TX1_CTX2_MISO1*%
%TO.N,Net-(BOARDSEL_CMP1-2A)*%
X34550000Y-90805000D03*
%TO.P,U1,4,2_OUT2*%
%TO.N,Net-(BOARDSEL_CMP1-3A)*%
X37090000Y-90805000D03*
%TO.P,U1,5,3_LRCLK2*%
%TO.N,Net-(BOARDSEL_CMP1-4A)*%
X39630000Y-90805000D03*
%TO.P,U1,6,4_BCLK2*%
%TO.N,unconnected-(U1-4_BCLK2-Pad6)*%
X42170000Y-90805000D03*
%TO.P,U1,7,5_IN2*%
%TO.N,unconnected-(U1-5_IN2-Pad7)*%
X44710000Y-90805000D03*
%TO.P,U1,8,6_OUT1D*%
%TO.N,unconnected-(U1-6_OUT1D-Pad8)*%
X47250000Y-90805000D03*
%TO.P,U1,9,7_RX2_OUT1A*%
%TO.N,unconnected-(U1-7_RX2_OUT1A-Pad9)*%
X49790000Y-90805000D03*
%TO.P,U1,10,8_TX2_IN1*%
%TO.N,unconnected-(U1-8_TX2_IN1-Pad10)*%
X52330000Y-90805000D03*
%TO.P,U1,11,9_OUT1C*%
%TO.N,unconnected-(U1-9_OUT1C-Pad11)*%
X54870000Y-90805000D03*
%TO.P,U1,12,10_CS_MQSR*%
%TO.N,unconnected-(U1-10_CS_MQSR-Pad12)*%
X57410000Y-90805000D03*
%TO.P,U1,13,11_MOSI_CTX1*%
%TO.N,unconnected-(U1-11_MOSI_CTX1-Pad13)*%
X59950000Y-90805000D03*
%TO.P,U1,14,12_MISO_MQSL*%
%TO.N,unconnected-(U1-12_MISO_MQSL-Pad14)*%
X62490000Y-90805000D03*
%TO.P,U1,15,3V3*%
%TO.N,unconnected-(U1-3V3-Pad15)*%
X65030000Y-90805000D03*
%TO.P,U1,16,24_A10_TX6_SCL2*%
%TO.N,Net-(DG452_0-S_1)*%
X67570000Y-90805000D03*
%TO.P,U1,17,25_A11_RX6_SDA2*%
%TO.N,Net-(DG452_0-D_4)*%
X70110000Y-90805000D03*
%TO.P,U1,18,26_A12_MOSI1*%
%TO.N,Net-(DG452_0-S_2)*%
X72650000Y-90805000D03*
%TO.P,U1,19,27_A13_SCK1*%
%TO.N,Net-(DG452_0-D_3)*%
X75190000Y-90805000D03*
%TO.P,U1,20,28_RX7*%
%TO.N,unconnected-(U1-28_RX7-Pad20)*%
X77730000Y-90805000D03*
%TO.P,U1,21,29_TX7*%
%TO.N,unconnected-(U1-29_TX7-Pad21)*%
X80270000Y-90805000D03*
%TO.P,U1,22,30_CRX3*%
%TO.N,unconnected-(U1-30_CRX3-Pad22)*%
X82810000Y-90805000D03*
%TO.P,U1,23,31_CTX3*%
%TO.N,unconnected-(U1-31_CTX3-Pad23)*%
X85350000Y-90805000D03*
%TO.P,U1,24,32_OUT1B*%
%TO.N,unconnected-(U1-32_OUT1B-Pad24)*%
X87890000Y-90805000D03*
%TO.P,U1,25,33_MCLK2*%
%TO.N,unconnected-(U1-33_MCLK2-Pad25)*%
X87890000Y-75565000D03*
%TO.P,U1,26,34_RX8*%
%TO.N,unconnected-(U1-34_RX8-Pad26)*%
X85350000Y-75565000D03*
%TO.P,U1,27,35_TX8*%
%TO.N,unconnected-(U1-35_TX8-Pad27)*%
X82810000Y-75565000D03*
%TO.P,U1,28,36_CS*%
%TO.N,unconnected-(U1-36_CS-Pad28)*%
X80270000Y-75565000D03*
%TO.P,U1,29,37_CS*%
%TO.N,unconnected-(U1-37_CS-Pad29)*%
X77730000Y-75565000D03*
%TO.P,U1,30,38_CS1_IN1*%
%TO.N,Net-(DG452_1-D_3)*%
X75190000Y-75565000D03*
%TO.P,U1,31,39_MISO1_OUT1A*%
%TO.N,Net-(DG452_1-S_2)*%
X72650000Y-75565000D03*
%TO.P,U1,32,40_A16*%
%TO.N,Net-(DG452_1-D_4)*%
X70110000Y-75565000D03*
%TO.P,U1,33,41_A17*%
%TO.N,Net-(DG452_1-S_1)*%
X67570000Y-75565000D03*
%TO.P,U1,34,GND*%
%TO.N,unconnected-(U1-GND-Pad34)*%
X65030000Y-75565000D03*
%TO.P,U1,35,13_SCK_LED*%
%TO.N,unconnected-(U1-13_SCK_LED-Pad35)*%
X62490000Y-75565000D03*
%TO.P,U1,36,14_A0_TX3_SPDIF_OUT*%
%TO.N,Net-(DG45_4-D_4)*%
X59950000Y-75565000D03*
%TO.P,U1,37,15_A1_RX3_SPDIF_IN*%
%TO.N,Net-(DG45_4-S_1)*%
X57410000Y-75565000D03*
%TO.P,U1,38,16_A2_RX4_SCL1*%
%TO.N,Net-(DG452_3-D_3)*%
X54870000Y-75565000D03*
%TO.P,U1,39,17_A3_TX4_SDA1*%
%TO.N,Net-(DG452_3-S_2)*%
X52330000Y-75565000D03*
%TO.P,U1,40,18_A4_SDA*%
%TO.N,Net-(DG452_3-D_4)*%
X49790000Y-75565000D03*
%TO.P,U1,41,19_A5_SCL*%
%TO.N,Net-(DG452_3-S_1)*%
X47250000Y-75565000D03*
%TO.P,U1,42,20_A6_TX5_LRCLK1*%
%TO.N,Net-(DG452_2-D_3)*%
X44710000Y-75565000D03*
%TO.P,U1,43,21_A7_RX5_BCLK1*%
%TO.N,Net-(DG452_2-S_2)*%
X42170000Y-75565000D03*
%TO.P,U1,44,22_A8_CTX1*%
%TO.N,Net-(DG452_2-D_4)*%
X39630000Y-75565000D03*
%TO.P,U1,45,23_A9_CRX1_MCLK1*%
%TO.N,Net-(DG452_2-S_1)*%
X37090000Y-75565000D03*
%TO.P,U1,46,3V3*%
%TO.N,Net-(BOARDSEL_CMP1-VCC)*%
X34550000Y-75565000D03*
%TO.P,U1,47,GND*%
%TO.N,GND*%
X32010000Y-75565000D03*
%TO.P,U1,48,VIN*%
%TO.N,Net-(JP23-B)*%
X29470000Y-75565000D03*
%TO.P,U1,49,VUSB*%
%TO.N,unconnected-(U1-VUSB-Pad49)*%
X32010000Y-78105000D03*
%TO.P,U1,50,VBAT*%
%TO.N,unconnected-(U1-VBAT-Pad50)*%
X75190000Y-88265000D03*
%TO.P,U1,51,3V3*%
%TO.N,unconnected-(U1-3V3-Pad51)*%
X75190000Y-85725000D03*
%TO.P,U1,52,GND*%
%TO.N,unconnected-(U1-GND-Pad52)*%
X75190000Y-83185000D03*
%TO.P,U1,53,PROGRAM*%
%TO.N,unconnected-(U1-PROGRAM-Pad53)*%
X75190000Y-80645000D03*
%TO.P,U1,54,ON_OFF*%
%TO.N,unconnected-(U1-ON_OFF-Pad54)*%
X75190000Y-78105000D03*
D16*
%TO.P,U1,55,5V*%
%TO.N,unconnected-(U1-5V-Pad55)*%
X35769200Y-87754200D03*
D17*
%TO.P,U1,56,D-*%
%TO.N,unconnected-(U1-D--Pad56)*%
X38309200Y-87754200D03*
%TO.P,U1,57,D+*%
%TO.N,unconnected-(U1-D+-Pad57)*%
X40849200Y-87754200D03*
%TO.P,U1,58,GND*%
%TO.N,unconnected-(U1-GND-Pad58)*%
X43389200Y-87754200D03*
%TO.P,U1,59,GND*%
%TO.N,unconnected-(U1-GND-Pad59)*%
X45929200Y-87754200D03*
D18*
%TO.P,U1,60,R+*%
%TO.N,unconnected-(U1-R+-Pad60)*%
X42440000Y-78003400D03*
D19*
%TO.P,U1,61,LED*%
%TO.N,unconnected-(U1-LED-Pad61)*%
X42440000Y-80003400D03*
%TO.P,U1,62,T-*%
%TO.N,unconnected-(U1-T--Pad62)*%
X42440000Y-82003400D03*
%TO.P,U1,63,T+*%
%TO.N,unconnected-(U1-T+-Pad63)*%
X44440000Y-82003400D03*
%TO.P,U1,64,GND*%
%TO.N,unconnected-(U1-GND-Pad64)*%
X44440000Y-80003400D03*
%TO.P,U1,65,R-*%
%TO.N,unconnected-(U1-R--Pad65)*%
X44440000Y-78003400D03*
%TO.P,U1,66,D-*%
%TO.N,unconnected-(U1-D--Pad66)*%
X30200000Y-81915000D03*
%TO.P,U1,67,D+*%
%TO.N,unconnected-(U1-D+-Pad67)*%
X30200000Y-84455000D03*
%TD*%
D12*
%TO.P,BOARDSEL_CMP1,1,1A*%
%TO.N,Net-(BOARDSEL_CMP1-1A)*%
X161620000Y-97345000D03*
D13*
%TO.P,BOARDSEL_CMP1,2,1B*%
%TO.N,Net-(BOARDSEL_CMP1-1B)*%
X161620000Y-94805000D03*
%TO.P,BOARDSEL_CMP1,3,1Y*%
%TO.N,Net-(BOARDSEL_CMP1-1Y)*%
X161620000Y-92265000D03*
%TO.P,BOARDSEL_CMP1,4,2Y*%
%TO.N,Net-(BOARDSEL_CMP1-2Y)*%
X161620000Y-89725000D03*
%TO.P,BOARDSEL_CMP1,5,2A*%
%TO.N,Net-(BOARDSEL_CMP1-2A)*%
X161620000Y-87185000D03*
%TO.P,BOARDSEL_CMP1,6,2B*%
%TO.N,Net-(BOARDSEL_CMP1-2B)*%
X161620000Y-84645000D03*
%TO.P,BOARDSEL_CMP1,7,GND*%
%TO.N,GND*%
X161620000Y-82105000D03*
%TO.P,BOARDSEL_CMP1,8,3A*%
%TO.N,Net-(BOARDSEL_CMP1-3A)*%
X153680000Y-82105000D03*
%TO.P,BOARDSEL_CMP1,9,3B*%
%TO.N,Net-(BOARDSEL_CMP1-3B)*%
X153680000Y-84645000D03*
%TO.P,BOARDSEL_CMP1,10,3Y*%
%TO.N,Net-(BOARDSEL_CMP1-3Y)*%
X153680000Y-87185000D03*
%TO.P,BOARDSEL_CMP1,11,4Y*%
%TO.N,Net-(BOARDSEL_CMP1-4Y)*%
X153680000Y-89725000D03*
%TO.P,BOARDSEL_CMP1,12,4A*%
%TO.N,Net-(BOARDSEL_CMP1-4A)*%
X153680000Y-92265000D03*
%TO.P,BOARDSEL_CMP1,13,4B*%
%TO.N,Net-(BOARDSEL_CMP1-4B)*%
X153680000Y-94805000D03*
%TO.P,BOARDSEL_CMP1,14,VCC*%
%TO.N,Net-(BOARDSEL_CMP1-VCC)*%
X153680000Y-97345000D03*
%TD*%
D10*
%TO.P,U14,1,VCC*%
%TO.N,Net-(BOARDSEL_CMP1-VCC)*%
X193340000Y-18185000D03*
D11*
%TO.P,U14,2,GND*%
%TO.N,GND*%
X195880000Y-18185000D03*
%TO.P,U14,3,OUT*%
%TO.N,Net-(JP13-B)*%
X198420000Y-18185000D03*
%TD*%
D10*
%TO.P,U4,1,VCC*%
%TO.N,Net-(BOARDSEL_CMP1-VCC)*%
X53340000Y-18145000D03*
D11*
%TO.P,U4,2,GND*%
%TO.N,GND*%
X55880000Y-18145000D03*
%TO.P,U4,3,OUT*%
%TO.N,Net-(JP45-B)*%
X58420000Y-18145000D03*
%TD*%
D20*
%TO.P,JPE01,1,A*%
%TO.N,Net-(DG452_0-S_1)*%
X32930000Y-53485000D03*
D21*
%TO.P,JPE01,2,B*%
X32930000Y-54935000D03*
%TD*%
D20*
%TO.P,JPE15,1,A*%
%TO.N,Net-(DG452_3-S_2)*%
X68180000Y-53460000D03*
D21*
%TO.P,JPE15,2,B*%
X68180000Y-54910000D03*
%TD*%
D20*
%TO.P,JPE13,1,A*%
%TO.N,Net-(DG452_3-S_1)*%
X63180000Y-53460000D03*
D21*
%TO.P,JPE13,2,B*%
X63180000Y-54910000D03*
%TD*%
D22*
%TO.P,JP20,1,A*%
%TO.N,Net-(DG452_3-S_1)*%
X63180000Y-42160000D03*
D23*
%TO.P,JP20,2,B*%
%TO.N,Net-(JP20-B)*%
X63180000Y-40710000D03*
%TD*%
D20*
%TO.P,JPE04,1,A*%
%TO.N,Net-(DG452_0-D_3)*%
X40430000Y-53485000D03*
D21*
%TO.P,JPE04,2,B*%
X40430000Y-54935000D03*
%TD*%
D22*
%TO.P,JP46,1,A*%
%TO.N,Net-(DG45_4-S_1)*%
X73180000Y-42135000D03*
D23*
%TO.P,JP46,2,B*%
%TO.N,Net-(JP46-B)*%
X73180000Y-40685000D03*
%TD*%
D20*
%TO.P,JPE18,1,A*%
%TO.N,Net-(DG45_4-D_4)*%
X75680000Y-53460000D03*
D21*
%TO.P,JPE18,2,B*%
X75680000Y-54910000D03*
%TD*%
D22*
%TO.P,JP16,1,A*%
%TO.N,Net-(DG452_2-S_1)*%
X53180000Y-42160000D03*
D23*
%TO.P,JP16,2,B*%
%TO.N,Net-(JP16-B)*%
X53180000Y-40710000D03*
%TD*%
D22*
%TO.P,JP47,1,A*%
%TO.N,Net-(DG45_4-D_4)*%
X75680000Y-42160000D03*
D23*
%TO.P,JP47,2,B*%
%TO.N,Net-(JP47-B)*%
X75680000Y-40710000D03*
%TD*%
D22*
%TO.P,JP13,1,A*%
%TO.N,Net-(DG452_1-D_4)*%
X45680000Y-42135000D03*
D23*
%TO.P,JP13,2,B*%
%TO.N,Net-(JP13-B)*%
X45680000Y-40685000D03*
%TD*%
D20*
%TO.P,JPE06,1,A*%
%TO.N,Net-(DG452_1-D_4)*%
X45680000Y-53485000D03*
D21*
%TO.P,JPE06,2,B*%
X45680000Y-54935000D03*
%TD*%
D22*
%TO.P,JP15,1,A*%
%TO.N,Net-(DG452_1-D_3)*%
X50680000Y-42160000D03*
D23*
%TO.P,JP15,2,B*%
%TO.N,Net-(JP15-B)*%
X50680000Y-40710000D03*
%TD*%
D20*
%TO.P,JPE08,1,A*%
%TO.N,Net-(DG452_1-D_3)*%
X50680000Y-53460000D03*
D21*
%TO.P,JPE08,2,B*%
X50680000Y-54910000D03*
%TD*%
D20*
%TO.P,JPE12,1,A*%
%TO.N,Net-(DG452_2-D_3)*%
X60680000Y-53485000D03*
D21*
%TO.P,JPE12,2,B*%
X60680000Y-54935000D03*
%TD*%
D22*
%TO.P,JP45,1,A*%
%TO.N,Net-(DG452_3-D_3)*%
X70680000Y-42135000D03*
D23*
%TO.P,JP45,2,B*%
%TO.N,Net-(JP45-B)*%
X70680000Y-40685000D03*
%TD*%
D22*
%TO.P,JP17,1,A*%
%TO.N,Net-(DG452_2-D_4)*%
X55680000Y-42135000D03*
D23*
%TO.P,JP17,2,B*%
%TO.N,Net-(JP17-B)*%
X55680000Y-40685000D03*
%TD*%
D20*
%TO.P,JPE14,1,A*%
%TO.N,Net-(DG452_3-D_4)*%
X65680000Y-53485000D03*
D21*
%TO.P,JPE14,2,B*%
X65680000Y-54935000D03*
%TD*%
D20*
%TO.P,JPE16,1,A*%
%TO.N,Net-(DG452_3-D_3)*%
X70680000Y-53485000D03*
D21*
%TO.P,JPE16,2,B*%
X70680000Y-54935000D03*
%TD*%
D22*
%TO.P,JP21,1,A*%
%TO.N,Net-(DG452_3-D_4)*%
X65680000Y-42135000D03*
D23*
%TO.P,JP21,2,B*%
%TO.N,Net-(JP21-B)*%
X65680000Y-40685000D03*
%TD*%
D20*
%TO.P,JPE03,1,A*%
%TO.N,Net-(DG452_0-S_2)*%
X37930000Y-53485000D03*
D21*
%TO.P,JPE03,2,B*%
X37930000Y-54935000D03*
%TD*%
D20*
%TO.P,JPE02,1,A*%
%TO.N,Net-(DG452_0-D_4)*%
X35430000Y-53485000D03*
D21*
%TO.P,JPE02,2,B*%
X35430000Y-54935000D03*
%TD*%
D22*
%TO.P,JP19,1,A*%
%TO.N,Net-(DG452_2-D_3)*%
X60680000Y-42135000D03*
D23*
%TO.P,JP19,2,B*%
%TO.N,Net-(JP19-B)*%
X60680000Y-40685000D03*
%TD*%
D20*
%TO.P,JPE09,1,A*%
%TO.N,Net-(DG452_2-S_1)*%
X53180000Y-53485000D03*
D21*
%TO.P,JPE09,2,B*%
X53180000Y-54935000D03*
%TD*%
D20*
%TO.P,JPE07,1,A*%
%TO.N,Net-(DG452_1-S_2)*%
X48180000Y-53485000D03*
D21*
%TO.P,JPE07,2,B*%
X48180000Y-54935000D03*
%TD*%
D22*
%TO.P,JP14,1,A*%
%TO.N,Net-(DG452_1-S_2)*%
X48180000Y-42160000D03*
D23*
%TO.P,JP14,2,B*%
%TO.N,Net-(JP14-B)*%
X48180000Y-40710000D03*
%TD*%
D22*
%TO.P,JP11,1,A*%
%TO.N,Net-(DG452_0-D_3)*%
X40680000Y-42135000D03*
D23*
%TO.P,JP11,2,B*%
%TO.N,Net-(JP11-B)*%
X40680000Y-40685000D03*
%TD*%
D20*
%TO.P,JPE05,1,A*%
%TO.N,Net-(DG452_1-S_1)*%
X43180000Y-53485000D03*
D21*
%TO.P,JPE05,2,B*%
X43180000Y-54935000D03*
%TD*%
D20*
%TO.P,JPE11,1,A*%
%TO.N,Net-(DG452_2-S_2)*%
X58180000Y-53485000D03*
D21*
%TO.P,JPE11,2,B*%
X58180000Y-54935000D03*
%TD*%
D22*
%TO.P,JP9,1,A*%
%TO.N,Net-(DG452_0-D_4)*%
X35680000Y-42160000D03*
D23*
%TO.P,JP9,2,B*%
%TO.N,Net-(JP25-B)*%
X35680000Y-40710000D03*
%TD*%
D22*
%TO.P,JP22,1,A*%
%TO.N,Net-(DG452_3-S_2)*%
X68180000Y-42160000D03*
D23*
%TO.P,JP22,2,B*%
%TO.N,Net-(JP22-B)*%
X68180000Y-40710000D03*
%TD*%
D20*
%TO.P,JPE10,1,A*%
%TO.N,Net-(DG452_2-D_4)*%
X55680000Y-53485000D03*
D21*
%TO.P,JPE10,2,B*%
X55680000Y-54935000D03*
%TD*%
D22*
%TO.P,JP18,1,A*%
%TO.N,Net-(DG452_2-S_2)*%
X58180000Y-42160000D03*
D23*
%TO.P,JP18,2,B*%
%TO.N,Net-(JP18-B)*%
X58180000Y-40710000D03*
%TD*%
D22*
%TO.P,JP8,1,A*%
%TO.N,Net-(DG452_0-S_1)*%
X33180000Y-42135000D03*
D23*
%TO.P,JP8,2,B*%
%TO.N,Net-(JP26-B)*%
X33180000Y-40685000D03*
%TD*%
D22*
%TO.P,JP10,1,A*%
%TO.N,Net-(DG452_0-S_2)*%
X38180000Y-42135000D03*
D23*
%TO.P,JP10,2,B*%
%TO.N,Net-(JP10-B)*%
X38180000Y-40685000D03*
%TD*%
D22*
%TO.P,JP12,1,A*%
%TO.N,Net-(DG452_1-S_1)*%
X43180000Y-42135000D03*
D23*
%TO.P,JP12,2,B*%
%TO.N,Net-(JP12-B)*%
X43180000Y-40685000D03*
%TD*%
D20*
%TO.P,JPE17,1,A*%
%TO.N,Net-(DG45_4-S_1)*%
X73180000Y-53485000D03*
D21*
%TO.P,JPE17,2,B*%
X73180000Y-54935000D03*
%TD*%
D24*
%TO.N,Net-(BOARDSEL_CMP1-3B)*%
X134380000Y-89085000D03*
%TO.N,Net-(BOARDSEL_CMP1-4A)*%
X172680000Y-37285000D03*
%TO.N,Net-(BOARDSEL_CMP1-2A)*%
X172680000Y-41285000D03*
%TO.N,Net-(BOARDSEL_CMP1-4B)*%
X134380000Y-84885000D03*
%TO.N,Net-(BOARDSEL_CMP1-1A)*%
X172680000Y-43285000D03*
%TO.N,Net-(BOARDSEL_CMP1-1B)*%
X134380000Y-98285000D03*
%TO.N,Net-(BOARDSEL_CMP1-2B)*%
X134380000Y-93485000D03*
%TO.N,GND*%
X146000000Y-37400000D03*
X146000000Y-34600000D03*
X28959852Y-37313382D03*
X118300000Y-68335000D03*
X118300000Y-55835000D03*
X146000000Y-31800000D03*
X146000000Y-25600000D03*
X118300000Y-92835000D03*
X171580000Y-47285000D03*
X118400000Y-44235000D03*
X146000000Y-28700000D03*
X130680000Y-91685000D03*
X118300000Y-80735000D03*
X130680000Y-83185000D03*
X130680000Y-96685000D03*
X130680000Y-87185000D03*
X146000000Y-40200000D03*
X31573235Y-39926765D03*
%TO.N,Net-(BOARDSEL_CMP1-VCC)*%
X31600910Y-40726288D03*
X119500000Y-91235000D03*
X172680000Y-59285000D03*
X137980000Y-83185000D03*
X119600000Y-42735000D03*
X137980000Y-87085000D03*
X137980000Y-96685000D03*
X119600000Y-54135000D03*
X137980000Y-91685000D03*
X119600000Y-79135000D03*
X28000000Y-45900000D03*
X119600000Y-66535000D03*
%TO.N,Net-(BOARDSEL_CMP1-3A)*%
X172680000Y-39285000D03*
%TO.N,Net-(BOARDSEL_ENABLE1-1Y)*%
X113580000Y-40985000D03*
X113580000Y-89585000D03*
X123380000Y-39285000D03*
X113480000Y-57385000D03*
X113580000Y-82385000D03*
X113580000Y-64985000D03*
X113580000Y-77485000D03*
X113480000Y-52385000D03*
X113580000Y-69885000D03*
X113580000Y-94485000D03*
X113580000Y-45885000D03*
%TO.N,Net-(DG45_4-S_1)*%
X87480000Y-65985000D03*
X174380000Y-67285000D03*
X117080000Y-47385000D03*
X74080000Y-52585000D03*
%TO.N,Net-(DG45_4-D_4)*%
X88080000Y-65385000D03*
X76580000Y-52585000D03*
X174380000Y-65285000D03*
X122180000Y-47385000D03*
%TO.N,Net-(DG452_0-D_3)*%
X77980000Y-71185000D03*
X41080000Y-52285000D03*
X122080000Y-88185000D03*
X174380000Y-93185000D03*
%TO.N,Net-(DG452_0-D_4)*%
X76484322Y-71985000D03*
X122080000Y-95985000D03*
X35980000Y-52285000D03*
X174380000Y-97285000D03*
%TO.N,Net-(DG452_0-S_1)*%
X33980000Y-52285000D03*
X174380000Y-99285000D03*
X117080000Y-95885000D03*
X75780000Y-72385000D03*
%TO.N,Net-(DG452_0-S_2)*%
X38480000Y-52285000D03*
X117080000Y-88185000D03*
X174380000Y-95185000D03*
X77279997Y-71585000D03*
%TO.N,Net-(DG452_1-D_4)*%
X79410853Y-70385000D03*
X122080000Y-83985000D03*
X46180000Y-52385000D03*
X174380000Y-89085000D03*
%TO.N,Net-(DG452_1-S_1)*%
X117080000Y-83985000D03*
X174380000Y-91185000D03*
X43580000Y-52285000D03*
X78710850Y-70785000D03*
%TO.N,Net-(DG452_1-S_2)*%
X174380000Y-87185000D03*
X48680000Y-52385000D03*
X80210239Y-70032000D03*
X117080000Y-75985000D03*
%TO.N,Net-(DG452_1-D_3)*%
X80873710Y-69585000D03*
X122180000Y-75985000D03*
X51280000Y-52385000D03*
X174380000Y-85185000D03*
%TO.N,Net-(DG452_2-D_3)*%
X122180000Y-66485000D03*
X83928856Y-67985000D03*
X61380000Y-52485000D03*
X174380000Y-77285000D03*
%TO.N,Net-(DG452_2-S_2)*%
X174380000Y-79285000D03*
X117080000Y-66485000D03*
X83128853Y-68385000D03*
X58880000Y-52485000D03*
%TO.N,Net-(DG452_2-D_4)*%
X56280000Y-52485000D03*
X82390558Y-68785000D03*
X174380000Y-81385000D03*
X122180000Y-71385000D03*
%TO.N,Net-(DG452_2-S_1)*%
X53780000Y-52485000D03*
X174380000Y-83285000D03*
X81645669Y-69185000D03*
X117080000Y-71285000D03*
%TO.N,Net-(DG452_3-S_2)*%
X86149499Y-66888263D03*
X68980000Y-52485000D03*
X116980000Y-53985000D03*
X174380000Y-71185000D03*
%TO.N,Net-(DG452_3-D_3)*%
X122080000Y-53885000D03*
X86817278Y-66447722D03*
X174380000Y-69185000D03*
X71580000Y-52585000D03*
%TO.N,Net-(DG452_3-D_4)*%
X122080000Y-58785000D03*
X174380000Y-73285000D03*
X85364651Y-67185000D03*
X66480000Y-52485000D03*
%TO.N,Net-(DG452_3-S_1)*%
X116980000Y-58785000D03*
X174380000Y-75285000D03*
X63880000Y-52485000D03*
X84632310Y-67585000D03*
%TO.N,Net-(JP10-B)*%
X70280000Y-28085000D03*
%TO.N,Net-(JP11-B)*%
X67780000Y-28085000D03*
%TO.N,Net-(JP12-B)*%
X65280000Y-28085000D03*
%TO.N,Net-(JP13-B)*%
X62780000Y-28085000D03*
%TO.N,Net-(JP14-B)*%
X60280000Y-28085000D03*
%TO.N,Net-(JP15-B)*%
X57780000Y-28085000D03*
%TO.N,Net-(JP16-B)*%
X55280000Y-28085000D03*
%TO.N,Net-(JP17-B)*%
X52780000Y-28085000D03*
%TO.N,Net-(JP18-B)*%
X50280000Y-28085000D03*
%TO.N,Net-(JP19-B)*%
X47780000Y-28085000D03*
%TO.N,Net-(JP20-B)*%
X45280000Y-28085000D03*
%TO.N,Net-(JP21-B)*%
X42780000Y-28085000D03*
%TO.N,Net-(JP22-B)*%
X40280000Y-28085000D03*
%TO.N,Net-(JP23-B)*%
X40500000Y-83400000D03*
%TO.N,Net-(JP45-B)*%
X37780000Y-28085000D03*
%TO.N,Net-(JP46-B)*%
X36280000Y-28085000D03*
%TO.N,Net-(JP47-B)*%
X34025000Y-28685000D03*
%TO.N,Net-(J2-Pin_9)*%
X172680000Y-53285000D03*
X28200000Y-40200000D03*
%TO.N,Net-(JP25-B)*%
X72780000Y-28085000D03*
%TO.N,Net-(JP26-B)*%
X75280000Y-28085000D03*
%TD*%
D25*
%TO.N,Net-(JP26-B)*%
X75280000Y-28085000D02*
X68480000Y-21285000D01*
X68480000Y-21285000D02*
X30323140Y-21285000D01*
X30323140Y-21285000D02*
X26280000Y-25328140D01*
X33180000Y-38754206D02*
X33180000Y-40685000D01*
X26280000Y-25328140D02*
X26280000Y-31854206D01*
X26280000Y-31854206D02*
X33180000Y-38754206D01*
%TO.N,Net-(JP25-B)*%
X72780000Y-28085000D02*
X69980000Y-25285000D01*
X30488826Y-21685000D02*
X26680000Y-25493826D01*
X69980000Y-25285000D02*
X69880000Y-25285000D01*
X69880000Y-25285000D02*
X66280000Y-21685000D01*
X66280000Y-21685000D02*
X30488826Y-21685000D01*
X26680000Y-25493826D02*
X26680000Y-31688520D01*
X26680000Y-31688520D02*
X35680000Y-40688520D01*
X35680000Y-40688520D02*
X35680000Y-40710000D01*
%TO.N,Net-(JP10-B)*%
X70280000Y-28085000D02*
X64280000Y-22085000D01*
X64280000Y-22085000D02*
X30654512Y-22085000D01*
X30654512Y-22085000D02*
X27080000Y-25659512D01*
X27080000Y-25659512D02*
X27080000Y-31522834D01*
X27080000Y-31522834D02*
X34842166Y-39285000D01*
X34842166Y-39285000D02*
X36780000Y-39285000D01*
X36780000Y-39285000D02*
X38180000Y-40685000D01*
%TO.N,Net-(JP11-B)*%
X67780000Y-28085000D02*
X62180000Y-22485000D01*
X62180000Y-22485000D02*
X30820198Y-22485000D01*
X30820198Y-22485000D02*
X27480000Y-25825198D01*
X27480000Y-25825198D02*
X27480000Y-31357148D01*
X27480000Y-31357148D02*
X35007852Y-38885000D01*
X35007852Y-38885000D02*
X38880000Y-38885000D01*
X38880000Y-38885000D02*
X40680000Y-40685000D01*
%TO.N,Net-(JP12-B)*%
X65280000Y-28085000D02*
X60080000Y-22885000D01*
X60080000Y-22885000D02*
X30985884Y-22885000D01*
X40980000Y-38485000D02*
X43180000Y-40685000D01*
X30985884Y-22885000D02*
X27880000Y-25990884D01*
X27880000Y-25990884D02*
X27880000Y-31191462D01*
X27880000Y-31191462D02*
X35173538Y-38485000D01*
X35173538Y-38485000D02*
X40980000Y-38485000D01*
%TO.N,Net-(JP13-B)*%
X62780000Y-28085000D02*
X57980000Y-23285000D01*
X57980000Y-23285000D02*
X31151570Y-23285000D01*
X31151570Y-23285000D02*
X28280000Y-26156570D01*
X28280000Y-26156570D02*
X28280000Y-31025776D01*
X28280000Y-31025776D02*
X35339224Y-38085000D01*
X35339224Y-38085000D02*
X43080000Y-38085000D01*
X43080000Y-38085000D02*
X45680000Y-40685000D01*
%TO.N,Net-(JP14-B)*%
X60280000Y-28085000D02*
X55880000Y-23685000D01*
X55880000Y-23685000D02*
X31317256Y-23685000D01*
X28680000Y-26322256D02*
X28680000Y-30860090D01*
X31317256Y-23685000D02*
X28680000Y-26322256D01*
X28680000Y-30860090D02*
X35504910Y-37685000D01*
X44361336Y-37685000D02*
X47531433Y-40855097D01*
X35504910Y-37685000D02*
X44361336Y-37685000D01*
X47531433Y-40855097D02*
X48480000Y-40855097D01*
%TO.N,Net-(JP15-B)*%
X57780000Y-28085000D02*
X53780000Y-24085000D01*
X29080000Y-26487942D02*
X29080000Y-30694404D01*
X53780000Y-24085000D02*
X31482942Y-24085000D01*
X31482942Y-24085000D02*
X29080000Y-26487942D01*
X29080000Y-30694404D02*
X35670596Y-37285000D01*
X35670596Y-37285000D02*
X47255000Y-37285000D01*
X47255000Y-37285000D02*
X50680000Y-40710000D01*
%TO.N,Net-(JP16-B)*%
X53180000Y-40710000D02*
X45370000Y-32900000D01*
X45370000Y-32900000D02*
X31851282Y-32900000D01*
X29480000Y-30528718D02*
X29480000Y-26653628D01*
X51680000Y-24485000D02*
X55280000Y-28085000D01*
X31851282Y-32900000D02*
X29480000Y-30528718D01*
X29480000Y-26653628D02*
X31648628Y-24485000D01*
X31648628Y-24485000D02*
X51680000Y-24485000D01*
%TO.N,Net-(JP17-B)*%
X55680000Y-40685000D02*
X47495000Y-32500000D01*
X31814314Y-24885000D02*
X49580000Y-24885000D01*
X47495000Y-32500000D02*
X32016967Y-32500000D01*
X32016967Y-32500000D02*
X31008484Y-31491516D01*
X49580000Y-24885000D02*
X52780000Y-28085000D01*
X31008484Y-31491516D02*
X29880000Y-30363032D01*
X29880000Y-30363032D02*
X29880000Y-26819314D01*
X29880000Y-26819314D02*
X31814314Y-24885000D01*
%TO.N,Net-(JP18-B)*%
X58180000Y-40710000D02*
X49570000Y-32100000D01*
X49570000Y-32100000D02*
X32182653Y-32100000D01*
X32182653Y-32100000D02*
X30280000Y-30197347D01*
X47480000Y-25285000D02*
X50280000Y-28085000D01*
X30280000Y-30197347D02*
X30280000Y-26985000D01*
X30280000Y-26985000D02*
X31980000Y-25285000D01*
X31980000Y-25285000D02*
X47480000Y-25285000D01*
%TO.N,Net-(JP19-B)*%
X60680000Y-40685000D02*
X51695000Y-31700000D01*
X51695000Y-31700000D02*
X32348339Y-31700000D01*
X32348339Y-31700000D02*
X30680000Y-30031661D01*
X30680000Y-30031661D02*
X30680000Y-27150686D01*
X30680000Y-27150686D02*
X32145686Y-25685000D01*
X32145686Y-25685000D02*
X45380000Y-25685000D01*
X45380000Y-25685000D02*
X47780000Y-28085000D01*
%TO.N,Net-(JP20-B)*%
X63180000Y-40710000D02*
X53770000Y-31300000D01*
X53770000Y-31300000D02*
X32514025Y-31300000D01*
X32514025Y-31300000D02*
X31080000Y-29865975D01*
X31080000Y-29865975D02*
X31080000Y-27385000D01*
X31080000Y-27385000D02*
X32380000Y-26085000D01*
X32380000Y-26085000D02*
X43280000Y-26085000D01*
X43280000Y-26085000D02*
X45280000Y-28085000D01*
%TO.N,Net-(JP21-B)*%
X65680000Y-40685000D02*
X55895000Y-30900000D01*
X55895000Y-30900000D02*
X32679711Y-30900000D01*
X31480000Y-27550686D02*
X32545686Y-26485000D01*
X32679711Y-30900000D02*
X32445396Y-30665686D01*
X32445396Y-30665686D02*
X31480000Y-29700290D01*
X31480000Y-29700290D02*
X31480000Y-27550686D01*
X32545686Y-26485000D02*
X41180000Y-26485000D01*
X41180000Y-26485000D02*
X42780000Y-28085000D01*
%TO.N,Net-(JP22-B)*%
X68180000Y-40710000D02*
X57970000Y-30500000D01*
X57970000Y-30500000D02*
X32845396Y-30500000D01*
X32845396Y-30500000D02*
X31880000Y-29534604D01*
X31880000Y-29534604D02*
X31880000Y-27716372D01*
X31880000Y-27716372D02*
X32711372Y-26885000D01*
X32711372Y-26885000D02*
X39080000Y-26885000D01*
X39080000Y-26885000D02*
X40280000Y-28085000D01*
%TO.N,Net-(JP45-B)*%
X70680000Y-40685000D02*
X60095000Y-30100000D01*
X60095000Y-30100000D02*
X34308630Y-30100000D01*
X33354169Y-30039855D02*
X32280000Y-28965686D01*
X34308630Y-30100000D02*
X34208630Y-30000000D01*
X34208630Y-30000000D02*
X33579710Y-30000000D01*
X33579710Y-30000000D02*
X33539855Y-30039855D01*
X33539855Y-30039855D02*
X33354169Y-30039855D01*
X32280000Y-28965686D02*
X32280000Y-27882058D01*
X32280000Y-27882058D02*
X32877058Y-27285000D01*
X32877058Y-27285000D02*
X36980000Y-27285000D01*
X36980000Y-27285000D02*
X37780000Y-28085000D01*
%TO.N,Net-(JP46-B)*%
X32680000Y-28800000D02*
X32680000Y-28047744D01*
X34294169Y-29519855D02*
X33399855Y-29519855D01*
X33399855Y-29519855D02*
X32680000Y-28800000D01*
X73180000Y-40685000D02*
X62195000Y-29700000D01*
X35880000Y-27685000D02*
X36280000Y-28085000D01*
X62195000Y-29700000D02*
X34474315Y-29700000D01*
X34474315Y-29700000D02*
X34294169Y-29519855D01*
X32680000Y-28047744D02*
X33042744Y-27685000D01*
X33042744Y-27685000D02*
X35880000Y-27685000D01*
%TO.N,Net-(JP47-B)*%
X75680000Y-40710000D02*
X64270000Y-29300000D01*
X64270000Y-29300000D02*
X34640000Y-29300000D01*
X34640000Y-29300000D02*
X34025000Y-28685000D01*
%TO.N,GND*%
X171580000Y-47285000D02*
X171580000Y-21845000D01*
X130680000Y-77785000D02*
X130680000Y-83185000D01*
X125380000Y-54485000D02*
X125380000Y-66885000D01*
X25680000Y-70285000D02*
X25680000Y-34200000D01*
X31573235Y-39926765D02*
X31526765Y-39926765D01*
X83910000Y-18415000D02*
X82180000Y-16685000D01*
X130680000Y-98885000D02*
X130680000Y-83185000D01*
X129680000Y-99885000D02*
X130680000Y-98885000D01*
X118300000Y-80735000D02*
X123830000Y-80735000D01*
X118300000Y-68335000D02*
X123930000Y-68335000D01*
X151725000Y-20500000D02*
X153880000Y-18345000D01*
X25880000Y-91985000D02*
X25880000Y-95685000D01*
X27680000Y-16685000D02*
X29180000Y-16685000D01*
X123830000Y-80735000D02*
X125380000Y-79185000D01*
X125380000Y-45485000D02*
X125380000Y-54485000D01*
X195910000Y-18235000D02*
X194360000Y-16685000D01*
X250180000Y-16685000D02*
X264360000Y-16685000D01*
X111910000Y-18415000D02*
X110180000Y-16685000D01*
X68360000Y-16685000D02*
X68180000Y-16685000D01*
X146000000Y-25600000D02*
X146000000Y-22600000D01*
X222180000Y-16685000D02*
X236180000Y-16685000D01*
X29180000Y-16685000D02*
X27910000Y-17955000D01*
X32010000Y-75565000D02*
X29030000Y-72585000D01*
X192300000Y-14000000D02*
X193680000Y-15380000D01*
X194360000Y-16685000D02*
X193680000Y-16685000D01*
X30080000Y-99885000D02*
X129680000Y-99885000D01*
X251910000Y-19185000D02*
X251910000Y-18415000D01*
X264360000Y-16685000D02*
X265910000Y-18235000D01*
X41910000Y-18580000D02*
X40180000Y-16850000D01*
X237910000Y-18415000D02*
X236180000Y-16685000D01*
X125380000Y-91185000D02*
X123730000Y-92835000D01*
X26680000Y-22785000D02*
X26680000Y-17685000D01*
X31526765Y-39926765D02*
X25800000Y-34200000D01*
X223910000Y-19185000D02*
X223910000Y-18415000D01*
X125380000Y-74785000D02*
X127480000Y-76885000D01*
X167910000Y-18235000D02*
X166360000Y-16685000D01*
X26080000Y-71385000D02*
X26080000Y-70885000D01*
X152180000Y-16685000D02*
X165680000Y-16685000D01*
X171580000Y-21845000D02*
X167880000Y-18145000D01*
X69910000Y-18235000D02*
X68360000Y-16685000D01*
X68180000Y-16685000D02*
X82180000Y-16685000D01*
X25680000Y-23785000D02*
X26680000Y-22785000D01*
X125380000Y-79185000D02*
X125380000Y-91185000D01*
X29180000Y-16685000D02*
X40180000Y-16685000D01*
X55910000Y-18235000D02*
X54360000Y-16685000D01*
X237910000Y-19185000D02*
X237910000Y-18415000D01*
X133380000Y-80485000D02*
X147280000Y-80485000D01*
X146000000Y-22600000D02*
X148100000Y-20500000D01*
X242600000Y-14100000D02*
X238765000Y-14100000D01*
X54360000Y-16685000D02*
X53680000Y-16685000D01*
X193680000Y-16685000D02*
X207680000Y-16685000D01*
X40180000Y-16850000D02*
X40180000Y-16685000D01*
X118400000Y-44235000D02*
X124130000Y-44235000D01*
X124030000Y-55835000D02*
X125380000Y-54485000D01*
X125380000Y-66885000D02*
X125380000Y-74785000D01*
X245185000Y-16685000D02*
X250180000Y-16685000D01*
X25800000Y-34200000D02*
X25680000Y-34200000D01*
X124130000Y-44235000D02*
X125380000Y-45485000D01*
X123730000Y-92835000D02*
X118300000Y-92835000D01*
X242600000Y-14100000D02*
X245185000Y-16685000D01*
X25680000Y-70285000D02*
X25680000Y-91785000D01*
X181910000Y-18415000D02*
X180180000Y-16685000D01*
X40180000Y-16685000D02*
X53680000Y-16685000D01*
X124180000Y-16685000D02*
X137680000Y-16685000D01*
X110180000Y-16685000D02*
X124180000Y-16685000D01*
X26680000Y-17685000D02*
X27680000Y-16685000D01*
X208360000Y-16685000D02*
X207680000Y-16685000D01*
X166360000Y-16685000D02*
X165680000Y-16685000D01*
X193680000Y-15380000D02*
X193680000Y-16685000D01*
X148100000Y-20500000D02*
X151725000Y-20500000D01*
X97910000Y-18415000D02*
X96180000Y-16685000D01*
X125380000Y-74785000D02*
X125380000Y-79185000D01*
X146000000Y-40200000D02*
X146000000Y-25600000D01*
X25680000Y-70485000D02*
X25680000Y-70285000D01*
X147280000Y-80485000D02*
X160000000Y-80485000D01*
X96180000Y-16685000D02*
X110180000Y-16685000D01*
X223910000Y-18415000D02*
X222180000Y-16685000D01*
X165680000Y-16685000D02*
X180180000Y-16685000D01*
X139910000Y-18235000D02*
X138360000Y-16685000D01*
X25680000Y-34200000D02*
X25680000Y-23785000D01*
X129780000Y-76885000D02*
X130680000Y-77785000D01*
X251910000Y-18415000D02*
X250180000Y-16685000D01*
X125910000Y-18415000D02*
X124180000Y-16685000D01*
X53680000Y-16685000D02*
X68180000Y-16685000D01*
X130680000Y-83185000D02*
X133380000Y-80485000D01*
X25880000Y-95685000D02*
X30080000Y-99885000D01*
X123930000Y-68335000D02*
X125380000Y-66885000D01*
X180180000Y-16685000D02*
X182865000Y-14000000D01*
X238765000Y-14100000D02*
X236180000Y-16685000D01*
X138360000Y-16685000D02*
X137680000Y-16685000D01*
X137680000Y-16685000D02*
X152180000Y-16685000D01*
X153910000Y-18415000D02*
X152180000Y-16685000D01*
X207680000Y-16685000D02*
X222180000Y-16685000D01*
X149560000Y-82065000D02*
X147980000Y-80485000D01*
X127480000Y-76885000D02*
X129780000Y-76885000D01*
X160000000Y-80485000D02*
X161620000Y-82105000D01*
X118300000Y-55835000D02*
X124030000Y-55835000D01*
X27280000Y-72585000D02*
X26080000Y-71385000D01*
X82180000Y-16685000D02*
X96180000Y-16685000D01*
X29030000Y-72585000D02*
X27280000Y-72585000D01*
X41910000Y-19185000D02*
X41910000Y-18580000D01*
X26080000Y-70885000D02*
X25680000Y-70485000D01*
X147980000Y-80485000D02*
X147280000Y-80485000D01*
X182865000Y-14000000D02*
X192300000Y-14000000D01*
X209910000Y-18235000D02*
X208360000Y-16685000D01*
X25680000Y-91785000D02*
X25880000Y-91985000D01*
%TO.N,Net-(DG45_4-S_1)*%
X87280000Y-65785000D02*
X73780000Y-65785000D01*
X88985883Y-65985000D02*
X107585883Y-47385000D01*
X74080000Y-52585000D02*
X74065000Y-52600000D01*
X73180000Y-46085000D02*
X73080000Y-46185000D01*
X73180000Y-42135000D02*
X73180000Y-46085000D01*
X87480000Y-65985000D02*
X87280000Y-65785000D01*
X73780000Y-65785000D02*
X73180000Y-65185000D01*
X107585883Y-47385000D02*
X117080000Y-47385000D01*
X73080000Y-46185000D02*
X74065000Y-47170000D01*
X74065000Y-47170000D02*
X74080000Y-52585000D01*
X73180000Y-65185000D02*
X73180000Y-54935000D01*
X74065000Y-52600000D02*
X73180000Y-53485000D01*
X87480000Y-65985000D02*
X88985883Y-65985000D01*
%TO.N,Net-(DG45_4-D_4)*%
X89020198Y-65385000D02*
X107420198Y-46985000D01*
X76605000Y-52535000D02*
X76580000Y-52560000D01*
X76605000Y-47170000D02*
X76605000Y-52535000D01*
X122180000Y-46985000D02*
X122180000Y-47385000D01*
X75680000Y-42160000D02*
X75680000Y-46125000D01*
X75680000Y-46125000D02*
X75620000Y-46185000D01*
X88080000Y-65385000D02*
X76380000Y-65385000D01*
X76380000Y-65385000D02*
X75680000Y-64685000D01*
X121280000Y-46085000D02*
X122180000Y-46985000D01*
X76580000Y-52585000D02*
X76555000Y-52585000D01*
X75680000Y-64685000D02*
X75680000Y-54910000D01*
X115080000Y-46985000D02*
X115980000Y-46085000D01*
X88080000Y-65385000D02*
X89020198Y-65385000D01*
X76555000Y-52585000D02*
X75680000Y-53460000D01*
X75620000Y-46185000D02*
X76605000Y-47170000D01*
X76580000Y-52560000D02*
X76580000Y-52585000D01*
X107420198Y-46985000D02*
X115080000Y-46985000D01*
X115980000Y-46085000D02*
X121280000Y-46085000D01*
%TO.N,Net-(DG452_0-D_3)*%
X40060000Y-46185000D02*
X41045000Y-47170000D01*
X41045000Y-47170000D02*
X41045000Y-52250000D01*
X78480000Y-71685000D02*
X87262692Y-71685000D01*
X91980000Y-76402308D02*
X91980000Y-83219314D01*
X77980000Y-71185000D02*
X77780000Y-70985000D01*
X41045000Y-52250000D02*
X41080000Y-52285000D01*
X40680000Y-42135000D02*
X40060000Y-42755000D01*
X41045000Y-52870000D02*
X40430000Y-53485000D01*
X41080000Y-52285000D02*
X41045000Y-52320000D01*
X87262692Y-71685000D02*
X91980000Y-76402308D01*
X96345686Y-87585000D02*
X121480000Y-87585000D01*
X41045000Y-52320000D02*
X41045000Y-52870000D01*
X40060000Y-42755000D02*
X40060000Y-46185000D01*
X77780000Y-70985000D02*
X56480000Y-70985000D01*
X56480000Y-70985000D02*
X40430000Y-54935000D01*
X91980000Y-83219314D02*
X96345686Y-87585000D01*
X121480000Y-87585000D02*
X122080000Y-88185000D01*
X77980000Y-71185000D02*
X78480000Y-71685000D01*
%TO.N,Net-(DG452_0-D_4)*%
X35965000Y-52300000D02*
X35965000Y-52950000D01*
X76831468Y-71985000D02*
X76484322Y-71985000D01*
X35965000Y-52950000D02*
X35430000Y-53485000D01*
X77331469Y-72485000D02*
X77279998Y-72433529D01*
X77279998Y-72433529D02*
X76831468Y-71985000D01*
X35965000Y-52270000D02*
X35980000Y-52285000D01*
X34980000Y-46185000D02*
X35965000Y-47170000D01*
X122080000Y-95985000D02*
X121380000Y-95285000D01*
X35980000Y-52285000D02*
X35965000Y-52300000D01*
X35965000Y-47170000D02*
X35965000Y-52270000D01*
X76484322Y-71985000D02*
X76284322Y-71785000D01*
X91180000Y-76733679D02*
X86931321Y-72485000D01*
X35680000Y-42160000D02*
X34980000Y-42860000D01*
X76284322Y-71785000D02*
X52280000Y-71785000D01*
X121380000Y-95285000D02*
X95245686Y-95285000D01*
X86931321Y-72485000D02*
X77331469Y-72485000D01*
X95245686Y-95285000D02*
X91180000Y-91219314D01*
X34980000Y-42860000D02*
X34980000Y-46185000D01*
X91180000Y-91219314D02*
X91180000Y-76733679D01*
X52280000Y-71785000D02*
X35430000Y-54935000D01*
%TO.N,Net-(DG452_0-S_1)*%
X33995000Y-52270000D02*
X33980000Y-52285000D01*
X86765635Y-72885000D02*
X90780000Y-76899365D01*
X33180000Y-42135000D02*
X32440000Y-42875000D01*
X95280000Y-95885000D02*
X117080000Y-95885000D01*
X50180000Y-72185000D02*
X32930000Y-54935000D01*
X33995000Y-52420000D02*
X32930000Y-53485000D01*
X75780000Y-72385000D02*
X76280000Y-72885000D01*
X33980000Y-52285000D02*
X33995000Y-52300000D01*
X75580000Y-72185000D02*
X50180000Y-72185000D01*
X32440000Y-46185000D02*
X33995000Y-47740000D01*
X75780000Y-72385000D02*
X75580000Y-72185000D01*
X90780000Y-91385000D02*
X95280000Y-95885000D01*
X76280000Y-72885000D02*
X86765635Y-72885000D01*
X33995000Y-52300000D02*
X33995000Y-52420000D01*
X90780000Y-76899365D02*
X90780000Y-91385000D01*
X33995000Y-47740000D02*
X33995000Y-52270000D01*
X32440000Y-42875000D02*
X32440000Y-46185000D01*
%TO.N,Net-(DG452_0-S_2)*%
X77531471Y-71585000D02*
X78031471Y-72085000D01*
X78031471Y-72085000D02*
X87097007Y-72085000D01*
X38180000Y-42135000D02*
X37520000Y-42795000D01*
X38505000Y-47170000D02*
X38505000Y-52260000D01*
X91580000Y-76567993D02*
X91580000Y-83385000D01*
X87097007Y-72085000D02*
X91580000Y-76567993D01*
X54380000Y-71385000D02*
X37930000Y-54935000D01*
X37520000Y-46185000D02*
X38505000Y-47170000D01*
X77279997Y-71585000D02*
X77079997Y-71385000D01*
X38480000Y-52285000D02*
X38505000Y-52310000D01*
X77279997Y-71585000D02*
X77531471Y-71585000D01*
X37520000Y-42795000D02*
X37520000Y-46185000D01*
X38505000Y-52260000D02*
X38480000Y-52285000D01*
X77079997Y-71385000D02*
X54380000Y-71385000D01*
X91580000Y-83385000D02*
X96380000Y-88185000D01*
X38505000Y-52910000D02*
X37930000Y-53485000D01*
X96380000Y-88185000D02*
X117080000Y-88185000D01*
X38505000Y-52310000D02*
X38505000Y-52910000D01*
%TO.N,Net-(DG452_1-D_4)*%
X79714710Y-70385000D02*
X80214710Y-70885000D01*
X80214710Y-70885000D02*
X87594063Y-70885000D01*
X92780000Y-76070937D02*
X92780000Y-81819314D01*
X60930000Y-70185000D02*
X45680000Y-54935000D01*
X79410853Y-70385000D02*
X79210853Y-70185000D01*
X46185000Y-52390000D02*
X46185000Y-52980000D01*
X87594063Y-70885000D02*
X92780000Y-76070937D01*
X45140000Y-46185000D02*
X46185000Y-47230000D01*
X46185000Y-52980000D02*
X45680000Y-53485000D01*
X79210853Y-70185000D02*
X60930000Y-70185000D01*
X92780000Y-81819314D02*
X94345686Y-83385000D01*
X46185000Y-47230000D02*
X46185000Y-52380000D01*
X94345686Y-83385000D02*
X121480000Y-83385000D01*
X46180000Y-52385000D02*
X46185000Y-52390000D01*
X121480000Y-83385000D02*
X122080000Y-83985000D01*
X46185000Y-52380000D02*
X46180000Y-52385000D01*
X45140000Y-42675000D02*
X45140000Y-46185000D01*
X45680000Y-42135000D02*
X45140000Y-42675000D01*
X79410853Y-70385000D02*
X79714710Y-70385000D01*
%TO.N,Net-(DG452_1-S_1)*%
X58830000Y-70585000D02*
X43180000Y-54935000D01*
X94380000Y-83985000D02*
X117080000Y-83985000D01*
X43580000Y-52285000D02*
X43585000Y-52290000D01*
X43180000Y-42135000D02*
X42600000Y-42715000D01*
X42600000Y-46185000D02*
X43585000Y-47170000D01*
X43585000Y-47170000D02*
X43585000Y-52280000D01*
X42600000Y-42715000D02*
X42600000Y-46185000D01*
X87428378Y-71285000D02*
X92380000Y-76236622D01*
X43585000Y-52290000D02*
X43585000Y-53080000D01*
X78710850Y-70785000D02*
X78510850Y-70585000D01*
X43585000Y-53080000D02*
X43180000Y-53485000D01*
X43585000Y-52280000D02*
X43580000Y-52285000D01*
X92380000Y-76236622D02*
X92380000Y-81985000D01*
X78710850Y-70785000D02*
X79210850Y-71285000D01*
X92380000Y-81985000D02*
X94380000Y-83985000D01*
X79210850Y-71285000D02*
X87428378Y-71285000D01*
X78510850Y-70585000D02*
X58830000Y-70585000D01*
%TO.N,Net-(DG452_1-S_2)*%
X48665000Y-47170000D02*
X48665000Y-52370000D01*
X80210239Y-70032000D02*
X79963239Y-69785000D01*
X47680000Y-46185000D02*
X48665000Y-47170000D01*
X48665000Y-52400000D02*
X48665000Y-53000000D01*
X80925181Y-70485000D02*
X87759749Y-70485000D01*
X87759749Y-70485000D02*
X93259749Y-75985000D01*
X63030000Y-69785000D02*
X48180000Y-54935000D01*
X48180000Y-42160000D02*
X48180000Y-45685000D01*
X79963239Y-69785000D02*
X63030000Y-69785000D01*
X48680000Y-52385000D02*
X48665000Y-52400000D01*
X48665000Y-53000000D02*
X48180000Y-53485000D01*
X48180000Y-45685000D02*
X47680000Y-46185000D01*
X48665000Y-52370000D02*
X48680000Y-52385000D01*
X93259749Y-75985000D02*
X117080000Y-75985000D01*
X80472181Y-70032000D02*
X80925181Y-70485000D01*
X80210239Y-70032000D02*
X80472181Y-70032000D01*
%TO.N,Net-(DG452_1-D_3)*%
X81373710Y-70085000D02*
X87925435Y-70085000D01*
X65155000Y-69385000D02*
X50680000Y-54910000D01*
X80873710Y-69585000D02*
X80673710Y-69385000D01*
X50680000Y-45725000D02*
X50220000Y-46185000D01*
X87925435Y-70085000D02*
X93125435Y-75285000D01*
X51280000Y-52385000D02*
X51205000Y-52460000D01*
X50680000Y-42160000D02*
X50680000Y-45725000D01*
X50220000Y-46185000D02*
X51205000Y-47170000D01*
X51205000Y-52460000D02*
X51205000Y-52935000D01*
X121980000Y-75285000D02*
X122180000Y-75485000D01*
X51205000Y-52935000D02*
X50680000Y-53460000D01*
X51205000Y-47170000D02*
X51205000Y-52310000D01*
X122180000Y-75485000D02*
X122180000Y-75985000D01*
X51205000Y-52310000D02*
X51280000Y-52385000D01*
X93125435Y-75285000D02*
X121980000Y-75285000D01*
X80673710Y-69385000D02*
X65155000Y-69385000D01*
X80873710Y-69585000D02*
X81373710Y-70085000D01*
%TO.N,Net-(DG452_2-D_3)*%
X61365000Y-47170000D02*
X61365000Y-52470000D01*
X121880000Y-65885000D02*
X122180000Y-66185000D01*
X60380000Y-46185000D02*
X61365000Y-47170000D01*
X83928856Y-67985000D02*
X83728856Y-67785000D01*
X83928856Y-67985000D02*
X84328856Y-68385000D01*
X61365000Y-52470000D02*
X61380000Y-52485000D01*
X61380000Y-52485000D02*
X61365000Y-52500000D01*
X122180000Y-66185000D02*
X122180000Y-66485000D01*
X61365000Y-52500000D02*
X61365000Y-52800000D01*
X66514314Y-67785000D02*
X60680000Y-61950686D01*
X60680000Y-45885000D02*
X60380000Y-46185000D01*
X84328856Y-68385000D02*
X89414314Y-68385000D01*
X83728856Y-67785000D02*
X66514314Y-67785000D01*
X61365000Y-52800000D02*
X60680000Y-53485000D01*
X91914314Y-65885000D02*
X121880000Y-65885000D01*
X60680000Y-42135000D02*
X60680000Y-45885000D01*
X60680000Y-61950686D02*
X60680000Y-54935000D01*
X89414314Y-68385000D02*
X91914314Y-65885000D01*
%TO.N,Net-(DG452_2-S_2)*%
X83128853Y-68385000D02*
X83528853Y-68785000D01*
X89448629Y-68785000D02*
X89514314Y-68850685D01*
X58825000Y-52840000D02*
X58180000Y-53485000D01*
X58825000Y-47170000D02*
X58825000Y-52430000D01*
X83528853Y-68785000D02*
X89448629Y-68785000D01*
X58180000Y-45845000D02*
X57840000Y-46185000D01*
X91879999Y-66485000D02*
X117080000Y-66485000D01*
X58825000Y-52540000D02*
X58825000Y-52840000D01*
X58180000Y-42160000D02*
X58180000Y-45845000D01*
X58180000Y-60016372D02*
X58180000Y-54935000D01*
X58825000Y-52430000D02*
X58880000Y-52485000D01*
X66348628Y-68185000D02*
X58180000Y-60016372D01*
X57840000Y-46185000D02*
X58825000Y-47170000D01*
X83128853Y-68385000D02*
X82928853Y-68185000D01*
X89514314Y-68850685D02*
X91879999Y-66485000D01*
X82928853Y-68185000D02*
X66348628Y-68185000D01*
X58880000Y-52485000D02*
X58825000Y-52540000D01*
%TO.N,Net-(DG452_2-D_4)*%
X56285000Y-52490000D02*
X56285000Y-52880000D01*
X88156805Y-69185000D02*
X89556805Y-70585000D01*
X122180000Y-70885000D02*
X122180000Y-71385000D01*
X89556805Y-70585000D02*
X121880000Y-70585000D01*
X55680000Y-58082058D02*
X55680000Y-54935000D01*
X56285000Y-52480000D02*
X56280000Y-52485000D01*
X55680000Y-45805000D02*
X55300000Y-46185000D01*
X56280000Y-52485000D02*
X56285000Y-52490000D01*
X55300000Y-46185000D02*
X56285000Y-47170000D01*
X56285000Y-52880000D02*
X55680000Y-53485000D01*
X82790558Y-69185000D02*
X88156805Y-69185000D01*
X82390558Y-68785000D02*
X82790558Y-69185000D01*
X66182942Y-68585000D02*
X55680000Y-58082058D01*
X55680000Y-42135000D02*
X55680000Y-45805000D01*
X121880000Y-70585000D02*
X122180000Y-70885000D01*
X56285000Y-47170000D02*
X56285000Y-52480000D01*
X82190558Y-68585000D02*
X66182942Y-68585000D01*
X82390558Y-68785000D02*
X82190558Y-68585000D01*
%TO.N,Net-(DG452_2-S_1)*%
X117080000Y-73385000D02*
X117080000Y-71285000D01*
X66017256Y-68985000D02*
X53180000Y-56147744D01*
X82145669Y-69685000D02*
X88091120Y-69685000D01*
X53745000Y-47170000D02*
X53745000Y-52450000D01*
X53180000Y-42160000D02*
X53180000Y-45765000D01*
X81445669Y-68985000D02*
X66017256Y-68985000D01*
X52760000Y-46185000D02*
X53745000Y-47170000D01*
X53745000Y-52520000D02*
X53745000Y-52920000D01*
X81645669Y-69185000D02*
X82145669Y-69685000D01*
X53745000Y-52450000D02*
X53780000Y-52485000D01*
X53780000Y-52485000D02*
X53745000Y-52520000D01*
X92568403Y-74162283D02*
X116302717Y-74162283D01*
X53180000Y-56147744D02*
X53180000Y-54935000D01*
X53180000Y-45765000D02*
X52760000Y-46185000D01*
X81645669Y-69185000D02*
X81445669Y-68985000D01*
X116302717Y-74162283D02*
X117080000Y-73385000D01*
X53745000Y-52920000D02*
X53180000Y-53485000D01*
X88091120Y-69685000D02*
X92568403Y-74162283D01*
%TO.N,Net-(DG452_3-S_2)*%
X102117256Y-53985000D02*
X116980000Y-53985000D01*
X86149499Y-66888263D02*
X86409290Y-66888263D01*
X68180000Y-46005000D02*
X68000000Y-46185000D01*
X89017256Y-67085000D02*
X102117256Y-53985000D01*
X68985000Y-52490000D02*
X68985000Y-52655000D01*
X86149499Y-66888263D02*
X85846236Y-66585000D01*
X68180000Y-65485000D02*
X68180000Y-54910000D01*
X68180000Y-42160000D02*
X68180000Y-46005000D01*
X69280000Y-66585000D02*
X68180000Y-65485000D01*
X68000000Y-46185000D02*
X68985000Y-47170000D01*
X68985000Y-52480000D02*
X68980000Y-52485000D01*
X68985000Y-52655000D02*
X68180000Y-53460000D01*
X86606027Y-67085000D02*
X89017256Y-67085000D01*
X85846236Y-66585000D02*
X69280000Y-66585000D01*
X86409290Y-66888263D02*
X86606027Y-67085000D01*
X68980000Y-52485000D02*
X68985000Y-52490000D01*
X68985000Y-47170000D02*
X68985000Y-52480000D01*
%TO.N,Net-(DG452_3-D_3)*%
X70680000Y-64885000D02*
X70680000Y-54935000D01*
X70540000Y-46185000D02*
X71525000Y-47170000D01*
X86954556Y-66585000D02*
X88951570Y-66585000D01*
X70680000Y-46045000D02*
X70540000Y-46185000D01*
X71580000Y-52585000D02*
X71525000Y-52640000D01*
X86817278Y-66447722D02*
X86554556Y-66185000D01*
X121180000Y-52985000D02*
X122080000Y-53885000D01*
X86817278Y-66447722D02*
X86954556Y-66585000D01*
X71525000Y-52640000D02*
X70680000Y-53485000D01*
X71980000Y-66185000D02*
X70680000Y-64885000D01*
X102551570Y-52985000D02*
X121180000Y-52985000D01*
X71525000Y-47170000D02*
X71580000Y-52585000D01*
X70680000Y-42135000D02*
X70680000Y-46045000D01*
X86554556Y-66185000D02*
X71980000Y-66185000D01*
X88951570Y-66585000D02*
X102551570Y-52985000D01*
%TO.N,Net-(DG452_3-D_4)*%
X66445000Y-47170000D02*
X66445000Y-52450000D01*
X66445000Y-52520000D02*
X66445000Y-52720000D01*
X66445000Y-52450000D02*
X66480000Y-52485000D01*
X85364651Y-67185000D02*
X85164651Y-66985000D01*
X65680000Y-65785000D02*
X65680000Y-54935000D01*
X121480000Y-58185000D02*
X122080000Y-58785000D01*
X116731471Y-58185000D02*
X121480000Y-58185000D01*
X116531471Y-58385000D02*
X116731471Y-58185000D01*
X65680000Y-42135000D02*
X65680000Y-45965000D01*
X89082942Y-67585000D02*
X98282942Y-58385000D01*
X66480000Y-52485000D02*
X66445000Y-52520000D01*
X65680000Y-45965000D02*
X65460000Y-46185000D01*
X98282942Y-58385000D02*
X116531471Y-58385000D01*
X66445000Y-52720000D02*
X65680000Y-53485000D01*
X65460000Y-46185000D02*
X66445000Y-47170000D01*
X66880000Y-66985000D02*
X65680000Y-65785000D01*
X85764651Y-67585000D02*
X89082942Y-67585000D01*
X85364651Y-67185000D02*
X85764651Y-67585000D01*
X85164651Y-66985000D02*
X66880000Y-66985000D01*
%TO.N,Net-(DG452_3-S_1)*%
X89248628Y-67985000D02*
X91748628Y-65485000D01*
X63180000Y-42160000D02*
X63180000Y-45925000D01*
X63880000Y-52485000D02*
X63905000Y-52510000D01*
X84632310Y-67585000D02*
X84432310Y-67385000D01*
X63905000Y-52460000D02*
X63880000Y-52485000D01*
X62920000Y-46185000D02*
X63905000Y-47170000D01*
X91748628Y-65485000D02*
X110280000Y-65485000D01*
X63905000Y-52735000D02*
X63180000Y-53460000D01*
X84432310Y-67385000D02*
X66680000Y-67385000D01*
X63180000Y-63885000D02*
X63180000Y-54910000D01*
X63905000Y-52510000D02*
X63905000Y-52735000D01*
X63905000Y-47170000D02*
X63905000Y-52460000D01*
X66680000Y-67385000D02*
X63180000Y-63885000D01*
X84632310Y-67585000D02*
X85032310Y-67985000D01*
X85032310Y-67985000D02*
X89248628Y-67985000D01*
X63180000Y-45925000D02*
X62920000Y-46185000D01*
X110280000Y-65485000D02*
X116980000Y-58785000D01*
%TD*%
M02*
