%TF.GenerationSoftware,KiCad,Pcbnew,8.0.3-1.fc40*%
%TF.CreationDate,2024-06-20T13:52:43-04:00*%
%TF.ProjectId,sensor_bar_unified_muxing_1,73656e73-6f72-45f6-9261-725f756e6966,rev?*%
%TF.SameCoordinates,Original*%
%TF.FileFunction,Drillmap*%
%TF.FilePolarity,Positive*%
%FSLAX45Y45*%
G04 Gerber Fmt 4.5, Leading zero omitted, Abs format (unit mm)*
G04 Created by KiCad (PCBNEW 8.0.3-1.fc40) date 2024-06-20 13:52:43*
%MOMM*%
%LPD*%
G01*
G04 APERTURE LIST*
%ADD10C,0.050000*%
%ADD11C,0.200000*%
G04 APERTURE END LIST*
D10*
X4250000Y-3510000D02*
G75*
G02*
X4050000Y-3510000I-100000J0D01*
G01*
X4050000Y-3510000D02*
G75*
G02*
X4250000Y-3510000I100000J0D01*
G01*
X16210000Y-3000000D02*
G75*
G02*
X16010000Y-3000000I-100000J0D01*
G01*
X16010000Y-3000000D02*
G75*
G02*
X16210000Y-3000000I100000J0D01*
G01*
X19020000Y-2120000D02*
X19000000Y-2120000D01*
X19000000Y-2080000D01*
X19020000Y-2080000D01*
X19020000Y-2120000D01*
X24220000Y-1610000D02*
X24200000Y-1610000D01*
X24200000Y-1570000D01*
X24220000Y-1570000D01*
X24220000Y-1610000D01*
X19020000Y-2880000D02*
X19000000Y-2880000D01*
X19000000Y-2840000D01*
X19020000Y-2840000D01*
X19020000Y-2880000D01*
X19020000Y-2360000D02*
X19000000Y-2360000D01*
X19000000Y-2320000D01*
X19020000Y-2320000D01*
X19020000Y-2360000D01*
X25788000Y-2958500D02*
G75*
G02*
X25588000Y-2958500I-100000J0D01*
G01*
X25588000Y-2958500D02*
G75*
G02*
X25788000Y-2958500I100000J0D01*
G01*
X24220000Y-2510000D02*
X24200000Y-2510000D01*
X24200000Y-2470000D01*
X24220000Y-2470000D01*
X24220000Y-2510000D01*
X19020000Y-1510000D02*
X19000000Y-1510000D01*
X19000000Y-1470000D01*
X19020000Y-1470000D01*
X19020000Y-1510000D01*
X24220000Y-2700000D02*
X24200000Y-2700000D01*
X24200000Y-2660000D01*
X24220000Y-2660000D01*
X24220000Y-2700000D01*
X27018000Y-1958500D02*
X25848000Y-3128500D01*
X24288000Y-3128500D01*
X24218000Y-3058500D01*
X24218000Y-2978500D01*
X24198000Y-2978500D01*
X24198000Y-3058500D01*
X24128000Y-3128500D01*
X19098000Y-3128500D01*
X19028000Y-3058500D01*
X19028000Y-2958500D01*
X18998000Y-2958500D01*
X18998000Y-3058500D01*
X18928000Y-3128500D01*
X18068000Y-3128500D01*
X17968000Y-3266679D01*
X17968000Y-7568500D01*
X17967354Y-8627854D01*
X17967221Y-10268500D01*
X17768000Y-10418500D01*
X16578000Y-10418500D01*
X3248000Y-10418500D01*
X2388000Y-9558500D01*
X2388000Y-1628500D01*
X2698000Y-1318500D01*
X27018000Y-1318500D01*
X27018000Y-1958500D01*
X4378000Y-9478500D02*
G75*
G02*
X4178000Y-9478500I-100000J0D01*
G01*
X4178000Y-9478500D02*
G75*
G02*
X4378000Y-9478500I100000J0D01*
G01*
X16518000Y-7878500D02*
G75*
G02*
X16318000Y-7878500I-100000J0D01*
G01*
X16318000Y-7878500D02*
G75*
G02*
X16518000Y-7878500I100000J0D01*
G01*
X24220000Y-2110000D02*
X24200000Y-2110000D01*
X24200000Y-2070000D01*
X24220000Y-2070000D01*
X24220000Y-2110000D01*
X19020000Y-2800000D02*
X19000000Y-2800000D01*
X19000000Y-2760000D01*
X19020000Y-2760000D01*
X19020000Y-2800000D01*
X24220000Y-2190000D02*
X24200000Y-2190000D01*
X24200000Y-2150000D01*
X24220000Y-2150000D01*
X24220000Y-2190000D01*
X24220000Y-1790000D02*
X24200000Y-1790000D01*
X24200000Y-1750000D01*
X24220000Y-1750000D01*
X24220000Y-1790000D01*
X19020000Y-2200000D02*
X19000000Y-2200000D01*
X19000000Y-2160000D01*
X19020000Y-2160000D01*
X19020000Y-2200000D01*
X24220000Y-2270000D02*
X24200000Y-2270000D01*
X24200000Y-2230000D01*
X24220000Y-2230000D01*
X24220000Y-2270000D01*
X19020000Y-1800000D02*
X19000000Y-1800000D01*
X19000000Y-1760000D01*
X19020000Y-1760000D01*
X19020000Y-1800000D01*
X16568000Y-10148500D02*
G75*
G02*
X16368000Y-10148500I-100000J0D01*
G01*
X16368000Y-10148500D02*
G75*
G02*
X16568000Y-10148500I100000J0D01*
G01*
X19020000Y-1590000D02*
X19000000Y-1590000D01*
X19000000Y-1550000D01*
X19020000Y-1550000D01*
X19020000Y-1590000D01*
X24220000Y-2030000D02*
X24200000Y-2030000D01*
X24200000Y-1990000D01*
X24220000Y-1990000D01*
X24220000Y-2030000D01*
X24220000Y-2430000D02*
X24200000Y-2430000D01*
X24200000Y-2390000D01*
X24220000Y-2390000D01*
X24220000Y-2430000D01*
X24220000Y-2780000D02*
X24200000Y-2780000D01*
X24200000Y-2740000D01*
X24220000Y-2740000D01*
X24220000Y-2780000D01*
X8488000Y-5758500D02*
G75*
G02*
X8288000Y-5758500I-100000J0D01*
G01*
X8288000Y-5758500D02*
G75*
G02*
X8488000Y-5758500I100000J0D01*
G01*
X3668000Y-10168500D02*
G75*
G02*
X3468000Y-10168500I-100000J0D01*
G01*
X3468000Y-10168500D02*
G75*
G02*
X3668000Y-10168500I100000J0D01*
G01*
X19020000Y-1880000D02*
X19000000Y-1880000D01*
X19000000Y-1840000D01*
X19020000Y-1840000D01*
X19020000Y-1880000D01*
X19368000Y-2968500D02*
G75*
G02*
X19168000Y-2968500I-100000J0D01*
G01*
X19168000Y-2968500D02*
G75*
G02*
X19368000Y-2968500I100000J0D01*
G01*
X8898000Y-9458500D02*
G75*
G02*
X8698000Y-9458500I-100000J0D01*
G01*
X8698000Y-9458500D02*
G75*
G02*
X8898000Y-9458500I100000J0D01*
G01*
X24220000Y-1870000D02*
X24200000Y-1870000D01*
X24200000Y-1830000D01*
X24220000Y-1830000D01*
X24220000Y-1870000D01*
X19020000Y-2280000D02*
X19000000Y-2280000D01*
X19000000Y-2240000D01*
X19020000Y-2240000D01*
X19020000Y-2280000D01*
X24078000Y-2968500D02*
G75*
G02*
X23878000Y-2968500I-100000J0D01*
G01*
X23878000Y-2968500D02*
G75*
G02*
X24078000Y-2968500I100000J0D01*
G01*
X19020000Y-1960000D02*
X19000000Y-1960000D01*
X19000000Y-1920000D01*
X19020000Y-1920000D01*
X19020000Y-1960000D01*
X12100000Y-3000000D02*
G75*
G02*
X11900000Y-3000000I-100000J0D01*
G01*
X11900000Y-3000000D02*
G75*
G02*
X12100000Y-3000000I100000J0D01*
G01*
X24220000Y-2350000D02*
X24200000Y-2350000D01*
X24200000Y-2310000D01*
X24220000Y-2310000D01*
X24220000Y-2350000D01*
X19020000Y-2040000D02*
X19000000Y-2040000D01*
X19000000Y-2000000D01*
X19020000Y-2000000D01*
X19020000Y-2040000D01*
X24220000Y-1530000D02*
X24200000Y-1530000D01*
X24200000Y-1490000D01*
X24220000Y-1490000D01*
X24220000Y-1530000D01*
X9968000Y-10168500D02*
G75*
G02*
X9768000Y-10168500I-100000J0D01*
G01*
X9768000Y-10168500D02*
G75*
G02*
X9968000Y-10168500I100000J0D01*
G01*
X24220000Y-2940000D02*
X24200000Y-2940000D01*
X24200000Y-2900000D01*
X24220000Y-2900000D01*
X24220000Y-2940000D01*
X24220000Y-1950000D02*
X24200000Y-1950000D01*
X24200000Y-1910000D01*
X24220000Y-1910000D01*
X24220000Y-1950000D01*
X24220000Y-2860000D02*
X24200000Y-2860000D01*
X24200000Y-2820000D01*
X24220000Y-2820000D01*
X24220000Y-2860000D01*
X8768000Y-2978500D02*
G75*
G02*
X8568000Y-2978500I-100000J0D01*
G01*
X8568000Y-2978500D02*
G75*
G02*
X8768000Y-2978500I100000J0D01*
G01*
D11*
X2646277Y-10732484D02*
X2646277Y-10532484D01*
X2646277Y-10532484D02*
X2693896Y-10532484D01*
X2693896Y-10532484D02*
X2722467Y-10542008D01*
X2722467Y-10542008D02*
X2741515Y-10561055D01*
X2741515Y-10561055D02*
X2751039Y-10580103D01*
X2751039Y-10580103D02*
X2760563Y-10618198D01*
X2760563Y-10618198D02*
X2760563Y-10646770D01*
X2760563Y-10646770D02*
X2751039Y-10684865D01*
X2751039Y-10684865D02*
X2741515Y-10703912D01*
X2741515Y-10703912D02*
X2722467Y-10722960D01*
X2722467Y-10722960D02*
X2693896Y-10732484D01*
X2693896Y-10732484D02*
X2646277Y-10732484D01*
X2846277Y-10732484D02*
X2846277Y-10599150D01*
X2846277Y-10637246D02*
X2855801Y-10618198D01*
X2855801Y-10618198D02*
X2865324Y-10608674D01*
X2865324Y-10608674D02*
X2884372Y-10599150D01*
X2884372Y-10599150D02*
X2903420Y-10599150D01*
X2970086Y-10732484D02*
X2970086Y-10599150D01*
X2970086Y-10532484D02*
X2960562Y-10542008D01*
X2960562Y-10542008D02*
X2970086Y-10551531D01*
X2970086Y-10551531D02*
X2979610Y-10542008D01*
X2979610Y-10542008D02*
X2970086Y-10532484D01*
X2970086Y-10532484D02*
X2970086Y-10551531D01*
X3093896Y-10732484D02*
X3074848Y-10722960D01*
X3074848Y-10722960D02*
X3065324Y-10703912D01*
X3065324Y-10703912D02*
X3065324Y-10532484D01*
X3198658Y-10732484D02*
X3179610Y-10722960D01*
X3179610Y-10722960D02*
X3170086Y-10703912D01*
X3170086Y-10703912D02*
X3170086Y-10532484D01*
X3427229Y-10732484D02*
X3427229Y-10532484D01*
X3427229Y-10532484D02*
X3493896Y-10675341D01*
X3493896Y-10675341D02*
X3560562Y-10532484D01*
X3560562Y-10532484D02*
X3560562Y-10732484D01*
X3741515Y-10732484D02*
X3741515Y-10627722D01*
X3741515Y-10627722D02*
X3731991Y-10608674D01*
X3731991Y-10608674D02*
X3712943Y-10599150D01*
X3712943Y-10599150D02*
X3674848Y-10599150D01*
X3674848Y-10599150D02*
X3655801Y-10608674D01*
X3741515Y-10722960D02*
X3722467Y-10732484D01*
X3722467Y-10732484D02*
X3674848Y-10732484D01*
X3674848Y-10732484D02*
X3655801Y-10722960D01*
X3655801Y-10722960D02*
X3646277Y-10703912D01*
X3646277Y-10703912D02*
X3646277Y-10684865D01*
X3646277Y-10684865D02*
X3655801Y-10665817D01*
X3655801Y-10665817D02*
X3674848Y-10656293D01*
X3674848Y-10656293D02*
X3722467Y-10656293D01*
X3722467Y-10656293D02*
X3741515Y-10646770D01*
X3836753Y-10599150D02*
X3836753Y-10799150D01*
X3836753Y-10608674D02*
X3855801Y-10599150D01*
X3855801Y-10599150D02*
X3893896Y-10599150D01*
X3893896Y-10599150D02*
X3912943Y-10608674D01*
X3912943Y-10608674D02*
X3922467Y-10618198D01*
X3922467Y-10618198D02*
X3931991Y-10637246D01*
X3931991Y-10637246D02*
X3931991Y-10694389D01*
X3931991Y-10694389D02*
X3922467Y-10713436D01*
X3922467Y-10713436D02*
X3912943Y-10722960D01*
X3912943Y-10722960D02*
X3893896Y-10732484D01*
X3893896Y-10732484D02*
X3855801Y-10732484D01*
X3855801Y-10732484D02*
X3836753Y-10722960D01*
X4017705Y-10713436D02*
X4027229Y-10722960D01*
X4027229Y-10722960D02*
X4017705Y-10732484D01*
X4017705Y-10732484D02*
X4008182Y-10722960D01*
X4008182Y-10722960D02*
X4017705Y-10713436D01*
X4017705Y-10713436D02*
X4017705Y-10732484D01*
X4017705Y-10608674D02*
X4027229Y-10618198D01*
X4027229Y-10618198D02*
X4017705Y-10627722D01*
X4017705Y-10627722D02*
X4008182Y-10618198D01*
X4008182Y-10618198D02*
X4017705Y-10608674D01*
X4017705Y-10608674D02*
X4017705Y-10627722D01*
M02*
