%TF.GenerationSoftware,KiCad,Pcbnew,8.0.3-1.fc40*%
%TF.CreationDate,2024-06-20T14:07:13-04:00*%
%TF.ProjectId,sensor_bar_unified_muxing_1,73656e73-6f72-45f6-9261-725f756e6966,rev?*%
%TF.SameCoordinates,Original*%
%TF.FileFunction,Copper,L3,Inr*%
%TF.FilePolarity,Positive*%
%FSLAX46Y46*%
G04 Gerber Fmt 4.6, Leading zero omitted, Abs format (unit mm)*
G04 Created by KiCad (PCBNEW 8.0.3-1.fc40) date 2024-06-20 14:07:13*
%MOMM*%
%LPD*%
G01*
G04 APERTURE LIST*
%TA.AperFunction,ComponentPad*%
%ADD10R,1.500000X1.500000*%
%TD*%
%TA.AperFunction,ComponentPad*%
%ADD11C,1.500000*%
%TD*%
%TA.AperFunction,ComponentPad*%
%ADD12R,1.170000X1.170000*%
%TD*%
%TA.AperFunction,ComponentPad*%
%ADD13C,1.170000*%
%TD*%
%TA.AperFunction,ComponentPad*%
%ADD14R,1.370000X1.370000*%
%TD*%
%TA.AperFunction,ComponentPad*%
%ADD15C,1.370000*%
%TD*%
%TA.AperFunction,ComponentPad*%
%ADD16R,1.600000X1.600000*%
%TD*%
%TA.AperFunction,ComponentPad*%
%ADD17C,1.600000*%
%TD*%
%TA.AperFunction,ComponentPad*%
%ADD18R,1.300000X1.300000*%
%TD*%
%TA.AperFunction,ComponentPad*%
%ADD19C,1.300000*%
%TD*%
%TA.AperFunction,ViaPad*%
%ADD20C,0.600000*%
%TD*%
%TA.AperFunction,Conductor*%
%ADD21C,0.200000*%
%TD*%
G04 APERTURE END LIST*
D10*
%TO.N,Net-(BOARDSEL_CMP1-VCC)*%
%TO.C,U16*%
X221340000Y-18385000D03*
D11*
%TO.N,GND*%
X223880000Y-18385000D03*
%TO.N,Net-(JP11-B)*%
X226420000Y-18385000D03*
%TD*%
D12*
%TO.N,Net-(BOARDSEL_CMP1-1Y)*%
%TO.C,BOARDSEL_ENABLE1*%
X149560000Y-97305000D03*
D13*
%TO.N,Net-(BOARDSEL_CMP1-2Y)*%
X149560000Y-94765000D03*
%TO.N,N/C*%
X149560000Y-92225000D03*
%TO.N,Net-(BOARDSEL_CMP1-3Y)*%
X149560000Y-89685000D03*
%TO.N,Net-(BOARDSEL_CMP1-4Y)*%
X149560000Y-87145000D03*
%TO.N,Net-(BOARDSEL_ENABLE1-1Y)*%
X149560000Y-84605000D03*
%TO.N,GND*%
X149560000Y-82065000D03*
%TO.N,unconnected-(BOARDSEL_ENABLE1-2Y-Pad8)*%
X141620000Y-82065000D03*
%TO.N,unconnected-(BOARDSEL_ENABLE1-2A-Pad9)*%
X141620000Y-84605000D03*
%TO.N,unconnected-(BOARDSEL_ENABLE1-2B-Pad10)*%
X141620000Y-87145000D03*
%TO.N,N/C*%
X141620000Y-89685000D03*
%TO.N,unconnected-(BOARDSEL_ENABLE1-2C-Pad12)*%
X141620000Y-92225000D03*
%TO.N,unconnected-(BOARDSEL_ENABLE1-2D-Pad13)*%
X141620000Y-94765000D03*
%TO.N,Net-(BOARDSEL_CMP1-VCC)*%
X141620000Y-97305000D03*
%TD*%
D10*
%TO.N,Net-(BOARDSEL_CMP1-VCC)*%
%TO.C,U13*%
X179340000Y-18345000D03*
D11*
%TO.N,GND*%
X181880000Y-18345000D03*
%TO.N,Net-(JP14-B)*%
X184420000Y-18345000D03*
%TD*%
D10*
%TO.N,Net-(BOARDSEL_CMP1-VCC)*%
%TO.C,U15*%
X207340000Y-18185000D03*
D11*
%TO.N,GND*%
X209880000Y-18185000D03*
%TO.N,Net-(JP12-B)*%
X212420000Y-18185000D03*
%TD*%
D10*
%TO.N,Net-(BOARDSEL_CMP1-VCC)*%
%TO.C,U9*%
X123340000Y-18485000D03*
D11*
%TO.N,GND*%
X125880000Y-18485000D03*
%TO.N,Net-(JP18-B)*%
X128420000Y-18485000D03*
%TD*%
D10*
%TO.N,Net-(BOARDSEL_CMP1-VCC)*%
%TO.C,U19*%
X263340000Y-18185000D03*
D11*
%TO.N,GND*%
X265880000Y-18185000D03*
%TO.N,Net-(JP26-B)*%
X268420000Y-18185000D03*
%TD*%
D10*
%TO.N,Net-(BOARDSEL_CMP1-VCC)*%
%TO.C,U10*%
X137340000Y-18185000D03*
D11*
%TO.N,GND*%
X139880000Y-18185000D03*
%TO.N,Net-(JP17-B)*%
X142420000Y-18185000D03*
%TD*%
D10*
%TO.N,Net-(BOARDSEL_CMP1-VCC)*%
%TO.C,U7*%
X95340000Y-18485000D03*
D11*
%TO.N,GND*%
X97880000Y-18485000D03*
%TO.N,Net-(JP20-B)*%
X100420000Y-18485000D03*
%TD*%
D10*
%TO.N,Net-(BOARDSEL_CMP1-VCC)*%
%TO.C,U11*%
X151340000Y-18345000D03*
D11*
%TO.N,GND*%
X153880000Y-18345000D03*
%TO.N,Net-(JP16-B)*%
X156420000Y-18345000D03*
%TD*%
D10*
%TO.N,Net-(BOARDSEL_CMP1-VCC)*%
%TO.C,U8*%
X109340000Y-18385000D03*
D11*
%TO.N,GND*%
X111880000Y-18385000D03*
%TO.N,Net-(JP19-B)*%
X114420000Y-18385000D03*
%TD*%
D10*
%TO.N,Net-(BOARDSEL_CMP1-VCC)*%
%TO.C,U6*%
X81340000Y-18345000D03*
D11*
%TO.N,GND*%
X83880000Y-18345000D03*
%TO.N,Net-(JP21-B)*%
X86420000Y-18345000D03*
%TD*%
D10*
%TO.N,Net-(BOARDSEL_CMP1-VCC)*%
%TO.C,U17*%
X235340000Y-18385000D03*
D11*
%TO.N,GND*%
X237880000Y-18385000D03*
%TO.N,Net-(JP10-B)*%
X240420000Y-18385000D03*
%TD*%
D10*
%TO.N,Net-(BOARDSEL_CMP1-VCC)*%
%TO.C,U18*%
X249340000Y-18485000D03*
D11*
%TO.N,GND*%
X251880000Y-18485000D03*
%TO.N,Net-(JP25-B)*%
X254420000Y-18485000D03*
%TD*%
D10*
%TO.N,Net-(BOARDSEL_CMP1-VCC)*%
%TO.C,U12*%
X165340000Y-18145000D03*
D11*
%TO.N,GND*%
X167880000Y-18145000D03*
%TO.N,Net-(JP15-B)*%
X170420000Y-18145000D03*
%TD*%
D10*
%TO.N,Net-(BOARDSEL_CMP1-VCC)*%
%TO.C,U3*%
X39340000Y-18545000D03*
D11*
%TO.N,GND*%
X41880000Y-18545000D03*
%TO.N,Net-(JP46-B)*%
X44420000Y-18545000D03*
%TD*%
D10*
%TO.N,Net-(BOARDSEL_CMP1-VCC)*%
%TO.C,U5*%
X67340000Y-18145000D03*
D11*
%TO.N,GND*%
X69880000Y-18145000D03*
%TO.N,Net-(JP22-B)*%
X72420000Y-18145000D03*
%TD*%
D10*
%TO.N,Net-(BOARDSEL_CMP1-VCC)*%
%TO.C,U2*%
X25440000Y-17845000D03*
D11*
%TO.N,GND*%
X27980000Y-17845000D03*
%TO.N,Net-(JP47-B)*%
X30520000Y-17845000D03*
%TD*%
D14*
%TO.N,Net-(BOARDSEL_CMP1-1A)*%
%TO.C,interboard connect*%
X32440000Y-48725000D03*
D15*
%TO.N,Net-(DG452_0-S_1)*%
X32440000Y-46185000D03*
%TO.N,Net-(BOARDSEL_CMP1-2A)*%
X34980000Y-48725000D03*
%TO.N,Net-(DG452_0-D_4)*%
X34980000Y-46185000D03*
%TO.N,Net-(BOARDSEL_CMP1-3A)*%
X37520000Y-48725000D03*
%TO.N,Net-(DG452_0-S_2)*%
X37520000Y-46185000D03*
%TO.N,Net-(BOARDSEL_CMP1-4A)*%
X40060000Y-48725000D03*
%TO.N,Net-(DG452_0-D_3)*%
X40060000Y-46185000D03*
%TO.N,unconnected-(J1-Pad09)*%
X42600000Y-48725000D03*
%TO.N,Net-(DG452_1-S_1)*%
X42600000Y-46185000D03*
%TO.N,unconnected-(J1-Pad11)*%
X45140000Y-48725000D03*
%TO.N,Net-(DG452_1-D_4)*%
X45140000Y-46185000D03*
%TO.N,unconnected-(J1-Pad13)*%
X47680000Y-48725000D03*
%TO.N,Net-(DG452_1-S_2)*%
X47680000Y-46185000D03*
%TO.N,unconnected-(J1-Pad15)*%
X50220000Y-48725000D03*
%TO.N,Net-(DG452_1-D_3)*%
X50220000Y-46185000D03*
%TO.N,Net-(J2-Pin_9)*%
X52760000Y-48725000D03*
%TO.N,Net-(DG452_2-S_1)*%
X52760000Y-46185000D03*
%TO.N,unconnected-(J1-Pad19)*%
X55300000Y-48725000D03*
%TO.N,Net-(DG452_2-D_4)*%
X55300000Y-46185000D03*
%TO.N,unconnected-(J1-Pad21)*%
X57840000Y-48725000D03*
%TO.N,Net-(DG452_2-S_2)*%
X57840000Y-46185000D03*
%TO.N,unconnected-(J1-Pad23)*%
X60380000Y-48725000D03*
%TO.N,Net-(DG452_2-D_3)*%
X60380000Y-46185000D03*
%TO.N,unconnected-(J1-Pad25)*%
X62920000Y-48725000D03*
%TO.N,Net-(DG452_3-S_1)*%
X62920000Y-46185000D03*
%TO.N,unconnected-(J1-Pad27)*%
X65460000Y-48725000D03*
%TO.N,Net-(DG452_3-D_4)*%
X65460000Y-46185000D03*
%TO.N,Net-(BOARDSEL_CMP1-VCC)*%
X68000000Y-48725000D03*
%TO.N,Net-(DG452_3-S_2)*%
X68000000Y-46185000D03*
%TO.N,unconnected-(J1-Pad31)*%
X70540000Y-48725000D03*
%TO.N,Net-(DG452_3-D_3)*%
X70540000Y-46185000D03*
%TO.N,unconnected-(J1-Pad33)*%
X73080000Y-48725000D03*
%TO.N,Net-(DG45_4-S_1)*%
X73080000Y-46185000D03*
%TO.N,unconnected-(J1-Pad35)*%
X75620000Y-48725000D03*
%TO.N,Net-(DG45_4-D_4)*%
X75620000Y-46185000D03*
%TO.N,unconnected-(J1-Pad37)*%
X78160000Y-48725000D03*
%TO.N,unconnected-(J1-Pad38)*%
X78160000Y-46185000D03*
%TO.N,unconnected-(J1-Pad39)*%
X80700000Y-48725000D03*
%TO.N,GND*%
X80700000Y-46185000D03*
%TD*%
D16*
%TO.N,unconnected-(U1-GND-Pad1)*%
%TO.C,U1*%
X29470000Y-90805000D03*
D17*
%TO.N,Net-(BOARDSEL_CMP1-1A)*%
X32010000Y-90805000D03*
%TO.N,Net-(BOARDSEL_CMP1-2A)*%
X34550000Y-90805000D03*
%TO.N,Net-(BOARDSEL_CMP1-3A)*%
X37090000Y-90805000D03*
%TO.N,Net-(BOARDSEL_CMP1-4A)*%
X39630000Y-90805000D03*
%TO.N,unconnected-(U1-4_BCLK2-Pad6)*%
X42170000Y-90805000D03*
%TO.N,unconnected-(U1-5_IN2-Pad7)*%
X44710000Y-90805000D03*
%TO.N,unconnected-(U1-6_OUT1D-Pad8)*%
X47250000Y-90805000D03*
%TO.N,unconnected-(U1-7_RX2_OUT1A-Pad9)*%
X49790000Y-90805000D03*
%TO.N,unconnected-(U1-8_TX2_IN1-Pad10)*%
X52330000Y-90805000D03*
%TO.N,unconnected-(U1-9_OUT1C-Pad11)*%
X54870000Y-90805000D03*
%TO.N,unconnected-(U1-10_CS_MQSR-Pad12)*%
X57410000Y-90805000D03*
%TO.N,unconnected-(U1-11_MOSI_CTX1-Pad13)*%
X59950000Y-90805000D03*
%TO.N,unconnected-(U1-12_MISO_MQSL-Pad14)*%
X62490000Y-90805000D03*
%TO.N,unconnected-(U1-3V3-Pad15)*%
X65030000Y-90805000D03*
%TO.N,Net-(DG452_0-S_1)*%
X67570000Y-90805000D03*
%TO.N,Net-(DG452_0-D_4)*%
X70110000Y-90805000D03*
%TO.N,Net-(DG452_0-S_2)*%
X72650000Y-90805000D03*
%TO.N,Net-(DG452_0-D_3)*%
X75190000Y-90805000D03*
%TO.N,unconnected-(U1-28_RX7-Pad20)*%
X77730000Y-90805000D03*
%TO.N,unconnected-(U1-29_TX7-Pad21)*%
X80270000Y-90805000D03*
%TO.N,unconnected-(U1-30_CRX3-Pad22)*%
X82810000Y-90805000D03*
%TO.N,unconnected-(U1-31_CTX3-Pad23)*%
X85350000Y-90805000D03*
%TO.N,unconnected-(U1-32_OUT1B-Pad24)*%
X87890000Y-90805000D03*
%TO.N,unconnected-(U1-33_MCLK2-Pad25)*%
X87890000Y-75565000D03*
%TO.N,unconnected-(U1-34_RX8-Pad26)*%
X85350000Y-75565000D03*
%TO.N,unconnected-(U1-35_TX8-Pad27)*%
X82810000Y-75565000D03*
%TO.N,unconnected-(U1-36_CS-Pad28)*%
X80270000Y-75565000D03*
%TO.N,unconnected-(U1-37_CS-Pad29)*%
X77730000Y-75565000D03*
%TO.N,Net-(DG452_1-D_3)*%
X75190000Y-75565000D03*
%TO.N,Net-(DG452_1-S_2)*%
X72650000Y-75565000D03*
%TO.N,Net-(DG452_1-D_4)*%
X70110000Y-75565000D03*
%TO.N,Net-(DG452_1-S_1)*%
X67570000Y-75565000D03*
%TO.N,unconnected-(U1-GND-Pad34)*%
X65030000Y-75565000D03*
%TO.N,unconnected-(U1-13_SCK_LED-Pad35)*%
X62490000Y-75565000D03*
%TO.N,Net-(DG45_4-D_4)*%
X59950000Y-75565000D03*
%TO.N,Net-(DG45_4-S_1)*%
X57410000Y-75565000D03*
%TO.N,Net-(DG452_3-D_3)*%
X54870000Y-75565000D03*
%TO.N,Net-(DG452_3-S_2)*%
X52330000Y-75565000D03*
%TO.N,Net-(DG452_3-D_4)*%
X49790000Y-75565000D03*
%TO.N,Net-(DG452_3-S_1)*%
X47250000Y-75565000D03*
%TO.N,Net-(DG452_2-D_3)*%
X44710000Y-75565000D03*
%TO.N,Net-(DG452_2-S_2)*%
X42170000Y-75565000D03*
%TO.N,Net-(DG452_2-D_4)*%
X39630000Y-75565000D03*
%TO.N,Net-(DG452_2-S_1)*%
X37090000Y-75565000D03*
%TO.N,Net-(BOARDSEL_CMP1-VCC)*%
X34550000Y-75565000D03*
%TO.N,GND*%
X32010000Y-75565000D03*
%TO.N,Net-(JP23-B)*%
X29470000Y-75565000D03*
%TO.N,unconnected-(U1-VUSB-Pad49)*%
X32010000Y-78105000D03*
%TO.N,unconnected-(U1-VBAT-Pad50)*%
X75190000Y-88265000D03*
%TO.N,unconnected-(U1-3V3-Pad51)*%
X75190000Y-85725000D03*
%TO.N,unconnected-(U1-GND-Pad52)*%
X75190000Y-83185000D03*
%TO.N,unconnected-(U1-PROGRAM-Pad53)*%
X75190000Y-80645000D03*
%TO.N,unconnected-(U1-ON_OFF-Pad54)*%
X75190000Y-78105000D03*
D16*
%TO.N,unconnected-(U1-5V-Pad55)*%
X35769200Y-87754200D03*
D17*
%TO.N,unconnected-(U1-D--Pad56)*%
X38309200Y-87754200D03*
%TO.N,unconnected-(U1-D+-Pad57)*%
X40849200Y-87754200D03*
%TO.N,unconnected-(U1-GND-Pad58)*%
X43389200Y-87754200D03*
%TO.N,unconnected-(U1-GND-Pad59)*%
X45929200Y-87754200D03*
D18*
%TO.N,unconnected-(U1-R+-Pad60)*%
X42440000Y-78003400D03*
D19*
%TO.N,unconnected-(U1-LED-Pad61)*%
X42440000Y-80003400D03*
%TO.N,unconnected-(U1-T--Pad62)*%
X42440000Y-82003400D03*
%TO.N,unconnected-(U1-T+-Pad63)*%
X44440000Y-82003400D03*
%TO.N,unconnected-(U1-GND-Pad64)*%
X44440000Y-80003400D03*
%TO.N,unconnected-(U1-R--Pad65)*%
X44440000Y-78003400D03*
%TO.N,unconnected-(U1-D--Pad66)*%
X30200000Y-81915000D03*
%TO.N,unconnected-(U1-D+-Pad67)*%
X30200000Y-84455000D03*
%TD*%
D12*
%TO.N,Net-(BOARDSEL_CMP1-1A)*%
%TO.C,BOARDSEL_CMP1*%
X161620000Y-97345000D03*
D13*
%TO.N,Net-(BOARDSEL_CMP1-1B)*%
X161620000Y-94805000D03*
%TO.N,Net-(BOARDSEL_CMP1-1Y)*%
X161620000Y-92265000D03*
%TO.N,Net-(BOARDSEL_CMP1-2Y)*%
X161620000Y-89725000D03*
%TO.N,Net-(BOARDSEL_CMP1-2A)*%
X161620000Y-87185000D03*
%TO.N,Net-(BOARDSEL_CMP1-2B)*%
X161620000Y-84645000D03*
%TO.N,GND*%
X161620000Y-82105000D03*
%TO.N,Net-(BOARDSEL_CMP1-3A)*%
X153680000Y-82105000D03*
%TO.N,Net-(BOARDSEL_CMP1-3B)*%
X153680000Y-84645000D03*
%TO.N,Net-(BOARDSEL_CMP1-3Y)*%
X153680000Y-87185000D03*
%TO.N,Net-(BOARDSEL_CMP1-4Y)*%
X153680000Y-89725000D03*
%TO.N,Net-(BOARDSEL_CMP1-4A)*%
X153680000Y-92265000D03*
%TO.N,Net-(BOARDSEL_CMP1-4B)*%
X153680000Y-94805000D03*
%TO.N,Net-(BOARDSEL_CMP1-VCC)*%
X153680000Y-97345000D03*
%TD*%
D10*
%TO.N,Net-(BOARDSEL_CMP1-VCC)*%
%TO.C,U14*%
X193340000Y-18185000D03*
D11*
%TO.N,GND*%
X195880000Y-18185000D03*
%TO.N,Net-(JP13-B)*%
X198420000Y-18185000D03*
%TD*%
D10*
%TO.N,Net-(BOARDSEL_CMP1-VCC)*%
%TO.C,U4*%
X53340000Y-18145000D03*
D11*
%TO.N,GND*%
X55880000Y-18145000D03*
%TO.N,Net-(JP45-B)*%
X58420000Y-18145000D03*
%TD*%
D20*
%TO.N,Net-(BOARDSEL_CMP1-3B)*%
X134380000Y-89085000D03*
%TO.N,Net-(BOARDSEL_CMP1-4A)*%
X172680000Y-37285000D03*
%TO.N,Net-(BOARDSEL_CMP1-2A)*%
X172680000Y-41285000D03*
%TO.N,Net-(BOARDSEL_CMP1-4B)*%
X134380000Y-84885000D03*
%TO.N,Net-(BOARDSEL_CMP1-1A)*%
X172680000Y-43285000D03*
%TO.N,Net-(BOARDSEL_CMP1-1B)*%
X134380000Y-98285000D03*
%TO.N,Net-(BOARDSEL_CMP1-2B)*%
X134380000Y-93485000D03*
%TO.N,GND*%
X146000000Y-37400000D03*
X146000000Y-34600000D03*
X28959852Y-37313382D03*
X118300000Y-68335000D03*
X118300000Y-55835000D03*
X146000000Y-31800000D03*
X146000000Y-25600000D03*
X118300000Y-92835000D03*
X171580000Y-47285000D03*
X118400000Y-44235000D03*
X146000000Y-28700000D03*
X130680000Y-91685000D03*
X118300000Y-80735000D03*
X130680000Y-83185000D03*
X130680000Y-96685000D03*
X130680000Y-87185000D03*
X146000000Y-40200000D03*
X31573235Y-39926765D03*
%TO.N,Net-(BOARDSEL_CMP1-VCC)*%
X31600910Y-40726288D03*
X119500000Y-91235000D03*
X172680000Y-59285000D03*
X137980000Y-83185000D03*
X119600000Y-42735000D03*
X137980000Y-87085000D03*
X137980000Y-96685000D03*
X119600000Y-54135000D03*
X137980000Y-91685000D03*
X119600000Y-79135000D03*
X28000000Y-45900000D03*
X119600000Y-66535000D03*
%TO.N,Net-(BOARDSEL_CMP1-3A)*%
X172680000Y-39285000D03*
%TO.N,Net-(BOARDSEL_ENABLE1-1Y)*%
X113580000Y-40985000D03*
X113580000Y-89585000D03*
X123380000Y-39285000D03*
X113480000Y-57385000D03*
X113580000Y-82385000D03*
X113580000Y-64985000D03*
X113580000Y-77485000D03*
X113480000Y-52385000D03*
X113580000Y-69885000D03*
X113580000Y-94485000D03*
X113580000Y-45885000D03*
%TO.N,Net-(DG45_4-S_1)*%
X87480000Y-65985000D03*
X174380000Y-67285000D03*
X117080000Y-47385000D03*
X74080000Y-52585000D03*
%TO.N,Net-(DG45_4-D_4)*%
X88080000Y-65385000D03*
X76580000Y-52585000D03*
X174380000Y-65285000D03*
X122180000Y-47385000D03*
%TO.N,Net-(DG452_0-D_3)*%
X77980000Y-71185000D03*
X41080000Y-52285000D03*
X122080000Y-88185000D03*
X174380000Y-93185000D03*
%TO.N,Net-(DG452_0-D_4)*%
X76484322Y-71985000D03*
X122080000Y-95985000D03*
X35980000Y-52285000D03*
X174380000Y-97285000D03*
%TO.N,Net-(DG452_0-S_1)*%
X33980000Y-52285000D03*
X174380000Y-99285000D03*
X117080000Y-95885000D03*
X75780000Y-72385000D03*
%TO.N,Net-(DG452_0-S_2)*%
X38480000Y-52285000D03*
X117080000Y-88185000D03*
X174380000Y-95185000D03*
X77279997Y-71585000D03*
%TO.N,Net-(DG452_1-D_4)*%
X79410853Y-70385000D03*
X122080000Y-83985000D03*
X46180000Y-52385000D03*
X174380000Y-89085000D03*
%TO.N,Net-(DG452_1-S_1)*%
X117080000Y-83985000D03*
X174380000Y-91185000D03*
X43580000Y-52285000D03*
X78710850Y-70785000D03*
%TO.N,Net-(DG452_1-S_2)*%
X174380000Y-87185000D03*
X48680000Y-52385000D03*
X80210239Y-70032000D03*
X117080000Y-75985000D03*
%TO.N,Net-(DG452_1-D_3)*%
X80873710Y-69585000D03*
X122180000Y-75985000D03*
X51280000Y-52385000D03*
X174380000Y-85185000D03*
%TO.N,Net-(DG452_2-D_3)*%
X122180000Y-66485000D03*
X83928856Y-67985000D03*
X61380000Y-52485000D03*
X174380000Y-77285000D03*
%TO.N,Net-(DG452_2-S_2)*%
X174380000Y-79285000D03*
X117080000Y-66485000D03*
X83128853Y-68385000D03*
X58880000Y-52485000D03*
%TO.N,Net-(DG452_2-D_4)*%
X56280000Y-52485000D03*
X82390558Y-68785000D03*
X174380000Y-81385000D03*
X122180000Y-71385000D03*
%TO.N,Net-(DG452_2-S_1)*%
X53780000Y-52485000D03*
X174380000Y-83285000D03*
X81645669Y-69185000D03*
X117080000Y-71285000D03*
%TO.N,Net-(DG452_3-S_2)*%
X86149499Y-66888263D03*
X68980000Y-52485000D03*
X116980000Y-53985000D03*
X174380000Y-71185000D03*
%TO.N,Net-(DG452_3-D_3)*%
X122080000Y-53885000D03*
X86817278Y-66447722D03*
X174380000Y-69185000D03*
X71580000Y-52585000D03*
%TO.N,Net-(DG452_3-D_4)*%
X122080000Y-58785000D03*
X174380000Y-73285000D03*
X85364651Y-67185000D03*
X66480000Y-52485000D03*
%TO.N,Net-(DG452_3-S_1)*%
X116980000Y-58785000D03*
X174380000Y-75285000D03*
X63880000Y-52485000D03*
X84632310Y-67585000D03*
%TO.N,Net-(JP10-B)*%
X70280000Y-28085000D03*
%TO.N,Net-(JP11-B)*%
X67780000Y-28085000D03*
%TO.N,Net-(JP12-B)*%
X65280000Y-28085000D03*
%TO.N,Net-(JP13-B)*%
X62780000Y-28085000D03*
%TO.N,Net-(JP14-B)*%
X60280000Y-28085000D03*
%TO.N,Net-(JP15-B)*%
X57780000Y-28085000D03*
%TO.N,Net-(JP16-B)*%
X55280000Y-28085000D03*
%TO.N,Net-(JP17-B)*%
X52780000Y-28085000D03*
%TO.N,Net-(JP18-B)*%
X50280000Y-28085000D03*
%TO.N,Net-(JP19-B)*%
X47780000Y-28085000D03*
%TO.N,Net-(JP20-B)*%
X45280000Y-28085000D03*
%TO.N,Net-(JP21-B)*%
X42780000Y-28085000D03*
%TO.N,Net-(JP22-B)*%
X40280000Y-28085000D03*
%TO.N,Net-(JP23-B)*%
X40500000Y-83400000D03*
%TO.N,Net-(JP45-B)*%
X37780000Y-28085000D03*
%TO.N,Net-(JP46-B)*%
X36280000Y-28085000D03*
%TO.N,Net-(JP47-B)*%
X34025000Y-28685000D03*
%TO.N,Net-(J2-Pin_9)*%
X172680000Y-53285000D03*
X28200000Y-40200000D03*
%TO.N,Net-(JP25-B)*%
X72780000Y-28085000D03*
%TO.N,Net-(JP26-B)*%
X75280000Y-28085000D03*
%TD*%
D21*
%TO.N,Net-(BOARDSEL_CMP1-3B)*%
X139085000Y-81180000D02*
X140180000Y-80085000D01*
X130985000Y-81180000D02*
X139085000Y-81180000D01*
X151780000Y-82745000D02*
X153680000Y-84645000D01*
X140180000Y-80085000D02*
X150980000Y-80085000D01*
X129680000Y-82485000D02*
X130985000Y-81180000D01*
X151780000Y-80885000D02*
X151780000Y-82745000D01*
X150980000Y-80085000D02*
X151780000Y-80885000D01*
X131380000Y-89085000D02*
X129680000Y-87385000D01*
X134380000Y-89085000D02*
X131380000Y-89085000D01*
X129680000Y-87385000D02*
X129680000Y-82485000D01*
%TO.N,Net-(BOARDSEL_CMP1-2A)*%
X162580000Y-87185000D02*
X161620000Y-87185000D01*
X163055000Y-96460000D02*
X163080000Y-96485000D01*
X34550000Y-97555000D02*
X36580000Y-99585000D01*
X36580000Y-99585000D02*
X157610000Y-99585000D01*
X160735000Y-96460000D02*
X163055000Y-96460000D01*
X163780000Y-88385000D02*
X162580000Y-87185000D01*
X163780000Y-95785000D02*
X163780000Y-88385000D01*
X163080000Y-96485000D02*
X163780000Y-95785000D01*
X157610000Y-99585000D02*
X160735000Y-96460000D01*
X34550000Y-90805000D02*
X34550000Y-97555000D01*
%TO.N,Net-(BOARDSEL_CMP1-4B)*%
X134380000Y-84885000D02*
X140611580Y-84885000D01*
X140611580Y-84885000D02*
X149311580Y-93585000D01*
X152460000Y-93585000D02*
X153680000Y-94805000D01*
X149311580Y-93585000D02*
X152460000Y-93585000D01*
%TO.N,Net-(BOARDSEL_CMP1-1A)*%
X32010000Y-90805000D02*
X32010000Y-98115000D01*
X32010000Y-98115000D02*
X33880000Y-99985000D01*
X33880000Y-99985000D02*
X158980000Y-99985000D01*
X158980000Y-99985000D02*
X161620000Y-97345000D01*
%TO.N,Net-(BOARDSEL_CMP1-1B)*%
X160240000Y-96185000D02*
X144180000Y-96185000D01*
X142175000Y-98190000D02*
X134475000Y-98190000D01*
X144180000Y-96185000D02*
X142175000Y-98190000D01*
X161620000Y-94805000D02*
X160240000Y-96185000D01*
X134475000Y-98190000D02*
X134380000Y-98285000D01*
%TO.N,Net-(BOARDSEL_CMP1-2B)*%
X134380000Y-93485000D02*
X129880000Y-93485000D01*
X129880000Y-93485000D02*
X128380000Y-91985000D01*
X128380000Y-91985000D02*
X128380000Y-83219314D01*
X128380000Y-83219314D02*
X132214314Y-79385000D01*
X132214314Y-79385000D02*
X156360000Y-79385000D01*
X156360000Y-79385000D02*
X161620000Y-84645000D01*
%TO.N,Net-(BOARDSEL_ENABLE1-1Y)*%
X113580000Y-39585000D02*
X114780000Y-38385000D01*
X122480000Y-38385000D02*
X123380000Y-39285000D01*
X114780000Y-38385000D02*
X122480000Y-38385000D01*
X113580000Y-40985000D02*
X113580000Y-39585000D01*
X113580000Y-94485000D02*
X113580000Y-40985000D01*
%TO.N,Net-(DG45_4-S_1)*%
X117080000Y-47385000D02*
X123980000Y-54285000D01*
X160414314Y-54285000D02*
X173414314Y-67285000D01*
X123980000Y-54285000D02*
X160414314Y-54285000D01*
X173414314Y-67285000D02*
X174380000Y-67285000D01*
%TO.N,Net-(DG45_4-D_4)*%
X128680000Y-53885000D02*
X160580000Y-53885000D01*
X160580000Y-53885000D02*
X171980000Y-65285000D01*
X171980000Y-65285000D02*
X174380000Y-65285000D01*
X122180000Y-47385000D02*
X128680000Y-53885000D01*
%TO.N,Net-(DG452_0-D_3)*%
X169180000Y-70404604D02*
X169180000Y-71056075D01*
X58850000Y-74023628D02*
X58850000Y-76255000D01*
X72280000Y-89685000D02*
X74070000Y-89685000D01*
X172180000Y-82861959D02*
X172180000Y-86964901D01*
X126880000Y-73830587D02*
X126880000Y-60647744D01*
X169180000Y-71056075D02*
X169780000Y-71656075D01*
X169780000Y-80461959D02*
X172180000Y-82861959D01*
X123080000Y-77630587D02*
X126880000Y-73830587D01*
X174380000Y-92033529D02*
X174380000Y-93185000D01*
X74070000Y-89685000D02*
X75190000Y-90805000D01*
X123080000Y-87185000D02*
X123080000Y-77630587D01*
X58850000Y-76255000D02*
X72280000Y-89685000D01*
X128042744Y-59485000D02*
X158260396Y-59485000D01*
X173380000Y-91033529D02*
X174380000Y-92033529D01*
X122080000Y-88185000D02*
X123080000Y-87185000D01*
X41080000Y-56253628D02*
X58850000Y-74023628D01*
X158260396Y-59485000D02*
X169180000Y-70404604D01*
X126880000Y-60647744D02*
X128042744Y-59485000D01*
X169780000Y-71656075D02*
X169780000Y-80461959D01*
X173380000Y-88164901D02*
X173380000Y-91033529D01*
X41080000Y-52285000D02*
X41080000Y-56253628D01*
X172180000Y-86964901D02*
X173380000Y-88164901D01*
%TO.N,Net-(DG452_0-D_4)*%
X172580000Y-88496273D02*
X172580000Y-94233529D01*
X35980000Y-52285000D02*
X51480000Y-67785000D01*
X68990000Y-89685000D02*
X70110000Y-90805000D01*
X53430000Y-74335000D02*
X53430000Y-75735000D01*
X168980000Y-80793331D02*
X171380000Y-83193331D01*
X168980000Y-71987447D02*
X168980000Y-80793331D01*
X168380000Y-70735976D02*
X168380000Y-71387447D01*
X67380000Y-89685000D02*
X68990000Y-89685000D01*
X168380000Y-71387447D02*
X168980000Y-71987447D01*
X172580000Y-94233529D02*
X174380000Y-96033529D01*
X171380000Y-83193331D02*
X171380000Y-87296273D01*
X123880000Y-77961959D02*
X127680000Y-74161959D01*
X128374116Y-60285000D02*
X157929024Y-60285000D01*
X127680000Y-74161959D02*
X127680000Y-60979116D01*
X53430000Y-75735000D02*
X67380000Y-89685000D01*
X123880000Y-94185000D02*
X123880000Y-77961959D01*
X51480000Y-67785000D02*
X51480000Y-72385000D01*
X127680000Y-60979116D02*
X128374116Y-60285000D01*
X157929024Y-60285000D02*
X168380000Y-70735976D01*
X171380000Y-87296273D02*
X172580000Y-88496273D01*
X122080000Y-95985000D02*
X123880000Y-94185000D01*
X51480000Y-72385000D02*
X53430000Y-74335000D01*
X174380000Y-96033529D02*
X174380000Y-97285000D01*
%TO.N,Net-(DG452_0-S_1)*%
X172180000Y-94399214D02*
X173765786Y-95985000D01*
X167980000Y-71553133D02*
X168580000Y-72153133D01*
X64900000Y-89705000D02*
X66470000Y-89705000D01*
X50890000Y-69195000D02*
X50890000Y-75695000D01*
X167980000Y-70901662D02*
X167980000Y-71553133D01*
X50890000Y-75695000D02*
X64900000Y-89705000D01*
X122328529Y-96585000D02*
X124280000Y-94633529D01*
X173765786Y-98670786D02*
X174380000Y-99285000D01*
X33980000Y-52285000D02*
X50890000Y-69195000D01*
X173765786Y-95985000D02*
X173765786Y-98670786D01*
X117780000Y-96585000D02*
X122328529Y-96585000D01*
X124280000Y-78127645D02*
X128080000Y-74327645D01*
X66470000Y-89705000D02*
X67570000Y-90805000D01*
X168580000Y-72153133D02*
X168580000Y-80959017D01*
X157763338Y-60685000D02*
X167980000Y-70901662D01*
X124280000Y-94633529D02*
X124280000Y-78127645D01*
X117080000Y-95885000D02*
X117780000Y-96585000D01*
X128539802Y-60685000D02*
X157763338Y-60685000D01*
X128080000Y-61144802D02*
X128539802Y-60685000D01*
X168580000Y-80959017D02*
X170980000Y-83359017D01*
X170980000Y-87461959D02*
X172180000Y-88661959D01*
X128080000Y-74327645D02*
X128080000Y-61144802D01*
X170980000Y-83359017D02*
X170980000Y-87461959D01*
X172180000Y-88661959D02*
X172180000Y-94399214D01*
%TO.N,Net-(DG452_0-S_2)*%
X38480000Y-54219314D02*
X51980000Y-67719314D01*
X122328529Y-88785000D02*
X123480000Y-87633529D01*
X172980000Y-93785000D02*
X174380000Y-95185000D01*
X69974365Y-89685000D02*
X71530000Y-89685000D01*
X38480000Y-52285000D02*
X38480000Y-54219314D01*
X172980000Y-88330587D02*
X172980000Y-93785000D01*
X71530000Y-89685000D02*
X72650000Y-90805000D01*
X168780000Y-70570290D02*
X168780000Y-71221761D01*
X169380000Y-80627645D02*
X171780000Y-83027645D01*
X169380000Y-71821761D02*
X169380000Y-80627645D01*
X127280000Y-73996273D02*
X127280000Y-60813430D01*
X171780000Y-83027645D02*
X171780000Y-87130587D01*
X56280000Y-75990635D02*
X69974365Y-89685000D01*
X171780000Y-87130587D02*
X172980000Y-88330587D01*
X52845635Y-71985000D02*
X56280000Y-75419365D01*
X117080000Y-88185000D02*
X117680000Y-88785000D01*
X117680000Y-88785000D02*
X122328529Y-88785000D01*
X123480000Y-77796273D02*
X127280000Y-73996273D01*
X51980000Y-67719314D02*
X51980000Y-71985000D01*
X56280000Y-75419365D02*
X56280000Y-75990635D01*
X128208430Y-59885000D02*
X158094710Y-59885000D01*
X123480000Y-87633529D02*
X123480000Y-77796273D01*
X168780000Y-71221761D02*
X169380000Y-71821761D01*
X51980000Y-71985000D02*
X52845635Y-71985000D01*
X127280000Y-60813430D02*
X128208430Y-59885000D01*
X158094710Y-59885000D02*
X168780000Y-70570290D01*
%TO.N,Net-(DG452_1-D_4)*%
X174380000Y-88033529D02*
X174380000Y-89085000D01*
X172980000Y-86633529D02*
X174380000Y-88033529D01*
X122180000Y-83885000D02*
X122180000Y-77399215D01*
X122180000Y-77399215D02*
X126080000Y-73499215D01*
X170580000Y-80130587D02*
X172980000Y-82530587D01*
X57245686Y-69285000D02*
X63830000Y-69285000D01*
X127711372Y-58685000D02*
X158591768Y-58685000D01*
X126080000Y-73499215D02*
X126080000Y-60316372D01*
X46180000Y-52385000D02*
X46180000Y-58219314D01*
X122080000Y-83985000D02*
X122180000Y-83885000D01*
X169980000Y-70724703D02*
X170580000Y-71324703D01*
X170580000Y-71324703D02*
X170580000Y-80130587D01*
X158591768Y-58685000D02*
X169980000Y-70073232D01*
X126080000Y-60316372D02*
X127711372Y-58685000D01*
X46180000Y-58219314D02*
X57245686Y-69285000D01*
X172980000Y-82530587D02*
X172980000Y-86633529D01*
X169980000Y-70073232D02*
X169980000Y-70724703D01*
X63830000Y-69285000D02*
X70110000Y-75565000D01*
%TO.N,Net-(DG452_1-S_1)*%
X172580000Y-86799215D02*
X173780000Y-87999215D01*
X173780000Y-90585000D02*
X174380000Y-91185000D01*
X57080000Y-69685000D02*
X61690000Y-69685000D01*
X170180000Y-71490389D02*
X170180000Y-80296273D01*
X126480000Y-73664901D02*
X126480000Y-60482058D01*
X122680000Y-84233529D02*
X122680000Y-77464901D01*
X170180000Y-80296273D02*
X172580000Y-82696273D01*
X122680000Y-77464901D02*
X126480000Y-73664901D01*
X61690000Y-69685000D02*
X67570000Y-75565000D01*
X169580000Y-70238918D02*
X169580000Y-70890389D01*
X117680000Y-84585000D02*
X122328529Y-84585000D01*
X117080000Y-83985000D02*
X117680000Y-84585000D01*
X158426082Y-59085000D02*
X169580000Y-70238918D01*
X122328529Y-84585000D02*
X122680000Y-84233529D01*
X43580000Y-52285000D02*
X43580000Y-56185000D01*
X127877058Y-59085000D02*
X158426082Y-59085000D01*
X126480000Y-60482058D02*
X127877058Y-59085000D01*
X172580000Y-82696273D02*
X172580000Y-86799215D01*
X43580000Y-56185000D02*
X57080000Y-69685000D01*
X173780000Y-87999215D02*
X173780000Y-90585000D01*
X169580000Y-70890389D02*
X170180000Y-71490389D01*
%TO.N,Net-(DG452_1-S_2)*%
X173380000Y-86185000D02*
X174380000Y-87185000D01*
X127545686Y-58285000D02*
X158757454Y-58285000D01*
X158757454Y-58285000D02*
X170380000Y-69907546D01*
X170380000Y-70559017D02*
X170980000Y-71159017D01*
X125680000Y-73333529D02*
X125680000Y-60150686D01*
X48680000Y-52385000D02*
X48680000Y-60153628D01*
X122428529Y-76585000D02*
X125680000Y-73333529D01*
X170980000Y-79964901D02*
X173380000Y-82364901D01*
X117080000Y-75985000D02*
X117680000Y-76585000D01*
X173380000Y-82364901D02*
X173380000Y-86185000D01*
X65970000Y-68885000D02*
X72650000Y-75565000D01*
X170980000Y-71159017D02*
X170980000Y-79964901D01*
X117680000Y-76585000D02*
X122428529Y-76585000D01*
X57411372Y-68885000D02*
X65970000Y-68885000D01*
X170380000Y-69907546D02*
X170380000Y-70559017D01*
X125680000Y-60150686D02*
X127545686Y-58285000D01*
X48680000Y-60153628D02*
X57411372Y-68885000D01*
%TO.N,Net-(DG452_1-D_3)*%
X170780000Y-70393331D02*
X171380000Y-70993331D01*
X68110000Y-68485000D02*
X75190000Y-75565000D01*
X173780000Y-82199215D02*
X173780000Y-84585000D01*
X171380000Y-70993331D02*
X171380000Y-79799215D01*
X125280000Y-72885000D02*
X125280000Y-59985000D01*
X173780000Y-84585000D02*
X174380000Y-85185000D01*
X127380000Y-57885000D02*
X158923140Y-57885000D01*
X125280000Y-59985000D02*
X127380000Y-57885000D01*
X158923140Y-57885000D02*
X170780000Y-69741860D01*
X51280000Y-62187942D02*
X57577058Y-68485000D01*
X122180000Y-75985000D02*
X125280000Y-72885000D01*
X57577058Y-68485000D02*
X68110000Y-68485000D01*
X171380000Y-79799215D02*
X173780000Y-82199215D01*
X170780000Y-69741860D02*
X170780000Y-70393331D01*
X51280000Y-52385000D02*
X51280000Y-62187942D01*
%TO.N,Net-(DG452_2-D_3)*%
X159585884Y-56285000D02*
X172380000Y-69079116D01*
X172980000Y-75885000D02*
X174380000Y-77285000D01*
X126645686Y-56285000D02*
X159585884Y-56285000D01*
X122180000Y-60750686D02*
X126645686Y-56285000D01*
X122180000Y-66485000D02*
X122180000Y-60750686D01*
X172980000Y-70330587D02*
X172980000Y-75885000D01*
X172380000Y-69730587D02*
X172980000Y-70330587D01*
X172380000Y-69079116D02*
X172380000Y-69730587D01*
%TO.N,Net-(DG452_2-S_2)*%
X171980000Y-69244802D02*
X171980000Y-69896273D01*
X117080000Y-66485000D02*
X117080000Y-66785000D01*
X172580000Y-77485000D02*
X174380000Y-79285000D01*
X117080000Y-66785000D02*
X117430000Y-67135000D01*
X126811372Y-56685000D02*
X159420198Y-56685000D01*
X172580000Y-70496273D02*
X172580000Y-77485000D01*
X122780000Y-60716372D02*
X126811372Y-56685000D01*
X122780000Y-66785000D02*
X122780000Y-60716372D01*
X117430000Y-67135000D02*
X122430000Y-67135000D01*
X171980000Y-69896273D02*
X172580000Y-70496273D01*
X122430000Y-67135000D02*
X122780000Y-66785000D01*
X159420198Y-56685000D02*
X171980000Y-69244802D01*
%TO.N,Net-(DG452_2-D_4)*%
X124480000Y-59582058D02*
X126977058Y-57085000D01*
X126977058Y-57085000D02*
X159254512Y-57085000D01*
X124480000Y-66885000D02*
X124480000Y-59582058D01*
X171580000Y-69410488D02*
X171580000Y-70061959D01*
X122180000Y-71385000D02*
X122180000Y-69185000D01*
X159254512Y-57085000D02*
X171580000Y-69410488D01*
X172180000Y-79185000D02*
X174380000Y-81385000D01*
X171580000Y-70061959D02*
X172180000Y-70661959D01*
X172180000Y-70661959D02*
X172180000Y-79185000D01*
X122180000Y-69185000D02*
X124480000Y-66885000D01*
%TO.N,Net-(DG452_2-S_1)*%
X117780000Y-71985000D02*
X123780000Y-71985000D01*
X127142744Y-57485000D02*
X159088826Y-57485000D01*
X117080000Y-71285000D02*
X117780000Y-71985000D01*
X123780000Y-71985000D02*
X124880000Y-70885000D01*
X171780000Y-79633529D02*
X174380000Y-82233529D01*
X159088826Y-57485000D02*
X171180000Y-69576174D01*
X174380000Y-82233529D02*
X174380000Y-83285000D01*
X124880000Y-70885000D02*
X124880000Y-59747744D01*
X171180000Y-69576174D02*
X171180000Y-70227645D01*
X171180000Y-70227645D02*
X171780000Y-70827645D01*
X171780000Y-70827645D02*
X171780000Y-79633529D01*
X124880000Y-59747744D02*
X127142744Y-57485000D01*
%TO.N,Net-(DG452_3-S_2)*%
X173580000Y-69233529D02*
X174380000Y-70033529D01*
X117298529Y-53985000D02*
X118398529Y-55085000D01*
X174380000Y-70033529D02*
X174380000Y-71185000D01*
X173580000Y-68582058D02*
X173580000Y-69233529D01*
X116980000Y-53985000D02*
X117298529Y-53985000D01*
X118398529Y-55085000D02*
X160082942Y-55085000D01*
X160082942Y-55085000D02*
X173580000Y-68582058D01*
X174380000Y-71185000D02*
X174280000Y-71185000D01*
%TO.N,Net-(DG452_3-D_3)*%
X174380000Y-69185000D02*
X174280000Y-69185000D01*
X160248628Y-54685000D02*
X174380000Y-68816372D01*
X122880000Y-54685000D02*
X160248628Y-54685000D01*
X122080000Y-53885000D02*
X122880000Y-54685000D01*
X174380000Y-68816372D02*
X174380000Y-69185000D01*
%TO.N,Net-(DG452_3-D_4)*%
X173180000Y-68747744D02*
X173180000Y-69399215D01*
X122080000Y-58785000D02*
X125380000Y-55485000D01*
X159917256Y-55485000D02*
X173180000Y-68747744D01*
X173780000Y-72685000D02*
X174380000Y-73285000D01*
X173180000Y-69399215D02*
X173780000Y-69999215D01*
X173780000Y-69999215D02*
X173780000Y-72685000D01*
X174480000Y-73285000D02*
X174480000Y-73285000D01*
X125380000Y-55485000D02*
X159917256Y-55485000D01*
X174380000Y-73285000D02*
X174480000Y-73285000D01*
%TO.N,Net-(DG452_3-S_1)*%
X173380000Y-74285000D02*
X174280000Y-75185000D01*
X172780000Y-69564901D02*
X173380000Y-70164901D01*
X126480000Y-55885000D02*
X159751570Y-55885000D01*
X117580000Y-59385000D02*
X122980000Y-59385000D01*
X173380000Y-70164901D02*
X173380000Y-74285000D01*
X159751570Y-55885000D02*
X172780000Y-68913430D01*
X122980000Y-59385000D02*
X126480000Y-55885000D01*
X172780000Y-68913430D02*
X172780000Y-69564901D01*
X116980000Y-58785000D02*
X117580000Y-59385000D01*
%TO.N,Net-(J2-Pin_9)*%
X51205000Y-47170000D02*
X52760000Y-48725000D01*
X44754766Y-39326765D02*
X51205000Y-45776999D01*
X51205000Y-45776999D02*
X51205000Y-47170000D01*
X28200000Y-40200000D02*
X29073235Y-39326765D01*
X29073235Y-39326765D02*
X44754766Y-39326765D01*
%TD*%
M02*
