%TF.GenerationSoftware,KiCad,Pcbnew,8.0.3-1.fc40*%
%TF.CreationDate,2024-06-20T14:07:13-04:00*%
%TF.ProjectId,sensor_bar_unified_muxing_1,73656e73-6f72-45f6-9261-725f756e6966,rev?*%
%TF.SameCoordinates,Original*%
%TF.FileFunction,Copper,L2,Inr*%
%TF.FilePolarity,Positive*%
%FSLAX46Y46*%
G04 Gerber Fmt 4.6, Leading zero omitted, Abs format (unit mm)*
G04 Created by KiCad (PCBNEW 8.0.3-1.fc40) date 2024-06-20 14:07:13*
%MOMM*%
%LPD*%
G01*
G04 APERTURE LIST*
%TA.AperFunction,ComponentPad*%
%ADD10R,1.500000X1.500000*%
%TD*%
%TA.AperFunction,ComponentPad*%
%ADD11C,1.500000*%
%TD*%
%TA.AperFunction,ComponentPad*%
%ADD12R,1.170000X1.170000*%
%TD*%
%TA.AperFunction,ComponentPad*%
%ADD13C,1.170000*%
%TD*%
%TA.AperFunction,ComponentPad*%
%ADD14R,1.370000X1.370000*%
%TD*%
%TA.AperFunction,ComponentPad*%
%ADD15C,1.370000*%
%TD*%
%TA.AperFunction,ComponentPad*%
%ADD16R,1.600000X1.600000*%
%TD*%
%TA.AperFunction,ComponentPad*%
%ADD17C,1.600000*%
%TD*%
%TA.AperFunction,ComponentPad*%
%ADD18R,1.300000X1.300000*%
%TD*%
%TA.AperFunction,ComponentPad*%
%ADD19C,1.300000*%
%TD*%
%TA.AperFunction,ViaPad*%
%ADD20C,0.600000*%
%TD*%
%TA.AperFunction,Conductor*%
%ADD21C,0.200000*%
%TD*%
G04 APERTURE END LIST*
D10*
%TO.N,Net-(BOARDSEL_CMP1-VCC)*%
%TO.C,U16*%
X221340000Y-18385000D03*
D11*
%TO.N,GND*%
X223880000Y-18385000D03*
%TO.N,Net-(JP11-B)*%
X226420000Y-18385000D03*
%TD*%
D12*
%TO.N,Net-(BOARDSEL_CMP1-1Y)*%
%TO.C,BOARDSEL_ENABLE1*%
X149560000Y-97305000D03*
D13*
%TO.N,Net-(BOARDSEL_CMP1-2Y)*%
X149560000Y-94765000D03*
%TO.N,N/C*%
X149560000Y-92225000D03*
%TO.N,Net-(BOARDSEL_CMP1-3Y)*%
X149560000Y-89685000D03*
%TO.N,Net-(BOARDSEL_CMP1-4Y)*%
X149560000Y-87145000D03*
%TO.N,Net-(BOARDSEL_ENABLE1-1Y)*%
X149560000Y-84605000D03*
%TO.N,GND*%
X149560000Y-82065000D03*
%TO.N,unconnected-(BOARDSEL_ENABLE1-2Y-Pad8)*%
X141620000Y-82065000D03*
%TO.N,unconnected-(BOARDSEL_ENABLE1-2A-Pad9)*%
X141620000Y-84605000D03*
%TO.N,unconnected-(BOARDSEL_ENABLE1-2B-Pad10)*%
X141620000Y-87145000D03*
%TO.N,N/C*%
X141620000Y-89685000D03*
%TO.N,unconnected-(BOARDSEL_ENABLE1-2C-Pad12)*%
X141620000Y-92225000D03*
%TO.N,unconnected-(BOARDSEL_ENABLE1-2D-Pad13)*%
X141620000Y-94765000D03*
%TO.N,Net-(BOARDSEL_CMP1-VCC)*%
X141620000Y-97305000D03*
%TD*%
D10*
%TO.N,Net-(BOARDSEL_CMP1-VCC)*%
%TO.C,U13*%
X179340000Y-18345000D03*
D11*
%TO.N,GND*%
X181880000Y-18345000D03*
%TO.N,Net-(JP14-B)*%
X184420000Y-18345000D03*
%TD*%
D10*
%TO.N,Net-(BOARDSEL_CMP1-VCC)*%
%TO.C,U15*%
X207340000Y-18185000D03*
D11*
%TO.N,GND*%
X209880000Y-18185000D03*
%TO.N,Net-(JP12-B)*%
X212420000Y-18185000D03*
%TD*%
D10*
%TO.N,Net-(BOARDSEL_CMP1-VCC)*%
%TO.C,U9*%
X123340000Y-18485000D03*
D11*
%TO.N,GND*%
X125880000Y-18485000D03*
%TO.N,Net-(JP18-B)*%
X128420000Y-18485000D03*
%TD*%
D10*
%TO.N,Net-(BOARDSEL_CMP1-VCC)*%
%TO.C,U19*%
X263340000Y-18185000D03*
D11*
%TO.N,GND*%
X265880000Y-18185000D03*
%TO.N,Net-(JP26-B)*%
X268420000Y-18185000D03*
%TD*%
D10*
%TO.N,Net-(BOARDSEL_CMP1-VCC)*%
%TO.C,U10*%
X137340000Y-18185000D03*
D11*
%TO.N,GND*%
X139880000Y-18185000D03*
%TO.N,Net-(JP17-B)*%
X142420000Y-18185000D03*
%TD*%
D10*
%TO.N,Net-(BOARDSEL_CMP1-VCC)*%
%TO.C,U7*%
X95340000Y-18485000D03*
D11*
%TO.N,GND*%
X97880000Y-18485000D03*
%TO.N,Net-(JP20-B)*%
X100420000Y-18485000D03*
%TD*%
D10*
%TO.N,Net-(BOARDSEL_CMP1-VCC)*%
%TO.C,U11*%
X151340000Y-18345000D03*
D11*
%TO.N,GND*%
X153880000Y-18345000D03*
%TO.N,Net-(JP16-B)*%
X156420000Y-18345000D03*
%TD*%
D10*
%TO.N,Net-(BOARDSEL_CMP1-VCC)*%
%TO.C,U8*%
X109340000Y-18385000D03*
D11*
%TO.N,GND*%
X111880000Y-18385000D03*
%TO.N,Net-(JP19-B)*%
X114420000Y-18385000D03*
%TD*%
D10*
%TO.N,Net-(BOARDSEL_CMP1-VCC)*%
%TO.C,U6*%
X81340000Y-18345000D03*
D11*
%TO.N,GND*%
X83880000Y-18345000D03*
%TO.N,Net-(JP21-B)*%
X86420000Y-18345000D03*
%TD*%
D10*
%TO.N,Net-(BOARDSEL_CMP1-VCC)*%
%TO.C,U17*%
X235340000Y-18385000D03*
D11*
%TO.N,GND*%
X237880000Y-18385000D03*
%TO.N,Net-(JP10-B)*%
X240420000Y-18385000D03*
%TD*%
D10*
%TO.N,Net-(BOARDSEL_CMP1-VCC)*%
%TO.C,U18*%
X249340000Y-18485000D03*
D11*
%TO.N,GND*%
X251880000Y-18485000D03*
%TO.N,Net-(JP25-B)*%
X254420000Y-18485000D03*
%TD*%
D10*
%TO.N,Net-(BOARDSEL_CMP1-VCC)*%
%TO.C,U12*%
X165340000Y-18145000D03*
D11*
%TO.N,GND*%
X167880000Y-18145000D03*
%TO.N,Net-(JP15-B)*%
X170420000Y-18145000D03*
%TD*%
D10*
%TO.N,Net-(BOARDSEL_CMP1-VCC)*%
%TO.C,U3*%
X39340000Y-18545000D03*
D11*
%TO.N,GND*%
X41880000Y-18545000D03*
%TO.N,Net-(JP46-B)*%
X44420000Y-18545000D03*
%TD*%
D10*
%TO.N,Net-(BOARDSEL_CMP1-VCC)*%
%TO.C,U5*%
X67340000Y-18145000D03*
D11*
%TO.N,GND*%
X69880000Y-18145000D03*
%TO.N,Net-(JP22-B)*%
X72420000Y-18145000D03*
%TD*%
D10*
%TO.N,Net-(BOARDSEL_CMP1-VCC)*%
%TO.C,U2*%
X25440000Y-17845000D03*
D11*
%TO.N,GND*%
X27980000Y-17845000D03*
%TO.N,Net-(JP47-B)*%
X30520000Y-17845000D03*
%TD*%
D14*
%TO.N,Net-(BOARDSEL_CMP1-1A)*%
%TO.C,interboard connect*%
X32440000Y-48725000D03*
D15*
%TO.N,Net-(DG452_0-S_1)*%
X32440000Y-46185000D03*
%TO.N,Net-(BOARDSEL_CMP1-2A)*%
X34980000Y-48725000D03*
%TO.N,Net-(DG452_0-D_4)*%
X34980000Y-46185000D03*
%TO.N,Net-(BOARDSEL_CMP1-3A)*%
X37520000Y-48725000D03*
%TO.N,Net-(DG452_0-S_2)*%
X37520000Y-46185000D03*
%TO.N,Net-(BOARDSEL_CMP1-4A)*%
X40060000Y-48725000D03*
%TO.N,Net-(DG452_0-D_3)*%
X40060000Y-46185000D03*
%TO.N,unconnected-(J1-Pad09)*%
X42600000Y-48725000D03*
%TO.N,Net-(DG452_1-S_1)*%
X42600000Y-46185000D03*
%TO.N,unconnected-(J1-Pad11)*%
X45140000Y-48725000D03*
%TO.N,Net-(DG452_1-D_4)*%
X45140000Y-46185000D03*
%TO.N,unconnected-(J1-Pad13)*%
X47680000Y-48725000D03*
%TO.N,Net-(DG452_1-S_2)*%
X47680000Y-46185000D03*
%TO.N,unconnected-(J1-Pad15)*%
X50220000Y-48725000D03*
%TO.N,Net-(DG452_1-D_3)*%
X50220000Y-46185000D03*
%TO.N,Net-(J2-Pin_9)*%
X52760000Y-48725000D03*
%TO.N,Net-(DG452_2-S_1)*%
X52760000Y-46185000D03*
%TO.N,unconnected-(J1-Pad19)*%
X55300000Y-48725000D03*
%TO.N,Net-(DG452_2-D_4)*%
X55300000Y-46185000D03*
%TO.N,unconnected-(J1-Pad21)*%
X57840000Y-48725000D03*
%TO.N,Net-(DG452_2-S_2)*%
X57840000Y-46185000D03*
%TO.N,unconnected-(J1-Pad23)*%
X60380000Y-48725000D03*
%TO.N,Net-(DG452_2-D_3)*%
X60380000Y-46185000D03*
%TO.N,unconnected-(J1-Pad25)*%
X62920000Y-48725000D03*
%TO.N,Net-(DG452_3-S_1)*%
X62920000Y-46185000D03*
%TO.N,unconnected-(J1-Pad27)*%
X65460000Y-48725000D03*
%TO.N,Net-(DG452_3-D_4)*%
X65460000Y-46185000D03*
%TO.N,Net-(BOARDSEL_CMP1-VCC)*%
X68000000Y-48725000D03*
%TO.N,Net-(DG452_3-S_2)*%
X68000000Y-46185000D03*
%TO.N,unconnected-(J1-Pad31)*%
X70540000Y-48725000D03*
%TO.N,Net-(DG452_3-D_3)*%
X70540000Y-46185000D03*
%TO.N,unconnected-(J1-Pad33)*%
X73080000Y-48725000D03*
%TO.N,Net-(DG45_4-S_1)*%
X73080000Y-46185000D03*
%TO.N,unconnected-(J1-Pad35)*%
X75620000Y-48725000D03*
%TO.N,Net-(DG45_4-D_4)*%
X75620000Y-46185000D03*
%TO.N,unconnected-(J1-Pad37)*%
X78160000Y-48725000D03*
%TO.N,unconnected-(J1-Pad38)*%
X78160000Y-46185000D03*
%TO.N,unconnected-(J1-Pad39)*%
X80700000Y-48725000D03*
%TO.N,GND*%
X80700000Y-46185000D03*
%TD*%
D16*
%TO.N,unconnected-(U1-GND-Pad1)*%
%TO.C,U1*%
X29470000Y-90805000D03*
D17*
%TO.N,Net-(BOARDSEL_CMP1-1A)*%
X32010000Y-90805000D03*
%TO.N,Net-(BOARDSEL_CMP1-2A)*%
X34550000Y-90805000D03*
%TO.N,Net-(BOARDSEL_CMP1-3A)*%
X37090000Y-90805000D03*
%TO.N,Net-(BOARDSEL_CMP1-4A)*%
X39630000Y-90805000D03*
%TO.N,unconnected-(U1-4_BCLK2-Pad6)*%
X42170000Y-90805000D03*
%TO.N,unconnected-(U1-5_IN2-Pad7)*%
X44710000Y-90805000D03*
%TO.N,unconnected-(U1-6_OUT1D-Pad8)*%
X47250000Y-90805000D03*
%TO.N,unconnected-(U1-7_RX2_OUT1A-Pad9)*%
X49790000Y-90805000D03*
%TO.N,unconnected-(U1-8_TX2_IN1-Pad10)*%
X52330000Y-90805000D03*
%TO.N,unconnected-(U1-9_OUT1C-Pad11)*%
X54870000Y-90805000D03*
%TO.N,unconnected-(U1-10_CS_MQSR-Pad12)*%
X57410000Y-90805000D03*
%TO.N,unconnected-(U1-11_MOSI_CTX1-Pad13)*%
X59950000Y-90805000D03*
%TO.N,unconnected-(U1-12_MISO_MQSL-Pad14)*%
X62490000Y-90805000D03*
%TO.N,unconnected-(U1-3V3-Pad15)*%
X65030000Y-90805000D03*
%TO.N,Net-(DG452_0-S_1)*%
X67570000Y-90805000D03*
%TO.N,Net-(DG452_0-D_4)*%
X70110000Y-90805000D03*
%TO.N,Net-(DG452_0-S_2)*%
X72650000Y-90805000D03*
%TO.N,Net-(DG452_0-D_3)*%
X75190000Y-90805000D03*
%TO.N,unconnected-(U1-28_RX7-Pad20)*%
X77730000Y-90805000D03*
%TO.N,unconnected-(U1-29_TX7-Pad21)*%
X80270000Y-90805000D03*
%TO.N,unconnected-(U1-30_CRX3-Pad22)*%
X82810000Y-90805000D03*
%TO.N,unconnected-(U1-31_CTX3-Pad23)*%
X85350000Y-90805000D03*
%TO.N,unconnected-(U1-32_OUT1B-Pad24)*%
X87890000Y-90805000D03*
%TO.N,unconnected-(U1-33_MCLK2-Pad25)*%
X87890000Y-75565000D03*
%TO.N,unconnected-(U1-34_RX8-Pad26)*%
X85350000Y-75565000D03*
%TO.N,unconnected-(U1-35_TX8-Pad27)*%
X82810000Y-75565000D03*
%TO.N,unconnected-(U1-36_CS-Pad28)*%
X80270000Y-75565000D03*
%TO.N,unconnected-(U1-37_CS-Pad29)*%
X77730000Y-75565000D03*
%TO.N,Net-(DG452_1-D_3)*%
X75190000Y-75565000D03*
%TO.N,Net-(DG452_1-S_2)*%
X72650000Y-75565000D03*
%TO.N,Net-(DG452_1-D_4)*%
X70110000Y-75565000D03*
%TO.N,Net-(DG452_1-S_1)*%
X67570000Y-75565000D03*
%TO.N,unconnected-(U1-GND-Pad34)*%
X65030000Y-75565000D03*
%TO.N,unconnected-(U1-13_SCK_LED-Pad35)*%
X62490000Y-75565000D03*
%TO.N,Net-(DG45_4-D_4)*%
X59950000Y-75565000D03*
%TO.N,Net-(DG45_4-S_1)*%
X57410000Y-75565000D03*
%TO.N,Net-(DG452_3-D_3)*%
X54870000Y-75565000D03*
%TO.N,Net-(DG452_3-S_2)*%
X52330000Y-75565000D03*
%TO.N,Net-(DG452_3-D_4)*%
X49790000Y-75565000D03*
%TO.N,Net-(DG452_3-S_1)*%
X47250000Y-75565000D03*
%TO.N,Net-(DG452_2-D_3)*%
X44710000Y-75565000D03*
%TO.N,Net-(DG452_2-S_2)*%
X42170000Y-75565000D03*
%TO.N,Net-(DG452_2-D_4)*%
X39630000Y-75565000D03*
%TO.N,Net-(DG452_2-S_1)*%
X37090000Y-75565000D03*
%TO.N,Net-(BOARDSEL_CMP1-VCC)*%
X34550000Y-75565000D03*
%TO.N,GND*%
X32010000Y-75565000D03*
%TO.N,Net-(JP23-B)*%
X29470000Y-75565000D03*
%TO.N,unconnected-(U1-VUSB-Pad49)*%
X32010000Y-78105000D03*
%TO.N,unconnected-(U1-VBAT-Pad50)*%
X75190000Y-88265000D03*
%TO.N,unconnected-(U1-3V3-Pad51)*%
X75190000Y-85725000D03*
%TO.N,unconnected-(U1-GND-Pad52)*%
X75190000Y-83185000D03*
%TO.N,unconnected-(U1-PROGRAM-Pad53)*%
X75190000Y-80645000D03*
%TO.N,unconnected-(U1-ON_OFF-Pad54)*%
X75190000Y-78105000D03*
D16*
%TO.N,unconnected-(U1-5V-Pad55)*%
X35769200Y-87754200D03*
D17*
%TO.N,unconnected-(U1-D--Pad56)*%
X38309200Y-87754200D03*
%TO.N,unconnected-(U1-D+-Pad57)*%
X40849200Y-87754200D03*
%TO.N,unconnected-(U1-GND-Pad58)*%
X43389200Y-87754200D03*
%TO.N,unconnected-(U1-GND-Pad59)*%
X45929200Y-87754200D03*
D18*
%TO.N,unconnected-(U1-R+-Pad60)*%
X42440000Y-78003400D03*
D19*
%TO.N,unconnected-(U1-LED-Pad61)*%
X42440000Y-80003400D03*
%TO.N,unconnected-(U1-T--Pad62)*%
X42440000Y-82003400D03*
%TO.N,unconnected-(U1-T+-Pad63)*%
X44440000Y-82003400D03*
%TO.N,unconnected-(U1-GND-Pad64)*%
X44440000Y-80003400D03*
%TO.N,unconnected-(U1-R--Pad65)*%
X44440000Y-78003400D03*
%TO.N,unconnected-(U1-D--Pad66)*%
X30200000Y-81915000D03*
%TO.N,unconnected-(U1-D+-Pad67)*%
X30200000Y-84455000D03*
%TD*%
D12*
%TO.N,Net-(BOARDSEL_CMP1-1A)*%
%TO.C,BOARDSEL_CMP1*%
X161620000Y-97345000D03*
D13*
%TO.N,Net-(BOARDSEL_CMP1-1B)*%
X161620000Y-94805000D03*
%TO.N,Net-(BOARDSEL_CMP1-1Y)*%
X161620000Y-92265000D03*
%TO.N,Net-(BOARDSEL_CMP1-2Y)*%
X161620000Y-89725000D03*
%TO.N,Net-(BOARDSEL_CMP1-2A)*%
X161620000Y-87185000D03*
%TO.N,Net-(BOARDSEL_CMP1-2B)*%
X161620000Y-84645000D03*
%TO.N,GND*%
X161620000Y-82105000D03*
%TO.N,Net-(BOARDSEL_CMP1-3A)*%
X153680000Y-82105000D03*
%TO.N,Net-(BOARDSEL_CMP1-3B)*%
X153680000Y-84645000D03*
%TO.N,Net-(BOARDSEL_CMP1-3Y)*%
X153680000Y-87185000D03*
%TO.N,Net-(BOARDSEL_CMP1-4Y)*%
X153680000Y-89725000D03*
%TO.N,Net-(BOARDSEL_CMP1-4A)*%
X153680000Y-92265000D03*
%TO.N,Net-(BOARDSEL_CMP1-4B)*%
X153680000Y-94805000D03*
%TO.N,Net-(BOARDSEL_CMP1-VCC)*%
X153680000Y-97345000D03*
%TD*%
D10*
%TO.N,Net-(BOARDSEL_CMP1-VCC)*%
%TO.C,U14*%
X193340000Y-18185000D03*
D11*
%TO.N,GND*%
X195880000Y-18185000D03*
%TO.N,Net-(JP13-B)*%
X198420000Y-18185000D03*
%TD*%
D10*
%TO.N,Net-(BOARDSEL_CMP1-VCC)*%
%TO.C,U4*%
X53340000Y-18145000D03*
D11*
%TO.N,GND*%
X55880000Y-18145000D03*
%TO.N,Net-(JP45-B)*%
X58420000Y-18145000D03*
%TD*%
D20*
%TO.N,Net-(BOARDSEL_CMP1-3B)*%
X134380000Y-89085000D03*
%TO.N,Net-(BOARDSEL_CMP1-4A)*%
X172680000Y-37285000D03*
%TO.N,Net-(BOARDSEL_CMP1-2A)*%
X172680000Y-41285000D03*
%TO.N,Net-(BOARDSEL_CMP1-4B)*%
X134380000Y-84885000D03*
%TO.N,Net-(BOARDSEL_CMP1-1A)*%
X172680000Y-43285000D03*
%TO.N,Net-(BOARDSEL_CMP1-1B)*%
X134380000Y-98285000D03*
%TO.N,Net-(BOARDSEL_CMP1-2B)*%
X134380000Y-93485000D03*
%TO.N,GND*%
X146000000Y-37400000D03*
X146000000Y-34600000D03*
X28959852Y-37313382D03*
X118300000Y-68335000D03*
X118300000Y-55835000D03*
X146000000Y-31800000D03*
X146000000Y-25600000D03*
X118300000Y-92835000D03*
X171580000Y-47285000D03*
X118400000Y-44235000D03*
X146000000Y-28700000D03*
X130680000Y-91685000D03*
X118300000Y-80735000D03*
X130680000Y-83185000D03*
X130680000Y-96685000D03*
X130680000Y-87185000D03*
X146000000Y-40200000D03*
X31573235Y-39926765D03*
%TO.N,Net-(BOARDSEL_CMP1-VCC)*%
X31600910Y-40726288D03*
X119500000Y-91235000D03*
X172680000Y-59285000D03*
X137980000Y-83185000D03*
X119600000Y-42735000D03*
X137980000Y-87085000D03*
X137980000Y-96685000D03*
X119600000Y-54135000D03*
X137980000Y-91685000D03*
X119600000Y-79135000D03*
X28000000Y-45900000D03*
X119600000Y-66535000D03*
%TO.N,Net-(BOARDSEL_CMP1-3A)*%
X172680000Y-39285000D03*
%TO.N,Net-(BOARDSEL_ENABLE1-1Y)*%
X113580000Y-40985000D03*
X113580000Y-89585000D03*
X123380000Y-39285000D03*
X113480000Y-57385000D03*
X113580000Y-82385000D03*
X113580000Y-64985000D03*
X113580000Y-77485000D03*
X113480000Y-52385000D03*
X113580000Y-69885000D03*
X113580000Y-94485000D03*
X113580000Y-45885000D03*
%TO.N,Net-(DG45_4-S_1)*%
X87480000Y-65985000D03*
X174380000Y-67285000D03*
X117080000Y-47385000D03*
X74080000Y-52585000D03*
%TO.N,Net-(DG45_4-D_4)*%
X88080000Y-65385000D03*
X76580000Y-52585000D03*
X174380000Y-65285000D03*
X122180000Y-47385000D03*
%TO.N,Net-(DG452_0-D_3)*%
X77980000Y-71185000D03*
X41080000Y-52285000D03*
X122080000Y-88185000D03*
X174380000Y-93185000D03*
%TO.N,Net-(DG452_0-D_4)*%
X76484322Y-71985000D03*
X122080000Y-95985000D03*
X35980000Y-52285000D03*
X174380000Y-97285000D03*
%TO.N,Net-(DG452_0-S_1)*%
X33980000Y-52285000D03*
X174380000Y-99285000D03*
X117080000Y-95885000D03*
X75780000Y-72385000D03*
%TO.N,Net-(DG452_0-S_2)*%
X38480000Y-52285000D03*
X117080000Y-88185000D03*
X174380000Y-95185000D03*
X77279997Y-71585000D03*
%TO.N,Net-(DG452_1-D_4)*%
X79410853Y-70385000D03*
X122080000Y-83985000D03*
X46180000Y-52385000D03*
X174380000Y-89085000D03*
%TO.N,Net-(DG452_1-S_1)*%
X117080000Y-83985000D03*
X174380000Y-91185000D03*
X43580000Y-52285000D03*
X78710850Y-70785000D03*
%TO.N,Net-(DG452_1-S_2)*%
X174380000Y-87185000D03*
X48680000Y-52385000D03*
X80210239Y-70032000D03*
X117080000Y-75985000D03*
%TO.N,Net-(DG452_1-D_3)*%
X80873710Y-69585000D03*
X122180000Y-75985000D03*
X51280000Y-52385000D03*
X174380000Y-85185000D03*
%TO.N,Net-(DG452_2-D_3)*%
X122180000Y-66485000D03*
X83928856Y-67985000D03*
X61380000Y-52485000D03*
X174380000Y-77285000D03*
%TO.N,Net-(DG452_2-S_2)*%
X174380000Y-79285000D03*
X117080000Y-66485000D03*
X83128853Y-68385000D03*
X58880000Y-52485000D03*
%TO.N,Net-(DG452_2-D_4)*%
X56280000Y-52485000D03*
X82390558Y-68785000D03*
X174380000Y-81385000D03*
X122180000Y-71385000D03*
%TO.N,Net-(DG452_2-S_1)*%
X53780000Y-52485000D03*
X174380000Y-83285000D03*
X81645669Y-69185000D03*
X117080000Y-71285000D03*
%TO.N,Net-(DG452_3-S_2)*%
X86149499Y-66888263D03*
X68980000Y-52485000D03*
X116980000Y-53985000D03*
X174380000Y-71185000D03*
%TO.N,Net-(DG452_3-D_3)*%
X122080000Y-53885000D03*
X86817278Y-66447722D03*
X174380000Y-69185000D03*
X71580000Y-52585000D03*
%TO.N,Net-(DG452_3-D_4)*%
X122080000Y-58785000D03*
X174380000Y-73285000D03*
X85364651Y-67185000D03*
X66480000Y-52485000D03*
%TO.N,Net-(DG452_3-S_1)*%
X116980000Y-58785000D03*
X174380000Y-75285000D03*
X63880000Y-52485000D03*
X84632310Y-67585000D03*
%TO.N,Net-(JP10-B)*%
X70280000Y-28085000D03*
%TO.N,Net-(JP11-B)*%
X67780000Y-28085000D03*
%TO.N,Net-(JP12-B)*%
X65280000Y-28085000D03*
%TO.N,Net-(JP13-B)*%
X62780000Y-28085000D03*
%TO.N,Net-(JP14-B)*%
X60280000Y-28085000D03*
%TO.N,Net-(JP15-B)*%
X57780000Y-28085000D03*
%TO.N,Net-(JP16-B)*%
X55280000Y-28085000D03*
%TO.N,Net-(JP17-B)*%
X52780000Y-28085000D03*
%TO.N,Net-(JP18-B)*%
X50280000Y-28085000D03*
%TO.N,Net-(JP19-B)*%
X47780000Y-28085000D03*
%TO.N,Net-(JP20-B)*%
X45280000Y-28085000D03*
%TO.N,Net-(JP21-B)*%
X42780000Y-28085000D03*
%TO.N,Net-(JP22-B)*%
X40280000Y-28085000D03*
%TO.N,Net-(JP23-B)*%
X40500000Y-83400000D03*
%TO.N,Net-(JP45-B)*%
X37780000Y-28085000D03*
%TO.N,Net-(JP46-B)*%
X36280000Y-28085000D03*
%TO.N,Net-(JP47-B)*%
X34025000Y-28685000D03*
%TO.N,Net-(J2-Pin_9)*%
X172680000Y-53285000D03*
X28200000Y-40200000D03*
%TO.N,Net-(JP25-B)*%
X72780000Y-28085000D03*
%TO.N,Net-(JP26-B)*%
X75280000Y-28085000D03*
%TD*%
D21*
%TO.N,Net-(BOARDSEL_CMP1-4A)*%
X35854885Y-89305000D02*
X36257442Y-89707557D01*
X31649214Y-88747157D02*
X33623529Y-88747157D01*
X172680000Y-37285000D02*
X152795000Y-57170000D01*
X154565000Y-84270000D02*
X154565000Y-91380000D01*
X152795000Y-82500000D02*
X154565000Y-84270000D01*
X32411372Y-50885000D02*
X29570000Y-53726372D01*
X38530000Y-89705000D02*
X39630000Y-90805000D01*
X34181372Y-89305000D02*
X35854885Y-89305000D01*
X154565000Y-91380000D02*
X153680000Y-92265000D01*
X27380000Y-85687942D02*
X28494215Y-86802157D01*
X29704214Y-86802157D02*
X31649214Y-88747157D01*
X29570000Y-61692058D02*
X29335685Y-61926372D01*
X33857843Y-88981472D02*
X34181372Y-89305000D01*
X36259999Y-89705000D02*
X38530000Y-89705000D01*
X28494215Y-86802157D02*
X29704214Y-86802157D01*
X28900000Y-62362058D02*
X27380000Y-63882058D01*
X40060000Y-48725000D02*
X37900000Y-50885000D01*
X27380000Y-63882058D02*
X27380000Y-85687942D01*
X29570000Y-53726372D02*
X29570000Y-61692058D01*
X37900000Y-50885000D02*
X32411372Y-50885000D01*
X29335685Y-61926372D02*
X28900000Y-62362058D01*
X33623529Y-88747157D02*
X33857843Y-88981472D01*
X36257442Y-89707557D02*
X36259999Y-89705000D01*
X152795000Y-57170000D02*
X152795000Y-82500000D01*
%TO.N,Net-(BOARDSEL_CMP1-2A)*%
X28770000Y-61360686D02*
X26580000Y-63550686D01*
X26580000Y-63550686D02*
X26580000Y-86019314D01*
X33620000Y-50085000D02*
X32080000Y-50085000D01*
X34980000Y-48725000D02*
X33620000Y-50085000D01*
X26580000Y-86019314D02*
X28162843Y-87602157D01*
X154565000Y-80130000D02*
X161620000Y-87185000D01*
X172680000Y-41285000D02*
X154565000Y-59400000D01*
X154565000Y-59400000D02*
X154565000Y-80130000D01*
X32080000Y-50085000D02*
X28770000Y-53395000D01*
X28770000Y-53395000D02*
X28770000Y-61360686D01*
X28162843Y-87602157D02*
X29372842Y-87602157D01*
X31317842Y-89547157D02*
X33292157Y-89547157D01*
X29372842Y-87602157D02*
X31317842Y-89547157D01*
X33292157Y-89547157D02*
X34550000Y-90805000D01*
%TO.N,Net-(BOARDSEL_CMP1-1A)*%
X28370000Y-52795000D02*
X28370000Y-61195000D01*
X162505000Y-96460000D02*
X161620000Y-97345000D01*
X26180000Y-86185000D02*
X27997157Y-88002157D01*
X28370000Y-61195000D02*
X26180000Y-63385000D01*
X172680000Y-48585000D02*
X162505000Y-58760000D01*
X27997157Y-88002157D02*
X29207157Y-88002157D01*
X26180000Y-63385000D02*
X26180000Y-86185000D01*
X29207157Y-88002157D02*
X32010000Y-90805000D01*
X172680000Y-43285000D02*
X172680000Y-48585000D01*
X32440000Y-48725000D02*
X28370000Y-52795000D01*
X162505000Y-58760000D02*
X162505000Y-96460000D01*
%TO.N,Net-(BOARDSEL_CMP1-4Y)*%
X151100000Y-87145000D02*
X153680000Y-89725000D01*
X149560000Y-87145000D02*
X151100000Y-87145000D01*
%TO.N,GND*%
X118300000Y-44335000D02*
X118400000Y-44235000D01*
%TO.N,Net-(BOARDSEL_CMP1-VCC)*%
X26680000Y-19450000D02*
X26680000Y-20185000D01*
X179340000Y-17245000D02*
X178780000Y-16685000D01*
X94689200Y-84294200D02*
X43279200Y-84294200D01*
X122580000Y-16685000D02*
X136180000Y-16685000D01*
X119600000Y-79135000D02*
X111830000Y-79135000D01*
X110580000Y-92685000D02*
X110580000Y-98385000D01*
X248530000Y-16835000D02*
X248680000Y-16685000D01*
X139680000Y-99085000D02*
X151880000Y-99085000D01*
X34550000Y-75565000D02*
X34550000Y-69963529D01*
X111830000Y-79135000D02*
X110580000Y-80385000D01*
X26680000Y-27185000D02*
X26680000Y-26885000D01*
X164680000Y-16685000D02*
X178180000Y-16685000D01*
X27180000Y-16685000D02*
X38180000Y-16685000D01*
X30200000Y-40700000D02*
X31574622Y-40700000D01*
X38180000Y-16685000D02*
X39340000Y-17845000D01*
X136180000Y-16685000D02*
X136680000Y-16685000D01*
X221340000Y-17445000D02*
X220580000Y-16685000D01*
X123340000Y-17445000D02*
X122580000Y-16685000D01*
X139840000Y-99085000D02*
X139680000Y-99085000D01*
X151880000Y-99085000D02*
X152080000Y-98885000D01*
X168480000Y-21285000D02*
X165340000Y-18145000D01*
X29300000Y-40700000D02*
X30200000Y-40700000D01*
X123340000Y-18485000D02*
X123340000Y-17445000D01*
X112030000Y-91235000D02*
X110580000Y-92685000D01*
X67340000Y-17445000D02*
X66580000Y-16685000D01*
X192780000Y-16685000D02*
X205680000Y-16685000D01*
X152080000Y-98885000D02*
X152140000Y-98885000D01*
X119600000Y-42735000D02*
X112330000Y-42735000D01*
X220580000Y-16685000D02*
X234180000Y-16685000D01*
X137980000Y-87085000D02*
X137980000Y-83185000D01*
X168680000Y-21285000D02*
X168480000Y-21285000D01*
X164180000Y-16685000D02*
X164680000Y-16685000D01*
X26680000Y-20085000D02*
X25440000Y-18845000D01*
X66580000Y-16685000D02*
X79680000Y-16685000D01*
X248280000Y-16685000D02*
X248680000Y-16685000D01*
X205680000Y-16685000D02*
X206580000Y-16685000D01*
X165340000Y-18145000D02*
X165340000Y-17345000D01*
X39340000Y-17845000D02*
X39340000Y-18545000D01*
X79680000Y-16685000D02*
X80580000Y-16685000D01*
X263340000Y-18185000D02*
X263340000Y-17365000D01*
X119600000Y-66535000D02*
X119050000Y-67085000D01*
X235340000Y-17345000D02*
X234680000Y-16685000D01*
X38180000Y-16685000D02*
X51680000Y-16685000D01*
X168680000Y-21285000D02*
X154280000Y-21285000D01*
X178480000Y-16685000D02*
X191680000Y-16685000D01*
X141620000Y-97305000D02*
X139840000Y-99085000D01*
X152140000Y-98885000D02*
X153680000Y-97345000D01*
X67340000Y-18145000D02*
X67340000Y-17445000D01*
X119150000Y-54585000D02*
X112380000Y-54585000D01*
X94680000Y-16685000D02*
X108180000Y-16685000D01*
X165340000Y-17345000D02*
X164680000Y-16685000D01*
X172980000Y-21285000D02*
X168680000Y-21285000D01*
X137980000Y-97885000D02*
X137980000Y-87085000D01*
X110580000Y-80385000D02*
X110580000Y-92685000D01*
X31574622Y-40700000D02*
X31600910Y-40726288D01*
X136780000Y-99085000D02*
X137980000Y-97885000D01*
X193340000Y-17245000D02*
X192780000Y-16685000D01*
X108180000Y-16685000D02*
X108580000Y-16685000D01*
X112380000Y-54585000D02*
X110580000Y-56385000D01*
X81340000Y-17445000D02*
X80580000Y-16685000D01*
X249340000Y-17645000D02*
X248530000Y-16835000D01*
X137340000Y-17345000D02*
X136680000Y-16685000D01*
X221340000Y-18385000D02*
X221340000Y-17445000D01*
X110580000Y-56385000D02*
X110580000Y-68285000D01*
X109880000Y-99085000D02*
X109480000Y-99085000D01*
X235180000Y-16685000D02*
X248280000Y-16685000D01*
X53340000Y-17885000D02*
X52210000Y-16755000D01*
X26680000Y-37280000D02*
X26680000Y-26885000D01*
X193340000Y-18185000D02*
X193340000Y-17245000D01*
X95340000Y-17345000D02*
X94680000Y-16685000D01*
X207340000Y-18185000D02*
X207340000Y-17445000D01*
X26680000Y-17185000D02*
X27180000Y-16685000D01*
X206580000Y-16685000D02*
X219680000Y-16685000D01*
X52140000Y-16685000D02*
X51680000Y-16685000D01*
X53340000Y-18145000D02*
X53340000Y-17885000D01*
X154280000Y-21285000D02*
X151340000Y-18345000D01*
X28000000Y-45900000D02*
X28000000Y-42000000D01*
X80580000Y-16685000D02*
X94180000Y-16685000D01*
X110580000Y-44485000D02*
X110580000Y-56385000D01*
X119050000Y-67085000D02*
X111780000Y-67085000D01*
X54803529Y-49710000D02*
X67015000Y-49710000D01*
X122180000Y-16685000D02*
X122580000Y-16685000D01*
X136780000Y-99085000D02*
X139680000Y-99085000D01*
X234180000Y-16685000D02*
X234680000Y-16685000D01*
X66180000Y-16685000D02*
X66580000Y-16685000D01*
X219680000Y-16685000D02*
X220580000Y-16685000D01*
X111780000Y-67085000D02*
X110580000Y-68285000D01*
X26680000Y-37280000D02*
X30100000Y-40700000D01*
X191680000Y-16685000D02*
X192780000Y-16685000D01*
X119500000Y-91235000D02*
X112030000Y-91235000D01*
X95340000Y-18485000D02*
X95340000Y-17345000D01*
X178180000Y-16685000D02*
X178480000Y-16685000D01*
X67015000Y-49710000D02*
X68000000Y-48725000D01*
X30100000Y-40700000D02*
X30200000Y-40700000D01*
X43279200Y-84294200D02*
X34550000Y-75565000D01*
X263340000Y-17365000D02*
X262660000Y-16685000D01*
X110580000Y-98385000D02*
X109880000Y-99085000D01*
X136680000Y-16685000D02*
X150180000Y-16685000D01*
X173680000Y-58285000D02*
X173680000Y-24005000D01*
X248380000Y-16685000D02*
X248280000Y-16685000D01*
X151340000Y-17445000D02*
X150580000Y-16685000D01*
X110580000Y-68285000D02*
X110580000Y-80385000D01*
X109480000Y-99085000D02*
X94689200Y-84294200D01*
X248530000Y-16835000D02*
X248380000Y-16685000D01*
X94180000Y-16685000D02*
X94680000Y-16685000D01*
X26680000Y-26885000D02*
X26680000Y-17185000D01*
X137340000Y-18185000D02*
X137340000Y-17345000D01*
X25440000Y-18845000D02*
X25440000Y-17845000D01*
X109340000Y-17445000D02*
X108580000Y-16685000D01*
X262660000Y-16685000D02*
X248680000Y-16685000D01*
X173680000Y-21985000D02*
X172980000Y-21285000D01*
X34550000Y-69963529D02*
X54803529Y-49710000D01*
X119600000Y-54135000D02*
X119150000Y-54585000D01*
X81340000Y-18345000D02*
X81340000Y-17445000D01*
X151340000Y-18345000D02*
X151340000Y-17445000D01*
X119500000Y-42835000D02*
X119600000Y-42735000D01*
X173680000Y-24005000D02*
X173680000Y-21985000D01*
X178780000Y-16685000D02*
X178480000Y-16685000D01*
X235340000Y-18385000D02*
X235340000Y-17345000D01*
X51680000Y-16685000D02*
X66180000Y-16685000D01*
X150180000Y-16685000D02*
X150580000Y-16685000D01*
X108580000Y-16685000D02*
X122180000Y-16685000D01*
X26680000Y-20185000D02*
X26680000Y-20085000D01*
X173680000Y-24005000D02*
X179340000Y-18345000D01*
X109340000Y-18385000D02*
X109340000Y-17445000D01*
X150580000Y-16685000D02*
X164180000Y-16685000D01*
X109480000Y-99085000D02*
X136780000Y-99085000D01*
X207340000Y-17445000D02*
X206580000Y-16685000D01*
X172680000Y-59285000D02*
X173680000Y-58285000D01*
X52210000Y-16755000D02*
X52140000Y-16685000D01*
X249340000Y-18485000D02*
X249340000Y-17645000D01*
X234680000Y-16685000D02*
X235180000Y-16685000D01*
X26680000Y-20185000D02*
X26680000Y-27185000D01*
X112330000Y-42735000D02*
X110580000Y-44485000D01*
X179340000Y-18345000D02*
X179340000Y-17245000D01*
X28000000Y-42000000D02*
X29300000Y-40700000D01*
%TO.N,Net-(BOARDSEL_CMP1-3A)*%
X35689200Y-89705000D02*
X34015686Y-89705000D01*
X31483528Y-89147157D02*
X29538528Y-87202157D01*
X37090000Y-90805000D02*
X36789200Y-90805000D01*
X32245686Y-50485000D02*
X35760000Y-50485000D01*
X29170000Y-61526372D02*
X29170000Y-53560686D01*
X153680000Y-58285000D02*
X172680000Y-39285000D01*
X26980000Y-85853628D02*
X26980000Y-63716372D01*
X34015686Y-89705000D02*
X33457843Y-89147157D01*
X26980000Y-63716372D02*
X29170000Y-61526372D01*
X29170000Y-53560686D02*
X32245686Y-50485000D01*
X36789200Y-90805000D02*
X35689200Y-89705000D01*
X153680000Y-82105000D02*
X153680000Y-58285000D01*
X29538528Y-87202157D02*
X28328529Y-87202157D01*
X33457843Y-89147157D02*
X31483528Y-89147157D01*
X35760000Y-50485000D02*
X37520000Y-48725000D01*
X28328529Y-87202157D02*
X26980000Y-85853628D01*
%TO.N,Net-(DG45_4-S_1)*%
X74080000Y-52585000D02*
X57410000Y-69255000D01*
X57410000Y-69255000D02*
X57410000Y-75565000D01*
%TO.N,Net-(DG45_4-D_4)*%
X59950000Y-69215000D02*
X59950000Y-75565000D01*
X76580000Y-52585000D02*
X59950000Y-69215000D01*
%TO.N,Net-(DG452_2-D_3)*%
X61380000Y-52485000D02*
X44710000Y-69155000D01*
X44710000Y-69155000D02*
X44710000Y-75565000D01*
%TO.N,Net-(DG452_2-S_2)*%
X58880000Y-52485000D02*
X42170000Y-69195000D01*
X42170000Y-69195000D02*
X42170000Y-75565000D01*
%TO.N,Net-(DG452_2-D_4)*%
X56280000Y-52485000D02*
X39630000Y-69135000D01*
X39630000Y-69135000D02*
X39630000Y-75565000D01*
%TO.N,Net-(DG452_2-S_1)*%
X37090000Y-69175000D02*
X37090000Y-75565000D01*
X53780000Y-52485000D02*
X37090000Y-69175000D01*
%TO.N,Net-(DG452_3-S_2)*%
X68980000Y-52485000D02*
X52330000Y-69135000D01*
X52330000Y-69135000D02*
X52330000Y-75565000D01*
%TO.N,Net-(DG452_3-D_3)*%
X71580000Y-52585000D02*
X54870000Y-69295000D01*
X54870000Y-69295000D02*
X54870000Y-75565000D01*
%TO.N,Net-(DG452_3-D_4)*%
X49790000Y-69175000D02*
X49790000Y-75565000D01*
X66480000Y-52485000D02*
X49790000Y-69175000D01*
%TO.N,Net-(DG452_3-S_1)*%
X47250000Y-69115000D02*
X47250000Y-75565000D01*
X63880000Y-52485000D02*
X47250000Y-69115000D01*
%TO.N,Net-(JP23-B)*%
X30570000Y-76665000D02*
X29470000Y-75565000D01*
X40500000Y-83400000D02*
X33765000Y-76665000D01*
X33765000Y-76665000D02*
X30570000Y-76665000D01*
%TO.N,Net-(J2-Pin_9)*%
X173280000Y-52685000D02*
X173280000Y-37036471D01*
X172680000Y-53285000D02*
X173280000Y-52685000D01*
X173280000Y-37036471D02*
X171828529Y-35585000D01*
X92735000Y-35585000D02*
X80580000Y-47740000D01*
X171828529Y-35585000D02*
X92735000Y-35585000D01*
X53745000Y-47740000D02*
X52760000Y-48725000D01*
X80580000Y-47740000D02*
X53745000Y-47740000D01*
%TD*%
M02*
