%TF.GenerationSoftware,KiCad,Pcbnew,8.0.3-1.fc40*%
%TF.CreationDate,2024-06-20T14:07:15-04:00*%
%TF.ProjectId,sensor_bar_unified_muxing_1,73656e73-6f72-45f6-9261-725f756e6966,rev?*%
%TF.SameCoordinates,Original*%
%TF.FileFunction,Soldermask,Bot*%
%TF.FilePolarity,Negative*%
%FSLAX46Y46*%
G04 Gerber Fmt 4.6, Leading zero omitted, Abs format (unit mm)*
G04 Created by KiCad (PCBNEW 8.0.3-1.fc40) date 2024-06-20 14:07:15*
%MOMM*%
%LPD*%
G01*
G04 APERTURE LIST*
G04 Aperture macros list*
%AMRoundRect*
0 Rectangle with rounded corners*
0 $1 Rounding radius*
0 $2 $3 $4 $5 $6 $7 $8 $9 X,Y pos of 4 corners*
0 Add a 4 corners polygon primitive as box body*
4,1,4,$2,$3,$4,$5,$6,$7,$8,$9,$2,$3,0*
0 Add four circle primitives for the rounded corners*
1,1,$1+$1,$2,$3*
1,1,$1+$1,$4,$5*
1,1,$1+$1,$6,$7*
1,1,$1+$1,$8,$9*
0 Add four rect primitives between the rounded corners*
20,1,$1+$1,$2,$3,$4,$5,0*
20,1,$1+$1,$4,$5,$6,$7,0*
20,1,$1+$1,$6,$7,$8,$9,0*
20,1,$1+$1,$8,$9,$2,$3,0*%
%AMFreePoly0*
4,1,6,1.000000,0.000000,0.500000,-0.750000,-0.500000,-0.750000,-0.500000,0.750000,0.500000,0.750000,1.000000,0.000000,1.000000,0.000000,$1*%
%AMFreePoly1*
4,1,6,0.500000,-0.750000,-0.650000,-0.750000,-0.150000,0.000000,-0.650000,0.750000,0.500000,0.750000,0.500000,-0.750000,0.500000,-0.750000,$1*%
G04 Aperture macros list end*
%ADD10R,1.500000X1.500000*%
%ADD11C,1.500000*%
%ADD12RoundRect,0.102000X0.585000X0.585000X-0.585000X0.585000X-0.585000X-0.585000X0.585000X-0.585000X0*%
%ADD13C,1.374000*%
%ADD14RoundRect,0.102000X-0.685000X-0.685000X0.685000X-0.685000X0.685000X0.685000X-0.685000X0.685000X0*%
%ADD15C,1.574000*%
%ADD16R,1.600000X1.600000*%
%ADD17C,1.600000*%
%ADD18R,1.300000X1.300000*%
%ADD19C,1.300000*%
%ADD20FreePoly0,270.000000*%
%ADD21FreePoly1,270.000000*%
%ADD22FreePoly0,90.000000*%
%ADD23FreePoly1,90.000000*%
G04 APERTURE END LIST*
D10*
%TO.C,U16*%
X221340000Y-18385000D03*
D11*
X223880000Y-18385000D03*
X226420000Y-18385000D03*
%TD*%
D12*
%TO.C,BOARDSEL_ENABLE1*%
X149560000Y-97305000D03*
D13*
X149560000Y-94765000D03*
X149560000Y-92225000D03*
X149560000Y-89685000D03*
X149560000Y-87145000D03*
X149560000Y-84605000D03*
X149560000Y-82065000D03*
X141620000Y-82065000D03*
X141620000Y-84605000D03*
X141620000Y-87145000D03*
X141620000Y-89685000D03*
X141620000Y-92225000D03*
X141620000Y-94765000D03*
X141620000Y-97305000D03*
%TD*%
D10*
%TO.C,U13*%
X179340000Y-18345000D03*
D11*
X181880000Y-18345000D03*
X184420000Y-18345000D03*
%TD*%
D10*
%TO.C,U15*%
X207340000Y-18185000D03*
D11*
X209880000Y-18185000D03*
X212420000Y-18185000D03*
%TD*%
D10*
%TO.C,U9*%
X123340000Y-18485000D03*
D11*
X125880000Y-18485000D03*
X128420000Y-18485000D03*
%TD*%
D10*
%TO.C,U19*%
X263340000Y-18185000D03*
D11*
X265880000Y-18185000D03*
X268420000Y-18185000D03*
%TD*%
D10*
%TO.C,U10*%
X137340000Y-18185000D03*
D11*
X139880000Y-18185000D03*
X142420000Y-18185000D03*
%TD*%
D10*
%TO.C,U7*%
X95340000Y-18485000D03*
D11*
X97880000Y-18485000D03*
X100420000Y-18485000D03*
%TD*%
D10*
%TO.C,U11*%
X151340000Y-18345000D03*
D11*
X153880000Y-18345000D03*
X156420000Y-18345000D03*
%TD*%
D10*
%TO.C,U8*%
X109340000Y-18385000D03*
D11*
X111880000Y-18385000D03*
X114420000Y-18385000D03*
%TD*%
D10*
%TO.C,U6*%
X81340000Y-18345000D03*
D11*
X83880000Y-18345000D03*
X86420000Y-18345000D03*
%TD*%
D10*
%TO.C,U17*%
X235340000Y-18385000D03*
D11*
X237880000Y-18385000D03*
X240420000Y-18385000D03*
%TD*%
D10*
%TO.C,U18*%
X249340000Y-18485000D03*
D11*
X251880000Y-18485000D03*
X254420000Y-18485000D03*
%TD*%
D10*
%TO.C,U12*%
X165340000Y-18145000D03*
D11*
X167880000Y-18145000D03*
X170420000Y-18145000D03*
%TD*%
D10*
%TO.C,U3*%
X39340000Y-18545000D03*
D11*
X41880000Y-18545000D03*
X44420000Y-18545000D03*
%TD*%
D10*
%TO.C,U5*%
X67340000Y-18145000D03*
D11*
X69880000Y-18145000D03*
X72420000Y-18145000D03*
%TD*%
D10*
%TO.C,U2*%
X25440000Y-17845000D03*
D11*
X27980000Y-17845000D03*
X30520000Y-17845000D03*
%TD*%
D14*
%TO.C,interboard connect*%
X32440000Y-48725000D03*
D15*
X32440000Y-46185000D03*
X34980000Y-48725000D03*
X34980000Y-46185000D03*
X37520000Y-48725000D03*
X37520000Y-46185000D03*
X40060000Y-48725000D03*
X40060000Y-46185000D03*
X42600000Y-48725000D03*
X42600000Y-46185000D03*
X45140000Y-48725000D03*
X45140000Y-46185000D03*
X47680000Y-48725000D03*
X47680000Y-46185000D03*
X50220000Y-48725000D03*
X50220000Y-46185000D03*
X52760000Y-48725000D03*
X52760000Y-46185000D03*
X55300000Y-48725000D03*
X55300000Y-46185000D03*
X57840000Y-48725000D03*
X57840000Y-46185000D03*
X60380000Y-48725000D03*
X60380000Y-46185000D03*
X62920000Y-48725000D03*
X62920000Y-46185000D03*
X65460000Y-48725000D03*
X65460000Y-46185000D03*
X68000000Y-48725000D03*
X68000000Y-46185000D03*
X70540000Y-48725000D03*
X70540000Y-46185000D03*
X73080000Y-48725000D03*
X73080000Y-46185000D03*
X75620000Y-48725000D03*
X75620000Y-46185000D03*
X78160000Y-48725000D03*
X78160000Y-46185000D03*
X80700000Y-48725000D03*
X80700000Y-46185000D03*
%TD*%
D16*
%TO.C,U1*%
X29470000Y-90805000D03*
D17*
X32010000Y-90805000D03*
X34550000Y-90805000D03*
X37090000Y-90805000D03*
X39630000Y-90805000D03*
X42170000Y-90805000D03*
X44710000Y-90805000D03*
X47250000Y-90805000D03*
X49790000Y-90805000D03*
X52330000Y-90805000D03*
X54870000Y-90805000D03*
X57410000Y-90805000D03*
X59950000Y-90805000D03*
X62490000Y-90805000D03*
X65030000Y-90805000D03*
X67570000Y-90805000D03*
X70110000Y-90805000D03*
X72650000Y-90805000D03*
X75190000Y-90805000D03*
X77730000Y-90805000D03*
X80270000Y-90805000D03*
X82810000Y-90805000D03*
X85350000Y-90805000D03*
X87890000Y-90805000D03*
X87890000Y-75565000D03*
X85350000Y-75565000D03*
X82810000Y-75565000D03*
X80270000Y-75565000D03*
X77730000Y-75565000D03*
X75190000Y-75565000D03*
X72650000Y-75565000D03*
X70110000Y-75565000D03*
X67570000Y-75565000D03*
X65030000Y-75565000D03*
X62490000Y-75565000D03*
X59950000Y-75565000D03*
X57410000Y-75565000D03*
X54870000Y-75565000D03*
X52330000Y-75565000D03*
X49790000Y-75565000D03*
X47250000Y-75565000D03*
X44710000Y-75565000D03*
X42170000Y-75565000D03*
X39630000Y-75565000D03*
X37090000Y-75565000D03*
X34550000Y-75565000D03*
X32010000Y-75565000D03*
X29470000Y-75565000D03*
X32010000Y-78105000D03*
X75190000Y-88265000D03*
X75190000Y-85725000D03*
X75190000Y-83185000D03*
X75190000Y-80645000D03*
X75190000Y-78105000D03*
D16*
X35769200Y-87754200D03*
D17*
X38309200Y-87754200D03*
X40849200Y-87754200D03*
X43389200Y-87754200D03*
X45929200Y-87754200D03*
D18*
X42440000Y-78003400D03*
D19*
X42440000Y-80003400D03*
X42440000Y-82003400D03*
X44440000Y-82003400D03*
X44440000Y-80003400D03*
X44440000Y-78003400D03*
X30200000Y-81915000D03*
X30200000Y-84455000D03*
%TD*%
D12*
%TO.C,BOARDSEL_CMP1*%
X161620000Y-97345000D03*
D13*
X161620000Y-94805000D03*
X161620000Y-92265000D03*
X161620000Y-89725000D03*
X161620000Y-87185000D03*
X161620000Y-84645000D03*
X161620000Y-82105000D03*
X153680000Y-82105000D03*
X153680000Y-84645000D03*
X153680000Y-87185000D03*
X153680000Y-89725000D03*
X153680000Y-92265000D03*
X153680000Y-94805000D03*
X153680000Y-97345000D03*
%TD*%
D10*
%TO.C,U14*%
X193340000Y-18185000D03*
D11*
X195880000Y-18185000D03*
X198420000Y-18185000D03*
%TD*%
D10*
%TO.C,U4*%
X53340000Y-18145000D03*
D11*
X55880000Y-18145000D03*
X58420000Y-18145000D03*
%TD*%
D20*
%TO.C,JPE01*%
X32930000Y-53485000D03*
D21*
X32930000Y-54935000D03*
%TD*%
D20*
%TO.C,JPE15*%
X68180000Y-53460000D03*
D21*
X68180000Y-54910000D03*
%TD*%
D20*
%TO.C,JPE13*%
X63180000Y-53460000D03*
D21*
X63180000Y-54910000D03*
%TD*%
D22*
%TO.C,JP20*%
X63180000Y-42160000D03*
D23*
X63180000Y-40710000D03*
%TD*%
D20*
%TO.C,JPE04*%
X40430000Y-53485000D03*
D21*
X40430000Y-54935000D03*
%TD*%
D22*
%TO.C,JP46*%
X73180000Y-42135000D03*
D23*
X73180000Y-40685000D03*
%TD*%
D20*
%TO.C,JPE18*%
X75680000Y-53460000D03*
D21*
X75680000Y-54910000D03*
%TD*%
D22*
%TO.C,JP16*%
X53180000Y-42160000D03*
D23*
X53180000Y-40710000D03*
%TD*%
D22*
%TO.C,JP47*%
X75680000Y-42160000D03*
D23*
X75680000Y-40710000D03*
%TD*%
D22*
%TO.C,JP13*%
X45680000Y-42135000D03*
D23*
X45680000Y-40685000D03*
%TD*%
D20*
%TO.C,JPE06*%
X45680000Y-53485000D03*
D21*
X45680000Y-54935000D03*
%TD*%
D22*
%TO.C,JP15*%
X50680000Y-42160000D03*
D23*
X50680000Y-40710000D03*
%TD*%
D20*
%TO.C,JPE08*%
X50680000Y-53460000D03*
D21*
X50680000Y-54910000D03*
%TD*%
D20*
%TO.C,JPE12*%
X60680000Y-53485000D03*
D21*
X60680000Y-54935000D03*
%TD*%
D22*
%TO.C,JP45*%
X70680000Y-42135000D03*
D23*
X70680000Y-40685000D03*
%TD*%
D22*
%TO.C,JP17*%
X55680000Y-42135000D03*
D23*
X55680000Y-40685000D03*
%TD*%
D20*
%TO.C,JPE14*%
X65680000Y-53485000D03*
D21*
X65680000Y-54935000D03*
%TD*%
D20*
%TO.C,JPE16*%
X70680000Y-53485000D03*
D21*
X70680000Y-54935000D03*
%TD*%
D22*
%TO.C,JP21*%
X65680000Y-42135000D03*
D23*
X65680000Y-40685000D03*
%TD*%
D20*
%TO.C,JPE03*%
X37930000Y-53485000D03*
D21*
X37930000Y-54935000D03*
%TD*%
D20*
%TO.C,JPE02*%
X35430000Y-53485000D03*
D21*
X35430000Y-54935000D03*
%TD*%
D22*
%TO.C,JP19*%
X60680000Y-42135000D03*
D23*
X60680000Y-40685000D03*
%TD*%
D20*
%TO.C,JPE09*%
X53180000Y-53485000D03*
D21*
X53180000Y-54935000D03*
%TD*%
D20*
%TO.C,JPE07*%
X48180000Y-53485000D03*
D21*
X48180000Y-54935000D03*
%TD*%
D22*
%TO.C,JP14*%
X48180000Y-42160000D03*
D23*
X48180000Y-40710000D03*
%TD*%
D22*
%TO.C,JP11*%
X40680000Y-42135000D03*
D23*
X40680000Y-40685000D03*
%TD*%
D20*
%TO.C,JPE05*%
X43180000Y-53485000D03*
D21*
X43180000Y-54935000D03*
%TD*%
D20*
%TO.C,JPE11*%
X58180000Y-53485000D03*
D21*
X58180000Y-54935000D03*
%TD*%
D22*
%TO.C,JP9*%
X35680000Y-42160000D03*
D23*
X35680000Y-40710000D03*
%TD*%
D22*
%TO.C,JP22*%
X68180000Y-42160000D03*
D23*
X68180000Y-40710000D03*
%TD*%
D20*
%TO.C,JPE10*%
X55680000Y-53485000D03*
D21*
X55680000Y-54935000D03*
%TD*%
D22*
%TO.C,JP18*%
X58180000Y-42160000D03*
D23*
X58180000Y-40710000D03*
%TD*%
D22*
%TO.C,JP8*%
X33180000Y-42135000D03*
D23*
X33180000Y-40685000D03*
%TD*%
D22*
%TO.C,JP10*%
X38180000Y-42135000D03*
D23*
X38180000Y-40685000D03*
%TD*%
D22*
%TO.C,JP12*%
X43180000Y-42135000D03*
D23*
X43180000Y-40685000D03*
%TD*%
D20*
%TO.C,JPE17*%
X73180000Y-53485000D03*
D21*
X73180000Y-54935000D03*
%TD*%
M02*
