%TF.GenerationSoftware,KiCad,Pcbnew,8.0.3-1.fc40*%
%TF.CreationDate,2024-06-20T14:07:13-04:00*%
%TF.ProjectId,sensor_bar_unified_muxing_1,73656e73-6f72-45f6-9261-725f756e6966,rev?*%
%TF.SameCoordinates,Original*%
%TF.FileFunction,Copper,L1,Top*%
%TF.FilePolarity,Positive*%
%FSLAX46Y46*%
G04 Gerber Fmt 4.6, Leading zero omitted, Abs format (unit mm)*
G04 Created by KiCad (PCBNEW 8.0.3-1.fc40) date 2024-06-20 14:07:13*
%MOMM*%
%LPD*%
G01*
G04 APERTURE LIST*
G04 Aperture macros list*
%AMRoundRect*
0 Rectangle with rounded corners*
0 $1 Rounding radius*
0 $2 $3 $4 $5 $6 $7 $8 $9 X,Y pos of 4 corners*
0 Add a 4 corners polygon primitive as box body*
4,1,4,$2,$3,$4,$5,$6,$7,$8,$9,$2,$3,0*
0 Add four circle primitives for the rounded corners*
1,1,$1+$1,$2,$3*
1,1,$1+$1,$4,$5*
1,1,$1+$1,$6,$7*
1,1,$1+$1,$8,$9*
0 Add four rect primitives between the rounded corners*
20,1,$1+$1,$2,$3,$4,$5,0*
20,1,$1+$1,$4,$5,$6,$7,0*
20,1,$1+$1,$6,$7,$8,$9,0*
20,1,$1+$1,$8,$9,$2,$3,0*%
%AMFreePoly0*
4,1,6,1.000000,0.000000,0.500000,-0.750000,-0.500000,-0.750000,-0.500000,0.750000,0.500000,0.750000,1.000000,0.000000,1.000000,0.000000,$1*%
%AMFreePoly1*
4,1,6,0.500000,-0.750000,-0.650000,-0.750000,-0.150000,0.000000,-0.650000,0.750000,0.500000,0.750000,0.500000,-0.750000,0.500000,-0.750000,$1*%
%AMFreePoly2*
4,1,7,0.700000,0.000000,1.200000,-0.750000,-1.200000,-0.750000,-0.700000,0.000000,-1.200000,0.750000,1.200000,0.750000,0.700000,0.000000,0.700000,0.000000,$1*%
G04 Aperture macros list end*
%TA.AperFunction,ComponentPad*%
%ADD10R,1.500000X1.500000*%
%TD*%
%TA.AperFunction,ComponentPad*%
%ADD11C,1.500000*%
%TD*%
%TA.AperFunction,ComponentPad*%
%ADD12R,1.170000X1.170000*%
%TD*%
%TA.AperFunction,ComponentPad*%
%ADD13C,1.170000*%
%TD*%
%TA.AperFunction,SMDPad,CuDef*%
%ADD14RoundRect,0.073750X0.221250X-0.911250X0.221250X0.911250X-0.221250X0.911250X-0.221250X-0.911250X0*%
%TD*%
%TA.AperFunction,SMDPad,CuDef*%
%ADD15FreePoly0,270.000000*%
%TD*%
%TA.AperFunction,SMDPad,CuDef*%
%ADD16FreePoly1,270.000000*%
%TD*%
%TA.AperFunction,SMDPad,CuDef*%
%ADD17FreePoly0,180.000000*%
%TD*%
%TA.AperFunction,SMDPad,CuDef*%
%ADD18FreePoly2,180.000000*%
%TD*%
%TA.AperFunction,SMDPad,CuDef*%
%ADD19FreePoly0,0.000000*%
%TD*%
%TA.AperFunction,SMDPad,CuDef*%
%ADD20FreePoly1,0.000000*%
%TD*%
%TA.AperFunction,SMDPad,CuDef*%
%ADD21RoundRect,0.381000X-0.762000X-0.381000X0.762000X-0.381000X0.762000X0.381000X-0.762000X0.381000X0*%
%TD*%
%TA.AperFunction,ComponentPad*%
%ADD22R,1.370000X1.370000*%
%TD*%
%TA.AperFunction,ComponentPad*%
%ADD23C,1.370000*%
%TD*%
%TA.AperFunction,ComponentPad*%
%ADD24R,1.600000X1.600000*%
%TD*%
%TA.AperFunction,ComponentPad*%
%ADD25C,1.600000*%
%TD*%
%TA.AperFunction,ComponentPad*%
%ADD26R,1.300000X1.300000*%
%TD*%
%TA.AperFunction,ComponentPad*%
%ADD27C,1.300000*%
%TD*%
%TA.AperFunction,ViaPad*%
%ADD28C,0.600000*%
%TD*%
%TA.AperFunction,Conductor*%
%ADD29C,0.200000*%
%TD*%
G04 APERTURE END LIST*
D10*
%TO.P,U16,1,VCC*%
%TO.N,Net-(BOARDSEL_CMP1-VCC)*%
X221340000Y-18385000D03*
D11*
%TO.P,U16,2,GND*%
%TO.N,GND*%
X223880000Y-18385000D03*
%TO.P,U16,3,OUT*%
%TO.N,Net-(JP11-B)*%
X226420000Y-18385000D03*
%TD*%
D12*
%TO.P,BOARDSEL_ENABLE1,1,1A*%
%TO.N,Net-(BOARDSEL_CMP1-1Y)*%
X149560000Y-97305000D03*
D13*
%TO.P,BOARDSEL_ENABLE1,2,1B*%
%TO.N,Net-(BOARDSEL_CMP1-2Y)*%
X149560000Y-94765000D03*
%TO.P,BOARDSEL_ENABLE1,3*%
%TO.N,N/C*%
X149560000Y-92225000D03*
%TO.P,BOARDSEL_ENABLE1,4,1C*%
%TO.N,Net-(BOARDSEL_CMP1-3Y)*%
X149560000Y-89685000D03*
%TO.P,BOARDSEL_ENABLE1,5,1D*%
%TO.N,Net-(BOARDSEL_CMP1-4Y)*%
X149560000Y-87145000D03*
%TO.P,BOARDSEL_ENABLE1,6,1Y*%
%TO.N,Net-(BOARDSEL_ENABLE1-1Y)*%
X149560000Y-84605000D03*
%TO.P,BOARDSEL_ENABLE1,7,GND*%
%TO.N,GND*%
X149560000Y-82065000D03*
%TO.P,BOARDSEL_ENABLE1,8,2Y*%
%TO.N,unconnected-(BOARDSEL_ENABLE1-2Y-Pad8)*%
X141620000Y-82065000D03*
%TO.P,BOARDSEL_ENABLE1,9,2A*%
%TO.N,unconnected-(BOARDSEL_ENABLE1-2A-Pad9)*%
X141620000Y-84605000D03*
%TO.P,BOARDSEL_ENABLE1,10,2B*%
%TO.N,unconnected-(BOARDSEL_ENABLE1-2B-Pad10)*%
X141620000Y-87145000D03*
%TO.P,BOARDSEL_ENABLE1,11*%
%TO.N,N/C*%
X141620000Y-89685000D03*
%TO.P,BOARDSEL_ENABLE1,12,2C*%
%TO.N,unconnected-(BOARDSEL_ENABLE1-2C-Pad12)*%
X141620000Y-92225000D03*
%TO.P,BOARDSEL_ENABLE1,13,2D*%
%TO.N,unconnected-(BOARDSEL_ENABLE1-2D-Pad13)*%
X141620000Y-94765000D03*
%TO.P,BOARDSEL_ENABLE1,14,VCC*%
%TO.N,Net-(BOARDSEL_CMP1-VCC)*%
X141620000Y-97305000D03*
%TD*%
D14*
%TO.P,DG452_0,1,IN_1*%
%TO.N,Net-(BOARDSEL_ENABLE1-1Y)*%
X114475000Y-94505000D03*
%TO.P,DG452_0,2,D_1*%
%TO.N,Net-(DG452_0-D_1)*%
X115745000Y-94505000D03*
%TO.P,DG452_0,3,S_1*%
%TO.N,Net-(DG452_0-S_1)*%
X117015000Y-94505000D03*
%TO.P,DG452_0,4,V-*%
%TO.N,GND*%
X118285000Y-94505000D03*
%TO.P,DG452_0,5,GND*%
X119555000Y-94505000D03*
%TO.P,DG452_0,6,S_4*%
%TO.N,Net-(DG452_0-S_4)*%
X120825000Y-94505000D03*
%TO.P,DG452_0,7,D_4*%
%TO.N,Net-(DG452_0-D_4)*%
X122095000Y-94505000D03*
%TO.P,DG452_0,8,IN_4*%
%TO.N,Net-(BOARDSEL_ENABLE1-1Y)*%
X123365000Y-94505000D03*
%TO.P,DG452_0,9,IN_3*%
X123365000Y-89555000D03*
%TO.P,DG452_0,10,D_3*%
%TO.N,Net-(DG452_0-D_3)*%
X122095000Y-89555000D03*
%TO.P,DG452_0,11,S_3*%
%TO.N,Net-(DG452_0-S_3)*%
X120825000Y-89555000D03*
%TO.P,DG452_0,12,V_L*%
%TO.N,Net-(BOARDSEL_CMP1-VCC)*%
X119555000Y-89555000D03*
%TO.P,DG452_0,13,V+*%
X118285000Y-89555000D03*
%TO.P,DG452_0,14,S_2*%
%TO.N,Net-(DG452_0-S_2)*%
X117015000Y-89555000D03*
%TO.P,DG452_0,15,D_2*%
%TO.N,Net-(DG452_0-D_2)*%
X115745000Y-89555000D03*
%TO.P,DG452_0,16,IN_2*%
%TO.N,Net-(BOARDSEL_ENABLE1-1Y)*%
X114475000Y-89555000D03*
%TD*%
D10*
%TO.P,U13,1,VCC*%
%TO.N,Net-(BOARDSEL_CMP1-VCC)*%
X179340000Y-18345000D03*
D11*
%TO.P,U13,2,GND*%
%TO.N,GND*%
X181880000Y-18345000D03*
%TO.P,U13,3,OUT*%
%TO.N,Net-(JP14-B)*%
X184420000Y-18345000D03*
%TD*%
D15*
%TO.P,JP52,1,A*%
%TO.N,Net-(JP21-B)*%
X42780000Y-29135000D03*
D16*
%TO.P,JP52,2,B*%
%TO.N,Net-(DG452_1-D_1)*%
X42780000Y-30585000D03*
%TD*%
D10*
%TO.P,U15,1,VCC*%
%TO.N,Net-(BOARDSEL_CMP1-VCC)*%
X207340000Y-18185000D03*
D11*
%TO.P,U15,2,GND*%
%TO.N,GND*%
X209880000Y-18185000D03*
%TO.P,U15,3,OUT*%
%TO.N,Net-(JP12-B)*%
X212420000Y-18185000D03*
%TD*%
D10*
%TO.P,U9,1,VCC*%
%TO.N,Net-(BOARDSEL_CMP1-VCC)*%
X123340000Y-18485000D03*
D11*
%TO.P,U9,2,GND*%
%TO.N,GND*%
X125880000Y-18485000D03*
%TO.P,U9,3,OUT*%
%TO.N,Net-(JP18-B)*%
X128420000Y-18485000D03*
%TD*%
D15*
%TO.P,JP53,1,A*%
%TO.N,Net-(JP20-B)*%
X45280000Y-29135000D03*
D16*
%TO.P,JP53,2,B*%
%TO.N,Net-(DG452_1-S_4)*%
X45280000Y-30585000D03*
%TD*%
D14*
%TO.P,DG452_2,1,IN_1*%
%TO.N,Net-(BOARDSEL_ENABLE1-1Y)*%
X114530000Y-69935000D03*
%TO.P,DG452_2,2,D_1*%
%TO.N,Net-(DG452_2-D_1)*%
X115800000Y-69935000D03*
%TO.P,DG452_2,3,S_1*%
%TO.N,Net-(DG452_2-S_1)*%
X117070000Y-69935000D03*
%TO.P,DG452_2,4,V-*%
%TO.N,GND*%
X118340000Y-69935000D03*
%TO.P,DG452_2,5,GND*%
X119610000Y-69935000D03*
%TO.P,DG452_2,6,S_4*%
%TO.N,Net-(DG452_2-S_4)*%
X120880000Y-69935000D03*
%TO.P,DG452_2,7,D_4*%
%TO.N,Net-(DG452_2-D_4)*%
X122150000Y-69935000D03*
%TO.P,DG452_2,8,IN_4*%
%TO.N,Net-(BOARDSEL_ENABLE1-1Y)*%
X123420000Y-69935000D03*
%TO.P,DG452_2,9,IN_3*%
X123420000Y-64985000D03*
%TO.P,DG452_2,10,D_3*%
%TO.N,Net-(DG452_2-D_3)*%
X122150000Y-64985000D03*
%TO.P,DG452_2,11,S_3*%
%TO.N,Net-(DG452_2-S_3)*%
X120880000Y-64985000D03*
%TO.P,DG452_2,12,V_L*%
%TO.N,Net-(BOARDSEL_CMP1-VCC)*%
X119610000Y-64985000D03*
%TO.P,DG452_2,13,V+*%
X118340000Y-64985000D03*
%TO.P,DG452_2,14,S_2*%
%TO.N,Net-(DG452_2-S_2)*%
X117070000Y-64985000D03*
%TO.P,DG452_2,15,D_2*%
%TO.N,Net-(DG452_2-D_2)*%
X115800000Y-64985000D03*
%TO.P,DG452_2,16,IN_2*%
%TO.N,Net-(BOARDSEL_ENABLE1-1Y)*%
X114530000Y-64985000D03*
%TD*%
%TO.P,DG452_3,1,IN_1*%
%TO.N,Net-(BOARDSEL_ENABLE1-1Y)*%
X114475000Y-57460000D03*
%TO.P,DG452_3,2,D_1*%
%TO.N,Net-(DG452_3-D_1)*%
X115745000Y-57460000D03*
%TO.P,DG452_3,3,S_1*%
%TO.N,Net-(DG452_3-S_1)*%
X117015000Y-57460000D03*
%TO.P,DG452_3,4,V-*%
%TO.N,GND*%
X118285000Y-57460000D03*
%TO.P,DG452_3,5,GND*%
X119555000Y-57460000D03*
%TO.P,DG452_3,6,S_4*%
%TO.N,Net-(DG452_3-S_4)*%
X120825000Y-57460000D03*
%TO.P,DG452_3,7,D_4*%
%TO.N,Net-(DG452_3-D_4)*%
X122095000Y-57460000D03*
%TO.P,DG452_3,8,IN_4*%
%TO.N,Net-(BOARDSEL_ENABLE1-1Y)*%
X123365000Y-57460000D03*
%TO.P,DG452_3,9,IN_3*%
X123365000Y-52510000D03*
%TO.P,DG452_3,10,D_3*%
%TO.N,Net-(DG452_3-D_3)*%
X122095000Y-52510000D03*
%TO.P,DG452_3,11,S_3*%
%TO.N,Net-(DG452_3-S_3)*%
X120825000Y-52510000D03*
%TO.P,DG452_3,12,V_L*%
%TO.N,Net-(BOARDSEL_CMP1-VCC)*%
X119555000Y-52510000D03*
%TO.P,DG452_3,13,V+*%
X118285000Y-52510000D03*
%TO.P,DG452_3,14,S_2*%
%TO.N,Net-(DG452_3-S_2)*%
X117015000Y-52510000D03*
%TO.P,DG452_3,15,D_2*%
%TO.N,Net-(DG452_3-D_2)*%
X115745000Y-52510000D03*
%TO.P,DG452_3,16,IN_2*%
%TO.N,Net-(BOARDSEL_ENABLE1-1Y)*%
X114475000Y-52510000D03*
%TD*%
D10*
%TO.P,U19,1,VCC*%
%TO.N,Net-(BOARDSEL_CMP1-VCC)*%
X263340000Y-18185000D03*
D11*
%TO.P,U19,2,GND*%
%TO.N,GND*%
X265880000Y-18185000D03*
%TO.P,U19,3,OUT*%
%TO.N,Net-(JP26-B)*%
X268420000Y-18185000D03*
%TD*%
D17*
%TO.P,JP2,1,A*%
%TO.N,Net-(BOARDSEL_CMP1-VCC)*%
X136380000Y-91685000D03*
D18*
%TO.P,JP2,2,C*%
%TO.N,Net-(BOARDSEL_CMP1-2B)*%
X134380000Y-91685000D03*
D19*
%TO.P,JP2,3,B*%
%TO.N,GND*%
X132380000Y-91685000D03*
%TD*%
D10*
%TO.P,U10,1,VCC*%
%TO.N,Net-(BOARDSEL_CMP1-VCC)*%
X137340000Y-18185000D03*
D11*
%TO.P,U10,2,GND*%
%TO.N,GND*%
X139880000Y-18185000D03*
%TO.P,U10,3,OUT*%
%TO.N,Net-(JP17-B)*%
X142420000Y-18185000D03*
%TD*%
D17*
%TO.P,JP4,1,A*%
%TO.N,Net-(BOARDSEL_CMP1-VCC)*%
X136380000Y-83185000D03*
D18*
%TO.P,JP4,2,C*%
%TO.N,Net-(BOARDSEL_CMP1-4B)*%
X134380000Y-83185000D03*
D19*
%TO.P,JP4,3,B*%
%TO.N,GND*%
X132380000Y-83185000D03*
%TD*%
D14*
%TO.P,DG45_4,1,IN_1*%
%TO.N,Net-(BOARDSEL_ENABLE1-1Y)*%
X114510000Y-45985000D03*
%TO.P,DG45_4,2,D_1*%
%TO.N,Net-(DG45_4-D_1)*%
X115780000Y-45985000D03*
%TO.P,DG45_4,3,S_1*%
%TO.N,Net-(DG45_4-S_1)*%
X117050000Y-45985000D03*
%TO.P,DG45_4,4,V-*%
%TO.N,GND*%
X118320000Y-45985000D03*
%TO.P,DG45_4,5,GND*%
X119590000Y-45985000D03*
%TO.P,DG45_4,6,S_4*%
%TO.N,Net-(DG45_4-S_4)*%
X120860000Y-45985000D03*
%TO.P,DG45_4,7,D_4*%
%TO.N,Net-(DG45_4-D_4)*%
X122130000Y-45985000D03*
%TO.P,DG45_4,8,IN_4*%
%TO.N,Net-(BOARDSEL_ENABLE1-1Y)*%
X123400000Y-45985000D03*
%TO.P,DG45_4,9,IN_3*%
X123400000Y-41035000D03*
%TO.P,DG45_4,10,D_3*%
%TO.N,unconnected-(DG45_4-D_3-Pad10)*%
X122130000Y-41035000D03*
%TO.P,DG45_4,11,S_3*%
%TO.N,unconnected-(DG45_4-S_3-Pad11)*%
X120860000Y-41035000D03*
%TO.P,DG45_4,12,V_L*%
%TO.N,Net-(BOARDSEL_CMP1-VCC)*%
X119590000Y-41035000D03*
%TO.P,DG45_4,13,V+*%
X118320000Y-41035000D03*
%TO.P,DG45_4,14,S_2*%
%TO.N,unconnected-(DG45_4-S_2-Pad14)*%
X117050000Y-41035000D03*
%TO.P,DG45_4,15,D_2*%
%TO.N,unconnected-(DG45_4-D_2-Pad15)*%
X115780000Y-41035000D03*
%TO.P,DG45_4,16,IN_2*%
%TO.N,Net-(BOARDSEL_ENABLE1-1Y)*%
X114510000Y-41035000D03*
%TD*%
D19*
%TO.P,JP5,1,A*%
%TO.N,GND*%
X147650000Y-25600000D03*
D20*
%TO.P,JP5,2,B*%
%TO.N,Net-(JP13-B)*%
X149100000Y-25600000D03*
%TD*%
D10*
%TO.P,U7,1,VCC*%
%TO.N,Net-(BOARDSEL_CMP1-VCC)*%
X95340000Y-18485000D03*
D11*
%TO.P,U7,2,GND*%
%TO.N,GND*%
X97880000Y-18485000D03*
%TO.P,U7,3,OUT*%
%TO.N,Net-(JP20-B)*%
X100420000Y-18485000D03*
%TD*%
D19*
%TO.P,JP25,1,A*%
%TO.N,GND*%
X147600000Y-37400000D03*
D20*
%TO.P,JP25,2,B*%
%TO.N,Net-(JP25-B)*%
X149050000Y-37400000D03*
%TD*%
D10*
%TO.P,U11,1,VCC*%
%TO.N,Net-(BOARDSEL_CMP1-VCC)*%
X151340000Y-18345000D03*
D11*
%TO.P,U11,2,GND*%
%TO.N,GND*%
X153880000Y-18345000D03*
%TO.P,U11,3,OUT*%
%TO.N,Net-(JP16-B)*%
X156420000Y-18345000D03*
%TD*%
D17*
%TO.P,JP1,1,A*%
%TO.N,Net-(BOARDSEL_CMP1-VCC)*%
X136380000Y-96685000D03*
D18*
%TO.P,JP1,2,C*%
%TO.N,Net-(BOARDSEL_CMP1-1B)*%
X134380000Y-96685000D03*
D19*
%TO.P,JP1,3,B*%
%TO.N,GND*%
X132380000Y-96685000D03*
%TD*%
D10*
%TO.P,U8,1,VCC*%
%TO.N,Net-(BOARDSEL_CMP1-VCC)*%
X109340000Y-18385000D03*
D11*
%TO.P,U8,2,GND*%
%TO.N,GND*%
X111880000Y-18385000D03*
%TO.P,U8,3,OUT*%
%TO.N,Net-(JP19-B)*%
X114420000Y-18385000D03*
%TD*%
D19*
%TO.P,JP7,1,A*%
%TO.N,GND*%
X147700000Y-31800000D03*
D20*
%TO.P,JP7,2,B*%
%TO.N,Net-(JP11-B)*%
X149150000Y-31800000D03*
%TD*%
D10*
%TO.P,U6,1,VCC*%
%TO.N,Net-(BOARDSEL_CMP1-VCC)*%
X81340000Y-18345000D03*
D11*
%TO.P,U6,2,GND*%
%TO.N,GND*%
X83880000Y-18345000D03*
%TO.P,U6,3,OUT*%
%TO.N,Net-(JP21-B)*%
X86420000Y-18345000D03*
%TD*%
D15*
%TO.P,JP49,1,A*%
%TO.N,Net-(JP46-B)*%
X35280000Y-29135000D03*
D16*
%TO.P,JP49,2,B*%
%TO.N,Net-(DG452_0-S_4)*%
X35280000Y-30585000D03*
%TD*%
D15*
%TO.P,JP61,1,A*%
%TO.N,Net-(JP12-B)*%
X65280000Y-29135000D03*
D16*
%TO.P,JP61,2,B*%
%TO.N,Net-(DG452_3-S_4)*%
X65280000Y-30585000D03*
%TD*%
D15*
%TO.P,JP59,1,A*%
%TO.N,Net-(JP14-B)*%
X60280000Y-29160000D03*
D16*
%TO.P,JP59,2,B*%
%TO.N,Net-(DG452_2-S_3)*%
X60280000Y-30610000D03*
%TD*%
D15*
%TO.P,JP57,1,A*%
%TO.N,Net-(JP16-B)*%
X55280000Y-29160000D03*
D16*
%TO.P,JP57,2,B*%
%TO.N,Net-(DG452_2-S_4)*%
X55280000Y-30610000D03*
%TD*%
D15*
%TO.P,JP60,1,A*%
%TO.N,Net-(JP13-B)*%
X62780000Y-29135000D03*
D16*
%TO.P,JP60,2,B*%
%TO.N,Net-(DG452_3-D_1)*%
X62780000Y-30585000D03*
%TD*%
D15*
%TO.P,JP54,1,A*%
%TO.N,Net-(JP19-B)*%
X47780000Y-29135000D03*
D16*
%TO.P,JP54,2,B*%
%TO.N,Net-(DG452_1-D_2)*%
X47780000Y-30585000D03*
%TD*%
D10*
%TO.P,U17,1,VCC*%
%TO.N,Net-(BOARDSEL_CMP1-VCC)*%
X235340000Y-18385000D03*
D11*
%TO.P,U17,2,GND*%
%TO.N,GND*%
X237880000Y-18385000D03*
%TO.P,U17,3,OUT*%
%TO.N,Net-(JP10-B)*%
X240420000Y-18385000D03*
%TD*%
D10*
%TO.P,U18,1,VCC*%
%TO.N,Net-(BOARDSEL_CMP1-VCC)*%
X249340000Y-18485000D03*
D11*
%TO.P,U18,2,GND*%
%TO.N,GND*%
X251880000Y-18485000D03*
%TO.P,U18,3,OUT*%
%TO.N,Net-(JP25-B)*%
X254420000Y-18485000D03*
%TD*%
D15*
%TO.P,JP64,1,A*%
%TO.N,Net-(JP25-B)*%
X72780000Y-29160000D03*
D16*
%TO.P,JP64,2,B*%
%TO.N,Net-(DG45_4-D_1)*%
X72780000Y-30610000D03*
%TD*%
D15*
%TO.P,JP23,1,A*%
%TO.N,Net-(J2-Pin_9)*%
X81100000Y-52300000D03*
D16*
%TO.P,JP23,2,B*%
%TO.N,Net-(JP23-B)*%
X81100000Y-53750000D03*
%TD*%
D15*
%TO.P,JP58,1,A*%
%TO.N,Net-(JP15-B)*%
X57780000Y-29160000D03*
D16*
%TO.P,JP58,2,B*%
%TO.N,Net-(DG452_2-D_2)*%
X57780000Y-30610000D03*
%TD*%
D10*
%TO.P,U12,1,VCC*%
%TO.N,Net-(BOARDSEL_CMP1-VCC)*%
X165340000Y-18145000D03*
D11*
%TO.P,U12,2,GND*%
%TO.N,GND*%
X167880000Y-18145000D03*
%TO.P,U12,3,OUT*%
%TO.N,Net-(JP15-B)*%
X170420000Y-18145000D03*
%TD*%
D19*
%TO.P,JP6,1,A*%
%TO.N,GND*%
X147675000Y-28700000D03*
D20*
%TO.P,JP6,2,B*%
%TO.N,Net-(JP12-B)*%
X149125000Y-28700000D03*
%TD*%
D19*
%TO.P,JP24,1,A*%
%TO.N,GND*%
X147600000Y-34600000D03*
D20*
%TO.P,JP24,2,B*%
%TO.N,Net-(JP10-B)*%
X149050000Y-34600000D03*
%TD*%
D10*
%TO.P,U3,1,VCC*%
%TO.N,Net-(BOARDSEL_CMP1-VCC)*%
X39340000Y-18545000D03*
D11*
%TO.P,U3,2,GND*%
%TO.N,GND*%
X41880000Y-18545000D03*
%TO.P,U3,3,OUT*%
%TO.N,Net-(JP46-B)*%
X44420000Y-18545000D03*
%TD*%
D10*
%TO.P,U5,1,VCC*%
%TO.N,Net-(BOARDSEL_CMP1-VCC)*%
X67340000Y-18145000D03*
D11*
%TO.P,U5,2,GND*%
%TO.N,GND*%
X69880000Y-18145000D03*
%TO.P,U5,3,OUT*%
%TO.N,Net-(JP22-B)*%
X72420000Y-18145000D03*
%TD*%
D15*
%TO.P,JP51,1,A*%
%TO.N,Net-(JP22-B)*%
X40280000Y-29135000D03*
D16*
%TO.P,JP51,2,B*%
%TO.N,Net-(DG452_0-S_3)*%
X40280000Y-30585000D03*
%TD*%
D21*
%TO.P,J2,1,Pin_1*%
%TO.N,Net-(BOARDSEL_CMP1-4A)*%
X176180000Y-37285000D03*
%TO.P,J2,2,Pin_2*%
%TO.N,Net-(BOARDSEL_CMP1-3A)*%
X176180000Y-39285000D03*
%TO.P,J2,3,Pin_3*%
%TO.N,Net-(BOARDSEL_CMP1-2A)*%
X176180000Y-41285000D03*
%TO.P,J2,4,Pin_4*%
%TO.N,Net-(BOARDSEL_CMP1-1A)*%
X176180000Y-43285000D03*
%TO.P,J2,5,Pin_5*%
%TO.N,unconnected-(J2-Pin_5-Pad5)*%
X176180000Y-45285000D03*
%TO.P,J2,6,Pin_6*%
%TO.N,GND*%
X176180000Y-47285000D03*
%TO.P,J2,7,Pin_7*%
%TO.N,unconnected-(J2-Pin_7-Pad7)*%
X176180000Y-49285000D03*
%TO.P,J2,8,Pin_8*%
%TO.N,unconnected-(J2-Pin_8-Pad8)*%
X176180000Y-51285000D03*
%TO.P,J2,9,Pin_9*%
%TO.N,Net-(J2-Pin_9)*%
X176180000Y-53285000D03*
%TO.P,J2,10,Pin_10*%
%TO.N,unconnected-(J2-Pin_10-Pad10)*%
X176180000Y-55285000D03*
%TO.P,J2,11,Pin_11*%
%TO.N,unconnected-(J2-Pin_11-Pad11)*%
X176180000Y-57285000D03*
%TO.P,J2,12,Pin_12*%
%TO.N,Net-(BOARDSEL_CMP1-VCC)*%
X176180000Y-59285000D03*
%TO.P,J2,13,Pin_13*%
%TO.N,unconnected-(J2-Pin_13-Pad13)*%
X176180000Y-61285000D03*
%TO.P,J2,14,Pin_14*%
%TO.N,unconnected-(J2-Pin_14-Pad14)*%
X176180000Y-63285000D03*
%TO.P,J2,15,Pin_15*%
%TO.N,Net-(DG45_4-D_4)*%
X176180000Y-65285000D03*
%TO.P,J2,16,Pin_16*%
%TO.N,Net-(DG45_4-S_1)*%
X176180000Y-67285000D03*
%TO.P,J2,17,Pin_17*%
%TO.N,Net-(DG452_3-D_3)*%
X176180000Y-69285000D03*
%TO.P,J2,18,Pin_18*%
%TO.N,Net-(DG452_3-S_2)*%
X176180000Y-71285000D03*
%TO.P,J2,19,Pin_19*%
%TO.N,Net-(DG452_3-D_4)*%
X176180000Y-73285000D03*
%TO.P,J2,20,Pin_20*%
%TO.N,Net-(DG452_3-S_1)*%
X176180000Y-75285000D03*
%TO.P,J2,21,Pin_21*%
%TO.N,Net-(DG452_2-D_3)*%
X176180000Y-77285000D03*
%TO.P,J2,22,Pin_22*%
%TO.N,Net-(DG452_2-S_2)*%
X176180000Y-79285000D03*
%TO.P,J2,23,Pin_23*%
%TO.N,Net-(DG452_2-D_4)*%
X176180000Y-81285000D03*
%TO.P,J2,24,Pin_24*%
%TO.N,Net-(DG452_2-S_1)*%
X176180000Y-83285000D03*
%TO.P,J2,25,Pin_25*%
%TO.N,Net-(DG452_1-D_3)*%
X176180000Y-85285000D03*
%TO.P,J2,26,Pin_26*%
%TO.N,Net-(DG452_1-S_2)*%
X176180000Y-87285000D03*
%TO.P,J2,27,Pin_27*%
%TO.N,Net-(DG452_1-D_4)*%
X176180000Y-89285000D03*
%TO.P,J2,28,Pin_28*%
%TO.N,Net-(DG452_1-S_1)*%
X176180000Y-91285000D03*
%TO.P,J2,29,Pin_29*%
%TO.N,Net-(DG452_0-D_3)*%
X176180000Y-93285000D03*
%TO.P,J2,30,Pin_30*%
%TO.N,Net-(DG452_0-S_2)*%
X176180000Y-95285000D03*
%TO.P,J2,31,Pin_31*%
%TO.N,Net-(DG452_0-D_4)*%
X176180000Y-97285000D03*
%TO.P,J2,32,Pin_32*%
%TO.N,Net-(DG452_0-S_1)*%
X176180000Y-99285000D03*
%TD*%
%TO.P,J3,1,Pin_1*%
%TO.N,Net-(BOARDSEL_CMP1-4A)*%
X26200000Y-23900000D03*
%TO.P,J3,2,Pin_2*%
%TO.N,Net-(BOARDSEL_CMP1-3A)*%
X26200000Y-25900000D03*
%TO.P,J3,3,Pin_3*%
%TO.N,Net-(BOARDSEL_CMP1-2A)*%
X26200000Y-27900000D03*
%TO.P,J3,4,Pin_4*%
%TO.N,Net-(BOARDSEL_CMP1-1A)*%
X26200000Y-29900000D03*
%TO.P,J3,5,Pin_5*%
%TO.N,unconnected-(J3-Pin_5-Pad5)*%
X26200000Y-31900000D03*
%TO.P,J3,6,Pin_6*%
%TO.N,GND*%
X26200000Y-33900000D03*
%TO.P,J3,7,Pin_7*%
%TO.N,unconnected-(J3-Pin_7-Pad7)*%
X26200000Y-35900000D03*
%TO.P,J3,8,Pin_8*%
%TO.N,unconnected-(J3-Pin_8-Pad8)*%
X26200000Y-37900000D03*
%TO.P,J3,9,Pin_9*%
%TO.N,Net-(J2-Pin_9)*%
X26200000Y-39900000D03*
%TO.P,J3,10,Pin_10*%
%TO.N,unconnected-(J3-Pin_10-Pad10)*%
X26200000Y-41900000D03*
%TO.P,J3,11,Pin_11*%
%TO.N,unconnected-(J3-Pin_11-Pad11)*%
X26200000Y-43900000D03*
%TO.P,J3,12,Pin_12*%
%TO.N,Net-(BOARDSEL_CMP1-VCC)*%
X26200000Y-45900000D03*
%TO.P,J3,13,Pin_13*%
%TO.N,unconnected-(J3-Pin_13-Pad13)*%
X26200000Y-47900000D03*
%TO.P,J3,14,Pin_14*%
%TO.N,unconnected-(J3-Pin_14-Pad14)*%
X26200000Y-49900000D03*
%TO.P,J3,15,Pin_15*%
%TO.N,Net-(DG45_4-D_4)*%
X26200000Y-51900000D03*
%TO.P,J3,16,Pin_16*%
%TO.N,Net-(DG45_4-S_1)*%
X26200000Y-53900000D03*
%TO.P,J3,17,Pin_17*%
%TO.N,Net-(DG452_3-D_3)*%
X26200000Y-55900000D03*
%TO.P,J3,18,Pin_18*%
%TO.N,Net-(DG452_3-S_2)*%
X26200000Y-57900000D03*
%TO.P,J3,19,Pin_19*%
%TO.N,Net-(DG452_3-D_4)*%
X26200000Y-59900000D03*
%TO.P,J3,20,Pin_20*%
%TO.N,Net-(DG452_3-S_1)*%
X26200000Y-61900000D03*
%TO.P,J3,21,Pin_21*%
%TO.N,Net-(DG452_2-D_3)*%
X26200000Y-63900000D03*
%TO.P,J3,22,Pin_22*%
%TO.N,Net-(DG452_2-S_2)*%
X26200000Y-65900000D03*
%TO.P,J3,23,Pin_23*%
%TO.N,Net-(DG452_2-D_4)*%
X26200000Y-67900000D03*
%TO.P,J3,24,Pin_24*%
%TO.N,Net-(DG452_2-S_1)*%
X26200000Y-69900000D03*
%TO.P,J3,25,Pin_25*%
%TO.N,Net-(DG452_1-D_3)*%
X26200000Y-71900000D03*
%TO.P,J3,26,Pin_26*%
%TO.N,Net-(DG452_1-S_2)*%
X26200000Y-73900000D03*
%TO.P,J3,27,Pin_27*%
%TO.N,Net-(DG452_1-D_4)*%
X26200000Y-75900000D03*
%TO.P,J3,28,Pin_28*%
%TO.N,Net-(DG452_1-S_1)*%
X26200000Y-77900000D03*
%TO.P,J3,29,Pin_29*%
%TO.N,Net-(DG452_0-D_3)*%
X26200000Y-79900000D03*
%TO.P,J3,30,Pin_30*%
%TO.N,Net-(DG452_0-S_2)*%
X26200000Y-81900000D03*
%TO.P,J3,31,Pin_31*%
%TO.N,Net-(DG452_0-D_4)*%
X26200000Y-83900000D03*
%TO.P,J3,32,Pin_32*%
%TO.N,Net-(DG452_0-S_1)*%
X26200000Y-85900000D03*
%TD*%
D15*
%TO.P,JP50,1,A*%
%TO.N,Net-(JP45-B)*%
X37780000Y-29135000D03*
D16*
%TO.P,JP50,2,B*%
%TO.N,Net-(DG452_0-D_2)*%
X37780000Y-30585000D03*
%TD*%
D17*
%TO.P,JP3,1,A*%
%TO.N,Net-(BOARDSEL_CMP1-VCC)*%
X136380000Y-87185000D03*
D18*
%TO.P,JP3,2,C*%
%TO.N,Net-(BOARDSEL_CMP1-3B)*%
X134380000Y-87185000D03*
D19*
%TO.P,JP3,3,B*%
%TO.N,GND*%
X132380000Y-87185000D03*
%TD*%
D15*
%TO.P,JP55,1,A*%
%TO.N,Net-(JP18-B)*%
X50280000Y-29135000D03*
D16*
%TO.P,JP55,2,B*%
%TO.N,Net-(DG452_1-S_3)*%
X50280000Y-30585000D03*
%TD*%
D14*
%TO.P,DG452_1,1,IN_1*%
%TO.N,Net-(BOARDSEL_ENABLE1-1Y)*%
X114475000Y-82410000D03*
%TO.P,DG452_1,2,D_1*%
%TO.N,Net-(DG452_1-D_1)*%
X115745000Y-82410000D03*
%TO.P,DG452_1,3,S_1*%
%TO.N,Net-(DG452_1-S_1)*%
X117015000Y-82410000D03*
%TO.P,DG452_1,4,V-*%
%TO.N,GND*%
X118285000Y-82410000D03*
%TO.P,DG452_1,5,GND*%
X119555000Y-82410000D03*
%TO.P,DG452_1,6,S_4*%
%TO.N,Net-(DG452_1-S_4)*%
X120825000Y-82410000D03*
%TO.P,DG452_1,7,D_4*%
%TO.N,Net-(DG452_1-D_4)*%
X122095000Y-82410000D03*
%TO.P,DG452_1,8,IN_4*%
%TO.N,Net-(BOARDSEL_ENABLE1-1Y)*%
X123365000Y-82410000D03*
%TO.P,DG452_1,9,IN_3*%
X123365000Y-77460000D03*
%TO.P,DG452_1,10,D_3*%
%TO.N,Net-(DG452_1-D_3)*%
X122095000Y-77460000D03*
%TO.P,DG452_1,11,S_3*%
%TO.N,Net-(DG452_1-S_3)*%
X120825000Y-77460000D03*
%TO.P,DG452_1,12,V_L*%
%TO.N,Net-(BOARDSEL_CMP1-VCC)*%
X119555000Y-77460000D03*
%TO.P,DG452_1,13,V+*%
X118285000Y-77460000D03*
%TO.P,DG452_1,14,S_2*%
%TO.N,Net-(DG452_1-S_2)*%
X117015000Y-77460000D03*
%TO.P,DG452_1,15,D_2*%
%TO.N,Net-(DG452_1-D_2)*%
X115745000Y-77460000D03*
%TO.P,DG452_1,16,IN_2*%
%TO.N,Net-(BOARDSEL_ENABLE1-1Y)*%
X114475000Y-77460000D03*
%TD*%
D15*
%TO.P,JP65,1,A*%
%TO.N,Net-(JP26-B)*%
X75280000Y-29160000D03*
D16*
%TO.P,JP65,2,B*%
%TO.N,Net-(DG45_4-S_4)*%
X75280000Y-30610000D03*
%TD*%
D15*
%TO.P,JP63,1,A*%
%TO.N,Net-(JP10-B)*%
X70280000Y-29135000D03*
D16*
%TO.P,JP63,2,B*%
%TO.N,Net-(DG452_3-S_3)*%
X70280000Y-30585000D03*
%TD*%
D10*
%TO.P,U2,1,VCC*%
%TO.N,Net-(BOARDSEL_CMP1-VCC)*%
X25440000Y-17845000D03*
D11*
%TO.P,U2,2,GND*%
%TO.N,GND*%
X27980000Y-17845000D03*
%TO.P,U2,3,OUT*%
%TO.N,Net-(JP47-B)*%
X30520000Y-17845000D03*
%TD*%
D15*
%TO.P,JP48,1,A*%
%TO.N,Net-(JP47-B)*%
X32780000Y-29135000D03*
D16*
%TO.P,JP48,2,B*%
%TO.N,Net-(DG452_0-D_1)*%
X32780000Y-30585000D03*
%TD*%
D22*
%TO.P,interboard connect,01,01*%
%TO.N,Net-(BOARDSEL_CMP1-1A)*%
X32440000Y-48725000D03*
D23*
%TO.P,interboard connect,02,02*%
%TO.N,Net-(DG452_0-S_1)*%
X32440000Y-46185000D03*
%TO.P,interboard connect,03,03*%
%TO.N,Net-(BOARDSEL_CMP1-2A)*%
X34980000Y-48725000D03*
%TO.P,interboard connect,04,04*%
%TO.N,Net-(DG452_0-D_4)*%
X34980000Y-46185000D03*
%TO.P,interboard connect,05,05*%
%TO.N,Net-(BOARDSEL_CMP1-3A)*%
X37520000Y-48725000D03*
%TO.P,interboard connect,06,06*%
%TO.N,Net-(DG452_0-S_2)*%
X37520000Y-46185000D03*
%TO.P,interboard connect,07,07*%
%TO.N,Net-(BOARDSEL_CMP1-4A)*%
X40060000Y-48725000D03*
%TO.P,interboard connect,08,08*%
%TO.N,Net-(DG452_0-D_3)*%
X40060000Y-46185000D03*
%TO.P,interboard connect,09,09*%
%TO.N,unconnected-(J1-Pad09)*%
X42600000Y-48725000D03*
%TO.P,interboard connect,10,10*%
%TO.N,Net-(DG452_1-S_1)*%
X42600000Y-46185000D03*
%TO.P,interboard connect,11,11*%
%TO.N,unconnected-(J1-Pad11)*%
X45140000Y-48725000D03*
%TO.P,interboard connect,12,12*%
%TO.N,Net-(DG452_1-D_4)*%
X45140000Y-46185000D03*
%TO.P,interboard connect,13,13*%
%TO.N,unconnected-(J1-Pad13)*%
X47680000Y-48725000D03*
%TO.P,interboard connect,14,14*%
%TO.N,Net-(DG452_1-S_2)*%
X47680000Y-46185000D03*
%TO.P,interboard connect,15,15*%
%TO.N,unconnected-(J1-Pad15)*%
X50220000Y-48725000D03*
%TO.P,interboard connect,16,16*%
%TO.N,Net-(DG452_1-D_3)*%
X50220000Y-46185000D03*
%TO.P,interboard connect,17,17*%
%TO.N,Net-(J2-Pin_9)*%
X52760000Y-48725000D03*
%TO.P,interboard connect,18,18*%
%TO.N,Net-(DG452_2-S_1)*%
X52760000Y-46185000D03*
%TO.P,interboard connect,19,19*%
%TO.N,unconnected-(J1-Pad19)*%
X55300000Y-48725000D03*
%TO.P,interboard connect,20,20*%
%TO.N,Net-(DG452_2-D_4)*%
X55300000Y-46185000D03*
%TO.P,interboard connect,21,21*%
%TO.N,unconnected-(J1-Pad21)*%
X57840000Y-48725000D03*
%TO.P,interboard connect,22,22*%
%TO.N,Net-(DG452_2-S_2)*%
X57840000Y-46185000D03*
%TO.P,interboard connect,23,23*%
%TO.N,unconnected-(J1-Pad23)*%
X60380000Y-48725000D03*
%TO.P,interboard connect,24,24*%
%TO.N,Net-(DG452_2-D_3)*%
X60380000Y-46185000D03*
%TO.P,interboard connect,25,25*%
%TO.N,unconnected-(J1-Pad25)*%
X62920000Y-48725000D03*
%TO.P,interboard connect,26,26*%
%TO.N,Net-(DG452_3-S_1)*%
X62920000Y-46185000D03*
%TO.P,interboard connect,27,27*%
%TO.N,unconnected-(J1-Pad27)*%
X65460000Y-48725000D03*
%TO.P,interboard connect,28,28*%
%TO.N,Net-(DG452_3-D_4)*%
X65460000Y-46185000D03*
%TO.P,interboard connect,29,29*%
%TO.N,Net-(BOARDSEL_CMP1-VCC)*%
X68000000Y-48725000D03*
%TO.P,interboard connect,30,30*%
%TO.N,Net-(DG452_3-S_2)*%
X68000000Y-46185000D03*
%TO.P,interboard connect,31,31*%
%TO.N,unconnected-(J1-Pad31)*%
X70540000Y-48725000D03*
%TO.P,interboard connect,32,32*%
%TO.N,Net-(DG452_3-D_3)*%
X70540000Y-46185000D03*
%TO.P,interboard connect,33,33*%
%TO.N,unconnected-(J1-Pad33)*%
X73080000Y-48725000D03*
%TO.P,interboard connect,34,34*%
%TO.N,Net-(DG45_4-S_1)*%
X73080000Y-46185000D03*
%TO.P,interboard connect,35,35*%
%TO.N,unconnected-(J1-Pad35)*%
X75620000Y-48725000D03*
%TO.P,interboard connect,36,36*%
%TO.N,Net-(DG45_4-D_4)*%
X75620000Y-46185000D03*
%TO.P,interboard connect,37,37*%
%TO.N,unconnected-(J1-Pad37)*%
X78160000Y-48725000D03*
%TO.P,interboard connect,38,38*%
%TO.N,unconnected-(J1-Pad38)*%
X78160000Y-46185000D03*
%TO.P,interboard connect,39,39*%
%TO.N,unconnected-(J1-Pad39)*%
X80700000Y-48725000D03*
%TO.P,interboard connect,40,40*%
%TO.N,GND*%
X80700000Y-46185000D03*
%TD*%
D24*
%TO.P,U1,1,GND*%
%TO.N,unconnected-(U1-GND-Pad1)*%
X29470000Y-90805000D03*
D25*
%TO.P,U1,2,0_RX1_CRX2_CS1*%
%TO.N,Net-(BOARDSEL_CMP1-1A)*%
X32010000Y-90805000D03*
%TO.P,U1,3,1_TX1_CTX2_MISO1*%
%TO.N,Net-(BOARDSEL_CMP1-2A)*%
X34550000Y-90805000D03*
%TO.P,U1,4,2_OUT2*%
%TO.N,Net-(BOARDSEL_CMP1-3A)*%
X37090000Y-90805000D03*
%TO.P,U1,5,3_LRCLK2*%
%TO.N,Net-(BOARDSEL_CMP1-4A)*%
X39630000Y-90805000D03*
%TO.P,U1,6,4_BCLK2*%
%TO.N,unconnected-(U1-4_BCLK2-Pad6)*%
X42170000Y-90805000D03*
%TO.P,U1,7,5_IN2*%
%TO.N,unconnected-(U1-5_IN2-Pad7)*%
X44710000Y-90805000D03*
%TO.P,U1,8,6_OUT1D*%
%TO.N,unconnected-(U1-6_OUT1D-Pad8)*%
X47250000Y-90805000D03*
%TO.P,U1,9,7_RX2_OUT1A*%
%TO.N,unconnected-(U1-7_RX2_OUT1A-Pad9)*%
X49790000Y-90805000D03*
%TO.P,U1,10,8_TX2_IN1*%
%TO.N,unconnected-(U1-8_TX2_IN1-Pad10)*%
X52330000Y-90805000D03*
%TO.P,U1,11,9_OUT1C*%
%TO.N,unconnected-(U1-9_OUT1C-Pad11)*%
X54870000Y-90805000D03*
%TO.P,U1,12,10_CS_MQSR*%
%TO.N,unconnected-(U1-10_CS_MQSR-Pad12)*%
X57410000Y-90805000D03*
%TO.P,U1,13,11_MOSI_CTX1*%
%TO.N,unconnected-(U1-11_MOSI_CTX1-Pad13)*%
X59950000Y-90805000D03*
%TO.P,U1,14,12_MISO_MQSL*%
%TO.N,unconnected-(U1-12_MISO_MQSL-Pad14)*%
X62490000Y-90805000D03*
%TO.P,U1,15,3V3*%
%TO.N,unconnected-(U1-3V3-Pad15)*%
X65030000Y-90805000D03*
%TO.P,U1,16,24_A10_TX6_SCL2*%
%TO.N,Net-(DG452_0-S_1)*%
X67570000Y-90805000D03*
%TO.P,U1,17,25_A11_RX6_SDA2*%
%TO.N,Net-(DG452_0-D_4)*%
X70110000Y-90805000D03*
%TO.P,U1,18,26_A12_MOSI1*%
%TO.N,Net-(DG452_0-S_2)*%
X72650000Y-90805000D03*
%TO.P,U1,19,27_A13_SCK1*%
%TO.N,Net-(DG452_0-D_3)*%
X75190000Y-90805000D03*
%TO.P,U1,20,28_RX7*%
%TO.N,unconnected-(U1-28_RX7-Pad20)*%
X77730000Y-90805000D03*
%TO.P,U1,21,29_TX7*%
%TO.N,unconnected-(U1-29_TX7-Pad21)*%
X80270000Y-90805000D03*
%TO.P,U1,22,30_CRX3*%
%TO.N,unconnected-(U1-30_CRX3-Pad22)*%
X82810000Y-90805000D03*
%TO.P,U1,23,31_CTX3*%
%TO.N,unconnected-(U1-31_CTX3-Pad23)*%
X85350000Y-90805000D03*
%TO.P,U1,24,32_OUT1B*%
%TO.N,unconnected-(U1-32_OUT1B-Pad24)*%
X87890000Y-90805000D03*
%TO.P,U1,25,33_MCLK2*%
%TO.N,unconnected-(U1-33_MCLK2-Pad25)*%
X87890000Y-75565000D03*
%TO.P,U1,26,34_RX8*%
%TO.N,unconnected-(U1-34_RX8-Pad26)*%
X85350000Y-75565000D03*
%TO.P,U1,27,35_TX8*%
%TO.N,unconnected-(U1-35_TX8-Pad27)*%
X82810000Y-75565000D03*
%TO.P,U1,28,36_CS*%
%TO.N,unconnected-(U1-36_CS-Pad28)*%
X80270000Y-75565000D03*
%TO.P,U1,29,37_CS*%
%TO.N,unconnected-(U1-37_CS-Pad29)*%
X77730000Y-75565000D03*
%TO.P,U1,30,38_CS1_IN1*%
%TO.N,Net-(DG452_1-D_3)*%
X75190000Y-75565000D03*
%TO.P,U1,31,39_MISO1_OUT1A*%
%TO.N,Net-(DG452_1-S_2)*%
X72650000Y-75565000D03*
%TO.P,U1,32,40_A16*%
%TO.N,Net-(DG452_1-D_4)*%
X70110000Y-75565000D03*
%TO.P,U1,33,41_A17*%
%TO.N,Net-(DG452_1-S_1)*%
X67570000Y-75565000D03*
%TO.P,U1,34,GND*%
%TO.N,unconnected-(U1-GND-Pad34)*%
X65030000Y-75565000D03*
%TO.P,U1,35,13_SCK_LED*%
%TO.N,unconnected-(U1-13_SCK_LED-Pad35)*%
X62490000Y-75565000D03*
%TO.P,U1,36,14_A0_TX3_SPDIF_OUT*%
%TO.N,Net-(DG45_4-D_4)*%
X59950000Y-75565000D03*
%TO.P,U1,37,15_A1_RX3_SPDIF_IN*%
%TO.N,Net-(DG45_4-S_1)*%
X57410000Y-75565000D03*
%TO.P,U1,38,16_A2_RX4_SCL1*%
%TO.N,Net-(DG452_3-D_3)*%
X54870000Y-75565000D03*
%TO.P,U1,39,17_A3_TX4_SDA1*%
%TO.N,Net-(DG452_3-S_2)*%
X52330000Y-75565000D03*
%TO.P,U1,40,18_A4_SDA*%
%TO.N,Net-(DG452_3-D_4)*%
X49790000Y-75565000D03*
%TO.P,U1,41,19_A5_SCL*%
%TO.N,Net-(DG452_3-S_1)*%
X47250000Y-75565000D03*
%TO.P,U1,42,20_A6_TX5_LRCLK1*%
%TO.N,Net-(DG452_2-D_3)*%
X44710000Y-75565000D03*
%TO.P,U1,43,21_A7_RX5_BCLK1*%
%TO.N,Net-(DG452_2-S_2)*%
X42170000Y-75565000D03*
%TO.P,U1,44,22_A8_CTX1*%
%TO.N,Net-(DG452_2-D_4)*%
X39630000Y-75565000D03*
%TO.P,U1,45,23_A9_CRX1_MCLK1*%
%TO.N,Net-(DG452_2-S_1)*%
X37090000Y-75565000D03*
%TO.P,U1,46,3V3*%
%TO.N,Net-(BOARDSEL_CMP1-VCC)*%
X34550000Y-75565000D03*
%TO.P,U1,47,GND*%
%TO.N,GND*%
X32010000Y-75565000D03*
%TO.P,U1,48,VIN*%
%TO.N,Net-(JP23-B)*%
X29470000Y-75565000D03*
%TO.P,U1,49,VUSB*%
%TO.N,unconnected-(U1-VUSB-Pad49)*%
X32010000Y-78105000D03*
%TO.P,U1,50,VBAT*%
%TO.N,unconnected-(U1-VBAT-Pad50)*%
X75190000Y-88265000D03*
%TO.P,U1,51,3V3*%
%TO.N,unconnected-(U1-3V3-Pad51)*%
X75190000Y-85725000D03*
%TO.P,U1,52,GND*%
%TO.N,unconnected-(U1-GND-Pad52)*%
X75190000Y-83185000D03*
%TO.P,U1,53,PROGRAM*%
%TO.N,unconnected-(U1-PROGRAM-Pad53)*%
X75190000Y-80645000D03*
%TO.P,U1,54,ON_OFF*%
%TO.N,unconnected-(U1-ON_OFF-Pad54)*%
X75190000Y-78105000D03*
D24*
%TO.P,U1,55,5V*%
%TO.N,unconnected-(U1-5V-Pad55)*%
X35769200Y-87754200D03*
D25*
%TO.P,U1,56,D-*%
%TO.N,unconnected-(U1-D--Pad56)*%
X38309200Y-87754200D03*
%TO.P,U1,57,D+*%
%TO.N,unconnected-(U1-D+-Pad57)*%
X40849200Y-87754200D03*
%TO.P,U1,58,GND*%
%TO.N,unconnected-(U1-GND-Pad58)*%
X43389200Y-87754200D03*
%TO.P,U1,59,GND*%
%TO.N,unconnected-(U1-GND-Pad59)*%
X45929200Y-87754200D03*
D26*
%TO.P,U1,60,R+*%
%TO.N,unconnected-(U1-R+-Pad60)*%
X42440000Y-78003400D03*
D27*
%TO.P,U1,61,LED*%
%TO.N,unconnected-(U1-LED-Pad61)*%
X42440000Y-80003400D03*
%TO.P,U1,62,T-*%
%TO.N,unconnected-(U1-T--Pad62)*%
X42440000Y-82003400D03*
%TO.P,U1,63,T+*%
%TO.N,unconnected-(U1-T+-Pad63)*%
X44440000Y-82003400D03*
%TO.P,U1,64,GND*%
%TO.N,unconnected-(U1-GND-Pad64)*%
X44440000Y-80003400D03*
%TO.P,U1,65,R-*%
%TO.N,unconnected-(U1-R--Pad65)*%
X44440000Y-78003400D03*
%TO.P,U1,66,D-*%
%TO.N,unconnected-(U1-D--Pad66)*%
X30200000Y-81915000D03*
%TO.P,U1,67,D+*%
%TO.N,unconnected-(U1-D+-Pad67)*%
X30200000Y-84455000D03*
%TD*%
D12*
%TO.P,BOARDSEL_CMP1,1,1A*%
%TO.N,Net-(BOARDSEL_CMP1-1A)*%
X161620000Y-97345000D03*
D13*
%TO.P,BOARDSEL_CMP1,2,1B*%
%TO.N,Net-(BOARDSEL_CMP1-1B)*%
X161620000Y-94805000D03*
%TO.P,BOARDSEL_CMP1,3,1Y*%
%TO.N,Net-(BOARDSEL_CMP1-1Y)*%
X161620000Y-92265000D03*
%TO.P,BOARDSEL_CMP1,4,2Y*%
%TO.N,Net-(BOARDSEL_CMP1-2Y)*%
X161620000Y-89725000D03*
%TO.P,BOARDSEL_CMP1,5,2A*%
%TO.N,Net-(BOARDSEL_CMP1-2A)*%
X161620000Y-87185000D03*
%TO.P,BOARDSEL_CMP1,6,2B*%
%TO.N,Net-(BOARDSEL_CMP1-2B)*%
X161620000Y-84645000D03*
%TO.P,BOARDSEL_CMP1,7,GND*%
%TO.N,GND*%
X161620000Y-82105000D03*
%TO.P,BOARDSEL_CMP1,8,3A*%
%TO.N,Net-(BOARDSEL_CMP1-3A)*%
X153680000Y-82105000D03*
%TO.P,BOARDSEL_CMP1,9,3B*%
%TO.N,Net-(BOARDSEL_CMP1-3B)*%
X153680000Y-84645000D03*
%TO.P,BOARDSEL_CMP1,10,3Y*%
%TO.N,Net-(BOARDSEL_CMP1-3Y)*%
X153680000Y-87185000D03*
%TO.P,BOARDSEL_CMP1,11,4Y*%
%TO.N,Net-(BOARDSEL_CMP1-4Y)*%
X153680000Y-89725000D03*
%TO.P,BOARDSEL_CMP1,12,4A*%
%TO.N,Net-(BOARDSEL_CMP1-4A)*%
X153680000Y-92265000D03*
%TO.P,BOARDSEL_CMP1,13,4B*%
%TO.N,Net-(BOARDSEL_CMP1-4B)*%
X153680000Y-94805000D03*
%TO.P,BOARDSEL_CMP1,14,VCC*%
%TO.N,Net-(BOARDSEL_CMP1-VCC)*%
X153680000Y-97345000D03*
%TD*%
D10*
%TO.P,U14,1,VCC*%
%TO.N,Net-(BOARDSEL_CMP1-VCC)*%
X193340000Y-18185000D03*
D11*
%TO.P,U14,2,GND*%
%TO.N,GND*%
X195880000Y-18185000D03*
%TO.P,U14,3,OUT*%
%TO.N,Net-(JP13-B)*%
X198420000Y-18185000D03*
%TD*%
D15*
%TO.P,JP56,1,A*%
%TO.N,Net-(JP17-B)*%
X52780000Y-29160000D03*
D16*
%TO.P,JP56,2,B*%
%TO.N,Net-(DG452_2-D_1)*%
X52780000Y-30610000D03*
%TD*%
D15*
%TO.P,JP62,1,A*%
%TO.N,Net-(JP11-B)*%
X67780000Y-29135000D03*
D16*
%TO.P,JP62,2,B*%
%TO.N,Net-(DG452_3-D_2)*%
X67780000Y-30585000D03*
%TD*%
D10*
%TO.P,U4,1,VCC*%
%TO.N,Net-(BOARDSEL_CMP1-VCC)*%
X53340000Y-18145000D03*
D11*
%TO.P,U4,2,GND*%
%TO.N,GND*%
X55880000Y-18145000D03*
%TO.P,U4,3,OUT*%
%TO.N,Net-(JP45-B)*%
X58420000Y-18145000D03*
%TD*%
D19*
%TO.P,JP26,1,A*%
%TO.N,GND*%
X147650000Y-40200000D03*
D20*
%TO.P,JP26,2,B*%
%TO.N,Net-(JP26-B)*%
X149100000Y-40200000D03*
%TD*%
D28*
%TO.N,Net-(BOARDSEL_CMP1-3B)*%
X134380000Y-89085000D03*
%TO.N,Net-(BOARDSEL_CMP1-4A)*%
X172680000Y-37285000D03*
%TO.N,Net-(BOARDSEL_CMP1-2A)*%
X172680000Y-41285000D03*
%TO.N,Net-(BOARDSEL_CMP1-4B)*%
X134380000Y-84885000D03*
%TO.N,Net-(BOARDSEL_CMP1-1A)*%
X172680000Y-43285000D03*
%TO.N,Net-(BOARDSEL_CMP1-1B)*%
X134380000Y-98285000D03*
%TO.N,Net-(BOARDSEL_CMP1-2B)*%
X134380000Y-93485000D03*
%TO.N,GND*%
X146000000Y-37400000D03*
X146000000Y-34600000D03*
X28959852Y-37313382D03*
X118300000Y-68335000D03*
X118300000Y-55835000D03*
X146000000Y-31800000D03*
X146000000Y-25600000D03*
X118300000Y-92835000D03*
X171580000Y-47285000D03*
X118400000Y-44235000D03*
X146000000Y-28700000D03*
X130680000Y-91685000D03*
X118300000Y-80735000D03*
X130680000Y-83185000D03*
X130680000Y-96685000D03*
X130680000Y-87185000D03*
X146000000Y-40200000D03*
X31573235Y-39926765D03*
%TO.N,Net-(BOARDSEL_CMP1-VCC)*%
X31600910Y-40726288D03*
X119500000Y-91235000D03*
X172680000Y-59285000D03*
X137980000Y-83185000D03*
X119600000Y-42735000D03*
X137980000Y-87085000D03*
X137980000Y-96685000D03*
X119600000Y-54135000D03*
X137980000Y-91685000D03*
X119600000Y-79135000D03*
X28000000Y-45900000D03*
X119600000Y-66535000D03*
%TO.N,Net-(BOARDSEL_CMP1-3A)*%
X172680000Y-39285000D03*
%TO.N,Net-(BOARDSEL_ENABLE1-1Y)*%
X113580000Y-40985000D03*
X113580000Y-89585000D03*
X123380000Y-39285000D03*
X113480000Y-57385000D03*
X113580000Y-82385000D03*
X113580000Y-64985000D03*
X113580000Y-77485000D03*
X113480000Y-52385000D03*
X113580000Y-69885000D03*
X113580000Y-94485000D03*
X113580000Y-45885000D03*
%TO.N,Net-(DG45_4-S_1)*%
X87480000Y-65985000D03*
X174380000Y-67285000D03*
X117080000Y-47385000D03*
X74080000Y-52585000D03*
%TO.N,Net-(DG45_4-D_4)*%
X88080000Y-65385000D03*
X76580000Y-52585000D03*
X174380000Y-65285000D03*
X122180000Y-47385000D03*
%TO.N,Net-(DG452_0-D_3)*%
X77980000Y-71185000D03*
X41080000Y-52285000D03*
X122080000Y-88185000D03*
X174380000Y-93185000D03*
%TO.N,Net-(DG452_0-D_4)*%
X76484322Y-71985000D03*
X122080000Y-95985000D03*
X35980000Y-52285000D03*
X174380000Y-97285000D03*
%TO.N,Net-(DG452_0-S_1)*%
X33980000Y-52285000D03*
X174380000Y-99285000D03*
X117080000Y-95885000D03*
X75780000Y-72385000D03*
%TO.N,Net-(DG452_0-S_2)*%
X38480000Y-52285000D03*
X117080000Y-88185000D03*
X174380000Y-95185000D03*
X77279997Y-71585000D03*
%TO.N,Net-(DG452_1-D_4)*%
X79410853Y-70385000D03*
X122080000Y-83985000D03*
X46180000Y-52385000D03*
X174380000Y-89085000D03*
%TO.N,Net-(DG452_1-S_1)*%
X117080000Y-83985000D03*
X174380000Y-91185000D03*
X43580000Y-52285000D03*
X78710850Y-70785000D03*
%TO.N,Net-(DG452_1-S_2)*%
X174380000Y-87185000D03*
X48680000Y-52385000D03*
X80210239Y-70032000D03*
X117080000Y-75985000D03*
%TO.N,Net-(DG452_1-D_3)*%
X80873710Y-69585000D03*
X122180000Y-75985000D03*
X51280000Y-52385000D03*
X174380000Y-85185000D03*
%TO.N,Net-(DG452_2-D_3)*%
X122180000Y-66485000D03*
X83928856Y-67985000D03*
X61380000Y-52485000D03*
X174380000Y-77285000D03*
%TO.N,Net-(DG452_2-S_2)*%
X174380000Y-79285000D03*
X117080000Y-66485000D03*
X83128853Y-68385000D03*
X58880000Y-52485000D03*
%TO.N,Net-(DG452_2-D_4)*%
X56280000Y-52485000D03*
X82390558Y-68785000D03*
X174380000Y-81385000D03*
X122180000Y-71385000D03*
%TO.N,Net-(DG452_2-S_1)*%
X53780000Y-52485000D03*
X174380000Y-83285000D03*
X81645669Y-69185000D03*
X117080000Y-71285000D03*
%TO.N,Net-(DG452_3-S_2)*%
X86149499Y-66888263D03*
X68980000Y-52485000D03*
X116980000Y-53985000D03*
X174380000Y-71185000D03*
%TO.N,Net-(DG452_3-D_3)*%
X122080000Y-53885000D03*
X86817278Y-66447722D03*
X174380000Y-69185000D03*
X71580000Y-52585000D03*
%TO.N,Net-(DG452_3-D_4)*%
X122080000Y-58785000D03*
X174380000Y-73285000D03*
X85364651Y-67185000D03*
X66480000Y-52485000D03*
%TO.N,Net-(DG452_3-S_1)*%
X116980000Y-58785000D03*
X174380000Y-75285000D03*
X63880000Y-52485000D03*
X84632310Y-67585000D03*
%TO.N,Net-(JP10-B)*%
X70280000Y-28085000D03*
%TO.N,Net-(JP11-B)*%
X67780000Y-28085000D03*
%TO.N,Net-(JP12-B)*%
X65280000Y-28085000D03*
%TO.N,Net-(JP13-B)*%
X62780000Y-28085000D03*
%TO.N,Net-(JP14-B)*%
X60280000Y-28085000D03*
%TO.N,Net-(JP15-B)*%
X57780000Y-28085000D03*
%TO.N,Net-(JP16-B)*%
X55280000Y-28085000D03*
%TO.N,Net-(JP17-B)*%
X52780000Y-28085000D03*
%TO.N,Net-(JP18-B)*%
X50280000Y-28085000D03*
%TO.N,Net-(JP19-B)*%
X47780000Y-28085000D03*
%TO.N,Net-(JP20-B)*%
X45280000Y-28085000D03*
%TO.N,Net-(JP21-B)*%
X42780000Y-28085000D03*
%TO.N,Net-(JP22-B)*%
X40280000Y-28085000D03*
%TO.N,Net-(JP23-B)*%
X40500000Y-83400000D03*
%TO.N,Net-(JP45-B)*%
X37780000Y-28085000D03*
%TO.N,Net-(JP46-B)*%
X36280000Y-28085000D03*
%TO.N,Net-(JP47-B)*%
X34025000Y-28685000D03*
%TO.N,Net-(J2-Pin_9)*%
X172680000Y-53285000D03*
X28200000Y-40200000D03*
%TO.N,Net-(JP25-B)*%
X72780000Y-28085000D03*
%TO.N,Net-(JP26-B)*%
X75280000Y-28085000D03*
%TD*%
D29*
%TO.N,Net-(DG452_0-S_3)*%
X112525686Y-84785000D02*
X114425686Y-86685000D01*
X114425686Y-86685000D02*
X118940000Y-86685000D01*
X101045686Y-84685000D02*
X102580000Y-84685000D01*
X98380000Y-82019314D02*
X101045686Y-84685000D01*
X98380000Y-60774942D02*
X98380000Y-82019314D01*
X102580000Y-84685000D02*
X102680000Y-84785000D01*
X80190058Y-42585000D02*
X98380000Y-60774942D01*
X120825000Y-88570000D02*
X120825000Y-89555000D01*
X102680000Y-84785000D02*
X112525686Y-84785000D01*
X38180000Y-38185000D02*
X42580000Y-42585000D01*
X38180000Y-32685000D02*
X38180000Y-38185000D01*
X40280000Y-30585000D02*
X38180000Y-32685000D01*
X118940000Y-86685000D02*
X120825000Y-88570000D01*
X42580000Y-42585000D02*
X80190058Y-42585000D01*
%TO.N,Net-(DG452_1-D_1)*%
X42780000Y-30585000D02*
X44800000Y-32605000D01*
X44800000Y-32605000D02*
X44800000Y-40465000D01*
X44800000Y-40465000D02*
X43080000Y-42185000D01*
X43080000Y-42185000D02*
X80355744Y-42185000D01*
X104330000Y-80135000D02*
X115430000Y-80135000D01*
X80355744Y-42185000D02*
X98780000Y-60609256D01*
X98780000Y-60609256D02*
X98780000Y-74585000D01*
X98780000Y-74585000D02*
X104330000Y-80135000D01*
X115430000Y-80135000D02*
X115745000Y-80450000D01*
X115745000Y-80450000D02*
X115745000Y-82410000D01*
%TO.N,Net-(BOARDSEL_CMP1-2Y)*%
X157508420Y-89725000D02*
X161620000Y-89725000D01*
X149560000Y-94765000D02*
X152468420Y-94765000D01*
X152468420Y-94765000D02*
X157508420Y-89725000D01*
%TO.N,Net-(BOARDSEL_CMP1-3B)*%
X134380000Y-87185000D02*
X134380000Y-89085000D01*
%TO.N,Net-(BOARDSEL_CMP1-4A)*%
X152795000Y-81738420D02*
X153313420Y-81220000D01*
X172680000Y-37285000D02*
X172580000Y-37285000D01*
X127280000Y-95485000D02*
X139648420Y-95485000D01*
X26200000Y-23900000D02*
X27343000Y-23900000D01*
X27343000Y-23900000D02*
X30973235Y-27530235D01*
X139648420Y-95485000D02*
X141648420Y-93485000D01*
X39075000Y-47740000D02*
X40060000Y-48725000D01*
X141648420Y-93485000D02*
X144480000Y-93485000D01*
X39630000Y-97135000D02*
X41280000Y-98785000D01*
X144480000Y-90973420D02*
X149193420Y-86260000D01*
X39075000Y-46275000D02*
X39075000Y-47740000D01*
X154215000Y-81220000D02*
X154965000Y-81970000D01*
X30973235Y-40947142D02*
X31352381Y-41326288D01*
X31352381Y-41326288D02*
X33992858Y-41326288D01*
X150205000Y-86260000D02*
X152795000Y-83670000D01*
X37866570Y-45200000D02*
X38000000Y-45200000D01*
X39630000Y-90805000D02*
X39630000Y-97135000D01*
X176180000Y-37285000D02*
X172680000Y-37285000D01*
X30973235Y-27530235D02*
X30973235Y-40947142D01*
X152795000Y-83670000D02*
X152795000Y-81738420D01*
X38000000Y-45200000D02*
X39075000Y-46275000D01*
X154965000Y-81970000D02*
X154965000Y-90980000D01*
X144480000Y-93485000D02*
X144480000Y-90973420D01*
X149193420Y-86260000D02*
X150205000Y-86260000D01*
X33992858Y-41326288D02*
X37866570Y-45200000D01*
X154965000Y-90980000D02*
X153680000Y-92265000D01*
X41280000Y-98785000D02*
X123980000Y-98785000D01*
X153313420Y-81220000D02*
X154215000Y-81220000D01*
X123980000Y-98785000D02*
X127280000Y-95485000D01*
%TO.N,Net-(BOARDSEL_CMP1-2A)*%
X30173235Y-29295921D02*
X30173235Y-41278514D01*
X176180000Y-41285000D02*
X172680000Y-41285000D01*
X26200000Y-27900000D02*
X28777314Y-27900000D01*
X28777314Y-27900000D02*
X30173235Y-29295921D01*
X31021009Y-42126288D02*
X32600000Y-42126288D01*
X30173235Y-41278514D02*
X31021009Y-42126288D01*
X172680000Y-41285000D02*
X172580000Y-41285000D01*
X33995000Y-47740000D02*
X34980000Y-48725000D01*
X33995000Y-43521288D02*
X33995000Y-47740000D01*
X32600000Y-42126288D02*
X33995000Y-43521288D01*
%TO.N,Net-(BOARDSEL_CMP1-4B)*%
X134380000Y-83185000D02*
X134380000Y-84885000D01*
%TO.N,Net-(BOARDSEL_CMP1-1A)*%
X31200000Y-42870965D02*
X31200000Y-47485000D01*
X172680000Y-43285000D02*
X172580000Y-43285000D01*
X29773235Y-32330235D02*
X29773235Y-41444200D01*
X176180000Y-43285000D02*
X172680000Y-43285000D01*
X27343000Y-29900000D02*
X29773235Y-32330235D01*
X31200000Y-47485000D02*
X32440000Y-48725000D01*
X29773235Y-41444200D02*
X31200000Y-42870965D01*
X26200000Y-29900000D02*
X27343000Y-29900000D01*
%TO.N,Net-(BOARDSEL_CMP1-3Y)*%
X151180000Y-89685000D02*
X153680000Y-87185000D01*
X149560000Y-89685000D02*
X151180000Y-89685000D01*
%TO.N,Net-(BOARDSEL_CMP1-1Y)*%
X157508420Y-92265000D02*
X152468420Y-97305000D01*
X152468420Y-97305000D02*
X149560000Y-97305000D01*
X161620000Y-92265000D02*
X157508420Y-92265000D01*
%TO.N,Net-(BOARDSEL_CMP1-1B)*%
X134380000Y-96685000D02*
X134380000Y-98285000D01*
X134380000Y-98285000D02*
X134380000Y-98185000D01*
%TO.N,Net-(BOARDSEL_CMP1-2B)*%
X134380000Y-93485000D02*
X134380000Y-93385000D01*
X134380000Y-91685000D02*
X134380000Y-93485000D01*
%TO.N,GND*%
X118340000Y-68375000D02*
X118300000Y-68335000D01*
X118340000Y-45935000D02*
X118400000Y-44235000D01*
X132380000Y-83185000D02*
X130680000Y-83185000D01*
X118285000Y-94505000D02*
X119555000Y-94505000D01*
X118285000Y-94505000D02*
X118285000Y-92950000D01*
X118340000Y-44195000D02*
X118400000Y-44135000D01*
X118400000Y-55835000D02*
X118400000Y-55835000D01*
X31573235Y-39926765D02*
X33724707Y-39926765D01*
X28959852Y-37313382D02*
X28400000Y-36753530D01*
X147600000Y-34600000D02*
X146000000Y-34600000D01*
X118300000Y-92835000D02*
X118400000Y-92835000D01*
X147650000Y-25600000D02*
X146000000Y-25600000D01*
X118300000Y-80835000D02*
X118300000Y-80735000D01*
X28400000Y-36753530D02*
X28400000Y-34957000D01*
X171580000Y-47285000D02*
X171480000Y-47285000D01*
X118285000Y-82410000D02*
X118285000Y-80850000D01*
X118285000Y-92950000D02*
X118300000Y-92935000D01*
X176180000Y-47285000D02*
X171580000Y-47285000D01*
X78700000Y-44185000D02*
X80700000Y-46185000D01*
X118400000Y-92835000D02*
X118300000Y-92935000D01*
X130680000Y-96685000D02*
X130580000Y-96685000D01*
X132380000Y-87185000D02*
X130680000Y-87185000D01*
X118300000Y-55835000D02*
X118400000Y-55835000D01*
X118285000Y-80850000D02*
X118300000Y-80835000D01*
X118285000Y-57460000D02*
X118285000Y-55950000D01*
X132380000Y-96685000D02*
X130680000Y-96685000D01*
X37982942Y-44185000D02*
X78700000Y-44185000D01*
X118285000Y-57460000D02*
X119555000Y-57460000D01*
X147600000Y-37400000D02*
X146000000Y-37400000D01*
X118400000Y-80735000D02*
X118300000Y-80835000D01*
X118340000Y-45935000D02*
X119610000Y-45935000D01*
X33724707Y-39926765D02*
X37982942Y-44185000D01*
X27343000Y-33900000D02*
X26200000Y-33900000D01*
X118340000Y-69935000D02*
X118340000Y-68375000D01*
X28400000Y-34957000D02*
X27343000Y-33900000D01*
X132380000Y-91685000D02*
X130680000Y-91685000D01*
X118285000Y-82410000D02*
X119555000Y-82410000D01*
X147675000Y-28700000D02*
X146000000Y-28700000D01*
X118300000Y-92935000D02*
X118300000Y-92835000D01*
X147650000Y-40200000D02*
X146000000Y-40200000D01*
X147700000Y-31800000D02*
X146000000Y-31800000D01*
X118300000Y-55935000D02*
X118300000Y-55835000D01*
X118300000Y-80735000D02*
X118400000Y-80735000D01*
X118340000Y-69935000D02*
X119610000Y-69935000D01*
X118285000Y-55950000D02*
X118300000Y-55935000D01*
X118400000Y-44235000D02*
X118340000Y-44195000D01*
%TO.N,Net-(BOARDSEL_CMP1-VCC)*%
X26200000Y-45900000D02*
X28000000Y-45900000D01*
X119555000Y-91180000D02*
X119500000Y-91235000D01*
X119555000Y-78980000D02*
X119600000Y-78935000D01*
X33958544Y-40726288D02*
X37817256Y-44585000D01*
X119600000Y-53935000D02*
X119600000Y-54135000D01*
X136380000Y-87185000D02*
X137980000Y-87185000D01*
X118285000Y-89555000D02*
X119555000Y-89555000D01*
X172680000Y-59285000D02*
X172580000Y-59285000D01*
X119600000Y-54135000D02*
X119400000Y-54135000D01*
X119555000Y-89555000D02*
X119555000Y-91180000D01*
X119600000Y-79135000D02*
X119400000Y-79135000D01*
X119555000Y-52510000D02*
X119555000Y-53980000D01*
X119600000Y-42635000D02*
X119600000Y-42735000D01*
X119400000Y-54135000D02*
X119500000Y-54035000D01*
X119555000Y-77460000D02*
X119555000Y-78980000D01*
X118340000Y-64985000D02*
X119610000Y-64985000D01*
X67015000Y-47740000D02*
X68000000Y-48725000D01*
X119400000Y-79135000D02*
X119500000Y-79035000D01*
X118285000Y-52510000D02*
X119555000Y-52510000D01*
X67015000Y-46020000D02*
X67015000Y-47740000D01*
X37817256Y-44585000D02*
X65580000Y-44585000D01*
X119600000Y-42735000D02*
X119500000Y-42735000D01*
X119610000Y-40985000D02*
X119610000Y-42625000D01*
X65580000Y-44585000D02*
X67015000Y-46020000D01*
X118340000Y-40985000D02*
X119610000Y-40985000D01*
X119600000Y-78935000D02*
X119600000Y-79135000D01*
X136380000Y-96685000D02*
X137980000Y-96685000D01*
X31600910Y-40726288D02*
X33958544Y-40726288D01*
X119500000Y-42735000D02*
X119600000Y-42635000D01*
X136380000Y-91685000D02*
X137980000Y-91685000D01*
X119610000Y-64985000D02*
X119610000Y-66525000D01*
X119610000Y-66525000D02*
X119600000Y-66535000D01*
X136380000Y-83185000D02*
X137980000Y-83185000D01*
X118285000Y-77460000D02*
X119555000Y-77460000D01*
X119555000Y-53980000D02*
X119600000Y-53935000D01*
X119610000Y-42625000D02*
X119600000Y-42635000D01*
X176180000Y-59285000D02*
X172680000Y-59285000D01*
%TO.N,Net-(BOARDSEL_CMP1-3A)*%
X33827172Y-41726288D02*
X36535000Y-44434116D01*
X148675000Y-94398420D02*
X152463420Y-90610000D01*
X30573235Y-41112828D02*
X31186695Y-41726288D01*
X147680000Y-99185000D02*
X148675000Y-98190000D01*
X172680000Y-39285000D02*
X172580000Y-39285000D01*
X37880000Y-99185000D02*
X147680000Y-99185000D01*
X154055000Y-90610000D02*
X154565000Y-90100000D01*
X30573235Y-29130235D02*
X30573235Y-41112828D01*
X154565000Y-90100000D02*
X154565000Y-82990000D01*
X154565000Y-82990000D02*
X153680000Y-82105000D01*
X26200000Y-25900000D02*
X27343000Y-25900000D01*
X37090000Y-98395000D02*
X37880000Y-99185000D01*
X31186695Y-41726288D02*
X33827172Y-41726288D01*
X152463420Y-90610000D02*
X154055000Y-90610000D01*
X37090000Y-90805000D02*
X37090000Y-98395000D01*
X176180000Y-39285000D02*
X172680000Y-39285000D01*
X148675000Y-98190000D02*
X148675000Y-94398420D01*
X27343000Y-25900000D02*
X30573235Y-29130235D01*
X36535000Y-44434116D02*
X36535000Y-47740000D01*
X36535000Y-47740000D02*
X37520000Y-48725000D01*
%TO.N,Net-(BOARDSEL_ENABLE1-1Y)*%
X123380000Y-39285000D02*
X123420000Y-39325000D01*
X123420000Y-52455000D02*
X123365000Y-52510000D01*
X144640000Y-79685000D02*
X149560000Y-84605000D01*
X114530000Y-64985000D02*
X113580000Y-64985000D01*
X123420000Y-69935000D02*
X123420000Y-77405000D01*
X123365000Y-82410000D02*
X123365000Y-89555000D01*
X113580000Y-69885000D02*
X113630000Y-69935000D01*
X123380000Y-67185000D02*
X123420000Y-67225000D01*
X123365000Y-89555000D02*
X123365000Y-94505000D01*
X123420000Y-45935000D02*
X123420000Y-52455000D01*
X113580000Y-94485000D02*
X113630000Y-94535000D01*
X123365000Y-79670000D02*
X123365000Y-77460000D01*
X113580000Y-57435000D02*
X113630000Y-57435000D01*
X123420000Y-39325000D02*
X123420000Y-45735000D01*
X123365000Y-64930000D02*
X123420000Y-64985000D01*
X113680000Y-57435000D02*
X113480000Y-57385000D01*
X114530000Y-89585000D02*
X113580000Y-89585000D01*
X123365000Y-54300000D02*
X123365000Y-57460000D01*
X123380000Y-79685000D02*
X123365000Y-79670000D01*
X123380000Y-79685000D02*
X144640000Y-79685000D01*
X123365000Y-79700000D02*
X123380000Y-79685000D01*
X123420000Y-67225000D02*
X123420000Y-69935000D01*
X113630000Y-45935000D02*
X113580000Y-45885000D01*
X114530000Y-82435000D02*
X113580000Y-82385000D01*
X123365000Y-82410000D02*
X123365000Y-79700000D01*
X114530000Y-94535000D02*
X113580000Y-94485000D01*
X113580000Y-82385000D02*
X113630000Y-82435000D01*
X123365000Y-52510000D02*
X123365000Y-54270000D01*
X123420000Y-64985000D02*
X123420000Y-67145000D01*
X123365000Y-57460000D02*
X123365000Y-64930000D01*
X114530000Y-57435000D02*
X113680000Y-57435000D01*
X114530000Y-77485000D02*
X113580000Y-77485000D01*
X123365000Y-54270000D02*
X123380000Y-54285000D01*
X114530000Y-45935000D02*
X113630000Y-45935000D01*
X114530000Y-40985000D02*
X113580000Y-40985000D01*
X123420000Y-67145000D02*
X123380000Y-67185000D01*
X113480000Y-52385000D02*
X113580000Y-52485000D01*
X123420000Y-77405000D02*
X123365000Y-77460000D01*
X113480000Y-57385000D02*
X113580000Y-57435000D01*
X114530000Y-52485000D02*
X113480000Y-52385000D01*
X114530000Y-69935000D02*
X113580000Y-69885000D01*
X123380000Y-54285000D02*
X123365000Y-54300000D01*
%TO.N,Net-(DG45_4-S_4)*%
X75280000Y-30610000D02*
X75280000Y-36885000D01*
X82509661Y-36985000D02*
X89159661Y-43635000D01*
X75280000Y-36885000D02*
X75380000Y-36985000D01*
X120880000Y-44985000D02*
X120880000Y-45935000D01*
X89159661Y-43635000D02*
X119530000Y-43635000D01*
X75380000Y-36985000D02*
X82509661Y-36985000D01*
X119530000Y-43635000D02*
X120880000Y-44985000D01*
%TO.N,Net-(DG45_4-S_1)*%
X87480000Y-65985000D02*
X87280000Y-65785000D01*
X176180000Y-67285000D02*
X174380000Y-67285000D01*
X76819315Y-65785000D02*
X65334315Y-54300000D01*
X87280000Y-65785000D02*
X76819315Y-65785000D01*
X26600000Y-54300000D02*
X26200000Y-53900000D01*
X117070000Y-45935000D02*
X117070000Y-47375000D01*
X65334315Y-54300000D02*
X26600000Y-54300000D01*
X117070000Y-47375000D02*
X117080000Y-47385000D01*
%TO.N,Net-(DG45_4-D_4)*%
X65500000Y-53900000D02*
X28700000Y-53900000D01*
X88080000Y-65385000D02*
X76985000Y-65385000D01*
X176180000Y-65285000D02*
X174380000Y-65285000D01*
X122150000Y-47355000D02*
X122180000Y-47385000D01*
X76985000Y-65385000D02*
X65500000Y-53900000D01*
X28700000Y-53900000D02*
X26700000Y-51900000D01*
X122150000Y-45935000D02*
X122150000Y-47355000D01*
X26700000Y-51900000D02*
X26200000Y-51900000D01*
%TO.N,Net-(DG45_4-D_1)*%
X72780000Y-30610000D02*
X72780000Y-35785000D01*
X72780000Y-35785000D02*
X74380000Y-37385000D01*
X115480000Y-49185000D02*
X115800000Y-48865000D01*
X82343976Y-37385000D02*
X82578290Y-37619315D01*
X82578290Y-37619315D02*
X94143975Y-49185000D01*
X115800000Y-48865000D02*
X115800000Y-45935000D01*
X74380000Y-37385000D02*
X82343976Y-37385000D01*
X94143975Y-49185000D02*
X115480000Y-49185000D01*
%TO.N,Net-(DG452_0-D_1)*%
X38148628Y-43785000D02*
X79693001Y-43785000D01*
X32780000Y-38416372D02*
X38148628Y-43785000D01*
X97180000Y-61271999D02*
X97180000Y-96285000D01*
X97180000Y-96285000D02*
X97380000Y-96485000D01*
X32780000Y-30585000D02*
X32780000Y-38416372D01*
X79693001Y-43785000D02*
X97180000Y-61271999D01*
X115745000Y-95785000D02*
X115745000Y-94505000D01*
X97380000Y-96485000D02*
X115045000Y-96485000D01*
X115045000Y-96485000D02*
X115745000Y-95785000D01*
%TO.N,Net-(DG452_0-D_2)*%
X37880000Y-41685000D02*
X37880000Y-42385000D01*
X97980000Y-60940627D02*
X97980000Y-82185000D01*
X37880000Y-42385000D02*
X38480000Y-42985000D01*
X100980000Y-85185000D02*
X112360000Y-85185000D01*
X80024373Y-42985000D02*
X97980000Y-60940627D01*
X115745000Y-88570000D02*
X115745000Y-89555000D01*
X38480000Y-42985000D02*
X80024373Y-42985000D01*
X112360000Y-85185000D02*
X115745000Y-88570000D01*
X97980000Y-82185000D02*
X100980000Y-85185000D01*
X37780000Y-41585000D02*
X37880000Y-41685000D01*
X37780000Y-30585000D02*
X37780000Y-41585000D01*
%TO.N,Net-(DG452_0-D_3)*%
X26200000Y-79900000D02*
X27343000Y-79900000D01*
X27343000Y-79900000D02*
X30900000Y-76343000D01*
X122095000Y-89555000D02*
X122095000Y-88200000D01*
X34715000Y-70985000D02*
X44053628Y-70985000D01*
X44731372Y-71000000D02*
X44746372Y-70985000D01*
X44746372Y-70985000D02*
X77780000Y-70985000D01*
X44053628Y-70985000D02*
X44068628Y-71000000D01*
X30900000Y-74800000D02*
X34715000Y-70985000D01*
X176180000Y-93185000D02*
X174480000Y-93185000D01*
X77780000Y-70985000D02*
X77980000Y-71185000D01*
X44068628Y-71000000D02*
X44731372Y-71000000D01*
X30900000Y-76343000D02*
X30900000Y-74800000D01*
X122095000Y-88200000D02*
X122080000Y-88185000D01*
%TO.N,Net-(DG452_0-D_4)*%
X26306080Y-83900000D02*
X26200000Y-83900000D01*
X35650000Y-75109365D02*
X35650000Y-76020635D01*
X70185000Y-71800000D02*
X38959365Y-71800000D01*
X76385000Y-71785000D02*
X70200000Y-71785000D01*
X76484322Y-71884322D02*
X76385000Y-71785000D01*
X35650000Y-76020635D02*
X32465635Y-79205000D01*
X76484322Y-71985000D02*
X76484322Y-71884322D01*
X70200000Y-71785000D02*
X70185000Y-71800000D01*
X176180000Y-97285000D02*
X174480000Y-97285000D01*
X31001080Y-79205000D02*
X26306080Y-83900000D01*
X122095000Y-95970000D02*
X122080000Y-95985000D01*
X122095000Y-94505000D02*
X122095000Y-95970000D01*
X38959365Y-71800000D02*
X35650000Y-75109365D01*
X32465635Y-79205000D02*
X31001080Y-79205000D01*
%TO.N,Net-(DG452_0-S_4)*%
X35280000Y-40350686D02*
X35280000Y-30585000D01*
X97580000Y-90785000D02*
X97580000Y-61106313D01*
X109480000Y-96085000D02*
X102880000Y-96085000D01*
X113330000Y-92235000D02*
X109480000Y-96085000D01*
X119540000Y-92235000D02*
X113330000Y-92235000D01*
X120825000Y-93520000D02*
X119540000Y-92235000D01*
X102880000Y-96085000D02*
X97580000Y-90785000D01*
X38314314Y-43385000D02*
X35280000Y-40350686D01*
X79858687Y-43385000D02*
X38314314Y-43385000D01*
X97580000Y-61106313D02*
X79858687Y-43385000D01*
X120825000Y-94505000D02*
X120825000Y-93520000D01*
%TO.N,Net-(DG452_0-S_1)*%
X75580000Y-72185000D02*
X74100000Y-72185000D01*
X117015000Y-95820000D02*
X117080000Y-95885000D01*
X75780000Y-72385000D02*
X75580000Y-72185000D01*
X38190000Y-76020635D02*
X30953635Y-83257000D01*
X74085000Y-72200000D02*
X40599999Y-72200000D01*
X26306080Y-85900000D02*
X26200000Y-85900000D01*
X30953635Y-83257000D02*
X28949080Y-83257000D01*
X40599999Y-72200000D02*
X38190000Y-74609999D01*
X38190000Y-74609999D02*
X38190000Y-76020635D01*
X176180000Y-99285000D02*
X174480000Y-99285000D01*
X28949080Y-83257000D02*
X26306080Y-85900000D01*
X74100000Y-72185000D02*
X74085000Y-72200000D01*
X117015000Y-94505000D02*
X117015000Y-95820000D01*
%TO.N,Net-(DG452_0-S_2)*%
X26306080Y-81900000D02*
X26200000Y-81900000D01*
X44897058Y-71400000D02*
X40515000Y-71400000D01*
X33110000Y-76020635D02*
X32126292Y-77004343D01*
X77279997Y-71585000D02*
X77079997Y-71385000D01*
X117015000Y-89555000D02*
X117015000Y-88250000D01*
X40500000Y-71385000D02*
X36614999Y-71385000D01*
X77079997Y-71385000D02*
X44912058Y-71385000D01*
X33110000Y-74889999D02*
X33110000Y-76020635D01*
X176180000Y-95185000D02*
X174480000Y-95185000D01*
X44912058Y-71385000D02*
X44897058Y-71400000D01*
X32126292Y-77004343D02*
X31201737Y-77004343D01*
X36614999Y-71385000D02*
X33110000Y-74889999D01*
X31201737Y-77004343D02*
X26306080Y-81900000D01*
X40515000Y-71400000D02*
X40500000Y-71385000D01*
X117015000Y-88250000D02*
X117080000Y-88185000D01*
%TO.N,Net-(DG452_1-D_2)*%
X101980000Y-74785000D02*
X114055000Y-74785000D01*
X47780000Y-30585000D02*
X47780000Y-40285000D01*
X80687116Y-41385000D02*
X99580000Y-60277884D01*
X99580000Y-60277884D02*
X99580000Y-72385000D01*
X48880000Y-41385000D02*
X80687116Y-41385000D01*
X114055000Y-74785000D02*
X115745000Y-76475000D01*
X115745000Y-76475000D02*
X115745000Y-77460000D01*
X99580000Y-72385000D02*
X101980000Y-74785000D01*
X47780000Y-40285000D02*
X48880000Y-41385000D01*
%TO.N,Net-(DG452_1-S_3)*%
X118735000Y-74385000D02*
X120825000Y-76475000D01*
X50280000Y-39185000D02*
X52080000Y-40985000D01*
X52080000Y-40985000D02*
X80852802Y-40985000D01*
X80852802Y-40985000D02*
X99980000Y-60112198D01*
X99980000Y-60112198D02*
X99980000Y-72219314D01*
X99980000Y-72219314D02*
X102145686Y-74385000D01*
X120825000Y-76475000D02*
X120825000Y-77460000D01*
X102145686Y-74385000D02*
X118735000Y-74385000D01*
X50280000Y-30585000D02*
X50280000Y-39185000D01*
%TO.N,Net-(DG452_1-D_4)*%
X44385000Y-70185000D02*
X44400000Y-70200000D01*
X26306080Y-75900000D02*
X27925343Y-74280737D01*
X27925343Y-73625343D02*
X31365686Y-70185000D01*
X44400000Y-70200000D02*
X44415000Y-70185000D01*
X122095000Y-82410000D02*
X122095000Y-83970000D01*
X31365686Y-70185000D02*
X44385000Y-70185000D01*
X176180000Y-89185000D02*
X174480000Y-89185000D01*
X79210853Y-70185000D02*
X79410853Y-70385000D01*
X27925343Y-74280737D02*
X27925343Y-73625343D01*
X44415000Y-70185000D02*
X79210853Y-70185000D01*
X122095000Y-83970000D02*
X122080000Y-83985000D01*
X26200000Y-75900000D02*
X26306080Y-75900000D01*
%TO.N,Net-(DG452_1-S_1)*%
X44565686Y-70600000D02*
X44580686Y-70585000D01*
X176180000Y-91185000D02*
X174480000Y-91185000D01*
X44580686Y-70585000D02*
X78510850Y-70585000D01*
X117015000Y-82410000D02*
X117015000Y-83920000D01*
X28325343Y-73791029D02*
X31531372Y-70585000D01*
X27343000Y-77900000D02*
X28325343Y-76917657D01*
X44219314Y-70585000D02*
X44234314Y-70600000D01*
X117015000Y-83920000D02*
X117080000Y-83985000D01*
X28325343Y-76917657D02*
X28325343Y-73791029D01*
X44234314Y-70600000D02*
X44565686Y-70600000D01*
X26200000Y-77900000D02*
X27343000Y-77900000D01*
X31531372Y-70585000D02*
X44219314Y-70585000D01*
X78510850Y-70585000D02*
X78710850Y-70785000D01*
%TO.N,Net-(DG452_1-S_2)*%
X117015000Y-77460000D02*
X117015000Y-76050000D01*
X31200000Y-69785000D02*
X79963239Y-69785000D01*
X79963239Y-69785000D02*
X80210239Y-70032000D01*
X176180000Y-87185000D02*
X174480000Y-87185000D01*
X26200000Y-73900000D02*
X27085000Y-73900000D01*
X117015000Y-76050000D02*
X117080000Y-75985000D01*
X27085000Y-73900000D02*
X31200000Y-69785000D01*
%TO.N,Net-(DG452_1-S_4)*%
X80521430Y-41785000D02*
X99180000Y-60443570D01*
X45680000Y-41785000D02*
X80521430Y-41785000D01*
X45280000Y-41385000D02*
X45680000Y-41785000D01*
X120825000Y-80130000D02*
X120825000Y-82410000D01*
X99180000Y-74419314D02*
X104495686Y-79735000D01*
X104495686Y-79735000D02*
X120430000Y-79735000D01*
X45280000Y-30585000D02*
X45280000Y-41385000D01*
X120430000Y-79735000D02*
X120825000Y-80130000D01*
X99180000Y-60443570D02*
X99180000Y-74419314D01*
%TO.N,Net-(DG452_1-D_3)*%
X28038000Y-70962000D02*
X29615000Y-69385000D01*
X27138000Y-70962000D02*
X28038000Y-70962000D01*
X80673710Y-69385000D02*
X80873710Y-69585000D01*
X122095000Y-77460000D02*
X122095000Y-76070000D01*
X26200000Y-71900000D02*
X27138000Y-70962000D01*
X29615000Y-69385000D02*
X80673710Y-69385000D01*
X122095000Y-76070000D02*
X122180000Y-75985000D01*
X176180000Y-85185000D02*
X174480000Y-85185000D01*
%TO.N,Net-(DG452_2-S_4)*%
X55780000Y-40185000D02*
X81184174Y-40185000D01*
X120880000Y-68785000D02*
X120880000Y-69935000D01*
X55280000Y-39685000D02*
X55780000Y-40185000D01*
X119830000Y-67735000D02*
X120880000Y-68785000D01*
X101730000Y-67735000D02*
X119830000Y-67735000D01*
X100780000Y-66785000D02*
X101730000Y-67735000D01*
X100780000Y-59780826D02*
X100780000Y-66785000D01*
X55280000Y-30610000D02*
X55280000Y-39685000D01*
X81184174Y-40185000D02*
X100780000Y-59780826D01*
%TO.N,Net-(DG452_2-D_3)*%
X176180000Y-77285000D02*
X174480000Y-77285000D01*
X26200000Y-63900000D02*
X71937256Y-63900000D01*
X71937256Y-63900000D02*
X75822256Y-67785000D01*
X75822256Y-67785000D02*
X83728856Y-67785000D01*
X122150000Y-64985000D02*
X122150000Y-66455000D01*
X122150000Y-66455000D02*
X122180000Y-66485000D01*
X83728856Y-67785000D02*
X83928856Y-67985000D01*
%TO.N,Net-(DG452_2-S_3)*%
X120180000Y-61685000D02*
X120880000Y-62385000D01*
X60180000Y-38685000D02*
X60880000Y-39385000D01*
X60180000Y-30710000D02*
X60180000Y-38685000D01*
X60880000Y-39385000D02*
X81515546Y-39385000D01*
X60280000Y-30610000D02*
X60180000Y-30710000D01*
X120880000Y-62385000D02*
X120880000Y-64985000D01*
X103815546Y-61685000D02*
X120180000Y-61685000D01*
X81515546Y-39385000D02*
X103815546Y-61685000D01*
%TO.N,Net-(DG452_2-S_2)*%
X26200000Y-65900000D02*
X73371570Y-65900000D01*
X75656570Y-68185000D02*
X82928853Y-68185000D01*
X117070000Y-64985000D02*
X117070000Y-66475000D01*
X176180000Y-79285000D02*
X174480000Y-79285000D01*
X117070000Y-66475000D02*
X117080000Y-66485000D01*
X73371570Y-65900000D02*
X75656570Y-68185000D01*
X82928853Y-68185000D02*
X83128853Y-68385000D01*
%TO.N,Net-(DG452_2-D_4)*%
X122150000Y-71355000D02*
X122180000Y-71385000D01*
X176180000Y-81285000D02*
X174480000Y-81285000D01*
X26200000Y-67900000D02*
X26885000Y-68585000D01*
X82190558Y-68585000D02*
X82390558Y-68785000D01*
X26885000Y-68585000D02*
X82190558Y-68585000D01*
X122150000Y-69935000D02*
X122150000Y-71355000D01*
%TO.N,Net-(DG452_2-S_1)*%
X27115000Y-68985000D02*
X81445669Y-68985000D01*
X81445669Y-68985000D02*
X81645669Y-69185000D01*
X117070000Y-71275000D02*
X117080000Y-71285000D01*
X26200000Y-69900000D02*
X27115000Y-68985000D01*
X176180000Y-83285000D02*
X174480000Y-83285000D01*
X117070000Y-69935000D02*
X117070000Y-71275000D01*
%TO.N,Net-(DG452_2-D_1)*%
X100380000Y-72053628D02*
X102311372Y-73985000D01*
X115800000Y-73365000D02*
X115800000Y-69935000D01*
X52780000Y-39585000D02*
X53780000Y-40585000D01*
X53780000Y-40585000D02*
X81018488Y-40585000D01*
X100380000Y-59946512D02*
X100380000Y-72053628D01*
X115180000Y-73985000D02*
X115800000Y-73365000D01*
X102311372Y-73985000D02*
X115180000Y-73985000D01*
X52780000Y-30610000D02*
X52780000Y-39585000D01*
X81018488Y-40585000D02*
X100380000Y-59946512D01*
%TO.N,Net-(DG452_2-D_2)*%
X101895686Y-67335000D02*
X114435000Y-67335000D01*
X57780000Y-39385000D02*
X58180000Y-39785000D01*
X115800000Y-65970000D02*
X115800000Y-64985000D01*
X58180000Y-39785000D02*
X81349860Y-39785000D01*
X57780000Y-30610000D02*
X57780000Y-39385000D01*
X101180000Y-59615140D02*
X101180000Y-66619314D01*
X101180000Y-66619314D02*
X101895686Y-67335000D01*
X114435000Y-67335000D02*
X115800000Y-65970000D01*
X81349860Y-39785000D02*
X101180000Y-59615140D01*
%TO.N,Net-(DG452_3-D_2)*%
X67780000Y-30585000D02*
X67780000Y-37685000D01*
X115380000Y-54685000D02*
X115745000Y-54320000D01*
X98512604Y-54685000D02*
X115380000Y-54685000D01*
X115745000Y-54320000D02*
X115745000Y-52510000D01*
X67780000Y-37685000D02*
X68280000Y-38185000D01*
X68280000Y-38185000D02*
X82012604Y-38185000D01*
X82012604Y-38185000D02*
X98512604Y-54685000D01*
%TO.N,Net-(DG452_3-S_2)*%
X117015000Y-52510000D02*
X117015000Y-53950000D01*
X67634314Y-57900000D02*
X26200000Y-57900000D01*
X86149499Y-66888263D02*
X85846236Y-66585000D01*
X117015000Y-53950000D02*
X116980000Y-53985000D01*
X174480000Y-71285000D02*
X174380000Y-71185000D01*
X85846236Y-66585000D02*
X76319314Y-66585000D01*
X176180000Y-71285000D02*
X174480000Y-71285000D01*
X76319314Y-66585000D02*
X67634314Y-57900000D01*
%TO.N,Net-(DG452_3-D_1)*%
X81681232Y-38985000D02*
X103981232Y-61285000D01*
X115745000Y-59220000D02*
X115745000Y-57460000D01*
X62880000Y-38985000D02*
X81681232Y-38985000D01*
X103981232Y-61285000D02*
X113680000Y-61285000D01*
X113680000Y-61285000D02*
X115745000Y-59220000D01*
X62780000Y-38885000D02*
X62880000Y-38985000D01*
X62780000Y-30585000D02*
X62780000Y-38885000D01*
%TO.N,Net-(DG452_3-S_3)*%
X70280000Y-30585000D02*
X70280000Y-37685000D01*
X82178290Y-37785000D02*
X95278290Y-50885000D01*
X120180000Y-50885000D02*
X120825000Y-51530000D01*
X70280000Y-37685000D02*
X70380000Y-37785000D01*
X120825000Y-51530000D02*
X120825000Y-52510000D01*
X95278290Y-50885000D02*
X120180000Y-50885000D01*
X70380000Y-37785000D02*
X82178290Y-37785000D01*
%TO.N,Net-(DG452_3-S_4)*%
X81846918Y-38585000D02*
X98346918Y-55085000D01*
X65280000Y-37285000D02*
X66580000Y-38585000D01*
X65280000Y-30585000D02*
X65280000Y-37285000D01*
X98346918Y-55085000D02*
X119435000Y-55085000D01*
X120825000Y-56475000D02*
X120825000Y-57460000D01*
X66580000Y-38585000D02*
X81846918Y-38585000D01*
X119435000Y-55085000D02*
X120825000Y-56475000D01*
%TO.N,Net-(DG452_3-D_3)*%
X76485000Y-66185000D02*
X66200000Y-55900000D01*
X86817278Y-66447722D02*
X86554556Y-66185000D01*
X66200000Y-55900000D02*
X26200000Y-55900000D01*
X176180000Y-69285000D02*
X174480000Y-69285000D01*
X122095000Y-52510000D02*
X122095000Y-53870000D01*
X86554556Y-66185000D02*
X76485000Y-66185000D01*
X174480000Y-69285000D02*
X174380000Y-69185000D01*
X122095000Y-53870000D02*
X122080000Y-53885000D01*
%TO.N,Net-(DG452_3-D_4)*%
X26200000Y-59900000D02*
X69068628Y-59900000D01*
X85164651Y-66985000D02*
X85364651Y-67185000D01*
X122095000Y-58770000D02*
X122080000Y-58785000D01*
X176180000Y-73285000D02*
X174480000Y-73285000D01*
X122095000Y-57460000D02*
X122095000Y-58770000D01*
X76153628Y-66985000D02*
X85164651Y-66985000D01*
X69068628Y-59900000D02*
X76153628Y-66985000D01*
%TO.N,Net-(DG452_3-S_1)*%
X174380000Y-75285000D02*
X174480000Y-75285000D01*
X26200000Y-61900000D02*
X70502942Y-61900000D01*
X176180000Y-75285000D02*
X174380000Y-75285000D01*
X84432310Y-67385000D02*
X84632310Y-67585000D01*
X117015000Y-57460000D02*
X117015000Y-58750000D01*
X75987942Y-67385000D02*
X84432310Y-67385000D01*
X117015000Y-58750000D02*
X116980000Y-58785000D01*
X70502942Y-61900000D02*
X75987942Y-67385000D01*
%TO.N,Net-(JP10-B)*%
X151900000Y-34400000D02*
X151900000Y-27653628D01*
X149650000Y-35200000D02*
X151100000Y-35200000D01*
X150200000Y-36100000D02*
X151100000Y-35200000D01*
X70280000Y-28085000D02*
X72480000Y-25885000D01*
X153668628Y-25885000D02*
X232920000Y-25885000D01*
X151100000Y-35200000D02*
X151900000Y-34400000D01*
X151900000Y-27653628D02*
X153668628Y-25885000D01*
X132265686Y-36100000D02*
X150200000Y-36100000D01*
X149050000Y-34600000D02*
X149650000Y-35200000D01*
X70280000Y-29135000D02*
X70280000Y-28085000D01*
X72480000Y-25885000D02*
X122050686Y-25885000D01*
X122050686Y-25885000D02*
X132265686Y-36100000D01*
X232920000Y-25885000D02*
X240420000Y-18385000D01*
%TO.N,Net-(JP11-B)*%
X150500000Y-32400000D02*
X151500000Y-31400000D01*
X149150000Y-31800000D02*
X149150000Y-32450000D01*
X69680000Y-27836471D02*
X72031471Y-25485000D01*
X151734315Y-27253628D02*
X153502942Y-25485000D01*
X153502942Y-25485000D02*
X219320000Y-25485000D01*
X219320000Y-25485000D02*
X226420000Y-18385000D01*
X149750000Y-32400000D02*
X150500000Y-32400000D01*
X67780000Y-29135000D02*
X67780000Y-26385000D01*
X151500000Y-27487942D02*
X151734315Y-27253628D01*
X69680000Y-28285000D02*
X69680000Y-27836471D01*
X72031471Y-25485000D02*
X122216372Y-25485000D01*
X149150000Y-31800000D02*
X149750000Y-32400000D01*
X149700000Y-33200000D02*
X150500000Y-32400000D01*
X151500000Y-31400000D02*
X151500000Y-27487942D01*
X148400000Y-33200000D02*
X149700000Y-33200000D01*
X122216372Y-25485000D02*
X129931372Y-33200000D01*
X67780000Y-26385000D02*
X69680000Y-28285000D01*
X129931372Y-33200000D02*
X148400000Y-33200000D01*
%TO.N,Net-(JP12-B)*%
X68514314Y-25085000D02*
X122382058Y-25085000D01*
X65280000Y-25985000D02*
X67180000Y-27885000D01*
X140733147Y-29266853D02*
X141766294Y-30300000D01*
X141766294Y-30300000D02*
X147600000Y-30300000D01*
X122382058Y-25085000D02*
X124948529Y-27651471D01*
X151100000Y-28700000D02*
X151100000Y-27322256D01*
X67180000Y-26419314D02*
X68514314Y-25085000D01*
X147600000Y-30300000D02*
X149500000Y-30300000D01*
X148280000Y-30300000D02*
X147600000Y-30300000D01*
X65280000Y-29135000D02*
X65280000Y-25985000D01*
X149500000Y-30300000D02*
X150400000Y-29400000D01*
X150400000Y-29400000D02*
X151100000Y-28700000D01*
X151100000Y-27322256D02*
X153337256Y-25085000D01*
X67180000Y-27885000D02*
X67180000Y-26419314D01*
X205520000Y-25085000D02*
X212420000Y-18185000D01*
X153337256Y-25085000D02*
X205520000Y-25085000D01*
X139117766Y-27651471D02*
X140733147Y-29266853D01*
X124948529Y-27651471D02*
X139117766Y-27651471D01*
X149125000Y-28700000D02*
X149825000Y-29400000D01*
X149825000Y-29400000D02*
X150400000Y-29400000D01*
%TO.N,Net-(JP13-B)*%
X64855736Y-27660736D02*
X64880000Y-27636472D01*
X125062744Y-27200000D02*
X150656570Y-27200000D01*
X62780000Y-25585000D02*
X64855736Y-27660736D01*
X150015000Y-24685000D02*
X153900000Y-24685000D01*
X149100000Y-25600000D02*
X150015000Y-24685000D01*
X62780000Y-29135000D02*
X62780000Y-25585000D01*
X153900000Y-24685000D02*
X191920000Y-24685000D01*
X66014314Y-24685000D02*
X122547744Y-24685000D01*
X150656570Y-27200000D02*
X153171570Y-24685000D01*
X153171570Y-24685000D02*
X153900000Y-24685000D01*
X191920000Y-24685000D02*
X198420000Y-18185000D01*
X64880000Y-25819314D02*
X66014314Y-24685000D01*
X64880000Y-27636472D02*
X64880000Y-25819314D01*
X122547744Y-24685000D02*
X125062744Y-27200000D01*
%TO.N,Net-(JP14-B)*%
X178480000Y-24285000D02*
X184420000Y-18345000D01*
X61380000Y-24285000D02*
X178480000Y-24285000D01*
X60280000Y-25385000D02*
X61380000Y-24285000D01*
X60280000Y-29160000D02*
X60280000Y-25385000D01*
%TO.N,Net-(JP15-B)*%
X170420000Y-18170000D02*
X164705000Y-23885000D01*
X57780000Y-24985000D02*
X57780000Y-29160000D01*
X164705000Y-23885000D02*
X58880000Y-23885000D01*
X170420000Y-18145000D02*
X170420000Y-18170000D01*
X58880000Y-23885000D02*
X57780000Y-24985000D01*
%TO.N,Net-(JP16-B)*%
X55280000Y-29160000D02*
X55280000Y-24485000D01*
X151280000Y-23485000D02*
X156420000Y-18345000D01*
X56280000Y-23485000D02*
X151280000Y-23485000D01*
X55280000Y-24485000D02*
X56280000Y-23485000D01*
%TO.N,Net-(JP17-B)*%
X53880000Y-23085000D02*
X137520000Y-23085000D01*
X137520000Y-23085000D02*
X142420000Y-18185000D01*
X52780000Y-29160000D02*
X52780000Y-24185000D01*
X52780000Y-24185000D02*
X53880000Y-23085000D01*
%TO.N,Net-(JP18-B)*%
X50580000Y-22685000D02*
X124220000Y-22685000D01*
X124220000Y-22685000D02*
X128420000Y-18485000D01*
X50280000Y-29135000D02*
X50280000Y-22985000D01*
X50280000Y-22985000D02*
X50580000Y-22685000D01*
%TO.N,Net-(JP19-B)*%
X47780000Y-29135000D02*
X47780000Y-22585000D01*
X48080000Y-22285000D02*
X109415000Y-22285000D01*
X47780000Y-22585000D02*
X48080000Y-22285000D01*
X110520000Y-22285000D02*
X114420000Y-18385000D01*
X97480000Y-22285000D02*
X110520000Y-22285000D01*
%TO.N,Net-(JP20-B)*%
X97020000Y-21885000D02*
X45780000Y-21885000D01*
X100420000Y-18485000D02*
X97020000Y-21885000D01*
X45280000Y-22385000D02*
X45280000Y-29135000D01*
X45780000Y-21885000D02*
X45280000Y-22385000D01*
%TO.N,Net-(JP21-B)*%
X86420000Y-18345000D02*
X83280000Y-21485000D01*
X83280000Y-21485000D02*
X44627058Y-21485000D01*
X42780000Y-23332058D02*
X42780000Y-29135000D01*
X44627058Y-21485000D02*
X42780000Y-23332058D01*
%TO.N,Net-(JP22-B)*%
X72420000Y-18145000D02*
X69480000Y-21085000D01*
X40280000Y-25266372D02*
X40280000Y-29135000D01*
X44461372Y-21085000D02*
X40280000Y-25266372D01*
X69480000Y-21085000D02*
X44461372Y-21085000D01*
%TO.N,Net-(JP23-B)*%
X29480000Y-75555000D02*
X29470000Y-75565000D01*
X94500000Y-70700000D02*
X80700000Y-84500000D01*
X94500000Y-65933705D02*
X94500000Y-70700000D01*
X82316295Y-53750000D02*
X94500000Y-65933705D01*
X81100000Y-53750000D02*
X82316295Y-53750000D01*
X80700000Y-84500000D02*
X41600000Y-84500000D01*
X41600000Y-84500000D02*
X40500000Y-83400000D01*
%TO.N,Net-(JP45-B)*%
X55905000Y-20660000D02*
X58420000Y-18145000D01*
X37780000Y-29135000D02*
X37780000Y-28085000D01*
X44295686Y-20685000D02*
X55905000Y-20685000D01*
X37780000Y-28085000D02*
X37780000Y-27200686D01*
X55905000Y-20685000D02*
X55905000Y-20660000D01*
X37780000Y-27200686D02*
X44295686Y-20685000D01*
%TO.N,Net-(JP46-B)*%
X36280000Y-28085000D02*
X36330000Y-28085000D01*
X36280000Y-28135000D02*
X36280000Y-28085000D01*
X44420000Y-19995000D02*
X44420000Y-18545000D01*
X35280000Y-29135000D02*
X36280000Y-28135000D01*
X36330000Y-28085000D02*
X44420000Y-19995000D01*
%TO.N,Net-(JP47-B)*%
X34025000Y-28685000D02*
X34025000Y-28605000D01*
X30480000Y-17885000D02*
X30520000Y-17845000D01*
X33230000Y-28685000D02*
X32780000Y-29135000D01*
X34025000Y-28605000D02*
X30480000Y-25060000D01*
X34025000Y-28685000D02*
X33230000Y-28685000D01*
X30480000Y-25060000D02*
X30480000Y-17885000D01*
%TO.N,Net-(J2-Pin_9)*%
X78510000Y-49710000D02*
X53745000Y-49710000D01*
X53745000Y-49710000D02*
X52760000Y-48725000D01*
X27900000Y-39900000D02*
X28200000Y-40200000D01*
X26200000Y-39900000D02*
X27900000Y-39900000D01*
X172680000Y-53285000D02*
X172580000Y-53285000D01*
X81100000Y-52300000D02*
X78510000Y-49710000D01*
X176180000Y-53285000D02*
X172680000Y-53285000D01*
%TO.N,Net-(JP25-B)*%
X233670686Y-25700000D02*
X233085686Y-26285000D01*
X153834314Y-26285000D02*
X152300000Y-27819314D01*
X247205000Y-25700000D02*
X233670686Y-25700000D01*
X151350000Y-37950000D02*
X150600000Y-38700000D01*
X134300000Y-38700000D02*
X121885000Y-26285000D01*
X72780000Y-29160000D02*
X72780000Y-28085000D01*
X149600000Y-37950000D02*
X151350000Y-37950000D01*
X233085686Y-26285000D02*
X153834314Y-26285000D01*
X73780000Y-26285000D02*
X72780000Y-27285000D01*
X121885000Y-26285000D02*
X73780000Y-26285000D01*
X150600000Y-38700000D02*
X134300000Y-38700000D01*
X152300000Y-27819314D02*
X152300000Y-37000000D01*
X149050000Y-37400000D02*
X149600000Y-37950000D01*
X72780000Y-27285000D02*
X72780000Y-28085000D01*
X254420000Y-18485000D02*
X247205000Y-25700000D01*
X152300000Y-37000000D02*
X151350000Y-37950000D01*
%TO.N,Net-(JP26-B)*%
X136557500Y-41642500D02*
X150757500Y-41642500D01*
X135807500Y-40892500D02*
X121600000Y-26685000D01*
X154000000Y-26685000D02*
X152700000Y-27985000D01*
X150757500Y-41642500D02*
X151550000Y-40850000D01*
X267180000Y-19410000D02*
X260490000Y-26100000D01*
X233836371Y-26100000D02*
X233251371Y-26685000D01*
X149750000Y-40850000D02*
X151550000Y-40850000D01*
X151550000Y-40850000D02*
X152700000Y-39700000D01*
X75280000Y-29160000D02*
X75280000Y-28085000D01*
X152700000Y-27985000D02*
X152700000Y-39700000D01*
X135807500Y-40892500D02*
X136557500Y-41642500D01*
X75280000Y-28085000D02*
X75280000Y-27585000D01*
X75280000Y-27585000D02*
X76180000Y-26685000D01*
X149100000Y-40200000D02*
X149750000Y-40850000D01*
X268420000Y-18185000D02*
X267195000Y-19410000D01*
X267195000Y-19410000D02*
X267180000Y-19410000D01*
X76180000Y-26685000D02*
X121600000Y-26685000D01*
X233251371Y-26685000D02*
X154000000Y-26685000D01*
X260490000Y-26100000D02*
X233836371Y-26100000D01*
%TD*%
M02*
