%TF.GenerationSoftware,KiCad,Pcbnew,8.0.3-1.fc40*%
%TF.CreationDate,2024-06-20T14:07:14-04:00*%
%TF.ProjectId,sensor_bar_unified_muxing_1,73656e73-6f72-45f6-9261-725f756e6966,rev?*%
%TF.SameCoordinates,Original*%
%TF.FileFunction,Paste,Top*%
%TF.FilePolarity,Positive*%
%FSLAX46Y46*%
G04 Gerber Fmt 4.6, Leading zero omitted, Abs format (unit mm)*
G04 Created by KiCad (PCBNEW 8.0.3-1.fc40) date 2024-06-20 14:07:14*
%MOMM*%
%LPD*%
G01*
G04 APERTURE LIST*
G04 Aperture macros list*
%AMRoundRect*
0 Rectangle with rounded corners*
0 $1 Rounding radius*
0 $2 $3 $4 $5 $6 $7 $8 $9 X,Y pos of 4 corners*
0 Add a 4 corners polygon primitive as box body*
4,1,4,$2,$3,$4,$5,$6,$7,$8,$9,$2,$3,0*
0 Add four circle primitives for the rounded corners*
1,1,$1+$1,$2,$3*
1,1,$1+$1,$4,$5*
1,1,$1+$1,$6,$7*
1,1,$1+$1,$8,$9*
0 Add four rect primitives between the rounded corners*
20,1,$1+$1,$2,$3,$4,$5,0*
20,1,$1+$1,$4,$5,$6,$7,0*
20,1,$1+$1,$6,$7,$8,$9,0*
20,1,$1+$1,$8,$9,$2,$3,0*%
G04 Aperture macros list end*
%ADD10RoundRect,0.073750X0.221250X-0.911250X0.221250X0.911250X-0.221250X0.911250X-0.221250X-0.911250X0*%
%ADD11RoundRect,0.381000X-0.762000X-0.381000X0.762000X-0.381000X0.762000X0.381000X-0.762000X0.381000X0*%
G04 APERTURE END LIST*
D10*
%TO.C,DG452_0*%
X114475000Y-94505000D03*
X115745000Y-94505000D03*
X117015000Y-94505000D03*
X118285000Y-94505000D03*
X119555000Y-94505000D03*
X120825000Y-94505000D03*
X122095000Y-94505000D03*
X123365000Y-94505000D03*
X123365000Y-89555000D03*
X122095000Y-89555000D03*
X120825000Y-89555000D03*
X119555000Y-89555000D03*
X118285000Y-89555000D03*
X117015000Y-89555000D03*
X115745000Y-89555000D03*
X114475000Y-89555000D03*
%TD*%
%TO.C,DG452_2*%
X114530000Y-69935000D03*
X115800000Y-69935000D03*
X117070000Y-69935000D03*
X118340000Y-69935000D03*
X119610000Y-69935000D03*
X120880000Y-69935000D03*
X122150000Y-69935000D03*
X123420000Y-69935000D03*
X123420000Y-64985000D03*
X122150000Y-64985000D03*
X120880000Y-64985000D03*
X119610000Y-64985000D03*
X118340000Y-64985000D03*
X117070000Y-64985000D03*
X115800000Y-64985000D03*
X114530000Y-64985000D03*
%TD*%
%TO.C,DG452_3*%
X114475000Y-57460000D03*
X115745000Y-57460000D03*
X117015000Y-57460000D03*
X118285000Y-57460000D03*
X119555000Y-57460000D03*
X120825000Y-57460000D03*
X122095000Y-57460000D03*
X123365000Y-57460000D03*
X123365000Y-52510000D03*
X122095000Y-52510000D03*
X120825000Y-52510000D03*
X119555000Y-52510000D03*
X118285000Y-52510000D03*
X117015000Y-52510000D03*
X115745000Y-52510000D03*
X114475000Y-52510000D03*
%TD*%
%TO.C,DG45_4*%
X114510000Y-45985000D03*
X115780000Y-45985000D03*
X117050000Y-45985000D03*
X118320000Y-45985000D03*
X119590000Y-45985000D03*
X120860000Y-45985000D03*
X122130000Y-45985000D03*
X123400000Y-45985000D03*
X123400000Y-41035000D03*
X122130000Y-41035000D03*
X120860000Y-41035000D03*
X119590000Y-41035000D03*
X118320000Y-41035000D03*
X117050000Y-41035000D03*
X115780000Y-41035000D03*
X114510000Y-41035000D03*
%TD*%
D11*
%TO.C,J2*%
X176180000Y-37285000D03*
X176180000Y-39285000D03*
X176180000Y-41285000D03*
X176180000Y-43285000D03*
X176180000Y-45285000D03*
X176180000Y-47285000D03*
X176180000Y-49285000D03*
X176180000Y-51285000D03*
X176180000Y-53285000D03*
X176180000Y-55285000D03*
X176180000Y-57285000D03*
X176180000Y-59285000D03*
X176180000Y-61285000D03*
X176180000Y-63285000D03*
X176180000Y-65285000D03*
X176180000Y-67285000D03*
X176180000Y-69285000D03*
X176180000Y-71285000D03*
X176180000Y-73285000D03*
X176180000Y-75285000D03*
X176180000Y-77285000D03*
X176180000Y-79285000D03*
X176180000Y-81285000D03*
X176180000Y-83285000D03*
X176180000Y-85285000D03*
X176180000Y-87285000D03*
X176180000Y-89285000D03*
X176180000Y-91285000D03*
X176180000Y-93285000D03*
X176180000Y-95285000D03*
X176180000Y-97285000D03*
X176180000Y-99285000D03*
%TD*%
%TO.C,J3*%
X26200000Y-23900000D03*
X26200000Y-25900000D03*
X26200000Y-27900000D03*
X26200000Y-29900000D03*
X26200000Y-31900000D03*
X26200000Y-33900000D03*
X26200000Y-35900000D03*
X26200000Y-37900000D03*
X26200000Y-39900000D03*
X26200000Y-41900000D03*
X26200000Y-43900000D03*
X26200000Y-45900000D03*
X26200000Y-47900000D03*
X26200000Y-49900000D03*
X26200000Y-51900000D03*
X26200000Y-53900000D03*
X26200000Y-55900000D03*
X26200000Y-57900000D03*
X26200000Y-59900000D03*
X26200000Y-61900000D03*
X26200000Y-63900000D03*
X26200000Y-65900000D03*
X26200000Y-67900000D03*
X26200000Y-69900000D03*
X26200000Y-71900000D03*
X26200000Y-73900000D03*
X26200000Y-75900000D03*
X26200000Y-77900000D03*
X26200000Y-79900000D03*
X26200000Y-81900000D03*
X26200000Y-83900000D03*
X26200000Y-85900000D03*
%TD*%
D10*
%TO.C,DG452_1*%
X114475000Y-82410000D03*
X115745000Y-82410000D03*
X117015000Y-82410000D03*
X118285000Y-82410000D03*
X119555000Y-82410000D03*
X120825000Y-82410000D03*
X122095000Y-82410000D03*
X123365000Y-82410000D03*
X123365000Y-77460000D03*
X122095000Y-77460000D03*
X120825000Y-77460000D03*
X119555000Y-77460000D03*
X118285000Y-77460000D03*
X117015000Y-77460000D03*
X115745000Y-77460000D03*
X114475000Y-77460000D03*
%TD*%
M02*
