M48
; DRILL file {KiCad 8.0.3-1.fc40} date 2024-06-20T13:52:43-0400
; FORMAT={-:-/ absolute / metric / decimal}
; #@! TF.CreationDate,2024-06-20T13:52:43-04:00
; #@! TF.GenerationSoftware,Kicad,Pcbnew,8.0.3-1.fc40
; #@! TF.FileFunction,Plated,1,4,PTH
FMAT,2
METRIC
; #@! TA.AperFunction,Plated,PTH,ViaDrill
T1C0.300
; #@! TA.AperFunction,Plated,PTH,ComponentDrill
T2C0.770
; #@! TA.AperFunction,Plated,PTH,ComponentDrill
T3C0.800
; #@! TA.AperFunction,Plated,PTH,ComponentDrill
T4C1.020
; #@! TA.AperFunction,Plated,PTH,ComponentDrill
T5C1.100
%
G90
G05
T1
X28.0Y-45.9
X28.2Y-40.2
X28.96Y-37.313
X31.573Y-39.927
X31.601Y-40.726
X33.98Y-52.285
X34.025Y-28.685
X35.98Y-52.285
X36.28Y-28.085
X37.78Y-28.085
X38.48Y-52.285
X40.28Y-28.085
X40.5Y-83.4
X41.08Y-52.285
X42.78Y-28.085
X43.58Y-52.285
X45.28Y-28.085
X46.18Y-52.385
X47.78Y-28.085
X48.68Y-52.385
X50.28Y-28.085
X51.28Y-52.385
X52.78Y-28.085
X53.78Y-52.485
X55.28Y-28.085
X56.28Y-52.485
X57.78Y-28.085
X58.88Y-52.485
X60.28Y-28.085
X61.38Y-52.485
X62.78Y-28.085
X63.88Y-52.485
X65.28Y-28.085
X66.48Y-52.485
X67.78Y-28.085
X68.98Y-52.485
X70.28Y-28.085
X71.58Y-52.585
X72.78Y-28.085
X74.08Y-52.585
X75.28Y-28.085
X75.78Y-72.385
X76.484Y-71.985
X76.58Y-52.585
X77.28Y-71.585
X77.98Y-71.185
X78.711Y-70.785
X79.411Y-70.385
X80.21Y-70.032
X80.874Y-69.585
X81.646Y-69.185
X82.391Y-68.785
X83.129Y-68.385
X83.929Y-67.985
X84.632Y-67.585
X85.365Y-67.185
X86.149Y-66.888
X86.817Y-66.448
X87.48Y-65.985
X88.08Y-65.385
X113.48Y-52.385
X113.48Y-57.385
X113.58Y-40.985
X113.58Y-45.885
X113.58Y-64.985
X113.58Y-69.885
X113.58Y-77.485
X113.58Y-82.385
X113.58Y-89.585
X113.58Y-94.485
X116.98Y-53.985
X116.98Y-58.785
X117.08Y-47.385
X117.08Y-66.485
X117.08Y-71.285
X117.08Y-75.985
X117.08Y-83.985
X117.08Y-88.185
X117.08Y-95.885
X118.3Y-55.835
X118.3Y-68.335
X118.3Y-80.735
X118.3Y-92.835
X118.4Y-44.235
X119.5Y-91.235
X119.6Y-42.735
X119.6Y-54.135
X119.6Y-66.535
X119.6Y-79.135
X122.08Y-53.885
X122.08Y-58.785
X122.08Y-83.985
X122.08Y-88.185
X122.08Y-95.985
X122.18Y-47.385
X122.18Y-66.485
X122.18Y-71.385
X122.18Y-75.985
X123.38Y-39.285
X130.68Y-83.185
X130.68Y-87.185
X130.68Y-91.685
X130.68Y-96.685
X134.38Y-84.885
X134.38Y-89.085
X134.38Y-93.485
X134.38Y-98.285
X137.98Y-83.185
X137.98Y-87.085
X137.98Y-91.685
X137.98Y-96.685
X146.0Y-25.6
X146.0Y-28.7
X146.0Y-31.8
X146.0Y-34.6
X146.0Y-37.4
X146.0Y-40.2
X171.58Y-47.285
X172.68Y-37.285
X172.68Y-39.285
X172.68Y-41.285
X172.68Y-43.285
X172.68Y-53.285
X172.68Y-59.285
X174.38Y-65.285
X174.38Y-67.285
X174.38Y-69.185
X174.38Y-71.185
X174.38Y-73.285
X174.38Y-75.285
X174.38Y-77.285
X174.38Y-79.285
X174.38Y-81.385
X174.38Y-83.285
X174.38Y-85.185
X174.38Y-87.185
X174.38Y-89.085
X174.38Y-91.185
X174.38Y-93.185
X174.38Y-95.185
X174.38Y-97.285
X174.38Y-99.285
T2
X141.62Y-82.065
X141.62Y-84.605
X141.62Y-87.145
X141.62Y-89.685
X141.62Y-92.225
X141.62Y-94.765
X141.62Y-97.305
X149.56Y-82.065
X149.56Y-84.605
X149.56Y-87.145
X149.56Y-89.685
X149.56Y-92.225
X149.56Y-94.765
X149.56Y-97.305
X153.68Y-82.105
X153.68Y-84.645
X153.68Y-87.185
X153.68Y-89.725
X153.68Y-92.265
X153.68Y-94.805
X153.68Y-97.345
X161.62Y-82.105
X161.62Y-84.645
X161.62Y-87.185
X161.62Y-89.725
X161.62Y-92.265
X161.62Y-94.805
X161.62Y-97.345
T3
X25.44Y-17.845
X27.98Y-17.845
X30.2Y-81.915
X30.2Y-84.455
X30.52Y-17.845
X39.34Y-18.545
X41.88Y-18.545
X42.44Y-78.003
X42.44Y-80.003
X42.44Y-82.003
X44.42Y-18.545
X44.44Y-78.003
X44.44Y-80.003
X44.44Y-82.003
X53.34Y-18.145
X55.88Y-18.145
X58.42Y-18.145
X67.34Y-18.145
X69.88Y-18.145
X72.42Y-18.145
X81.34Y-18.345
X83.88Y-18.345
X86.42Y-18.345
X95.34Y-18.485
X97.88Y-18.485
X100.42Y-18.485
X109.34Y-18.385
X111.88Y-18.385
X114.42Y-18.385
X123.34Y-18.485
X125.88Y-18.485
X128.42Y-18.485
X137.34Y-18.185
X139.88Y-18.185
X142.42Y-18.185
X151.34Y-18.345
X153.88Y-18.345
X156.42Y-18.345
X165.34Y-18.145
X167.88Y-18.145
X170.42Y-18.145
X179.34Y-18.345
X181.88Y-18.345
X184.42Y-18.345
X193.34Y-18.185
X195.88Y-18.185
X198.42Y-18.185
X207.34Y-18.185
X209.88Y-18.185
X212.42Y-18.185
X221.34Y-18.385
X223.88Y-18.385
X226.42Y-18.385
X235.34Y-18.385
X237.88Y-18.385
X240.42Y-18.385
X249.34Y-18.485
X251.88Y-18.485
X254.42Y-18.485
X263.34Y-18.185
X265.88Y-18.185
X268.42Y-18.185
T4
X32.44Y-46.185
X32.44Y-48.725
X34.98Y-46.185
X34.98Y-48.725
X37.52Y-46.185
X37.52Y-48.725
X40.06Y-46.185
X40.06Y-48.725
X42.6Y-46.185
X42.6Y-48.725
X45.14Y-46.185
X45.14Y-48.725
X47.68Y-46.185
X47.68Y-48.725
X50.22Y-46.185
X50.22Y-48.725
X52.76Y-46.185
X52.76Y-48.725
X55.3Y-46.185
X55.3Y-48.725
X57.84Y-46.185
X57.84Y-48.725
X60.38Y-46.185
X60.38Y-48.725
X62.92Y-46.185
X62.92Y-48.725
X65.46Y-46.185
X65.46Y-48.725
X68.0Y-46.185
X68.0Y-48.725
X70.54Y-46.185
X70.54Y-48.725
X73.08Y-46.185
X73.08Y-48.725
X75.62Y-46.185
X75.62Y-48.725
X78.16Y-46.185
X78.16Y-48.725
X80.7Y-46.185
X80.7Y-48.725
T5
X29.47Y-75.565
X29.47Y-90.805
X32.01Y-75.565
X32.01Y-78.105
X32.01Y-90.805
X34.55Y-75.565
X34.55Y-90.805
X35.769Y-87.754
X37.09Y-75.565
X37.09Y-90.805
X38.309Y-87.754
X39.63Y-75.565
X39.63Y-90.805
X40.849Y-87.754
X42.17Y-75.565
X42.17Y-90.805
X43.389Y-87.754
X44.71Y-75.565
X44.71Y-90.805
X45.929Y-87.754
X47.25Y-75.565
X47.25Y-90.805
X49.79Y-75.565
X49.79Y-90.805
X52.33Y-75.565
X52.33Y-90.805
X54.87Y-75.565
X54.87Y-90.805
X57.41Y-75.565
X57.41Y-90.805
X59.95Y-75.565
X59.95Y-90.805
X62.49Y-75.565
X62.49Y-90.805
X65.03Y-75.565
X65.03Y-90.805
X67.57Y-75.565
X67.57Y-90.805
X70.11Y-75.565
X70.11Y-90.805
X72.65Y-75.565
X72.65Y-90.805
X75.19Y-75.565
X75.19Y-78.105
X75.19Y-80.645
X75.19Y-83.185
X75.19Y-85.725
X75.19Y-88.265
X75.19Y-90.805
X77.73Y-75.565
X77.73Y-90.805
X80.27Y-75.565
X80.27Y-90.805
X82.81Y-75.565
X82.81Y-90.805
X85.35Y-75.565
X85.35Y-90.805
X87.89Y-75.565
X87.89Y-90.805
M30
