%TF.GenerationSoftware,KiCad,Pcbnew,8.0.3-1.fc40*%
%TF.CreationDate,2024-06-20T14:07:14-04:00*%
%TF.ProjectId,sensor_bar_unified_muxing_1,73656e73-6f72-45f6-9261-725f756e6966,rev?*%
%TF.SameCoordinates,Original*%
%TF.FileFunction,Legend,Bot*%
%TF.FilePolarity,Positive*%
%FSLAX46Y46*%
G04 Gerber Fmt 4.6, Leading zero omitted, Abs format (unit mm)*
G04 Created by KiCad (PCBNEW 8.0.3-1.fc40) date 2024-06-20 14:07:14*
%MOMM*%
%LPD*%
G01*
G04 APERTURE LIST*
%ADD10C,0.100000*%
%ADD11C,0.120000*%
G04 APERTURE END LIST*
D10*
X177927580Y-82603884D02*
X178927580Y-82603884D01*
X177927580Y-83841979D02*
X178927580Y-83841979D01*
X177927580Y-84270550D02*
X178451390Y-84270550D01*
X178451390Y-84270550D02*
X178546628Y-84222931D01*
X178546628Y-84222931D02*
X178594247Y-84127693D01*
X178594247Y-84127693D02*
X178594247Y-83984836D01*
X178594247Y-83984836D02*
X178546628Y-83889598D01*
X178546628Y-83889598D02*
X178499009Y-83841979D01*
X177927580Y-84889598D02*
X177975200Y-84794360D01*
X177975200Y-84794360D02*
X178022819Y-84746741D01*
X178022819Y-84746741D02*
X178118057Y-84699122D01*
X178118057Y-84699122D02*
X178403771Y-84699122D01*
X178403771Y-84699122D02*
X178499009Y-84746741D01*
X178499009Y-84746741D02*
X178546628Y-84794360D01*
X178546628Y-84794360D02*
X178594247Y-84889598D01*
X178594247Y-84889598D02*
X178594247Y-85032455D01*
X178594247Y-85032455D02*
X178546628Y-85127693D01*
X178546628Y-85127693D02*
X178499009Y-85175312D01*
X178499009Y-85175312D02*
X178403771Y-85222931D01*
X178403771Y-85222931D02*
X178118057Y-85222931D01*
X178118057Y-85222931D02*
X178022819Y-85175312D01*
X178022819Y-85175312D02*
X177975200Y-85127693D01*
X177975200Y-85127693D02*
X177927580Y-85032455D01*
X177927580Y-85032455D02*
X177927580Y-84889598D01*
X178594247Y-85651503D02*
X177594247Y-85651503D01*
X178546628Y-85651503D02*
X178594247Y-85746741D01*
X178594247Y-85746741D02*
X178594247Y-85937217D01*
X178594247Y-85937217D02*
X178546628Y-86032455D01*
X178546628Y-86032455D02*
X178499009Y-86080074D01*
X178499009Y-86080074D02*
X178403771Y-86127693D01*
X178403771Y-86127693D02*
X178118057Y-86127693D01*
X178118057Y-86127693D02*
X178022819Y-86080074D01*
X178022819Y-86080074D02*
X177975200Y-86032455D01*
X177975200Y-86032455D02*
X177927580Y-85937217D01*
X177927580Y-85937217D02*
X177927580Y-85746741D01*
X177927580Y-85746741D02*
X177975200Y-85651503D01*
X177975200Y-86937217D02*
X177927580Y-86841979D01*
X177927580Y-86841979D02*
X177927580Y-86651503D01*
X177927580Y-86651503D02*
X177975200Y-86556265D01*
X177975200Y-86556265D02*
X178070438Y-86508646D01*
X178070438Y-86508646D02*
X178451390Y-86508646D01*
X178451390Y-86508646D02*
X178546628Y-86556265D01*
X178546628Y-86556265D02*
X178594247Y-86651503D01*
X178594247Y-86651503D02*
X178594247Y-86841979D01*
X178594247Y-86841979D02*
X178546628Y-86937217D01*
X178546628Y-86937217D02*
X178451390Y-86984836D01*
X178451390Y-86984836D02*
X178356152Y-86984836D01*
X178356152Y-86984836D02*
X178260914Y-86508646D01*
X178594247Y-88080075D02*
X177927580Y-88318170D01*
X178594247Y-88556265D02*
X177927580Y-88318170D01*
X177927580Y-88318170D02*
X177689485Y-88222932D01*
X177689485Y-88222932D02*
X177641866Y-88175313D01*
X177641866Y-88175313D02*
X177594247Y-88080075D01*
X177927580Y-89080075D02*
X177975200Y-88984837D01*
X177975200Y-88984837D02*
X178022819Y-88937218D01*
X178022819Y-88937218D02*
X178118057Y-88889599D01*
X178118057Y-88889599D02*
X178403771Y-88889599D01*
X178403771Y-88889599D02*
X178499009Y-88937218D01*
X178499009Y-88937218D02*
X178546628Y-88984837D01*
X178546628Y-88984837D02*
X178594247Y-89080075D01*
X178594247Y-89080075D02*
X178594247Y-89222932D01*
X178594247Y-89222932D02*
X178546628Y-89318170D01*
X178546628Y-89318170D02*
X178499009Y-89365789D01*
X178499009Y-89365789D02*
X178403771Y-89413408D01*
X178403771Y-89413408D02*
X178118057Y-89413408D01*
X178118057Y-89413408D02*
X178022819Y-89365789D01*
X178022819Y-89365789D02*
X177975200Y-89318170D01*
X177975200Y-89318170D02*
X177927580Y-89222932D01*
X177927580Y-89222932D02*
X177927580Y-89080075D01*
X178594247Y-90270551D02*
X177927580Y-90270551D01*
X178594247Y-89841980D02*
X178070438Y-89841980D01*
X178070438Y-89841980D02*
X177975200Y-89889599D01*
X177975200Y-89889599D02*
X177927580Y-89984837D01*
X177927580Y-89984837D02*
X177927580Y-90127694D01*
X177927580Y-90127694D02*
X177975200Y-90222932D01*
X177975200Y-90222932D02*
X178022819Y-90270551D01*
X177975200Y-91937218D02*
X177927580Y-91841980D01*
X177927580Y-91841980D02*
X177927580Y-91651504D01*
X177927580Y-91651504D02*
X177975200Y-91556266D01*
X177975200Y-91556266D02*
X178022819Y-91508647D01*
X178022819Y-91508647D02*
X178118057Y-91461028D01*
X178118057Y-91461028D02*
X178403771Y-91461028D01*
X178403771Y-91461028D02*
X178499009Y-91508647D01*
X178499009Y-91508647D02*
X178546628Y-91556266D01*
X178546628Y-91556266D02*
X178594247Y-91651504D01*
X178594247Y-91651504D02*
X178594247Y-91841980D01*
X178594247Y-91841980D02*
X178546628Y-91937218D01*
X177927580Y-92794361D02*
X178451390Y-92794361D01*
X178451390Y-92794361D02*
X178546628Y-92746742D01*
X178546628Y-92746742D02*
X178594247Y-92651504D01*
X178594247Y-92651504D02*
X178594247Y-92461028D01*
X178594247Y-92461028D02*
X178546628Y-92365790D01*
X177975200Y-92794361D02*
X177927580Y-92699123D01*
X177927580Y-92699123D02*
X177927580Y-92461028D01*
X177927580Y-92461028D02*
X177975200Y-92365790D01*
X177975200Y-92365790D02*
X178070438Y-92318171D01*
X178070438Y-92318171D02*
X178165676Y-92318171D01*
X178165676Y-92318171D02*
X178260914Y-92365790D01*
X178260914Y-92365790D02*
X178308533Y-92461028D01*
X178308533Y-92461028D02*
X178308533Y-92699123D01*
X178308533Y-92699123D02*
X178356152Y-92794361D01*
X178594247Y-93270552D02*
X177927580Y-93270552D01*
X178499009Y-93270552D02*
X178546628Y-93318171D01*
X178546628Y-93318171D02*
X178594247Y-93413409D01*
X178594247Y-93413409D02*
X178594247Y-93556266D01*
X178594247Y-93556266D02*
X178546628Y-93651504D01*
X178546628Y-93651504D02*
X178451390Y-93699123D01*
X178451390Y-93699123D02*
X177927580Y-93699123D01*
X177927580Y-94937219D02*
X178594247Y-94937219D01*
X178403771Y-94937219D02*
X178499009Y-94984838D01*
X178499009Y-94984838D02*
X178546628Y-95032457D01*
X178546628Y-95032457D02*
X178594247Y-95127695D01*
X178594247Y-95127695D02*
X178594247Y-95222933D01*
X177975200Y-95937219D02*
X177927580Y-95841981D01*
X177927580Y-95841981D02*
X177927580Y-95651505D01*
X177927580Y-95651505D02*
X177975200Y-95556267D01*
X177975200Y-95556267D02*
X178070438Y-95508648D01*
X178070438Y-95508648D02*
X178451390Y-95508648D01*
X178451390Y-95508648D02*
X178546628Y-95556267D01*
X178546628Y-95556267D02*
X178594247Y-95651505D01*
X178594247Y-95651505D02*
X178594247Y-95841981D01*
X178594247Y-95841981D02*
X178546628Y-95937219D01*
X178546628Y-95937219D02*
X178451390Y-95984838D01*
X178451390Y-95984838D02*
X178356152Y-95984838D01*
X178356152Y-95984838D02*
X178260914Y-95508648D01*
X177927580Y-96841981D02*
X178451390Y-96841981D01*
X178451390Y-96841981D02*
X178546628Y-96794362D01*
X178546628Y-96794362D02*
X178594247Y-96699124D01*
X178594247Y-96699124D02*
X178594247Y-96508648D01*
X178594247Y-96508648D02*
X178546628Y-96413410D01*
X177975200Y-96841981D02*
X177927580Y-96746743D01*
X177927580Y-96746743D02*
X177927580Y-96508648D01*
X177927580Y-96508648D02*
X177975200Y-96413410D01*
X177975200Y-96413410D02*
X178070438Y-96365791D01*
X178070438Y-96365791D02*
X178165676Y-96365791D01*
X178165676Y-96365791D02*
X178260914Y-96413410D01*
X178260914Y-96413410D02*
X178308533Y-96508648D01*
X178308533Y-96508648D02*
X178308533Y-96746743D01*
X178308533Y-96746743D02*
X178356152Y-96841981D01*
X177927580Y-97746743D02*
X178927580Y-97746743D01*
X177975200Y-97746743D02*
X177927580Y-97651505D01*
X177927580Y-97651505D02*
X177927580Y-97461029D01*
X177927580Y-97461029D02*
X177975200Y-97365791D01*
X177975200Y-97365791D02*
X178022819Y-97318172D01*
X178022819Y-97318172D02*
X178118057Y-97270553D01*
X178118057Y-97270553D02*
X178403771Y-97270553D01*
X178403771Y-97270553D02*
X178499009Y-97318172D01*
X178499009Y-97318172D02*
X178546628Y-97365791D01*
X178546628Y-97365791D02*
X178594247Y-97461029D01*
X178594247Y-97461029D02*
X178594247Y-97651505D01*
X178594247Y-97651505D02*
X178546628Y-97746743D01*
X178594247Y-98841982D02*
X178594247Y-99222934D01*
X178927580Y-98984839D02*
X178070438Y-98984839D01*
X178070438Y-98984839D02*
X177975200Y-99032458D01*
X177975200Y-99032458D02*
X177927580Y-99127696D01*
X177927580Y-99127696D02*
X177927580Y-99222934D01*
X177927580Y-99556268D02*
X178927580Y-99556268D01*
X177927580Y-99984839D02*
X178451390Y-99984839D01*
X178451390Y-99984839D02*
X178546628Y-99937220D01*
X178546628Y-99937220D02*
X178594247Y-99841982D01*
X178594247Y-99841982D02*
X178594247Y-99699125D01*
X178594247Y-99699125D02*
X178546628Y-99603887D01*
X178546628Y-99603887D02*
X178499009Y-99556268D01*
X177927580Y-100461030D02*
X178594247Y-100461030D01*
X178927580Y-100461030D02*
X178879961Y-100413411D01*
X178879961Y-100413411D02*
X178832342Y-100461030D01*
X178832342Y-100461030D02*
X178879961Y-100508649D01*
X178879961Y-100508649D02*
X178927580Y-100461030D01*
X178927580Y-100461030D02*
X178832342Y-100461030D01*
X177975200Y-100889601D02*
X177927580Y-100984839D01*
X177927580Y-100984839D02*
X177927580Y-101175315D01*
X177927580Y-101175315D02*
X177975200Y-101270553D01*
X177975200Y-101270553D02*
X178070438Y-101318172D01*
X178070438Y-101318172D02*
X178118057Y-101318172D01*
X178118057Y-101318172D02*
X178213295Y-101270553D01*
X178213295Y-101270553D02*
X178260914Y-101175315D01*
X178260914Y-101175315D02*
X178260914Y-101032458D01*
X178260914Y-101032458D02*
X178308533Y-100937220D01*
X178308533Y-100937220D02*
X178403771Y-100889601D01*
X178403771Y-100889601D02*
X178451390Y-100889601D01*
X178451390Y-100889601D02*
X178546628Y-100937220D01*
X178546628Y-100937220D02*
X178594247Y-101032458D01*
X178594247Y-101032458D02*
X178594247Y-101175315D01*
X178594247Y-101175315D02*
X178546628Y-101270553D01*
X240734211Y-23705752D02*
X241496115Y-23991466D01*
X241496115Y-23991466D02*
X240734211Y-24277180D01*
X239067544Y-24372419D02*
X239067544Y-23848609D01*
X239067544Y-23848609D02*
X239115163Y-23753371D01*
X239115163Y-23753371D02*
X239210401Y-23705752D01*
X239210401Y-23705752D02*
X239400877Y-23705752D01*
X239400877Y-23705752D02*
X239496115Y-23753371D01*
X239067544Y-24324800D02*
X239162782Y-24372419D01*
X239162782Y-24372419D02*
X239400877Y-24372419D01*
X239400877Y-24372419D02*
X239496115Y-24324800D01*
X239496115Y-24324800D02*
X239543734Y-24229561D01*
X239543734Y-24229561D02*
X239543734Y-24134323D01*
X239543734Y-24134323D02*
X239496115Y-24039085D01*
X239496115Y-24039085D02*
X239400877Y-23991466D01*
X239400877Y-23991466D02*
X239162782Y-23991466D01*
X239162782Y-23991466D02*
X239067544Y-23943847D01*
X237829448Y-24372419D02*
X237829448Y-23705752D01*
X237829448Y-23800990D02*
X237781829Y-23753371D01*
X237781829Y-23753371D02*
X237686591Y-23705752D01*
X237686591Y-23705752D02*
X237543734Y-23705752D01*
X237543734Y-23705752D02*
X237448496Y-23753371D01*
X237448496Y-23753371D02*
X237400877Y-23848609D01*
X237400877Y-23848609D02*
X237400877Y-24372419D01*
X237400877Y-23848609D02*
X237353258Y-23753371D01*
X237353258Y-23753371D02*
X237258020Y-23705752D01*
X237258020Y-23705752D02*
X237115163Y-23705752D01*
X237115163Y-23705752D02*
X237019924Y-23753371D01*
X237019924Y-23753371D02*
X236972305Y-23848609D01*
X236972305Y-23848609D02*
X236972305Y-24372419D01*
X236496115Y-24372419D02*
X236496115Y-23705752D01*
X236496115Y-23372419D02*
X236543734Y-23420038D01*
X236543734Y-23420038D02*
X236496115Y-23467657D01*
X236496115Y-23467657D02*
X236448496Y-23420038D01*
X236448496Y-23420038D02*
X236496115Y-23372419D01*
X236496115Y-23372419D02*
X236496115Y-23467657D01*
X235591354Y-24372419D02*
X235591354Y-23372419D01*
X235591354Y-24324800D02*
X235686592Y-24372419D01*
X235686592Y-24372419D02*
X235877068Y-24372419D01*
X235877068Y-24372419D02*
X235972306Y-24324800D01*
X235972306Y-24324800D02*
X236019925Y-24277180D01*
X236019925Y-24277180D02*
X236067544Y-24181942D01*
X236067544Y-24181942D02*
X236067544Y-23896228D01*
X236067544Y-23896228D02*
X236019925Y-23800990D01*
X236019925Y-23800990D02*
X235972306Y-23753371D01*
X235972306Y-23753371D02*
X235877068Y-23705752D01*
X235877068Y-23705752D02*
X235686592Y-23705752D01*
X235686592Y-23705752D02*
X235591354Y-23753371D01*
X235115163Y-23991466D02*
X234353259Y-23991466D01*
X233877068Y-24372419D02*
X233877068Y-23705752D01*
X233877068Y-23800990D02*
X233829449Y-23753371D01*
X233829449Y-23753371D02*
X233734211Y-23705752D01*
X233734211Y-23705752D02*
X233591354Y-23705752D01*
X233591354Y-23705752D02*
X233496116Y-23753371D01*
X233496116Y-23753371D02*
X233448497Y-23848609D01*
X233448497Y-23848609D02*
X233448497Y-24372419D01*
X233448497Y-23848609D02*
X233400878Y-23753371D01*
X233400878Y-23753371D02*
X233305640Y-23705752D01*
X233305640Y-23705752D02*
X233162783Y-23705752D01*
X233162783Y-23705752D02*
X233067544Y-23753371D01*
X233067544Y-23753371D02*
X233019925Y-23848609D01*
X233019925Y-23848609D02*
X233019925Y-24372419D01*
X232400878Y-24372419D02*
X232496116Y-24324800D01*
X232496116Y-24324800D02*
X232543735Y-24277180D01*
X232543735Y-24277180D02*
X232591354Y-24181942D01*
X232591354Y-24181942D02*
X232591354Y-23896228D01*
X232591354Y-23896228D02*
X232543735Y-23800990D01*
X232543735Y-23800990D02*
X232496116Y-23753371D01*
X232496116Y-23753371D02*
X232400878Y-23705752D01*
X232400878Y-23705752D02*
X232258021Y-23705752D01*
X232258021Y-23705752D02*
X232162783Y-23753371D01*
X232162783Y-23753371D02*
X232115164Y-23800990D01*
X232115164Y-23800990D02*
X232067545Y-23896228D01*
X232067545Y-23896228D02*
X232067545Y-24181942D01*
X232067545Y-24181942D02*
X232115164Y-24277180D01*
X232115164Y-24277180D02*
X232162783Y-24324800D01*
X232162783Y-24324800D02*
X232258021Y-24372419D01*
X232258021Y-24372419D02*
X232400878Y-24372419D01*
X231638973Y-24372419D02*
X231638973Y-23705752D01*
X231638973Y-23896228D02*
X231591354Y-23800990D01*
X231591354Y-23800990D02*
X231543735Y-23753371D01*
X231543735Y-23753371D02*
X231448497Y-23705752D01*
X231448497Y-23705752D02*
X231353259Y-23705752D01*
X231019925Y-23705752D02*
X231019925Y-24372419D01*
X231019925Y-23800990D02*
X230972306Y-23753371D01*
X230972306Y-23753371D02*
X230877068Y-23705752D01*
X230877068Y-23705752D02*
X230734211Y-23705752D01*
X230734211Y-23705752D02*
X230638973Y-23753371D01*
X230638973Y-23753371D02*
X230591354Y-23848609D01*
X230591354Y-23848609D02*
X230591354Y-24372419D01*
X230115163Y-24372419D02*
X230115163Y-23705752D01*
X230115163Y-23372419D02*
X230162782Y-23420038D01*
X230162782Y-23420038D02*
X230115163Y-23467657D01*
X230115163Y-23467657D02*
X230067544Y-23420038D01*
X230067544Y-23420038D02*
X230115163Y-23372419D01*
X230115163Y-23372419D02*
X230115163Y-23467657D01*
X229638973Y-23705752D02*
X229638973Y-24372419D01*
X229638973Y-23800990D02*
X229591354Y-23753371D01*
X229591354Y-23753371D02*
X229496116Y-23705752D01*
X229496116Y-23705752D02*
X229353259Y-23705752D01*
X229353259Y-23705752D02*
X229258021Y-23753371D01*
X229258021Y-23753371D02*
X229210402Y-23848609D01*
X229210402Y-23848609D02*
X229210402Y-24372419D01*
X228305640Y-23705752D02*
X228305640Y-24515276D01*
X228305640Y-24515276D02*
X228353259Y-24610514D01*
X228353259Y-24610514D02*
X228400878Y-24658133D01*
X228400878Y-24658133D02*
X228496116Y-24705752D01*
X228496116Y-24705752D02*
X228638973Y-24705752D01*
X228638973Y-24705752D02*
X228734211Y-24658133D01*
X228305640Y-24324800D02*
X228400878Y-24372419D01*
X228400878Y-24372419D02*
X228591354Y-24372419D01*
X228591354Y-24372419D02*
X228686592Y-24324800D01*
X228686592Y-24324800D02*
X228734211Y-24277180D01*
X228734211Y-24277180D02*
X228781830Y-24181942D01*
X228781830Y-24181942D02*
X228781830Y-23896228D01*
X228781830Y-23896228D02*
X228734211Y-23800990D01*
X228734211Y-23800990D02*
X228686592Y-23753371D01*
X228686592Y-23753371D02*
X228591354Y-23705752D01*
X228591354Y-23705752D02*
X228400878Y-23705752D01*
X228400878Y-23705752D02*
X228305640Y-23753371D01*
X227115163Y-24324800D02*
X227019925Y-24372419D01*
X227019925Y-24372419D02*
X226829449Y-24372419D01*
X226829449Y-24372419D02*
X226734211Y-24324800D01*
X226734211Y-24324800D02*
X226686592Y-24229561D01*
X226686592Y-24229561D02*
X226686592Y-24181942D01*
X226686592Y-24181942D02*
X226734211Y-24086704D01*
X226734211Y-24086704D02*
X226829449Y-24039085D01*
X226829449Y-24039085D02*
X226972306Y-24039085D01*
X226972306Y-24039085D02*
X227067544Y-23991466D01*
X227067544Y-23991466D02*
X227115163Y-23896228D01*
X227115163Y-23896228D02*
X227115163Y-23848609D01*
X227115163Y-23848609D02*
X227067544Y-23753371D01*
X227067544Y-23753371D02*
X226972306Y-23705752D01*
X226972306Y-23705752D02*
X226829449Y-23705752D01*
X226829449Y-23705752D02*
X226734211Y-23753371D01*
X226258020Y-23705752D02*
X226258020Y-24372419D01*
X226258020Y-23800990D02*
X226210401Y-23753371D01*
X226210401Y-23753371D02*
X226115163Y-23705752D01*
X226115163Y-23705752D02*
X225972306Y-23705752D01*
X225972306Y-23705752D02*
X225877068Y-23753371D01*
X225877068Y-23753371D02*
X225829449Y-23848609D01*
X225829449Y-23848609D02*
X225829449Y-24372419D01*
X224924687Y-24372419D02*
X224924687Y-23848609D01*
X224924687Y-23848609D02*
X224972306Y-23753371D01*
X224972306Y-23753371D02*
X225067544Y-23705752D01*
X225067544Y-23705752D02*
X225258020Y-23705752D01*
X225258020Y-23705752D02*
X225353258Y-23753371D01*
X224924687Y-24324800D02*
X225019925Y-24372419D01*
X225019925Y-24372419D02*
X225258020Y-24372419D01*
X225258020Y-24372419D02*
X225353258Y-24324800D01*
X225353258Y-24324800D02*
X225400877Y-24229561D01*
X225400877Y-24229561D02*
X225400877Y-24134323D01*
X225400877Y-24134323D02*
X225353258Y-24039085D01*
X225353258Y-24039085D02*
X225258020Y-23991466D01*
X225258020Y-23991466D02*
X225019925Y-23991466D01*
X225019925Y-23991466D02*
X224924687Y-23943847D01*
X224019925Y-24324800D02*
X224115163Y-24372419D01*
X224115163Y-24372419D02*
X224305639Y-24372419D01*
X224305639Y-24372419D02*
X224400877Y-24324800D01*
X224400877Y-24324800D02*
X224448496Y-24277180D01*
X224448496Y-24277180D02*
X224496115Y-24181942D01*
X224496115Y-24181942D02*
X224496115Y-23896228D01*
X224496115Y-23896228D02*
X224448496Y-23800990D01*
X224448496Y-23800990D02*
X224400877Y-23753371D01*
X224400877Y-23753371D02*
X224305639Y-23705752D01*
X224305639Y-23705752D02*
X224115163Y-23705752D01*
X224115163Y-23705752D02*
X224019925Y-23753371D01*
X223591353Y-24372419D02*
X223591353Y-23372419D01*
X223496115Y-23991466D02*
X223210401Y-24372419D01*
X223210401Y-23705752D02*
X223591353Y-24086704D01*
X112038972Y-20067657D02*
X111848496Y-19924800D01*
X111848496Y-19924800D02*
X111658020Y-20067657D01*
X110705638Y-20305752D02*
X110324686Y-20305752D01*
X110562781Y-19972419D02*
X110562781Y-20829561D01*
X110562781Y-20829561D02*
X110515162Y-20924800D01*
X110515162Y-20924800D02*
X110419924Y-20972419D01*
X110419924Y-20972419D02*
X110324686Y-20972419D01*
X109848495Y-20972419D02*
X109943733Y-20924800D01*
X109943733Y-20924800D02*
X109991352Y-20877180D01*
X109991352Y-20877180D02*
X110038971Y-20781942D01*
X110038971Y-20781942D02*
X110038971Y-20496228D01*
X110038971Y-20496228D02*
X109991352Y-20400990D01*
X109991352Y-20400990D02*
X109943733Y-20353371D01*
X109943733Y-20353371D02*
X109848495Y-20305752D01*
X109848495Y-20305752D02*
X109705638Y-20305752D01*
X109705638Y-20305752D02*
X109610400Y-20353371D01*
X109610400Y-20353371D02*
X109562781Y-20400990D01*
X109562781Y-20400990D02*
X109515162Y-20496228D01*
X109515162Y-20496228D02*
X109515162Y-20781942D01*
X109515162Y-20781942D02*
X109562781Y-20877180D01*
X109562781Y-20877180D02*
X109610400Y-20924800D01*
X109610400Y-20924800D02*
X109705638Y-20972419D01*
X109705638Y-20972419D02*
X109848495Y-20972419D01*
X108658019Y-20305752D02*
X108658019Y-20972419D01*
X109086590Y-20305752D02*
X109086590Y-20829561D01*
X109086590Y-20829561D02*
X109038971Y-20924800D01*
X109038971Y-20924800D02*
X108943733Y-20972419D01*
X108943733Y-20972419D02*
X108800876Y-20972419D01*
X108800876Y-20972419D02*
X108705638Y-20924800D01*
X108705638Y-20924800D02*
X108658019Y-20877180D01*
X107753257Y-20924800D02*
X107848495Y-20972419D01*
X107848495Y-20972419D02*
X108038971Y-20972419D01*
X108038971Y-20972419D02*
X108134209Y-20924800D01*
X108134209Y-20924800D02*
X108181828Y-20877180D01*
X108181828Y-20877180D02*
X108229447Y-20781942D01*
X108229447Y-20781942D02*
X108229447Y-20496228D01*
X108229447Y-20496228D02*
X108181828Y-20400990D01*
X108181828Y-20400990D02*
X108134209Y-20353371D01*
X108134209Y-20353371D02*
X108038971Y-20305752D01*
X108038971Y-20305752D02*
X107848495Y-20305752D01*
X107848495Y-20305752D02*
X107753257Y-20353371D01*
X107324685Y-20972419D02*
X107324685Y-19972419D01*
X106896114Y-20972419D02*
X106896114Y-20448609D01*
X106896114Y-20448609D02*
X106943733Y-20353371D01*
X106943733Y-20353371D02*
X107038971Y-20305752D01*
X107038971Y-20305752D02*
X107181828Y-20305752D01*
X107181828Y-20305752D02*
X107277066Y-20353371D01*
X107277066Y-20353371D02*
X107324685Y-20400990D01*
X105229447Y-20305752D02*
X105229447Y-21115276D01*
X105229447Y-21115276D02*
X105277066Y-21210514D01*
X105277066Y-21210514D02*
X105324685Y-21258133D01*
X105324685Y-21258133D02*
X105419923Y-21305752D01*
X105419923Y-21305752D02*
X105562780Y-21305752D01*
X105562780Y-21305752D02*
X105658018Y-21258133D01*
X105229447Y-20924800D02*
X105324685Y-20972419D01*
X105324685Y-20972419D02*
X105515161Y-20972419D01*
X105515161Y-20972419D02*
X105610399Y-20924800D01*
X105610399Y-20924800D02*
X105658018Y-20877180D01*
X105658018Y-20877180D02*
X105705637Y-20781942D01*
X105705637Y-20781942D02*
X105705637Y-20496228D01*
X105705637Y-20496228D02*
X105658018Y-20400990D01*
X105658018Y-20400990D02*
X105610399Y-20353371D01*
X105610399Y-20353371D02*
X105515161Y-20305752D01*
X105515161Y-20305752D02*
X105324685Y-20305752D01*
X105324685Y-20305752D02*
X105229447Y-20353371D01*
X104753256Y-20972419D02*
X104753256Y-20305752D01*
X104753256Y-20496228D02*
X104705637Y-20400990D01*
X104705637Y-20400990D02*
X104658018Y-20353371D01*
X104658018Y-20353371D02*
X104562780Y-20305752D01*
X104562780Y-20305752D02*
X104467542Y-20305752D01*
X103991351Y-20972419D02*
X104086589Y-20924800D01*
X104086589Y-20924800D02*
X104134208Y-20877180D01*
X104134208Y-20877180D02*
X104181827Y-20781942D01*
X104181827Y-20781942D02*
X104181827Y-20496228D01*
X104181827Y-20496228D02*
X104134208Y-20400990D01*
X104134208Y-20400990D02*
X104086589Y-20353371D01*
X104086589Y-20353371D02*
X103991351Y-20305752D01*
X103991351Y-20305752D02*
X103848494Y-20305752D01*
X103848494Y-20305752D02*
X103753256Y-20353371D01*
X103753256Y-20353371D02*
X103705637Y-20400990D01*
X103705637Y-20400990D02*
X103658018Y-20496228D01*
X103658018Y-20496228D02*
X103658018Y-20781942D01*
X103658018Y-20781942D02*
X103705637Y-20877180D01*
X103705637Y-20877180D02*
X103753256Y-20924800D01*
X103753256Y-20924800D02*
X103848494Y-20972419D01*
X103848494Y-20972419D02*
X103991351Y-20972419D01*
X102800875Y-20305752D02*
X102800875Y-20972419D01*
X103229446Y-20305752D02*
X103229446Y-20829561D01*
X103229446Y-20829561D02*
X103181827Y-20924800D01*
X103181827Y-20924800D02*
X103086589Y-20972419D01*
X103086589Y-20972419D02*
X102943732Y-20972419D01*
X102943732Y-20972419D02*
X102848494Y-20924800D01*
X102848494Y-20924800D02*
X102800875Y-20877180D01*
X102324684Y-20305752D02*
X102324684Y-20972419D01*
X102324684Y-20400990D02*
X102277065Y-20353371D01*
X102277065Y-20353371D02*
X102181827Y-20305752D01*
X102181827Y-20305752D02*
X102038970Y-20305752D01*
X102038970Y-20305752D02*
X101943732Y-20353371D01*
X101943732Y-20353371D02*
X101896113Y-20448609D01*
X101896113Y-20448609D02*
X101896113Y-20972419D01*
X100991351Y-20972419D02*
X100991351Y-19972419D01*
X100991351Y-20924800D02*
X101086589Y-20972419D01*
X101086589Y-20972419D02*
X101277065Y-20972419D01*
X101277065Y-20972419D02*
X101372303Y-20924800D01*
X101372303Y-20924800D02*
X101419922Y-20877180D01*
X101419922Y-20877180D02*
X101467541Y-20781942D01*
X101467541Y-20781942D02*
X101467541Y-20496228D01*
X101467541Y-20496228D02*
X101419922Y-20400990D01*
X101419922Y-20400990D02*
X101372303Y-20353371D01*
X101372303Y-20353371D02*
X101277065Y-20305752D01*
X101277065Y-20305752D02*
X101086589Y-20305752D01*
X101086589Y-20305752D02*
X100991351Y-20353371D01*
X99896112Y-20305752D02*
X99515160Y-20305752D01*
X99753255Y-19972419D02*
X99753255Y-20829561D01*
X99753255Y-20829561D02*
X99705636Y-20924800D01*
X99705636Y-20924800D02*
X99610398Y-20972419D01*
X99610398Y-20972419D02*
X99515160Y-20972419D01*
X99038969Y-20972419D02*
X99134207Y-20924800D01*
X99134207Y-20924800D02*
X99181826Y-20877180D01*
X99181826Y-20877180D02*
X99229445Y-20781942D01*
X99229445Y-20781942D02*
X99229445Y-20496228D01*
X99229445Y-20496228D02*
X99181826Y-20400990D01*
X99181826Y-20400990D02*
X99134207Y-20353371D01*
X99134207Y-20353371D02*
X99038969Y-20305752D01*
X99038969Y-20305752D02*
X98896112Y-20305752D01*
X98896112Y-20305752D02*
X98800874Y-20353371D01*
X98800874Y-20353371D02*
X98753255Y-20400990D01*
X98753255Y-20400990D02*
X98705636Y-20496228D01*
X98705636Y-20496228D02*
X98705636Y-20781942D01*
X98705636Y-20781942D02*
X98753255Y-20877180D01*
X98753255Y-20877180D02*
X98800874Y-20924800D01*
X98800874Y-20924800D02*
X98896112Y-20972419D01*
X98896112Y-20972419D02*
X99038969Y-20972419D01*
X97562778Y-20924800D02*
X97467540Y-20972419D01*
X97467540Y-20972419D02*
X97277064Y-20972419D01*
X97277064Y-20972419D02*
X97181826Y-20924800D01*
X97181826Y-20924800D02*
X97134207Y-20829561D01*
X97134207Y-20829561D02*
X97134207Y-20781942D01*
X97134207Y-20781942D02*
X97181826Y-20686704D01*
X97181826Y-20686704D02*
X97277064Y-20639085D01*
X97277064Y-20639085D02*
X97419921Y-20639085D01*
X97419921Y-20639085D02*
X97515159Y-20591466D01*
X97515159Y-20591466D02*
X97562778Y-20496228D01*
X97562778Y-20496228D02*
X97562778Y-20448609D01*
X97562778Y-20448609D02*
X97515159Y-20353371D01*
X97515159Y-20353371D02*
X97419921Y-20305752D01*
X97419921Y-20305752D02*
X97277064Y-20305752D01*
X97277064Y-20305752D02*
X97181826Y-20353371D01*
X96705635Y-20305752D02*
X96705635Y-21305752D01*
X96705635Y-20353371D02*
X96610397Y-20305752D01*
X96610397Y-20305752D02*
X96419921Y-20305752D01*
X96419921Y-20305752D02*
X96324683Y-20353371D01*
X96324683Y-20353371D02*
X96277064Y-20400990D01*
X96277064Y-20400990D02*
X96229445Y-20496228D01*
X96229445Y-20496228D02*
X96229445Y-20781942D01*
X96229445Y-20781942D02*
X96277064Y-20877180D01*
X96277064Y-20877180D02*
X96324683Y-20924800D01*
X96324683Y-20924800D02*
X96419921Y-20972419D01*
X96419921Y-20972419D02*
X96610397Y-20972419D01*
X96610397Y-20972419D02*
X96705635Y-20924800D01*
X95419921Y-20924800D02*
X95515159Y-20972419D01*
X95515159Y-20972419D02*
X95705635Y-20972419D01*
X95705635Y-20972419D02*
X95800873Y-20924800D01*
X95800873Y-20924800D02*
X95848492Y-20829561D01*
X95848492Y-20829561D02*
X95848492Y-20448609D01*
X95848492Y-20448609D02*
X95800873Y-20353371D01*
X95800873Y-20353371D02*
X95705635Y-20305752D01*
X95705635Y-20305752D02*
X95515159Y-20305752D01*
X95515159Y-20305752D02*
X95419921Y-20353371D01*
X95419921Y-20353371D02*
X95372302Y-20448609D01*
X95372302Y-20448609D02*
X95372302Y-20543847D01*
X95372302Y-20543847D02*
X95848492Y-20639085D01*
X94515159Y-20972419D02*
X94515159Y-20448609D01*
X94515159Y-20448609D02*
X94562778Y-20353371D01*
X94562778Y-20353371D02*
X94658016Y-20305752D01*
X94658016Y-20305752D02*
X94848492Y-20305752D01*
X94848492Y-20305752D02*
X94943730Y-20353371D01*
X94515159Y-20924800D02*
X94610397Y-20972419D01*
X94610397Y-20972419D02*
X94848492Y-20972419D01*
X94848492Y-20972419D02*
X94943730Y-20924800D01*
X94943730Y-20924800D02*
X94991349Y-20829561D01*
X94991349Y-20829561D02*
X94991349Y-20734323D01*
X94991349Y-20734323D02*
X94943730Y-20639085D01*
X94943730Y-20639085D02*
X94848492Y-20591466D01*
X94848492Y-20591466D02*
X94610397Y-20591466D01*
X94610397Y-20591466D02*
X94515159Y-20543847D01*
X94038968Y-20972419D02*
X94038968Y-19972419D01*
X93943730Y-20591466D02*
X93658016Y-20972419D01*
X93658016Y-20305752D02*
X94038968Y-20686704D01*
X92610396Y-20305752D02*
X92229444Y-20305752D01*
X92467539Y-19972419D02*
X92467539Y-20829561D01*
X92467539Y-20829561D02*
X92419920Y-20924800D01*
X92419920Y-20924800D02*
X92324682Y-20972419D01*
X92324682Y-20972419D02*
X92229444Y-20972419D01*
X91753253Y-20972419D02*
X91848491Y-20924800D01*
X91848491Y-20924800D02*
X91896110Y-20877180D01*
X91896110Y-20877180D02*
X91943729Y-20781942D01*
X91943729Y-20781942D02*
X91943729Y-20496228D01*
X91943729Y-20496228D02*
X91896110Y-20400990D01*
X91896110Y-20400990D02*
X91848491Y-20353371D01*
X91848491Y-20353371D02*
X91753253Y-20305752D01*
X91753253Y-20305752D02*
X91610396Y-20305752D01*
X91610396Y-20305752D02*
X91515158Y-20353371D01*
X91515158Y-20353371D02*
X91467539Y-20400990D01*
X91467539Y-20400990D02*
X91419920Y-20496228D01*
X91419920Y-20496228D02*
X91419920Y-20781942D01*
X91419920Y-20781942D02*
X91467539Y-20877180D01*
X91467539Y-20877180D02*
X91515158Y-20924800D01*
X91515158Y-20924800D02*
X91610396Y-20972419D01*
X91610396Y-20972419D02*
X91753253Y-20972419D01*
X89800872Y-20972419D02*
X89800872Y-20448609D01*
X89800872Y-20448609D02*
X89848491Y-20353371D01*
X89848491Y-20353371D02*
X89943729Y-20305752D01*
X89943729Y-20305752D02*
X90134205Y-20305752D01*
X90134205Y-20305752D02*
X90229443Y-20353371D01*
X89800872Y-20924800D02*
X89896110Y-20972419D01*
X89896110Y-20972419D02*
X90134205Y-20972419D01*
X90134205Y-20972419D02*
X90229443Y-20924800D01*
X90229443Y-20924800D02*
X90277062Y-20829561D01*
X90277062Y-20829561D02*
X90277062Y-20734323D01*
X90277062Y-20734323D02*
X90229443Y-20639085D01*
X90229443Y-20639085D02*
X90134205Y-20591466D01*
X90134205Y-20591466D02*
X89896110Y-20591466D01*
X89896110Y-20591466D02*
X89800872Y-20543847D01*
X89181824Y-20972419D02*
X89277062Y-20924800D01*
X89277062Y-20924800D02*
X89324681Y-20829561D01*
X89324681Y-20829561D02*
X89324681Y-19972419D01*
X88800871Y-20972419D02*
X88800871Y-20305752D01*
X88800871Y-19972419D02*
X88848490Y-20020038D01*
X88848490Y-20020038D02*
X88800871Y-20067657D01*
X88800871Y-20067657D02*
X88753252Y-20020038D01*
X88753252Y-20020038D02*
X88800871Y-19972419D01*
X88800871Y-19972419D02*
X88800871Y-20067657D01*
X87943729Y-20924800D02*
X88038967Y-20972419D01*
X88038967Y-20972419D02*
X88229443Y-20972419D01*
X88229443Y-20972419D02*
X88324681Y-20924800D01*
X88324681Y-20924800D02*
X88372300Y-20829561D01*
X88372300Y-20829561D02*
X88372300Y-20448609D01*
X88372300Y-20448609D02*
X88324681Y-20353371D01*
X88324681Y-20353371D02*
X88229443Y-20305752D01*
X88229443Y-20305752D02*
X88038967Y-20305752D01*
X88038967Y-20305752D02*
X87943729Y-20353371D01*
X87943729Y-20353371D02*
X87896110Y-20448609D01*
X87896110Y-20448609D02*
X87896110Y-20543847D01*
X87896110Y-20543847D02*
X88372300Y-20639085D01*
X87467538Y-20305752D02*
X87467538Y-20972419D01*
X87467538Y-20400990D02*
X87419919Y-20353371D01*
X87419919Y-20353371D02*
X87324681Y-20305752D01*
X87324681Y-20305752D02*
X87181824Y-20305752D01*
X87181824Y-20305752D02*
X87086586Y-20353371D01*
X87086586Y-20353371D02*
X87038967Y-20448609D01*
X87038967Y-20448609D02*
X87038967Y-20972419D01*
X86610395Y-20924800D02*
X86515157Y-20972419D01*
X86515157Y-20972419D02*
X86324681Y-20972419D01*
X86324681Y-20972419D02*
X86229443Y-20924800D01*
X86229443Y-20924800D02*
X86181824Y-20829561D01*
X86181824Y-20829561D02*
X86181824Y-20781942D01*
X86181824Y-20781942D02*
X86229443Y-20686704D01*
X86229443Y-20686704D02*
X86324681Y-20639085D01*
X86324681Y-20639085D02*
X86467538Y-20639085D01*
X86467538Y-20639085D02*
X86562776Y-20591466D01*
X86562776Y-20591466D02*
X86610395Y-20496228D01*
X86610395Y-20496228D02*
X86610395Y-20448609D01*
X86610395Y-20448609D02*
X86562776Y-20353371D01*
X86562776Y-20353371D02*
X86467538Y-20305752D01*
X86467538Y-20305752D02*
X86324681Y-20305752D01*
X86324681Y-20305752D02*
X86229443Y-20353371D01*
X188491353Y-29305752D02*
X188253258Y-29972419D01*
X188015163Y-29305752D02*
X188253258Y-29972419D01*
X188253258Y-29972419D02*
X188348496Y-30210514D01*
X188348496Y-30210514D02*
X188396115Y-30258133D01*
X188396115Y-30258133D02*
X188491353Y-30305752D01*
X187491353Y-29972419D02*
X187586591Y-29924800D01*
X187586591Y-29924800D02*
X187634210Y-29877180D01*
X187634210Y-29877180D02*
X187681829Y-29781942D01*
X187681829Y-29781942D02*
X187681829Y-29496228D01*
X187681829Y-29496228D02*
X187634210Y-29400990D01*
X187634210Y-29400990D02*
X187586591Y-29353371D01*
X187586591Y-29353371D02*
X187491353Y-29305752D01*
X187491353Y-29305752D02*
X187348496Y-29305752D01*
X187348496Y-29305752D02*
X187253258Y-29353371D01*
X187253258Y-29353371D02*
X187205639Y-29400990D01*
X187205639Y-29400990D02*
X187158020Y-29496228D01*
X187158020Y-29496228D02*
X187158020Y-29781942D01*
X187158020Y-29781942D02*
X187205639Y-29877180D01*
X187205639Y-29877180D02*
X187253258Y-29924800D01*
X187253258Y-29924800D02*
X187348496Y-29972419D01*
X187348496Y-29972419D02*
X187491353Y-29972419D01*
X186300877Y-29305752D02*
X186300877Y-29972419D01*
X186729448Y-29305752D02*
X186729448Y-29829561D01*
X186729448Y-29829561D02*
X186681829Y-29924800D01*
X186681829Y-29924800D02*
X186586591Y-29972419D01*
X186586591Y-29972419D02*
X186443734Y-29972419D01*
X186443734Y-29972419D02*
X186348496Y-29924800D01*
X186348496Y-29924800D02*
X186300877Y-29877180D01*
X185110400Y-29924800D02*
X185015162Y-29972419D01*
X185015162Y-29972419D02*
X184824686Y-29972419D01*
X184824686Y-29972419D02*
X184729448Y-29924800D01*
X184729448Y-29924800D02*
X184681829Y-29829561D01*
X184681829Y-29829561D02*
X184681829Y-29781942D01*
X184681829Y-29781942D02*
X184729448Y-29686704D01*
X184729448Y-29686704D02*
X184824686Y-29639085D01*
X184824686Y-29639085D02*
X184967543Y-29639085D01*
X184967543Y-29639085D02*
X185062781Y-29591466D01*
X185062781Y-29591466D02*
X185110400Y-29496228D01*
X185110400Y-29496228D02*
X185110400Y-29448609D01*
X185110400Y-29448609D02*
X185062781Y-29353371D01*
X185062781Y-29353371D02*
X184967543Y-29305752D01*
X184967543Y-29305752D02*
X184824686Y-29305752D01*
X184824686Y-29305752D02*
X184729448Y-29353371D01*
X184253257Y-29972419D02*
X184253257Y-28972419D01*
X183824686Y-29972419D02*
X183824686Y-29448609D01*
X183824686Y-29448609D02*
X183872305Y-29353371D01*
X183872305Y-29353371D02*
X183967543Y-29305752D01*
X183967543Y-29305752D02*
X184110400Y-29305752D01*
X184110400Y-29305752D02*
X184205638Y-29353371D01*
X184205638Y-29353371D02*
X184253257Y-29400990D01*
X183205638Y-29972419D02*
X183300876Y-29924800D01*
X183300876Y-29924800D02*
X183348495Y-29877180D01*
X183348495Y-29877180D02*
X183396114Y-29781942D01*
X183396114Y-29781942D02*
X183396114Y-29496228D01*
X183396114Y-29496228D02*
X183348495Y-29400990D01*
X183348495Y-29400990D02*
X183300876Y-29353371D01*
X183300876Y-29353371D02*
X183205638Y-29305752D01*
X183205638Y-29305752D02*
X183062781Y-29305752D01*
X183062781Y-29305752D02*
X182967543Y-29353371D01*
X182967543Y-29353371D02*
X182919924Y-29400990D01*
X182919924Y-29400990D02*
X182872305Y-29496228D01*
X182872305Y-29496228D02*
X182872305Y-29781942D01*
X182872305Y-29781942D02*
X182919924Y-29877180D01*
X182919924Y-29877180D02*
X182967543Y-29924800D01*
X182967543Y-29924800D02*
X183062781Y-29972419D01*
X183062781Y-29972419D02*
X183205638Y-29972419D01*
X182015162Y-29305752D02*
X182015162Y-29972419D01*
X182443733Y-29305752D02*
X182443733Y-29829561D01*
X182443733Y-29829561D02*
X182396114Y-29924800D01*
X182396114Y-29924800D02*
X182300876Y-29972419D01*
X182300876Y-29972419D02*
X182158019Y-29972419D01*
X182158019Y-29972419D02*
X182062781Y-29924800D01*
X182062781Y-29924800D02*
X182015162Y-29877180D01*
X181396114Y-29972419D02*
X181491352Y-29924800D01*
X181491352Y-29924800D02*
X181538971Y-29829561D01*
X181538971Y-29829561D02*
X181538971Y-28972419D01*
X180586590Y-29972419D02*
X180586590Y-28972419D01*
X180586590Y-29924800D02*
X180681828Y-29972419D01*
X180681828Y-29972419D02*
X180872304Y-29972419D01*
X180872304Y-29972419D02*
X180967542Y-29924800D01*
X180967542Y-29924800D02*
X181015161Y-29877180D01*
X181015161Y-29877180D02*
X181062780Y-29781942D01*
X181062780Y-29781942D02*
X181062780Y-29496228D01*
X181062780Y-29496228D02*
X181015161Y-29400990D01*
X181015161Y-29400990D02*
X180967542Y-29353371D01*
X180967542Y-29353371D02*
X180872304Y-29305752D01*
X180872304Y-29305752D02*
X180681828Y-29305752D01*
X180681828Y-29305752D02*
X180586590Y-29353371D01*
X179348494Y-29305752D02*
X179348494Y-30305752D01*
X179348494Y-29353371D02*
X179253256Y-29305752D01*
X179253256Y-29305752D02*
X179062780Y-29305752D01*
X179062780Y-29305752D02*
X178967542Y-29353371D01*
X178967542Y-29353371D02*
X178919923Y-29400990D01*
X178919923Y-29400990D02*
X178872304Y-29496228D01*
X178872304Y-29496228D02*
X178872304Y-29781942D01*
X178872304Y-29781942D02*
X178919923Y-29877180D01*
X178919923Y-29877180D02*
X178967542Y-29924800D01*
X178967542Y-29924800D02*
X179062780Y-29972419D01*
X179062780Y-29972419D02*
X179253256Y-29972419D01*
X179253256Y-29972419D02*
X179348494Y-29924800D01*
X178443732Y-29972419D02*
X178443732Y-29305752D01*
X178443732Y-29496228D02*
X178396113Y-29400990D01*
X178396113Y-29400990D02*
X178348494Y-29353371D01*
X178348494Y-29353371D02*
X178253256Y-29305752D01*
X178253256Y-29305752D02*
X178158018Y-29305752D01*
X177681827Y-29972419D02*
X177777065Y-29924800D01*
X177777065Y-29924800D02*
X177824684Y-29877180D01*
X177824684Y-29877180D02*
X177872303Y-29781942D01*
X177872303Y-29781942D02*
X177872303Y-29496228D01*
X177872303Y-29496228D02*
X177824684Y-29400990D01*
X177824684Y-29400990D02*
X177777065Y-29353371D01*
X177777065Y-29353371D02*
X177681827Y-29305752D01*
X177681827Y-29305752D02*
X177538970Y-29305752D01*
X177538970Y-29305752D02*
X177443732Y-29353371D01*
X177443732Y-29353371D02*
X177396113Y-29400990D01*
X177396113Y-29400990D02*
X177348494Y-29496228D01*
X177348494Y-29496228D02*
X177348494Y-29781942D01*
X177348494Y-29781942D02*
X177396113Y-29877180D01*
X177396113Y-29877180D02*
X177443732Y-29924800D01*
X177443732Y-29924800D02*
X177538970Y-29972419D01*
X177538970Y-29972419D02*
X177681827Y-29972419D01*
X176919922Y-29972419D02*
X176919922Y-28972419D01*
X176919922Y-29353371D02*
X176824684Y-29305752D01*
X176824684Y-29305752D02*
X176634208Y-29305752D01*
X176634208Y-29305752D02*
X176538970Y-29353371D01*
X176538970Y-29353371D02*
X176491351Y-29400990D01*
X176491351Y-29400990D02*
X176443732Y-29496228D01*
X176443732Y-29496228D02*
X176443732Y-29781942D01*
X176443732Y-29781942D02*
X176491351Y-29877180D01*
X176491351Y-29877180D02*
X176538970Y-29924800D01*
X176538970Y-29924800D02*
X176634208Y-29972419D01*
X176634208Y-29972419D02*
X176824684Y-29972419D01*
X176824684Y-29972419D02*
X176919922Y-29924800D01*
X175586589Y-29972419D02*
X175586589Y-29448609D01*
X175586589Y-29448609D02*
X175634208Y-29353371D01*
X175634208Y-29353371D02*
X175729446Y-29305752D01*
X175729446Y-29305752D02*
X175919922Y-29305752D01*
X175919922Y-29305752D02*
X176015160Y-29353371D01*
X175586589Y-29924800D02*
X175681827Y-29972419D01*
X175681827Y-29972419D02*
X175919922Y-29972419D01*
X175919922Y-29972419D02*
X176015160Y-29924800D01*
X176015160Y-29924800D02*
X176062779Y-29829561D01*
X176062779Y-29829561D02*
X176062779Y-29734323D01*
X176062779Y-29734323D02*
X176015160Y-29639085D01*
X176015160Y-29639085D02*
X175919922Y-29591466D01*
X175919922Y-29591466D02*
X175681827Y-29591466D01*
X175681827Y-29591466D02*
X175586589Y-29543847D01*
X175110398Y-29972419D02*
X175110398Y-28972419D01*
X175110398Y-29353371D02*
X175015160Y-29305752D01*
X175015160Y-29305752D02*
X174824684Y-29305752D01*
X174824684Y-29305752D02*
X174729446Y-29353371D01*
X174729446Y-29353371D02*
X174681827Y-29400990D01*
X174681827Y-29400990D02*
X174634208Y-29496228D01*
X174634208Y-29496228D02*
X174634208Y-29781942D01*
X174634208Y-29781942D02*
X174681827Y-29877180D01*
X174681827Y-29877180D02*
X174729446Y-29924800D01*
X174729446Y-29924800D02*
X174824684Y-29972419D01*
X174824684Y-29972419D02*
X175015160Y-29972419D01*
X175015160Y-29972419D02*
X175110398Y-29924800D01*
X174062779Y-29972419D02*
X174158017Y-29924800D01*
X174158017Y-29924800D02*
X174205636Y-29829561D01*
X174205636Y-29829561D02*
X174205636Y-28972419D01*
X173777064Y-29305752D02*
X173538969Y-29972419D01*
X173300874Y-29305752D02*
X173538969Y-29972419D01*
X173538969Y-29972419D02*
X173634207Y-30210514D01*
X173634207Y-30210514D02*
X173681826Y-30258133D01*
X173681826Y-30258133D02*
X173777064Y-30305752D01*
X172158016Y-29972419D02*
X172158016Y-28972419D01*
X172062778Y-29591466D02*
X171777064Y-29972419D01*
X171777064Y-29305752D02*
X172158016Y-29686704D01*
X170967540Y-29924800D02*
X171062778Y-29972419D01*
X171062778Y-29972419D02*
X171253254Y-29972419D01*
X171253254Y-29972419D02*
X171348492Y-29924800D01*
X171348492Y-29924800D02*
X171396111Y-29829561D01*
X171396111Y-29829561D02*
X171396111Y-29448609D01*
X171396111Y-29448609D02*
X171348492Y-29353371D01*
X171348492Y-29353371D02*
X171253254Y-29305752D01*
X171253254Y-29305752D02*
X171062778Y-29305752D01*
X171062778Y-29305752D02*
X170967540Y-29353371D01*
X170967540Y-29353371D02*
X170919921Y-29448609D01*
X170919921Y-29448609D02*
X170919921Y-29543847D01*
X170919921Y-29543847D02*
X171396111Y-29639085D01*
X170110397Y-29924800D02*
X170205635Y-29972419D01*
X170205635Y-29972419D02*
X170396111Y-29972419D01*
X170396111Y-29972419D02*
X170491349Y-29924800D01*
X170491349Y-29924800D02*
X170538968Y-29829561D01*
X170538968Y-29829561D02*
X170538968Y-29448609D01*
X170538968Y-29448609D02*
X170491349Y-29353371D01*
X170491349Y-29353371D02*
X170396111Y-29305752D01*
X170396111Y-29305752D02*
X170205635Y-29305752D01*
X170205635Y-29305752D02*
X170110397Y-29353371D01*
X170110397Y-29353371D02*
X170062778Y-29448609D01*
X170062778Y-29448609D02*
X170062778Y-29543847D01*
X170062778Y-29543847D02*
X170538968Y-29639085D01*
X169634206Y-29305752D02*
X169634206Y-30305752D01*
X169634206Y-29353371D02*
X169538968Y-29305752D01*
X169538968Y-29305752D02*
X169348492Y-29305752D01*
X169348492Y-29305752D02*
X169253254Y-29353371D01*
X169253254Y-29353371D02*
X169205635Y-29400990D01*
X169205635Y-29400990D02*
X169158016Y-29496228D01*
X169158016Y-29496228D02*
X169158016Y-29781942D01*
X169158016Y-29781942D02*
X169205635Y-29877180D01*
X169205635Y-29877180D02*
X169253254Y-29924800D01*
X169253254Y-29924800D02*
X169348492Y-29972419D01*
X169348492Y-29972419D02*
X169538968Y-29972419D01*
X169538968Y-29972419D02*
X169634206Y-29924800D01*
X168110396Y-29305752D02*
X167729444Y-29305752D01*
X167967539Y-28972419D02*
X167967539Y-29829561D01*
X167967539Y-29829561D02*
X167919920Y-29924800D01*
X167919920Y-29924800D02*
X167824682Y-29972419D01*
X167824682Y-29972419D02*
X167729444Y-29972419D01*
X167396110Y-29972419D02*
X167396110Y-28972419D01*
X166967539Y-29972419D02*
X166967539Y-29448609D01*
X166967539Y-29448609D02*
X167015158Y-29353371D01*
X167015158Y-29353371D02*
X167110396Y-29305752D01*
X167110396Y-29305752D02*
X167253253Y-29305752D01*
X167253253Y-29305752D02*
X167348491Y-29353371D01*
X167348491Y-29353371D02*
X167396110Y-29400990D01*
X166491348Y-29972419D02*
X166491348Y-29305752D01*
X166491348Y-28972419D02*
X166538967Y-29020038D01*
X166538967Y-29020038D02*
X166491348Y-29067657D01*
X166491348Y-29067657D02*
X166443729Y-29020038D01*
X166443729Y-29020038D02*
X166491348Y-28972419D01*
X166491348Y-28972419D02*
X166491348Y-29067657D01*
X166062777Y-29924800D02*
X165967539Y-29972419D01*
X165967539Y-29972419D02*
X165777063Y-29972419D01*
X165777063Y-29972419D02*
X165681825Y-29924800D01*
X165681825Y-29924800D02*
X165634206Y-29829561D01*
X165634206Y-29829561D02*
X165634206Y-29781942D01*
X165634206Y-29781942D02*
X165681825Y-29686704D01*
X165681825Y-29686704D02*
X165777063Y-29639085D01*
X165777063Y-29639085D02*
X165919920Y-29639085D01*
X165919920Y-29639085D02*
X166015158Y-29591466D01*
X166015158Y-29591466D02*
X166062777Y-29496228D01*
X166062777Y-29496228D02*
X166062777Y-29448609D01*
X166062777Y-29448609D02*
X166015158Y-29353371D01*
X166015158Y-29353371D02*
X165919920Y-29305752D01*
X165919920Y-29305752D02*
X165777063Y-29305752D01*
X165777063Y-29305752D02*
X165681825Y-29353371D01*
X52438972Y-14905752D02*
X52058020Y-14905752D01*
X52296115Y-14572419D02*
X52296115Y-15429561D01*
X52296115Y-15429561D02*
X52248496Y-15524800D01*
X52248496Y-15524800D02*
X52153258Y-15572419D01*
X52153258Y-15572419D02*
X52058020Y-15572419D01*
X51724686Y-15572419D02*
X51724686Y-14572419D01*
X51296115Y-15572419D02*
X51296115Y-15048609D01*
X51296115Y-15048609D02*
X51343734Y-14953371D01*
X51343734Y-14953371D02*
X51438972Y-14905752D01*
X51438972Y-14905752D02*
X51581829Y-14905752D01*
X51581829Y-14905752D02*
X51677067Y-14953371D01*
X51677067Y-14953371D02*
X51724686Y-15000990D01*
X50438972Y-15524800D02*
X50534210Y-15572419D01*
X50534210Y-15572419D02*
X50724686Y-15572419D01*
X50724686Y-15572419D02*
X50819924Y-15524800D01*
X50819924Y-15524800D02*
X50867543Y-15429561D01*
X50867543Y-15429561D02*
X50867543Y-15048609D01*
X50867543Y-15048609D02*
X50819924Y-14953371D01*
X50819924Y-14953371D02*
X50724686Y-14905752D01*
X50724686Y-14905752D02*
X50534210Y-14905752D01*
X50534210Y-14905752D02*
X50438972Y-14953371D01*
X50438972Y-14953371D02*
X50391353Y-15048609D01*
X50391353Y-15048609D02*
X50391353Y-15143847D01*
X50391353Y-15143847D02*
X50867543Y-15239085D01*
X48772305Y-14905752D02*
X48772305Y-15572419D01*
X49200876Y-14905752D02*
X49200876Y-15429561D01*
X49200876Y-15429561D02*
X49153257Y-15524800D01*
X49153257Y-15524800D02*
X49058019Y-15572419D01*
X49058019Y-15572419D02*
X48915162Y-15572419D01*
X48915162Y-15572419D02*
X48819924Y-15524800D01*
X48819924Y-15524800D02*
X48772305Y-15477180D01*
X48153257Y-15572419D02*
X48248495Y-15524800D01*
X48248495Y-15524800D02*
X48296114Y-15429561D01*
X48296114Y-15429561D02*
X48296114Y-14572419D01*
X47915161Y-14905752D02*
X47534209Y-14905752D01*
X47772304Y-14572419D02*
X47772304Y-15429561D01*
X47772304Y-15429561D02*
X47724685Y-15524800D01*
X47724685Y-15524800D02*
X47629447Y-15572419D01*
X47629447Y-15572419D02*
X47534209Y-15572419D01*
X47200875Y-15572419D02*
X47200875Y-14905752D01*
X47200875Y-14572419D02*
X47248494Y-14620038D01*
X47248494Y-14620038D02*
X47200875Y-14667657D01*
X47200875Y-14667657D02*
X47153256Y-14620038D01*
X47153256Y-14620038D02*
X47200875Y-14572419D01*
X47200875Y-14572419D02*
X47200875Y-14667657D01*
X46724685Y-15572419D02*
X46724685Y-14905752D01*
X46724685Y-15000990D02*
X46677066Y-14953371D01*
X46677066Y-14953371D02*
X46581828Y-14905752D01*
X46581828Y-14905752D02*
X46438971Y-14905752D01*
X46438971Y-14905752D02*
X46343733Y-14953371D01*
X46343733Y-14953371D02*
X46296114Y-15048609D01*
X46296114Y-15048609D02*
X46296114Y-15572419D01*
X46296114Y-15048609D02*
X46248495Y-14953371D01*
X46248495Y-14953371D02*
X46153257Y-14905752D01*
X46153257Y-14905752D02*
X46010400Y-14905752D01*
X46010400Y-14905752D02*
X45915161Y-14953371D01*
X45915161Y-14953371D02*
X45867542Y-15048609D01*
X45867542Y-15048609D02*
X45867542Y-15572419D01*
X44962781Y-15572419D02*
X44962781Y-15048609D01*
X44962781Y-15048609D02*
X45010400Y-14953371D01*
X45010400Y-14953371D02*
X45105638Y-14905752D01*
X45105638Y-14905752D02*
X45296114Y-14905752D01*
X45296114Y-14905752D02*
X45391352Y-14953371D01*
X44962781Y-15524800D02*
X45058019Y-15572419D01*
X45058019Y-15572419D02*
X45296114Y-15572419D01*
X45296114Y-15572419D02*
X45391352Y-15524800D01*
X45391352Y-15524800D02*
X45438971Y-15429561D01*
X45438971Y-15429561D02*
X45438971Y-15334323D01*
X45438971Y-15334323D02*
X45391352Y-15239085D01*
X45391352Y-15239085D02*
X45296114Y-15191466D01*
X45296114Y-15191466D02*
X45058019Y-15191466D01*
X45058019Y-15191466D02*
X44962781Y-15143847D01*
X44629447Y-14905752D02*
X44248495Y-14905752D01*
X44486590Y-14572419D02*
X44486590Y-15429561D01*
X44486590Y-15429561D02*
X44438971Y-15524800D01*
X44438971Y-15524800D02*
X44343733Y-15572419D01*
X44343733Y-15572419D02*
X44248495Y-15572419D01*
X43534209Y-15524800D02*
X43629447Y-15572419D01*
X43629447Y-15572419D02*
X43819923Y-15572419D01*
X43819923Y-15572419D02*
X43915161Y-15524800D01*
X43915161Y-15524800D02*
X43962780Y-15429561D01*
X43962780Y-15429561D02*
X43962780Y-15048609D01*
X43962780Y-15048609D02*
X43915161Y-14953371D01*
X43915161Y-14953371D02*
X43819923Y-14905752D01*
X43819923Y-14905752D02*
X43629447Y-14905752D01*
X43629447Y-14905752D02*
X43534209Y-14953371D01*
X43534209Y-14953371D02*
X43486590Y-15048609D01*
X43486590Y-15048609D02*
X43486590Y-15143847D01*
X43486590Y-15143847D02*
X43962780Y-15239085D01*
X42343732Y-15524800D02*
X42248494Y-15572419D01*
X42248494Y-15572419D02*
X42058018Y-15572419D01*
X42058018Y-15572419D02*
X41962780Y-15524800D01*
X41962780Y-15524800D02*
X41915161Y-15429561D01*
X41915161Y-15429561D02*
X41915161Y-15381942D01*
X41915161Y-15381942D02*
X41962780Y-15286704D01*
X41962780Y-15286704D02*
X42058018Y-15239085D01*
X42058018Y-15239085D02*
X42200875Y-15239085D01*
X42200875Y-15239085D02*
X42296113Y-15191466D01*
X42296113Y-15191466D02*
X42343732Y-15096228D01*
X42343732Y-15096228D02*
X42343732Y-15048609D01*
X42343732Y-15048609D02*
X42296113Y-14953371D01*
X42296113Y-14953371D02*
X42200875Y-14905752D01*
X42200875Y-14905752D02*
X42058018Y-14905752D01*
X42058018Y-14905752D02*
X41962780Y-14953371D01*
X41105637Y-15524800D02*
X41200875Y-15572419D01*
X41200875Y-15572419D02*
X41391351Y-15572419D01*
X41391351Y-15572419D02*
X41486589Y-15524800D01*
X41486589Y-15524800D02*
X41534208Y-15429561D01*
X41534208Y-15429561D02*
X41534208Y-15048609D01*
X41534208Y-15048609D02*
X41486589Y-14953371D01*
X41486589Y-14953371D02*
X41391351Y-14905752D01*
X41391351Y-14905752D02*
X41200875Y-14905752D01*
X41200875Y-14905752D02*
X41105637Y-14953371D01*
X41105637Y-14953371D02*
X41058018Y-15048609D01*
X41058018Y-15048609D02*
X41058018Y-15143847D01*
X41058018Y-15143847D02*
X41534208Y-15239085D01*
X40629446Y-14905752D02*
X40629446Y-15572419D01*
X40629446Y-15000990D02*
X40581827Y-14953371D01*
X40581827Y-14953371D02*
X40486589Y-14905752D01*
X40486589Y-14905752D02*
X40343732Y-14905752D01*
X40343732Y-14905752D02*
X40248494Y-14953371D01*
X40248494Y-14953371D02*
X40200875Y-15048609D01*
X40200875Y-15048609D02*
X40200875Y-15572419D01*
X39772303Y-15524800D02*
X39677065Y-15572419D01*
X39677065Y-15572419D02*
X39486589Y-15572419D01*
X39486589Y-15572419D02*
X39391351Y-15524800D01*
X39391351Y-15524800D02*
X39343732Y-15429561D01*
X39343732Y-15429561D02*
X39343732Y-15381942D01*
X39343732Y-15381942D02*
X39391351Y-15286704D01*
X39391351Y-15286704D02*
X39486589Y-15239085D01*
X39486589Y-15239085D02*
X39629446Y-15239085D01*
X39629446Y-15239085D02*
X39724684Y-15191466D01*
X39724684Y-15191466D02*
X39772303Y-15096228D01*
X39772303Y-15096228D02*
X39772303Y-15048609D01*
X39772303Y-15048609D02*
X39724684Y-14953371D01*
X39724684Y-14953371D02*
X39629446Y-14905752D01*
X39629446Y-14905752D02*
X39486589Y-14905752D01*
X39486589Y-14905752D02*
X39391351Y-14953371D01*
X38772303Y-15572419D02*
X38867541Y-15524800D01*
X38867541Y-15524800D02*
X38915160Y-15477180D01*
X38915160Y-15477180D02*
X38962779Y-15381942D01*
X38962779Y-15381942D02*
X38962779Y-15096228D01*
X38962779Y-15096228D02*
X38915160Y-15000990D01*
X38915160Y-15000990D02*
X38867541Y-14953371D01*
X38867541Y-14953371D02*
X38772303Y-14905752D01*
X38772303Y-14905752D02*
X38629446Y-14905752D01*
X38629446Y-14905752D02*
X38534208Y-14953371D01*
X38534208Y-14953371D02*
X38486589Y-15000990D01*
X38486589Y-15000990D02*
X38438970Y-15096228D01*
X38438970Y-15096228D02*
X38438970Y-15381942D01*
X38438970Y-15381942D02*
X38486589Y-15477180D01*
X38486589Y-15477180D02*
X38534208Y-15524800D01*
X38534208Y-15524800D02*
X38629446Y-15572419D01*
X38629446Y-15572419D02*
X38772303Y-15572419D01*
X38010398Y-15572419D02*
X38010398Y-14905752D01*
X38010398Y-15096228D02*
X37962779Y-15000990D01*
X37962779Y-15000990D02*
X37915160Y-14953371D01*
X37915160Y-14953371D02*
X37819922Y-14905752D01*
X37819922Y-14905752D02*
X37724684Y-14905752D01*
X37391350Y-15191466D02*
X36629446Y-15191466D01*
X36248493Y-14905752D02*
X36010398Y-15572419D01*
X35772303Y-14905752D02*
X36010398Y-15572419D01*
X36010398Y-15572419D02*
X36105636Y-15810514D01*
X36105636Y-15810514D02*
X36153255Y-15858133D01*
X36153255Y-15858133D02*
X36248493Y-15905752D01*
X34248493Y-15524800D02*
X34343731Y-15572419D01*
X34343731Y-15572419D02*
X34534207Y-15572419D01*
X34534207Y-15572419D02*
X34629445Y-15524800D01*
X34629445Y-15524800D02*
X34677064Y-15429561D01*
X34677064Y-15429561D02*
X34677064Y-15048609D01*
X34677064Y-15048609D02*
X34629445Y-14953371D01*
X34629445Y-14953371D02*
X34534207Y-14905752D01*
X34534207Y-14905752D02*
X34343731Y-14905752D01*
X34343731Y-14905752D02*
X34248493Y-14953371D01*
X34248493Y-14953371D02*
X34200874Y-15048609D01*
X34200874Y-15048609D02*
X34200874Y-15143847D01*
X34200874Y-15143847D02*
X34677064Y-15239085D01*
X33867540Y-15572419D02*
X33343731Y-14905752D01*
X33867540Y-14905752D02*
X33343731Y-15572419D01*
X32962778Y-14905752D02*
X32962778Y-15905752D01*
X32962778Y-14953371D02*
X32867540Y-14905752D01*
X32867540Y-14905752D02*
X32677064Y-14905752D01*
X32677064Y-14905752D02*
X32581826Y-14953371D01*
X32581826Y-14953371D02*
X32534207Y-15000990D01*
X32534207Y-15000990D02*
X32486588Y-15096228D01*
X32486588Y-15096228D02*
X32486588Y-15381942D01*
X32486588Y-15381942D02*
X32534207Y-15477180D01*
X32534207Y-15477180D02*
X32581826Y-15524800D01*
X32581826Y-15524800D02*
X32677064Y-15572419D01*
X32677064Y-15572419D02*
X32867540Y-15572419D01*
X32867540Y-15572419D02*
X32962778Y-15524800D01*
X31677064Y-15524800D02*
X31772302Y-15572419D01*
X31772302Y-15572419D02*
X31962778Y-15572419D01*
X31962778Y-15572419D02*
X32058016Y-15524800D01*
X32058016Y-15524800D02*
X32105635Y-15429561D01*
X32105635Y-15429561D02*
X32105635Y-15048609D01*
X32105635Y-15048609D02*
X32058016Y-14953371D01*
X32058016Y-14953371D02*
X31962778Y-14905752D01*
X31962778Y-14905752D02*
X31772302Y-14905752D01*
X31772302Y-14905752D02*
X31677064Y-14953371D01*
X31677064Y-14953371D02*
X31629445Y-15048609D01*
X31629445Y-15048609D02*
X31629445Y-15143847D01*
X31629445Y-15143847D02*
X32105635Y-15239085D01*
X31200873Y-15572419D02*
X31200873Y-14905752D01*
X31200873Y-15096228D02*
X31153254Y-15000990D01*
X31153254Y-15000990D02*
X31105635Y-14953371D01*
X31105635Y-14953371D02*
X31010397Y-14905752D01*
X31010397Y-14905752D02*
X30915159Y-14905752D01*
X30581825Y-15572419D02*
X30581825Y-14905752D01*
X30581825Y-14572419D02*
X30629444Y-14620038D01*
X30629444Y-14620038D02*
X30581825Y-14667657D01*
X30581825Y-14667657D02*
X30534206Y-14620038D01*
X30534206Y-14620038D02*
X30581825Y-14572419D01*
X30581825Y-14572419D02*
X30581825Y-14667657D01*
X29724683Y-15524800D02*
X29819921Y-15572419D01*
X29819921Y-15572419D02*
X30010397Y-15572419D01*
X30010397Y-15572419D02*
X30105635Y-15524800D01*
X30105635Y-15524800D02*
X30153254Y-15429561D01*
X30153254Y-15429561D02*
X30153254Y-15048609D01*
X30153254Y-15048609D02*
X30105635Y-14953371D01*
X30105635Y-14953371D02*
X30010397Y-14905752D01*
X30010397Y-14905752D02*
X29819921Y-14905752D01*
X29819921Y-14905752D02*
X29724683Y-14953371D01*
X29724683Y-14953371D02*
X29677064Y-15048609D01*
X29677064Y-15048609D02*
X29677064Y-15143847D01*
X29677064Y-15143847D02*
X30153254Y-15239085D01*
X29248492Y-14905752D02*
X29248492Y-15572419D01*
X29248492Y-15000990D02*
X29200873Y-14953371D01*
X29200873Y-14953371D02*
X29105635Y-14905752D01*
X29105635Y-14905752D02*
X28962778Y-14905752D01*
X28962778Y-14905752D02*
X28867540Y-14953371D01*
X28867540Y-14953371D02*
X28819921Y-15048609D01*
X28819921Y-15048609D02*
X28819921Y-15572419D01*
X27915159Y-15524800D02*
X28010397Y-15572419D01*
X28010397Y-15572419D02*
X28200873Y-15572419D01*
X28200873Y-15572419D02*
X28296111Y-15524800D01*
X28296111Y-15524800D02*
X28343730Y-15477180D01*
X28343730Y-15477180D02*
X28391349Y-15381942D01*
X28391349Y-15381942D02*
X28391349Y-15096228D01*
X28391349Y-15096228D02*
X28343730Y-15000990D01*
X28343730Y-15000990D02*
X28296111Y-14953371D01*
X28296111Y-14953371D02*
X28200873Y-14905752D01*
X28200873Y-14905752D02*
X28010397Y-14905752D01*
X28010397Y-14905752D02*
X27915159Y-14953371D01*
X27105635Y-15524800D02*
X27200873Y-15572419D01*
X27200873Y-15572419D02*
X27391349Y-15572419D01*
X27391349Y-15572419D02*
X27486587Y-15524800D01*
X27486587Y-15524800D02*
X27534206Y-15429561D01*
X27534206Y-15429561D02*
X27534206Y-15048609D01*
X27534206Y-15048609D02*
X27486587Y-14953371D01*
X27486587Y-14953371D02*
X27391349Y-14905752D01*
X27391349Y-14905752D02*
X27200873Y-14905752D01*
X27200873Y-14905752D02*
X27105635Y-14953371D01*
X27105635Y-14953371D02*
X27058016Y-15048609D01*
X27058016Y-15048609D02*
X27058016Y-15143847D01*
X27058016Y-15143847D02*
X27534206Y-15239085D01*
X76196115Y-36172419D02*
X76196115Y-35172419D01*
X74958020Y-36172419D02*
X74958020Y-35172419D01*
X74529449Y-36172419D02*
X74529449Y-35648609D01*
X74529449Y-35648609D02*
X74577068Y-35553371D01*
X74577068Y-35553371D02*
X74672306Y-35505752D01*
X74672306Y-35505752D02*
X74815163Y-35505752D01*
X74815163Y-35505752D02*
X74910401Y-35553371D01*
X74910401Y-35553371D02*
X74958020Y-35600990D01*
X73910401Y-36172419D02*
X74005639Y-36124800D01*
X74005639Y-36124800D02*
X74053258Y-36077180D01*
X74053258Y-36077180D02*
X74100877Y-35981942D01*
X74100877Y-35981942D02*
X74100877Y-35696228D01*
X74100877Y-35696228D02*
X74053258Y-35600990D01*
X74053258Y-35600990D02*
X74005639Y-35553371D01*
X74005639Y-35553371D02*
X73910401Y-35505752D01*
X73910401Y-35505752D02*
X73767544Y-35505752D01*
X73767544Y-35505752D02*
X73672306Y-35553371D01*
X73672306Y-35553371D02*
X73624687Y-35600990D01*
X73624687Y-35600990D02*
X73577068Y-35696228D01*
X73577068Y-35696228D02*
X73577068Y-35981942D01*
X73577068Y-35981942D02*
X73624687Y-36077180D01*
X73624687Y-36077180D02*
X73672306Y-36124800D01*
X73672306Y-36124800D02*
X73767544Y-36172419D01*
X73767544Y-36172419D02*
X73910401Y-36172419D01*
X73148496Y-35505752D02*
X73148496Y-36505752D01*
X73148496Y-35553371D02*
X73053258Y-35505752D01*
X73053258Y-35505752D02*
X72862782Y-35505752D01*
X72862782Y-35505752D02*
X72767544Y-35553371D01*
X72767544Y-35553371D02*
X72719925Y-35600990D01*
X72719925Y-35600990D02*
X72672306Y-35696228D01*
X72672306Y-35696228D02*
X72672306Y-35981942D01*
X72672306Y-35981942D02*
X72719925Y-36077180D01*
X72719925Y-36077180D02*
X72767544Y-36124800D01*
X72767544Y-36124800D02*
X72862782Y-36172419D01*
X72862782Y-36172419D02*
X73053258Y-36172419D01*
X73053258Y-36172419D02*
X73148496Y-36124800D01*
X71862782Y-36124800D02*
X71958020Y-36172419D01*
X71958020Y-36172419D02*
X72148496Y-36172419D01*
X72148496Y-36172419D02*
X72243734Y-36124800D01*
X72243734Y-36124800D02*
X72291353Y-36029561D01*
X72291353Y-36029561D02*
X72291353Y-35648609D01*
X72291353Y-35648609D02*
X72243734Y-35553371D01*
X72243734Y-35553371D02*
X72148496Y-35505752D01*
X72148496Y-35505752D02*
X71958020Y-35505752D01*
X71958020Y-35505752D02*
X71862782Y-35553371D01*
X71862782Y-35553371D02*
X71815163Y-35648609D01*
X71815163Y-35648609D02*
X71815163Y-35743847D01*
X71815163Y-35743847D02*
X72291353Y-35839085D01*
X70719924Y-35505752D02*
X70481829Y-36172419D01*
X70243734Y-35505752D02*
X70481829Y-36172419D01*
X70481829Y-36172419D02*
X70577067Y-36410514D01*
X70577067Y-36410514D02*
X70624686Y-36458133D01*
X70624686Y-36458133D02*
X70719924Y-36505752D01*
X69719924Y-36172419D02*
X69815162Y-36124800D01*
X69815162Y-36124800D02*
X69862781Y-36077180D01*
X69862781Y-36077180D02*
X69910400Y-35981942D01*
X69910400Y-35981942D02*
X69910400Y-35696228D01*
X69910400Y-35696228D02*
X69862781Y-35600990D01*
X69862781Y-35600990D02*
X69815162Y-35553371D01*
X69815162Y-35553371D02*
X69719924Y-35505752D01*
X69719924Y-35505752D02*
X69577067Y-35505752D01*
X69577067Y-35505752D02*
X69481829Y-35553371D01*
X69481829Y-35553371D02*
X69434210Y-35600990D01*
X69434210Y-35600990D02*
X69386591Y-35696228D01*
X69386591Y-35696228D02*
X69386591Y-35981942D01*
X69386591Y-35981942D02*
X69434210Y-36077180D01*
X69434210Y-36077180D02*
X69481829Y-36124800D01*
X69481829Y-36124800D02*
X69577067Y-36172419D01*
X69577067Y-36172419D02*
X69719924Y-36172419D01*
X68529448Y-35505752D02*
X68529448Y-36172419D01*
X68958019Y-35505752D02*
X68958019Y-36029561D01*
X68958019Y-36029561D02*
X68910400Y-36124800D01*
X68910400Y-36124800D02*
X68815162Y-36172419D01*
X68815162Y-36172419D02*
X68672305Y-36172419D01*
X68672305Y-36172419D02*
X68577067Y-36124800D01*
X68577067Y-36124800D02*
X68529448Y-36077180D01*
X67148495Y-36172419D02*
X67243733Y-36124800D01*
X67243733Y-36124800D02*
X67291352Y-36029561D01*
X67291352Y-36029561D02*
X67291352Y-35172419D01*
X66767542Y-36172419D02*
X66767542Y-35505752D01*
X66767542Y-35172419D02*
X66815161Y-35220038D01*
X66815161Y-35220038D02*
X66767542Y-35267657D01*
X66767542Y-35267657D02*
X66719923Y-35220038D01*
X66719923Y-35220038D02*
X66767542Y-35172419D01*
X66767542Y-35172419D02*
X66767542Y-35267657D01*
X66291352Y-36172419D02*
X66291352Y-35172419D01*
X66196114Y-35791466D02*
X65910400Y-36172419D01*
X65910400Y-35505752D02*
X66291352Y-35886704D01*
X65100876Y-36124800D02*
X65196114Y-36172419D01*
X65196114Y-36172419D02*
X65386590Y-36172419D01*
X65386590Y-36172419D02*
X65481828Y-36124800D01*
X65481828Y-36124800D02*
X65529447Y-36029561D01*
X65529447Y-36029561D02*
X65529447Y-35648609D01*
X65529447Y-35648609D02*
X65481828Y-35553371D01*
X65481828Y-35553371D02*
X65386590Y-35505752D01*
X65386590Y-35505752D02*
X65196114Y-35505752D01*
X65196114Y-35505752D02*
X65100876Y-35553371D01*
X65100876Y-35553371D02*
X65053257Y-35648609D01*
X65053257Y-35648609D02*
X65053257Y-35743847D01*
X65053257Y-35743847D02*
X65529447Y-35839085D01*
X63910399Y-36124800D02*
X63815161Y-36172419D01*
X63815161Y-36172419D02*
X63624685Y-36172419D01*
X63624685Y-36172419D02*
X63529447Y-36124800D01*
X63529447Y-36124800D02*
X63481828Y-36029561D01*
X63481828Y-36029561D02*
X63481828Y-35981942D01*
X63481828Y-35981942D02*
X63529447Y-35886704D01*
X63529447Y-35886704D02*
X63624685Y-35839085D01*
X63624685Y-35839085D02*
X63767542Y-35839085D01*
X63767542Y-35839085D02*
X63862780Y-35791466D01*
X63862780Y-35791466D02*
X63910399Y-35696228D01*
X63910399Y-35696228D02*
X63910399Y-35648609D01*
X63910399Y-35648609D02*
X63862780Y-35553371D01*
X63862780Y-35553371D02*
X63767542Y-35505752D01*
X63767542Y-35505752D02*
X63624685Y-35505752D01*
X63624685Y-35505752D02*
X63529447Y-35553371D01*
X62910399Y-36172419D02*
X63005637Y-36124800D01*
X63005637Y-36124800D02*
X63053256Y-36077180D01*
X63053256Y-36077180D02*
X63100875Y-35981942D01*
X63100875Y-35981942D02*
X63100875Y-35696228D01*
X63100875Y-35696228D02*
X63053256Y-35600990D01*
X63053256Y-35600990D02*
X63005637Y-35553371D01*
X63005637Y-35553371D02*
X62910399Y-35505752D01*
X62910399Y-35505752D02*
X62767542Y-35505752D01*
X62767542Y-35505752D02*
X62672304Y-35553371D01*
X62672304Y-35553371D02*
X62624685Y-35600990D01*
X62624685Y-35600990D02*
X62577066Y-35696228D01*
X62577066Y-35696228D02*
X62577066Y-35981942D01*
X62577066Y-35981942D02*
X62624685Y-36077180D01*
X62624685Y-36077180D02*
X62672304Y-36124800D01*
X62672304Y-36124800D02*
X62767542Y-36172419D01*
X62767542Y-36172419D02*
X62910399Y-36172419D01*
X62005637Y-36172419D02*
X62100875Y-36124800D01*
X62100875Y-36124800D02*
X62148494Y-36029561D01*
X62148494Y-36029561D02*
X62148494Y-35172419D01*
X61196113Y-36172419D02*
X61196113Y-35172419D01*
X61196113Y-36124800D02*
X61291351Y-36172419D01*
X61291351Y-36172419D02*
X61481827Y-36172419D01*
X61481827Y-36172419D02*
X61577065Y-36124800D01*
X61577065Y-36124800D02*
X61624684Y-36077180D01*
X61624684Y-36077180D02*
X61672303Y-35981942D01*
X61672303Y-35981942D02*
X61672303Y-35696228D01*
X61672303Y-35696228D02*
X61624684Y-35600990D01*
X61624684Y-35600990D02*
X61577065Y-35553371D01*
X61577065Y-35553371D02*
X61481827Y-35505752D01*
X61481827Y-35505752D02*
X61291351Y-35505752D01*
X61291351Y-35505752D02*
X61196113Y-35553371D01*
X60338970Y-36124800D02*
X60434208Y-36172419D01*
X60434208Y-36172419D02*
X60624684Y-36172419D01*
X60624684Y-36172419D02*
X60719922Y-36124800D01*
X60719922Y-36124800D02*
X60767541Y-36029561D01*
X60767541Y-36029561D02*
X60767541Y-35648609D01*
X60767541Y-35648609D02*
X60719922Y-35553371D01*
X60719922Y-35553371D02*
X60624684Y-35505752D01*
X60624684Y-35505752D02*
X60434208Y-35505752D01*
X60434208Y-35505752D02*
X60338970Y-35553371D01*
X60338970Y-35553371D02*
X60291351Y-35648609D01*
X60291351Y-35648609D02*
X60291351Y-35743847D01*
X60291351Y-35743847D02*
X60767541Y-35839085D01*
X59862779Y-36172419D02*
X59862779Y-35505752D01*
X59862779Y-35696228D02*
X59815160Y-35600990D01*
X59815160Y-35600990D02*
X59767541Y-35553371D01*
X59767541Y-35553371D02*
X59672303Y-35505752D01*
X59672303Y-35505752D02*
X59577065Y-35505752D01*
X59243731Y-36172419D02*
X59243731Y-35505752D01*
X59243731Y-35172419D02*
X59291350Y-35220038D01*
X59291350Y-35220038D02*
X59243731Y-35267657D01*
X59243731Y-35267657D02*
X59196112Y-35220038D01*
X59196112Y-35220038D02*
X59243731Y-35172419D01*
X59243731Y-35172419D02*
X59243731Y-35267657D01*
X58767541Y-35505752D02*
X58767541Y-36172419D01*
X58767541Y-35600990D02*
X58719922Y-35553371D01*
X58719922Y-35553371D02*
X58624684Y-35505752D01*
X58624684Y-35505752D02*
X58481827Y-35505752D01*
X58481827Y-35505752D02*
X58386589Y-35553371D01*
X58386589Y-35553371D02*
X58338970Y-35648609D01*
X58338970Y-35648609D02*
X58338970Y-36172419D01*
X57434208Y-35505752D02*
X57434208Y-36315276D01*
X57434208Y-36315276D02*
X57481827Y-36410514D01*
X57481827Y-36410514D02*
X57529446Y-36458133D01*
X57529446Y-36458133D02*
X57624684Y-36505752D01*
X57624684Y-36505752D02*
X57767541Y-36505752D01*
X57767541Y-36505752D02*
X57862779Y-36458133D01*
X57434208Y-36124800D02*
X57529446Y-36172419D01*
X57529446Y-36172419D02*
X57719922Y-36172419D01*
X57719922Y-36172419D02*
X57815160Y-36124800D01*
X57815160Y-36124800D02*
X57862779Y-36077180D01*
X57862779Y-36077180D02*
X57910398Y-35981942D01*
X57910398Y-35981942D02*
X57910398Y-35696228D01*
X57910398Y-35696228D02*
X57862779Y-35600990D01*
X57862779Y-35600990D02*
X57815160Y-35553371D01*
X57815160Y-35553371D02*
X57719922Y-35505752D01*
X57719922Y-35505752D02*
X57529446Y-35505752D01*
X57529446Y-35505752D02*
X57434208Y-35553371D01*
X255548496Y-29521371D02*
X255405639Y-29921371D01*
X255262782Y-29521371D02*
X255405639Y-29921371D01*
X255405639Y-29921371D02*
X255462782Y-30064228D01*
X255462782Y-30064228D02*
X255491353Y-30092800D01*
X255491353Y-30092800D02*
X255548496Y-30121371D01*
X254948496Y-29921371D02*
X255005639Y-29892800D01*
X255005639Y-29892800D02*
X255034210Y-29864228D01*
X255034210Y-29864228D02*
X255062782Y-29807085D01*
X255062782Y-29807085D02*
X255062782Y-29635657D01*
X255062782Y-29635657D02*
X255034210Y-29578514D01*
X255034210Y-29578514D02*
X255005639Y-29549942D01*
X255005639Y-29549942D02*
X254948496Y-29521371D01*
X254948496Y-29521371D02*
X254862782Y-29521371D01*
X254862782Y-29521371D02*
X254805639Y-29549942D01*
X254805639Y-29549942D02*
X254777068Y-29578514D01*
X254777068Y-29578514D02*
X254748496Y-29635657D01*
X254748496Y-29635657D02*
X254748496Y-29807085D01*
X254748496Y-29807085D02*
X254777068Y-29864228D01*
X254777068Y-29864228D02*
X254805639Y-29892800D01*
X254805639Y-29892800D02*
X254862782Y-29921371D01*
X254862782Y-29921371D02*
X254948496Y-29921371D01*
X254234211Y-29521371D02*
X254234211Y-29921371D01*
X254491353Y-29521371D02*
X254491353Y-29835657D01*
X254491353Y-29835657D02*
X254462782Y-29892800D01*
X254462782Y-29892800D02*
X254405639Y-29921371D01*
X254405639Y-29921371D02*
X254319925Y-29921371D01*
X254319925Y-29921371D02*
X254262782Y-29892800D01*
X254262782Y-29892800D02*
X254234211Y-29864228D01*
X253491353Y-29521371D02*
X253491353Y-30121371D01*
X253491353Y-29549942D02*
X253434211Y-29521371D01*
X253434211Y-29521371D02*
X253319925Y-29521371D01*
X253319925Y-29521371D02*
X253262782Y-29549942D01*
X253262782Y-29549942D02*
X253234211Y-29578514D01*
X253234211Y-29578514D02*
X253205639Y-29635657D01*
X253205639Y-29635657D02*
X253205639Y-29807085D01*
X253205639Y-29807085D02*
X253234211Y-29864228D01*
X253234211Y-29864228D02*
X253262782Y-29892800D01*
X253262782Y-29892800D02*
X253319925Y-29921371D01*
X253319925Y-29921371D02*
X253434211Y-29921371D01*
X253434211Y-29921371D02*
X253491353Y-29892800D01*
X252948496Y-29921371D02*
X252948496Y-29521371D01*
X252948496Y-29635657D02*
X252919925Y-29578514D01*
X252919925Y-29578514D02*
X252891354Y-29549942D01*
X252891354Y-29549942D02*
X252834211Y-29521371D01*
X252834211Y-29521371D02*
X252777068Y-29521371D01*
X252491353Y-29921371D02*
X252548496Y-29892800D01*
X252548496Y-29892800D02*
X252577067Y-29864228D01*
X252577067Y-29864228D02*
X252605639Y-29807085D01*
X252605639Y-29807085D02*
X252605639Y-29635657D01*
X252605639Y-29635657D02*
X252577067Y-29578514D01*
X252577067Y-29578514D02*
X252548496Y-29549942D01*
X252548496Y-29549942D02*
X252491353Y-29521371D01*
X252491353Y-29521371D02*
X252405639Y-29521371D01*
X252405639Y-29521371D02*
X252348496Y-29549942D01*
X252348496Y-29549942D02*
X252319925Y-29578514D01*
X252319925Y-29578514D02*
X252291353Y-29635657D01*
X252291353Y-29635657D02*
X252291353Y-29807085D01*
X252291353Y-29807085D02*
X252319925Y-29864228D01*
X252319925Y-29864228D02*
X252348496Y-29892800D01*
X252348496Y-29892800D02*
X252405639Y-29921371D01*
X252405639Y-29921371D02*
X252491353Y-29921371D01*
X252034210Y-29921371D02*
X252034210Y-29321371D01*
X252034210Y-29549942D02*
X251977068Y-29521371D01*
X251977068Y-29521371D02*
X251862782Y-29521371D01*
X251862782Y-29521371D02*
X251805639Y-29549942D01*
X251805639Y-29549942D02*
X251777068Y-29578514D01*
X251777068Y-29578514D02*
X251748496Y-29635657D01*
X251748496Y-29635657D02*
X251748496Y-29807085D01*
X251748496Y-29807085D02*
X251777068Y-29864228D01*
X251777068Y-29864228D02*
X251805639Y-29892800D01*
X251805639Y-29892800D02*
X251862782Y-29921371D01*
X251862782Y-29921371D02*
X251977068Y-29921371D01*
X251977068Y-29921371D02*
X252034210Y-29892800D01*
X251234211Y-29921371D02*
X251234211Y-29607085D01*
X251234211Y-29607085D02*
X251262782Y-29549942D01*
X251262782Y-29549942D02*
X251319925Y-29521371D01*
X251319925Y-29521371D02*
X251434211Y-29521371D01*
X251434211Y-29521371D02*
X251491353Y-29549942D01*
X251234211Y-29892800D02*
X251291353Y-29921371D01*
X251291353Y-29921371D02*
X251434211Y-29921371D01*
X251434211Y-29921371D02*
X251491353Y-29892800D01*
X251491353Y-29892800D02*
X251519925Y-29835657D01*
X251519925Y-29835657D02*
X251519925Y-29778514D01*
X251519925Y-29778514D02*
X251491353Y-29721371D01*
X251491353Y-29721371D02*
X251434211Y-29692800D01*
X251434211Y-29692800D02*
X251291353Y-29692800D01*
X251291353Y-29692800D02*
X251234211Y-29664228D01*
X250948496Y-29921371D02*
X250948496Y-29321371D01*
X250948496Y-29549942D02*
X250891354Y-29521371D01*
X250891354Y-29521371D02*
X250777068Y-29521371D01*
X250777068Y-29521371D02*
X250719925Y-29549942D01*
X250719925Y-29549942D02*
X250691354Y-29578514D01*
X250691354Y-29578514D02*
X250662782Y-29635657D01*
X250662782Y-29635657D02*
X250662782Y-29807085D01*
X250662782Y-29807085D02*
X250691354Y-29864228D01*
X250691354Y-29864228D02*
X250719925Y-29892800D01*
X250719925Y-29892800D02*
X250777068Y-29921371D01*
X250777068Y-29921371D02*
X250891354Y-29921371D01*
X250891354Y-29921371D02*
X250948496Y-29892800D01*
X250319925Y-29921371D02*
X250377068Y-29892800D01*
X250377068Y-29892800D02*
X250405639Y-29835657D01*
X250405639Y-29835657D02*
X250405639Y-29321371D01*
X250148496Y-29521371D02*
X250005639Y-29921371D01*
X249862782Y-29521371D02*
X250005639Y-29921371D01*
X250005639Y-29921371D02*
X250062782Y-30064228D01*
X250062782Y-30064228D02*
X250091353Y-30092800D01*
X250091353Y-30092800D02*
X250148496Y-30121371D01*
X248919925Y-29921371D02*
X248919925Y-29321371D01*
X248919925Y-29892800D02*
X248977067Y-29921371D01*
X248977067Y-29921371D02*
X249091353Y-29921371D01*
X249091353Y-29921371D02*
X249148496Y-29892800D01*
X249148496Y-29892800D02*
X249177067Y-29864228D01*
X249177067Y-29864228D02*
X249205639Y-29807085D01*
X249205639Y-29807085D02*
X249205639Y-29635657D01*
X249205639Y-29635657D02*
X249177067Y-29578514D01*
X249177067Y-29578514D02*
X249148496Y-29549942D01*
X249148496Y-29549942D02*
X249091353Y-29521371D01*
X249091353Y-29521371D02*
X248977067Y-29521371D01*
X248977067Y-29521371D02*
X248919925Y-29549942D01*
X248548496Y-29921371D02*
X248605639Y-29892800D01*
X248605639Y-29892800D02*
X248634210Y-29864228D01*
X248634210Y-29864228D02*
X248662782Y-29807085D01*
X248662782Y-29807085D02*
X248662782Y-29635657D01*
X248662782Y-29635657D02*
X248634210Y-29578514D01*
X248634210Y-29578514D02*
X248605639Y-29549942D01*
X248605639Y-29549942D02*
X248548496Y-29521371D01*
X248548496Y-29521371D02*
X248462782Y-29521371D01*
X248462782Y-29521371D02*
X248405639Y-29549942D01*
X248405639Y-29549942D02*
X248377068Y-29578514D01*
X248377068Y-29578514D02*
X248348496Y-29635657D01*
X248348496Y-29635657D02*
X248348496Y-29807085D01*
X248348496Y-29807085D02*
X248377068Y-29864228D01*
X248377068Y-29864228D02*
X248405639Y-29892800D01*
X248405639Y-29892800D02*
X248462782Y-29921371D01*
X248462782Y-29921371D02*
X248548496Y-29921371D01*
X248091353Y-29521371D02*
X248091353Y-29921371D01*
X248091353Y-29578514D02*
X248062782Y-29549942D01*
X248062782Y-29549942D02*
X248005639Y-29521371D01*
X248005639Y-29521371D02*
X247919925Y-29521371D01*
X247919925Y-29521371D02*
X247862782Y-29549942D01*
X247862782Y-29549942D02*
X247834211Y-29607085D01*
X247834211Y-29607085D02*
X247834211Y-29921371D01*
X247519925Y-29321371D02*
X247577068Y-29435657D01*
X247348497Y-29521371D02*
X247119925Y-29521371D01*
X247262782Y-29321371D02*
X247262782Y-29835657D01*
X247262782Y-29835657D02*
X247234211Y-29892800D01*
X247234211Y-29892800D02*
X247177068Y-29921371D01*
X247177068Y-29921371D02*
X247119925Y-29921371D01*
X246462782Y-29521371D02*
X246462782Y-29921371D01*
X246462782Y-29578514D02*
X246434211Y-29549942D01*
X246434211Y-29549942D02*
X246377068Y-29521371D01*
X246377068Y-29521371D02*
X246291354Y-29521371D01*
X246291354Y-29521371D02*
X246234211Y-29549942D01*
X246234211Y-29549942D02*
X246205640Y-29607085D01*
X246205640Y-29607085D02*
X246205640Y-29921371D01*
X245691354Y-29892800D02*
X245748497Y-29921371D01*
X245748497Y-29921371D02*
X245862783Y-29921371D01*
X245862783Y-29921371D02*
X245919925Y-29892800D01*
X245919925Y-29892800D02*
X245948497Y-29835657D01*
X245948497Y-29835657D02*
X245948497Y-29607085D01*
X245948497Y-29607085D02*
X245919925Y-29549942D01*
X245919925Y-29549942D02*
X245862783Y-29521371D01*
X245862783Y-29521371D02*
X245748497Y-29521371D01*
X245748497Y-29521371D02*
X245691354Y-29549942D01*
X245691354Y-29549942D02*
X245662783Y-29607085D01*
X245662783Y-29607085D02*
X245662783Y-29664228D01*
X245662783Y-29664228D02*
X245948497Y-29721371D01*
X245177068Y-29892800D02*
X245234211Y-29921371D01*
X245234211Y-29921371D02*
X245348497Y-29921371D01*
X245348497Y-29921371D02*
X245405639Y-29892800D01*
X245405639Y-29892800D02*
X245434211Y-29835657D01*
X245434211Y-29835657D02*
X245434211Y-29607085D01*
X245434211Y-29607085D02*
X245405639Y-29549942D01*
X245405639Y-29549942D02*
X245348497Y-29521371D01*
X245348497Y-29521371D02*
X245234211Y-29521371D01*
X245234211Y-29521371D02*
X245177068Y-29549942D01*
X245177068Y-29549942D02*
X245148497Y-29607085D01*
X245148497Y-29607085D02*
X245148497Y-29664228D01*
X245148497Y-29664228D02*
X245434211Y-29721371D01*
X244634211Y-29921371D02*
X244634211Y-29321371D01*
X244634211Y-29892800D02*
X244691353Y-29921371D01*
X244691353Y-29921371D02*
X244805639Y-29921371D01*
X244805639Y-29921371D02*
X244862782Y-29892800D01*
X244862782Y-29892800D02*
X244891353Y-29864228D01*
X244891353Y-29864228D02*
X244919925Y-29807085D01*
X244919925Y-29807085D02*
X244919925Y-29635657D01*
X244919925Y-29635657D02*
X244891353Y-29578514D01*
X244891353Y-29578514D02*
X244862782Y-29549942D01*
X244862782Y-29549942D02*
X244805639Y-29521371D01*
X244805639Y-29521371D02*
X244691353Y-29521371D01*
X244691353Y-29521371D02*
X244634211Y-29549942D01*
X243977068Y-29521371D02*
X243748496Y-29521371D01*
X243891353Y-29321371D02*
X243891353Y-29835657D01*
X243891353Y-29835657D02*
X243862782Y-29892800D01*
X243862782Y-29892800D02*
X243805639Y-29921371D01*
X243805639Y-29921371D02*
X243748496Y-29921371D01*
X243548496Y-29921371D02*
X243548496Y-29321371D01*
X243291354Y-29921371D02*
X243291354Y-29607085D01*
X243291354Y-29607085D02*
X243319925Y-29549942D01*
X243319925Y-29549942D02*
X243377068Y-29521371D01*
X243377068Y-29521371D02*
X243462782Y-29521371D01*
X243462782Y-29521371D02*
X243519925Y-29549942D01*
X243519925Y-29549942D02*
X243548496Y-29578514D01*
X243005639Y-29921371D02*
X243005639Y-29521371D01*
X243005639Y-29321371D02*
X243034211Y-29349942D01*
X243034211Y-29349942D02*
X243005639Y-29378514D01*
X243005639Y-29378514D02*
X242977068Y-29349942D01*
X242977068Y-29349942D02*
X243005639Y-29321371D01*
X243005639Y-29321371D02*
X243005639Y-29378514D01*
X242748497Y-29892800D02*
X242691354Y-29921371D01*
X242691354Y-29921371D02*
X242577068Y-29921371D01*
X242577068Y-29921371D02*
X242519925Y-29892800D01*
X242519925Y-29892800D02*
X242491354Y-29835657D01*
X242491354Y-29835657D02*
X242491354Y-29807085D01*
X242491354Y-29807085D02*
X242519925Y-29749942D01*
X242519925Y-29749942D02*
X242577068Y-29721371D01*
X242577068Y-29721371D02*
X242662783Y-29721371D01*
X242662783Y-29721371D02*
X242719925Y-29692800D01*
X242719925Y-29692800D02*
X242748497Y-29635657D01*
X242748497Y-29635657D02*
X242748497Y-29607085D01*
X242748497Y-29607085D02*
X242719925Y-29549942D01*
X242719925Y-29549942D02*
X242662783Y-29521371D01*
X242662783Y-29521371D02*
X242577068Y-29521371D01*
X242577068Y-29521371D02*
X242519925Y-29549942D01*
X237491353Y-29405752D02*
X237253258Y-30072419D01*
X237015163Y-29405752D02*
X237253258Y-30072419D01*
X237253258Y-30072419D02*
X237348496Y-30310514D01*
X237348496Y-30310514D02*
X237396115Y-30358133D01*
X237396115Y-30358133D02*
X237491353Y-30405752D01*
X236491353Y-30072419D02*
X236586591Y-30024800D01*
X236586591Y-30024800D02*
X236634210Y-29977180D01*
X236634210Y-29977180D02*
X236681829Y-29881942D01*
X236681829Y-29881942D02*
X236681829Y-29596228D01*
X236681829Y-29596228D02*
X236634210Y-29500990D01*
X236634210Y-29500990D02*
X236586591Y-29453371D01*
X236586591Y-29453371D02*
X236491353Y-29405752D01*
X236491353Y-29405752D02*
X236348496Y-29405752D01*
X236348496Y-29405752D02*
X236253258Y-29453371D01*
X236253258Y-29453371D02*
X236205639Y-29500990D01*
X236205639Y-29500990D02*
X236158020Y-29596228D01*
X236158020Y-29596228D02*
X236158020Y-29881942D01*
X236158020Y-29881942D02*
X236205639Y-29977180D01*
X236205639Y-29977180D02*
X236253258Y-30024800D01*
X236253258Y-30024800D02*
X236348496Y-30072419D01*
X236348496Y-30072419D02*
X236491353Y-30072419D01*
X235300877Y-29405752D02*
X235300877Y-30072419D01*
X235729448Y-29405752D02*
X235729448Y-29929561D01*
X235729448Y-29929561D02*
X235681829Y-30024800D01*
X235681829Y-30024800D02*
X235586591Y-30072419D01*
X235586591Y-30072419D02*
X235443734Y-30072419D01*
X235443734Y-30072419D02*
X235348496Y-30024800D01*
X235348496Y-30024800D02*
X235300877Y-29977180D01*
X234062781Y-30072419D02*
X234062781Y-29405752D01*
X234062781Y-29500990D02*
X234015162Y-29453371D01*
X234015162Y-29453371D02*
X233919924Y-29405752D01*
X233919924Y-29405752D02*
X233777067Y-29405752D01*
X233777067Y-29405752D02*
X233681829Y-29453371D01*
X233681829Y-29453371D02*
X233634210Y-29548609D01*
X233634210Y-29548609D02*
X233634210Y-30072419D01*
X233634210Y-29548609D02*
X233586591Y-29453371D01*
X233586591Y-29453371D02*
X233491353Y-29405752D01*
X233491353Y-29405752D02*
X233348496Y-29405752D01*
X233348496Y-29405752D02*
X233253257Y-29453371D01*
X233253257Y-29453371D02*
X233205638Y-29548609D01*
X233205638Y-29548609D02*
X233205638Y-30072419D01*
X232729448Y-30072419D02*
X232729448Y-29405752D01*
X232729448Y-29072419D02*
X232777067Y-29120038D01*
X232777067Y-29120038D02*
X232729448Y-29167657D01*
X232729448Y-29167657D02*
X232681829Y-29120038D01*
X232681829Y-29120038D02*
X232729448Y-29072419D01*
X232729448Y-29072419D02*
X232729448Y-29167657D01*
X231824687Y-29405752D02*
X231824687Y-30215276D01*
X231824687Y-30215276D02*
X231872306Y-30310514D01*
X231872306Y-30310514D02*
X231919925Y-30358133D01*
X231919925Y-30358133D02*
X232015163Y-30405752D01*
X232015163Y-30405752D02*
X232158020Y-30405752D01*
X232158020Y-30405752D02*
X232253258Y-30358133D01*
X231824687Y-30024800D02*
X231919925Y-30072419D01*
X231919925Y-30072419D02*
X232110401Y-30072419D01*
X232110401Y-30072419D02*
X232205639Y-30024800D01*
X232205639Y-30024800D02*
X232253258Y-29977180D01*
X232253258Y-29977180D02*
X232300877Y-29881942D01*
X232300877Y-29881942D02*
X232300877Y-29596228D01*
X232300877Y-29596228D02*
X232253258Y-29500990D01*
X232253258Y-29500990D02*
X232205639Y-29453371D01*
X232205639Y-29453371D02*
X232110401Y-29405752D01*
X232110401Y-29405752D02*
X231919925Y-29405752D01*
X231919925Y-29405752D02*
X231824687Y-29453371D01*
X231348496Y-30072419D02*
X231348496Y-29072419D01*
X230919925Y-30072419D02*
X230919925Y-29548609D01*
X230919925Y-29548609D02*
X230967544Y-29453371D01*
X230967544Y-29453371D02*
X231062782Y-29405752D01*
X231062782Y-29405752D02*
X231205639Y-29405752D01*
X231205639Y-29405752D02*
X231300877Y-29453371D01*
X231300877Y-29453371D02*
X231348496Y-29500990D01*
X230586591Y-29405752D02*
X230205639Y-29405752D01*
X230443734Y-29072419D02*
X230443734Y-29929561D01*
X230443734Y-29929561D02*
X230396115Y-30024800D01*
X230396115Y-30024800D02*
X230300877Y-30072419D01*
X230300877Y-30072419D02*
X230205639Y-30072419D01*
X229110400Y-29405752D02*
X229110400Y-30072419D01*
X229110400Y-29500990D02*
X229062781Y-29453371D01*
X229062781Y-29453371D02*
X228967543Y-29405752D01*
X228967543Y-29405752D02*
X228824686Y-29405752D01*
X228824686Y-29405752D02*
X228729448Y-29453371D01*
X228729448Y-29453371D02*
X228681829Y-29548609D01*
X228681829Y-29548609D02*
X228681829Y-30072419D01*
X228062781Y-30072419D02*
X228158019Y-30024800D01*
X228158019Y-30024800D02*
X228205638Y-29977180D01*
X228205638Y-29977180D02*
X228253257Y-29881942D01*
X228253257Y-29881942D02*
X228253257Y-29596228D01*
X228253257Y-29596228D02*
X228205638Y-29500990D01*
X228205638Y-29500990D02*
X228158019Y-29453371D01*
X228158019Y-29453371D02*
X228062781Y-29405752D01*
X228062781Y-29405752D02*
X227919924Y-29405752D01*
X227919924Y-29405752D02*
X227824686Y-29453371D01*
X227824686Y-29453371D02*
X227777067Y-29500990D01*
X227777067Y-29500990D02*
X227729448Y-29596228D01*
X227729448Y-29596228D02*
X227729448Y-29881942D01*
X227729448Y-29881942D02*
X227777067Y-29977180D01*
X227777067Y-29977180D02*
X227824686Y-30024800D01*
X227824686Y-30024800D02*
X227919924Y-30072419D01*
X227919924Y-30072419D02*
X228062781Y-30072419D01*
X227443733Y-29405752D02*
X227062781Y-29405752D01*
X227300876Y-29072419D02*
X227300876Y-29929561D01*
X227300876Y-29929561D02*
X227253257Y-30024800D01*
X227253257Y-30024800D02*
X227158019Y-30072419D01*
X227158019Y-30072419D02*
X227062781Y-30072419D01*
X225967542Y-29405752D02*
X225967542Y-30072419D01*
X225967542Y-29500990D02*
X225919923Y-29453371D01*
X225919923Y-29453371D02*
X225824685Y-29405752D01*
X225824685Y-29405752D02*
X225681828Y-29405752D01*
X225681828Y-29405752D02*
X225586590Y-29453371D01*
X225586590Y-29453371D02*
X225538971Y-29548609D01*
X225538971Y-29548609D02*
X225538971Y-30072419D01*
X224681828Y-30024800D02*
X224777066Y-30072419D01*
X224777066Y-30072419D02*
X224967542Y-30072419D01*
X224967542Y-30072419D02*
X225062780Y-30024800D01*
X225062780Y-30024800D02*
X225110399Y-29929561D01*
X225110399Y-29929561D02*
X225110399Y-29548609D01*
X225110399Y-29548609D02*
X225062780Y-29453371D01*
X225062780Y-29453371D02*
X224967542Y-29405752D01*
X224967542Y-29405752D02*
X224777066Y-29405752D01*
X224777066Y-29405752D02*
X224681828Y-29453371D01*
X224681828Y-29453371D02*
X224634209Y-29548609D01*
X224634209Y-29548609D02*
X224634209Y-29643847D01*
X224634209Y-29643847D02*
X225110399Y-29739085D01*
X223824685Y-30024800D02*
X223919923Y-30072419D01*
X223919923Y-30072419D02*
X224110399Y-30072419D01*
X224110399Y-30072419D02*
X224205637Y-30024800D01*
X224205637Y-30024800D02*
X224253256Y-29929561D01*
X224253256Y-29929561D02*
X224253256Y-29548609D01*
X224253256Y-29548609D02*
X224205637Y-29453371D01*
X224205637Y-29453371D02*
X224110399Y-29405752D01*
X224110399Y-29405752D02*
X223919923Y-29405752D01*
X223919923Y-29405752D02*
X223824685Y-29453371D01*
X223824685Y-29453371D02*
X223777066Y-29548609D01*
X223777066Y-29548609D02*
X223777066Y-29643847D01*
X223777066Y-29643847D02*
X224253256Y-29739085D01*
X222919923Y-30072419D02*
X222919923Y-29072419D01*
X222919923Y-30024800D02*
X223015161Y-30072419D01*
X223015161Y-30072419D02*
X223205637Y-30072419D01*
X223205637Y-30072419D02*
X223300875Y-30024800D01*
X223300875Y-30024800D02*
X223348494Y-29977180D01*
X223348494Y-29977180D02*
X223396113Y-29881942D01*
X223396113Y-29881942D02*
X223396113Y-29596228D01*
X223396113Y-29596228D02*
X223348494Y-29500990D01*
X223348494Y-29500990D02*
X223300875Y-29453371D01*
X223300875Y-29453371D02*
X223205637Y-29405752D01*
X223205637Y-29405752D02*
X223015161Y-29405752D01*
X223015161Y-29405752D02*
X222919923Y-29453371D01*
X221824684Y-29405752D02*
X221443732Y-29405752D01*
X221681827Y-29072419D02*
X221681827Y-29929561D01*
X221681827Y-29929561D02*
X221634208Y-30024800D01*
X221634208Y-30024800D02*
X221538970Y-30072419D01*
X221538970Y-30072419D02*
X221443732Y-30072419D01*
X221110398Y-30072419D02*
X221110398Y-29072419D01*
X220681827Y-30072419D02*
X220681827Y-29548609D01*
X220681827Y-29548609D02*
X220729446Y-29453371D01*
X220729446Y-29453371D02*
X220824684Y-29405752D01*
X220824684Y-29405752D02*
X220967541Y-29405752D01*
X220967541Y-29405752D02*
X221062779Y-29453371D01*
X221062779Y-29453371D02*
X221110398Y-29500990D01*
X220205636Y-30072419D02*
X220205636Y-29405752D01*
X220205636Y-29072419D02*
X220253255Y-29120038D01*
X220253255Y-29120038D02*
X220205636Y-29167657D01*
X220205636Y-29167657D02*
X220158017Y-29120038D01*
X220158017Y-29120038D02*
X220205636Y-29072419D01*
X220205636Y-29072419D02*
X220205636Y-29167657D01*
X219777065Y-30024800D02*
X219681827Y-30072419D01*
X219681827Y-30072419D02*
X219491351Y-30072419D01*
X219491351Y-30072419D02*
X219396113Y-30024800D01*
X219396113Y-30024800D02*
X219348494Y-29929561D01*
X219348494Y-29929561D02*
X219348494Y-29881942D01*
X219348494Y-29881942D02*
X219396113Y-29786704D01*
X219396113Y-29786704D02*
X219491351Y-29739085D01*
X219491351Y-29739085D02*
X219634208Y-29739085D01*
X219634208Y-29739085D02*
X219729446Y-29691466D01*
X219729446Y-29691466D02*
X219777065Y-29596228D01*
X219777065Y-29596228D02*
X219777065Y-29548609D01*
X219777065Y-29548609D02*
X219729446Y-29453371D01*
X219729446Y-29453371D02*
X219634208Y-29405752D01*
X219634208Y-29405752D02*
X219491351Y-29405752D01*
X219491351Y-29405752D02*
X219396113Y-29453371D01*
D11*
%TO.C,JPE01*%
X31930000Y-52810000D02*
X33930000Y-52810000D01*
X31930000Y-55610000D02*
X31930000Y-52810000D01*
X33930000Y-52810000D02*
X33930000Y-55610000D01*
X33930000Y-55610000D02*
X31930000Y-55610000D01*
%TO.C,JPE15*%
X67180000Y-52785000D02*
X69180000Y-52785000D01*
X67180000Y-55585000D02*
X67180000Y-52785000D01*
X69180000Y-52785000D02*
X69180000Y-55585000D01*
X69180000Y-55585000D02*
X67180000Y-55585000D01*
%TO.C,JPE13*%
X62180000Y-52785000D02*
X64180000Y-52785000D01*
X62180000Y-55585000D02*
X62180000Y-52785000D01*
X64180000Y-52785000D02*
X64180000Y-55585000D01*
X64180000Y-55585000D02*
X62180000Y-55585000D01*
%TO.C,JP20*%
X62180000Y-40035000D02*
X64180000Y-40035000D01*
X62180000Y-42835000D02*
X62180000Y-40035000D01*
X64180000Y-40035000D02*
X64180000Y-42835000D01*
X64180000Y-42835000D02*
X62180000Y-42835000D01*
%TO.C,JPE04*%
X39430000Y-52810000D02*
X41430000Y-52810000D01*
X39430000Y-55610000D02*
X39430000Y-52810000D01*
X41430000Y-52810000D02*
X41430000Y-55610000D01*
X41430000Y-55610000D02*
X39430000Y-55610000D01*
%TO.C,JP46*%
X72180000Y-40010000D02*
X74180000Y-40010000D01*
X72180000Y-42810000D02*
X72180000Y-40010000D01*
X74180000Y-40010000D02*
X74180000Y-42810000D01*
X74180000Y-42810000D02*
X72180000Y-42810000D01*
%TO.C,JPE18*%
X74680000Y-52785000D02*
X76680000Y-52785000D01*
X74680000Y-55585000D02*
X74680000Y-52785000D01*
X76680000Y-52785000D02*
X76680000Y-55585000D01*
X76680000Y-55585000D02*
X74680000Y-55585000D01*
%TO.C,JP16*%
X52180000Y-40035000D02*
X54180000Y-40035000D01*
X52180000Y-42835000D02*
X52180000Y-40035000D01*
X54180000Y-40035000D02*
X54180000Y-42835000D01*
X54180000Y-42835000D02*
X52180000Y-42835000D01*
%TO.C,JP47*%
X74680000Y-40035000D02*
X76680000Y-40035000D01*
X74680000Y-42835000D02*
X74680000Y-40035000D01*
X76680000Y-40035000D02*
X76680000Y-42835000D01*
X76680000Y-42835000D02*
X74680000Y-42835000D01*
%TO.C,JP13*%
X44680000Y-40010000D02*
X46680000Y-40010000D01*
X44680000Y-42810000D02*
X44680000Y-40010000D01*
X46680000Y-40010000D02*
X46680000Y-42810000D01*
X46680000Y-42810000D02*
X44680000Y-42810000D01*
%TO.C,JPE06*%
X44680000Y-52810000D02*
X46680000Y-52810000D01*
X44680000Y-55610000D02*
X44680000Y-52810000D01*
X46680000Y-52810000D02*
X46680000Y-55610000D01*
X46680000Y-55610000D02*
X44680000Y-55610000D01*
%TO.C,JP15*%
X49680000Y-40035000D02*
X51680000Y-40035000D01*
X49680000Y-42835000D02*
X49680000Y-40035000D01*
X51680000Y-40035000D02*
X51680000Y-42835000D01*
X51680000Y-42835000D02*
X49680000Y-42835000D01*
%TO.C,JPE08*%
X49680000Y-52785000D02*
X51680000Y-52785000D01*
X49680000Y-55585000D02*
X49680000Y-52785000D01*
X51680000Y-52785000D02*
X51680000Y-55585000D01*
X51680000Y-55585000D02*
X49680000Y-55585000D01*
%TO.C,JPE12*%
X59680000Y-52810000D02*
X61680000Y-52810000D01*
X59680000Y-55610000D02*
X59680000Y-52810000D01*
X61680000Y-52810000D02*
X61680000Y-55610000D01*
X61680000Y-55610000D02*
X59680000Y-55610000D01*
%TO.C,JP45*%
X69680000Y-40010000D02*
X71680000Y-40010000D01*
X69680000Y-42810000D02*
X69680000Y-40010000D01*
X71680000Y-40010000D02*
X71680000Y-42810000D01*
X71680000Y-42810000D02*
X69680000Y-42810000D01*
%TO.C,JP17*%
X54680000Y-40010000D02*
X56680000Y-40010000D01*
X54680000Y-42810000D02*
X54680000Y-40010000D01*
X56680000Y-40010000D02*
X56680000Y-42810000D01*
X56680000Y-42810000D02*
X54680000Y-42810000D01*
%TO.C,JPE14*%
X64680000Y-52810000D02*
X66680000Y-52810000D01*
X64680000Y-55610000D02*
X64680000Y-52810000D01*
X66680000Y-52810000D02*
X66680000Y-55610000D01*
X66680000Y-55610000D02*
X64680000Y-55610000D01*
%TO.C,JPE16*%
X69680000Y-52810000D02*
X71680000Y-52810000D01*
X69680000Y-55610000D02*
X69680000Y-52810000D01*
X71680000Y-52810000D02*
X71680000Y-55610000D01*
X71680000Y-55610000D02*
X69680000Y-55610000D01*
%TO.C,JP21*%
X64680000Y-40010000D02*
X66680000Y-40010000D01*
X64680000Y-42810000D02*
X64680000Y-40010000D01*
X66680000Y-40010000D02*
X66680000Y-42810000D01*
X66680000Y-42810000D02*
X64680000Y-42810000D01*
%TO.C,JPE03*%
X36930000Y-52810000D02*
X38930000Y-52810000D01*
X36930000Y-55610000D02*
X36930000Y-52810000D01*
X38930000Y-52810000D02*
X38930000Y-55610000D01*
X38930000Y-55610000D02*
X36930000Y-55610000D01*
%TO.C,JPE02*%
X34430000Y-52810000D02*
X36430000Y-52810000D01*
X34430000Y-55610000D02*
X34430000Y-52810000D01*
X36430000Y-52810000D02*
X36430000Y-55610000D01*
X36430000Y-55610000D02*
X34430000Y-55610000D01*
%TO.C,JP19*%
X59680000Y-40010000D02*
X61680000Y-40010000D01*
X59680000Y-42810000D02*
X59680000Y-40010000D01*
X61680000Y-40010000D02*
X61680000Y-42810000D01*
X61680000Y-42810000D02*
X59680000Y-42810000D01*
%TO.C,JPE09*%
X52180000Y-52810000D02*
X54180000Y-52810000D01*
X52180000Y-55610000D02*
X52180000Y-52810000D01*
X54180000Y-52810000D02*
X54180000Y-55610000D01*
X54180000Y-55610000D02*
X52180000Y-55610000D01*
%TO.C,JPE07*%
X47180000Y-52810000D02*
X49180000Y-52810000D01*
X47180000Y-55610000D02*
X47180000Y-52810000D01*
X49180000Y-52810000D02*
X49180000Y-55610000D01*
X49180000Y-55610000D02*
X47180000Y-55610000D01*
%TO.C,JP14*%
X47180000Y-40035000D02*
X49180000Y-40035000D01*
X47180000Y-42835000D02*
X47180000Y-40035000D01*
X49180000Y-40035000D02*
X49180000Y-42835000D01*
X49180000Y-42835000D02*
X47180000Y-42835000D01*
%TO.C,JP11*%
X39680000Y-40010000D02*
X41680000Y-40010000D01*
X39680000Y-42810000D02*
X39680000Y-40010000D01*
X41680000Y-40010000D02*
X41680000Y-42810000D01*
X41680000Y-42810000D02*
X39680000Y-42810000D01*
%TO.C,JPE05*%
X42180000Y-52810000D02*
X44180000Y-52810000D01*
X42180000Y-55610000D02*
X42180000Y-52810000D01*
X44180000Y-52810000D02*
X44180000Y-55610000D01*
X44180000Y-55610000D02*
X42180000Y-55610000D01*
%TO.C,JPE11*%
X57180000Y-52810000D02*
X59180000Y-52810000D01*
X57180000Y-55610000D02*
X57180000Y-52810000D01*
X59180000Y-52810000D02*
X59180000Y-55610000D01*
X59180000Y-55610000D02*
X57180000Y-55610000D01*
%TO.C,JP9*%
X34680000Y-40035000D02*
X36680000Y-40035000D01*
X34680000Y-42835000D02*
X34680000Y-40035000D01*
X36680000Y-40035000D02*
X36680000Y-42835000D01*
X36680000Y-42835000D02*
X34680000Y-42835000D01*
%TO.C,JP22*%
X67180000Y-40035000D02*
X69180000Y-40035000D01*
X67180000Y-42835000D02*
X67180000Y-40035000D01*
X69180000Y-40035000D02*
X69180000Y-42835000D01*
X69180000Y-42835000D02*
X67180000Y-42835000D01*
%TO.C,JPE10*%
X54680000Y-52810000D02*
X56680000Y-52810000D01*
X54680000Y-55610000D02*
X54680000Y-52810000D01*
X56680000Y-52810000D02*
X56680000Y-55610000D01*
X56680000Y-55610000D02*
X54680000Y-55610000D01*
%TO.C,JP18*%
X57180000Y-40035000D02*
X59180000Y-40035000D01*
X57180000Y-42835000D02*
X57180000Y-40035000D01*
X59180000Y-40035000D02*
X59180000Y-42835000D01*
X59180000Y-42835000D02*
X57180000Y-42835000D01*
%TO.C,JP8*%
X32180000Y-40010000D02*
X34180000Y-40010000D01*
X32180000Y-42810000D02*
X32180000Y-40010000D01*
X34180000Y-40010000D02*
X34180000Y-42810000D01*
X34180000Y-42810000D02*
X32180000Y-42810000D01*
%TO.C,JP10*%
X37180000Y-40010000D02*
X39180000Y-40010000D01*
X37180000Y-42810000D02*
X37180000Y-40010000D01*
X39180000Y-40010000D02*
X39180000Y-42810000D01*
X39180000Y-42810000D02*
X37180000Y-42810000D01*
%TO.C,JP12*%
X42180000Y-40010000D02*
X44180000Y-40010000D01*
X42180000Y-42810000D02*
X42180000Y-40010000D01*
X44180000Y-40010000D02*
X44180000Y-42810000D01*
X44180000Y-42810000D02*
X42180000Y-42810000D01*
%TO.C,JPE17*%
X72180000Y-52810000D02*
X74180000Y-52810000D01*
X72180000Y-55610000D02*
X72180000Y-52810000D01*
X74180000Y-52810000D02*
X74180000Y-55610000D01*
X74180000Y-55610000D02*
X72180000Y-55610000D01*
%TD*%
M02*
