%TF.GenerationSoftware,KiCad,Pcbnew,8.0.3-1.fc40*%
%TF.CreationDate,2024-06-20T14:07:15-04:00*%
%TF.ProjectId,sensor_bar_unified_muxing_1,73656e73-6f72-45f6-9261-725f756e6966,rev?*%
%TF.SameCoordinates,Original*%
%TF.FileFunction,Soldermask,Top*%
%TF.FilePolarity,Negative*%
%FSLAX46Y46*%
G04 Gerber Fmt 4.6, Leading zero omitted, Abs format (unit mm)*
G04 Created by KiCad (PCBNEW 8.0.3-1.fc40) date 2024-06-20 14:07:15*
%MOMM*%
%LPD*%
G01*
G04 APERTURE LIST*
G04 Aperture macros list*
%AMRoundRect*
0 Rectangle with rounded corners*
0 $1 Rounding radius*
0 $2 $3 $4 $5 $6 $7 $8 $9 X,Y pos of 4 corners*
0 Add a 4 corners polygon primitive as box body*
4,1,4,$2,$3,$4,$5,$6,$7,$8,$9,$2,$3,0*
0 Add four circle primitives for the rounded corners*
1,1,$1+$1,$2,$3*
1,1,$1+$1,$4,$5*
1,1,$1+$1,$6,$7*
1,1,$1+$1,$8,$9*
0 Add four rect primitives between the rounded corners*
20,1,$1+$1,$2,$3,$4,$5,0*
20,1,$1+$1,$4,$5,$6,$7,0*
20,1,$1+$1,$6,$7,$8,$9,0*
20,1,$1+$1,$8,$9,$2,$3,0*%
%AMFreePoly0*
4,1,6,1.000000,0.000000,0.500000,-0.750000,-0.500000,-0.750000,-0.500000,0.750000,0.500000,0.750000,1.000000,0.000000,1.000000,0.000000,$1*%
%AMFreePoly1*
4,1,6,0.500000,-0.750000,-0.650000,-0.750000,-0.150000,0.000000,-0.650000,0.750000,0.500000,0.750000,0.500000,-0.750000,0.500000,-0.750000,$1*%
G04 Aperture macros list end*
%ADD10R,1.500000X1.500000*%
%ADD11C,1.500000*%
%ADD12RoundRect,0.102000X0.585000X0.585000X-0.585000X0.585000X-0.585000X-0.585000X0.585000X-0.585000X0*%
%ADD13C,1.374000*%
%ADD14RoundRect,0.099250X0.297750X-0.987750X0.297750X0.987750X-0.297750X0.987750X-0.297750X-0.987750X0*%
%ADD15FreePoly0,270.000000*%
%ADD16FreePoly1,270.000000*%
%ADD17FreePoly0,180.000000*%
%ADD18FreePoly0,0.000000*%
%ADD19FreePoly1,0.000000*%
%ADD20RoundRect,0.381000X-0.762000X-0.381000X0.762000X-0.381000X0.762000X0.381000X-0.762000X0.381000X0*%
%ADD21RoundRect,0.102000X-0.685000X-0.685000X0.685000X-0.685000X0.685000X0.685000X-0.685000X0.685000X0*%
%ADD22C,1.574000*%
%ADD23R,1.600000X1.600000*%
%ADD24C,1.600000*%
%ADD25R,1.300000X1.300000*%
%ADD26C,1.300000*%
G04 APERTURE END LIST*
D10*
%TO.C,U16*%
X221340000Y-18385000D03*
D11*
X223880000Y-18385000D03*
X226420000Y-18385000D03*
%TD*%
D12*
%TO.C,BOARDSEL_ENABLE1*%
X149560000Y-97305000D03*
D13*
X149560000Y-94765000D03*
X149560000Y-92225000D03*
X149560000Y-89685000D03*
X149560000Y-87145000D03*
X149560000Y-84605000D03*
X149560000Y-82065000D03*
X141620000Y-82065000D03*
X141620000Y-84605000D03*
X141620000Y-87145000D03*
X141620000Y-89685000D03*
X141620000Y-92225000D03*
X141620000Y-94765000D03*
X141620000Y-97305000D03*
%TD*%
D14*
%TO.C,DG452_0*%
X114475000Y-94505000D03*
X115745000Y-94505000D03*
X117015000Y-94505000D03*
X118285000Y-94505000D03*
X119555000Y-94505000D03*
X120825000Y-94505000D03*
X122095000Y-94505000D03*
X123365000Y-94505000D03*
X123365000Y-89555000D03*
X122095000Y-89555000D03*
X120825000Y-89555000D03*
X119555000Y-89555000D03*
X118285000Y-89555000D03*
X117015000Y-89555000D03*
X115745000Y-89555000D03*
X114475000Y-89555000D03*
%TD*%
D10*
%TO.C,U13*%
X179340000Y-18345000D03*
D11*
X181880000Y-18345000D03*
X184420000Y-18345000D03*
%TD*%
D15*
%TO.C,JP52*%
X42780000Y-29135000D03*
D16*
X42780000Y-30585000D03*
%TD*%
D10*
%TO.C,U15*%
X207340000Y-18185000D03*
D11*
X209880000Y-18185000D03*
X212420000Y-18185000D03*
%TD*%
D10*
%TO.C,U9*%
X123340000Y-18485000D03*
D11*
X125880000Y-18485000D03*
X128420000Y-18485000D03*
%TD*%
D15*
%TO.C,JP53*%
X45280000Y-29135000D03*
D16*
X45280000Y-30585000D03*
%TD*%
D14*
%TO.C,DG452_2*%
X114530000Y-69935000D03*
X115800000Y-69935000D03*
X117070000Y-69935000D03*
X118340000Y-69935000D03*
X119610000Y-69935000D03*
X120880000Y-69935000D03*
X122150000Y-69935000D03*
X123420000Y-69935000D03*
X123420000Y-64985000D03*
X122150000Y-64985000D03*
X120880000Y-64985000D03*
X119610000Y-64985000D03*
X118340000Y-64985000D03*
X117070000Y-64985000D03*
X115800000Y-64985000D03*
X114530000Y-64985000D03*
%TD*%
%TO.C,DG452_3*%
X114475000Y-57460000D03*
X115745000Y-57460000D03*
X117015000Y-57460000D03*
X118285000Y-57460000D03*
X119555000Y-57460000D03*
X120825000Y-57460000D03*
X122095000Y-57460000D03*
X123365000Y-57460000D03*
X123365000Y-52510000D03*
X122095000Y-52510000D03*
X120825000Y-52510000D03*
X119555000Y-52510000D03*
X118285000Y-52510000D03*
X117015000Y-52510000D03*
X115745000Y-52510000D03*
X114475000Y-52510000D03*
%TD*%
D10*
%TO.C,U19*%
X263340000Y-18185000D03*
D11*
X265880000Y-18185000D03*
X268420000Y-18185000D03*
%TD*%
D10*
%TO.C,JP2*%
X135580000Y-91685000D03*
X133180000Y-91685000D03*
D17*
X136380000Y-91685000D03*
D18*
X132380000Y-91685000D03*
%TD*%
D10*
%TO.C,U10*%
X137340000Y-18185000D03*
D11*
X139880000Y-18185000D03*
X142420000Y-18185000D03*
%TD*%
D10*
%TO.C,JP4*%
X135580000Y-83185000D03*
X133180000Y-83185000D03*
D17*
X136380000Y-83185000D03*
D18*
X132380000Y-83185000D03*
%TD*%
D14*
%TO.C,DG45_4*%
X114510000Y-45985000D03*
X115780000Y-45985000D03*
X117050000Y-45985000D03*
X118320000Y-45985000D03*
X119590000Y-45985000D03*
X120860000Y-45985000D03*
X122130000Y-45985000D03*
X123400000Y-45985000D03*
X123400000Y-41035000D03*
X122130000Y-41035000D03*
X120860000Y-41035000D03*
X119590000Y-41035000D03*
X118320000Y-41035000D03*
X117050000Y-41035000D03*
X115780000Y-41035000D03*
X114510000Y-41035000D03*
%TD*%
D18*
%TO.C,JP5*%
X147650000Y-25600000D03*
D19*
X149100000Y-25600000D03*
%TD*%
D10*
%TO.C,U7*%
X95340000Y-18485000D03*
D11*
X97880000Y-18485000D03*
X100420000Y-18485000D03*
%TD*%
D18*
%TO.C,JP25*%
X147600000Y-37400000D03*
D19*
X149050000Y-37400000D03*
%TD*%
D10*
%TO.C,U11*%
X151340000Y-18345000D03*
D11*
X153880000Y-18345000D03*
X156420000Y-18345000D03*
%TD*%
D10*
%TO.C,JP1*%
X135580000Y-96685000D03*
X133180000Y-96685000D03*
D17*
X136380000Y-96685000D03*
D18*
X132380000Y-96685000D03*
%TD*%
D10*
%TO.C,U8*%
X109340000Y-18385000D03*
D11*
X111880000Y-18385000D03*
X114420000Y-18385000D03*
%TD*%
D18*
%TO.C,JP7*%
X147700000Y-31800000D03*
D19*
X149150000Y-31800000D03*
%TD*%
D10*
%TO.C,U6*%
X81340000Y-18345000D03*
D11*
X83880000Y-18345000D03*
X86420000Y-18345000D03*
%TD*%
D15*
%TO.C,JP49*%
X35280000Y-29135000D03*
D16*
X35280000Y-30585000D03*
%TD*%
D15*
%TO.C,JP61*%
X65280000Y-29135000D03*
D16*
X65280000Y-30585000D03*
%TD*%
D15*
%TO.C,JP59*%
X60280000Y-29160000D03*
D16*
X60280000Y-30610000D03*
%TD*%
D15*
%TO.C,JP57*%
X55280000Y-29160000D03*
D16*
X55280000Y-30610000D03*
%TD*%
D15*
%TO.C,JP60*%
X62780000Y-29135000D03*
D16*
X62780000Y-30585000D03*
%TD*%
D15*
%TO.C,JP54*%
X47780000Y-29135000D03*
D16*
X47780000Y-30585000D03*
%TD*%
D10*
%TO.C,U17*%
X235340000Y-18385000D03*
D11*
X237880000Y-18385000D03*
X240420000Y-18385000D03*
%TD*%
D10*
%TO.C,U18*%
X249340000Y-18485000D03*
D11*
X251880000Y-18485000D03*
X254420000Y-18485000D03*
%TD*%
D15*
%TO.C,JP64*%
X72780000Y-29160000D03*
D16*
X72780000Y-30610000D03*
%TD*%
D15*
%TO.C,JP23*%
X81100000Y-52300000D03*
D16*
X81100000Y-53750000D03*
%TD*%
D15*
%TO.C,JP58*%
X57780000Y-29160000D03*
D16*
X57780000Y-30610000D03*
%TD*%
D10*
%TO.C,U12*%
X165340000Y-18145000D03*
D11*
X167880000Y-18145000D03*
X170420000Y-18145000D03*
%TD*%
D18*
%TO.C,JP6*%
X147675000Y-28700000D03*
D19*
X149125000Y-28700000D03*
%TD*%
D18*
%TO.C,JP24*%
X147600000Y-34600000D03*
D19*
X149050000Y-34600000D03*
%TD*%
D10*
%TO.C,U3*%
X39340000Y-18545000D03*
D11*
X41880000Y-18545000D03*
X44420000Y-18545000D03*
%TD*%
D10*
%TO.C,U5*%
X67340000Y-18145000D03*
D11*
X69880000Y-18145000D03*
X72420000Y-18145000D03*
%TD*%
D15*
%TO.C,JP51*%
X40280000Y-29135000D03*
D16*
X40280000Y-30585000D03*
%TD*%
D20*
%TO.C,J2*%
X176180000Y-37285000D03*
X176180000Y-39285000D03*
X176180000Y-41285000D03*
X176180000Y-43285000D03*
X176180000Y-45285000D03*
X176180000Y-47285000D03*
X176180000Y-49285000D03*
X176180000Y-51285000D03*
X176180000Y-53285000D03*
X176180000Y-55285000D03*
X176180000Y-57285000D03*
X176180000Y-59285000D03*
X176180000Y-61285000D03*
X176180000Y-63285000D03*
X176180000Y-65285000D03*
X176180000Y-67285000D03*
X176180000Y-69285000D03*
X176180000Y-71285000D03*
X176180000Y-73285000D03*
X176180000Y-75285000D03*
X176180000Y-77285000D03*
X176180000Y-79285000D03*
X176180000Y-81285000D03*
X176180000Y-83285000D03*
X176180000Y-85285000D03*
X176180000Y-87285000D03*
X176180000Y-89285000D03*
X176180000Y-91285000D03*
X176180000Y-93285000D03*
X176180000Y-95285000D03*
X176180000Y-97285000D03*
X176180000Y-99285000D03*
%TD*%
%TO.C,J3*%
X26200000Y-23900000D03*
X26200000Y-25900000D03*
X26200000Y-27900000D03*
X26200000Y-29900000D03*
X26200000Y-31900000D03*
X26200000Y-33900000D03*
X26200000Y-35900000D03*
X26200000Y-37900000D03*
X26200000Y-39900000D03*
X26200000Y-41900000D03*
X26200000Y-43900000D03*
X26200000Y-45900000D03*
X26200000Y-47900000D03*
X26200000Y-49900000D03*
X26200000Y-51900000D03*
X26200000Y-53900000D03*
X26200000Y-55900000D03*
X26200000Y-57900000D03*
X26200000Y-59900000D03*
X26200000Y-61900000D03*
X26200000Y-63900000D03*
X26200000Y-65900000D03*
X26200000Y-67900000D03*
X26200000Y-69900000D03*
X26200000Y-71900000D03*
X26200000Y-73900000D03*
X26200000Y-75900000D03*
X26200000Y-77900000D03*
X26200000Y-79900000D03*
X26200000Y-81900000D03*
X26200000Y-83900000D03*
X26200000Y-85900000D03*
%TD*%
D15*
%TO.C,JP50*%
X37780000Y-29135000D03*
D16*
X37780000Y-30585000D03*
%TD*%
D10*
%TO.C,JP3*%
X135580000Y-87185000D03*
X133180000Y-87185000D03*
D17*
X136380000Y-87185000D03*
D18*
X132380000Y-87185000D03*
%TD*%
D15*
%TO.C,JP55*%
X50280000Y-29135000D03*
D16*
X50280000Y-30585000D03*
%TD*%
D14*
%TO.C,DG452_1*%
X114475000Y-82410000D03*
X115745000Y-82410000D03*
X117015000Y-82410000D03*
X118285000Y-82410000D03*
X119555000Y-82410000D03*
X120825000Y-82410000D03*
X122095000Y-82410000D03*
X123365000Y-82410000D03*
X123365000Y-77460000D03*
X122095000Y-77460000D03*
X120825000Y-77460000D03*
X119555000Y-77460000D03*
X118285000Y-77460000D03*
X117015000Y-77460000D03*
X115745000Y-77460000D03*
X114475000Y-77460000D03*
%TD*%
D15*
%TO.C,JP65*%
X75280000Y-29160000D03*
D16*
X75280000Y-30610000D03*
%TD*%
D15*
%TO.C,JP63*%
X70280000Y-29135000D03*
D16*
X70280000Y-30585000D03*
%TD*%
D10*
%TO.C,U2*%
X25440000Y-17845000D03*
D11*
X27980000Y-17845000D03*
X30520000Y-17845000D03*
%TD*%
D15*
%TO.C,JP48*%
X32780000Y-29135000D03*
D16*
X32780000Y-30585000D03*
%TD*%
D21*
%TO.C,interboard connect*%
X32440000Y-48725000D03*
D22*
X32440000Y-46185000D03*
X34980000Y-48725000D03*
X34980000Y-46185000D03*
X37520000Y-48725000D03*
X37520000Y-46185000D03*
X40060000Y-48725000D03*
X40060000Y-46185000D03*
X42600000Y-48725000D03*
X42600000Y-46185000D03*
X45140000Y-48725000D03*
X45140000Y-46185000D03*
X47680000Y-48725000D03*
X47680000Y-46185000D03*
X50220000Y-48725000D03*
X50220000Y-46185000D03*
X52760000Y-48725000D03*
X52760000Y-46185000D03*
X55300000Y-48725000D03*
X55300000Y-46185000D03*
X57840000Y-48725000D03*
X57840000Y-46185000D03*
X60380000Y-48725000D03*
X60380000Y-46185000D03*
X62920000Y-48725000D03*
X62920000Y-46185000D03*
X65460000Y-48725000D03*
X65460000Y-46185000D03*
X68000000Y-48725000D03*
X68000000Y-46185000D03*
X70540000Y-48725000D03*
X70540000Y-46185000D03*
X73080000Y-48725000D03*
X73080000Y-46185000D03*
X75620000Y-48725000D03*
X75620000Y-46185000D03*
X78160000Y-48725000D03*
X78160000Y-46185000D03*
X80700000Y-48725000D03*
X80700000Y-46185000D03*
%TD*%
D23*
%TO.C,U1*%
X29470000Y-90805000D03*
D24*
X32010000Y-90805000D03*
X34550000Y-90805000D03*
X37090000Y-90805000D03*
X39630000Y-90805000D03*
X42170000Y-90805000D03*
X44710000Y-90805000D03*
X47250000Y-90805000D03*
X49790000Y-90805000D03*
X52330000Y-90805000D03*
X54870000Y-90805000D03*
X57410000Y-90805000D03*
X59950000Y-90805000D03*
X62490000Y-90805000D03*
X65030000Y-90805000D03*
X67570000Y-90805000D03*
X70110000Y-90805000D03*
X72650000Y-90805000D03*
X75190000Y-90805000D03*
X77730000Y-90805000D03*
X80270000Y-90805000D03*
X82810000Y-90805000D03*
X85350000Y-90805000D03*
X87890000Y-90805000D03*
X87890000Y-75565000D03*
X85350000Y-75565000D03*
X82810000Y-75565000D03*
X80270000Y-75565000D03*
X77730000Y-75565000D03*
X75190000Y-75565000D03*
X72650000Y-75565000D03*
X70110000Y-75565000D03*
X67570000Y-75565000D03*
X65030000Y-75565000D03*
X62490000Y-75565000D03*
X59950000Y-75565000D03*
X57410000Y-75565000D03*
X54870000Y-75565000D03*
X52330000Y-75565000D03*
X49790000Y-75565000D03*
X47250000Y-75565000D03*
X44710000Y-75565000D03*
X42170000Y-75565000D03*
X39630000Y-75565000D03*
X37090000Y-75565000D03*
X34550000Y-75565000D03*
X32010000Y-75565000D03*
X29470000Y-75565000D03*
X32010000Y-78105000D03*
X75190000Y-88265000D03*
X75190000Y-85725000D03*
X75190000Y-83185000D03*
X75190000Y-80645000D03*
X75190000Y-78105000D03*
D23*
X35769200Y-87754200D03*
D24*
X38309200Y-87754200D03*
X40849200Y-87754200D03*
X43389200Y-87754200D03*
X45929200Y-87754200D03*
D25*
X42440000Y-78003400D03*
D26*
X42440000Y-80003400D03*
X42440000Y-82003400D03*
X44440000Y-82003400D03*
X44440000Y-80003400D03*
X44440000Y-78003400D03*
X30200000Y-81915000D03*
X30200000Y-84455000D03*
%TD*%
D12*
%TO.C,BOARDSEL_CMP1*%
X161620000Y-97345000D03*
D13*
X161620000Y-94805000D03*
X161620000Y-92265000D03*
X161620000Y-89725000D03*
X161620000Y-87185000D03*
X161620000Y-84645000D03*
X161620000Y-82105000D03*
X153680000Y-82105000D03*
X153680000Y-84645000D03*
X153680000Y-87185000D03*
X153680000Y-89725000D03*
X153680000Y-92265000D03*
X153680000Y-94805000D03*
X153680000Y-97345000D03*
%TD*%
D10*
%TO.C,U14*%
X193340000Y-18185000D03*
D11*
X195880000Y-18185000D03*
X198420000Y-18185000D03*
%TD*%
D15*
%TO.C,JP56*%
X52780000Y-29160000D03*
D16*
X52780000Y-30610000D03*
%TD*%
D15*
%TO.C,JP62*%
X67780000Y-29135000D03*
D16*
X67780000Y-30585000D03*
%TD*%
D10*
%TO.C,U4*%
X53340000Y-18145000D03*
D11*
X55880000Y-18145000D03*
X58420000Y-18145000D03*
%TD*%
D18*
%TO.C,JP26*%
X147650000Y-40200000D03*
D19*
X149100000Y-40200000D03*
%TD*%
M02*
