%TF.GenerationSoftware,KiCad,Pcbnew,8.0.3-1.fc40*%
%TF.CreationDate,2024-06-20T13:52:43-04:00*%
%TF.ProjectId,sensor_bar_unified_muxing_1,73656e73-6f72-45f6-9261-725f756e6966,rev?*%
%TF.SameCoordinates,Original*%
%TF.FileFunction,Drillmap*%
%TF.FilePolarity,Positive*%
%FSLAX45Y45*%
G04 Gerber Fmt 4.5, Leading zero omitted, Abs format (unit mm)*
G04 Created by KiCad (PCBNEW 8.0.3-1.fc40) date 2024-06-20 13:52:43*
%MOMM*%
%LPD*%
G01*
G04 APERTURE LIST*
%ADD10C,0.050000*%
%ADD11C,0.200000*%
%ADD12C,0.100000*%
%ADD13C,0.102000*%
%ADD14C,0.110000*%
G04 APERTURE END LIST*
D10*
X4250000Y-3510000D02*
G75*
G02*
X4050000Y-3510000I-100000J0D01*
G01*
X4050000Y-3510000D02*
G75*
G02*
X4250000Y-3510000I100000J0D01*
G01*
X16210000Y-3000000D02*
G75*
G02*
X16010000Y-3000000I-100000J0D01*
G01*
X16010000Y-3000000D02*
G75*
G02*
X16210000Y-3000000I100000J0D01*
G01*
X19020000Y-2120000D02*
X19000000Y-2120000D01*
X19000000Y-2080000D01*
X19020000Y-2080000D01*
X19020000Y-2120000D01*
X24220000Y-1610000D02*
X24200000Y-1610000D01*
X24200000Y-1570000D01*
X24220000Y-1570000D01*
X24220000Y-1610000D01*
X19020000Y-2880000D02*
X19000000Y-2880000D01*
X19000000Y-2840000D01*
X19020000Y-2840000D01*
X19020000Y-2880000D01*
X19020000Y-2360000D02*
X19000000Y-2360000D01*
X19000000Y-2320000D01*
X19020000Y-2320000D01*
X19020000Y-2360000D01*
X25788000Y-2958500D02*
G75*
G02*
X25588000Y-2958500I-100000J0D01*
G01*
X25588000Y-2958500D02*
G75*
G02*
X25788000Y-2958500I100000J0D01*
G01*
X24220000Y-2510000D02*
X24200000Y-2510000D01*
X24200000Y-2470000D01*
X24220000Y-2470000D01*
X24220000Y-2510000D01*
X19020000Y-1510000D02*
X19000000Y-1510000D01*
X19000000Y-1470000D01*
X19020000Y-1470000D01*
X19020000Y-1510000D01*
X24220000Y-2700000D02*
X24200000Y-2700000D01*
X24200000Y-2660000D01*
X24220000Y-2660000D01*
X24220000Y-2700000D01*
X27018000Y-1958500D02*
X25848000Y-3128500D01*
X24288000Y-3128500D01*
X24218000Y-3058500D01*
X24218000Y-2978500D01*
X24198000Y-2978500D01*
X24198000Y-3058500D01*
X24128000Y-3128500D01*
X19098000Y-3128500D01*
X19028000Y-3058500D01*
X19028000Y-2958500D01*
X18998000Y-2958500D01*
X18998000Y-3058500D01*
X18928000Y-3128500D01*
X18068000Y-3128500D01*
X17968000Y-3266679D01*
X17968000Y-7568500D01*
X17967354Y-8627854D01*
X17967221Y-10268500D01*
X17768000Y-10418500D01*
X16578000Y-10418500D01*
X3248000Y-10418500D01*
X2388000Y-9558500D01*
X2388000Y-1628500D01*
X2698000Y-1318500D01*
X27018000Y-1318500D01*
X27018000Y-1958500D01*
X4378000Y-9478500D02*
G75*
G02*
X4178000Y-9478500I-100000J0D01*
G01*
X4178000Y-9478500D02*
G75*
G02*
X4378000Y-9478500I100000J0D01*
G01*
X16518000Y-7878500D02*
G75*
G02*
X16318000Y-7878500I-100000J0D01*
G01*
X16318000Y-7878500D02*
G75*
G02*
X16518000Y-7878500I100000J0D01*
G01*
X24220000Y-2110000D02*
X24200000Y-2110000D01*
X24200000Y-2070000D01*
X24220000Y-2070000D01*
X24220000Y-2110000D01*
X19020000Y-2800000D02*
X19000000Y-2800000D01*
X19000000Y-2760000D01*
X19020000Y-2760000D01*
X19020000Y-2800000D01*
X24220000Y-2190000D02*
X24200000Y-2190000D01*
X24200000Y-2150000D01*
X24220000Y-2150000D01*
X24220000Y-2190000D01*
X24220000Y-1790000D02*
X24200000Y-1790000D01*
X24200000Y-1750000D01*
X24220000Y-1750000D01*
X24220000Y-1790000D01*
X19020000Y-2200000D02*
X19000000Y-2200000D01*
X19000000Y-2160000D01*
X19020000Y-2160000D01*
X19020000Y-2200000D01*
X24220000Y-2270000D02*
X24200000Y-2270000D01*
X24200000Y-2230000D01*
X24220000Y-2230000D01*
X24220000Y-2270000D01*
X19020000Y-1800000D02*
X19000000Y-1800000D01*
X19000000Y-1760000D01*
X19020000Y-1760000D01*
X19020000Y-1800000D01*
X16568000Y-10148500D02*
G75*
G02*
X16368000Y-10148500I-100000J0D01*
G01*
X16368000Y-10148500D02*
G75*
G02*
X16568000Y-10148500I100000J0D01*
G01*
X19020000Y-1590000D02*
X19000000Y-1590000D01*
X19000000Y-1550000D01*
X19020000Y-1550000D01*
X19020000Y-1590000D01*
X24220000Y-2030000D02*
X24200000Y-2030000D01*
X24200000Y-1990000D01*
X24220000Y-1990000D01*
X24220000Y-2030000D01*
X24220000Y-2430000D02*
X24200000Y-2430000D01*
X24200000Y-2390000D01*
X24220000Y-2390000D01*
X24220000Y-2430000D01*
X24220000Y-2780000D02*
X24200000Y-2780000D01*
X24200000Y-2740000D01*
X24220000Y-2740000D01*
X24220000Y-2780000D01*
X8488000Y-5758500D02*
G75*
G02*
X8288000Y-5758500I-100000J0D01*
G01*
X8288000Y-5758500D02*
G75*
G02*
X8488000Y-5758500I100000J0D01*
G01*
X3668000Y-10168500D02*
G75*
G02*
X3468000Y-10168500I-100000J0D01*
G01*
X3468000Y-10168500D02*
G75*
G02*
X3668000Y-10168500I100000J0D01*
G01*
X19020000Y-1880000D02*
X19000000Y-1880000D01*
X19000000Y-1840000D01*
X19020000Y-1840000D01*
X19020000Y-1880000D01*
X19368000Y-2968500D02*
G75*
G02*
X19168000Y-2968500I-100000J0D01*
G01*
X19168000Y-2968500D02*
G75*
G02*
X19368000Y-2968500I100000J0D01*
G01*
X8898000Y-9458500D02*
G75*
G02*
X8698000Y-9458500I-100000J0D01*
G01*
X8698000Y-9458500D02*
G75*
G02*
X8898000Y-9458500I100000J0D01*
G01*
X24220000Y-1870000D02*
X24200000Y-1870000D01*
X24200000Y-1830000D01*
X24220000Y-1830000D01*
X24220000Y-1870000D01*
X19020000Y-2280000D02*
X19000000Y-2280000D01*
X19000000Y-2240000D01*
X19020000Y-2240000D01*
X19020000Y-2280000D01*
X24078000Y-2968500D02*
G75*
G02*
X23878000Y-2968500I-100000J0D01*
G01*
X23878000Y-2968500D02*
G75*
G02*
X24078000Y-2968500I100000J0D01*
G01*
X19020000Y-1960000D02*
X19000000Y-1960000D01*
X19000000Y-1920000D01*
X19020000Y-1920000D01*
X19020000Y-1960000D01*
X12100000Y-3000000D02*
G75*
G02*
X11900000Y-3000000I-100000J0D01*
G01*
X11900000Y-3000000D02*
G75*
G02*
X12100000Y-3000000I100000J0D01*
G01*
X24220000Y-2350000D02*
X24200000Y-2350000D01*
X24200000Y-2310000D01*
X24220000Y-2310000D01*
X24220000Y-2350000D01*
X19020000Y-2040000D02*
X19000000Y-2040000D01*
X19000000Y-2000000D01*
X19020000Y-2000000D01*
X19020000Y-2040000D01*
X24220000Y-1530000D02*
X24200000Y-1530000D01*
X24200000Y-1490000D01*
X24220000Y-1490000D01*
X24220000Y-1530000D01*
X9968000Y-10168500D02*
G75*
G02*
X9768000Y-10168500I-100000J0D01*
G01*
X9768000Y-10168500D02*
G75*
G02*
X9968000Y-10168500I100000J0D01*
G01*
X24220000Y-2940000D02*
X24200000Y-2940000D01*
X24200000Y-2900000D01*
X24220000Y-2900000D01*
X24220000Y-2940000D01*
X24220000Y-1950000D02*
X24200000Y-1950000D01*
X24200000Y-1910000D01*
X24220000Y-1910000D01*
X24220000Y-1950000D01*
X24220000Y-2860000D02*
X24200000Y-2860000D01*
X24200000Y-2820000D01*
X24220000Y-2820000D01*
X24220000Y-2860000D01*
X8768000Y-2978500D02*
G75*
G02*
X8568000Y-2978500I-100000J0D01*
G01*
X8568000Y-2978500D02*
G75*
G02*
X8768000Y-2978500I100000J0D01*
G01*
D11*
D12*
X2785000Y-4575000D02*
X2815000Y-4605000D01*
X2815000Y-4575000D02*
X2785000Y-4605000D01*
X2805000Y-4005000D02*
X2835000Y-4035000D01*
X2835000Y-4005000D02*
X2805000Y-4035000D01*
X2880985Y-3716338D02*
X2910985Y-3746338D01*
X2910985Y-3716338D02*
X2880985Y-3746338D01*
X3142323Y-3977676D02*
X3172323Y-4007676D01*
X3172323Y-3977676D02*
X3142323Y-4007676D01*
X3145091Y-4057629D02*
X3175091Y-4087629D01*
X3175091Y-4057629D02*
X3145091Y-4087629D01*
X3383000Y-5213500D02*
X3413000Y-5243500D01*
X3413000Y-5213500D02*
X3383000Y-5243500D01*
X3387500Y-2853500D02*
X3417500Y-2883500D01*
X3417500Y-2853500D02*
X3387500Y-2883500D01*
X3583000Y-5213500D02*
X3613000Y-5243500D01*
X3613000Y-5213500D02*
X3583000Y-5243500D01*
X3613000Y-2793500D02*
X3643000Y-2823500D01*
X3643000Y-2793500D02*
X3613000Y-2823500D01*
X3763000Y-2793500D02*
X3793000Y-2823500D01*
X3793000Y-2793500D02*
X3763000Y-2823500D01*
X3833000Y-5213500D02*
X3863000Y-5243500D01*
X3863000Y-5213500D02*
X3833000Y-5243500D01*
X4013000Y-2793500D02*
X4043000Y-2823500D01*
X4043000Y-2793500D02*
X4013000Y-2823500D01*
X4035000Y-8325000D02*
X4065000Y-8355000D01*
X4065000Y-8325000D02*
X4035000Y-8355000D01*
X4093000Y-5213500D02*
X4123000Y-5243500D01*
X4123000Y-5213500D02*
X4093000Y-5243500D01*
X4263000Y-2793500D02*
X4293000Y-2823500D01*
X4293000Y-2793500D02*
X4263000Y-2823500D01*
X4343000Y-5213500D02*
X4373000Y-5243500D01*
X4373000Y-5213500D02*
X4343000Y-5243500D01*
X4513000Y-2793500D02*
X4543000Y-2823500D01*
X4543000Y-2793500D02*
X4513000Y-2823500D01*
X4603000Y-5223500D02*
X4633000Y-5253500D01*
X4633000Y-5223500D02*
X4603000Y-5253500D01*
X4763000Y-2793500D02*
X4793000Y-2823500D01*
X4793000Y-2793500D02*
X4763000Y-2823500D01*
X4853000Y-5223500D02*
X4883000Y-5253500D01*
X4883000Y-5223500D02*
X4853000Y-5253500D01*
X5013000Y-2793500D02*
X5043000Y-2823500D01*
X5043000Y-2793500D02*
X5013000Y-2823500D01*
X5113000Y-5223500D02*
X5143000Y-5253500D01*
X5143000Y-5223500D02*
X5113000Y-5253500D01*
X5263000Y-2793500D02*
X5293000Y-2823500D01*
X5293000Y-2793500D02*
X5263000Y-2823500D01*
X5363000Y-5233500D02*
X5393000Y-5263500D01*
X5393000Y-5233500D02*
X5363000Y-5263500D01*
X5513000Y-2793500D02*
X5543000Y-2823500D01*
X5543000Y-2793500D02*
X5513000Y-2823500D01*
X5613000Y-5233500D02*
X5643000Y-5263500D01*
X5643000Y-5233500D02*
X5613000Y-5263500D01*
X5763000Y-2793500D02*
X5793000Y-2823500D01*
X5793000Y-2793500D02*
X5763000Y-2823500D01*
X5873000Y-5233500D02*
X5903000Y-5263500D01*
X5903000Y-5233500D02*
X5873000Y-5263500D01*
X6013000Y-2793500D02*
X6043000Y-2823500D01*
X6043000Y-2793500D02*
X6013000Y-2823500D01*
X6123000Y-5233500D02*
X6153000Y-5263500D01*
X6153000Y-5233500D02*
X6123000Y-5263500D01*
X6263000Y-2793500D02*
X6293000Y-2823500D01*
X6293000Y-2793500D02*
X6263000Y-2823500D01*
X6373000Y-5233500D02*
X6403000Y-5263500D01*
X6403000Y-5233500D02*
X6373000Y-5263500D01*
X6513000Y-2793500D02*
X6543000Y-2823500D01*
X6543000Y-2793500D02*
X6513000Y-2823500D01*
X6633000Y-5233500D02*
X6663000Y-5263500D01*
X6663000Y-5233500D02*
X6633000Y-5263500D01*
X6763000Y-2793500D02*
X6793000Y-2823500D01*
X6793000Y-2793500D02*
X6763000Y-2823500D01*
X6883000Y-5233500D02*
X6913000Y-5263500D01*
X6913000Y-5233500D02*
X6883000Y-5263500D01*
X7013000Y-2793500D02*
X7043000Y-2823500D01*
X7043000Y-2793500D02*
X7013000Y-2823500D01*
X7143000Y-5243500D02*
X7173000Y-5273500D01*
X7173000Y-5243500D02*
X7143000Y-5273500D01*
X7263000Y-2793500D02*
X7293000Y-2823500D01*
X7293000Y-2793500D02*
X7263000Y-2823500D01*
X7393000Y-5243500D02*
X7423000Y-5273500D01*
X7423000Y-5243500D02*
X7393000Y-5273500D01*
X7513000Y-2793500D02*
X7543000Y-2823500D01*
X7543000Y-2793500D02*
X7513000Y-2823500D01*
X7563000Y-7223500D02*
X7593000Y-7253500D01*
X7593000Y-7223500D02*
X7563000Y-7253500D01*
X7633432Y-7183500D02*
X7663432Y-7213500D01*
X7663432Y-7183500D02*
X7633432Y-7213500D01*
X7643000Y-5243500D02*
X7673000Y-5273500D01*
X7673000Y-5243500D02*
X7643000Y-5273500D01*
X7713000Y-7143500D02*
X7743000Y-7173500D01*
X7743000Y-7143500D02*
X7713000Y-7173500D01*
X7783000Y-7103500D02*
X7813000Y-7133500D01*
X7813000Y-7103500D02*
X7783000Y-7133500D01*
X7856085Y-7063500D02*
X7886085Y-7093500D01*
X7886085Y-7063500D02*
X7856085Y-7093500D01*
X7926085Y-7023500D02*
X7956085Y-7053500D01*
X7956085Y-7023500D02*
X7926085Y-7053500D01*
X8006024Y-6988200D02*
X8036024Y-7018200D01*
X8036024Y-6988200D02*
X8006024Y-7018200D01*
X8072371Y-6943500D02*
X8102371Y-6973500D01*
X8102371Y-6943500D02*
X8072371Y-6973500D01*
X8149567Y-6903500D02*
X8179567Y-6933500D01*
X8179567Y-6903500D02*
X8149567Y-6933500D01*
X8224056Y-6863500D02*
X8254056Y-6893500D01*
X8254056Y-6863500D02*
X8224056Y-6893500D01*
X8297885Y-6823500D02*
X8327885Y-6853500D01*
X8327885Y-6823500D02*
X8297885Y-6853500D01*
X8377886Y-6783500D02*
X8407886Y-6813500D01*
X8407886Y-6783500D02*
X8377886Y-6813500D01*
X8448231Y-6743500D02*
X8478231Y-6773500D01*
X8478231Y-6743500D02*
X8448231Y-6773500D01*
X8521465Y-6703500D02*
X8551465Y-6733500D01*
X8551465Y-6703500D02*
X8521465Y-6733500D01*
X8599950Y-6673826D02*
X8629950Y-6703826D01*
X8629950Y-6673826D02*
X8599950Y-6703826D01*
X8666728Y-6629772D02*
X8696728Y-6659772D01*
X8696728Y-6629772D02*
X8666728Y-6659772D01*
X8733000Y-6583500D02*
X8763000Y-6613500D01*
X8763000Y-6583500D02*
X8733000Y-6613500D01*
X8793000Y-6523500D02*
X8823000Y-6553500D01*
X8823000Y-6523500D02*
X8793000Y-6553500D01*
X11333000Y-5223500D02*
X11363000Y-5253500D01*
X11363000Y-5223500D02*
X11333000Y-5253500D01*
X11333000Y-5723500D02*
X11363000Y-5753500D01*
X11363000Y-5723500D02*
X11333000Y-5753500D01*
X11343000Y-4083500D02*
X11373000Y-4113500D01*
X11373000Y-4083500D02*
X11343000Y-4113500D01*
X11343000Y-4573500D02*
X11373000Y-4603500D01*
X11373000Y-4573500D02*
X11343000Y-4603500D01*
X11343000Y-6483500D02*
X11373000Y-6513500D01*
X11373000Y-6483500D02*
X11343000Y-6513500D01*
X11343000Y-6973500D02*
X11373000Y-7003500D01*
X11373000Y-6973500D02*
X11343000Y-7003500D01*
X11343000Y-7733500D02*
X11373000Y-7763500D01*
X11373000Y-7733500D02*
X11343000Y-7763500D01*
X11343000Y-8223500D02*
X11373000Y-8253500D01*
X11373000Y-8223500D02*
X11343000Y-8253500D01*
X11343000Y-8943500D02*
X11373000Y-8973500D01*
X11373000Y-8943500D02*
X11343000Y-8973500D01*
X11343000Y-9433500D02*
X11373000Y-9463500D01*
X11373000Y-9433500D02*
X11343000Y-9463500D01*
X11683000Y-5383500D02*
X11713000Y-5413500D01*
X11713000Y-5383500D02*
X11683000Y-5413500D01*
X11683000Y-5863500D02*
X11713000Y-5893500D01*
X11713000Y-5863500D02*
X11683000Y-5893500D01*
X11693000Y-4723500D02*
X11723000Y-4753500D01*
X11723000Y-4723500D02*
X11693000Y-4753500D01*
X11693000Y-6633500D02*
X11723000Y-6663500D01*
X11723000Y-6633500D02*
X11693000Y-6663500D01*
X11693000Y-7113500D02*
X11723000Y-7143500D01*
X11723000Y-7113500D02*
X11693000Y-7143500D01*
X11693000Y-7583500D02*
X11723000Y-7613500D01*
X11723000Y-7583500D02*
X11693000Y-7613500D01*
X11693000Y-8383500D02*
X11723000Y-8413500D01*
X11723000Y-8383500D02*
X11693000Y-8413500D01*
X11693000Y-8803500D02*
X11723000Y-8833500D01*
X11723000Y-8803500D02*
X11693000Y-8833500D01*
X11693000Y-9573500D02*
X11723000Y-9603500D01*
X11723000Y-9573500D02*
X11693000Y-9603500D01*
X11815000Y-5568500D02*
X11845000Y-5598500D01*
X11845000Y-5568500D02*
X11815000Y-5598500D01*
X11815000Y-6818500D02*
X11845000Y-6848500D01*
X11845000Y-6818500D02*
X11815000Y-6848500D01*
X11815000Y-8058500D02*
X11845000Y-8088500D01*
X11845000Y-8058500D02*
X11815000Y-8088500D01*
X11815000Y-9268500D02*
X11845000Y-9298500D01*
X11845000Y-9268500D02*
X11815000Y-9298500D01*
X11825000Y-4408500D02*
X11855000Y-4438500D01*
X11855000Y-4408500D02*
X11825000Y-4438500D01*
X11935000Y-9108500D02*
X11965000Y-9138500D01*
X11965000Y-9108500D02*
X11935000Y-9138500D01*
X11945000Y-4258500D02*
X11975000Y-4288500D01*
X11975000Y-4258500D02*
X11945000Y-4288500D01*
X11945000Y-5398500D02*
X11975000Y-5428500D01*
X11975000Y-5398500D02*
X11945000Y-5428500D01*
X11945000Y-6638500D02*
X11975000Y-6668500D01*
X11975000Y-6638500D02*
X11945000Y-6668500D01*
X11945000Y-7898500D02*
X11975000Y-7928500D01*
X11975000Y-7898500D02*
X11945000Y-7928500D01*
X12193000Y-5373500D02*
X12223000Y-5403500D01*
X12223000Y-5373500D02*
X12193000Y-5403500D01*
X12193000Y-5863500D02*
X12223000Y-5893500D01*
X12223000Y-5863500D02*
X12193000Y-5893500D01*
X12193000Y-8383500D02*
X12223000Y-8413500D01*
X12223000Y-8383500D02*
X12193000Y-8413500D01*
X12193000Y-8803500D02*
X12223000Y-8833500D01*
X12223000Y-8803500D02*
X12193000Y-8833500D01*
X12193000Y-9583500D02*
X12223000Y-9613500D01*
X12223000Y-9583500D02*
X12193000Y-9613500D01*
X12203000Y-4723500D02*
X12233000Y-4753500D01*
X12233000Y-4723500D02*
X12203000Y-4753500D01*
X12203000Y-6633500D02*
X12233000Y-6663500D01*
X12233000Y-6633500D02*
X12203000Y-6663500D01*
X12203000Y-7123500D02*
X12233000Y-7153500D01*
X12233000Y-7123500D02*
X12203000Y-7153500D01*
X12203000Y-7583500D02*
X12233000Y-7613500D01*
X12233000Y-7583500D02*
X12203000Y-7613500D01*
X12323000Y-3913500D02*
X12353000Y-3943500D01*
X12353000Y-3913500D02*
X12323000Y-3943500D01*
X13053000Y-8303500D02*
X13083000Y-8333500D01*
X13083000Y-8303500D02*
X13053000Y-8333500D01*
X13053000Y-8703500D02*
X13083000Y-8733500D01*
X13083000Y-8703500D02*
X13053000Y-8733500D01*
X13053000Y-9153500D02*
X13083000Y-9183500D01*
X13083000Y-9153500D02*
X13053000Y-9183500D01*
X13053000Y-9653500D02*
X13083000Y-9683500D01*
X13083000Y-9653500D02*
X13053000Y-9683500D01*
X13423000Y-8473500D02*
X13453000Y-8503500D01*
X13453000Y-8473500D02*
X13423000Y-8503500D01*
X13423000Y-8893500D02*
X13453000Y-8923500D01*
X13453000Y-8893500D02*
X13423000Y-8923500D01*
X13423000Y-9333500D02*
X13453000Y-9363500D01*
X13453000Y-9333500D02*
X13423000Y-9363500D01*
X13423000Y-9813500D02*
X13453000Y-9843500D01*
X13453000Y-9813500D02*
X13423000Y-9843500D01*
X13783000Y-8303500D02*
X13813000Y-8333500D01*
X13813000Y-8303500D02*
X13783000Y-8333500D01*
X13783000Y-8693500D02*
X13813000Y-8723500D01*
X13813000Y-8693500D02*
X13783000Y-8723500D01*
X13783000Y-9153500D02*
X13813000Y-9183500D01*
X13813000Y-9153500D02*
X13783000Y-9183500D01*
X13783000Y-9653500D02*
X13813000Y-9683500D01*
X13813000Y-9653500D02*
X13783000Y-9683500D01*
X14585000Y-2545000D02*
X14615000Y-2575000D01*
X14615000Y-2545000D02*
X14585000Y-2575000D01*
X14585000Y-2855000D02*
X14615000Y-2885000D01*
X14615000Y-2855000D02*
X14585000Y-2885000D01*
X14585000Y-3165000D02*
X14615000Y-3195000D01*
X14615000Y-3165000D02*
X14585000Y-3195000D01*
X14585000Y-3445000D02*
X14615000Y-3475000D01*
X14615000Y-3445000D02*
X14585000Y-3475000D01*
X14585000Y-3725000D02*
X14615000Y-3755000D01*
X14615000Y-3725000D02*
X14585000Y-3755000D01*
X14585000Y-4005000D02*
X14615000Y-4035000D01*
X14615000Y-4005000D02*
X14585000Y-4035000D01*
X17143000Y-4713500D02*
X17173000Y-4743500D01*
X17173000Y-4713500D02*
X17143000Y-4743500D01*
X17253000Y-3713500D02*
X17283000Y-3743500D01*
X17283000Y-3713500D02*
X17253000Y-3743500D01*
X17253000Y-3913500D02*
X17283000Y-3943500D01*
X17283000Y-3913500D02*
X17253000Y-3943500D01*
X17253000Y-4113500D02*
X17283000Y-4143500D01*
X17283000Y-4113500D02*
X17253000Y-4143500D01*
X17253000Y-4313500D02*
X17283000Y-4343500D01*
X17283000Y-4313500D02*
X17253000Y-4343500D01*
X17253000Y-5313500D02*
X17283000Y-5343500D01*
X17283000Y-5313500D02*
X17253000Y-5343500D01*
X17253000Y-5913500D02*
X17283000Y-5943500D01*
X17283000Y-5913500D02*
X17253000Y-5943500D01*
X17423000Y-6513500D02*
X17453000Y-6543500D01*
X17453000Y-6513500D02*
X17423000Y-6543500D01*
X17423000Y-6713500D02*
X17453000Y-6743500D01*
X17453000Y-6713500D02*
X17423000Y-6743500D01*
X17423000Y-6903500D02*
X17453000Y-6933500D01*
X17453000Y-6903500D02*
X17423000Y-6933500D01*
X17423000Y-7103500D02*
X17453000Y-7133500D01*
X17453000Y-7103500D02*
X17423000Y-7133500D01*
X17423000Y-7313500D02*
X17453000Y-7343500D01*
X17453000Y-7313500D02*
X17423000Y-7343500D01*
X17423000Y-7513500D02*
X17453000Y-7543500D01*
X17453000Y-7513500D02*
X17423000Y-7543500D01*
X17423000Y-7713500D02*
X17453000Y-7743500D01*
X17453000Y-7713500D02*
X17423000Y-7743500D01*
X17423000Y-7913500D02*
X17453000Y-7943500D01*
X17453000Y-7913500D02*
X17423000Y-7943500D01*
X17423000Y-8123500D02*
X17453000Y-8153500D01*
X17453000Y-8123500D02*
X17423000Y-8153500D01*
X17423000Y-8313500D02*
X17453000Y-8343500D01*
X17453000Y-8313500D02*
X17423000Y-8343500D01*
X17423000Y-8503500D02*
X17453000Y-8533500D01*
X17453000Y-8503500D02*
X17423000Y-8533500D01*
X17423000Y-8703500D02*
X17453000Y-8733500D01*
X17453000Y-8703500D02*
X17423000Y-8733500D01*
X17423000Y-8893500D02*
X17453000Y-8923500D01*
X17453000Y-8893500D02*
X17423000Y-8923500D01*
X17423000Y-9103500D02*
X17453000Y-9133500D01*
X17453000Y-9103500D02*
X17423000Y-9133500D01*
X17423000Y-9303500D02*
X17453000Y-9333500D01*
X17453000Y-9303500D02*
X17423000Y-9333500D01*
X17423000Y-9503500D02*
X17453000Y-9533500D01*
X17453000Y-9503500D02*
X17423000Y-9533500D01*
X17423000Y-9713500D02*
X17453000Y-9743500D01*
X17453000Y-9713500D02*
X17423000Y-9743500D01*
X17423000Y-9913500D02*
X17453000Y-9943500D01*
X17453000Y-9913500D02*
X17423000Y-9943500D01*
X14200500Y-8206500D02*
G75*
G02*
X14123500Y-8206500I-38500J0D01*
G01*
X14123500Y-8206500D02*
G75*
G02*
X14200500Y-8206500I38500J0D01*
G01*
X14200500Y-8460500D02*
G75*
G02*
X14123500Y-8460500I-38500J0D01*
G01*
X14123500Y-8460500D02*
G75*
G02*
X14200500Y-8460500I38500J0D01*
G01*
X14200500Y-8714500D02*
G75*
G02*
X14123500Y-8714500I-38500J0D01*
G01*
X14123500Y-8714500D02*
G75*
G02*
X14200500Y-8714500I38500J0D01*
G01*
X14200500Y-8968500D02*
G75*
G02*
X14123500Y-8968500I-38500J0D01*
G01*
X14123500Y-8968500D02*
G75*
G02*
X14200500Y-8968500I38500J0D01*
G01*
X14200500Y-9222500D02*
G75*
G02*
X14123500Y-9222500I-38500J0D01*
G01*
X14123500Y-9222500D02*
G75*
G02*
X14200500Y-9222500I38500J0D01*
G01*
X14200500Y-9476500D02*
G75*
G02*
X14123500Y-9476500I-38500J0D01*
G01*
X14123500Y-9476500D02*
G75*
G02*
X14200500Y-9476500I38500J0D01*
G01*
X14200500Y-9730500D02*
G75*
G02*
X14123500Y-9730500I-38500J0D01*
G01*
X14123500Y-9730500D02*
G75*
G02*
X14200500Y-9730500I38500J0D01*
G01*
X14994500Y-8206500D02*
G75*
G02*
X14917500Y-8206500I-38500J0D01*
G01*
X14917500Y-8206500D02*
G75*
G02*
X14994500Y-8206500I38500J0D01*
G01*
X14994500Y-8460500D02*
G75*
G02*
X14917500Y-8460500I-38500J0D01*
G01*
X14917500Y-8460500D02*
G75*
G02*
X14994500Y-8460500I38500J0D01*
G01*
X14994500Y-8714500D02*
G75*
G02*
X14917500Y-8714500I-38500J0D01*
G01*
X14917500Y-8714500D02*
G75*
G02*
X14994500Y-8714500I38500J0D01*
G01*
X14994500Y-8968500D02*
G75*
G02*
X14917500Y-8968500I-38500J0D01*
G01*
X14917500Y-8968500D02*
G75*
G02*
X14994500Y-8968500I38500J0D01*
G01*
X14994500Y-9222500D02*
G75*
G02*
X14917500Y-9222500I-38500J0D01*
G01*
X14917500Y-9222500D02*
G75*
G02*
X14994500Y-9222500I38500J0D01*
G01*
X14994500Y-9476500D02*
G75*
G02*
X14917500Y-9476500I-38500J0D01*
G01*
X14917500Y-9476500D02*
G75*
G02*
X14994500Y-9476500I38500J0D01*
G01*
X14994500Y-9730500D02*
G75*
G02*
X14917500Y-9730500I-38500J0D01*
G01*
X14917500Y-9730500D02*
G75*
G02*
X14994500Y-9730500I38500J0D01*
G01*
X15406500Y-8210500D02*
G75*
G02*
X15329500Y-8210500I-38500J0D01*
G01*
X15329500Y-8210500D02*
G75*
G02*
X15406500Y-8210500I38500J0D01*
G01*
X15406500Y-8464500D02*
G75*
G02*
X15329500Y-8464500I-38500J0D01*
G01*
X15329500Y-8464500D02*
G75*
G02*
X15406500Y-8464500I38500J0D01*
G01*
X15406500Y-8718500D02*
G75*
G02*
X15329500Y-8718500I-38500J0D01*
G01*
X15329500Y-8718500D02*
G75*
G02*
X15406500Y-8718500I38500J0D01*
G01*
X15406500Y-8972500D02*
G75*
G02*
X15329500Y-8972500I-38500J0D01*
G01*
X15329500Y-8972500D02*
G75*
G02*
X15406500Y-8972500I38500J0D01*
G01*
X15406500Y-9226500D02*
G75*
G02*
X15329500Y-9226500I-38500J0D01*
G01*
X15329500Y-9226500D02*
G75*
G02*
X15406500Y-9226500I38500J0D01*
G01*
X15406500Y-9480500D02*
G75*
G02*
X15329500Y-9480500I-38500J0D01*
G01*
X15329500Y-9480500D02*
G75*
G02*
X15406500Y-9480500I38500J0D01*
G01*
X15406500Y-9734500D02*
G75*
G02*
X15329500Y-9734500I-38500J0D01*
G01*
X15329500Y-9734500D02*
G75*
G02*
X15406500Y-9734500I38500J0D01*
G01*
X16200500Y-8210500D02*
G75*
G02*
X16123500Y-8210500I-38500J0D01*
G01*
X16123500Y-8210500D02*
G75*
G02*
X16200500Y-8210500I38500J0D01*
G01*
X16200500Y-8464500D02*
G75*
G02*
X16123500Y-8464500I-38500J0D01*
G01*
X16123500Y-8464500D02*
G75*
G02*
X16200500Y-8464500I38500J0D01*
G01*
X16200500Y-8718500D02*
G75*
G02*
X16123500Y-8718500I-38500J0D01*
G01*
X16123500Y-8718500D02*
G75*
G02*
X16200500Y-8718500I38500J0D01*
G01*
X16200500Y-8972500D02*
G75*
G02*
X16123500Y-8972500I-38500J0D01*
G01*
X16123500Y-8972500D02*
G75*
G02*
X16200500Y-8972500I38500J0D01*
G01*
X16200500Y-9226500D02*
G75*
G02*
X16123500Y-9226500I-38500J0D01*
G01*
X16123500Y-9226500D02*
G75*
G02*
X16200500Y-9226500I38500J0D01*
G01*
X16200500Y-9480500D02*
G75*
G02*
X16123500Y-9480500I-38500J0D01*
G01*
X16123500Y-9480500D02*
G75*
G02*
X16200500Y-9480500I38500J0D01*
G01*
X16200500Y-9734500D02*
G75*
G02*
X16123500Y-9734500I-38500J0D01*
G01*
X16123500Y-9734500D02*
G75*
G02*
X16200500Y-9734500I38500J0D01*
G01*
X2544000Y-1744500D02*
X2544000Y-1824500D01*
X2504000Y-1784500D02*
X2584000Y-1784500D01*
X2798000Y-1744500D02*
X2798000Y-1824500D01*
X2758000Y-1784500D02*
X2838000Y-1784500D01*
X3020000Y-8151500D02*
X3020000Y-8231500D01*
X2980000Y-8191500D02*
X3060000Y-8191500D01*
X3020000Y-8405500D02*
X3020000Y-8485500D01*
X2980000Y-8445500D02*
X3060000Y-8445500D01*
X3052000Y-1744500D02*
X3052000Y-1824500D01*
X3012000Y-1784500D02*
X3092000Y-1784500D01*
X3934000Y-1814500D02*
X3934000Y-1894500D01*
X3894000Y-1854500D02*
X3974000Y-1854500D01*
X4188000Y-1814500D02*
X4188000Y-1894500D01*
X4148000Y-1854500D02*
X4228000Y-1854500D01*
X4244000Y-7760340D02*
X4244000Y-7840340D01*
X4204000Y-7800340D02*
X4284000Y-7800340D01*
X4244000Y-7960340D02*
X4244000Y-8040340D01*
X4204000Y-8000340D02*
X4284000Y-8000340D01*
X4244000Y-8160340D02*
X4244000Y-8240340D01*
X4204000Y-8200340D02*
X4284000Y-8200340D01*
X4442000Y-1814500D02*
X4442000Y-1894500D01*
X4402000Y-1854500D02*
X4482000Y-1854500D01*
X4444000Y-7760340D02*
X4444000Y-7840340D01*
X4404000Y-7800340D02*
X4484000Y-7800340D01*
X4444000Y-7960340D02*
X4444000Y-8040340D01*
X4404000Y-8000340D02*
X4484000Y-8000340D01*
X4444000Y-8160340D02*
X4444000Y-8240340D01*
X4404000Y-8200340D02*
X4484000Y-8200340D01*
X5334000Y-1774500D02*
X5334000Y-1854500D01*
X5294000Y-1814500D02*
X5374000Y-1814500D01*
X5588000Y-1774500D02*
X5588000Y-1854500D01*
X5548000Y-1814500D02*
X5628000Y-1814500D01*
X5842000Y-1774500D02*
X5842000Y-1854500D01*
X5802000Y-1814500D02*
X5882000Y-1814500D01*
X6734000Y-1774500D02*
X6734000Y-1854500D01*
X6694000Y-1814500D02*
X6774000Y-1814500D01*
X6988000Y-1774500D02*
X6988000Y-1854500D01*
X6948000Y-1814500D02*
X7028000Y-1814500D01*
X7242000Y-1774500D02*
X7242000Y-1854500D01*
X7202000Y-1814500D02*
X7282000Y-1814500D01*
X8134000Y-1794500D02*
X8134000Y-1874500D01*
X8094000Y-1834500D02*
X8174000Y-1834500D01*
X8388000Y-1794500D02*
X8388000Y-1874500D01*
X8348000Y-1834500D02*
X8428000Y-1834500D01*
X8642000Y-1794500D02*
X8642000Y-1874500D01*
X8602000Y-1834500D02*
X8682000Y-1834500D01*
X9534000Y-1808500D02*
X9534000Y-1888500D01*
X9494000Y-1848500D02*
X9574000Y-1848500D01*
X9788000Y-1808500D02*
X9788000Y-1888500D01*
X9748000Y-1848500D02*
X9828000Y-1848500D01*
X10042000Y-1808500D02*
X10042000Y-1888500D01*
X10002000Y-1848500D02*
X10082000Y-1848500D01*
X10934000Y-1798500D02*
X10934000Y-1878500D01*
X10894000Y-1838500D02*
X10974000Y-1838500D01*
X11188000Y-1798500D02*
X11188000Y-1878500D01*
X11148000Y-1838500D02*
X11228000Y-1838500D01*
X11442000Y-1798500D02*
X11442000Y-1878500D01*
X11402000Y-1838500D02*
X11482000Y-1838500D01*
X12334000Y-1808500D02*
X12334000Y-1888500D01*
X12294000Y-1848500D02*
X12374000Y-1848500D01*
X12588000Y-1808500D02*
X12588000Y-1888500D01*
X12548000Y-1848500D02*
X12628000Y-1848500D01*
X12842000Y-1808500D02*
X12842000Y-1888500D01*
X12802000Y-1848500D02*
X12882000Y-1848500D01*
X13734000Y-1778500D02*
X13734000Y-1858500D01*
X13694000Y-1818500D02*
X13774000Y-1818500D01*
X13988000Y-1778500D02*
X13988000Y-1858500D01*
X13948000Y-1818500D02*
X14028000Y-1818500D01*
X14242000Y-1778500D02*
X14242000Y-1858500D01*
X14202000Y-1818500D02*
X14282000Y-1818500D01*
X15134000Y-1794500D02*
X15134000Y-1874500D01*
X15094000Y-1834500D02*
X15174000Y-1834500D01*
X15388000Y-1794500D02*
X15388000Y-1874500D01*
X15348000Y-1834500D02*
X15428000Y-1834500D01*
X15642000Y-1794500D02*
X15642000Y-1874500D01*
X15602000Y-1834500D02*
X15682000Y-1834500D01*
X16534000Y-1774500D02*
X16534000Y-1854500D01*
X16494000Y-1814500D02*
X16574000Y-1814500D01*
X16788000Y-1774500D02*
X16788000Y-1854500D01*
X16748000Y-1814500D02*
X16828000Y-1814500D01*
X17042000Y-1774500D02*
X17042000Y-1854500D01*
X17002000Y-1814500D02*
X17082000Y-1814500D01*
X17934000Y-1794500D02*
X17934000Y-1874500D01*
X17894000Y-1834500D02*
X17974000Y-1834500D01*
X18188000Y-1794500D02*
X18188000Y-1874500D01*
X18148000Y-1834500D02*
X18228000Y-1834500D01*
X18442000Y-1794500D02*
X18442000Y-1874500D01*
X18402000Y-1834500D02*
X18482000Y-1834500D01*
X19334000Y-1778500D02*
X19334000Y-1858500D01*
X19294000Y-1818500D02*
X19374000Y-1818500D01*
X19588000Y-1778500D02*
X19588000Y-1858500D01*
X19548000Y-1818500D02*
X19628000Y-1818500D01*
X19842000Y-1778500D02*
X19842000Y-1858500D01*
X19802000Y-1818500D02*
X19882000Y-1818500D01*
X20734000Y-1778500D02*
X20734000Y-1858500D01*
X20694000Y-1818500D02*
X20774000Y-1818500D01*
X20988000Y-1778500D02*
X20988000Y-1858500D01*
X20948000Y-1818500D02*
X21028000Y-1818500D01*
X21242000Y-1778500D02*
X21242000Y-1858500D01*
X21202000Y-1818500D02*
X21282000Y-1818500D01*
X22134000Y-1798500D02*
X22134000Y-1878500D01*
X22094000Y-1838500D02*
X22174000Y-1838500D01*
X22388000Y-1798500D02*
X22388000Y-1878500D01*
X22348000Y-1838500D02*
X22428000Y-1838500D01*
X22642000Y-1798500D02*
X22642000Y-1878500D01*
X22602000Y-1838500D02*
X22682000Y-1838500D01*
X23534000Y-1798500D02*
X23534000Y-1878500D01*
X23494000Y-1838500D02*
X23574000Y-1838500D01*
X23788000Y-1798500D02*
X23788000Y-1878500D01*
X23748000Y-1838500D02*
X23828000Y-1838500D01*
X24042000Y-1798500D02*
X24042000Y-1878500D01*
X24002000Y-1838500D02*
X24082000Y-1838500D01*
X24934000Y-1808500D02*
X24934000Y-1888500D01*
X24894000Y-1848500D02*
X24974000Y-1848500D01*
X25188000Y-1808500D02*
X25188000Y-1888500D01*
X25148000Y-1848500D02*
X25228000Y-1848500D01*
X25442000Y-1808500D02*
X25442000Y-1888500D01*
X25402000Y-1848500D02*
X25482000Y-1848500D01*
X26334000Y-1778500D02*
X26334000Y-1858500D01*
X26294000Y-1818500D02*
X26374000Y-1818500D01*
X26588000Y-1778500D02*
X26588000Y-1858500D01*
X26548000Y-1818500D02*
X26628000Y-1818500D01*
X26842000Y-1778500D02*
X26842000Y-1858500D01*
X26802000Y-1818500D02*
X26882000Y-1818500D01*
D13*
X3280063Y-4654563D02*
X3280063Y-4582437D01*
X3207937Y-4582437D01*
X3207937Y-4654563D01*
X3280063Y-4654563D01*
X3280063Y-4908563D02*
X3280063Y-4836437D01*
X3207937Y-4836437D01*
X3207937Y-4908563D01*
X3280063Y-4908563D01*
X3534063Y-4654563D02*
X3534063Y-4582437D01*
X3461937Y-4582437D01*
X3461937Y-4654563D01*
X3534063Y-4654563D01*
X3534063Y-4908563D02*
X3534063Y-4836437D01*
X3461937Y-4836437D01*
X3461937Y-4908563D01*
X3534063Y-4908563D01*
X3788063Y-4654563D02*
X3788063Y-4582437D01*
X3715937Y-4582437D01*
X3715937Y-4654563D01*
X3788063Y-4654563D01*
X3788063Y-4908563D02*
X3788063Y-4836437D01*
X3715937Y-4836437D01*
X3715937Y-4908563D01*
X3788063Y-4908563D01*
X4042063Y-4654563D02*
X4042063Y-4582437D01*
X3969937Y-4582437D01*
X3969937Y-4654563D01*
X4042063Y-4654563D01*
X4042063Y-4908563D02*
X4042063Y-4836437D01*
X3969937Y-4836437D01*
X3969937Y-4908563D01*
X4042063Y-4908563D01*
X4296063Y-4654563D02*
X4296063Y-4582437D01*
X4223937Y-4582437D01*
X4223937Y-4654563D01*
X4296063Y-4654563D01*
X4296063Y-4908563D02*
X4296063Y-4836437D01*
X4223937Y-4836437D01*
X4223937Y-4908563D01*
X4296063Y-4908563D01*
X4550063Y-4654563D02*
X4550063Y-4582437D01*
X4477937Y-4582437D01*
X4477937Y-4654563D01*
X4550063Y-4654563D01*
X4550063Y-4908563D02*
X4550063Y-4836437D01*
X4477937Y-4836437D01*
X4477937Y-4908563D01*
X4550063Y-4908563D01*
X4804063Y-4654563D02*
X4804063Y-4582437D01*
X4731937Y-4582437D01*
X4731937Y-4654563D01*
X4804063Y-4654563D01*
X4804063Y-4908563D02*
X4804063Y-4836437D01*
X4731937Y-4836437D01*
X4731937Y-4908563D01*
X4804063Y-4908563D01*
X5058063Y-4654563D02*
X5058063Y-4582437D01*
X4985937Y-4582437D01*
X4985937Y-4654563D01*
X5058063Y-4654563D01*
X5058063Y-4908563D02*
X5058063Y-4836437D01*
X4985937Y-4836437D01*
X4985937Y-4908563D01*
X5058063Y-4908563D01*
X5312063Y-4654563D02*
X5312063Y-4582437D01*
X5239937Y-4582437D01*
X5239937Y-4654563D01*
X5312063Y-4654563D01*
X5312063Y-4908563D02*
X5312063Y-4836437D01*
X5239937Y-4836437D01*
X5239937Y-4908563D01*
X5312063Y-4908563D01*
X5566063Y-4654563D02*
X5566063Y-4582437D01*
X5493937Y-4582437D01*
X5493937Y-4654563D01*
X5566063Y-4654563D01*
X5566063Y-4908563D02*
X5566063Y-4836437D01*
X5493937Y-4836437D01*
X5493937Y-4908563D01*
X5566063Y-4908563D01*
X5820063Y-4654563D02*
X5820063Y-4582437D01*
X5747937Y-4582437D01*
X5747937Y-4654563D01*
X5820063Y-4654563D01*
X5820063Y-4908563D02*
X5820063Y-4836437D01*
X5747937Y-4836437D01*
X5747937Y-4908563D01*
X5820063Y-4908563D01*
X6074063Y-4654563D02*
X6074063Y-4582437D01*
X6001937Y-4582437D01*
X6001937Y-4654563D01*
X6074063Y-4654563D01*
X6074063Y-4908563D02*
X6074063Y-4836437D01*
X6001937Y-4836437D01*
X6001937Y-4908563D01*
X6074063Y-4908563D01*
X6328063Y-4654563D02*
X6328063Y-4582437D01*
X6255937Y-4582437D01*
X6255937Y-4654563D01*
X6328063Y-4654563D01*
X6328063Y-4908563D02*
X6328063Y-4836437D01*
X6255937Y-4836437D01*
X6255937Y-4908563D01*
X6328063Y-4908563D01*
X6582063Y-4654563D02*
X6582063Y-4582437D01*
X6509937Y-4582437D01*
X6509937Y-4654563D01*
X6582063Y-4654563D01*
X6582063Y-4908563D02*
X6582063Y-4836437D01*
X6509937Y-4836437D01*
X6509937Y-4908563D01*
X6582063Y-4908563D01*
X6836063Y-4654563D02*
X6836063Y-4582437D01*
X6763937Y-4582437D01*
X6763937Y-4654563D01*
X6836063Y-4654563D01*
X6836063Y-4908563D02*
X6836063Y-4836437D01*
X6763937Y-4836437D01*
X6763937Y-4908563D01*
X6836063Y-4908563D01*
X7090063Y-4654563D02*
X7090063Y-4582437D01*
X7017937Y-4582437D01*
X7017937Y-4654563D01*
X7090063Y-4654563D01*
X7090063Y-4908563D02*
X7090063Y-4836437D01*
X7017937Y-4836437D01*
X7017937Y-4908563D01*
X7090063Y-4908563D01*
X7344063Y-4654563D02*
X7344063Y-4582437D01*
X7271937Y-4582437D01*
X7271937Y-4654563D01*
X7344063Y-4654563D01*
X7344063Y-4908563D02*
X7344063Y-4836437D01*
X7271937Y-4836437D01*
X7271937Y-4908563D01*
X7344063Y-4908563D01*
X7598063Y-4654563D02*
X7598063Y-4582437D01*
X7525937Y-4582437D01*
X7525937Y-4654563D01*
X7598063Y-4654563D01*
X7598063Y-4908563D02*
X7598063Y-4836437D01*
X7525937Y-4836437D01*
X7525937Y-4908563D01*
X7598063Y-4908563D01*
X7852063Y-4654563D02*
X7852063Y-4582437D01*
X7779937Y-4582437D01*
X7779937Y-4654563D01*
X7852063Y-4654563D01*
X7852063Y-4908563D02*
X7852063Y-4836437D01*
X7779937Y-4836437D01*
X7779937Y-4908563D01*
X7852063Y-4908563D01*
X8106063Y-4654563D02*
X8106063Y-4582437D01*
X8033937Y-4582437D01*
X8033937Y-4654563D01*
X8106063Y-4654563D01*
X8106063Y-4908563D02*
X8106063Y-4836437D01*
X8033937Y-4836437D01*
X8033937Y-4908563D01*
X8106063Y-4908563D01*
D14*
X2947000Y-7611500D02*
X3002000Y-7556500D01*
X2947000Y-7501500D01*
X2892000Y-7556500D01*
X2947000Y-7611500D01*
X2947000Y-9135500D02*
X3002000Y-9080500D01*
X2947000Y-9025500D01*
X2892000Y-9080500D01*
X2947000Y-9135500D01*
X3201000Y-7611500D02*
X3256000Y-7556500D01*
X3201000Y-7501500D01*
X3146000Y-7556500D01*
X3201000Y-7611500D01*
X3201000Y-7865500D02*
X3256000Y-7810500D01*
X3201000Y-7755500D01*
X3146000Y-7810500D01*
X3201000Y-7865500D01*
X3201000Y-9135500D02*
X3256000Y-9080500D01*
X3201000Y-9025500D01*
X3146000Y-9080500D01*
X3201000Y-9135500D01*
X3455000Y-7611500D02*
X3510000Y-7556500D01*
X3455000Y-7501500D01*
X3400000Y-7556500D01*
X3455000Y-7611500D01*
X3455000Y-9135500D02*
X3510000Y-9080500D01*
X3455000Y-9025500D01*
X3400000Y-9080500D01*
X3455000Y-9135500D01*
X3576920Y-8830420D02*
X3631920Y-8775420D01*
X3576920Y-8720420D01*
X3521920Y-8775420D01*
X3576920Y-8830420D01*
X3709000Y-7611500D02*
X3764000Y-7556500D01*
X3709000Y-7501500D01*
X3654000Y-7556500D01*
X3709000Y-7611500D01*
X3709000Y-9135500D02*
X3764000Y-9080500D01*
X3709000Y-9025500D01*
X3654000Y-9080500D01*
X3709000Y-9135500D01*
X3830920Y-8830420D02*
X3885920Y-8775420D01*
X3830920Y-8720420D01*
X3775920Y-8775420D01*
X3830920Y-8830420D01*
X3963000Y-7611500D02*
X4018000Y-7556500D01*
X3963000Y-7501500D01*
X3908000Y-7556500D01*
X3963000Y-7611500D01*
X3963000Y-9135500D02*
X4018000Y-9080500D01*
X3963000Y-9025500D01*
X3908000Y-9080500D01*
X3963000Y-9135500D01*
X4084920Y-8830420D02*
X4139920Y-8775420D01*
X4084920Y-8720420D01*
X4029920Y-8775420D01*
X4084920Y-8830420D01*
X4217000Y-7611500D02*
X4272000Y-7556500D01*
X4217000Y-7501500D01*
X4162000Y-7556500D01*
X4217000Y-7611500D01*
X4217000Y-9135500D02*
X4272000Y-9080500D01*
X4217000Y-9025500D01*
X4162000Y-9080500D01*
X4217000Y-9135500D01*
X4338920Y-8830420D02*
X4393920Y-8775420D01*
X4338920Y-8720420D01*
X4283920Y-8775420D01*
X4338920Y-8830420D01*
X4471000Y-7611500D02*
X4526000Y-7556500D01*
X4471000Y-7501500D01*
X4416000Y-7556500D01*
X4471000Y-7611500D01*
X4471000Y-9135500D02*
X4526000Y-9080500D01*
X4471000Y-9025500D01*
X4416000Y-9080500D01*
X4471000Y-9135500D01*
X4592920Y-8830420D02*
X4647920Y-8775420D01*
X4592920Y-8720420D01*
X4537920Y-8775420D01*
X4592920Y-8830420D01*
X4725000Y-7611500D02*
X4780000Y-7556500D01*
X4725000Y-7501500D01*
X4670000Y-7556500D01*
X4725000Y-7611500D01*
X4725000Y-9135500D02*
X4780000Y-9080500D01*
X4725000Y-9025500D01*
X4670000Y-9080500D01*
X4725000Y-9135500D01*
X4979000Y-7611500D02*
X5034000Y-7556500D01*
X4979000Y-7501500D01*
X4924000Y-7556500D01*
X4979000Y-7611500D01*
X4979000Y-9135500D02*
X5034000Y-9080500D01*
X4979000Y-9025500D01*
X4924000Y-9080500D01*
X4979000Y-9135500D01*
X5233000Y-7611500D02*
X5288000Y-7556500D01*
X5233000Y-7501500D01*
X5178000Y-7556500D01*
X5233000Y-7611500D01*
X5233000Y-9135500D02*
X5288000Y-9080500D01*
X5233000Y-9025500D01*
X5178000Y-9080500D01*
X5233000Y-9135500D01*
X5487000Y-7611500D02*
X5542000Y-7556500D01*
X5487000Y-7501500D01*
X5432000Y-7556500D01*
X5487000Y-7611500D01*
X5487000Y-9135500D02*
X5542000Y-9080500D01*
X5487000Y-9025500D01*
X5432000Y-9080500D01*
X5487000Y-9135500D01*
X5741000Y-7611500D02*
X5796000Y-7556500D01*
X5741000Y-7501500D01*
X5686000Y-7556500D01*
X5741000Y-7611500D01*
X5741000Y-9135500D02*
X5796000Y-9080500D01*
X5741000Y-9025500D01*
X5686000Y-9080500D01*
X5741000Y-9135500D01*
X5995000Y-7611500D02*
X6050000Y-7556500D01*
X5995000Y-7501500D01*
X5940000Y-7556500D01*
X5995000Y-7611500D01*
X5995000Y-9135500D02*
X6050000Y-9080500D01*
X5995000Y-9025500D01*
X5940000Y-9080500D01*
X5995000Y-9135500D01*
X6249000Y-7611500D02*
X6304000Y-7556500D01*
X6249000Y-7501500D01*
X6194000Y-7556500D01*
X6249000Y-7611500D01*
X6249000Y-9135500D02*
X6304000Y-9080500D01*
X6249000Y-9025500D01*
X6194000Y-9080500D01*
X6249000Y-9135500D01*
X6503000Y-7611500D02*
X6558000Y-7556500D01*
X6503000Y-7501500D01*
X6448000Y-7556500D01*
X6503000Y-7611500D01*
X6503000Y-9135500D02*
X6558000Y-9080500D01*
X6503000Y-9025500D01*
X6448000Y-9080500D01*
X6503000Y-9135500D01*
X6757000Y-7611500D02*
X6812000Y-7556500D01*
X6757000Y-7501500D01*
X6702000Y-7556500D01*
X6757000Y-7611500D01*
X6757000Y-9135500D02*
X6812000Y-9080500D01*
X6757000Y-9025500D01*
X6702000Y-9080500D01*
X6757000Y-9135500D01*
X7011000Y-7611500D02*
X7066000Y-7556500D01*
X7011000Y-7501500D01*
X6956000Y-7556500D01*
X7011000Y-7611500D01*
X7011000Y-9135500D02*
X7066000Y-9080500D01*
X7011000Y-9025500D01*
X6956000Y-9080500D01*
X7011000Y-9135500D01*
X7265000Y-7611500D02*
X7320000Y-7556500D01*
X7265000Y-7501500D01*
X7210000Y-7556500D01*
X7265000Y-7611500D01*
X7265000Y-9135500D02*
X7320000Y-9080500D01*
X7265000Y-9025500D01*
X7210000Y-9080500D01*
X7265000Y-9135500D01*
X7519000Y-7611500D02*
X7574000Y-7556500D01*
X7519000Y-7501500D01*
X7464000Y-7556500D01*
X7519000Y-7611500D01*
X7519000Y-7865500D02*
X7574000Y-7810500D01*
X7519000Y-7755500D01*
X7464000Y-7810500D01*
X7519000Y-7865500D01*
X7519000Y-8119500D02*
X7574000Y-8064500D01*
X7519000Y-8009500D01*
X7464000Y-8064500D01*
X7519000Y-8119500D01*
X7519000Y-8373500D02*
X7574000Y-8318500D01*
X7519000Y-8263500D01*
X7464000Y-8318500D01*
X7519000Y-8373500D01*
X7519000Y-8627500D02*
X7574000Y-8572500D01*
X7519000Y-8517500D01*
X7464000Y-8572500D01*
X7519000Y-8627500D01*
X7519000Y-8881500D02*
X7574000Y-8826500D01*
X7519000Y-8771500D01*
X7464000Y-8826500D01*
X7519000Y-8881500D01*
X7519000Y-9135500D02*
X7574000Y-9080500D01*
X7519000Y-9025500D01*
X7464000Y-9080500D01*
X7519000Y-9135500D01*
X7773000Y-7611500D02*
X7828000Y-7556500D01*
X7773000Y-7501500D01*
X7718000Y-7556500D01*
X7773000Y-7611500D01*
X7773000Y-9135500D02*
X7828000Y-9080500D01*
X7773000Y-9025500D01*
X7718000Y-9080500D01*
X7773000Y-9135500D01*
X8027000Y-7611500D02*
X8082000Y-7556500D01*
X8027000Y-7501500D01*
X7972000Y-7556500D01*
X8027000Y-7611500D01*
X8027000Y-9135500D02*
X8082000Y-9080500D01*
X8027000Y-9025500D01*
X7972000Y-9080500D01*
X8027000Y-9135500D01*
X8281000Y-7611500D02*
X8336000Y-7556500D01*
X8281000Y-7501500D01*
X8226000Y-7556500D01*
X8281000Y-7611500D01*
X8281000Y-9135500D02*
X8336000Y-9080500D01*
X8281000Y-9025500D01*
X8226000Y-9080500D01*
X8281000Y-9135500D01*
X8535000Y-7611500D02*
X8590000Y-7556500D01*
X8535000Y-7501500D01*
X8480000Y-7556500D01*
X8535000Y-7611500D01*
X8535000Y-9135500D02*
X8590000Y-9080500D01*
X8535000Y-9025500D01*
X8480000Y-9080500D01*
X8535000Y-9135500D01*
X8789000Y-7611500D02*
X8844000Y-7556500D01*
X8789000Y-7501500D01*
X8734000Y-7556500D01*
X8789000Y-7611500D01*
X8789000Y-9135500D02*
X8844000Y-9080500D01*
X8789000Y-9025500D01*
X8734000Y-9080500D01*
X8789000Y-9135500D01*
D11*
X2646277Y-10732484D02*
X2646277Y-10532484D01*
X2646277Y-10532484D02*
X2693896Y-10532484D01*
X2693896Y-10532484D02*
X2722467Y-10542008D01*
X2722467Y-10542008D02*
X2741515Y-10561055D01*
X2741515Y-10561055D02*
X2751039Y-10580103D01*
X2751039Y-10580103D02*
X2760563Y-10618198D01*
X2760563Y-10618198D02*
X2760563Y-10646770D01*
X2760563Y-10646770D02*
X2751039Y-10684865D01*
X2751039Y-10684865D02*
X2741515Y-10703912D01*
X2741515Y-10703912D02*
X2722467Y-10722960D01*
X2722467Y-10722960D02*
X2693896Y-10732484D01*
X2693896Y-10732484D02*
X2646277Y-10732484D01*
X2846277Y-10732484D02*
X2846277Y-10599150D01*
X2846277Y-10637246D02*
X2855801Y-10618198D01*
X2855801Y-10618198D02*
X2865324Y-10608674D01*
X2865324Y-10608674D02*
X2884372Y-10599150D01*
X2884372Y-10599150D02*
X2903420Y-10599150D01*
X2970086Y-10732484D02*
X2970086Y-10599150D01*
X2970086Y-10532484D02*
X2960562Y-10542008D01*
X2960562Y-10542008D02*
X2970086Y-10551531D01*
X2970086Y-10551531D02*
X2979610Y-10542008D01*
X2979610Y-10542008D02*
X2970086Y-10532484D01*
X2970086Y-10532484D02*
X2970086Y-10551531D01*
X3093896Y-10732484D02*
X3074848Y-10722960D01*
X3074848Y-10722960D02*
X3065324Y-10703912D01*
X3065324Y-10703912D02*
X3065324Y-10532484D01*
X3198658Y-10732484D02*
X3179610Y-10722960D01*
X3179610Y-10722960D02*
X3170086Y-10703912D01*
X3170086Y-10703912D02*
X3170086Y-10532484D01*
X3427229Y-10732484D02*
X3427229Y-10532484D01*
X3427229Y-10532484D02*
X3493896Y-10675341D01*
X3493896Y-10675341D02*
X3560562Y-10532484D01*
X3560562Y-10532484D02*
X3560562Y-10732484D01*
X3741515Y-10732484D02*
X3741515Y-10627722D01*
X3741515Y-10627722D02*
X3731991Y-10608674D01*
X3731991Y-10608674D02*
X3712943Y-10599150D01*
X3712943Y-10599150D02*
X3674848Y-10599150D01*
X3674848Y-10599150D02*
X3655801Y-10608674D01*
X3741515Y-10722960D02*
X3722467Y-10732484D01*
X3722467Y-10732484D02*
X3674848Y-10732484D01*
X3674848Y-10732484D02*
X3655801Y-10722960D01*
X3655801Y-10722960D02*
X3646277Y-10703912D01*
X3646277Y-10703912D02*
X3646277Y-10684865D01*
X3646277Y-10684865D02*
X3655801Y-10665817D01*
X3655801Y-10665817D02*
X3674848Y-10656293D01*
X3674848Y-10656293D02*
X3722467Y-10656293D01*
X3722467Y-10656293D02*
X3741515Y-10646770D01*
X3836753Y-10599150D02*
X3836753Y-10799150D01*
X3836753Y-10608674D02*
X3855801Y-10599150D01*
X3855801Y-10599150D02*
X3893896Y-10599150D01*
X3893896Y-10599150D02*
X3912943Y-10608674D01*
X3912943Y-10608674D02*
X3922467Y-10618198D01*
X3922467Y-10618198D02*
X3931991Y-10637246D01*
X3931991Y-10637246D02*
X3931991Y-10694389D01*
X3931991Y-10694389D02*
X3922467Y-10713436D01*
X3922467Y-10713436D02*
X3912943Y-10722960D01*
X3912943Y-10722960D02*
X3893896Y-10732484D01*
X3893896Y-10732484D02*
X3855801Y-10732484D01*
X3855801Y-10732484D02*
X3836753Y-10722960D01*
X4017705Y-10713436D02*
X4027229Y-10722960D01*
X4027229Y-10722960D02*
X4017705Y-10732484D01*
X4017705Y-10732484D02*
X4008182Y-10722960D01*
X4008182Y-10722960D02*
X4017705Y-10713436D01*
X4017705Y-10713436D02*
X4017705Y-10732484D01*
X4017705Y-10608674D02*
X4027229Y-10618198D01*
X4027229Y-10618198D02*
X4017705Y-10627722D01*
X4017705Y-10627722D02*
X4008182Y-10618198D01*
X4008182Y-10618198D02*
X4017705Y-10608674D01*
X4017705Y-10608674D02*
X4017705Y-10627722D01*
D12*
X2355500Y-11046000D02*
X2385500Y-11076000D01*
X2385500Y-11046000D02*
X2355500Y-11076000D01*
D11*
X2684372Y-10952484D02*
X2703420Y-10952484D01*
X2703420Y-10952484D02*
X2722467Y-10962008D01*
X2722467Y-10962008D02*
X2731991Y-10971531D01*
X2731991Y-10971531D02*
X2741515Y-10990579D01*
X2741515Y-10990579D02*
X2751039Y-11028674D01*
X2751039Y-11028674D02*
X2751039Y-11076293D01*
X2751039Y-11076293D02*
X2741515Y-11114389D01*
X2741515Y-11114389D02*
X2731991Y-11133436D01*
X2731991Y-11133436D02*
X2722467Y-11142960D01*
X2722467Y-11142960D02*
X2703420Y-11152484D01*
X2703420Y-11152484D02*
X2684372Y-11152484D01*
X2684372Y-11152484D02*
X2665324Y-11142960D01*
X2665324Y-11142960D02*
X2655801Y-11133436D01*
X2655801Y-11133436D02*
X2646277Y-11114389D01*
X2646277Y-11114389D02*
X2636753Y-11076293D01*
X2636753Y-11076293D02*
X2636753Y-11028674D01*
X2636753Y-11028674D02*
X2646277Y-10990579D01*
X2646277Y-10990579D02*
X2655801Y-10971531D01*
X2655801Y-10971531D02*
X2665324Y-10962008D01*
X2665324Y-10962008D02*
X2684372Y-10952484D01*
X2836753Y-11133436D02*
X2846277Y-11142960D01*
X2846277Y-11142960D02*
X2836753Y-11152484D01*
X2836753Y-11152484D02*
X2827229Y-11142960D01*
X2827229Y-11142960D02*
X2836753Y-11133436D01*
X2836753Y-11133436D02*
X2836753Y-11152484D01*
X2912943Y-10952484D02*
X3036753Y-10952484D01*
X3036753Y-10952484D02*
X2970086Y-11028674D01*
X2970086Y-11028674D02*
X2998658Y-11028674D01*
X2998658Y-11028674D02*
X3017705Y-11038198D01*
X3017705Y-11038198D02*
X3027229Y-11047722D01*
X3027229Y-11047722D02*
X3036753Y-11066770D01*
X3036753Y-11066770D02*
X3036753Y-11114389D01*
X3036753Y-11114389D02*
X3027229Y-11133436D01*
X3027229Y-11133436D02*
X3017705Y-11142960D01*
X3017705Y-11142960D02*
X2998658Y-11152484D01*
X2998658Y-11152484D02*
X2941515Y-11152484D01*
X2941515Y-11152484D02*
X2922467Y-11142960D01*
X2922467Y-11142960D02*
X2912943Y-11133436D01*
X3160562Y-10952484D02*
X3179610Y-10952484D01*
X3179610Y-10952484D02*
X3198658Y-10962008D01*
X3198658Y-10962008D02*
X3208182Y-10971531D01*
X3208182Y-10971531D02*
X3217705Y-10990579D01*
X3217705Y-10990579D02*
X3227229Y-11028674D01*
X3227229Y-11028674D02*
X3227229Y-11076293D01*
X3227229Y-11076293D02*
X3217705Y-11114389D01*
X3217705Y-11114389D02*
X3208182Y-11133436D01*
X3208182Y-11133436D02*
X3198658Y-11142960D01*
X3198658Y-11142960D02*
X3179610Y-11152484D01*
X3179610Y-11152484D02*
X3160562Y-11152484D01*
X3160562Y-11152484D02*
X3141515Y-11142960D01*
X3141515Y-11142960D02*
X3131991Y-11133436D01*
X3131991Y-11133436D02*
X3122467Y-11114389D01*
X3122467Y-11114389D02*
X3112943Y-11076293D01*
X3112943Y-11076293D02*
X3112943Y-11028674D01*
X3112943Y-11028674D02*
X3122467Y-10990579D01*
X3122467Y-10990579D02*
X3131991Y-10971531D01*
X3131991Y-10971531D02*
X3141515Y-10962008D01*
X3141515Y-10962008D02*
X3160562Y-10952484D01*
X3351039Y-10952484D02*
X3370086Y-10952484D01*
X3370086Y-10952484D02*
X3389134Y-10962008D01*
X3389134Y-10962008D02*
X3398658Y-10971531D01*
X3398658Y-10971531D02*
X3408182Y-10990579D01*
X3408182Y-10990579D02*
X3417705Y-11028674D01*
X3417705Y-11028674D02*
X3417705Y-11076293D01*
X3417705Y-11076293D02*
X3408182Y-11114389D01*
X3408182Y-11114389D02*
X3398658Y-11133436D01*
X3398658Y-11133436D02*
X3389134Y-11142960D01*
X3389134Y-11142960D02*
X3370086Y-11152484D01*
X3370086Y-11152484D02*
X3351039Y-11152484D01*
X3351039Y-11152484D02*
X3331991Y-11142960D01*
X3331991Y-11142960D02*
X3322467Y-11133436D01*
X3322467Y-11133436D02*
X3312943Y-11114389D01*
X3312943Y-11114389D02*
X3303420Y-11076293D01*
X3303420Y-11076293D02*
X3303420Y-11028674D01*
X3303420Y-11028674D02*
X3312943Y-10990579D01*
X3312943Y-10990579D02*
X3322467Y-10971531D01*
X3322467Y-10971531D02*
X3331991Y-10962008D01*
X3331991Y-10962008D02*
X3351039Y-10952484D01*
X3503420Y-11152484D02*
X3503420Y-11019150D01*
X3503420Y-11038198D02*
X3512943Y-11028674D01*
X3512943Y-11028674D02*
X3531991Y-11019150D01*
X3531991Y-11019150D02*
X3560563Y-11019150D01*
X3560563Y-11019150D02*
X3579610Y-11028674D01*
X3579610Y-11028674D02*
X3589134Y-11047722D01*
X3589134Y-11047722D02*
X3589134Y-11152484D01*
X3589134Y-11047722D02*
X3598658Y-11028674D01*
X3598658Y-11028674D02*
X3617705Y-11019150D01*
X3617705Y-11019150D02*
X3646277Y-11019150D01*
X3646277Y-11019150D02*
X3665324Y-11028674D01*
X3665324Y-11028674D02*
X3674848Y-11047722D01*
X3674848Y-11047722D02*
X3674848Y-11152484D01*
X3770086Y-11152484D02*
X3770086Y-11019150D01*
X3770086Y-11038198D02*
X3779610Y-11028674D01*
X3779610Y-11028674D02*
X3798658Y-11019150D01*
X3798658Y-11019150D02*
X3827229Y-11019150D01*
X3827229Y-11019150D02*
X3846277Y-11028674D01*
X3846277Y-11028674D02*
X3855801Y-11047722D01*
X3855801Y-11047722D02*
X3855801Y-11152484D01*
X3855801Y-11047722D02*
X3865324Y-11028674D01*
X3865324Y-11028674D02*
X3884372Y-11019150D01*
X3884372Y-11019150D02*
X3912943Y-11019150D01*
X3912943Y-11019150D02*
X3931991Y-11028674D01*
X3931991Y-11028674D02*
X3941515Y-11047722D01*
X3941515Y-11047722D02*
X3941515Y-11152484D01*
X4331991Y-10942960D02*
X4160563Y-11200103D01*
X4589134Y-10952484D02*
X4608182Y-10952484D01*
X4608182Y-10952484D02*
X4627229Y-10962008D01*
X4627229Y-10962008D02*
X4636753Y-10971531D01*
X4636753Y-10971531D02*
X4646277Y-10990579D01*
X4646277Y-10990579D02*
X4655801Y-11028674D01*
X4655801Y-11028674D02*
X4655801Y-11076293D01*
X4655801Y-11076293D02*
X4646277Y-11114389D01*
X4646277Y-11114389D02*
X4636753Y-11133436D01*
X4636753Y-11133436D02*
X4627229Y-11142960D01*
X4627229Y-11142960D02*
X4608182Y-11152484D01*
X4608182Y-11152484D02*
X4589134Y-11152484D01*
X4589134Y-11152484D02*
X4570087Y-11142960D01*
X4570087Y-11142960D02*
X4560563Y-11133436D01*
X4560563Y-11133436D02*
X4551039Y-11114389D01*
X4551039Y-11114389D02*
X4541515Y-11076293D01*
X4541515Y-11076293D02*
X4541515Y-11028674D01*
X4541515Y-11028674D02*
X4551039Y-10990579D01*
X4551039Y-10990579D02*
X4560563Y-10971531D01*
X4560563Y-10971531D02*
X4570087Y-10962008D01*
X4570087Y-10962008D02*
X4589134Y-10952484D01*
X4741515Y-11133436D02*
X4751039Y-11142960D01*
X4751039Y-11142960D02*
X4741515Y-11152484D01*
X4741515Y-11152484D02*
X4731991Y-11142960D01*
X4731991Y-11142960D02*
X4741515Y-11133436D01*
X4741515Y-11133436D02*
X4741515Y-11152484D01*
X4874848Y-10952484D02*
X4893896Y-10952484D01*
X4893896Y-10952484D02*
X4912944Y-10962008D01*
X4912944Y-10962008D02*
X4922468Y-10971531D01*
X4922468Y-10971531D02*
X4931991Y-10990579D01*
X4931991Y-10990579D02*
X4941515Y-11028674D01*
X4941515Y-11028674D02*
X4941515Y-11076293D01*
X4941515Y-11076293D02*
X4931991Y-11114389D01*
X4931991Y-11114389D02*
X4922468Y-11133436D01*
X4922468Y-11133436D02*
X4912944Y-11142960D01*
X4912944Y-11142960D02*
X4893896Y-11152484D01*
X4893896Y-11152484D02*
X4874848Y-11152484D01*
X4874848Y-11152484D02*
X4855801Y-11142960D01*
X4855801Y-11142960D02*
X4846277Y-11133436D01*
X4846277Y-11133436D02*
X4836753Y-11114389D01*
X4836753Y-11114389D02*
X4827229Y-11076293D01*
X4827229Y-11076293D02*
X4827229Y-11028674D01*
X4827229Y-11028674D02*
X4836753Y-10990579D01*
X4836753Y-10990579D02*
X4846277Y-10971531D01*
X4846277Y-10971531D02*
X4855801Y-10962008D01*
X4855801Y-10962008D02*
X4874848Y-10952484D01*
X5131991Y-11152484D02*
X5017706Y-11152484D01*
X5074848Y-11152484D02*
X5074848Y-10952484D01*
X5074848Y-10952484D02*
X5055801Y-10981055D01*
X5055801Y-10981055D02*
X5036753Y-11000103D01*
X5036753Y-11000103D02*
X5017706Y-11009627D01*
X5322468Y-11152484D02*
X5208182Y-11152484D01*
X5265325Y-11152484D02*
X5265325Y-10952484D01*
X5265325Y-10952484D02*
X5246277Y-10981055D01*
X5246277Y-10981055D02*
X5227229Y-11000103D01*
X5227229Y-11000103D02*
X5208182Y-11009627D01*
X5436753Y-11038198D02*
X5417706Y-11028674D01*
X5417706Y-11028674D02*
X5408182Y-11019150D01*
X5408182Y-11019150D02*
X5398658Y-11000103D01*
X5398658Y-11000103D02*
X5398658Y-10990579D01*
X5398658Y-10990579D02*
X5408182Y-10971531D01*
X5408182Y-10971531D02*
X5417706Y-10962008D01*
X5417706Y-10962008D02*
X5436753Y-10952484D01*
X5436753Y-10952484D02*
X5474849Y-10952484D01*
X5474849Y-10952484D02*
X5493896Y-10962008D01*
X5493896Y-10962008D02*
X5503420Y-10971531D01*
X5503420Y-10971531D02*
X5512944Y-10990579D01*
X5512944Y-10990579D02*
X5512944Y-11000103D01*
X5512944Y-11000103D02*
X5503420Y-11019150D01*
X5503420Y-11019150D02*
X5493896Y-11028674D01*
X5493896Y-11028674D02*
X5474849Y-11038198D01*
X5474849Y-11038198D02*
X5436753Y-11038198D01*
X5436753Y-11038198D02*
X5417706Y-11047722D01*
X5417706Y-11047722D02*
X5408182Y-11057246D01*
X5408182Y-11057246D02*
X5398658Y-11076293D01*
X5398658Y-11076293D02*
X5398658Y-11114389D01*
X5398658Y-11114389D02*
X5408182Y-11133436D01*
X5408182Y-11133436D02*
X5417706Y-11142960D01*
X5417706Y-11142960D02*
X5436753Y-11152484D01*
X5436753Y-11152484D02*
X5474849Y-11152484D01*
X5474849Y-11152484D02*
X5493896Y-11142960D01*
X5493896Y-11142960D02*
X5503420Y-11133436D01*
X5503420Y-11133436D02*
X5512944Y-11114389D01*
X5512944Y-11114389D02*
X5512944Y-11076293D01*
X5512944Y-11076293D02*
X5503420Y-11057246D01*
X5503420Y-11057246D02*
X5493896Y-11047722D01*
X5493896Y-11047722D02*
X5474849Y-11038198D01*
X5589134Y-10952484D02*
X5589134Y-10990579D01*
X5665325Y-10952484D02*
X5665325Y-10990579D01*
X5960563Y-11228674D02*
X5951039Y-11219150D01*
X5951039Y-11219150D02*
X5931991Y-11190579D01*
X5931991Y-11190579D02*
X5922468Y-11171531D01*
X5922468Y-11171531D02*
X5912944Y-11142960D01*
X5912944Y-11142960D02*
X5903420Y-11095341D01*
X5903420Y-11095341D02*
X5903420Y-11057246D01*
X5903420Y-11057246D02*
X5912944Y-11009627D01*
X5912944Y-11009627D02*
X5922468Y-10981055D01*
X5922468Y-10981055D02*
X5931991Y-10962008D01*
X5931991Y-10962008D02*
X5951039Y-10933436D01*
X5951039Y-10933436D02*
X5960563Y-10923912D01*
X6141515Y-11152484D02*
X6027229Y-11152484D01*
X6084372Y-11152484D02*
X6084372Y-10952484D01*
X6084372Y-10952484D02*
X6065325Y-10981055D01*
X6065325Y-10981055D02*
X6046277Y-11000103D01*
X6046277Y-11000103D02*
X6027229Y-11009627D01*
X6312944Y-11019150D02*
X6312944Y-11152484D01*
X6265325Y-10942960D02*
X6217706Y-11085817D01*
X6217706Y-11085817D02*
X6341515Y-11085817D01*
X6408182Y-10971531D02*
X6417706Y-10962008D01*
X6417706Y-10962008D02*
X6436753Y-10952484D01*
X6436753Y-10952484D02*
X6484372Y-10952484D01*
X6484372Y-10952484D02*
X6503420Y-10962008D01*
X6503420Y-10962008D02*
X6512944Y-10971531D01*
X6512944Y-10971531D02*
X6522468Y-10990579D01*
X6522468Y-10990579D02*
X6522468Y-11009627D01*
X6522468Y-11009627D02*
X6512944Y-11038198D01*
X6512944Y-11038198D02*
X6398658Y-11152484D01*
X6398658Y-11152484D02*
X6522468Y-11152484D01*
X6760563Y-11152484D02*
X6760563Y-10952484D01*
X6846277Y-11152484D02*
X6846277Y-11047722D01*
X6846277Y-11047722D02*
X6836753Y-11028674D01*
X6836753Y-11028674D02*
X6817706Y-11019150D01*
X6817706Y-11019150D02*
X6789134Y-11019150D01*
X6789134Y-11019150D02*
X6770087Y-11028674D01*
X6770087Y-11028674D02*
X6760563Y-11038198D01*
X6970087Y-11152484D02*
X6951039Y-11142960D01*
X6951039Y-11142960D02*
X6941515Y-11133436D01*
X6941515Y-11133436D02*
X6931991Y-11114389D01*
X6931991Y-11114389D02*
X6931991Y-11057246D01*
X6931991Y-11057246D02*
X6941515Y-11038198D01*
X6941515Y-11038198D02*
X6951039Y-11028674D01*
X6951039Y-11028674D02*
X6970087Y-11019150D01*
X6970087Y-11019150D02*
X6998658Y-11019150D01*
X6998658Y-11019150D02*
X7017706Y-11028674D01*
X7017706Y-11028674D02*
X7027230Y-11038198D01*
X7027230Y-11038198D02*
X7036753Y-11057246D01*
X7036753Y-11057246D02*
X7036753Y-11114389D01*
X7036753Y-11114389D02*
X7027230Y-11133436D01*
X7027230Y-11133436D02*
X7017706Y-11142960D01*
X7017706Y-11142960D02*
X6998658Y-11152484D01*
X6998658Y-11152484D02*
X6970087Y-11152484D01*
X7151039Y-11152484D02*
X7131991Y-11142960D01*
X7131991Y-11142960D02*
X7122468Y-11123912D01*
X7122468Y-11123912D02*
X7122468Y-10952484D01*
X7303420Y-11142960D02*
X7284372Y-11152484D01*
X7284372Y-11152484D02*
X7246277Y-11152484D01*
X7246277Y-11152484D02*
X7227230Y-11142960D01*
X7227230Y-11142960D02*
X7217706Y-11123912D01*
X7217706Y-11123912D02*
X7217706Y-11047722D01*
X7217706Y-11047722D02*
X7227230Y-11028674D01*
X7227230Y-11028674D02*
X7246277Y-11019150D01*
X7246277Y-11019150D02*
X7284372Y-11019150D01*
X7284372Y-11019150D02*
X7303420Y-11028674D01*
X7303420Y-11028674D02*
X7312944Y-11047722D01*
X7312944Y-11047722D02*
X7312944Y-11066770D01*
X7312944Y-11066770D02*
X7217706Y-11085817D01*
X7389134Y-11142960D02*
X7408182Y-11152484D01*
X7408182Y-11152484D02*
X7446277Y-11152484D01*
X7446277Y-11152484D02*
X7465325Y-11142960D01*
X7465325Y-11142960D02*
X7474849Y-11123912D01*
X7474849Y-11123912D02*
X7474849Y-11114389D01*
X7474849Y-11114389D02*
X7465325Y-11095341D01*
X7465325Y-11095341D02*
X7446277Y-11085817D01*
X7446277Y-11085817D02*
X7417706Y-11085817D01*
X7417706Y-11085817D02*
X7398658Y-11076293D01*
X7398658Y-11076293D02*
X7389134Y-11057246D01*
X7389134Y-11057246D02*
X7389134Y-11047722D01*
X7389134Y-11047722D02*
X7398658Y-11028674D01*
X7398658Y-11028674D02*
X7417706Y-11019150D01*
X7417706Y-11019150D02*
X7446277Y-11019150D01*
X7446277Y-11019150D02*
X7465325Y-11028674D01*
X7541515Y-11228674D02*
X7551039Y-11219150D01*
X7551039Y-11219150D02*
X7570087Y-11190579D01*
X7570087Y-11190579D02*
X7579611Y-11171531D01*
X7579611Y-11171531D02*
X7589134Y-11142960D01*
X7589134Y-11142960D02*
X7598658Y-11095341D01*
X7598658Y-11095341D02*
X7598658Y-11057246D01*
X7598658Y-11057246D02*
X7589134Y-11009627D01*
X7589134Y-11009627D02*
X7579611Y-10981055D01*
X7579611Y-10981055D02*
X7570087Y-10962008D01*
X7570087Y-10962008D02*
X7551039Y-10933436D01*
X7551039Y-10933436D02*
X7541515Y-10923912D01*
D12*
X2385500Y-11325000D02*
G75*
G02*
X2308500Y-11325000I-38500J0D01*
G01*
X2308500Y-11325000D02*
G75*
G02*
X2385500Y-11325000I38500J0D01*
G01*
D11*
X2684372Y-11216484D02*
X2703420Y-11216484D01*
X2703420Y-11216484D02*
X2722467Y-11226008D01*
X2722467Y-11226008D02*
X2731991Y-11235531D01*
X2731991Y-11235531D02*
X2741515Y-11254579D01*
X2741515Y-11254579D02*
X2751039Y-11292674D01*
X2751039Y-11292674D02*
X2751039Y-11340293D01*
X2751039Y-11340293D02*
X2741515Y-11378388D01*
X2741515Y-11378388D02*
X2731991Y-11397436D01*
X2731991Y-11397436D02*
X2722467Y-11406960D01*
X2722467Y-11406960D02*
X2703420Y-11416484D01*
X2703420Y-11416484D02*
X2684372Y-11416484D01*
X2684372Y-11416484D02*
X2665324Y-11406960D01*
X2665324Y-11406960D02*
X2655801Y-11397436D01*
X2655801Y-11397436D02*
X2646277Y-11378388D01*
X2646277Y-11378388D02*
X2636753Y-11340293D01*
X2636753Y-11340293D02*
X2636753Y-11292674D01*
X2636753Y-11292674D02*
X2646277Y-11254579D01*
X2646277Y-11254579D02*
X2655801Y-11235531D01*
X2655801Y-11235531D02*
X2665324Y-11226008D01*
X2665324Y-11226008D02*
X2684372Y-11216484D01*
X2836753Y-11397436D02*
X2846277Y-11406960D01*
X2846277Y-11406960D02*
X2836753Y-11416484D01*
X2836753Y-11416484D02*
X2827229Y-11406960D01*
X2827229Y-11406960D02*
X2836753Y-11397436D01*
X2836753Y-11397436D02*
X2836753Y-11416484D01*
X2912943Y-11216484D02*
X3046277Y-11216484D01*
X3046277Y-11216484D02*
X2960562Y-11416484D01*
X3103420Y-11216484D02*
X3236753Y-11216484D01*
X3236753Y-11216484D02*
X3151039Y-11416484D01*
X3351039Y-11216484D02*
X3370086Y-11216484D01*
X3370086Y-11216484D02*
X3389134Y-11226008D01*
X3389134Y-11226008D02*
X3398658Y-11235531D01*
X3398658Y-11235531D02*
X3408182Y-11254579D01*
X3408182Y-11254579D02*
X3417705Y-11292674D01*
X3417705Y-11292674D02*
X3417705Y-11340293D01*
X3417705Y-11340293D02*
X3408182Y-11378388D01*
X3408182Y-11378388D02*
X3398658Y-11397436D01*
X3398658Y-11397436D02*
X3389134Y-11406960D01*
X3389134Y-11406960D02*
X3370086Y-11416484D01*
X3370086Y-11416484D02*
X3351039Y-11416484D01*
X3351039Y-11416484D02*
X3331991Y-11406960D01*
X3331991Y-11406960D02*
X3322467Y-11397436D01*
X3322467Y-11397436D02*
X3312943Y-11378388D01*
X3312943Y-11378388D02*
X3303420Y-11340293D01*
X3303420Y-11340293D02*
X3303420Y-11292674D01*
X3303420Y-11292674D02*
X3312943Y-11254579D01*
X3312943Y-11254579D02*
X3322467Y-11235531D01*
X3322467Y-11235531D02*
X3331991Y-11226008D01*
X3331991Y-11226008D02*
X3351039Y-11216484D01*
X3503420Y-11416484D02*
X3503420Y-11283150D01*
X3503420Y-11302198D02*
X3512943Y-11292674D01*
X3512943Y-11292674D02*
X3531991Y-11283150D01*
X3531991Y-11283150D02*
X3560563Y-11283150D01*
X3560563Y-11283150D02*
X3579610Y-11292674D01*
X3579610Y-11292674D02*
X3589134Y-11311722D01*
X3589134Y-11311722D02*
X3589134Y-11416484D01*
X3589134Y-11311722D02*
X3598658Y-11292674D01*
X3598658Y-11292674D02*
X3617705Y-11283150D01*
X3617705Y-11283150D02*
X3646277Y-11283150D01*
X3646277Y-11283150D02*
X3665324Y-11292674D01*
X3665324Y-11292674D02*
X3674848Y-11311722D01*
X3674848Y-11311722D02*
X3674848Y-11416484D01*
X3770086Y-11416484D02*
X3770086Y-11283150D01*
X3770086Y-11302198D02*
X3779610Y-11292674D01*
X3779610Y-11292674D02*
X3798658Y-11283150D01*
X3798658Y-11283150D02*
X3827229Y-11283150D01*
X3827229Y-11283150D02*
X3846277Y-11292674D01*
X3846277Y-11292674D02*
X3855801Y-11311722D01*
X3855801Y-11311722D02*
X3855801Y-11416484D01*
X3855801Y-11311722D02*
X3865324Y-11292674D01*
X3865324Y-11292674D02*
X3884372Y-11283150D01*
X3884372Y-11283150D02*
X3912943Y-11283150D01*
X3912943Y-11283150D02*
X3931991Y-11292674D01*
X3931991Y-11292674D02*
X3941515Y-11311722D01*
X3941515Y-11311722D02*
X3941515Y-11416484D01*
X4331991Y-11206960D02*
X4160563Y-11464103D01*
X4589134Y-11216484D02*
X4608182Y-11216484D01*
X4608182Y-11216484D02*
X4627229Y-11226008D01*
X4627229Y-11226008D02*
X4636753Y-11235531D01*
X4636753Y-11235531D02*
X4646277Y-11254579D01*
X4646277Y-11254579D02*
X4655801Y-11292674D01*
X4655801Y-11292674D02*
X4655801Y-11340293D01*
X4655801Y-11340293D02*
X4646277Y-11378388D01*
X4646277Y-11378388D02*
X4636753Y-11397436D01*
X4636753Y-11397436D02*
X4627229Y-11406960D01*
X4627229Y-11406960D02*
X4608182Y-11416484D01*
X4608182Y-11416484D02*
X4589134Y-11416484D01*
X4589134Y-11416484D02*
X4570087Y-11406960D01*
X4570087Y-11406960D02*
X4560563Y-11397436D01*
X4560563Y-11397436D02*
X4551039Y-11378388D01*
X4551039Y-11378388D02*
X4541515Y-11340293D01*
X4541515Y-11340293D02*
X4541515Y-11292674D01*
X4541515Y-11292674D02*
X4551039Y-11254579D01*
X4551039Y-11254579D02*
X4560563Y-11235531D01*
X4560563Y-11235531D02*
X4570087Y-11226008D01*
X4570087Y-11226008D02*
X4589134Y-11216484D01*
X4741515Y-11397436D02*
X4751039Y-11406960D01*
X4751039Y-11406960D02*
X4741515Y-11416484D01*
X4741515Y-11416484D02*
X4731991Y-11406960D01*
X4731991Y-11406960D02*
X4741515Y-11397436D01*
X4741515Y-11397436D02*
X4741515Y-11416484D01*
X4874848Y-11216484D02*
X4893896Y-11216484D01*
X4893896Y-11216484D02*
X4912944Y-11226008D01*
X4912944Y-11226008D02*
X4922468Y-11235531D01*
X4922468Y-11235531D02*
X4931991Y-11254579D01*
X4931991Y-11254579D02*
X4941515Y-11292674D01*
X4941515Y-11292674D02*
X4941515Y-11340293D01*
X4941515Y-11340293D02*
X4931991Y-11378388D01*
X4931991Y-11378388D02*
X4922468Y-11397436D01*
X4922468Y-11397436D02*
X4912944Y-11406960D01*
X4912944Y-11406960D02*
X4893896Y-11416484D01*
X4893896Y-11416484D02*
X4874848Y-11416484D01*
X4874848Y-11416484D02*
X4855801Y-11406960D01*
X4855801Y-11406960D02*
X4846277Y-11397436D01*
X4846277Y-11397436D02*
X4836753Y-11378388D01*
X4836753Y-11378388D02*
X4827229Y-11340293D01*
X4827229Y-11340293D02*
X4827229Y-11292674D01*
X4827229Y-11292674D02*
X4836753Y-11254579D01*
X4836753Y-11254579D02*
X4846277Y-11235531D01*
X4846277Y-11235531D02*
X4855801Y-11226008D01*
X4855801Y-11226008D02*
X4874848Y-11216484D01*
X5008182Y-11216484D02*
X5131991Y-11216484D01*
X5131991Y-11216484D02*
X5065325Y-11292674D01*
X5065325Y-11292674D02*
X5093896Y-11292674D01*
X5093896Y-11292674D02*
X5112944Y-11302198D01*
X5112944Y-11302198D02*
X5122468Y-11311722D01*
X5122468Y-11311722D02*
X5131991Y-11330769D01*
X5131991Y-11330769D02*
X5131991Y-11378388D01*
X5131991Y-11378388D02*
X5122468Y-11397436D01*
X5122468Y-11397436D02*
X5112944Y-11406960D01*
X5112944Y-11406960D02*
X5093896Y-11416484D01*
X5093896Y-11416484D02*
X5036753Y-11416484D01*
X5036753Y-11416484D02*
X5017706Y-11406960D01*
X5017706Y-11406960D02*
X5008182Y-11397436D01*
X5255801Y-11216484D02*
X5274849Y-11216484D01*
X5274849Y-11216484D02*
X5293896Y-11226008D01*
X5293896Y-11226008D02*
X5303420Y-11235531D01*
X5303420Y-11235531D02*
X5312944Y-11254579D01*
X5312944Y-11254579D02*
X5322468Y-11292674D01*
X5322468Y-11292674D02*
X5322468Y-11340293D01*
X5322468Y-11340293D02*
X5312944Y-11378388D01*
X5312944Y-11378388D02*
X5303420Y-11397436D01*
X5303420Y-11397436D02*
X5293896Y-11406960D01*
X5293896Y-11406960D02*
X5274849Y-11416484D01*
X5274849Y-11416484D02*
X5255801Y-11416484D01*
X5255801Y-11416484D02*
X5236753Y-11406960D01*
X5236753Y-11406960D02*
X5227229Y-11397436D01*
X5227229Y-11397436D02*
X5217706Y-11378388D01*
X5217706Y-11378388D02*
X5208182Y-11340293D01*
X5208182Y-11340293D02*
X5208182Y-11292674D01*
X5208182Y-11292674D02*
X5217706Y-11254579D01*
X5217706Y-11254579D02*
X5227229Y-11235531D01*
X5227229Y-11235531D02*
X5236753Y-11226008D01*
X5236753Y-11226008D02*
X5255801Y-11216484D01*
X5389134Y-11216484D02*
X5512944Y-11216484D01*
X5512944Y-11216484D02*
X5446277Y-11292674D01*
X5446277Y-11292674D02*
X5474849Y-11292674D01*
X5474849Y-11292674D02*
X5493896Y-11302198D01*
X5493896Y-11302198D02*
X5503420Y-11311722D01*
X5503420Y-11311722D02*
X5512944Y-11330769D01*
X5512944Y-11330769D02*
X5512944Y-11378388D01*
X5512944Y-11378388D02*
X5503420Y-11397436D01*
X5503420Y-11397436D02*
X5493896Y-11406960D01*
X5493896Y-11406960D02*
X5474849Y-11416484D01*
X5474849Y-11416484D02*
X5417706Y-11416484D01*
X5417706Y-11416484D02*
X5398658Y-11406960D01*
X5398658Y-11406960D02*
X5389134Y-11397436D01*
X5589134Y-11216484D02*
X5589134Y-11254579D01*
X5665325Y-11216484D02*
X5665325Y-11254579D01*
X5960563Y-11492674D02*
X5951039Y-11483150D01*
X5951039Y-11483150D02*
X5931991Y-11454579D01*
X5931991Y-11454579D02*
X5922468Y-11435531D01*
X5922468Y-11435531D02*
X5912944Y-11406960D01*
X5912944Y-11406960D02*
X5903420Y-11359341D01*
X5903420Y-11359341D02*
X5903420Y-11321246D01*
X5903420Y-11321246D02*
X5912944Y-11273627D01*
X5912944Y-11273627D02*
X5922468Y-11245055D01*
X5922468Y-11245055D02*
X5931991Y-11226008D01*
X5931991Y-11226008D02*
X5951039Y-11197436D01*
X5951039Y-11197436D02*
X5960563Y-11187912D01*
X6027229Y-11235531D02*
X6036753Y-11226008D01*
X6036753Y-11226008D02*
X6055801Y-11216484D01*
X6055801Y-11216484D02*
X6103420Y-11216484D01*
X6103420Y-11216484D02*
X6122468Y-11226008D01*
X6122468Y-11226008D02*
X6131991Y-11235531D01*
X6131991Y-11235531D02*
X6141515Y-11254579D01*
X6141515Y-11254579D02*
X6141515Y-11273627D01*
X6141515Y-11273627D02*
X6131991Y-11302198D01*
X6131991Y-11302198D02*
X6017706Y-11416484D01*
X6017706Y-11416484D02*
X6141515Y-11416484D01*
X6255801Y-11302198D02*
X6236753Y-11292674D01*
X6236753Y-11292674D02*
X6227229Y-11283150D01*
X6227229Y-11283150D02*
X6217706Y-11264103D01*
X6217706Y-11264103D02*
X6217706Y-11254579D01*
X6217706Y-11254579D02*
X6227229Y-11235531D01*
X6227229Y-11235531D02*
X6236753Y-11226008D01*
X6236753Y-11226008D02*
X6255801Y-11216484D01*
X6255801Y-11216484D02*
X6293896Y-11216484D01*
X6293896Y-11216484D02*
X6312944Y-11226008D01*
X6312944Y-11226008D02*
X6322468Y-11235531D01*
X6322468Y-11235531D02*
X6331991Y-11254579D01*
X6331991Y-11254579D02*
X6331991Y-11264103D01*
X6331991Y-11264103D02*
X6322468Y-11283150D01*
X6322468Y-11283150D02*
X6312944Y-11292674D01*
X6312944Y-11292674D02*
X6293896Y-11302198D01*
X6293896Y-11302198D02*
X6255801Y-11302198D01*
X6255801Y-11302198D02*
X6236753Y-11311722D01*
X6236753Y-11311722D02*
X6227229Y-11321246D01*
X6227229Y-11321246D02*
X6217706Y-11340293D01*
X6217706Y-11340293D02*
X6217706Y-11378388D01*
X6217706Y-11378388D02*
X6227229Y-11397436D01*
X6227229Y-11397436D02*
X6236753Y-11406960D01*
X6236753Y-11406960D02*
X6255801Y-11416484D01*
X6255801Y-11416484D02*
X6293896Y-11416484D01*
X6293896Y-11416484D02*
X6312944Y-11406960D01*
X6312944Y-11406960D02*
X6322468Y-11397436D01*
X6322468Y-11397436D02*
X6331991Y-11378388D01*
X6331991Y-11378388D02*
X6331991Y-11340293D01*
X6331991Y-11340293D02*
X6322468Y-11321246D01*
X6322468Y-11321246D02*
X6312944Y-11311722D01*
X6312944Y-11311722D02*
X6293896Y-11302198D01*
X6570087Y-11416484D02*
X6570087Y-11216484D01*
X6655801Y-11416484D02*
X6655801Y-11311722D01*
X6655801Y-11311722D02*
X6646277Y-11292674D01*
X6646277Y-11292674D02*
X6627230Y-11283150D01*
X6627230Y-11283150D02*
X6598658Y-11283150D01*
X6598658Y-11283150D02*
X6579610Y-11292674D01*
X6579610Y-11292674D02*
X6570087Y-11302198D01*
X6779610Y-11416484D02*
X6760563Y-11406960D01*
X6760563Y-11406960D02*
X6751039Y-11397436D01*
X6751039Y-11397436D02*
X6741515Y-11378388D01*
X6741515Y-11378388D02*
X6741515Y-11321246D01*
X6741515Y-11321246D02*
X6751039Y-11302198D01*
X6751039Y-11302198D02*
X6760563Y-11292674D01*
X6760563Y-11292674D02*
X6779610Y-11283150D01*
X6779610Y-11283150D02*
X6808182Y-11283150D01*
X6808182Y-11283150D02*
X6827230Y-11292674D01*
X6827230Y-11292674D02*
X6836753Y-11302198D01*
X6836753Y-11302198D02*
X6846277Y-11321246D01*
X6846277Y-11321246D02*
X6846277Y-11378388D01*
X6846277Y-11378388D02*
X6836753Y-11397436D01*
X6836753Y-11397436D02*
X6827230Y-11406960D01*
X6827230Y-11406960D02*
X6808182Y-11416484D01*
X6808182Y-11416484D02*
X6779610Y-11416484D01*
X6960563Y-11416484D02*
X6941515Y-11406960D01*
X6941515Y-11406960D02*
X6931991Y-11387912D01*
X6931991Y-11387912D02*
X6931991Y-11216484D01*
X7112944Y-11406960D02*
X7093896Y-11416484D01*
X7093896Y-11416484D02*
X7055801Y-11416484D01*
X7055801Y-11416484D02*
X7036753Y-11406960D01*
X7036753Y-11406960D02*
X7027230Y-11387912D01*
X7027230Y-11387912D02*
X7027230Y-11311722D01*
X7027230Y-11311722D02*
X7036753Y-11292674D01*
X7036753Y-11292674D02*
X7055801Y-11283150D01*
X7055801Y-11283150D02*
X7093896Y-11283150D01*
X7093896Y-11283150D02*
X7112944Y-11292674D01*
X7112944Y-11292674D02*
X7122468Y-11311722D01*
X7122468Y-11311722D02*
X7122468Y-11330769D01*
X7122468Y-11330769D02*
X7027230Y-11349817D01*
X7198658Y-11406960D02*
X7217706Y-11416484D01*
X7217706Y-11416484D02*
X7255801Y-11416484D01*
X7255801Y-11416484D02*
X7274849Y-11406960D01*
X7274849Y-11406960D02*
X7284372Y-11387912D01*
X7284372Y-11387912D02*
X7284372Y-11378388D01*
X7284372Y-11378388D02*
X7274849Y-11359341D01*
X7274849Y-11359341D02*
X7255801Y-11349817D01*
X7255801Y-11349817D02*
X7227230Y-11349817D01*
X7227230Y-11349817D02*
X7208182Y-11340293D01*
X7208182Y-11340293D02*
X7198658Y-11321246D01*
X7198658Y-11321246D02*
X7198658Y-11311722D01*
X7198658Y-11311722D02*
X7208182Y-11292674D01*
X7208182Y-11292674D02*
X7227230Y-11283150D01*
X7227230Y-11283150D02*
X7255801Y-11283150D01*
X7255801Y-11283150D02*
X7274849Y-11292674D01*
X7351039Y-11492674D02*
X7360563Y-11483150D01*
X7360563Y-11483150D02*
X7379611Y-11454579D01*
X7379611Y-11454579D02*
X7389134Y-11435531D01*
X7389134Y-11435531D02*
X7398658Y-11406960D01*
X7398658Y-11406960D02*
X7408182Y-11359341D01*
X7408182Y-11359341D02*
X7408182Y-11321246D01*
X7408182Y-11321246D02*
X7398658Y-11273627D01*
X7398658Y-11273627D02*
X7389134Y-11245055D01*
X7389134Y-11245055D02*
X7379611Y-11226008D01*
X7379611Y-11226008D02*
X7360563Y-11197436D01*
X7360563Y-11197436D02*
X7351039Y-11187912D01*
D12*
X2345500Y-11549000D02*
X2345500Y-11629000D01*
X2305500Y-11589000D02*
X2385500Y-11589000D01*
D11*
X2684372Y-11480484D02*
X2703420Y-11480484D01*
X2703420Y-11480484D02*
X2722467Y-11490008D01*
X2722467Y-11490008D02*
X2731991Y-11499531D01*
X2731991Y-11499531D02*
X2741515Y-11518579D01*
X2741515Y-11518579D02*
X2751039Y-11556674D01*
X2751039Y-11556674D02*
X2751039Y-11604293D01*
X2751039Y-11604293D02*
X2741515Y-11642388D01*
X2741515Y-11642388D02*
X2731991Y-11661436D01*
X2731991Y-11661436D02*
X2722467Y-11670960D01*
X2722467Y-11670960D02*
X2703420Y-11680484D01*
X2703420Y-11680484D02*
X2684372Y-11680484D01*
X2684372Y-11680484D02*
X2665324Y-11670960D01*
X2665324Y-11670960D02*
X2655801Y-11661436D01*
X2655801Y-11661436D02*
X2646277Y-11642388D01*
X2646277Y-11642388D02*
X2636753Y-11604293D01*
X2636753Y-11604293D02*
X2636753Y-11556674D01*
X2636753Y-11556674D02*
X2646277Y-11518579D01*
X2646277Y-11518579D02*
X2655801Y-11499531D01*
X2655801Y-11499531D02*
X2665324Y-11490008D01*
X2665324Y-11490008D02*
X2684372Y-11480484D01*
X2836753Y-11661436D02*
X2846277Y-11670960D01*
X2846277Y-11670960D02*
X2836753Y-11680484D01*
X2836753Y-11680484D02*
X2827229Y-11670960D01*
X2827229Y-11670960D02*
X2836753Y-11661436D01*
X2836753Y-11661436D02*
X2836753Y-11680484D01*
X2960562Y-11566198D02*
X2941515Y-11556674D01*
X2941515Y-11556674D02*
X2931991Y-11547150D01*
X2931991Y-11547150D02*
X2922467Y-11528103D01*
X2922467Y-11528103D02*
X2922467Y-11518579D01*
X2922467Y-11518579D02*
X2931991Y-11499531D01*
X2931991Y-11499531D02*
X2941515Y-11490008D01*
X2941515Y-11490008D02*
X2960562Y-11480484D01*
X2960562Y-11480484D02*
X2998658Y-11480484D01*
X2998658Y-11480484D02*
X3017705Y-11490008D01*
X3017705Y-11490008D02*
X3027229Y-11499531D01*
X3027229Y-11499531D02*
X3036753Y-11518579D01*
X3036753Y-11518579D02*
X3036753Y-11528103D01*
X3036753Y-11528103D02*
X3027229Y-11547150D01*
X3027229Y-11547150D02*
X3017705Y-11556674D01*
X3017705Y-11556674D02*
X2998658Y-11566198D01*
X2998658Y-11566198D02*
X2960562Y-11566198D01*
X2960562Y-11566198D02*
X2941515Y-11575722D01*
X2941515Y-11575722D02*
X2931991Y-11585246D01*
X2931991Y-11585246D02*
X2922467Y-11604293D01*
X2922467Y-11604293D02*
X2922467Y-11642388D01*
X2922467Y-11642388D02*
X2931991Y-11661436D01*
X2931991Y-11661436D02*
X2941515Y-11670960D01*
X2941515Y-11670960D02*
X2960562Y-11680484D01*
X2960562Y-11680484D02*
X2998658Y-11680484D01*
X2998658Y-11680484D02*
X3017705Y-11670960D01*
X3017705Y-11670960D02*
X3027229Y-11661436D01*
X3027229Y-11661436D02*
X3036753Y-11642388D01*
X3036753Y-11642388D02*
X3036753Y-11604293D01*
X3036753Y-11604293D02*
X3027229Y-11585246D01*
X3027229Y-11585246D02*
X3017705Y-11575722D01*
X3017705Y-11575722D02*
X2998658Y-11566198D01*
X3160562Y-11480484D02*
X3179610Y-11480484D01*
X3179610Y-11480484D02*
X3198658Y-11490008D01*
X3198658Y-11490008D02*
X3208182Y-11499531D01*
X3208182Y-11499531D02*
X3217705Y-11518579D01*
X3217705Y-11518579D02*
X3227229Y-11556674D01*
X3227229Y-11556674D02*
X3227229Y-11604293D01*
X3227229Y-11604293D02*
X3217705Y-11642388D01*
X3217705Y-11642388D02*
X3208182Y-11661436D01*
X3208182Y-11661436D02*
X3198658Y-11670960D01*
X3198658Y-11670960D02*
X3179610Y-11680484D01*
X3179610Y-11680484D02*
X3160562Y-11680484D01*
X3160562Y-11680484D02*
X3141515Y-11670960D01*
X3141515Y-11670960D02*
X3131991Y-11661436D01*
X3131991Y-11661436D02*
X3122467Y-11642388D01*
X3122467Y-11642388D02*
X3112943Y-11604293D01*
X3112943Y-11604293D02*
X3112943Y-11556674D01*
X3112943Y-11556674D02*
X3122467Y-11518579D01*
X3122467Y-11518579D02*
X3131991Y-11499531D01*
X3131991Y-11499531D02*
X3141515Y-11490008D01*
X3141515Y-11490008D02*
X3160562Y-11480484D01*
X3351039Y-11480484D02*
X3370086Y-11480484D01*
X3370086Y-11480484D02*
X3389134Y-11490008D01*
X3389134Y-11490008D02*
X3398658Y-11499531D01*
X3398658Y-11499531D02*
X3408182Y-11518579D01*
X3408182Y-11518579D02*
X3417705Y-11556674D01*
X3417705Y-11556674D02*
X3417705Y-11604293D01*
X3417705Y-11604293D02*
X3408182Y-11642388D01*
X3408182Y-11642388D02*
X3398658Y-11661436D01*
X3398658Y-11661436D02*
X3389134Y-11670960D01*
X3389134Y-11670960D02*
X3370086Y-11680484D01*
X3370086Y-11680484D02*
X3351039Y-11680484D01*
X3351039Y-11680484D02*
X3331991Y-11670960D01*
X3331991Y-11670960D02*
X3322467Y-11661436D01*
X3322467Y-11661436D02*
X3312943Y-11642388D01*
X3312943Y-11642388D02*
X3303420Y-11604293D01*
X3303420Y-11604293D02*
X3303420Y-11556674D01*
X3303420Y-11556674D02*
X3312943Y-11518579D01*
X3312943Y-11518579D02*
X3322467Y-11499531D01*
X3322467Y-11499531D02*
X3331991Y-11490008D01*
X3331991Y-11490008D02*
X3351039Y-11480484D01*
X3503420Y-11680484D02*
X3503420Y-11547150D01*
X3503420Y-11566198D02*
X3512943Y-11556674D01*
X3512943Y-11556674D02*
X3531991Y-11547150D01*
X3531991Y-11547150D02*
X3560563Y-11547150D01*
X3560563Y-11547150D02*
X3579610Y-11556674D01*
X3579610Y-11556674D02*
X3589134Y-11575722D01*
X3589134Y-11575722D02*
X3589134Y-11680484D01*
X3589134Y-11575722D02*
X3598658Y-11556674D01*
X3598658Y-11556674D02*
X3617705Y-11547150D01*
X3617705Y-11547150D02*
X3646277Y-11547150D01*
X3646277Y-11547150D02*
X3665324Y-11556674D01*
X3665324Y-11556674D02*
X3674848Y-11575722D01*
X3674848Y-11575722D02*
X3674848Y-11680484D01*
X3770086Y-11680484D02*
X3770086Y-11547150D01*
X3770086Y-11566198D02*
X3779610Y-11556674D01*
X3779610Y-11556674D02*
X3798658Y-11547150D01*
X3798658Y-11547150D02*
X3827229Y-11547150D01*
X3827229Y-11547150D02*
X3846277Y-11556674D01*
X3846277Y-11556674D02*
X3855801Y-11575722D01*
X3855801Y-11575722D02*
X3855801Y-11680484D01*
X3855801Y-11575722D02*
X3865324Y-11556674D01*
X3865324Y-11556674D02*
X3884372Y-11547150D01*
X3884372Y-11547150D02*
X3912943Y-11547150D01*
X3912943Y-11547150D02*
X3931991Y-11556674D01*
X3931991Y-11556674D02*
X3941515Y-11575722D01*
X3941515Y-11575722D02*
X3941515Y-11680484D01*
X4331991Y-11470960D02*
X4160563Y-11728103D01*
X4589134Y-11480484D02*
X4608182Y-11480484D01*
X4608182Y-11480484D02*
X4627229Y-11490008D01*
X4627229Y-11490008D02*
X4636753Y-11499531D01*
X4636753Y-11499531D02*
X4646277Y-11518579D01*
X4646277Y-11518579D02*
X4655801Y-11556674D01*
X4655801Y-11556674D02*
X4655801Y-11604293D01*
X4655801Y-11604293D02*
X4646277Y-11642388D01*
X4646277Y-11642388D02*
X4636753Y-11661436D01*
X4636753Y-11661436D02*
X4627229Y-11670960D01*
X4627229Y-11670960D02*
X4608182Y-11680484D01*
X4608182Y-11680484D02*
X4589134Y-11680484D01*
X4589134Y-11680484D02*
X4570087Y-11670960D01*
X4570087Y-11670960D02*
X4560563Y-11661436D01*
X4560563Y-11661436D02*
X4551039Y-11642388D01*
X4551039Y-11642388D02*
X4541515Y-11604293D01*
X4541515Y-11604293D02*
X4541515Y-11556674D01*
X4541515Y-11556674D02*
X4551039Y-11518579D01*
X4551039Y-11518579D02*
X4560563Y-11499531D01*
X4560563Y-11499531D02*
X4570087Y-11490008D01*
X4570087Y-11490008D02*
X4589134Y-11480484D01*
X4741515Y-11661436D02*
X4751039Y-11670960D01*
X4751039Y-11670960D02*
X4741515Y-11680484D01*
X4741515Y-11680484D02*
X4731991Y-11670960D01*
X4731991Y-11670960D02*
X4741515Y-11661436D01*
X4741515Y-11661436D02*
X4741515Y-11680484D01*
X4874848Y-11480484D02*
X4893896Y-11480484D01*
X4893896Y-11480484D02*
X4912944Y-11490008D01*
X4912944Y-11490008D02*
X4922468Y-11499531D01*
X4922468Y-11499531D02*
X4931991Y-11518579D01*
X4931991Y-11518579D02*
X4941515Y-11556674D01*
X4941515Y-11556674D02*
X4941515Y-11604293D01*
X4941515Y-11604293D02*
X4931991Y-11642388D01*
X4931991Y-11642388D02*
X4922468Y-11661436D01*
X4922468Y-11661436D02*
X4912944Y-11670960D01*
X4912944Y-11670960D02*
X4893896Y-11680484D01*
X4893896Y-11680484D02*
X4874848Y-11680484D01*
X4874848Y-11680484D02*
X4855801Y-11670960D01*
X4855801Y-11670960D02*
X4846277Y-11661436D01*
X4846277Y-11661436D02*
X4836753Y-11642388D01*
X4836753Y-11642388D02*
X4827229Y-11604293D01*
X4827229Y-11604293D02*
X4827229Y-11556674D01*
X4827229Y-11556674D02*
X4836753Y-11518579D01*
X4836753Y-11518579D02*
X4846277Y-11499531D01*
X4846277Y-11499531D02*
X4855801Y-11490008D01*
X4855801Y-11490008D02*
X4874848Y-11480484D01*
X5008182Y-11480484D02*
X5131991Y-11480484D01*
X5131991Y-11480484D02*
X5065325Y-11556674D01*
X5065325Y-11556674D02*
X5093896Y-11556674D01*
X5093896Y-11556674D02*
X5112944Y-11566198D01*
X5112944Y-11566198D02*
X5122468Y-11575722D01*
X5122468Y-11575722D02*
X5131991Y-11594769D01*
X5131991Y-11594769D02*
X5131991Y-11642388D01*
X5131991Y-11642388D02*
X5122468Y-11661436D01*
X5122468Y-11661436D02*
X5112944Y-11670960D01*
X5112944Y-11670960D02*
X5093896Y-11680484D01*
X5093896Y-11680484D02*
X5036753Y-11680484D01*
X5036753Y-11680484D02*
X5017706Y-11670960D01*
X5017706Y-11670960D02*
X5008182Y-11661436D01*
X5322468Y-11680484D02*
X5208182Y-11680484D01*
X5265325Y-11680484D02*
X5265325Y-11480484D01*
X5265325Y-11480484D02*
X5246277Y-11509055D01*
X5246277Y-11509055D02*
X5227229Y-11528103D01*
X5227229Y-11528103D02*
X5208182Y-11537627D01*
X5503420Y-11480484D02*
X5408182Y-11480484D01*
X5408182Y-11480484D02*
X5398658Y-11575722D01*
X5398658Y-11575722D02*
X5408182Y-11566198D01*
X5408182Y-11566198D02*
X5427229Y-11556674D01*
X5427229Y-11556674D02*
X5474849Y-11556674D01*
X5474849Y-11556674D02*
X5493896Y-11566198D01*
X5493896Y-11566198D02*
X5503420Y-11575722D01*
X5503420Y-11575722D02*
X5512944Y-11594769D01*
X5512944Y-11594769D02*
X5512944Y-11642388D01*
X5512944Y-11642388D02*
X5503420Y-11661436D01*
X5503420Y-11661436D02*
X5493896Y-11670960D01*
X5493896Y-11670960D02*
X5474849Y-11680484D01*
X5474849Y-11680484D02*
X5427229Y-11680484D01*
X5427229Y-11680484D02*
X5408182Y-11670960D01*
X5408182Y-11670960D02*
X5398658Y-11661436D01*
X5589134Y-11480484D02*
X5589134Y-11518579D01*
X5665325Y-11480484D02*
X5665325Y-11518579D01*
X5960563Y-11756674D02*
X5951039Y-11747150D01*
X5951039Y-11747150D02*
X5931991Y-11718579D01*
X5931991Y-11718579D02*
X5922468Y-11699531D01*
X5922468Y-11699531D02*
X5912944Y-11670960D01*
X5912944Y-11670960D02*
X5903420Y-11623341D01*
X5903420Y-11623341D02*
X5903420Y-11585246D01*
X5903420Y-11585246D02*
X5912944Y-11537627D01*
X5912944Y-11537627D02*
X5922468Y-11509055D01*
X5922468Y-11509055D02*
X5931991Y-11490008D01*
X5931991Y-11490008D02*
X5951039Y-11461436D01*
X5951039Y-11461436D02*
X5960563Y-11451912D01*
X6122468Y-11480484D02*
X6084372Y-11480484D01*
X6084372Y-11480484D02*
X6065325Y-11490008D01*
X6065325Y-11490008D02*
X6055801Y-11499531D01*
X6055801Y-11499531D02*
X6036753Y-11528103D01*
X6036753Y-11528103D02*
X6027229Y-11566198D01*
X6027229Y-11566198D02*
X6027229Y-11642388D01*
X6027229Y-11642388D02*
X6036753Y-11661436D01*
X6036753Y-11661436D02*
X6046277Y-11670960D01*
X6046277Y-11670960D02*
X6065325Y-11680484D01*
X6065325Y-11680484D02*
X6103420Y-11680484D01*
X6103420Y-11680484D02*
X6122468Y-11670960D01*
X6122468Y-11670960D02*
X6131991Y-11661436D01*
X6131991Y-11661436D02*
X6141515Y-11642388D01*
X6141515Y-11642388D02*
X6141515Y-11594769D01*
X6141515Y-11594769D02*
X6131991Y-11575722D01*
X6131991Y-11575722D02*
X6122468Y-11566198D01*
X6122468Y-11566198D02*
X6103420Y-11556674D01*
X6103420Y-11556674D02*
X6065325Y-11556674D01*
X6065325Y-11556674D02*
X6046277Y-11566198D01*
X6046277Y-11566198D02*
X6036753Y-11575722D01*
X6036753Y-11575722D02*
X6027229Y-11594769D01*
X6217706Y-11499531D02*
X6227229Y-11490008D01*
X6227229Y-11490008D02*
X6246277Y-11480484D01*
X6246277Y-11480484D02*
X6293896Y-11480484D01*
X6293896Y-11480484D02*
X6312944Y-11490008D01*
X6312944Y-11490008D02*
X6322468Y-11499531D01*
X6322468Y-11499531D02*
X6331991Y-11518579D01*
X6331991Y-11518579D02*
X6331991Y-11537627D01*
X6331991Y-11537627D02*
X6322468Y-11566198D01*
X6322468Y-11566198D02*
X6208182Y-11680484D01*
X6208182Y-11680484D02*
X6331991Y-11680484D01*
X6570087Y-11680484D02*
X6570087Y-11480484D01*
X6655801Y-11680484D02*
X6655801Y-11575722D01*
X6655801Y-11575722D02*
X6646277Y-11556674D01*
X6646277Y-11556674D02*
X6627230Y-11547150D01*
X6627230Y-11547150D02*
X6598658Y-11547150D01*
X6598658Y-11547150D02*
X6579610Y-11556674D01*
X6579610Y-11556674D02*
X6570087Y-11566198D01*
X6779610Y-11680484D02*
X6760563Y-11670960D01*
X6760563Y-11670960D02*
X6751039Y-11661436D01*
X6751039Y-11661436D02*
X6741515Y-11642388D01*
X6741515Y-11642388D02*
X6741515Y-11585246D01*
X6741515Y-11585246D02*
X6751039Y-11566198D01*
X6751039Y-11566198D02*
X6760563Y-11556674D01*
X6760563Y-11556674D02*
X6779610Y-11547150D01*
X6779610Y-11547150D02*
X6808182Y-11547150D01*
X6808182Y-11547150D02*
X6827230Y-11556674D01*
X6827230Y-11556674D02*
X6836753Y-11566198D01*
X6836753Y-11566198D02*
X6846277Y-11585246D01*
X6846277Y-11585246D02*
X6846277Y-11642388D01*
X6846277Y-11642388D02*
X6836753Y-11661436D01*
X6836753Y-11661436D02*
X6827230Y-11670960D01*
X6827230Y-11670960D02*
X6808182Y-11680484D01*
X6808182Y-11680484D02*
X6779610Y-11680484D01*
X6960563Y-11680484D02*
X6941515Y-11670960D01*
X6941515Y-11670960D02*
X6931991Y-11651912D01*
X6931991Y-11651912D02*
X6931991Y-11480484D01*
X7112944Y-11670960D02*
X7093896Y-11680484D01*
X7093896Y-11680484D02*
X7055801Y-11680484D01*
X7055801Y-11680484D02*
X7036753Y-11670960D01*
X7036753Y-11670960D02*
X7027230Y-11651912D01*
X7027230Y-11651912D02*
X7027230Y-11575722D01*
X7027230Y-11575722D02*
X7036753Y-11556674D01*
X7036753Y-11556674D02*
X7055801Y-11547150D01*
X7055801Y-11547150D02*
X7093896Y-11547150D01*
X7093896Y-11547150D02*
X7112944Y-11556674D01*
X7112944Y-11556674D02*
X7122468Y-11575722D01*
X7122468Y-11575722D02*
X7122468Y-11594769D01*
X7122468Y-11594769D02*
X7027230Y-11613817D01*
X7198658Y-11670960D02*
X7217706Y-11680484D01*
X7217706Y-11680484D02*
X7255801Y-11680484D01*
X7255801Y-11680484D02*
X7274849Y-11670960D01*
X7274849Y-11670960D02*
X7284372Y-11651912D01*
X7284372Y-11651912D02*
X7284372Y-11642388D01*
X7284372Y-11642388D02*
X7274849Y-11623341D01*
X7274849Y-11623341D02*
X7255801Y-11613817D01*
X7255801Y-11613817D02*
X7227230Y-11613817D01*
X7227230Y-11613817D02*
X7208182Y-11604293D01*
X7208182Y-11604293D02*
X7198658Y-11585246D01*
X7198658Y-11585246D02*
X7198658Y-11575722D01*
X7198658Y-11575722D02*
X7208182Y-11556674D01*
X7208182Y-11556674D02*
X7227230Y-11547150D01*
X7227230Y-11547150D02*
X7255801Y-11547150D01*
X7255801Y-11547150D02*
X7274849Y-11556674D01*
X7351039Y-11756674D02*
X7360563Y-11747150D01*
X7360563Y-11747150D02*
X7379611Y-11718579D01*
X7379611Y-11718579D02*
X7389134Y-11699531D01*
X7389134Y-11699531D02*
X7398658Y-11670960D01*
X7398658Y-11670960D02*
X7408182Y-11623341D01*
X7408182Y-11623341D02*
X7408182Y-11585246D01*
X7408182Y-11585246D02*
X7398658Y-11537627D01*
X7398658Y-11537627D02*
X7389134Y-11509055D01*
X7389134Y-11509055D02*
X7379611Y-11490008D01*
X7379611Y-11490008D02*
X7360563Y-11461436D01*
X7360563Y-11461436D02*
X7351039Y-11451912D01*
D13*
X2370563Y-11889063D02*
X2370563Y-11816937D01*
X2298437Y-11816937D01*
X2298437Y-11889063D01*
X2370563Y-11889063D01*
D11*
X2751039Y-11944484D02*
X2636753Y-11944484D01*
X2693896Y-11944484D02*
X2693896Y-11744484D01*
X2693896Y-11744484D02*
X2674848Y-11773055D01*
X2674848Y-11773055D02*
X2655801Y-11792103D01*
X2655801Y-11792103D02*
X2636753Y-11801627D01*
X2836753Y-11925436D02*
X2846277Y-11934960D01*
X2846277Y-11934960D02*
X2836753Y-11944484D01*
X2836753Y-11944484D02*
X2827229Y-11934960D01*
X2827229Y-11934960D02*
X2836753Y-11925436D01*
X2836753Y-11925436D02*
X2836753Y-11944484D01*
X2970086Y-11744484D02*
X2989134Y-11744484D01*
X2989134Y-11744484D02*
X3008182Y-11754008D01*
X3008182Y-11754008D02*
X3017705Y-11763531D01*
X3017705Y-11763531D02*
X3027229Y-11782579D01*
X3027229Y-11782579D02*
X3036753Y-11820674D01*
X3036753Y-11820674D02*
X3036753Y-11868293D01*
X3036753Y-11868293D02*
X3027229Y-11906388D01*
X3027229Y-11906388D02*
X3017705Y-11925436D01*
X3017705Y-11925436D02*
X3008182Y-11934960D01*
X3008182Y-11934960D02*
X2989134Y-11944484D01*
X2989134Y-11944484D02*
X2970086Y-11944484D01*
X2970086Y-11944484D02*
X2951039Y-11934960D01*
X2951039Y-11934960D02*
X2941515Y-11925436D01*
X2941515Y-11925436D02*
X2931991Y-11906388D01*
X2931991Y-11906388D02*
X2922467Y-11868293D01*
X2922467Y-11868293D02*
X2922467Y-11820674D01*
X2922467Y-11820674D02*
X2931991Y-11782579D01*
X2931991Y-11782579D02*
X2941515Y-11763531D01*
X2941515Y-11763531D02*
X2951039Y-11754008D01*
X2951039Y-11754008D02*
X2970086Y-11744484D01*
X3112943Y-11763531D02*
X3122467Y-11754008D01*
X3122467Y-11754008D02*
X3141515Y-11744484D01*
X3141515Y-11744484D02*
X3189134Y-11744484D01*
X3189134Y-11744484D02*
X3208182Y-11754008D01*
X3208182Y-11754008D02*
X3217705Y-11763531D01*
X3217705Y-11763531D02*
X3227229Y-11782579D01*
X3227229Y-11782579D02*
X3227229Y-11801627D01*
X3227229Y-11801627D02*
X3217705Y-11830198D01*
X3217705Y-11830198D02*
X3103420Y-11944484D01*
X3103420Y-11944484D02*
X3227229Y-11944484D01*
X3351039Y-11744484D02*
X3370086Y-11744484D01*
X3370086Y-11744484D02*
X3389134Y-11754008D01*
X3389134Y-11754008D02*
X3398658Y-11763531D01*
X3398658Y-11763531D02*
X3408182Y-11782579D01*
X3408182Y-11782579D02*
X3417705Y-11820674D01*
X3417705Y-11820674D02*
X3417705Y-11868293D01*
X3417705Y-11868293D02*
X3408182Y-11906388D01*
X3408182Y-11906388D02*
X3398658Y-11925436D01*
X3398658Y-11925436D02*
X3389134Y-11934960D01*
X3389134Y-11934960D02*
X3370086Y-11944484D01*
X3370086Y-11944484D02*
X3351039Y-11944484D01*
X3351039Y-11944484D02*
X3331991Y-11934960D01*
X3331991Y-11934960D02*
X3322467Y-11925436D01*
X3322467Y-11925436D02*
X3312943Y-11906388D01*
X3312943Y-11906388D02*
X3303420Y-11868293D01*
X3303420Y-11868293D02*
X3303420Y-11820674D01*
X3303420Y-11820674D02*
X3312943Y-11782579D01*
X3312943Y-11782579D02*
X3322467Y-11763531D01*
X3322467Y-11763531D02*
X3331991Y-11754008D01*
X3331991Y-11754008D02*
X3351039Y-11744484D01*
X3503420Y-11944484D02*
X3503420Y-11811150D01*
X3503420Y-11830198D02*
X3512943Y-11820674D01*
X3512943Y-11820674D02*
X3531991Y-11811150D01*
X3531991Y-11811150D02*
X3560563Y-11811150D01*
X3560563Y-11811150D02*
X3579610Y-11820674D01*
X3579610Y-11820674D02*
X3589134Y-11839722D01*
X3589134Y-11839722D02*
X3589134Y-11944484D01*
X3589134Y-11839722D02*
X3598658Y-11820674D01*
X3598658Y-11820674D02*
X3617705Y-11811150D01*
X3617705Y-11811150D02*
X3646277Y-11811150D01*
X3646277Y-11811150D02*
X3665324Y-11820674D01*
X3665324Y-11820674D02*
X3674848Y-11839722D01*
X3674848Y-11839722D02*
X3674848Y-11944484D01*
X3770086Y-11944484D02*
X3770086Y-11811150D01*
X3770086Y-11830198D02*
X3779610Y-11820674D01*
X3779610Y-11820674D02*
X3798658Y-11811150D01*
X3798658Y-11811150D02*
X3827229Y-11811150D01*
X3827229Y-11811150D02*
X3846277Y-11820674D01*
X3846277Y-11820674D02*
X3855801Y-11839722D01*
X3855801Y-11839722D02*
X3855801Y-11944484D01*
X3855801Y-11839722D02*
X3865324Y-11820674D01*
X3865324Y-11820674D02*
X3884372Y-11811150D01*
X3884372Y-11811150D02*
X3912943Y-11811150D01*
X3912943Y-11811150D02*
X3931991Y-11820674D01*
X3931991Y-11820674D02*
X3941515Y-11839722D01*
X3941515Y-11839722D02*
X3941515Y-11944484D01*
X4331991Y-11734960D02*
X4160563Y-11992103D01*
X4589134Y-11744484D02*
X4608182Y-11744484D01*
X4608182Y-11744484D02*
X4627229Y-11754008D01*
X4627229Y-11754008D02*
X4636753Y-11763531D01*
X4636753Y-11763531D02*
X4646277Y-11782579D01*
X4646277Y-11782579D02*
X4655801Y-11820674D01*
X4655801Y-11820674D02*
X4655801Y-11868293D01*
X4655801Y-11868293D02*
X4646277Y-11906388D01*
X4646277Y-11906388D02*
X4636753Y-11925436D01*
X4636753Y-11925436D02*
X4627229Y-11934960D01*
X4627229Y-11934960D02*
X4608182Y-11944484D01*
X4608182Y-11944484D02*
X4589134Y-11944484D01*
X4589134Y-11944484D02*
X4570087Y-11934960D01*
X4570087Y-11934960D02*
X4560563Y-11925436D01*
X4560563Y-11925436D02*
X4551039Y-11906388D01*
X4551039Y-11906388D02*
X4541515Y-11868293D01*
X4541515Y-11868293D02*
X4541515Y-11820674D01*
X4541515Y-11820674D02*
X4551039Y-11782579D01*
X4551039Y-11782579D02*
X4560563Y-11763531D01*
X4560563Y-11763531D02*
X4570087Y-11754008D01*
X4570087Y-11754008D02*
X4589134Y-11744484D01*
X4741515Y-11925436D02*
X4751039Y-11934960D01*
X4751039Y-11934960D02*
X4741515Y-11944484D01*
X4741515Y-11944484D02*
X4731991Y-11934960D01*
X4731991Y-11934960D02*
X4741515Y-11925436D01*
X4741515Y-11925436D02*
X4741515Y-11944484D01*
X4874848Y-11744484D02*
X4893896Y-11744484D01*
X4893896Y-11744484D02*
X4912944Y-11754008D01*
X4912944Y-11754008D02*
X4922468Y-11763531D01*
X4922468Y-11763531D02*
X4931991Y-11782579D01*
X4931991Y-11782579D02*
X4941515Y-11820674D01*
X4941515Y-11820674D02*
X4941515Y-11868293D01*
X4941515Y-11868293D02*
X4931991Y-11906388D01*
X4931991Y-11906388D02*
X4922468Y-11925436D01*
X4922468Y-11925436D02*
X4912944Y-11934960D01*
X4912944Y-11934960D02*
X4893896Y-11944484D01*
X4893896Y-11944484D02*
X4874848Y-11944484D01*
X4874848Y-11944484D02*
X4855801Y-11934960D01*
X4855801Y-11934960D02*
X4846277Y-11925436D01*
X4846277Y-11925436D02*
X4836753Y-11906388D01*
X4836753Y-11906388D02*
X4827229Y-11868293D01*
X4827229Y-11868293D02*
X4827229Y-11820674D01*
X4827229Y-11820674D02*
X4836753Y-11782579D01*
X4836753Y-11782579D02*
X4846277Y-11763531D01*
X4846277Y-11763531D02*
X4855801Y-11754008D01*
X4855801Y-11754008D02*
X4874848Y-11744484D01*
X5112944Y-11811150D02*
X5112944Y-11944484D01*
X5065325Y-11734960D02*
X5017706Y-11877817D01*
X5017706Y-11877817D02*
X5141515Y-11877817D01*
X5255801Y-11744484D02*
X5274849Y-11744484D01*
X5274849Y-11744484D02*
X5293896Y-11754008D01*
X5293896Y-11754008D02*
X5303420Y-11763531D01*
X5303420Y-11763531D02*
X5312944Y-11782579D01*
X5312944Y-11782579D02*
X5322468Y-11820674D01*
X5322468Y-11820674D02*
X5322468Y-11868293D01*
X5322468Y-11868293D02*
X5312944Y-11906388D01*
X5312944Y-11906388D02*
X5303420Y-11925436D01*
X5303420Y-11925436D02*
X5293896Y-11934960D01*
X5293896Y-11934960D02*
X5274849Y-11944484D01*
X5274849Y-11944484D02*
X5255801Y-11944484D01*
X5255801Y-11944484D02*
X5236753Y-11934960D01*
X5236753Y-11934960D02*
X5227229Y-11925436D01*
X5227229Y-11925436D02*
X5217706Y-11906388D01*
X5217706Y-11906388D02*
X5208182Y-11868293D01*
X5208182Y-11868293D02*
X5208182Y-11820674D01*
X5208182Y-11820674D02*
X5217706Y-11782579D01*
X5217706Y-11782579D02*
X5227229Y-11763531D01*
X5227229Y-11763531D02*
X5236753Y-11754008D01*
X5236753Y-11754008D02*
X5255801Y-11744484D01*
X5398658Y-11763531D02*
X5408182Y-11754008D01*
X5408182Y-11754008D02*
X5427229Y-11744484D01*
X5427229Y-11744484D02*
X5474849Y-11744484D01*
X5474849Y-11744484D02*
X5493896Y-11754008D01*
X5493896Y-11754008D02*
X5503420Y-11763531D01*
X5503420Y-11763531D02*
X5512944Y-11782579D01*
X5512944Y-11782579D02*
X5512944Y-11801627D01*
X5512944Y-11801627D02*
X5503420Y-11830198D01*
X5503420Y-11830198D02*
X5389134Y-11944484D01*
X5389134Y-11944484D02*
X5512944Y-11944484D01*
X5589134Y-11744484D02*
X5589134Y-11782579D01*
X5665325Y-11744484D02*
X5665325Y-11782579D01*
X5960563Y-12020674D02*
X5951039Y-12011150D01*
X5951039Y-12011150D02*
X5931991Y-11982579D01*
X5931991Y-11982579D02*
X5922468Y-11963531D01*
X5922468Y-11963531D02*
X5912944Y-11934960D01*
X5912944Y-11934960D02*
X5903420Y-11887341D01*
X5903420Y-11887341D02*
X5903420Y-11849246D01*
X5903420Y-11849246D02*
X5912944Y-11801627D01*
X5912944Y-11801627D02*
X5922468Y-11773055D01*
X5922468Y-11773055D02*
X5931991Y-11754008D01*
X5931991Y-11754008D02*
X5951039Y-11725436D01*
X5951039Y-11725436D02*
X5960563Y-11715912D01*
X6122468Y-11811150D02*
X6122468Y-11944484D01*
X6074848Y-11734960D02*
X6027229Y-11877817D01*
X6027229Y-11877817D02*
X6151039Y-11877817D01*
X6265325Y-11744484D02*
X6284372Y-11744484D01*
X6284372Y-11744484D02*
X6303420Y-11754008D01*
X6303420Y-11754008D02*
X6312944Y-11763531D01*
X6312944Y-11763531D02*
X6322468Y-11782579D01*
X6322468Y-11782579D02*
X6331991Y-11820674D01*
X6331991Y-11820674D02*
X6331991Y-11868293D01*
X6331991Y-11868293D02*
X6322468Y-11906388D01*
X6322468Y-11906388D02*
X6312944Y-11925436D01*
X6312944Y-11925436D02*
X6303420Y-11934960D01*
X6303420Y-11934960D02*
X6284372Y-11944484D01*
X6284372Y-11944484D02*
X6265325Y-11944484D01*
X6265325Y-11944484D02*
X6246277Y-11934960D01*
X6246277Y-11934960D02*
X6236753Y-11925436D01*
X6236753Y-11925436D02*
X6227229Y-11906388D01*
X6227229Y-11906388D02*
X6217706Y-11868293D01*
X6217706Y-11868293D02*
X6217706Y-11820674D01*
X6217706Y-11820674D02*
X6227229Y-11782579D01*
X6227229Y-11782579D02*
X6236753Y-11763531D01*
X6236753Y-11763531D02*
X6246277Y-11754008D01*
X6246277Y-11754008D02*
X6265325Y-11744484D01*
X6570087Y-11944484D02*
X6570087Y-11744484D01*
X6655801Y-11944484D02*
X6655801Y-11839722D01*
X6655801Y-11839722D02*
X6646277Y-11820674D01*
X6646277Y-11820674D02*
X6627230Y-11811150D01*
X6627230Y-11811150D02*
X6598658Y-11811150D01*
X6598658Y-11811150D02*
X6579610Y-11820674D01*
X6579610Y-11820674D02*
X6570087Y-11830198D01*
X6779610Y-11944484D02*
X6760563Y-11934960D01*
X6760563Y-11934960D02*
X6751039Y-11925436D01*
X6751039Y-11925436D02*
X6741515Y-11906388D01*
X6741515Y-11906388D02*
X6741515Y-11849246D01*
X6741515Y-11849246D02*
X6751039Y-11830198D01*
X6751039Y-11830198D02*
X6760563Y-11820674D01*
X6760563Y-11820674D02*
X6779610Y-11811150D01*
X6779610Y-11811150D02*
X6808182Y-11811150D01*
X6808182Y-11811150D02*
X6827230Y-11820674D01*
X6827230Y-11820674D02*
X6836753Y-11830198D01*
X6836753Y-11830198D02*
X6846277Y-11849246D01*
X6846277Y-11849246D02*
X6846277Y-11906388D01*
X6846277Y-11906388D02*
X6836753Y-11925436D01*
X6836753Y-11925436D02*
X6827230Y-11934960D01*
X6827230Y-11934960D02*
X6808182Y-11944484D01*
X6808182Y-11944484D02*
X6779610Y-11944484D01*
X6960563Y-11944484D02*
X6941515Y-11934960D01*
X6941515Y-11934960D02*
X6931991Y-11915912D01*
X6931991Y-11915912D02*
X6931991Y-11744484D01*
X7112944Y-11934960D02*
X7093896Y-11944484D01*
X7093896Y-11944484D02*
X7055801Y-11944484D01*
X7055801Y-11944484D02*
X7036753Y-11934960D01*
X7036753Y-11934960D02*
X7027230Y-11915912D01*
X7027230Y-11915912D02*
X7027230Y-11839722D01*
X7027230Y-11839722D02*
X7036753Y-11820674D01*
X7036753Y-11820674D02*
X7055801Y-11811150D01*
X7055801Y-11811150D02*
X7093896Y-11811150D01*
X7093896Y-11811150D02*
X7112944Y-11820674D01*
X7112944Y-11820674D02*
X7122468Y-11839722D01*
X7122468Y-11839722D02*
X7122468Y-11858769D01*
X7122468Y-11858769D02*
X7027230Y-11877817D01*
X7198658Y-11934960D02*
X7217706Y-11944484D01*
X7217706Y-11944484D02*
X7255801Y-11944484D01*
X7255801Y-11944484D02*
X7274849Y-11934960D01*
X7274849Y-11934960D02*
X7284372Y-11915912D01*
X7284372Y-11915912D02*
X7284372Y-11906388D01*
X7284372Y-11906388D02*
X7274849Y-11887341D01*
X7274849Y-11887341D02*
X7255801Y-11877817D01*
X7255801Y-11877817D02*
X7227230Y-11877817D01*
X7227230Y-11877817D02*
X7208182Y-11868293D01*
X7208182Y-11868293D02*
X7198658Y-11849246D01*
X7198658Y-11849246D02*
X7198658Y-11839722D01*
X7198658Y-11839722D02*
X7208182Y-11820674D01*
X7208182Y-11820674D02*
X7227230Y-11811150D01*
X7227230Y-11811150D02*
X7255801Y-11811150D01*
X7255801Y-11811150D02*
X7274849Y-11820674D01*
X7351039Y-12020674D02*
X7360563Y-12011150D01*
X7360563Y-12011150D02*
X7379611Y-11982579D01*
X7379611Y-11982579D02*
X7389134Y-11963531D01*
X7389134Y-11963531D02*
X7398658Y-11934960D01*
X7398658Y-11934960D02*
X7408182Y-11887341D01*
X7408182Y-11887341D02*
X7408182Y-11849246D01*
X7408182Y-11849246D02*
X7398658Y-11801627D01*
X7398658Y-11801627D02*
X7389134Y-11773055D01*
X7389134Y-11773055D02*
X7379611Y-11754008D01*
X7379611Y-11754008D02*
X7360563Y-11725436D01*
X7360563Y-11725436D02*
X7351039Y-11715912D01*
D14*
X2330500Y-12172000D02*
X2385500Y-12117000D01*
X2330500Y-12062000D01*
X2275500Y-12117000D01*
X2330500Y-12172000D01*
D11*
X2751039Y-12208484D02*
X2636753Y-12208484D01*
X2693896Y-12208484D02*
X2693896Y-12008484D01*
X2693896Y-12008484D02*
X2674848Y-12037055D01*
X2674848Y-12037055D02*
X2655801Y-12056103D01*
X2655801Y-12056103D02*
X2636753Y-12065627D01*
X2836753Y-12189436D02*
X2846277Y-12198960D01*
X2846277Y-12198960D02*
X2836753Y-12208484D01*
X2836753Y-12208484D02*
X2827229Y-12198960D01*
X2827229Y-12198960D02*
X2836753Y-12189436D01*
X2836753Y-12189436D02*
X2836753Y-12208484D01*
X3036753Y-12208484D02*
X2922467Y-12208484D01*
X2979610Y-12208484D02*
X2979610Y-12008484D01*
X2979610Y-12008484D02*
X2960562Y-12037055D01*
X2960562Y-12037055D02*
X2941515Y-12056103D01*
X2941515Y-12056103D02*
X2922467Y-12065627D01*
X3160562Y-12008484D02*
X3179610Y-12008484D01*
X3179610Y-12008484D02*
X3198658Y-12018008D01*
X3198658Y-12018008D02*
X3208182Y-12027531D01*
X3208182Y-12027531D02*
X3217705Y-12046579D01*
X3217705Y-12046579D02*
X3227229Y-12084674D01*
X3227229Y-12084674D02*
X3227229Y-12132293D01*
X3227229Y-12132293D02*
X3217705Y-12170388D01*
X3217705Y-12170388D02*
X3208182Y-12189436D01*
X3208182Y-12189436D02*
X3198658Y-12198960D01*
X3198658Y-12198960D02*
X3179610Y-12208484D01*
X3179610Y-12208484D02*
X3160562Y-12208484D01*
X3160562Y-12208484D02*
X3141515Y-12198960D01*
X3141515Y-12198960D02*
X3131991Y-12189436D01*
X3131991Y-12189436D02*
X3122467Y-12170388D01*
X3122467Y-12170388D02*
X3112943Y-12132293D01*
X3112943Y-12132293D02*
X3112943Y-12084674D01*
X3112943Y-12084674D02*
X3122467Y-12046579D01*
X3122467Y-12046579D02*
X3131991Y-12027531D01*
X3131991Y-12027531D02*
X3141515Y-12018008D01*
X3141515Y-12018008D02*
X3160562Y-12008484D01*
X3351039Y-12008484D02*
X3370086Y-12008484D01*
X3370086Y-12008484D02*
X3389134Y-12018008D01*
X3389134Y-12018008D02*
X3398658Y-12027531D01*
X3398658Y-12027531D02*
X3408182Y-12046579D01*
X3408182Y-12046579D02*
X3417705Y-12084674D01*
X3417705Y-12084674D02*
X3417705Y-12132293D01*
X3417705Y-12132293D02*
X3408182Y-12170388D01*
X3408182Y-12170388D02*
X3398658Y-12189436D01*
X3398658Y-12189436D02*
X3389134Y-12198960D01*
X3389134Y-12198960D02*
X3370086Y-12208484D01*
X3370086Y-12208484D02*
X3351039Y-12208484D01*
X3351039Y-12208484D02*
X3331991Y-12198960D01*
X3331991Y-12198960D02*
X3322467Y-12189436D01*
X3322467Y-12189436D02*
X3312943Y-12170388D01*
X3312943Y-12170388D02*
X3303420Y-12132293D01*
X3303420Y-12132293D02*
X3303420Y-12084674D01*
X3303420Y-12084674D02*
X3312943Y-12046579D01*
X3312943Y-12046579D02*
X3322467Y-12027531D01*
X3322467Y-12027531D02*
X3331991Y-12018008D01*
X3331991Y-12018008D02*
X3351039Y-12008484D01*
X3503420Y-12208484D02*
X3503420Y-12075150D01*
X3503420Y-12094198D02*
X3512943Y-12084674D01*
X3512943Y-12084674D02*
X3531991Y-12075150D01*
X3531991Y-12075150D02*
X3560563Y-12075150D01*
X3560563Y-12075150D02*
X3579610Y-12084674D01*
X3579610Y-12084674D02*
X3589134Y-12103722D01*
X3589134Y-12103722D02*
X3589134Y-12208484D01*
X3589134Y-12103722D02*
X3598658Y-12084674D01*
X3598658Y-12084674D02*
X3617705Y-12075150D01*
X3617705Y-12075150D02*
X3646277Y-12075150D01*
X3646277Y-12075150D02*
X3665324Y-12084674D01*
X3665324Y-12084674D02*
X3674848Y-12103722D01*
X3674848Y-12103722D02*
X3674848Y-12208484D01*
X3770086Y-12208484D02*
X3770086Y-12075150D01*
X3770086Y-12094198D02*
X3779610Y-12084674D01*
X3779610Y-12084674D02*
X3798658Y-12075150D01*
X3798658Y-12075150D02*
X3827229Y-12075150D01*
X3827229Y-12075150D02*
X3846277Y-12084674D01*
X3846277Y-12084674D02*
X3855801Y-12103722D01*
X3855801Y-12103722D02*
X3855801Y-12208484D01*
X3855801Y-12103722D02*
X3865324Y-12084674D01*
X3865324Y-12084674D02*
X3884372Y-12075150D01*
X3884372Y-12075150D02*
X3912943Y-12075150D01*
X3912943Y-12075150D02*
X3931991Y-12084674D01*
X3931991Y-12084674D02*
X3941515Y-12103722D01*
X3941515Y-12103722D02*
X3941515Y-12208484D01*
X4331991Y-11998960D02*
X4160563Y-12256103D01*
X4589134Y-12008484D02*
X4608182Y-12008484D01*
X4608182Y-12008484D02*
X4627229Y-12018008D01*
X4627229Y-12018008D02*
X4636753Y-12027531D01*
X4636753Y-12027531D02*
X4646277Y-12046579D01*
X4646277Y-12046579D02*
X4655801Y-12084674D01*
X4655801Y-12084674D02*
X4655801Y-12132293D01*
X4655801Y-12132293D02*
X4646277Y-12170388D01*
X4646277Y-12170388D02*
X4636753Y-12189436D01*
X4636753Y-12189436D02*
X4627229Y-12198960D01*
X4627229Y-12198960D02*
X4608182Y-12208484D01*
X4608182Y-12208484D02*
X4589134Y-12208484D01*
X4589134Y-12208484D02*
X4570087Y-12198960D01*
X4570087Y-12198960D02*
X4560563Y-12189436D01*
X4560563Y-12189436D02*
X4551039Y-12170388D01*
X4551039Y-12170388D02*
X4541515Y-12132293D01*
X4541515Y-12132293D02*
X4541515Y-12084674D01*
X4541515Y-12084674D02*
X4551039Y-12046579D01*
X4551039Y-12046579D02*
X4560563Y-12027531D01*
X4560563Y-12027531D02*
X4570087Y-12018008D01*
X4570087Y-12018008D02*
X4589134Y-12008484D01*
X4741515Y-12189436D02*
X4751039Y-12198960D01*
X4751039Y-12198960D02*
X4741515Y-12208484D01*
X4741515Y-12208484D02*
X4731991Y-12198960D01*
X4731991Y-12198960D02*
X4741515Y-12189436D01*
X4741515Y-12189436D02*
X4741515Y-12208484D01*
X4874848Y-12008484D02*
X4893896Y-12008484D01*
X4893896Y-12008484D02*
X4912944Y-12018008D01*
X4912944Y-12018008D02*
X4922468Y-12027531D01*
X4922468Y-12027531D02*
X4931991Y-12046579D01*
X4931991Y-12046579D02*
X4941515Y-12084674D01*
X4941515Y-12084674D02*
X4941515Y-12132293D01*
X4941515Y-12132293D02*
X4931991Y-12170388D01*
X4931991Y-12170388D02*
X4922468Y-12189436D01*
X4922468Y-12189436D02*
X4912944Y-12198960D01*
X4912944Y-12198960D02*
X4893896Y-12208484D01*
X4893896Y-12208484D02*
X4874848Y-12208484D01*
X4874848Y-12208484D02*
X4855801Y-12198960D01*
X4855801Y-12198960D02*
X4846277Y-12189436D01*
X4846277Y-12189436D02*
X4836753Y-12170388D01*
X4836753Y-12170388D02*
X4827229Y-12132293D01*
X4827229Y-12132293D02*
X4827229Y-12084674D01*
X4827229Y-12084674D02*
X4836753Y-12046579D01*
X4836753Y-12046579D02*
X4846277Y-12027531D01*
X4846277Y-12027531D02*
X4855801Y-12018008D01*
X4855801Y-12018008D02*
X4874848Y-12008484D01*
X5112944Y-12075150D02*
X5112944Y-12208484D01*
X5065325Y-11998960D02*
X5017706Y-12141817D01*
X5017706Y-12141817D02*
X5141515Y-12141817D01*
X5198658Y-12008484D02*
X5322468Y-12008484D01*
X5322468Y-12008484D02*
X5255801Y-12084674D01*
X5255801Y-12084674D02*
X5284372Y-12084674D01*
X5284372Y-12084674D02*
X5303420Y-12094198D01*
X5303420Y-12094198D02*
X5312944Y-12103722D01*
X5312944Y-12103722D02*
X5322468Y-12122769D01*
X5322468Y-12122769D02*
X5322468Y-12170388D01*
X5322468Y-12170388D02*
X5312944Y-12189436D01*
X5312944Y-12189436D02*
X5303420Y-12198960D01*
X5303420Y-12198960D02*
X5284372Y-12208484D01*
X5284372Y-12208484D02*
X5227229Y-12208484D01*
X5227229Y-12208484D02*
X5208182Y-12198960D01*
X5208182Y-12198960D02*
X5198658Y-12189436D01*
X5389134Y-12008484D02*
X5512944Y-12008484D01*
X5512944Y-12008484D02*
X5446277Y-12084674D01*
X5446277Y-12084674D02*
X5474849Y-12084674D01*
X5474849Y-12084674D02*
X5493896Y-12094198D01*
X5493896Y-12094198D02*
X5503420Y-12103722D01*
X5503420Y-12103722D02*
X5512944Y-12122769D01*
X5512944Y-12122769D02*
X5512944Y-12170388D01*
X5512944Y-12170388D02*
X5503420Y-12189436D01*
X5503420Y-12189436D02*
X5493896Y-12198960D01*
X5493896Y-12198960D02*
X5474849Y-12208484D01*
X5474849Y-12208484D02*
X5417706Y-12208484D01*
X5417706Y-12208484D02*
X5398658Y-12198960D01*
X5398658Y-12198960D02*
X5389134Y-12189436D01*
X5589134Y-12008484D02*
X5589134Y-12046579D01*
X5665325Y-12008484D02*
X5665325Y-12046579D01*
X5960563Y-12284674D02*
X5951039Y-12275150D01*
X5951039Y-12275150D02*
X5931991Y-12246579D01*
X5931991Y-12246579D02*
X5922468Y-12227531D01*
X5922468Y-12227531D02*
X5912944Y-12198960D01*
X5912944Y-12198960D02*
X5903420Y-12151341D01*
X5903420Y-12151341D02*
X5903420Y-12113246D01*
X5903420Y-12113246D02*
X5912944Y-12065627D01*
X5912944Y-12065627D02*
X5922468Y-12037055D01*
X5922468Y-12037055D02*
X5931991Y-12018008D01*
X5931991Y-12018008D02*
X5951039Y-11989436D01*
X5951039Y-11989436D02*
X5960563Y-11979912D01*
X6131991Y-12008484D02*
X6036753Y-12008484D01*
X6036753Y-12008484D02*
X6027229Y-12103722D01*
X6027229Y-12103722D02*
X6036753Y-12094198D01*
X6036753Y-12094198D02*
X6055801Y-12084674D01*
X6055801Y-12084674D02*
X6103420Y-12084674D01*
X6103420Y-12084674D02*
X6122468Y-12094198D01*
X6122468Y-12094198D02*
X6131991Y-12103722D01*
X6131991Y-12103722D02*
X6141515Y-12122769D01*
X6141515Y-12122769D02*
X6141515Y-12170388D01*
X6141515Y-12170388D02*
X6131991Y-12189436D01*
X6131991Y-12189436D02*
X6122468Y-12198960D01*
X6122468Y-12198960D02*
X6103420Y-12208484D01*
X6103420Y-12208484D02*
X6055801Y-12208484D01*
X6055801Y-12208484D02*
X6036753Y-12198960D01*
X6036753Y-12198960D02*
X6027229Y-12189436D01*
X6236753Y-12208484D02*
X6274848Y-12208484D01*
X6274848Y-12208484D02*
X6293896Y-12198960D01*
X6293896Y-12198960D02*
X6303420Y-12189436D01*
X6303420Y-12189436D02*
X6322468Y-12160865D01*
X6322468Y-12160865D02*
X6331991Y-12122769D01*
X6331991Y-12122769D02*
X6331991Y-12046579D01*
X6331991Y-12046579D02*
X6322468Y-12027531D01*
X6322468Y-12027531D02*
X6312944Y-12018008D01*
X6312944Y-12018008D02*
X6293896Y-12008484D01*
X6293896Y-12008484D02*
X6255801Y-12008484D01*
X6255801Y-12008484D02*
X6236753Y-12018008D01*
X6236753Y-12018008D02*
X6227229Y-12027531D01*
X6227229Y-12027531D02*
X6217706Y-12046579D01*
X6217706Y-12046579D02*
X6217706Y-12094198D01*
X6217706Y-12094198D02*
X6227229Y-12113246D01*
X6227229Y-12113246D02*
X6236753Y-12122769D01*
X6236753Y-12122769D02*
X6255801Y-12132293D01*
X6255801Y-12132293D02*
X6293896Y-12132293D01*
X6293896Y-12132293D02*
X6312944Y-12122769D01*
X6312944Y-12122769D02*
X6322468Y-12113246D01*
X6322468Y-12113246D02*
X6331991Y-12094198D01*
X6570087Y-12208484D02*
X6570087Y-12008484D01*
X6655801Y-12208484D02*
X6655801Y-12103722D01*
X6655801Y-12103722D02*
X6646277Y-12084674D01*
X6646277Y-12084674D02*
X6627230Y-12075150D01*
X6627230Y-12075150D02*
X6598658Y-12075150D01*
X6598658Y-12075150D02*
X6579610Y-12084674D01*
X6579610Y-12084674D02*
X6570087Y-12094198D01*
X6779610Y-12208484D02*
X6760563Y-12198960D01*
X6760563Y-12198960D02*
X6751039Y-12189436D01*
X6751039Y-12189436D02*
X6741515Y-12170388D01*
X6741515Y-12170388D02*
X6741515Y-12113246D01*
X6741515Y-12113246D02*
X6751039Y-12094198D01*
X6751039Y-12094198D02*
X6760563Y-12084674D01*
X6760563Y-12084674D02*
X6779610Y-12075150D01*
X6779610Y-12075150D02*
X6808182Y-12075150D01*
X6808182Y-12075150D02*
X6827230Y-12084674D01*
X6827230Y-12084674D02*
X6836753Y-12094198D01*
X6836753Y-12094198D02*
X6846277Y-12113246D01*
X6846277Y-12113246D02*
X6846277Y-12170388D01*
X6846277Y-12170388D02*
X6836753Y-12189436D01*
X6836753Y-12189436D02*
X6827230Y-12198960D01*
X6827230Y-12198960D02*
X6808182Y-12208484D01*
X6808182Y-12208484D02*
X6779610Y-12208484D01*
X6960563Y-12208484D02*
X6941515Y-12198960D01*
X6941515Y-12198960D02*
X6931991Y-12179912D01*
X6931991Y-12179912D02*
X6931991Y-12008484D01*
X7112944Y-12198960D02*
X7093896Y-12208484D01*
X7093896Y-12208484D02*
X7055801Y-12208484D01*
X7055801Y-12208484D02*
X7036753Y-12198960D01*
X7036753Y-12198960D02*
X7027230Y-12179912D01*
X7027230Y-12179912D02*
X7027230Y-12103722D01*
X7027230Y-12103722D02*
X7036753Y-12084674D01*
X7036753Y-12084674D02*
X7055801Y-12075150D01*
X7055801Y-12075150D02*
X7093896Y-12075150D01*
X7093896Y-12075150D02*
X7112944Y-12084674D01*
X7112944Y-12084674D02*
X7122468Y-12103722D01*
X7122468Y-12103722D02*
X7122468Y-12122769D01*
X7122468Y-12122769D02*
X7027230Y-12141817D01*
X7198658Y-12198960D02*
X7217706Y-12208484D01*
X7217706Y-12208484D02*
X7255801Y-12208484D01*
X7255801Y-12208484D02*
X7274849Y-12198960D01*
X7274849Y-12198960D02*
X7284372Y-12179912D01*
X7284372Y-12179912D02*
X7284372Y-12170388D01*
X7284372Y-12170388D02*
X7274849Y-12151341D01*
X7274849Y-12151341D02*
X7255801Y-12141817D01*
X7255801Y-12141817D02*
X7227230Y-12141817D01*
X7227230Y-12141817D02*
X7208182Y-12132293D01*
X7208182Y-12132293D02*
X7198658Y-12113246D01*
X7198658Y-12113246D02*
X7198658Y-12103722D01*
X7198658Y-12103722D02*
X7208182Y-12084674D01*
X7208182Y-12084674D02*
X7227230Y-12075150D01*
X7227230Y-12075150D02*
X7255801Y-12075150D01*
X7255801Y-12075150D02*
X7274849Y-12084674D01*
X7351039Y-12284674D02*
X7360563Y-12275150D01*
X7360563Y-12275150D02*
X7379611Y-12246579D01*
X7379611Y-12246579D02*
X7389134Y-12227531D01*
X7389134Y-12227531D02*
X7398658Y-12198960D01*
X7398658Y-12198960D02*
X7408182Y-12151341D01*
X7408182Y-12151341D02*
X7408182Y-12113246D01*
X7408182Y-12113246D02*
X7398658Y-12065627D01*
X7398658Y-12065627D02*
X7389134Y-12037055D01*
X7389134Y-12037055D02*
X7379611Y-12018008D01*
X7379611Y-12018008D02*
X7360563Y-11989436D01*
X7360563Y-11989436D02*
X7351039Y-11979912D01*
M02*
