%TF.GenerationSoftware,KiCad,Pcbnew,8.0.3-1.fc40*%
%TF.CreationDate,2024-06-20T20:24:11-04:00*%
%TF.ProjectId,sampler_split_sensor,73616d70-6c65-4725-9f73-706c69745f73,rev?*%
%TF.SameCoordinates,Original*%
%TF.FileFunction,Soldermask,Bot*%
%TF.FilePolarity,Negative*%
%FSLAX46Y46*%
G04 Gerber Fmt 4.6, Leading zero omitted, Abs format (unit mm)*
G04 Created by KiCad (PCBNEW 8.0.3-1.fc40) date 2024-06-20 20:24:11*
%MOMM*%
%LPD*%
G01*
G04 APERTURE LIST*
G04 Aperture macros list*
%AMRoundRect*
0 Rectangle with rounded corners*
0 $1 Rounding radius*
0 $2 $3 $4 $5 $6 $7 $8 $9 X,Y pos of 4 corners*
0 Add a 4 corners polygon primitive as box body*
4,1,4,$2,$3,$4,$5,$6,$7,$8,$9,$2,$3,0*
0 Add four circle primitives for the rounded corners*
1,1,$1+$1,$2,$3*
1,1,$1+$1,$4,$5*
1,1,$1+$1,$6,$7*
1,1,$1+$1,$8,$9*
0 Add four rect primitives between the rounded corners*
20,1,$1+$1,$2,$3,$4,$5,0*
20,1,$1+$1,$4,$5,$6,$7,0*
20,1,$1+$1,$6,$7,$8,$9,0*
20,1,$1+$1,$8,$9,$2,$3,0*%
%AMFreePoly0*
4,1,6,1.000000,0.000000,0.500000,-0.750000,-0.500000,-0.750000,-0.500000,0.750000,0.500000,0.750000,1.000000,0.000000,1.000000,0.000000,$1*%
%AMFreePoly1*
4,1,6,0.500000,-0.750000,-0.650000,-0.750000,-0.150000,0.000000,-0.650000,0.750000,0.500000,0.750000,0.500000,-0.750000,0.500000,-0.750000,$1*%
G04 Aperture macros list end*
%ADD10R,1.500000X1.500000*%
%ADD11C,1.500000*%
%ADD12C,1.374000*%
%ADD13RoundRect,0.102000X0.585000X0.585000X-0.585000X0.585000X-0.585000X-0.585000X0.585000X-0.585000X0*%
%ADD14FreePoly0,270.000000*%
%ADD15FreePoly1,270.000000*%
%ADD16RoundRect,0.102000X-0.685000X-0.685000X0.685000X-0.685000X0.685000X0.685000X-0.685000X0.685000X0*%
%ADD17C,1.574000*%
%ADD18R,1.600000X1.600000*%
%ADD19C,1.600000*%
%ADD20R,1.300000X1.300000*%
%ADD21C,1.300000*%
%ADD22FreePoly1,90.000000*%
%ADD23FreePoly0,90.000000*%
G04 APERTURE END LIST*
D10*
%TO.C,U4*%
X43960000Y-35860000D03*
D11*
X46500000Y-35860000D03*
X49040000Y-35860000D03*
%TD*%
D10*
%TO.C,U14*%
X183960000Y-35860000D03*
D11*
X186500000Y-35860000D03*
X189040000Y-35860000D03*
%TD*%
D10*
%TO.C,U2*%
X15960000Y-35860000D03*
D11*
X18500000Y-35860000D03*
X21040000Y-35860000D03*
%TD*%
D10*
%TO.C,U5*%
X57960000Y-35860000D03*
D11*
X60500000Y-35860000D03*
X63040000Y-35860000D03*
%TD*%
D10*
%TO.C,U3*%
X29960000Y-35860000D03*
D11*
X32500000Y-35860000D03*
X35040000Y-35860000D03*
%TD*%
D10*
%TO.C,U12*%
X155960000Y-35860000D03*
D11*
X158500000Y-35860000D03*
X161040000Y-35860000D03*
%TD*%
D10*
%TO.C,U18*%
X239960000Y-35860000D03*
D11*
X242500000Y-35860000D03*
X245040000Y-35860000D03*
%TD*%
D10*
%TO.C,U17*%
X225960000Y-35860000D03*
D11*
X228500000Y-35860000D03*
X231040000Y-35860000D03*
%TD*%
D10*
%TO.C,U6*%
X71960000Y-35860000D03*
D11*
X74500000Y-35860000D03*
X77040000Y-35860000D03*
%TD*%
D10*
%TO.C,U8*%
X99960000Y-35860000D03*
D11*
X102500000Y-35860000D03*
X105040000Y-35860000D03*
%TD*%
D10*
%TO.C,U11*%
X141960000Y-35860000D03*
D11*
X144500000Y-35860000D03*
X147040000Y-35860000D03*
%TD*%
D10*
%TO.C,U7*%
X85960000Y-35860000D03*
D11*
X88500000Y-35860000D03*
X91040000Y-35860000D03*
%TD*%
D10*
%TO.C,U10*%
X127960000Y-35860000D03*
D11*
X130500000Y-35860000D03*
X133040000Y-35860000D03*
%TD*%
D10*
%TO.C,U19*%
X253960000Y-35860000D03*
D11*
X256500000Y-35860000D03*
X259040000Y-35860000D03*
%TD*%
D10*
%TO.C,U9*%
X113960000Y-35860000D03*
D11*
X116500000Y-35860000D03*
X119040000Y-35860000D03*
%TD*%
D10*
%TO.C,U15*%
X197960000Y-35860000D03*
D11*
X200500000Y-35860000D03*
X203040000Y-35860000D03*
%TD*%
D10*
%TO.C,U13*%
X169960000Y-35860000D03*
D11*
X172500000Y-35860000D03*
X175040000Y-35860000D03*
%TD*%
D10*
%TO.C,U16*%
X211960000Y-35860000D03*
D11*
X214500000Y-35860000D03*
X217040000Y-35860000D03*
%TD*%
D12*
%TO.C,BOARDSEL_ENABLE1*%
X131955686Y-130120000D03*
X131955686Y-127580000D03*
X131955686Y-125040000D03*
X131955686Y-122500000D03*
X131955686Y-119960000D03*
X131955686Y-117420000D03*
X131955686Y-114880000D03*
X139895686Y-114880000D03*
X139895686Y-117420000D03*
X139895686Y-119960000D03*
X139895686Y-122500000D03*
X139895686Y-125040000D03*
X139895686Y-127580000D03*
D13*
X139895686Y-130120000D03*
%TD*%
D14*
%TO.C,JP5*%
X94500000Y-40475001D03*
D15*
X94500000Y-41924999D03*
%TD*%
D14*
%TO.C,JP6*%
X97600000Y-40500000D03*
D15*
X97600000Y-41949998D03*
%TD*%
D16*
%TO.C,J1*%
X22775686Y-81540000D03*
D17*
X22775686Y-79000000D03*
X25315686Y-81540000D03*
X25315686Y-79000000D03*
X27855686Y-81540000D03*
X27855686Y-79000000D03*
X30395686Y-81540000D03*
X30395686Y-79000000D03*
X32935686Y-81540000D03*
X32935686Y-79000000D03*
X35475686Y-81540000D03*
X35475686Y-79000000D03*
X38015686Y-81540000D03*
X38015686Y-79000000D03*
X40555686Y-81540000D03*
X40555686Y-79000000D03*
X43095686Y-81540000D03*
X43095686Y-79000000D03*
X45635686Y-81540000D03*
X45635686Y-79000000D03*
X48175686Y-81540000D03*
X48175686Y-79000000D03*
X50715686Y-81540000D03*
X50715686Y-79000000D03*
X53255686Y-81540000D03*
X53255686Y-79000000D03*
X55795686Y-81540000D03*
X55795686Y-79000000D03*
X58335686Y-81540000D03*
X58335686Y-79000000D03*
X60875686Y-81540000D03*
X60875686Y-79000000D03*
X63415686Y-81540000D03*
X63415686Y-79000000D03*
X65955686Y-81540000D03*
X65955686Y-79000000D03*
X68495686Y-81540000D03*
X68495686Y-79000000D03*
X71035686Y-81540000D03*
X71035686Y-79000000D03*
%TD*%
D18*
%TO.C,U1*%
X19805686Y-123620000D03*
D19*
X22345686Y-123620000D03*
X24885686Y-123620000D03*
X27425686Y-123620000D03*
X29965686Y-123620000D03*
X32505686Y-123620000D03*
X35045686Y-123620000D03*
X37585686Y-123620000D03*
X40125686Y-123620000D03*
X42665686Y-123620000D03*
X45205686Y-123620000D03*
X47745686Y-123620000D03*
X50285686Y-123620000D03*
X52825686Y-123620000D03*
X55365686Y-123620000D03*
X57905686Y-123620000D03*
X60445686Y-123620000D03*
X62985686Y-123620000D03*
X65525686Y-123620000D03*
X68065686Y-123620000D03*
X70605686Y-123620000D03*
X73145686Y-123620000D03*
X75685686Y-123620000D03*
X78225686Y-123620000D03*
X78225686Y-108380000D03*
X75685686Y-108380000D03*
X73145686Y-108380000D03*
X70605686Y-108380000D03*
X68065686Y-108380000D03*
X65525686Y-108380000D03*
X62985686Y-108380000D03*
X60445686Y-108380000D03*
X57905686Y-108380000D03*
X55365686Y-108380000D03*
X52825686Y-108380000D03*
X50285686Y-108380000D03*
X47745686Y-108380000D03*
X45205686Y-108380000D03*
X42665686Y-108380000D03*
X40125686Y-108380000D03*
X37585686Y-108380000D03*
X35045686Y-108380000D03*
X32505686Y-108380000D03*
X29965686Y-108380000D03*
X27425686Y-108380000D03*
X24885686Y-108380000D03*
X22345686Y-108380000D03*
X19805686Y-108380000D03*
X22345686Y-110920000D03*
X65525686Y-121080000D03*
X65525686Y-118540000D03*
X65525686Y-116000000D03*
X65525686Y-113460000D03*
X65525686Y-110920000D03*
D18*
X26104886Y-120569200D03*
D19*
X28644886Y-120569200D03*
X31184886Y-120569200D03*
X33724886Y-120569200D03*
X36264886Y-120569200D03*
D20*
X32775686Y-110818400D03*
D21*
X32775686Y-112818400D03*
X32775686Y-114818400D03*
X34775686Y-114818400D03*
X34775686Y-112818400D03*
X34775686Y-110818400D03*
X20535686Y-114730000D03*
X20535686Y-117270000D03*
%TD*%
D13*
%TO.C,BOARDSEL_CMP1*%
X151955686Y-130160000D03*
D12*
X151955686Y-127620000D03*
X151955686Y-125080000D03*
X151955686Y-122540000D03*
X151955686Y-120000000D03*
X151955686Y-117460000D03*
X151955686Y-114920000D03*
X144015686Y-114920000D03*
X144015686Y-117460000D03*
X144015686Y-120000000D03*
X144015686Y-122540000D03*
X144015686Y-125080000D03*
X144015686Y-127620000D03*
X144015686Y-130160000D03*
%TD*%
D14*
%TO.C,JP26*%
X109100000Y-40475001D03*
D15*
X109100000Y-41924999D03*
%TD*%
D14*
%TO.C,JPE01*%
X23265686Y-86300000D03*
D15*
X23265686Y-87750000D03*
%TD*%
D14*
%TO.C,JPE15*%
X58515686Y-86275000D03*
D15*
X58515686Y-87725000D03*
%TD*%
D14*
%TO.C,JPE13*%
X53515686Y-86275000D03*
D15*
X53515686Y-87725000D03*
%TD*%
D22*
%TO.C,JP20*%
X53515686Y-73525000D03*
D23*
X53515686Y-74975000D03*
%TD*%
D14*
%TO.C,JPE04*%
X30765686Y-86300000D03*
D15*
X30765686Y-87750000D03*
%TD*%
D22*
%TO.C,JP46*%
X63515686Y-73500000D03*
D23*
X63515686Y-74950000D03*
%TD*%
D14*
%TO.C,JPE18*%
X66015686Y-86275000D03*
D15*
X66015686Y-87725000D03*
%TD*%
D22*
%TO.C,JP16*%
X43515686Y-73525000D03*
D23*
X43515686Y-74975000D03*
%TD*%
D22*
%TO.C,JP47*%
X66015686Y-73525000D03*
D23*
X66015686Y-74975000D03*
%TD*%
D22*
%TO.C,JP13*%
X36015686Y-73500000D03*
D23*
X36015686Y-74950000D03*
%TD*%
D14*
%TO.C,JPE06*%
X36015686Y-86300000D03*
D15*
X36015686Y-87750000D03*
%TD*%
D22*
%TO.C,JP15*%
X41015686Y-73525000D03*
D23*
X41015686Y-74975000D03*
%TD*%
D14*
%TO.C,JPE08*%
X41015686Y-86275000D03*
D15*
X41015686Y-87725000D03*
%TD*%
D14*
%TO.C,JPE12*%
X51015686Y-86300000D03*
D15*
X51015686Y-87750000D03*
%TD*%
D22*
%TO.C,JP45*%
X61015686Y-73500000D03*
D23*
X61015686Y-74950000D03*
%TD*%
D22*
%TO.C,JP17*%
X46015686Y-73500000D03*
D23*
X46015686Y-74950000D03*
%TD*%
D14*
%TO.C,JPE14*%
X56015686Y-86300000D03*
D15*
X56015686Y-87750000D03*
%TD*%
D14*
%TO.C,JPE16*%
X61015686Y-86300000D03*
D15*
X61015686Y-87750000D03*
%TD*%
D22*
%TO.C,JP21*%
X56015686Y-73500000D03*
D23*
X56015686Y-74950000D03*
%TD*%
D14*
%TO.C,JPE03*%
X28265686Y-86300000D03*
D15*
X28265686Y-87750000D03*
%TD*%
D14*
%TO.C,JPE02*%
X25765686Y-86300000D03*
D15*
X25765686Y-87750000D03*
%TD*%
D22*
%TO.C,JP19*%
X51015686Y-73500000D03*
D23*
X51015686Y-74950000D03*
%TD*%
D14*
%TO.C,JPE09*%
X43515686Y-86300000D03*
D15*
X43515686Y-87750000D03*
%TD*%
D14*
%TO.C,JPE07*%
X38515686Y-86300000D03*
D15*
X38515686Y-87750000D03*
%TD*%
D22*
%TO.C,JP14*%
X38515686Y-73525000D03*
D23*
X38515686Y-74975000D03*
%TD*%
D22*
%TO.C,JP11*%
X31015686Y-73500000D03*
D23*
X31015686Y-74950000D03*
%TD*%
D14*
%TO.C,JPE05*%
X33515686Y-86300000D03*
D15*
X33515686Y-87750000D03*
%TD*%
D14*
%TO.C,JPE11*%
X48515686Y-86300000D03*
D15*
X48515686Y-87750000D03*
%TD*%
D22*
%TO.C,JP9*%
X26015686Y-73525000D03*
D23*
X26015686Y-74975000D03*
%TD*%
D22*
%TO.C,JP22*%
X58515686Y-73525000D03*
D23*
X58515686Y-74975000D03*
%TD*%
D14*
%TO.C,JPE10*%
X46015686Y-86300000D03*
D15*
X46015686Y-87750000D03*
%TD*%
D22*
%TO.C,JP18*%
X48515686Y-73525000D03*
D23*
X48515686Y-74975000D03*
%TD*%
D22*
%TO.C,JP8*%
X23515686Y-73500000D03*
D23*
X23515686Y-74950000D03*
%TD*%
D22*
%TO.C,JP10*%
X28515686Y-73500000D03*
D23*
X28515686Y-74950000D03*
%TD*%
D22*
%TO.C,JP12*%
X33515686Y-73500000D03*
D23*
X33515686Y-74950000D03*
%TD*%
D14*
%TO.C,JPE17*%
X63515686Y-86300000D03*
D15*
X63515686Y-87750000D03*
%TD*%
D14*
%TO.C,JP7*%
X100699998Y-40525000D03*
D15*
X100699998Y-41974998D03*
%TD*%
D14*
%TO.C,JP25*%
X106300000Y-40425000D03*
D15*
X106300000Y-41874998D03*
%TD*%
D14*
%TO.C,JP24*%
X103500000Y-40425000D03*
D15*
X103500000Y-41874998D03*
%TD*%
M02*
