%TF.GenerationSoftware,KiCad,Pcbnew,8.0.3-1.fc40*%
%TF.CreationDate,2024-06-20T20:23:53-04:00*%
%TF.ProjectId,sampler_split_sensor,73616d70-6c65-4725-9f73-706c69745f73,rev?*%
%TF.SameCoordinates,Original*%
%TF.FileFunction,Copper,L4,Bot*%
%TF.FilePolarity,Positive*%
%FSLAX46Y46*%
G04 Gerber Fmt 4.6, Leading zero omitted, Abs format (unit mm)*
G04 Created by KiCad (PCBNEW 8.0.3-1.fc40) date 2024-06-20 20:23:53*
%MOMM*%
%LPD*%
G01*
G04 APERTURE LIST*
G04 Aperture macros list*
%AMFreePoly0*
4,1,6,1.000000,0.000000,0.500000,-0.750000,-0.500000,-0.750000,-0.500000,0.750000,0.500000,0.750000,1.000000,0.000000,1.000000,0.000000,$1*%
%AMFreePoly1*
4,1,6,0.500000,-0.750000,-0.650000,-0.750000,-0.150000,0.000000,-0.650000,0.750000,0.500000,0.750000,0.500000,-0.750000,0.500000,-0.750000,$1*%
G04 Aperture macros list end*
%TA.AperFunction,ComponentPad*%
%ADD10R,1.500000X1.500000*%
%TD*%
%TA.AperFunction,ComponentPad*%
%ADD11C,1.500000*%
%TD*%
%TA.AperFunction,ComponentPad*%
%ADD12C,1.170000*%
%TD*%
%TA.AperFunction,ComponentPad*%
%ADD13R,1.170000X1.170000*%
%TD*%
%TA.AperFunction,SMDPad,CuDef*%
%ADD14FreePoly0,270.000000*%
%TD*%
%TA.AperFunction,SMDPad,CuDef*%
%ADD15FreePoly1,270.000000*%
%TD*%
%TA.AperFunction,ComponentPad*%
%ADD16R,1.370000X1.370000*%
%TD*%
%TA.AperFunction,ComponentPad*%
%ADD17C,1.370000*%
%TD*%
%TA.AperFunction,ComponentPad*%
%ADD18R,1.600000X1.600000*%
%TD*%
%TA.AperFunction,ComponentPad*%
%ADD19C,1.600000*%
%TD*%
%TA.AperFunction,ComponentPad*%
%ADD20R,1.300000X1.300000*%
%TD*%
%TA.AperFunction,ComponentPad*%
%ADD21C,1.300000*%
%TD*%
%TA.AperFunction,SMDPad,CuDef*%
%ADD22FreePoly1,90.000000*%
%TD*%
%TA.AperFunction,SMDPad,CuDef*%
%ADD23FreePoly0,90.000000*%
%TD*%
%TA.AperFunction,ViaPad*%
%ADD24C,0.600000*%
%TD*%
%TA.AperFunction,Conductor*%
%ADD25C,0.800000*%
%TD*%
%TA.AperFunction,Conductor*%
%ADD26C,0.200000*%
%TD*%
%TA.AperFunction,Conductor*%
%ADD27C,0.600000*%
%TD*%
G04 APERTURE END LIST*
D10*
%TO.P,U4,1,VCC*%
%TO.N,Net-(BOARDSEL_CMP1-VCC)*%
X43960000Y-35860000D03*
D11*
%TO.P,U4,2,GND*%
%TO.N,GND*%
X46500000Y-35860000D03*
%TO.P,U4,3,OUT*%
%TO.N,Net-(J4-Pin_30)*%
X49040000Y-35860000D03*
%TD*%
D10*
%TO.P,U14,1,VCC*%
%TO.N,Net-(BOARDSEL_CMP1-VCC)*%
X183960000Y-35860000D03*
D11*
%TO.P,U14,2,GND*%
%TO.N,GND*%
X186500000Y-35860000D03*
%TO.P,U14,3,OUT*%
%TO.N,Net-(J4-Pin_20)*%
X189040000Y-35860000D03*
%TD*%
D10*
%TO.P,U2,1,VCC*%
%TO.N,Net-(BOARDSEL_CMP1-VCC)*%
X15960000Y-35860000D03*
D11*
%TO.P,U2,2,GND*%
%TO.N,GND*%
X18500000Y-35860000D03*
%TO.P,U2,3,OUT*%
%TO.N,Net-(J4-Pin_32)*%
X21040000Y-35860000D03*
%TD*%
D10*
%TO.P,U5,1,VCC*%
%TO.N,Net-(BOARDSEL_CMP1-VCC)*%
X57960000Y-35860000D03*
D11*
%TO.P,U5,2,GND*%
%TO.N,GND*%
X60500000Y-35860000D03*
%TO.P,U5,3,OUT*%
%TO.N,Net-(J4-Pin_29)*%
X63040000Y-35860000D03*
%TD*%
D10*
%TO.P,U3,1,VCC*%
%TO.N,Net-(BOARDSEL_CMP1-VCC)*%
X29960000Y-35860000D03*
D11*
%TO.P,U3,2,GND*%
%TO.N,GND*%
X32500000Y-35860000D03*
%TO.P,U3,3,OUT*%
%TO.N,Net-(J4-Pin_31)*%
X35040000Y-35860000D03*
%TD*%
D10*
%TO.P,U12,1,VCC*%
%TO.N,Net-(BOARDSEL_CMP1-VCC)*%
X155960000Y-35860000D03*
D11*
%TO.P,U12,2,GND*%
%TO.N,GND*%
X158500000Y-35860000D03*
%TO.P,U12,3,OUT*%
%TO.N,Net-(J4-Pin_22)*%
X161040000Y-35860000D03*
%TD*%
D10*
%TO.P,U18,1,VCC*%
%TO.N,Net-(BOARDSEL_CMP1-VCC)*%
X239960000Y-35860000D03*
D11*
%TO.P,U18,2,GND*%
%TO.N,GND*%
X242500000Y-35860000D03*
%TO.P,U18,3,OUT*%
%TO.N,Net-(J4-Pin_16)*%
X245040000Y-35860000D03*
%TD*%
D10*
%TO.P,U17,1,VCC*%
%TO.N,Net-(BOARDSEL_CMP1-VCC)*%
X225960000Y-35860000D03*
D11*
%TO.P,U17,2,GND*%
%TO.N,GND*%
X228500000Y-35860000D03*
%TO.P,U17,3,OUT*%
%TO.N,Net-(J4-Pin_17)*%
X231040000Y-35860000D03*
%TD*%
D10*
%TO.P,U6,1,VCC*%
%TO.N,Net-(BOARDSEL_CMP1-VCC)*%
X71960000Y-35860000D03*
D11*
%TO.P,U6,2,GND*%
%TO.N,GND*%
X74500000Y-35860000D03*
%TO.P,U6,3,OUT*%
%TO.N,Net-(J4-Pin_28)*%
X77040000Y-35860000D03*
%TD*%
D10*
%TO.P,U8,1,VCC*%
%TO.N,Net-(BOARDSEL_CMP1-VCC)*%
X99960000Y-35860000D03*
D11*
%TO.P,U8,2,GND*%
%TO.N,GND*%
X102500000Y-35860000D03*
%TO.P,U8,3,OUT*%
%TO.N,Net-(J4-Pin_26)*%
X105040000Y-35860000D03*
%TD*%
D10*
%TO.P,U11,1,VCC*%
%TO.N,Net-(BOARDSEL_CMP1-VCC)*%
X141960000Y-35860000D03*
D11*
%TO.P,U11,2,GND*%
%TO.N,GND*%
X144500000Y-35860000D03*
%TO.P,U11,3,OUT*%
%TO.N,Net-(J4-Pin_23)*%
X147040000Y-35860000D03*
%TD*%
D10*
%TO.P,U7,1,VCC*%
%TO.N,Net-(BOARDSEL_CMP1-VCC)*%
X85960000Y-35860000D03*
D11*
%TO.P,U7,2,GND*%
%TO.N,GND*%
X88500000Y-35860000D03*
%TO.P,U7,3,OUT*%
%TO.N,Net-(J4-Pin_27)*%
X91040000Y-35860000D03*
%TD*%
D10*
%TO.P,U10,1,VCC*%
%TO.N,Net-(BOARDSEL_CMP1-VCC)*%
X127960000Y-35860000D03*
D11*
%TO.P,U10,2,GND*%
%TO.N,GND*%
X130500000Y-35860000D03*
%TO.P,U10,3,OUT*%
%TO.N,Net-(J4-Pin_24)*%
X133040000Y-35860000D03*
%TD*%
D10*
%TO.P,U19,1,VCC*%
%TO.N,Net-(BOARDSEL_CMP1-VCC)*%
X253960000Y-35860000D03*
D11*
%TO.P,U19,2,GND*%
%TO.N,GND*%
X256500000Y-35860000D03*
%TO.P,U19,3,OUT*%
%TO.N,Net-(J4-Pin_15)*%
X259040000Y-35860000D03*
%TD*%
D10*
%TO.P,U9,1,VCC*%
%TO.N,Net-(BOARDSEL_CMP1-VCC)*%
X113960000Y-35860000D03*
D11*
%TO.P,U9,2,GND*%
%TO.N,GND*%
X116500000Y-35860000D03*
%TO.P,U9,3,OUT*%
%TO.N,Net-(J4-Pin_25)*%
X119040000Y-35860000D03*
%TD*%
D10*
%TO.P,U15,1,VCC*%
%TO.N,Net-(BOARDSEL_CMP1-VCC)*%
X197960000Y-35860000D03*
D11*
%TO.P,U15,2,GND*%
%TO.N,GND*%
X200500000Y-35860000D03*
%TO.P,U15,3,OUT*%
%TO.N,Net-(J4-Pin_19)*%
X203040000Y-35860000D03*
%TD*%
D10*
%TO.P,U13,1,VCC*%
%TO.N,Net-(BOARDSEL_CMP1-VCC)*%
X169960000Y-35860000D03*
D11*
%TO.P,U13,2,GND*%
%TO.N,GND*%
X172500000Y-35860000D03*
%TO.P,U13,3,OUT*%
%TO.N,Net-(J4-Pin_21)*%
X175040000Y-35860000D03*
%TD*%
D10*
%TO.P,U16,1,VCC*%
%TO.N,Net-(BOARDSEL_CMP1-VCC)*%
X211960000Y-35860000D03*
D11*
%TO.P,U16,2,GND*%
%TO.N,GND*%
X214500000Y-35860000D03*
%TO.P,U16,3,OUT*%
%TO.N,Net-(J4-Pin_18)*%
X217040000Y-35860000D03*
%TD*%
D12*
%TO.P,BOARDSEL_ENABLE1,14,VCC*%
%TO.N,Net-(BOARDSEL_CMP1-VCC)*%
X131955686Y-130120000D03*
%TO.P,BOARDSEL_ENABLE1,13,2D*%
%TO.N,unconnected-(BOARDSEL_ENABLE1-2D-Pad13)*%
X131955686Y-127580000D03*
%TO.P,BOARDSEL_ENABLE1,12,2C*%
%TO.N,unconnected-(BOARDSEL_ENABLE1-2C-Pad12)*%
X131955686Y-125040000D03*
%TO.P,BOARDSEL_ENABLE1,11*%
%TO.N,N/C*%
X131955686Y-122500000D03*
%TO.P,BOARDSEL_ENABLE1,10,2B*%
%TO.N,unconnected-(BOARDSEL_ENABLE1-2B-Pad10)*%
X131955686Y-119960000D03*
%TO.P,BOARDSEL_ENABLE1,9,2A*%
%TO.N,unconnected-(BOARDSEL_ENABLE1-2A-Pad9)*%
X131955686Y-117420000D03*
%TO.P,BOARDSEL_ENABLE1,8,2Y*%
%TO.N,unconnected-(BOARDSEL_ENABLE1-2Y-Pad8)*%
X131955686Y-114880000D03*
%TO.P,BOARDSEL_ENABLE1,7,GND*%
%TO.N,GND*%
X139895686Y-114880000D03*
%TO.P,BOARDSEL_ENABLE1,6,1Y*%
%TO.N,Net-(BOARDSEL_ENABLE1-1Y)*%
X139895686Y-117420000D03*
%TO.P,BOARDSEL_ENABLE1,5,1D*%
%TO.N,Net-(BOARDSEL_CMP1-4Y)*%
X139895686Y-119960000D03*
%TO.P,BOARDSEL_ENABLE1,4,1C*%
%TO.N,Net-(BOARDSEL_CMP1-3Y)*%
X139895686Y-122500000D03*
%TO.P,BOARDSEL_ENABLE1,3*%
%TO.N,N/C*%
X139895686Y-125040000D03*
%TO.P,BOARDSEL_ENABLE1,2,1B*%
%TO.N,Net-(BOARDSEL_CMP1-2Y)*%
X139895686Y-127580000D03*
D13*
%TO.P,BOARDSEL_ENABLE1,1,1A*%
%TO.N,Net-(BOARDSEL_CMP1-1Y)*%
X139895686Y-130120000D03*
%TD*%
D14*
%TO.P,JP5,1,A*%
%TO.N,GND*%
X94500000Y-40475001D03*
D15*
%TO.P,JP5,2,B*%
%TO.N,Net-(J4-Pin_20)*%
X94500000Y-41924999D03*
%TD*%
D14*
%TO.P,JP6,1,A*%
%TO.N,GND*%
X97600000Y-40500000D03*
D15*
%TO.P,JP6,2,B*%
%TO.N,Net-(J4-Pin_19)*%
X97600000Y-41949998D03*
%TD*%
D16*
%TO.P,J1,01,01*%
%TO.N,Net-(BOARDSEL_CMP1-1A)*%
X22775686Y-81540000D03*
D17*
%TO.P,J1,02,02*%
%TO.N,Net-(JP8-A)*%
X22775686Y-79000000D03*
%TO.P,J1,03,03*%
%TO.N,Net-(BOARDSEL_CMP1-2A)*%
X25315686Y-81540000D03*
%TO.P,J1,04,04*%
%TO.N,Net-(JP9-A)*%
X25315686Y-79000000D03*
%TO.P,J1,05,05*%
%TO.N,Net-(BOARDSEL_CMP1-3A)*%
X27855686Y-81540000D03*
%TO.P,J1,06,06*%
%TO.N,Net-(JP10-A)*%
X27855686Y-79000000D03*
%TO.P,J1,07,07*%
%TO.N,Net-(BOARDSEL_CMP1-4A)*%
X30395686Y-81540000D03*
%TO.P,J1,08,08*%
%TO.N,Net-(JP11-A)*%
X30395686Y-79000000D03*
%TO.P,J1,09,09*%
%TO.N,unconnected-(J1-Pad09)*%
X32935686Y-81540000D03*
%TO.P,J1,10,10*%
%TO.N,Net-(JP12-A)*%
X32935686Y-79000000D03*
%TO.P,J1,11,11*%
%TO.N,unconnected-(J1-Pad11)*%
X35475686Y-81540000D03*
%TO.P,J1,12,12*%
%TO.N,Net-(JP13-A)*%
X35475686Y-79000000D03*
%TO.P,J1,13,13*%
%TO.N,unconnected-(J1-Pad13)*%
X38015686Y-81540000D03*
%TO.P,J1,14,14*%
%TO.N,Net-(JP14-A)*%
X38015686Y-79000000D03*
%TO.P,J1,15,15*%
%TO.N,unconnected-(J1-Pad15)*%
X40555686Y-81540000D03*
%TO.P,J1,16,16*%
%TO.N,Net-(JP15-A)*%
X40555686Y-79000000D03*
%TO.P,J1,17,17*%
%TO.N,Net-(J2-Pin_9)*%
X43095686Y-81540000D03*
%TO.P,J1,18,18*%
%TO.N,Net-(JP16-A)*%
X43095686Y-79000000D03*
%TO.P,J1,19,19*%
%TO.N,unconnected-(J1-Pad19)*%
X45635686Y-81540000D03*
%TO.P,J1,20,20*%
%TO.N,Net-(JP17-A)*%
X45635686Y-79000000D03*
%TO.P,J1,21,21*%
%TO.N,unconnected-(J1-Pad21)*%
X48175686Y-81540000D03*
%TO.P,J1,22,22*%
%TO.N,Net-(JP18-A)*%
X48175686Y-79000000D03*
%TO.P,J1,23,23*%
%TO.N,unconnected-(J1-Pad23)*%
X50715686Y-81540000D03*
%TO.P,J1,24,24*%
%TO.N,Net-(JP19-A)*%
X50715686Y-79000000D03*
%TO.P,J1,25,25*%
%TO.N,unconnected-(J1-Pad25)*%
X53255686Y-81540000D03*
%TO.P,J1,26,26*%
%TO.N,Net-(JP20-A)*%
X53255686Y-79000000D03*
%TO.P,J1,27,27*%
%TO.N,unconnected-(J1-Pad27)*%
X55795686Y-81540000D03*
%TO.P,J1,28,28*%
%TO.N,Net-(JP21-A)*%
X55795686Y-79000000D03*
%TO.P,J1,29,29*%
%TO.N,Net-(BOARDSEL_CMP1-VCC)*%
X58335686Y-81540000D03*
%TO.P,J1,30,30*%
%TO.N,Net-(JP22-A)*%
X58335686Y-79000000D03*
%TO.P,J1,31,31*%
%TO.N,unconnected-(J1-Pad31)*%
X60875686Y-81540000D03*
%TO.P,J1,32,32*%
%TO.N,Net-(JP45-A)*%
X60875686Y-79000000D03*
%TO.P,J1,33,33*%
%TO.N,unconnected-(J1-Pad33)*%
X63415686Y-81540000D03*
%TO.P,J1,34,34*%
%TO.N,Net-(JP46-A)*%
X63415686Y-79000000D03*
%TO.P,J1,35,35*%
%TO.N,unconnected-(J1-Pad35)*%
X65955686Y-81540000D03*
%TO.P,J1,36,36*%
%TO.N,Net-(JP47-A)*%
X65955686Y-79000000D03*
%TO.P,J1,37,37*%
%TO.N,unconnected-(J1-Pad37)*%
X68495686Y-81540000D03*
%TO.P,J1,38,38*%
%TO.N,unconnected-(J1-Pad38)*%
X68495686Y-79000000D03*
%TO.P,J1,39,39*%
%TO.N,unconnected-(J1-Pad39)*%
X71035686Y-81540000D03*
%TO.P,J1,40,40*%
%TO.N,GND*%
X71035686Y-79000000D03*
%TD*%
D18*
%TO.P,U1,1,GND*%
%TO.N,unconnected-(U1-GND-Pad1)*%
X19805686Y-123620000D03*
D19*
%TO.P,U1,2,0_RX1_CRX2_CS1*%
%TO.N,Net-(BOARDSEL_CMP1-1A)*%
X22345686Y-123620000D03*
%TO.P,U1,3,1_TX1_CTX2_MISO1*%
%TO.N,Net-(BOARDSEL_CMP1-2A)*%
X24885686Y-123620000D03*
%TO.P,U1,4,2_OUT2*%
%TO.N,Net-(BOARDSEL_CMP1-3A)*%
X27425686Y-123620000D03*
%TO.P,U1,5,3_LRCLK2*%
%TO.N,Net-(BOARDSEL_CMP1-4A)*%
X29965686Y-123620000D03*
%TO.P,U1,6,4_BCLK2*%
%TO.N,unconnected-(U1-4_BCLK2-Pad6)*%
X32505686Y-123620000D03*
%TO.P,U1,7,5_IN2*%
%TO.N,unconnected-(U1-5_IN2-Pad7)*%
X35045686Y-123620000D03*
%TO.P,U1,8,6_OUT1D*%
%TO.N,unconnected-(U1-6_OUT1D-Pad8)*%
X37585686Y-123620000D03*
%TO.P,U1,9,7_RX2_OUT1A*%
%TO.N,unconnected-(U1-7_RX2_OUT1A-Pad9)*%
X40125686Y-123620000D03*
%TO.P,U1,10,8_TX2_IN1*%
%TO.N,unconnected-(U1-8_TX2_IN1-Pad10)*%
X42665686Y-123620000D03*
%TO.P,U1,11,9_OUT1C*%
%TO.N,unconnected-(U1-9_OUT1C-Pad11)*%
X45205686Y-123620000D03*
%TO.P,U1,12,10_CS_MQSR*%
%TO.N,unconnected-(U1-10_CS_MQSR-Pad12)*%
X47745686Y-123620000D03*
%TO.P,U1,13,11_MOSI_CTX1*%
%TO.N,unconnected-(U1-11_MOSI_CTX1-Pad13)*%
X50285686Y-123620000D03*
%TO.P,U1,14,12_MISO_MQSL*%
%TO.N,unconnected-(U1-12_MISO_MQSL-Pad14)*%
X52825686Y-123620000D03*
%TO.P,U1,15,3V3*%
%TO.N,unconnected-(U1-3V3-Pad15)*%
X55365686Y-123620000D03*
%TO.P,U1,16,24_A10_TX6_SCL2*%
%TO.N,Net-(JP8-A)*%
X57905686Y-123620000D03*
%TO.P,U1,17,25_A11_RX6_SDA2*%
%TO.N,Net-(JP9-A)*%
X60445686Y-123620000D03*
%TO.P,U1,18,26_A12_MOSI1*%
%TO.N,Net-(JP10-A)*%
X62985686Y-123620000D03*
%TO.P,U1,19,27_A13_SCK1*%
%TO.N,Net-(JP11-A)*%
X65525686Y-123620000D03*
%TO.P,U1,20,28_RX7*%
%TO.N,unconnected-(U1-28_RX7-Pad20)*%
X68065686Y-123620000D03*
%TO.P,U1,21,29_TX7*%
%TO.N,unconnected-(U1-29_TX7-Pad21)*%
X70605686Y-123620000D03*
%TO.P,U1,22,30_CRX3*%
%TO.N,unconnected-(U1-30_CRX3-Pad22)*%
X73145686Y-123620000D03*
%TO.P,U1,23,31_CTX3*%
%TO.N,unconnected-(U1-31_CTX3-Pad23)*%
X75685686Y-123620000D03*
%TO.P,U1,24,32_OUT1B*%
%TO.N,unconnected-(U1-32_OUT1B-Pad24)*%
X78225686Y-123620000D03*
%TO.P,U1,25,33_MCLK2*%
%TO.N,unconnected-(U1-33_MCLK2-Pad25)*%
X78225686Y-108380000D03*
%TO.P,U1,26,34_RX8*%
%TO.N,unconnected-(U1-34_RX8-Pad26)*%
X75685686Y-108380000D03*
%TO.P,U1,27,35_TX8*%
%TO.N,unconnected-(U1-35_TX8-Pad27)*%
X73145686Y-108380000D03*
%TO.P,U1,28,36_CS*%
%TO.N,unconnected-(U1-36_CS-Pad28)*%
X70605686Y-108380000D03*
%TO.P,U1,29,37_CS*%
%TO.N,unconnected-(U1-37_CS-Pad29)*%
X68065686Y-108380000D03*
%TO.P,U1,30,38_CS1_IN1*%
%TO.N,Net-(JP15-A)*%
X65525686Y-108380000D03*
%TO.P,U1,31,39_MISO1_OUT1A*%
%TO.N,Net-(JP14-A)*%
X62985686Y-108380000D03*
%TO.P,U1,32,40_A16*%
%TO.N,Net-(JP13-A)*%
X60445686Y-108380000D03*
%TO.P,U1,33,41_A17*%
%TO.N,Net-(JP12-A)*%
X57905686Y-108380000D03*
%TO.P,U1,34,GND*%
%TO.N,unconnected-(U1-GND-Pad34)*%
X55365686Y-108380000D03*
%TO.P,U1,35,13_SCK_LED*%
%TO.N,unconnected-(U1-13_SCK_LED-Pad35)*%
X52825686Y-108380000D03*
%TO.P,U1,36,14_A0_TX3_SPDIF_OUT*%
%TO.N,Net-(JP47-A)*%
X50285686Y-108380000D03*
%TO.P,U1,37,15_A1_RX3_SPDIF_IN*%
%TO.N,Net-(JP46-A)*%
X47745686Y-108380000D03*
%TO.P,U1,38,16_A2_RX4_SCL1*%
%TO.N,Net-(JP45-A)*%
X45205686Y-108380000D03*
%TO.P,U1,39,17_A3_TX4_SDA1*%
%TO.N,Net-(JP22-A)*%
X42665686Y-108380000D03*
%TO.P,U1,40,18_A4_SDA*%
%TO.N,Net-(JP21-A)*%
X40125686Y-108380000D03*
%TO.P,U1,41,19_A5_SCL*%
%TO.N,Net-(JP20-A)*%
X37585686Y-108380000D03*
%TO.P,U1,42,20_A6_TX5_LRCLK1*%
%TO.N,Net-(JP19-A)*%
X35045686Y-108380000D03*
%TO.P,U1,43,21_A7_RX5_BCLK1*%
%TO.N,Net-(JP18-A)*%
X32505686Y-108380000D03*
%TO.P,U1,44,22_A8_CTX1*%
%TO.N,Net-(JP17-A)*%
X29965686Y-108380000D03*
%TO.P,U1,45,23_A9_CRX1_MCLK1*%
%TO.N,Net-(JP16-A)*%
X27425686Y-108380000D03*
%TO.P,U1,46,3V3*%
%TO.N,Net-(BOARDSEL_CMP1-VCC)*%
X24885686Y-108380000D03*
%TO.P,U1,47,GND*%
%TO.N,GND*%
X22345686Y-108380000D03*
%TO.P,U1,48,VIN*%
%TO.N,Net-(JP23-B)*%
X19805686Y-108380000D03*
%TO.P,U1,49,VUSB*%
%TO.N,unconnected-(U1-VUSB-Pad49)*%
X22345686Y-110920000D03*
%TO.P,U1,50,VBAT*%
%TO.N,unconnected-(U1-VBAT-Pad50)*%
X65525686Y-121080000D03*
%TO.P,U1,51,3V3*%
%TO.N,unconnected-(U1-3V3-Pad51)*%
X65525686Y-118540000D03*
%TO.P,U1,52,GND*%
%TO.N,unconnected-(U1-GND-Pad52)*%
X65525686Y-116000000D03*
%TO.P,U1,53,PROGRAM*%
%TO.N,unconnected-(U1-PROGRAM-Pad53)*%
X65525686Y-113460000D03*
%TO.P,U1,54,ON_OFF*%
%TO.N,unconnected-(U1-ON_OFF-Pad54)*%
X65525686Y-110920000D03*
D18*
%TO.P,U1,55,5V*%
%TO.N,unconnected-(U1-5V-Pad55)*%
X26104886Y-120569200D03*
D19*
%TO.P,U1,56,D-*%
%TO.N,unconnected-(U1-D--Pad56)*%
X28644886Y-120569200D03*
%TO.P,U1,57,D+*%
%TO.N,unconnected-(U1-D+-Pad57)*%
X31184886Y-120569200D03*
%TO.P,U1,58,GND*%
%TO.N,unconnected-(U1-GND-Pad58)*%
X33724886Y-120569200D03*
%TO.P,U1,59,GND*%
%TO.N,unconnected-(U1-GND-Pad59)*%
X36264886Y-120569200D03*
D20*
%TO.P,U1,60,R+*%
%TO.N,unconnected-(U1-R+-Pad60)*%
X32775686Y-110818400D03*
D21*
%TO.P,U1,61,LED*%
%TO.N,unconnected-(U1-LED-Pad61)*%
X32775686Y-112818400D03*
%TO.P,U1,62,T-*%
%TO.N,unconnected-(U1-T--Pad62)*%
X32775686Y-114818400D03*
%TO.P,U1,63,T+*%
%TO.N,unconnected-(U1-T+-Pad63)*%
X34775686Y-114818400D03*
%TO.P,U1,64,GND*%
%TO.N,unconnected-(U1-GND-Pad64)*%
X34775686Y-112818400D03*
%TO.P,U1,65,R-*%
%TO.N,unconnected-(U1-R--Pad65)*%
X34775686Y-110818400D03*
%TO.P,U1,66,D-*%
%TO.N,unconnected-(U1-D--Pad66)*%
X20535686Y-114730000D03*
%TO.P,U1,67,D+*%
%TO.N,unconnected-(U1-D+-Pad67)*%
X20535686Y-117270000D03*
%TD*%
D13*
%TO.P,BOARDSEL_CMP1,1,1A*%
%TO.N,Net-(BOARDSEL_CMP1-1A)*%
X151955686Y-130160000D03*
D12*
%TO.P,BOARDSEL_CMP1,2,1B*%
%TO.N,Net-(BOARDSEL_CMP1-1B)*%
X151955686Y-127620000D03*
%TO.P,BOARDSEL_CMP1,3,1Y*%
%TO.N,Net-(BOARDSEL_CMP1-1Y)*%
X151955686Y-125080000D03*
%TO.P,BOARDSEL_CMP1,4,2Y*%
%TO.N,Net-(BOARDSEL_CMP1-2Y)*%
X151955686Y-122540000D03*
%TO.P,BOARDSEL_CMP1,5,2A*%
%TO.N,Net-(BOARDSEL_CMP1-2A)*%
X151955686Y-120000000D03*
%TO.P,BOARDSEL_CMP1,6,2B*%
%TO.N,Net-(BOARDSEL_CMP1-2B)*%
X151955686Y-117460000D03*
%TO.P,BOARDSEL_CMP1,7,GND*%
%TO.N,GND*%
X151955686Y-114920000D03*
%TO.P,BOARDSEL_CMP1,8,3A*%
%TO.N,Net-(BOARDSEL_CMP1-3A)*%
X144015686Y-114920000D03*
%TO.P,BOARDSEL_CMP1,9,3B*%
%TO.N,Net-(BOARDSEL_CMP1-3B)*%
X144015686Y-117460000D03*
%TO.P,BOARDSEL_CMP1,10,3Y*%
%TO.N,Net-(BOARDSEL_CMP1-3Y)*%
X144015686Y-120000000D03*
%TO.P,BOARDSEL_CMP1,11,4Y*%
%TO.N,Net-(BOARDSEL_CMP1-4Y)*%
X144015686Y-122540000D03*
%TO.P,BOARDSEL_CMP1,12,4A*%
%TO.N,Net-(BOARDSEL_CMP1-4A)*%
X144015686Y-125080000D03*
%TO.P,BOARDSEL_CMP1,13,4B*%
%TO.N,Net-(BOARDSEL_CMP1-4B)*%
X144015686Y-127620000D03*
%TO.P,BOARDSEL_CMP1,14,VCC*%
%TO.N,Net-(BOARDSEL_CMP1-VCC)*%
X144015686Y-130160000D03*
%TD*%
D14*
%TO.P,JP26,1,A*%
%TO.N,GND*%
X109100000Y-40475001D03*
D15*
%TO.P,JP26,2,B*%
%TO.N,Net-(J4-Pin_15)*%
X109100000Y-41924999D03*
%TD*%
D14*
%TO.P,JPE01,1,A*%
%TO.N,Net-(JP8-A)*%
X23265686Y-86300000D03*
D15*
%TO.P,JPE01,2,B*%
%TO.N,Net-(DG452_0-S_1)*%
X23265686Y-87750000D03*
%TD*%
D14*
%TO.P,JPE15,1,A*%
%TO.N,Net-(JP22-A)*%
X58515686Y-86275000D03*
D15*
%TO.P,JPE15,2,B*%
%TO.N,Net-(DG452_3-S_2)*%
X58515686Y-87725000D03*
%TD*%
D14*
%TO.P,JPE13,1,A*%
%TO.N,Net-(JP20-A)*%
X53515686Y-86275000D03*
D15*
%TO.P,JPE13,2,B*%
%TO.N,Net-(DG452_3-S_1)*%
X53515686Y-87725000D03*
%TD*%
D22*
%TO.P,JP20,2,B*%
%TO.N,Net-(J4-Pin_27)*%
X53515686Y-73525000D03*
D23*
%TO.P,JP20,1,A*%
%TO.N,Net-(JP20-A)*%
X53515686Y-74975000D03*
%TD*%
D14*
%TO.P,JPE04,1,A*%
%TO.N,Net-(JP11-A)*%
X30765686Y-86300000D03*
D15*
%TO.P,JPE04,2,B*%
%TO.N,Net-(DG452_0-D_3)*%
X30765686Y-87750000D03*
%TD*%
D22*
%TO.P,JP46,2,B*%
%TO.N,Net-(J4-Pin_31)*%
X63515686Y-73500000D03*
D23*
%TO.P,JP46,1,A*%
%TO.N,Net-(JP46-A)*%
X63515686Y-74950000D03*
%TD*%
D14*
%TO.P,JPE18,1,A*%
%TO.N,Net-(JP47-A)*%
X66015686Y-86275000D03*
D15*
%TO.P,JPE18,2,B*%
%TO.N,Net-(DG45_4-D_4)*%
X66015686Y-87725000D03*
%TD*%
D22*
%TO.P,JP16,2,B*%
%TO.N,Net-(J4-Pin_23)*%
X43515686Y-73525000D03*
D23*
%TO.P,JP16,1,A*%
%TO.N,Net-(JP16-A)*%
X43515686Y-74975000D03*
%TD*%
D22*
%TO.P,JP47,2,B*%
%TO.N,Net-(J4-Pin_32)*%
X66015686Y-73525000D03*
D23*
%TO.P,JP47,1,A*%
%TO.N,Net-(JP47-A)*%
X66015686Y-74975000D03*
%TD*%
D22*
%TO.P,JP13,2,B*%
%TO.N,Net-(J4-Pin_20)*%
X36015686Y-73500000D03*
D23*
%TO.P,JP13,1,A*%
%TO.N,Net-(JP13-A)*%
X36015686Y-74950000D03*
%TD*%
D14*
%TO.P,JPE06,1,A*%
%TO.N,Net-(JP13-A)*%
X36015686Y-86300000D03*
D15*
%TO.P,JPE06,2,B*%
%TO.N,Net-(DG452_1-D_4)*%
X36015686Y-87750000D03*
%TD*%
D22*
%TO.P,JP15,2,B*%
%TO.N,Net-(J4-Pin_22)*%
X41015686Y-73525000D03*
D23*
%TO.P,JP15,1,A*%
%TO.N,Net-(JP15-A)*%
X41015686Y-74975000D03*
%TD*%
D14*
%TO.P,JPE08,1,A*%
%TO.N,Net-(JP15-A)*%
X41015686Y-86275000D03*
D15*
%TO.P,JPE08,2,B*%
%TO.N,Net-(DG452_1-D_3)*%
X41015686Y-87725000D03*
%TD*%
D14*
%TO.P,JPE12,1,A*%
%TO.N,Net-(JP19-A)*%
X51015686Y-86300000D03*
D15*
%TO.P,JPE12,2,B*%
%TO.N,Net-(DG452_2-D_3)*%
X51015686Y-87750000D03*
%TD*%
D22*
%TO.P,JP45,2,B*%
%TO.N,Net-(J4-Pin_30)*%
X61015686Y-73500000D03*
D23*
%TO.P,JP45,1,A*%
%TO.N,Net-(JP45-A)*%
X61015686Y-74950000D03*
%TD*%
D22*
%TO.P,JP17,2,B*%
%TO.N,Net-(J4-Pin_24)*%
X46015686Y-73500000D03*
D23*
%TO.P,JP17,1,A*%
%TO.N,Net-(JP17-A)*%
X46015686Y-74950000D03*
%TD*%
D14*
%TO.P,JPE14,1,A*%
%TO.N,Net-(JP21-A)*%
X56015686Y-86300000D03*
D15*
%TO.P,JPE14,2,B*%
%TO.N,Net-(DG452_3-D_4)*%
X56015686Y-87750000D03*
%TD*%
D14*
%TO.P,JPE16,1,A*%
%TO.N,Net-(JP45-A)*%
X61015686Y-86300000D03*
D15*
%TO.P,JPE16,2,B*%
%TO.N,Net-(DG452_3-D_3)*%
X61015686Y-87750000D03*
%TD*%
D22*
%TO.P,JP21,2,B*%
%TO.N,Net-(J4-Pin_28)*%
X56015686Y-73500000D03*
D23*
%TO.P,JP21,1,A*%
%TO.N,Net-(JP21-A)*%
X56015686Y-74950000D03*
%TD*%
D14*
%TO.P,JPE03,1,A*%
%TO.N,Net-(JP10-A)*%
X28265686Y-86300000D03*
D15*
%TO.P,JPE03,2,B*%
%TO.N,Net-(DG452_0-S_2)*%
X28265686Y-87750000D03*
%TD*%
D14*
%TO.P,JPE02,1,A*%
%TO.N,Net-(JP9-A)*%
X25765686Y-86300000D03*
D15*
%TO.P,JPE02,2,B*%
%TO.N,Net-(DG452_0-D_4)*%
X25765686Y-87750000D03*
%TD*%
D22*
%TO.P,JP19,2,B*%
%TO.N,Net-(J4-Pin_26)*%
X51015686Y-73500000D03*
D23*
%TO.P,JP19,1,A*%
%TO.N,Net-(JP19-A)*%
X51015686Y-74950000D03*
%TD*%
D14*
%TO.P,JPE09,1,A*%
%TO.N,Net-(JP16-A)*%
X43515686Y-86300000D03*
D15*
%TO.P,JPE09,2,B*%
%TO.N,Net-(DG452_2-S_1)*%
X43515686Y-87750000D03*
%TD*%
D14*
%TO.P,JPE07,1,A*%
%TO.N,Net-(JP14-A)*%
X38515686Y-86300000D03*
D15*
%TO.P,JPE07,2,B*%
%TO.N,Net-(DG452_1-S_2)*%
X38515686Y-87750000D03*
%TD*%
D22*
%TO.P,JP14,2,B*%
%TO.N,Net-(J4-Pin_21)*%
X38515686Y-73525000D03*
D23*
%TO.P,JP14,1,A*%
%TO.N,Net-(JP14-A)*%
X38515686Y-74975000D03*
%TD*%
D22*
%TO.P,JP11,2,B*%
%TO.N,Net-(J4-Pin_18)*%
X31015686Y-73500000D03*
D23*
%TO.P,JP11,1,A*%
%TO.N,Net-(JP11-A)*%
X31015686Y-74950000D03*
%TD*%
D14*
%TO.P,JPE05,1,A*%
%TO.N,Net-(JP12-A)*%
X33515686Y-86300000D03*
D15*
%TO.P,JPE05,2,B*%
%TO.N,Net-(DG452_1-S_1)*%
X33515686Y-87750000D03*
%TD*%
D14*
%TO.P,JPE11,1,A*%
%TO.N,Net-(JP18-A)*%
X48515686Y-86300000D03*
D15*
%TO.P,JPE11,2,B*%
%TO.N,Net-(DG452_2-S_2)*%
X48515686Y-87750000D03*
%TD*%
D22*
%TO.P,JP9,2,B*%
%TO.N,Net-(J4-Pin_16)*%
X26015686Y-73525000D03*
D23*
%TO.P,JP9,1,A*%
%TO.N,Net-(JP9-A)*%
X26015686Y-74975000D03*
%TD*%
D22*
%TO.P,JP22,2,B*%
%TO.N,Net-(J4-Pin_29)*%
X58515686Y-73525000D03*
D23*
%TO.P,JP22,1,A*%
%TO.N,Net-(JP22-A)*%
X58515686Y-74975000D03*
%TD*%
D14*
%TO.P,JPE10,1,A*%
%TO.N,Net-(JP17-A)*%
X46015686Y-86300000D03*
D15*
%TO.P,JPE10,2,B*%
%TO.N,Net-(DG452_2-D_4)*%
X46015686Y-87750000D03*
%TD*%
D22*
%TO.P,JP18,2,B*%
%TO.N,Net-(J4-Pin_25)*%
X48515686Y-73525000D03*
D23*
%TO.P,JP18,1,A*%
%TO.N,Net-(JP18-A)*%
X48515686Y-74975000D03*
%TD*%
D22*
%TO.P,JP8,2,B*%
%TO.N,Net-(J4-Pin_15)*%
X23515686Y-73500000D03*
D23*
%TO.P,JP8,1,A*%
%TO.N,Net-(JP8-A)*%
X23515686Y-74950000D03*
%TD*%
D22*
%TO.P,JP10,2,B*%
%TO.N,Net-(J4-Pin_17)*%
X28515686Y-73500000D03*
D23*
%TO.P,JP10,1,A*%
%TO.N,Net-(JP10-A)*%
X28515686Y-74950000D03*
%TD*%
D22*
%TO.P,JP12,2,B*%
%TO.N,Net-(J4-Pin_19)*%
X33515686Y-73500000D03*
D23*
%TO.P,JP12,1,A*%
%TO.N,Net-(JP12-A)*%
X33515686Y-74950000D03*
%TD*%
D14*
%TO.P,JPE17,1,A*%
%TO.N,Net-(JP46-A)*%
X63515686Y-86300000D03*
D15*
%TO.P,JPE17,2,B*%
%TO.N,Net-(DG45_4-S_1)*%
X63515686Y-87750000D03*
%TD*%
D14*
%TO.P,JP7,1,A*%
%TO.N,GND*%
X100699998Y-40525000D03*
D15*
%TO.P,JP7,2,B*%
%TO.N,Net-(J4-Pin_18)*%
X100699998Y-41974998D03*
%TD*%
D14*
%TO.P,JP25,1,A*%
%TO.N,GND*%
X106300000Y-40425000D03*
D15*
%TO.P,JP25,2,B*%
%TO.N,Net-(J4-Pin_16)*%
X106300000Y-41874998D03*
%TD*%
D14*
%TO.P,JP24,1,A*%
%TO.N,GND*%
X103500000Y-40425000D03*
D15*
%TO.P,JP24,2,B*%
%TO.N,Net-(J4-Pin_17)*%
X103500000Y-41874998D03*
%TD*%
D24*
%TO.N,GND*%
X87400000Y-44200000D03*
%TO.N,Net-(J4-Pin_20)*%
X54000000Y-42900000D03*
%TO.N,Net-(J4-Pin_19)*%
X55000000Y-43900000D03*
%TO.N,Net-(J4-Pin_18)*%
X56200000Y-44900000D03*
%TO.N,Net-(J4-Pin_17)*%
X57100000Y-45900000D03*
%TO.N,Net-(J4-Pin_16)*%
X58100000Y-46900000D03*
%TO.N,Net-(J4-Pin_15)*%
X58978499Y-47878499D03*
X109100000Y-44200000D03*
%TO.N,Net-(J4-Pin_16)*%
X106300000Y-44200000D03*
%TO.N,Net-(J4-Pin_17)*%
X103500000Y-44200000D03*
%TO.N,Net-(J4-Pin_18)*%
X100700000Y-44200000D03*
%TO.N,Net-(J4-Pin_19)*%
X97600000Y-44200000D03*
%TO.N,Net-(J4-Pin_20)*%
X94500000Y-44200000D03*
%TO.N,GND*%
X85800000Y-48000000D03*
%TO.N,Net-(BOARDSEL_CMP1-VCC)*%
X81800000Y-48000000D03*
X79800000Y-48000000D03*
%TO.N,GND*%
X75800000Y-48000000D03*
%TO.N,Net-(BOARDSEL_CMP1-VCC)*%
X81800000Y-60200000D03*
X79800000Y-62200000D03*
%TO.N,GND*%
X84343001Y-57600000D03*
X77257001Y-57600000D03*
%TO.N,Net-(BOARDSEL_CMP1-3B)*%
X124715686Y-121900000D03*
%TO.N,Net-(BOARDSEL_CMP1-4A)*%
X163015686Y-70100000D03*
%TO.N,Net-(BOARDSEL_CMP1-2A)*%
X163015686Y-74100000D03*
%TO.N,Net-(BOARDSEL_CMP1-4B)*%
X124715686Y-117700000D03*
%TO.N,Net-(BOARDSEL_CMP1-1A)*%
X163015686Y-76100000D03*
%TO.N,Net-(BOARDSEL_CMP1-1B)*%
X124715686Y-131100000D03*
%TO.N,Net-(BOARDSEL_CMP1-2B)*%
X124715686Y-126300000D03*
%TO.N,GND*%
X19295538Y-70128382D03*
X108635686Y-101150000D03*
X108635686Y-88650000D03*
X108635686Y-125650000D03*
X161915686Y-80100000D03*
X108735686Y-77050000D03*
X121015686Y-124500000D03*
X108635686Y-113550000D03*
X121015686Y-116000000D03*
X121015686Y-129500000D03*
X121015686Y-120000000D03*
X21908921Y-72741765D03*
%TO.N,Net-(BOARDSEL_CMP1-VCC)*%
X21936596Y-73541288D03*
X109835686Y-124050000D03*
X163015686Y-92100000D03*
X128315686Y-116000000D03*
X109935686Y-75550000D03*
X128315686Y-119900000D03*
X128315686Y-129500000D03*
X109935686Y-86950000D03*
X128315686Y-124500000D03*
X109935686Y-111950000D03*
X18335686Y-78715000D03*
X109935686Y-99350000D03*
%TO.N,Net-(BOARDSEL_CMP1-3A)*%
X163015686Y-72100000D03*
%TO.N,Net-(BOARDSEL_ENABLE1-1Y)*%
X103915686Y-73800000D03*
X103915686Y-122400000D03*
X113715686Y-72100000D03*
X103815686Y-90200000D03*
X103915686Y-115200000D03*
X103915686Y-97800000D03*
X103915686Y-110300000D03*
X103815686Y-85200000D03*
X103915686Y-102700000D03*
X103915686Y-127300000D03*
X103915686Y-78700000D03*
%TO.N,Net-(DG45_4-S_1)*%
X77815686Y-98800000D03*
X164715686Y-100100000D03*
X107415686Y-80200000D03*
%TO.N,Net-(JP46-A)*%
X64415686Y-85400000D03*
%TO.N,Net-(DG45_4-D_4)*%
X78415686Y-98200000D03*
%TO.N,Net-(JP47-A)*%
X66915686Y-85400000D03*
%TO.N,Net-(DG45_4-D_4)*%
X164715686Y-98100000D03*
X112515686Y-80200000D03*
%TO.N,Net-(DG452_0-D_3)*%
X68315686Y-104000000D03*
%TO.N,Net-(JP11-A)*%
X31415686Y-85100000D03*
%TO.N,Net-(DG452_0-D_3)*%
X112415686Y-121000000D03*
X164715686Y-126000000D03*
%TO.N,Net-(DG452_0-D_4)*%
X66820008Y-104800000D03*
X112415686Y-128800000D03*
%TO.N,Net-(JP9-A)*%
X26315686Y-85100000D03*
%TO.N,Net-(DG452_0-D_4)*%
X164715686Y-130100000D03*
%TO.N,Net-(JP8-A)*%
X24315686Y-85100000D03*
%TO.N,Net-(DG452_0-S_1)*%
X164715686Y-132100000D03*
X107415686Y-128700000D03*
X66115686Y-105200000D03*
%TO.N,Net-(JP10-A)*%
X28815686Y-85100000D03*
%TO.N,Net-(DG452_0-S_2)*%
X107415686Y-121000000D03*
X164715686Y-128000000D03*
X67615683Y-104400000D03*
%TO.N,Net-(DG452_1-D_4)*%
X69746539Y-103200000D03*
X112415686Y-116800000D03*
%TO.N,Net-(JP13-A)*%
X36515686Y-85200000D03*
%TO.N,Net-(DG452_1-D_4)*%
X164715686Y-121900000D03*
%TO.N,Net-(DG452_1-S_1)*%
X107415686Y-116800000D03*
X164715686Y-124000000D03*
%TO.N,Net-(JP12-A)*%
X33915686Y-85100000D03*
%TO.N,Net-(DG452_1-S_1)*%
X69046536Y-103600000D03*
%TO.N,Net-(DG452_1-S_2)*%
X164715686Y-120000000D03*
%TO.N,Net-(JP14-A)*%
X39015686Y-85200000D03*
%TO.N,Net-(DG452_1-S_2)*%
X70545925Y-102847000D03*
X107415686Y-108800000D03*
%TO.N,Net-(DG452_1-D_3)*%
X71209396Y-102400000D03*
X112515686Y-108800000D03*
%TO.N,Net-(JP15-A)*%
X41615686Y-85200000D03*
%TO.N,Net-(DG452_1-D_3)*%
X164715686Y-118000000D03*
%TO.N,Net-(DG452_2-D_3)*%
X112515686Y-99300000D03*
X74264542Y-100800000D03*
%TO.N,Net-(JP19-A)*%
X51715686Y-85300000D03*
%TO.N,Net-(DG452_2-D_3)*%
X164715686Y-110100000D03*
%TO.N,Net-(DG452_2-S_2)*%
X164715686Y-112100000D03*
X107415686Y-99300000D03*
X73464539Y-101200000D03*
%TO.N,Net-(JP18-A)*%
X49215686Y-85300000D03*
%TO.N,Net-(JP17-A)*%
X46615686Y-85300000D03*
%TO.N,Net-(DG452_2-D_4)*%
X72726244Y-101600000D03*
X164715686Y-114200000D03*
X112515686Y-104200000D03*
%TO.N,Net-(JP16-A)*%
X44115686Y-85300000D03*
%TO.N,Net-(DG452_2-S_1)*%
X164715686Y-116100000D03*
X71981355Y-102000000D03*
X107415686Y-104100000D03*
%TO.N,Net-(DG452_3-S_2)*%
X76485185Y-99703263D03*
%TO.N,Net-(JP22-A)*%
X59315686Y-85300000D03*
%TO.N,Net-(DG452_3-S_2)*%
X107315686Y-86800000D03*
X164715686Y-104000000D03*
%TO.N,Net-(DG452_3-D_3)*%
X112415686Y-86700000D03*
X77152964Y-99262722D03*
X164715686Y-102000000D03*
%TO.N,Net-(JP45-A)*%
X61915686Y-85400000D03*
%TO.N,Net-(DG452_3-D_4)*%
X112415686Y-91600000D03*
X164715686Y-106100000D03*
X75700337Y-100000000D03*
%TO.N,Net-(JP21-A)*%
X56815686Y-85300000D03*
%TO.N,Net-(DG452_3-S_1)*%
X107315686Y-91600000D03*
X164715686Y-108100000D03*
%TO.N,Net-(JP20-A)*%
X54215686Y-85300000D03*
%TO.N,Net-(DG452_3-S_1)*%
X74967996Y-100400000D03*
%TO.N,Net-(J4-Pin_17)*%
X60615686Y-60900000D03*
%TO.N,Net-(J4-Pin_18)*%
X58115686Y-60900000D03*
%TO.N,Net-(J4-Pin_19)*%
X55615686Y-60900000D03*
%TO.N,Net-(J4-Pin_20)*%
X53115686Y-60900000D03*
%TO.N,Net-(J4-Pin_21)*%
X50615686Y-60900000D03*
%TO.N,Net-(J4-Pin_22)*%
X48115686Y-60900000D03*
%TO.N,Net-(J4-Pin_23)*%
X45615686Y-60900000D03*
%TO.N,Net-(J4-Pin_24)*%
X43115686Y-60900000D03*
%TO.N,Net-(J4-Pin_25)*%
X40615686Y-60900000D03*
%TO.N,Net-(J4-Pin_26)*%
X38115686Y-60900000D03*
%TO.N,Net-(J4-Pin_27)*%
X35615686Y-60900000D03*
%TO.N,Net-(J4-Pin_28)*%
X33115686Y-60900000D03*
%TO.N,Net-(J4-Pin_29)*%
X30615686Y-60900000D03*
%TO.N,Net-(JP23-B)*%
X30835686Y-116215000D03*
%TO.N,Net-(J4-Pin_30)*%
X28115686Y-60900000D03*
%TO.N,Net-(J4-Pin_31)*%
X25615686Y-60900000D03*
%TO.N,Net-(J4-Pin_32)*%
X24300000Y-61100000D03*
%TO.N,Net-(J2-Pin_9)*%
X163015686Y-86100000D03*
X18535686Y-73015000D03*
%TO.N,Net-(J4-Pin_16)*%
X63115686Y-60900000D03*
%TO.N,Net-(J4-Pin_15)*%
X65615686Y-60900000D03*
%TD*%
D25*
%TO.N,Net-(BOARDSEL_CMP1-VCC)*%
X77000000Y-39100000D02*
X82720000Y-39100000D01*
X75200000Y-39100000D02*
X71960000Y-35860000D01*
X68800000Y-39100000D02*
X77000000Y-39100000D01*
X77000000Y-39100000D02*
X75200000Y-39100000D01*
D26*
%TO.N,GND*%
X94500000Y-40475001D02*
X91124999Y-40475001D01*
X91124999Y-40475001D02*
X87400000Y-44200000D01*
D25*
X77257001Y-57600000D02*
X84343001Y-57600000D01*
X77257001Y-59242999D02*
X71035686Y-65464314D01*
X77257001Y-57600000D02*
X77257001Y-59242999D01*
X71035686Y-65464314D02*
X71035686Y-79000000D01*
D26*
%TO.N,Net-(J4-Pin_15)*%
X109100000Y-44200000D02*
X109100000Y-44300000D01*
%TO.N,Net-(J4-Pin_17)*%
X103500000Y-44200000D02*
X103500000Y-44300000D01*
%TO.N,Net-(J4-Pin_19)*%
X97600000Y-41949998D02*
X97600000Y-44200000D01*
%TO.N,Net-(J4-Pin_18)*%
X100699998Y-44200002D02*
X100699998Y-44299998D01*
X100700000Y-44200000D02*
X100699998Y-44200002D01*
X100699998Y-44199998D02*
X100700000Y-44200000D01*
%TO.N,Net-(J4-Pin_20)*%
X94500000Y-41924999D02*
X94500000Y-44200000D01*
%TO.N,Net-(J4-Pin_18)*%
X100699998Y-44299998D02*
X100700000Y-44300000D01*
X100699998Y-41974998D02*
X100699998Y-44199998D01*
%TO.N,Net-(J4-Pin_17)*%
X103500000Y-41874998D02*
X103500000Y-44200000D01*
%TO.N,Net-(J4-Pin_16)*%
X106300000Y-41874998D02*
X106300000Y-44200000D01*
%TO.N,Net-(J4-Pin_15)*%
X109100000Y-41924999D02*
X109100000Y-44200000D01*
%TO.N,GND*%
X106300000Y-40425000D02*
X109049999Y-40425000D01*
X109049999Y-40425000D02*
X109100000Y-40475001D01*
X94499998Y-40475000D02*
X106250000Y-40475000D01*
X106250000Y-40475000D02*
X106300000Y-40425001D01*
D27*
X161915686Y-95384314D02*
X161915686Y-82500000D01*
X161915686Y-82500000D02*
X161915686Y-80100000D01*
X144000000Y-113300000D02*
X150335686Y-113300000D01*
X137615686Y-113300000D02*
X144000000Y-113300000D01*
X144000000Y-113300000D02*
X161915686Y-95384314D01*
D25*
%TO.N,Net-(BOARDSEL_CMP1-VCC)*%
X229100000Y-39100000D02*
X250720000Y-39100000D01*
X222720000Y-39100000D02*
X229100000Y-39100000D01*
X229100000Y-39100000D02*
X236720000Y-39100000D01*
X236720000Y-39100000D02*
X239960000Y-35860000D01*
X250720000Y-39100000D02*
X253960000Y-35860000D01*
X208720000Y-39100000D02*
X222720000Y-39100000D01*
X222720000Y-39100000D02*
X225960000Y-35860000D01*
X36200000Y-39100000D02*
X19200000Y-39100000D01*
X49600000Y-39100000D02*
X36200000Y-39100000D01*
X36200000Y-39100000D02*
X33200000Y-39100000D01*
X33200000Y-39100000D02*
X29960000Y-35860000D01*
X62800000Y-39100000D02*
X49600000Y-39100000D01*
X49600000Y-39100000D02*
X47200000Y-39100000D01*
X47200000Y-39100000D02*
X43960000Y-35860000D01*
X68800000Y-39100000D02*
X62800000Y-39100000D01*
X62800000Y-39100000D02*
X61200000Y-39100000D01*
X61200000Y-39100000D02*
X57960000Y-35860000D01*
X70900000Y-39100000D02*
X68800000Y-39100000D01*
X82720000Y-39100000D02*
X85960000Y-35860000D01*
X88100000Y-39100000D02*
X98200000Y-39100000D01*
X70900000Y-39100000D02*
X88100000Y-39100000D01*
X88100000Y-39100000D02*
X96720000Y-39100000D01*
X96720000Y-39100000D02*
X99960000Y-35860000D01*
X98200000Y-39100000D02*
X109400000Y-39100000D01*
X98200000Y-39100000D02*
X110720000Y-39100000D01*
X110720000Y-39100000D02*
X113960000Y-35860000D01*
X109400000Y-39100000D02*
X127400000Y-39100000D01*
X109400000Y-39100000D02*
X124720000Y-39100000D01*
X124720000Y-39100000D02*
X127960000Y-35860000D01*
X127400000Y-39100000D02*
X131400000Y-39100000D01*
X127400000Y-39100000D02*
X138720000Y-39100000D01*
X138720000Y-39100000D02*
X141960000Y-35860000D01*
X131400000Y-39100000D02*
X150900000Y-39100000D01*
X131400000Y-39100000D02*
X152720000Y-39100000D01*
X152720000Y-39100000D02*
X155960000Y-35860000D01*
X150900000Y-39100000D02*
X177000000Y-39100000D01*
X150900000Y-39100000D02*
X166720000Y-39100000D01*
X166720000Y-39100000D02*
X169960000Y-35860000D01*
X177000000Y-39100000D02*
X184700000Y-39100000D01*
X177000000Y-39100000D02*
X180720000Y-39100000D01*
X180720000Y-39100000D02*
X183960000Y-35860000D01*
X184700000Y-39100000D02*
X208720000Y-39100000D01*
X184700000Y-39100000D02*
X194720000Y-39100000D01*
X194720000Y-39100000D02*
X197960000Y-35860000D01*
X208720000Y-39100000D02*
X211960000Y-35860000D01*
X79800000Y-48000000D02*
X70900000Y-39100000D01*
X19200000Y-39100000D02*
X15960000Y-35860000D01*
D26*
%TO.N,Net-(J4-Pin_31)*%
X23735541Y-62334855D02*
X24629855Y-62334855D01*
X25615686Y-60900000D02*
X25215686Y-60500000D01*
X25215686Y-60500000D02*
X23378430Y-60500000D01*
X23378430Y-60500000D02*
X23015686Y-60862744D01*
X23015686Y-60862744D02*
X23015686Y-61615000D01*
X23015686Y-61615000D02*
X23735541Y-62334855D01*
X24629855Y-62334855D02*
X24810001Y-62515000D01*
X24810001Y-62515000D02*
X52530686Y-62515000D01*
X52530686Y-62515000D02*
X63515686Y-73500000D01*
%TO.N,Net-(J4-Pin_32)*%
X24300000Y-61100000D02*
X25315000Y-62115000D01*
X54605686Y-62115000D02*
X66015686Y-73525000D01*
X25315000Y-62115000D02*
X54605686Y-62115000D01*
D27*
%TO.N,GND*%
X121015686Y-110600000D02*
X121015686Y-116000000D01*
X115715686Y-87300000D02*
X115715686Y-99700000D01*
X16015686Y-103100000D02*
X16015686Y-67015000D01*
X21908921Y-72741765D02*
X21862451Y-72741765D01*
X121015686Y-131700000D02*
X121015686Y-116000000D01*
X120015686Y-132700000D02*
X121015686Y-131700000D01*
X108635686Y-113550000D02*
X114165686Y-113550000D01*
X108635686Y-101150000D02*
X114265686Y-101150000D01*
X16215686Y-124800000D02*
X16215686Y-128500000D01*
X114165686Y-113550000D02*
X115715686Y-112000000D01*
X115715686Y-78300000D02*
X115715686Y-87300000D01*
X22345686Y-108380000D02*
X19365686Y-105400000D01*
X20415686Y-132700000D02*
X120015686Y-132700000D01*
X115715686Y-124000000D02*
X114065686Y-125650000D01*
X21862451Y-72741765D02*
X16135686Y-67015000D01*
X115715686Y-107600000D02*
X117815686Y-109700000D01*
X16415686Y-104200000D02*
X16415686Y-103700000D01*
X115715686Y-112000000D02*
X115715686Y-124000000D01*
X123715686Y-113300000D02*
X137615686Y-113300000D01*
X108735686Y-77050000D02*
X114465686Y-77050000D01*
X114365686Y-88650000D02*
X115715686Y-87300000D01*
X115715686Y-99700000D02*
X115715686Y-107600000D01*
X16135686Y-67015000D02*
X16015686Y-67015000D01*
X114465686Y-77050000D02*
X115715686Y-78300000D01*
X114065686Y-125650000D02*
X108635686Y-125650000D01*
X16015686Y-103100000D02*
X16015686Y-124600000D01*
X115715686Y-107600000D02*
X115715686Y-112000000D01*
X16015686Y-103300000D02*
X16015686Y-103100000D01*
X120115686Y-109700000D02*
X121015686Y-110600000D01*
X121015686Y-116000000D02*
X123715686Y-113300000D01*
X16215686Y-128500000D02*
X20415686Y-132700000D01*
X114265686Y-101150000D02*
X115715686Y-99700000D01*
X139895686Y-114880000D02*
X138315686Y-113300000D01*
X117815686Y-109700000D02*
X120115686Y-109700000D01*
X150335686Y-113300000D02*
X151955686Y-114920000D01*
X108635686Y-88650000D02*
X114365686Y-88650000D01*
X17615686Y-105400000D02*
X16415686Y-104200000D01*
X19365686Y-105400000D02*
X17615686Y-105400000D01*
X16415686Y-103700000D02*
X16015686Y-103300000D01*
X138315686Y-113300000D02*
X137615686Y-113300000D01*
X16015686Y-124600000D02*
X16215686Y-124800000D01*
D26*
%TO.N,Net-(DG45_4-S_1)*%
X77615686Y-98600000D02*
X64115686Y-98600000D01*
X79321569Y-98800000D02*
X97921569Y-80200000D01*
%TO.N,Net-(JP46-A)*%
X64415686Y-85400000D02*
X64400686Y-85415000D01*
X63515686Y-78900000D02*
X63415686Y-79000000D01*
X63515686Y-74950000D02*
X63515686Y-78900000D01*
%TO.N,Net-(DG45_4-S_1)*%
X77815686Y-98800000D02*
X77615686Y-98600000D01*
X64115686Y-98600000D02*
X63515686Y-98000000D01*
X97921569Y-80200000D02*
X107415686Y-80200000D01*
%TO.N,Net-(JP46-A)*%
X63415686Y-79000000D02*
X64400686Y-79985000D01*
X64400686Y-79985000D02*
X64415686Y-85400000D01*
%TO.N,Net-(DG45_4-S_1)*%
X63515686Y-98000000D02*
X63515686Y-87750000D01*
%TO.N,Net-(JP46-A)*%
X64400686Y-85415000D02*
X63515686Y-86300000D01*
%TO.N,Net-(DG45_4-S_1)*%
X77815686Y-98800000D02*
X79321569Y-98800000D01*
%TO.N,Net-(DG45_4-D_4)*%
X79355884Y-98200000D02*
X97755884Y-79800000D01*
%TO.N,Net-(JP47-A)*%
X66940686Y-85350000D02*
X66915686Y-85375000D01*
X66940686Y-79985000D02*
X66940686Y-85350000D01*
%TO.N,Net-(DG45_4-D_4)*%
X112515686Y-79800000D02*
X112515686Y-80200000D01*
%TO.N,Net-(JP47-A)*%
X66015686Y-74975000D02*
X66015686Y-78940000D01*
X66015686Y-78940000D02*
X65955686Y-79000000D01*
%TO.N,Net-(DG45_4-D_4)*%
X78415686Y-98200000D02*
X66715686Y-98200000D01*
X66715686Y-98200000D02*
X66015686Y-97500000D01*
X111615686Y-78900000D02*
X112515686Y-79800000D01*
%TO.N,Net-(JP47-A)*%
X66915686Y-85400000D02*
X66890686Y-85400000D01*
%TO.N,Net-(DG45_4-D_4)*%
X66015686Y-97500000D02*
X66015686Y-87725000D01*
X105415686Y-79800000D02*
X106315686Y-78900000D01*
X78415686Y-98200000D02*
X79355884Y-98200000D01*
%TO.N,Net-(JP47-A)*%
X66890686Y-85400000D02*
X66015686Y-86275000D01*
X65955686Y-79000000D02*
X66940686Y-79985000D01*
X66915686Y-85375000D02*
X66915686Y-85400000D01*
%TO.N,Net-(DG45_4-D_4)*%
X97755884Y-79800000D02*
X105415686Y-79800000D01*
X106315686Y-78900000D02*
X111615686Y-78900000D01*
%TO.N,Net-(JP11-A)*%
X30395686Y-79000000D02*
X31380686Y-79985000D01*
X31380686Y-79985000D02*
X31380686Y-85065000D01*
%TO.N,Net-(DG452_0-D_3)*%
X68815686Y-104500000D02*
X77598378Y-104500000D01*
X82315686Y-109217308D02*
X82315686Y-116034314D01*
X68315686Y-104000000D02*
X68115686Y-103800000D01*
%TO.N,Net-(JP11-A)*%
X31380686Y-85065000D02*
X31415686Y-85100000D01*
X31015686Y-74950000D02*
X30395686Y-75570000D01*
X31380686Y-85685000D02*
X30765686Y-86300000D01*
X31415686Y-85100000D02*
X31380686Y-85135000D01*
%TO.N,Net-(DG452_0-D_3)*%
X77598378Y-104500000D02*
X82315686Y-109217308D01*
X86681372Y-120400000D02*
X111815686Y-120400000D01*
%TO.N,Net-(JP11-A)*%
X31380686Y-85135000D02*
X31380686Y-85685000D01*
X30395686Y-75570000D02*
X30395686Y-79000000D01*
%TO.N,Net-(DG452_0-D_3)*%
X68115686Y-103800000D02*
X46815686Y-103800000D01*
X46815686Y-103800000D02*
X30765686Y-87750000D01*
X82315686Y-116034314D02*
X86681372Y-120400000D01*
X111815686Y-120400000D02*
X112415686Y-121000000D01*
X68315686Y-104000000D02*
X68815686Y-104500000D01*
%TO.N,Net-(JP9-A)*%
X26300686Y-85115000D02*
X26300686Y-85765000D01*
%TO.N,Net-(DG452_0-D_4)*%
X67167154Y-104800000D02*
X66820008Y-104800000D01*
%TO.N,Net-(JP9-A)*%
X26300686Y-85765000D02*
X25765686Y-86300000D01*
%TO.N,Net-(DG452_0-D_4)*%
X67667155Y-105300000D02*
X67615684Y-105248529D01*
X67615684Y-105248529D02*
X67167154Y-104800000D01*
%TO.N,Net-(JP9-A)*%
X26300686Y-85085000D02*
X26315686Y-85100000D01*
X25315686Y-79000000D02*
X26300686Y-79985000D01*
%TO.N,Net-(DG452_0-D_4)*%
X112415686Y-128800000D02*
X111715686Y-128100000D01*
%TO.N,Net-(JP9-A)*%
X26315686Y-85100000D02*
X26300686Y-85115000D01*
X26300686Y-79985000D02*
X26300686Y-85085000D01*
%TO.N,Net-(DG452_0-D_4)*%
X66820008Y-104800000D02*
X66620008Y-104600000D01*
X81515686Y-109548679D02*
X77267007Y-105300000D01*
%TO.N,Net-(JP9-A)*%
X26015686Y-74975000D02*
X25315686Y-75675000D01*
%TO.N,Net-(DG452_0-D_4)*%
X66620008Y-104600000D02*
X42615686Y-104600000D01*
X111715686Y-128100000D02*
X85581372Y-128100000D01*
X77267007Y-105300000D02*
X67667155Y-105300000D01*
X85581372Y-128100000D02*
X81515686Y-124034314D01*
%TO.N,Net-(JP9-A)*%
X25315686Y-75675000D02*
X25315686Y-79000000D01*
%TO.N,Net-(DG452_0-D_4)*%
X81515686Y-124034314D02*
X81515686Y-109548679D01*
X42615686Y-104600000D02*
X25765686Y-87750000D01*
%TO.N,Net-(JP8-A)*%
X24330686Y-85085000D02*
X24315686Y-85100000D01*
%TO.N,Net-(DG452_0-S_1)*%
X77101321Y-105700000D02*
X81115686Y-109714365D01*
%TO.N,Net-(JP8-A)*%
X23515686Y-74950000D02*
X22775686Y-75690000D01*
%TO.N,Net-(DG452_0-S_1)*%
X85615686Y-128700000D02*
X107415686Y-128700000D01*
X40515686Y-105000000D02*
X23265686Y-87750000D01*
%TO.N,Net-(JP8-A)*%
X24330686Y-85235000D02*
X23265686Y-86300000D01*
%TO.N,Net-(DG452_0-S_1)*%
X66115686Y-105200000D02*
X66615686Y-105700000D01*
%TO.N,Net-(JP8-A)*%
X24315686Y-85100000D02*
X24330686Y-85115000D01*
%TO.N,Net-(DG452_0-S_1)*%
X65915686Y-105000000D02*
X40515686Y-105000000D01*
%TO.N,Net-(JP8-A)*%
X22775686Y-79000000D02*
X24330686Y-80555000D01*
%TO.N,Net-(DG452_0-S_1)*%
X66115686Y-105200000D02*
X65915686Y-105000000D01*
X81115686Y-124200000D02*
X85615686Y-128700000D01*
X66615686Y-105700000D02*
X77101321Y-105700000D01*
%TO.N,Net-(JP8-A)*%
X24330686Y-85115000D02*
X24330686Y-85235000D01*
%TO.N,Net-(DG452_0-S_1)*%
X81115686Y-109714365D02*
X81115686Y-124200000D01*
%TO.N,Net-(JP8-A)*%
X24330686Y-80555000D02*
X24330686Y-85085000D01*
X22775686Y-75690000D02*
X22775686Y-79000000D01*
%TO.N,Net-(DG452_0-S_2)*%
X67867157Y-104400000D02*
X68367157Y-104900000D01*
X68367157Y-104900000D02*
X77432693Y-104900000D01*
%TO.N,Net-(JP10-A)*%
X28515686Y-74950000D02*
X27855686Y-75610000D01*
X28840686Y-79985000D02*
X28840686Y-85075000D01*
%TO.N,Net-(DG452_0-S_2)*%
X81915686Y-109382993D02*
X81915686Y-116200000D01*
X77432693Y-104900000D02*
X81915686Y-109382993D01*
X44715686Y-104200000D02*
X28265686Y-87750000D01*
%TO.N,Net-(JP10-A)*%
X27855686Y-79000000D02*
X28840686Y-79985000D01*
%TO.N,Net-(DG452_0-S_2)*%
X67615683Y-104400000D02*
X67415683Y-104200000D01*
%TO.N,Net-(JP10-A)*%
X28815686Y-85100000D02*
X28840686Y-85125000D01*
%TO.N,Net-(DG452_0-S_2)*%
X67615683Y-104400000D02*
X67867157Y-104400000D01*
%TO.N,Net-(JP10-A)*%
X27855686Y-75610000D02*
X27855686Y-79000000D01*
X28840686Y-85075000D02*
X28815686Y-85100000D01*
%TO.N,Net-(DG452_0-S_2)*%
X67415683Y-104200000D02*
X44715686Y-104200000D01*
X81915686Y-116200000D02*
X86715686Y-121000000D01*
%TO.N,Net-(JP10-A)*%
X28840686Y-85725000D02*
X28265686Y-86300000D01*
%TO.N,Net-(DG452_0-S_2)*%
X86715686Y-121000000D02*
X107415686Y-121000000D01*
%TO.N,Net-(JP10-A)*%
X28840686Y-85125000D02*
X28840686Y-85725000D01*
%TO.N,Net-(DG452_1-D_4)*%
X70050396Y-103200000D02*
X70550396Y-103700000D01*
X70550396Y-103700000D02*
X77929749Y-103700000D01*
X83115686Y-108885937D02*
X83115686Y-114634314D01*
X51265686Y-103000000D02*
X36015686Y-87750000D01*
X69746539Y-103200000D02*
X69546539Y-103000000D01*
%TO.N,Net-(JP13-A)*%
X36520686Y-85205000D02*
X36520686Y-85795000D01*
%TO.N,Net-(DG452_1-D_4)*%
X77929749Y-103700000D02*
X83115686Y-108885937D01*
%TO.N,Net-(JP13-A)*%
X35475686Y-79000000D02*
X36520686Y-80045000D01*
X36520686Y-85795000D02*
X36015686Y-86300000D01*
%TO.N,Net-(DG452_1-D_4)*%
X69546539Y-103000000D02*
X51265686Y-103000000D01*
X83115686Y-114634314D02*
X84681372Y-116200000D01*
%TO.N,Net-(JP13-A)*%
X36520686Y-80045000D02*
X36520686Y-85195000D01*
%TO.N,Net-(DG452_1-D_4)*%
X84681372Y-116200000D02*
X111815686Y-116200000D01*
%TO.N,Net-(JP13-A)*%
X36515686Y-85200000D02*
X36520686Y-85205000D01*
%TO.N,Net-(DG452_1-D_4)*%
X111815686Y-116200000D02*
X112415686Y-116800000D01*
%TO.N,Net-(JP13-A)*%
X36520686Y-85195000D02*
X36515686Y-85200000D01*
X35475686Y-75490000D02*
X35475686Y-79000000D01*
X36015686Y-74950000D02*
X35475686Y-75490000D01*
%TO.N,Net-(DG452_1-D_4)*%
X69746539Y-103200000D02*
X70050396Y-103200000D01*
%TO.N,Net-(DG452_1-S_1)*%
X49165686Y-103400000D02*
X33515686Y-87750000D01*
X84715686Y-116800000D02*
X107415686Y-116800000D01*
%TO.N,Net-(JP12-A)*%
X33915686Y-85100000D02*
X33920686Y-85105000D01*
X33515686Y-74950000D02*
X32935686Y-75530000D01*
X32935686Y-79000000D02*
X33920686Y-79985000D01*
X33920686Y-79985000D02*
X33920686Y-85095000D01*
X32935686Y-75530000D02*
X32935686Y-79000000D01*
%TO.N,Net-(DG452_1-S_1)*%
X77764064Y-104100000D02*
X82715686Y-109051622D01*
%TO.N,Net-(JP12-A)*%
X33920686Y-85105000D02*
X33920686Y-85895000D01*
%TO.N,Net-(DG452_1-S_1)*%
X69046536Y-103600000D02*
X68846536Y-103400000D01*
%TO.N,Net-(JP12-A)*%
X33920686Y-85895000D02*
X33515686Y-86300000D01*
X33920686Y-85095000D02*
X33915686Y-85100000D01*
%TO.N,Net-(DG452_1-S_1)*%
X82715686Y-109051622D02*
X82715686Y-114800000D01*
X69046536Y-103600000D02*
X69546536Y-104100000D01*
X82715686Y-114800000D02*
X84715686Y-116800000D01*
X69546536Y-104100000D02*
X77764064Y-104100000D01*
X68846536Y-103400000D02*
X49165686Y-103400000D01*
%TO.N,Net-(JP14-A)*%
X39000686Y-79985000D02*
X39000686Y-85185000D01*
%TO.N,Net-(DG452_1-S_2)*%
X70545925Y-102847000D02*
X70298925Y-102600000D01*
%TO.N,Net-(JP14-A)*%
X38015686Y-79000000D02*
X39000686Y-79985000D01*
X39000686Y-85215000D02*
X39000686Y-85815000D01*
%TO.N,Net-(DG452_1-S_2)*%
X71260867Y-103300000D02*
X78095435Y-103300000D01*
X78095435Y-103300000D02*
X83595435Y-108800000D01*
X53365686Y-102600000D02*
X38515686Y-87750000D01*
%TO.N,Net-(JP14-A)*%
X38515686Y-74975000D02*
X38515686Y-78500000D01*
%TO.N,Net-(DG452_1-S_2)*%
X70298925Y-102600000D02*
X53365686Y-102600000D01*
%TO.N,Net-(JP14-A)*%
X39015686Y-85200000D02*
X39000686Y-85215000D01*
X39000686Y-85815000D02*
X38515686Y-86300000D01*
X38515686Y-78500000D02*
X38015686Y-79000000D01*
X39000686Y-85185000D02*
X39015686Y-85200000D01*
%TO.N,Net-(DG452_1-S_2)*%
X83595435Y-108800000D02*
X107415686Y-108800000D01*
X70807867Y-102847000D02*
X71260867Y-103300000D01*
X70545925Y-102847000D02*
X70807867Y-102847000D01*
%TO.N,Net-(DG452_1-D_3)*%
X71709396Y-102900000D02*
X78261121Y-102900000D01*
X55490686Y-102200000D02*
X41015686Y-87725000D01*
X71209396Y-102400000D02*
X71009396Y-102200000D01*
%TO.N,Net-(JP15-A)*%
X41015686Y-78540000D02*
X40555686Y-79000000D01*
%TO.N,Net-(DG452_1-D_3)*%
X78261121Y-102900000D02*
X83461121Y-108100000D01*
%TO.N,Net-(JP15-A)*%
X41615686Y-85200000D02*
X41540686Y-85275000D01*
X41015686Y-74975000D02*
X41015686Y-78540000D01*
X40555686Y-79000000D02*
X41540686Y-79985000D01*
X41540686Y-85275000D02*
X41540686Y-85750000D01*
%TO.N,Net-(DG452_1-D_3)*%
X112315686Y-108100000D02*
X112515686Y-108300000D01*
%TO.N,Net-(JP15-A)*%
X41540686Y-85750000D02*
X41015686Y-86275000D01*
X41540686Y-79985000D02*
X41540686Y-85125000D01*
%TO.N,Net-(DG452_1-D_3)*%
X112515686Y-108300000D02*
X112515686Y-108800000D01*
%TO.N,Net-(JP15-A)*%
X41540686Y-85125000D02*
X41615686Y-85200000D01*
%TO.N,Net-(DG452_1-D_3)*%
X83461121Y-108100000D02*
X112315686Y-108100000D01*
X71009396Y-102200000D02*
X55490686Y-102200000D01*
X71209396Y-102400000D02*
X71709396Y-102900000D01*
%TO.N,Net-(JP19-A)*%
X51700686Y-79985000D02*
X51700686Y-85285000D01*
%TO.N,Net-(DG452_2-D_3)*%
X112215686Y-98700000D02*
X112515686Y-99000000D01*
%TO.N,Net-(JP19-A)*%
X50715686Y-79000000D02*
X51700686Y-79985000D01*
%TO.N,Net-(DG452_2-D_3)*%
X74264542Y-100800000D02*
X74064542Y-100600000D01*
X74264542Y-100800000D02*
X74664542Y-101200000D01*
%TO.N,Net-(JP19-A)*%
X51700686Y-85285000D02*
X51715686Y-85300000D01*
X51715686Y-85300000D02*
X51700686Y-85315000D01*
%TO.N,Net-(DG452_2-D_3)*%
X112515686Y-99000000D02*
X112515686Y-99300000D01*
%TO.N,Net-(JP19-A)*%
X51700686Y-85315000D02*
X51700686Y-85615000D01*
%TO.N,Net-(DG452_2-D_3)*%
X56850000Y-100600000D02*
X51015686Y-94765686D01*
%TO.N,Net-(JP19-A)*%
X51015686Y-78700000D02*
X50715686Y-79000000D01*
%TO.N,Net-(DG452_2-D_3)*%
X74664542Y-101200000D02*
X79750000Y-101200000D01*
X74064542Y-100600000D02*
X56850000Y-100600000D01*
%TO.N,Net-(JP19-A)*%
X51700686Y-85615000D02*
X51015686Y-86300000D01*
%TO.N,Net-(DG452_2-D_3)*%
X82250000Y-98700000D02*
X112215686Y-98700000D01*
%TO.N,Net-(JP19-A)*%
X51015686Y-74950000D02*
X51015686Y-78700000D01*
%TO.N,Net-(DG452_2-D_3)*%
X51015686Y-94765686D02*
X51015686Y-87750000D01*
X79750000Y-101200000D02*
X82250000Y-98700000D01*
%TO.N,Net-(DG452_2-S_2)*%
X73464539Y-101200000D02*
X73864539Y-101600000D01*
X79784315Y-101600000D02*
X79850000Y-101665685D01*
%TO.N,Net-(JP18-A)*%
X49160686Y-85655000D02*
X48515686Y-86300000D01*
X49160686Y-79985000D02*
X49160686Y-85245000D01*
%TO.N,Net-(DG452_2-S_2)*%
X73864539Y-101600000D02*
X79784315Y-101600000D01*
%TO.N,Net-(JP18-A)*%
X48515686Y-78660000D02*
X48175686Y-79000000D01*
%TO.N,Net-(DG452_2-S_2)*%
X82215685Y-99300000D02*
X107415686Y-99300000D01*
%TO.N,Net-(JP18-A)*%
X49160686Y-85355000D02*
X49160686Y-85655000D01*
X48515686Y-74975000D02*
X48515686Y-78660000D01*
%TO.N,Net-(DG452_2-S_2)*%
X48515686Y-92831372D02*
X48515686Y-87750000D01*
%TO.N,Net-(JP18-A)*%
X49160686Y-85245000D02*
X49215686Y-85300000D01*
%TO.N,Net-(DG452_2-S_2)*%
X56684314Y-101000000D02*
X48515686Y-92831372D01*
%TO.N,Net-(JP18-A)*%
X48175686Y-79000000D02*
X49160686Y-79985000D01*
%TO.N,Net-(DG452_2-S_2)*%
X73464539Y-101200000D02*
X73264539Y-101000000D01*
X79850000Y-101665685D02*
X82215685Y-99300000D01*
X73264539Y-101000000D02*
X56684314Y-101000000D01*
%TO.N,Net-(JP18-A)*%
X49215686Y-85300000D02*
X49160686Y-85355000D01*
%TO.N,Net-(JP17-A)*%
X46620686Y-85305000D02*
X46620686Y-85695000D01*
%TO.N,Net-(DG452_2-D_4)*%
X78492491Y-102000000D02*
X79892491Y-103400000D01*
X112515686Y-103700000D02*
X112515686Y-104200000D01*
X79892491Y-103400000D02*
X112215686Y-103400000D01*
X46015686Y-90897058D02*
X46015686Y-87750000D01*
%TO.N,Net-(JP17-A)*%
X46620686Y-85295000D02*
X46615686Y-85300000D01*
X46015686Y-78620000D02*
X45635686Y-79000000D01*
X46615686Y-85300000D02*
X46620686Y-85305000D01*
X45635686Y-79000000D02*
X46620686Y-79985000D01*
X46620686Y-85695000D02*
X46015686Y-86300000D01*
%TO.N,Net-(DG452_2-D_4)*%
X73126244Y-102000000D02*
X78492491Y-102000000D01*
X72726244Y-101600000D02*
X73126244Y-102000000D01*
X56518628Y-101400000D02*
X46015686Y-90897058D01*
%TO.N,Net-(JP17-A)*%
X46015686Y-74950000D02*
X46015686Y-78620000D01*
%TO.N,Net-(DG452_2-D_4)*%
X112215686Y-103400000D02*
X112515686Y-103700000D01*
%TO.N,Net-(JP17-A)*%
X46620686Y-79985000D02*
X46620686Y-85295000D01*
%TO.N,Net-(DG452_2-D_4)*%
X72526244Y-101400000D02*
X56518628Y-101400000D01*
X72726244Y-101600000D02*
X72526244Y-101400000D01*
%TO.N,Net-(DG452_2-S_1)*%
X107415686Y-106200000D02*
X107415686Y-104100000D01*
X56352942Y-101800000D02*
X43515686Y-88962744D01*
X72481355Y-102500000D02*
X78426806Y-102500000D01*
%TO.N,Net-(JP16-A)*%
X44080686Y-79985000D02*
X44080686Y-85265000D01*
X43515686Y-74975000D02*
X43515686Y-78580000D01*
%TO.N,Net-(DG452_2-S_1)*%
X71781355Y-101800000D02*
X56352942Y-101800000D01*
%TO.N,Net-(JP16-A)*%
X43095686Y-79000000D02*
X44080686Y-79985000D01*
X44080686Y-85335000D02*
X44080686Y-85735000D01*
%TO.N,Net-(DG452_2-S_1)*%
X71981355Y-102000000D02*
X72481355Y-102500000D01*
%TO.N,Net-(JP16-A)*%
X44080686Y-85265000D02*
X44115686Y-85300000D01*
X44115686Y-85300000D02*
X44080686Y-85335000D01*
%TO.N,Net-(DG452_2-S_1)*%
X82904089Y-106977283D02*
X106638403Y-106977283D01*
X43515686Y-88962744D02*
X43515686Y-87750000D01*
%TO.N,Net-(JP16-A)*%
X43515686Y-78580000D02*
X43095686Y-79000000D01*
%TO.N,Net-(DG452_2-S_1)*%
X71981355Y-102000000D02*
X71781355Y-101800000D01*
X106638403Y-106977283D02*
X107415686Y-106200000D01*
%TO.N,Net-(JP16-A)*%
X44080686Y-85735000D02*
X43515686Y-86300000D01*
%TO.N,Net-(DG452_2-S_1)*%
X78426806Y-102500000D02*
X82904089Y-106977283D01*
%TO.N,Net-(DG452_3-S_2)*%
X92452942Y-86800000D02*
X107315686Y-86800000D01*
X76485185Y-99703263D02*
X76744976Y-99703263D01*
%TO.N,Net-(JP22-A)*%
X58515686Y-78820000D02*
X58335686Y-79000000D01*
%TO.N,Net-(DG452_3-S_2)*%
X79352942Y-99900000D02*
X92452942Y-86800000D01*
%TO.N,Net-(JP22-A)*%
X59320686Y-85305000D02*
X59320686Y-85470000D01*
%TO.N,Net-(DG452_3-S_2)*%
X76485185Y-99703263D02*
X76181922Y-99400000D01*
X58515686Y-98300000D02*
X58515686Y-87725000D01*
%TO.N,Net-(JP22-A)*%
X58515686Y-74975000D02*
X58515686Y-78820000D01*
%TO.N,Net-(DG452_3-S_2)*%
X59615686Y-99400000D02*
X58515686Y-98300000D01*
%TO.N,Net-(JP22-A)*%
X58335686Y-79000000D02*
X59320686Y-79985000D01*
X59320686Y-85295000D02*
X59315686Y-85300000D01*
X59320686Y-85470000D02*
X58515686Y-86275000D01*
%TO.N,Net-(DG452_3-S_2)*%
X76941713Y-99900000D02*
X79352942Y-99900000D01*
X76181922Y-99400000D02*
X59615686Y-99400000D01*
X76744976Y-99703263D02*
X76941713Y-99900000D01*
%TO.N,Net-(JP22-A)*%
X59315686Y-85300000D02*
X59320686Y-85305000D01*
X59320686Y-79985000D02*
X59320686Y-85295000D01*
%TO.N,Net-(DG452_3-D_3)*%
X61015686Y-97700000D02*
X61015686Y-87750000D01*
%TO.N,Net-(JP45-A)*%
X60875686Y-79000000D02*
X61860686Y-79985000D01*
%TO.N,Net-(DG452_3-D_3)*%
X77290242Y-99400000D02*
X79287256Y-99400000D01*
%TO.N,Net-(JP45-A)*%
X61015686Y-78860000D02*
X60875686Y-79000000D01*
X61915686Y-85400000D02*
X61860686Y-85455000D01*
%TO.N,Net-(DG452_3-D_3)*%
X77152964Y-99262722D02*
X76890242Y-99000000D01*
X111515686Y-85800000D02*
X112415686Y-86700000D01*
X77152964Y-99262722D02*
X77290242Y-99400000D01*
%TO.N,Net-(JP45-A)*%
X61860686Y-85455000D02*
X61015686Y-86300000D01*
%TO.N,Net-(DG452_3-D_3)*%
X62315686Y-99000000D02*
X61015686Y-97700000D01*
X92887256Y-85800000D02*
X111515686Y-85800000D01*
%TO.N,Net-(JP45-A)*%
X61860686Y-79985000D02*
X61915686Y-85400000D01*
X61015686Y-74950000D02*
X61015686Y-78860000D01*
%TO.N,Net-(DG452_3-D_3)*%
X76890242Y-99000000D02*
X62315686Y-99000000D01*
X79287256Y-99400000D02*
X92887256Y-85800000D01*
%TO.N,Net-(JP21-A)*%
X56780686Y-79985000D02*
X56780686Y-85265000D01*
X56780686Y-85335000D02*
X56780686Y-85535000D01*
X56780686Y-85265000D02*
X56815686Y-85300000D01*
%TO.N,Net-(DG452_3-D_4)*%
X75700337Y-100000000D02*
X75500337Y-99800000D01*
X56015686Y-98600000D02*
X56015686Y-87750000D01*
X111815686Y-91000000D02*
X112415686Y-91600000D01*
X107067157Y-91000000D02*
X111815686Y-91000000D01*
X106867157Y-91200000D02*
X107067157Y-91000000D01*
%TO.N,Net-(JP21-A)*%
X56015686Y-74950000D02*
X56015686Y-78780000D01*
%TO.N,Net-(DG452_3-D_4)*%
X79418628Y-100400000D02*
X88618628Y-91200000D01*
%TO.N,Net-(JP21-A)*%
X56815686Y-85300000D02*
X56780686Y-85335000D01*
X56015686Y-78780000D02*
X55795686Y-79000000D01*
%TO.N,Net-(DG452_3-D_4)*%
X88618628Y-91200000D02*
X106867157Y-91200000D01*
%TO.N,Net-(JP21-A)*%
X56780686Y-85535000D02*
X56015686Y-86300000D01*
X55795686Y-79000000D02*
X56780686Y-79985000D01*
%TO.N,Net-(DG452_3-D_4)*%
X57215686Y-99800000D02*
X56015686Y-98600000D01*
X76100337Y-100400000D02*
X79418628Y-100400000D01*
X75700337Y-100000000D02*
X76100337Y-100400000D01*
X75500337Y-99800000D02*
X57215686Y-99800000D01*
%TO.N,Net-(DG452_3-S_1)*%
X79584314Y-100800000D02*
X82084314Y-98300000D01*
%TO.N,Net-(JP20-A)*%
X53515686Y-74975000D02*
X53515686Y-78740000D01*
X54215686Y-85300000D02*
X54240686Y-85325000D01*
%TO.N,Net-(DG452_3-S_1)*%
X74967996Y-100400000D02*
X74767996Y-100200000D01*
%TO.N,Net-(JP20-A)*%
X54240686Y-85275000D02*
X54215686Y-85300000D01*
X53255686Y-79000000D02*
X54240686Y-79985000D01*
%TO.N,Net-(DG452_3-S_1)*%
X82084314Y-98300000D02*
X100615686Y-98300000D01*
%TO.N,Net-(JP20-A)*%
X54240686Y-85550000D02*
X53515686Y-86275000D01*
%TO.N,Net-(DG452_3-S_1)*%
X74767996Y-100200000D02*
X57015686Y-100200000D01*
X53515686Y-96700000D02*
X53515686Y-87725000D01*
%TO.N,Net-(JP20-A)*%
X54240686Y-85325000D02*
X54240686Y-85550000D01*
X54240686Y-79985000D02*
X54240686Y-85275000D01*
%TO.N,Net-(DG452_3-S_1)*%
X57015686Y-100200000D02*
X53515686Y-96700000D01*
X74967996Y-100400000D02*
X75367996Y-100800000D01*
X75367996Y-100800000D02*
X79584314Y-100800000D01*
%TO.N,Net-(JP20-A)*%
X53515686Y-78740000D02*
X53255686Y-79000000D01*
%TO.N,Net-(DG452_3-S_1)*%
X100615686Y-98300000D02*
X107315686Y-91600000D01*
%TO.N,Net-(J4-Pin_17)*%
X60615686Y-60900000D02*
X54615686Y-54900000D01*
X20990198Y-54900000D02*
X17415686Y-58474512D01*
X54615686Y-54900000D02*
X20990198Y-54900000D01*
X17415686Y-58474512D02*
X17415686Y-64337834D01*
X17415686Y-64337834D02*
X25177852Y-72100000D01*
X27115686Y-72100000D02*
X28515686Y-73500000D01*
X25177852Y-72100000D02*
X27115686Y-72100000D01*
%TO.N,Net-(J4-Pin_18)*%
X21155884Y-55300000D02*
X17815686Y-58640198D01*
X17815686Y-58640198D02*
X17815686Y-64172148D01*
X29215686Y-71700000D02*
X31015686Y-73500000D01*
X25343538Y-71700000D02*
X29215686Y-71700000D01*
X58115686Y-60900000D02*
X52515686Y-55300000D01*
X52515686Y-55300000D02*
X21155884Y-55300000D01*
X17815686Y-64172148D02*
X25343538Y-71700000D01*
%TO.N,Net-(J4-Pin_19)*%
X50415686Y-55700000D02*
X21321570Y-55700000D01*
X21321570Y-55700000D02*
X18215686Y-58805884D01*
X18215686Y-64006462D02*
X25509224Y-71300000D01*
X25509224Y-71300000D02*
X31315686Y-71300000D01*
X31315686Y-71300000D02*
X33515686Y-73500000D01*
X18215686Y-58805884D02*
X18215686Y-64006462D01*
X55615686Y-60900000D02*
X50415686Y-55700000D01*
%TO.N,Net-(J4-Pin_20)*%
X48315686Y-56100000D02*
X21487256Y-56100000D01*
X53115686Y-60900000D02*
X48315686Y-56100000D01*
X21487256Y-56100000D02*
X18615686Y-58971570D01*
X33415686Y-70900000D02*
X36015686Y-73500000D01*
X25674910Y-70900000D02*
X33415686Y-70900000D01*
X18615686Y-63840776D02*
X25674910Y-70900000D01*
X18615686Y-58971570D02*
X18615686Y-63840776D01*
%TO.N,Net-(J4-Pin_21)*%
X19015686Y-59137256D02*
X19015686Y-63675090D01*
X50615686Y-60900000D02*
X46215686Y-56500000D01*
X25840596Y-70500000D02*
X34697022Y-70500000D01*
X19015686Y-63675090D02*
X25840596Y-70500000D01*
X37867119Y-73670097D02*
X38815686Y-73670097D01*
X21652942Y-56500000D02*
X19015686Y-59137256D01*
X34697022Y-70500000D02*
X37867119Y-73670097D01*
X46215686Y-56500000D02*
X21652942Y-56500000D01*
%TO.N,Net-(J4-Pin_22)*%
X26006282Y-70100000D02*
X37590686Y-70100000D01*
X21818628Y-56900000D02*
X19415686Y-59302942D01*
X19415686Y-63509404D02*
X26006282Y-70100000D01*
X37590686Y-70100000D02*
X41015686Y-73525000D01*
X48115686Y-60900000D02*
X44115686Y-56900000D01*
X44115686Y-56900000D02*
X21818628Y-56900000D01*
X19415686Y-59302942D02*
X19415686Y-63509404D01*
%TO.N,Net-(J4-Pin_23)*%
X35705686Y-65715000D02*
X22186968Y-65715000D01*
X43515686Y-73525000D02*
X35705686Y-65715000D01*
X19815686Y-63343718D02*
X19815686Y-59468628D01*
X42015686Y-57300000D02*
X45615686Y-60900000D01*
X19815686Y-59468628D02*
X21984314Y-57300000D01*
X21984314Y-57300000D02*
X42015686Y-57300000D01*
X22186968Y-65715000D02*
X19815686Y-63343718D01*
%TO.N,Net-(J4-Pin_24)*%
X39915686Y-57700000D02*
X43115686Y-60900000D01*
X21344170Y-64306516D02*
X20215686Y-63178032D01*
X22150000Y-57700000D02*
X39915686Y-57700000D01*
X46015686Y-73500000D02*
X37830686Y-65315000D01*
X20215686Y-63178032D02*
X20215686Y-59634314D01*
X20215686Y-59634314D02*
X22150000Y-57700000D01*
X37830686Y-65315000D02*
X22352653Y-65315000D01*
X22352653Y-65315000D02*
X21344170Y-64306516D01*
%TO.N,Net-(J4-Pin_25)*%
X48515686Y-73525000D02*
X39905686Y-64915000D01*
X22518339Y-64915000D02*
X20615686Y-63012347D01*
X22315686Y-58100000D02*
X37815686Y-58100000D01*
X37815686Y-58100000D02*
X40615686Y-60900000D01*
X20615686Y-63012347D02*
X20615686Y-59800000D01*
X39905686Y-64915000D02*
X22518339Y-64915000D01*
X20615686Y-59800000D02*
X22315686Y-58100000D01*
%TO.N,Net-(J4-Pin_26)*%
X22684025Y-64515000D02*
X21015686Y-62846661D01*
X21015686Y-59965686D02*
X22481372Y-58500000D01*
X42030686Y-64515000D02*
X22684025Y-64515000D01*
X35715686Y-58500000D02*
X38115686Y-60900000D01*
X21015686Y-62846661D02*
X21015686Y-59965686D01*
X51015686Y-73500000D02*
X42030686Y-64515000D01*
X22481372Y-58500000D02*
X35715686Y-58500000D01*
%TO.N,Net-(J4-Pin_27)*%
X22849711Y-64115000D02*
X21415686Y-62680975D01*
X21415686Y-60200000D02*
X22715686Y-58900000D01*
X44105686Y-64115000D02*
X22849711Y-64115000D01*
X22715686Y-58900000D02*
X33615686Y-58900000D01*
X21415686Y-62680975D02*
X21415686Y-60200000D01*
X33615686Y-58900000D02*
X35615686Y-60900000D01*
X53515686Y-73525000D02*
X44105686Y-64115000D01*
%TO.N,Net-(J4-Pin_28)*%
X23015397Y-63715000D02*
X22781082Y-63480686D01*
X22881372Y-59300000D02*
X31515686Y-59300000D01*
X56015686Y-73500000D02*
X46230686Y-63715000D01*
X21815686Y-60365686D02*
X22881372Y-59300000D01*
X31515686Y-59300000D02*
X33115686Y-60900000D01*
X21815686Y-62515290D02*
X21815686Y-60365686D01*
X46230686Y-63715000D02*
X23015397Y-63715000D01*
X22781082Y-63480686D02*
X21815686Y-62515290D01*
%TO.N,Net-(J4-Pin_29)*%
X23181082Y-63315000D02*
X22215686Y-62349604D01*
X22215686Y-60531372D02*
X23047058Y-59700000D01*
X29415686Y-59700000D02*
X30615686Y-60900000D01*
X23047058Y-59700000D02*
X29415686Y-59700000D01*
X48305686Y-63315000D02*
X23181082Y-63315000D01*
X22215686Y-62349604D02*
X22215686Y-60531372D01*
X58515686Y-73525000D02*
X48305686Y-63315000D01*
%TO.N,Net-(J4-Pin_30)*%
X23915396Y-62815000D02*
X23875541Y-62854855D01*
X22615686Y-61780686D02*
X22615686Y-60697058D01*
X23875541Y-62854855D02*
X23689855Y-62854855D01*
X24544316Y-62815000D02*
X23915396Y-62815000D01*
X24644316Y-62915000D02*
X24544316Y-62815000D01*
X61015686Y-73500000D02*
X50430686Y-62915000D01*
X23212744Y-60100000D02*
X27315686Y-60100000D01*
X27315686Y-60100000D02*
X28115686Y-60900000D01*
X22615686Y-60697058D02*
X23212744Y-60100000D01*
X23689855Y-62854855D02*
X22615686Y-61780686D01*
X50430686Y-62915000D02*
X24644316Y-62915000D01*
%TO.N,Net-(J4-Pin_16)*%
X17015686Y-58308826D02*
X17015686Y-64503520D01*
X20824512Y-54500000D02*
X17015686Y-58308826D01*
X26015686Y-73503520D02*
X26015686Y-73525000D01*
X63115686Y-60900000D02*
X60315686Y-58100000D01*
X56615686Y-54500000D02*
X20824512Y-54500000D01*
X60315686Y-58100000D02*
X60215686Y-58100000D01*
X60215686Y-58100000D02*
X56615686Y-54500000D01*
X17015686Y-64503520D02*
X26015686Y-73503520D01*
%TO.N,Net-(J4-Pin_15)*%
X16615686Y-58143140D02*
X16615686Y-64669206D01*
X16615686Y-64669206D02*
X23515686Y-71569206D01*
X65615686Y-60900000D02*
X58815686Y-54100000D01*
X20658826Y-54100000D02*
X16615686Y-58143140D01*
X58815686Y-54100000D02*
X20658826Y-54100000D01*
X23515686Y-71569206D02*
X23515686Y-73500000D01*
D27*
%TO.N,GND*%
X16015686Y-56600000D02*
X17015686Y-55600000D01*
X16015686Y-67015000D02*
X16015686Y-56600000D01*
%TD*%
M02*
