%TF.GenerationSoftware,KiCad,Pcbnew,8.0.3-1.fc40*%
%TF.CreationDate,2024-06-20T20:24:05-04:00*%
%TF.ProjectId,sampler_split_sensor,73616d70-6c65-4725-9f73-706c69745f73,rev?*%
%TF.SameCoordinates,Original*%
%TF.FileFunction,Legend,Bot*%
%TF.FilePolarity,Positive*%
%FSLAX46Y46*%
G04 Gerber Fmt 4.6, Leading zero omitted, Abs format (unit mm)*
G04 Created by KiCad (PCBNEW 8.0.3-1.fc40) date 2024-06-20 20:24:05*
%MOMM*%
%LPD*%
G01*
G04 APERTURE LIST*
%ADD10C,0.100000*%
%ADD11C,0.120000*%
G04 APERTURE END LIST*
D10*
X47696115Y-55572419D02*
X47696115Y-54572419D01*
X47267544Y-55572419D02*
X47267544Y-55048609D01*
X47267544Y-55048609D02*
X47315163Y-54953371D01*
X47315163Y-54953371D02*
X47410401Y-54905752D01*
X47410401Y-54905752D02*
X47553258Y-54905752D01*
X47553258Y-54905752D02*
X47648496Y-54953371D01*
X47648496Y-54953371D02*
X47696115Y-55000990D01*
X46410401Y-55524800D02*
X46505639Y-55572419D01*
X46505639Y-55572419D02*
X46696115Y-55572419D01*
X46696115Y-55572419D02*
X46791353Y-55524800D01*
X46791353Y-55524800D02*
X46838972Y-55429561D01*
X46838972Y-55429561D02*
X46838972Y-55048609D01*
X46838972Y-55048609D02*
X46791353Y-54953371D01*
X46791353Y-54953371D02*
X46696115Y-54905752D01*
X46696115Y-54905752D02*
X46505639Y-54905752D01*
X46505639Y-54905752D02*
X46410401Y-54953371D01*
X46410401Y-54953371D02*
X46362782Y-55048609D01*
X46362782Y-55048609D02*
X46362782Y-55143847D01*
X46362782Y-55143847D02*
X46838972Y-55239085D01*
X45934210Y-55572419D02*
X45934210Y-54905752D01*
X45934210Y-55096228D02*
X45886591Y-55000990D01*
X45886591Y-55000990D02*
X45838972Y-54953371D01*
X45838972Y-54953371D02*
X45743734Y-54905752D01*
X45743734Y-54905752D02*
X45648496Y-54905752D01*
X44934210Y-55524800D02*
X45029448Y-55572419D01*
X45029448Y-55572419D02*
X45219924Y-55572419D01*
X45219924Y-55572419D02*
X45315162Y-55524800D01*
X45315162Y-55524800D02*
X45362781Y-55429561D01*
X45362781Y-55429561D02*
X45362781Y-55048609D01*
X45362781Y-55048609D02*
X45315162Y-54953371D01*
X45315162Y-54953371D02*
X45219924Y-54905752D01*
X45219924Y-54905752D02*
X45029448Y-54905752D01*
X45029448Y-54905752D02*
X44934210Y-54953371D01*
X44934210Y-54953371D02*
X44886591Y-55048609D01*
X44886591Y-55048609D02*
X44886591Y-55143847D01*
X44886591Y-55143847D02*
X45362781Y-55239085D01*
X43696114Y-55572419D02*
X43696114Y-54572419D01*
X43696114Y-54953371D02*
X43600876Y-54905752D01*
X43600876Y-54905752D02*
X43410400Y-54905752D01*
X43410400Y-54905752D02*
X43315162Y-54953371D01*
X43315162Y-54953371D02*
X43267543Y-55000990D01*
X43267543Y-55000990D02*
X43219924Y-55096228D01*
X43219924Y-55096228D02*
X43219924Y-55381942D01*
X43219924Y-55381942D02*
X43267543Y-55477180D01*
X43267543Y-55477180D02*
X43315162Y-55524800D01*
X43315162Y-55524800D02*
X43410400Y-55572419D01*
X43410400Y-55572419D02*
X43600876Y-55572419D01*
X43600876Y-55572419D02*
X43696114Y-55524800D01*
X42410400Y-55524800D02*
X42505638Y-55572419D01*
X42505638Y-55572419D02*
X42696114Y-55572419D01*
X42696114Y-55572419D02*
X42791352Y-55524800D01*
X42791352Y-55524800D02*
X42838971Y-55429561D01*
X42838971Y-55429561D02*
X42838971Y-55048609D01*
X42838971Y-55048609D02*
X42791352Y-54953371D01*
X42791352Y-54953371D02*
X42696114Y-54905752D01*
X42696114Y-54905752D02*
X42505638Y-54905752D01*
X42505638Y-54905752D02*
X42410400Y-54953371D01*
X42410400Y-54953371D02*
X42362781Y-55048609D01*
X42362781Y-55048609D02*
X42362781Y-55143847D01*
X42362781Y-55143847D02*
X42838971Y-55239085D01*
X40743733Y-55572419D02*
X40743733Y-54572419D01*
X40743733Y-55524800D02*
X40838971Y-55572419D01*
X40838971Y-55572419D02*
X41029447Y-55572419D01*
X41029447Y-55572419D02*
X41124685Y-55524800D01*
X41124685Y-55524800D02*
X41172304Y-55477180D01*
X41172304Y-55477180D02*
X41219923Y-55381942D01*
X41219923Y-55381942D02*
X41219923Y-55096228D01*
X41219923Y-55096228D02*
X41172304Y-55000990D01*
X41172304Y-55000990D02*
X41124685Y-54953371D01*
X41124685Y-54953371D02*
X41029447Y-54905752D01*
X41029447Y-54905752D02*
X40838971Y-54905752D01*
X40838971Y-54905752D02*
X40743733Y-54953371D01*
X40267542Y-55572419D02*
X40267542Y-54905752D01*
X40267542Y-55096228D02*
X40219923Y-55000990D01*
X40219923Y-55000990D02*
X40172304Y-54953371D01*
X40172304Y-54953371D02*
X40077066Y-54905752D01*
X40077066Y-54905752D02*
X39981828Y-54905752D01*
X39219923Y-55572419D02*
X39219923Y-55048609D01*
X39219923Y-55048609D02*
X39267542Y-54953371D01*
X39267542Y-54953371D02*
X39362780Y-54905752D01*
X39362780Y-54905752D02*
X39553256Y-54905752D01*
X39553256Y-54905752D02*
X39648494Y-54953371D01*
X39219923Y-55524800D02*
X39315161Y-55572419D01*
X39315161Y-55572419D02*
X39553256Y-55572419D01*
X39553256Y-55572419D02*
X39648494Y-55524800D01*
X39648494Y-55524800D02*
X39696113Y-55429561D01*
X39696113Y-55429561D02*
X39696113Y-55334323D01*
X39696113Y-55334323D02*
X39648494Y-55239085D01*
X39648494Y-55239085D02*
X39553256Y-55191466D01*
X39553256Y-55191466D02*
X39315161Y-55191466D01*
X39315161Y-55191466D02*
X39219923Y-55143847D01*
X38315161Y-54905752D02*
X38315161Y-55715276D01*
X38315161Y-55715276D02*
X38362780Y-55810514D01*
X38362780Y-55810514D02*
X38410399Y-55858133D01*
X38410399Y-55858133D02*
X38505637Y-55905752D01*
X38505637Y-55905752D02*
X38648494Y-55905752D01*
X38648494Y-55905752D02*
X38743732Y-55858133D01*
X38315161Y-55524800D02*
X38410399Y-55572419D01*
X38410399Y-55572419D02*
X38600875Y-55572419D01*
X38600875Y-55572419D02*
X38696113Y-55524800D01*
X38696113Y-55524800D02*
X38743732Y-55477180D01*
X38743732Y-55477180D02*
X38791351Y-55381942D01*
X38791351Y-55381942D02*
X38791351Y-55096228D01*
X38791351Y-55096228D02*
X38743732Y-55000990D01*
X38743732Y-55000990D02*
X38696113Y-54953371D01*
X38696113Y-54953371D02*
X38600875Y-54905752D01*
X38600875Y-54905752D02*
X38410399Y-54905752D01*
X38410399Y-54905752D02*
X38315161Y-54953371D01*
X37696113Y-55572419D02*
X37791351Y-55524800D01*
X37791351Y-55524800D02*
X37838970Y-55477180D01*
X37838970Y-55477180D02*
X37886589Y-55381942D01*
X37886589Y-55381942D02*
X37886589Y-55096228D01*
X37886589Y-55096228D02*
X37838970Y-55000990D01*
X37838970Y-55000990D02*
X37791351Y-54953371D01*
X37791351Y-54953371D02*
X37696113Y-54905752D01*
X37696113Y-54905752D02*
X37553256Y-54905752D01*
X37553256Y-54905752D02*
X37458018Y-54953371D01*
X37458018Y-54953371D02*
X37410399Y-55000990D01*
X37410399Y-55000990D02*
X37362780Y-55096228D01*
X37362780Y-55096228D02*
X37362780Y-55381942D01*
X37362780Y-55381942D02*
X37410399Y-55477180D01*
X37410399Y-55477180D02*
X37458018Y-55524800D01*
X37458018Y-55524800D02*
X37553256Y-55572419D01*
X37553256Y-55572419D02*
X37696113Y-55572419D01*
X36934208Y-54905752D02*
X36934208Y-55572419D01*
X36934208Y-55000990D02*
X36886589Y-54953371D01*
X36886589Y-54953371D02*
X36791351Y-54905752D01*
X36791351Y-54905752D02*
X36648494Y-54905752D01*
X36648494Y-54905752D02*
X36553256Y-54953371D01*
X36553256Y-54953371D02*
X36505637Y-55048609D01*
X36505637Y-55048609D02*
X36505637Y-55572419D01*
X36077065Y-55524800D02*
X35981827Y-55572419D01*
X35981827Y-55572419D02*
X35791351Y-55572419D01*
X35791351Y-55572419D02*
X35696113Y-55524800D01*
X35696113Y-55524800D02*
X35648494Y-55429561D01*
X35648494Y-55429561D02*
X35648494Y-55381942D01*
X35648494Y-55381942D02*
X35696113Y-55286704D01*
X35696113Y-55286704D02*
X35791351Y-55239085D01*
X35791351Y-55239085D02*
X35934208Y-55239085D01*
X35934208Y-55239085D02*
X36029446Y-55191466D01*
X36029446Y-55191466D02*
X36077065Y-55096228D01*
X36077065Y-55096228D02*
X36077065Y-55048609D01*
X36077065Y-55048609D02*
X36029446Y-54953371D01*
X36029446Y-54953371D02*
X35934208Y-54905752D01*
X35934208Y-54905752D02*
X35791351Y-54905752D01*
X35791351Y-54905752D02*
X35696113Y-54953371D01*
X88438972Y-55567657D02*
X88248496Y-55424800D01*
X88248496Y-55424800D02*
X88058020Y-55567657D01*
X87105638Y-55805752D02*
X86724686Y-55805752D01*
X86962781Y-55472419D02*
X86962781Y-56329561D01*
X86962781Y-56329561D02*
X86915162Y-56424800D01*
X86915162Y-56424800D02*
X86819924Y-56472419D01*
X86819924Y-56472419D02*
X86724686Y-56472419D01*
X86248495Y-56472419D02*
X86343733Y-56424800D01*
X86343733Y-56424800D02*
X86391352Y-56377180D01*
X86391352Y-56377180D02*
X86438971Y-56281942D01*
X86438971Y-56281942D02*
X86438971Y-55996228D01*
X86438971Y-55996228D02*
X86391352Y-55900990D01*
X86391352Y-55900990D02*
X86343733Y-55853371D01*
X86343733Y-55853371D02*
X86248495Y-55805752D01*
X86248495Y-55805752D02*
X86105638Y-55805752D01*
X86105638Y-55805752D02*
X86010400Y-55853371D01*
X86010400Y-55853371D02*
X85962781Y-55900990D01*
X85962781Y-55900990D02*
X85915162Y-55996228D01*
X85915162Y-55996228D02*
X85915162Y-56281942D01*
X85915162Y-56281942D02*
X85962781Y-56377180D01*
X85962781Y-56377180D02*
X86010400Y-56424800D01*
X86010400Y-56424800D02*
X86105638Y-56472419D01*
X86105638Y-56472419D02*
X86248495Y-56472419D01*
X85058019Y-55805752D02*
X85058019Y-56472419D01*
X85486590Y-55805752D02*
X85486590Y-56329561D01*
X85486590Y-56329561D02*
X85438971Y-56424800D01*
X85438971Y-56424800D02*
X85343733Y-56472419D01*
X85343733Y-56472419D02*
X85200876Y-56472419D01*
X85200876Y-56472419D02*
X85105638Y-56424800D01*
X85105638Y-56424800D02*
X85058019Y-56377180D01*
X84153257Y-56424800D02*
X84248495Y-56472419D01*
X84248495Y-56472419D02*
X84438971Y-56472419D01*
X84438971Y-56472419D02*
X84534209Y-56424800D01*
X84534209Y-56424800D02*
X84581828Y-56377180D01*
X84581828Y-56377180D02*
X84629447Y-56281942D01*
X84629447Y-56281942D02*
X84629447Y-55996228D01*
X84629447Y-55996228D02*
X84581828Y-55900990D01*
X84581828Y-55900990D02*
X84534209Y-55853371D01*
X84534209Y-55853371D02*
X84438971Y-55805752D01*
X84438971Y-55805752D02*
X84248495Y-55805752D01*
X84248495Y-55805752D02*
X84153257Y-55853371D01*
X83724685Y-56472419D02*
X83724685Y-55472419D01*
X83296114Y-56472419D02*
X83296114Y-55948609D01*
X83296114Y-55948609D02*
X83343733Y-55853371D01*
X83343733Y-55853371D02*
X83438971Y-55805752D01*
X83438971Y-55805752D02*
X83581828Y-55805752D01*
X83581828Y-55805752D02*
X83677066Y-55853371D01*
X83677066Y-55853371D02*
X83724685Y-55900990D01*
X81629447Y-55805752D02*
X81629447Y-56615276D01*
X81629447Y-56615276D02*
X81677066Y-56710514D01*
X81677066Y-56710514D02*
X81724685Y-56758133D01*
X81724685Y-56758133D02*
X81819923Y-56805752D01*
X81819923Y-56805752D02*
X81962780Y-56805752D01*
X81962780Y-56805752D02*
X82058018Y-56758133D01*
X81629447Y-56424800D02*
X81724685Y-56472419D01*
X81724685Y-56472419D02*
X81915161Y-56472419D01*
X81915161Y-56472419D02*
X82010399Y-56424800D01*
X82010399Y-56424800D02*
X82058018Y-56377180D01*
X82058018Y-56377180D02*
X82105637Y-56281942D01*
X82105637Y-56281942D02*
X82105637Y-55996228D01*
X82105637Y-55996228D02*
X82058018Y-55900990D01*
X82058018Y-55900990D02*
X82010399Y-55853371D01*
X82010399Y-55853371D02*
X81915161Y-55805752D01*
X81915161Y-55805752D02*
X81724685Y-55805752D01*
X81724685Y-55805752D02*
X81629447Y-55853371D01*
X81153256Y-56472419D02*
X81153256Y-55805752D01*
X81153256Y-55996228D02*
X81105637Y-55900990D01*
X81105637Y-55900990D02*
X81058018Y-55853371D01*
X81058018Y-55853371D02*
X80962780Y-55805752D01*
X80962780Y-55805752D02*
X80867542Y-55805752D01*
X80391351Y-56472419D02*
X80486589Y-56424800D01*
X80486589Y-56424800D02*
X80534208Y-56377180D01*
X80534208Y-56377180D02*
X80581827Y-56281942D01*
X80581827Y-56281942D02*
X80581827Y-55996228D01*
X80581827Y-55996228D02*
X80534208Y-55900990D01*
X80534208Y-55900990D02*
X80486589Y-55853371D01*
X80486589Y-55853371D02*
X80391351Y-55805752D01*
X80391351Y-55805752D02*
X80248494Y-55805752D01*
X80248494Y-55805752D02*
X80153256Y-55853371D01*
X80153256Y-55853371D02*
X80105637Y-55900990D01*
X80105637Y-55900990D02*
X80058018Y-55996228D01*
X80058018Y-55996228D02*
X80058018Y-56281942D01*
X80058018Y-56281942D02*
X80105637Y-56377180D01*
X80105637Y-56377180D02*
X80153256Y-56424800D01*
X80153256Y-56424800D02*
X80248494Y-56472419D01*
X80248494Y-56472419D02*
X80391351Y-56472419D01*
X79200875Y-55805752D02*
X79200875Y-56472419D01*
X79629446Y-55805752D02*
X79629446Y-56329561D01*
X79629446Y-56329561D02*
X79581827Y-56424800D01*
X79581827Y-56424800D02*
X79486589Y-56472419D01*
X79486589Y-56472419D02*
X79343732Y-56472419D01*
X79343732Y-56472419D02*
X79248494Y-56424800D01*
X79248494Y-56424800D02*
X79200875Y-56377180D01*
X78724684Y-55805752D02*
X78724684Y-56472419D01*
X78724684Y-55900990D02*
X78677065Y-55853371D01*
X78677065Y-55853371D02*
X78581827Y-55805752D01*
X78581827Y-55805752D02*
X78438970Y-55805752D01*
X78438970Y-55805752D02*
X78343732Y-55853371D01*
X78343732Y-55853371D02*
X78296113Y-55948609D01*
X78296113Y-55948609D02*
X78296113Y-56472419D01*
X77391351Y-56472419D02*
X77391351Y-55472419D01*
X77391351Y-56424800D02*
X77486589Y-56472419D01*
X77486589Y-56472419D02*
X77677065Y-56472419D01*
X77677065Y-56472419D02*
X77772303Y-56424800D01*
X77772303Y-56424800D02*
X77819922Y-56377180D01*
X77819922Y-56377180D02*
X77867541Y-56281942D01*
X77867541Y-56281942D02*
X77867541Y-55996228D01*
X77867541Y-55996228D02*
X77819922Y-55900990D01*
X77819922Y-55900990D02*
X77772303Y-55853371D01*
X77772303Y-55853371D02*
X77677065Y-55805752D01*
X77677065Y-55805752D02*
X77486589Y-55805752D01*
X77486589Y-55805752D02*
X77391351Y-55853371D01*
X76296112Y-55805752D02*
X75915160Y-55805752D01*
X76153255Y-55472419D02*
X76153255Y-56329561D01*
X76153255Y-56329561D02*
X76105636Y-56424800D01*
X76105636Y-56424800D02*
X76010398Y-56472419D01*
X76010398Y-56472419D02*
X75915160Y-56472419D01*
X75438969Y-56472419D02*
X75534207Y-56424800D01*
X75534207Y-56424800D02*
X75581826Y-56377180D01*
X75581826Y-56377180D02*
X75629445Y-56281942D01*
X75629445Y-56281942D02*
X75629445Y-55996228D01*
X75629445Y-55996228D02*
X75581826Y-55900990D01*
X75581826Y-55900990D02*
X75534207Y-55853371D01*
X75534207Y-55853371D02*
X75438969Y-55805752D01*
X75438969Y-55805752D02*
X75296112Y-55805752D01*
X75296112Y-55805752D02*
X75200874Y-55853371D01*
X75200874Y-55853371D02*
X75153255Y-55900990D01*
X75153255Y-55900990D02*
X75105636Y-55996228D01*
X75105636Y-55996228D02*
X75105636Y-56281942D01*
X75105636Y-56281942D02*
X75153255Y-56377180D01*
X75153255Y-56377180D02*
X75200874Y-56424800D01*
X75200874Y-56424800D02*
X75296112Y-56472419D01*
X75296112Y-56472419D02*
X75438969Y-56472419D01*
X73962778Y-56424800D02*
X73867540Y-56472419D01*
X73867540Y-56472419D02*
X73677064Y-56472419D01*
X73677064Y-56472419D02*
X73581826Y-56424800D01*
X73581826Y-56424800D02*
X73534207Y-56329561D01*
X73534207Y-56329561D02*
X73534207Y-56281942D01*
X73534207Y-56281942D02*
X73581826Y-56186704D01*
X73581826Y-56186704D02*
X73677064Y-56139085D01*
X73677064Y-56139085D02*
X73819921Y-56139085D01*
X73819921Y-56139085D02*
X73915159Y-56091466D01*
X73915159Y-56091466D02*
X73962778Y-55996228D01*
X73962778Y-55996228D02*
X73962778Y-55948609D01*
X73962778Y-55948609D02*
X73915159Y-55853371D01*
X73915159Y-55853371D02*
X73819921Y-55805752D01*
X73819921Y-55805752D02*
X73677064Y-55805752D01*
X73677064Y-55805752D02*
X73581826Y-55853371D01*
X73105635Y-55805752D02*
X73105635Y-56805752D01*
X73105635Y-55853371D02*
X73010397Y-55805752D01*
X73010397Y-55805752D02*
X72819921Y-55805752D01*
X72819921Y-55805752D02*
X72724683Y-55853371D01*
X72724683Y-55853371D02*
X72677064Y-55900990D01*
X72677064Y-55900990D02*
X72629445Y-55996228D01*
X72629445Y-55996228D02*
X72629445Y-56281942D01*
X72629445Y-56281942D02*
X72677064Y-56377180D01*
X72677064Y-56377180D02*
X72724683Y-56424800D01*
X72724683Y-56424800D02*
X72819921Y-56472419D01*
X72819921Y-56472419D02*
X73010397Y-56472419D01*
X73010397Y-56472419D02*
X73105635Y-56424800D01*
X71819921Y-56424800D02*
X71915159Y-56472419D01*
X71915159Y-56472419D02*
X72105635Y-56472419D01*
X72105635Y-56472419D02*
X72200873Y-56424800D01*
X72200873Y-56424800D02*
X72248492Y-56329561D01*
X72248492Y-56329561D02*
X72248492Y-55948609D01*
X72248492Y-55948609D02*
X72200873Y-55853371D01*
X72200873Y-55853371D02*
X72105635Y-55805752D01*
X72105635Y-55805752D02*
X71915159Y-55805752D01*
X71915159Y-55805752D02*
X71819921Y-55853371D01*
X71819921Y-55853371D02*
X71772302Y-55948609D01*
X71772302Y-55948609D02*
X71772302Y-56043847D01*
X71772302Y-56043847D02*
X72248492Y-56139085D01*
X70915159Y-56472419D02*
X70915159Y-55948609D01*
X70915159Y-55948609D02*
X70962778Y-55853371D01*
X70962778Y-55853371D02*
X71058016Y-55805752D01*
X71058016Y-55805752D02*
X71248492Y-55805752D01*
X71248492Y-55805752D02*
X71343730Y-55853371D01*
X70915159Y-56424800D02*
X71010397Y-56472419D01*
X71010397Y-56472419D02*
X71248492Y-56472419D01*
X71248492Y-56472419D02*
X71343730Y-56424800D01*
X71343730Y-56424800D02*
X71391349Y-56329561D01*
X71391349Y-56329561D02*
X71391349Y-56234323D01*
X71391349Y-56234323D02*
X71343730Y-56139085D01*
X71343730Y-56139085D02*
X71248492Y-56091466D01*
X71248492Y-56091466D02*
X71010397Y-56091466D01*
X71010397Y-56091466D02*
X70915159Y-56043847D01*
X70438968Y-56472419D02*
X70438968Y-55472419D01*
X70343730Y-56091466D02*
X70058016Y-56472419D01*
X70058016Y-55805752D02*
X70438968Y-56186704D01*
X69010396Y-55805752D02*
X68629444Y-55805752D01*
X68867539Y-55472419D02*
X68867539Y-56329561D01*
X68867539Y-56329561D02*
X68819920Y-56424800D01*
X68819920Y-56424800D02*
X68724682Y-56472419D01*
X68724682Y-56472419D02*
X68629444Y-56472419D01*
X68153253Y-56472419D02*
X68248491Y-56424800D01*
X68248491Y-56424800D02*
X68296110Y-56377180D01*
X68296110Y-56377180D02*
X68343729Y-56281942D01*
X68343729Y-56281942D02*
X68343729Y-55996228D01*
X68343729Y-55996228D02*
X68296110Y-55900990D01*
X68296110Y-55900990D02*
X68248491Y-55853371D01*
X68248491Y-55853371D02*
X68153253Y-55805752D01*
X68153253Y-55805752D02*
X68010396Y-55805752D01*
X68010396Y-55805752D02*
X67915158Y-55853371D01*
X67915158Y-55853371D02*
X67867539Y-55900990D01*
X67867539Y-55900990D02*
X67819920Y-55996228D01*
X67819920Y-55996228D02*
X67819920Y-56281942D01*
X67819920Y-56281942D02*
X67867539Y-56377180D01*
X67867539Y-56377180D02*
X67915158Y-56424800D01*
X67915158Y-56424800D02*
X68010396Y-56472419D01*
X68010396Y-56472419D02*
X68153253Y-56472419D01*
X66200872Y-56472419D02*
X66200872Y-55948609D01*
X66200872Y-55948609D02*
X66248491Y-55853371D01*
X66248491Y-55853371D02*
X66343729Y-55805752D01*
X66343729Y-55805752D02*
X66534205Y-55805752D01*
X66534205Y-55805752D02*
X66629443Y-55853371D01*
X66200872Y-56424800D02*
X66296110Y-56472419D01*
X66296110Y-56472419D02*
X66534205Y-56472419D01*
X66534205Y-56472419D02*
X66629443Y-56424800D01*
X66629443Y-56424800D02*
X66677062Y-56329561D01*
X66677062Y-56329561D02*
X66677062Y-56234323D01*
X66677062Y-56234323D02*
X66629443Y-56139085D01*
X66629443Y-56139085D02*
X66534205Y-56091466D01*
X66534205Y-56091466D02*
X66296110Y-56091466D01*
X66296110Y-56091466D02*
X66200872Y-56043847D01*
X65581824Y-56472419D02*
X65677062Y-56424800D01*
X65677062Y-56424800D02*
X65724681Y-56329561D01*
X65724681Y-56329561D02*
X65724681Y-55472419D01*
X65200871Y-56472419D02*
X65200871Y-55805752D01*
X65200871Y-55472419D02*
X65248490Y-55520038D01*
X65248490Y-55520038D02*
X65200871Y-55567657D01*
X65200871Y-55567657D02*
X65153252Y-55520038D01*
X65153252Y-55520038D02*
X65200871Y-55472419D01*
X65200871Y-55472419D02*
X65200871Y-55567657D01*
X64343729Y-56424800D02*
X64438967Y-56472419D01*
X64438967Y-56472419D02*
X64629443Y-56472419D01*
X64629443Y-56472419D02*
X64724681Y-56424800D01*
X64724681Y-56424800D02*
X64772300Y-56329561D01*
X64772300Y-56329561D02*
X64772300Y-55948609D01*
X64772300Y-55948609D02*
X64724681Y-55853371D01*
X64724681Y-55853371D02*
X64629443Y-55805752D01*
X64629443Y-55805752D02*
X64438967Y-55805752D01*
X64438967Y-55805752D02*
X64343729Y-55853371D01*
X64343729Y-55853371D02*
X64296110Y-55948609D01*
X64296110Y-55948609D02*
X64296110Y-56043847D01*
X64296110Y-56043847D02*
X64772300Y-56139085D01*
X63867538Y-55805752D02*
X63867538Y-56472419D01*
X63867538Y-55900990D02*
X63819919Y-55853371D01*
X63819919Y-55853371D02*
X63724681Y-55805752D01*
X63724681Y-55805752D02*
X63581824Y-55805752D01*
X63581824Y-55805752D02*
X63486586Y-55853371D01*
X63486586Y-55853371D02*
X63438967Y-55948609D01*
X63438967Y-55948609D02*
X63438967Y-56472419D01*
X63010395Y-56424800D02*
X62915157Y-56472419D01*
X62915157Y-56472419D02*
X62724681Y-56472419D01*
X62724681Y-56472419D02*
X62629443Y-56424800D01*
X62629443Y-56424800D02*
X62581824Y-56329561D01*
X62581824Y-56329561D02*
X62581824Y-56281942D01*
X62581824Y-56281942D02*
X62629443Y-56186704D01*
X62629443Y-56186704D02*
X62724681Y-56139085D01*
X62724681Y-56139085D02*
X62867538Y-56139085D01*
X62867538Y-56139085D02*
X62962776Y-56091466D01*
X62962776Y-56091466D02*
X63010395Y-55996228D01*
X63010395Y-55996228D02*
X63010395Y-55948609D01*
X63010395Y-55948609D02*
X62962776Y-55853371D01*
X62962776Y-55853371D02*
X62867538Y-55805752D01*
X62867538Y-55805752D02*
X62724681Y-55805752D01*
X62724681Y-55805752D02*
X62629443Y-55853371D01*
X72596115Y-68572419D02*
X72596115Y-67572419D01*
X71358020Y-68572419D02*
X71358020Y-67572419D01*
X70929449Y-68572419D02*
X70929449Y-68048609D01*
X70929449Y-68048609D02*
X70977068Y-67953371D01*
X70977068Y-67953371D02*
X71072306Y-67905752D01*
X71072306Y-67905752D02*
X71215163Y-67905752D01*
X71215163Y-67905752D02*
X71310401Y-67953371D01*
X71310401Y-67953371D02*
X71358020Y-68000990D01*
X70310401Y-68572419D02*
X70405639Y-68524800D01*
X70405639Y-68524800D02*
X70453258Y-68477180D01*
X70453258Y-68477180D02*
X70500877Y-68381942D01*
X70500877Y-68381942D02*
X70500877Y-68096228D01*
X70500877Y-68096228D02*
X70453258Y-68000990D01*
X70453258Y-68000990D02*
X70405639Y-67953371D01*
X70405639Y-67953371D02*
X70310401Y-67905752D01*
X70310401Y-67905752D02*
X70167544Y-67905752D01*
X70167544Y-67905752D02*
X70072306Y-67953371D01*
X70072306Y-67953371D02*
X70024687Y-68000990D01*
X70024687Y-68000990D02*
X69977068Y-68096228D01*
X69977068Y-68096228D02*
X69977068Y-68381942D01*
X69977068Y-68381942D02*
X70024687Y-68477180D01*
X70024687Y-68477180D02*
X70072306Y-68524800D01*
X70072306Y-68524800D02*
X70167544Y-68572419D01*
X70167544Y-68572419D02*
X70310401Y-68572419D01*
X69548496Y-67905752D02*
X69548496Y-68905752D01*
X69548496Y-67953371D02*
X69453258Y-67905752D01*
X69453258Y-67905752D02*
X69262782Y-67905752D01*
X69262782Y-67905752D02*
X69167544Y-67953371D01*
X69167544Y-67953371D02*
X69119925Y-68000990D01*
X69119925Y-68000990D02*
X69072306Y-68096228D01*
X69072306Y-68096228D02*
X69072306Y-68381942D01*
X69072306Y-68381942D02*
X69119925Y-68477180D01*
X69119925Y-68477180D02*
X69167544Y-68524800D01*
X69167544Y-68524800D02*
X69262782Y-68572419D01*
X69262782Y-68572419D02*
X69453258Y-68572419D01*
X69453258Y-68572419D02*
X69548496Y-68524800D01*
X68262782Y-68524800D02*
X68358020Y-68572419D01*
X68358020Y-68572419D02*
X68548496Y-68572419D01*
X68548496Y-68572419D02*
X68643734Y-68524800D01*
X68643734Y-68524800D02*
X68691353Y-68429561D01*
X68691353Y-68429561D02*
X68691353Y-68048609D01*
X68691353Y-68048609D02*
X68643734Y-67953371D01*
X68643734Y-67953371D02*
X68548496Y-67905752D01*
X68548496Y-67905752D02*
X68358020Y-67905752D01*
X68358020Y-67905752D02*
X68262782Y-67953371D01*
X68262782Y-67953371D02*
X68215163Y-68048609D01*
X68215163Y-68048609D02*
X68215163Y-68143847D01*
X68215163Y-68143847D02*
X68691353Y-68239085D01*
X67119924Y-67905752D02*
X66881829Y-68572419D01*
X66643734Y-67905752D02*
X66881829Y-68572419D01*
X66881829Y-68572419D02*
X66977067Y-68810514D01*
X66977067Y-68810514D02*
X67024686Y-68858133D01*
X67024686Y-68858133D02*
X67119924Y-68905752D01*
X66119924Y-68572419D02*
X66215162Y-68524800D01*
X66215162Y-68524800D02*
X66262781Y-68477180D01*
X66262781Y-68477180D02*
X66310400Y-68381942D01*
X66310400Y-68381942D02*
X66310400Y-68096228D01*
X66310400Y-68096228D02*
X66262781Y-68000990D01*
X66262781Y-68000990D02*
X66215162Y-67953371D01*
X66215162Y-67953371D02*
X66119924Y-67905752D01*
X66119924Y-67905752D02*
X65977067Y-67905752D01*
X65977067Y-67905752D02*
X65881829Y-67953371D01*
X65881829Y-67953371D02*
X65834210Y-68000990D01*
X65834210Y-68000990D02*
X65786591Y-68096228D01*
X65786591Y-68096228D02*
X65786591Y-68381942D01*
X65786591Y-68381942D02*
X65834210Y-68477180D01*
X65834210Y-68477180D02*
X65881829Y-68524800D01*
X65881829Y-68524800D02*
X65977067Y-68572419D01*
X65977067Y-68572419D02*
X66119924Y-68572419D01*
X64929448Y-67905752D02*
X64929448Y-68572419D01*
X65358019Y-67905752D02*
X65358019Y-68429561D01*
X65358019Y-68429561D02*
X65310400Y-68524800D01*
X65310400Y-68524800D02*
X65215162Y-68572419D01*
X65215162Y-68572419D02*
X65072305Y-68572419D01*
X65072305Y-68572419D02*
X64977067Y-68524800D01*
X64977067Y-68524800D02*
X64929448Y-68477180D01*
X63548495Y-68572419D02*
X63643733Y-68524800D01*
X63643733Y-68524800D02*
X63691352Y-68429561D01*
X63691352Y-68429561D02*
X63691352Y-67572419D01*
X63167542Y-68572419D02*
X63167542Y-67905752D01*
X63167542Y-67572419D02*
X63215161Y-67620038D01*
X63215161Y-67620038D02*
X63167542Y-67667657D01*
X63167542Y-67667657D02*
X63119923Y-67620038D01*
X63119923Y-67620038D02*
X63167542Y-67572419D01*
X63167542Y-67572419D02*
X63167542Y-67667657D01*
X62691352Y-68572419D02*
X62691352Y-67572419D01*
X62596114Y-68191466D02*
X62310400Y-68572419D01*
X62310400Y-67905752D02*
X62691352Y-68286704D01*
X61500876Y-68524800D02*
X61596114Y-68572419D01*
X61596114Y-68572419D02*
X61786590Y-68572419D01*
X61786590Y-68572419D02*
X61881828Y-68524800D01*
X61881828Y-68524800D02*
X61929447Y-68429561D01*
X61929447Y-68429561D02*
X61929447Y-68048609D01*
X61929447Y-68048609D02*
X61881828Y-67953371D01*
X61881828Y-67953371D02*
X61786590Y-67905752D01*
X61786590Y-67905752D02*
X61596114Y-67905752D01*
X61596114Y-67905752D02*
X61500876Y-67953371D01*
X61500876Y-67953371D02*
X61453257Y-68048609D01*
X61453257Y-68048609D02*
X61453257Y-68143847D01*
X61453257Y-68143847D02*
X61929447Y-68239085D01*
X60310399Y-68524800D02*
X60215161Y-68572419D01*
X60215161Y-68572419D02*
X60024685Y-68572419D01*
X60024685Y-68572419D02*
X59929447Y-68524800D01*
X59929447Y-68524800D02*
X59881828Y-68429561D01*
X59881828Y-68429561D02*
X59881828Y-68381942D01*
X59881828Y-68381942D02*
X59929447Y-68286704D01*
X59929447Y-68286704D02*
X60024685Y-68239085D01*
X60024685Y-68239085D02*
X60167542Y-68239085D01*
X60167542Y-68239085D02*
X60262780Y-68191466D01*
X60262780Y-68191466D02*
X60310399Y-68096228D01*
X60310399Y-68096228D02*
X60310399Y-68048609D01*
X60310399Y-68048609D02*
X60262780Y-67953371D01*
X60262780Y-67953371D02*
X60167542Y-67905752D01*
X60167542Y-67905752D02*
X60024685Y-67905752D01*
X60024685Y-67905752D02*
X59929447Y-67953371D01*
X59310399Y-68572419D02*
X59405637Y-68524800D01*
X59405637Y-68524800D02*
X59453256Y-68477180D01*
X59453256Y-68477180D02*
X59500875Y-68381942D01*
X59500875Y-68381942D02*
X59500875Y-68096228D01*
X59500875Y-68096228D02*
X59453256Y-68000990D01*
X59453256Y-68000990D02*
X59405637Y-67953371D01*
X59405637Y-67953371D02*
X59310399Y-67905752D01*
X59310399Y-67905752D02*
X59167542Y-67905752D01*
X59167542Y-67905752D02*
X59072304Y-67953371D01*
X59072304Y-67953371D02*
X59024685Y-68000990D01*
X59024685Y-68000990D02*
X58977066Y-68096228D01*
X58977066Y-68096228D02*
X58977066Y-68381942D01*
X58977066Y-68381942D02*
X59024685Y-68477180D01*
X59024685Y-68477180D02*
X59072304Y-68524800D01*
X59072304Y-68524800D02*
X59167542Y-68572419D01*
X59167542Y-68572419D02*
X59310399Y-68572419D01*
X58405637Y-68572419D02*
X58500875Y-68524800D01*
X58500875Y-68524800D02*
X58548494Y-68429561D01*
X58548494Y-68429561D02*
X58548494Y-67572419D01*
X57596113Y-68572419D02*
X57596113Y-67572419D01*
X57596113Y-68524800D02*
X57691351Y-68572419D01*
X57691351Y-68572419D02*
X57881827Y-68572419D01*
X57881827Y-68572419D02*
X57977065Y-68524800D01*
X57977065Y-68524800D02*
X58024684Y-68477180D01*
X58024684Y-68477180D02*
X58072303Y-68381942D01*
X58072303Y-68381942D02*
X58072303Y-68096228D01*
X58072303Y-68096228D02*
X58024684Y-68000990D01*
X58024684Y-68000990D02*
X57977065Y-67953371D01*
X57977065Y-67953371D02*
X57881827Y-67905752D01*
X57881827Y-67905752D02*
X57691351Y-67905752D01*
X57691351Y-67905752D02*
X57596113Y-67953371D01*
X56738970Y-68524800D02*
X56834208Y-68572419D01*
X56834208Y-68572419D02*
X57024684Y-68572419D01*
X57024684Y-68572419D02*
X57119922Y-68524800D01*
X57119922Y-68524800D02*
X57167541Y-68429561D01*
X57167541Y-68429561D02*
X57167541Y-68048609D01*
X57167541Y-68048609D02*
X57119922Y-67953371D01*
X57119922Y-67953371D02*
X57024684Y-67905752D01*
X57024684Y-67905752D02*
X56834208Y-67905752D01*
X56834208Y-67905752D02*
X56738970Y-67953371D01*
X56738970Y-67953371D02*
X56691351Y-68048609D01*
X56691351Y-68048609D02*
X56691351Y-68143847D01*
X56691351Y-68143847D02*
X57167541Y-68239085D01*
X56262779Y-68572419D02*
X56262779Y-67905752D01*
X56262779Y-68096228D02*
X56215160Y-68000990D01*
X56215160Y-68000990D02*
X56167541Y-67953371D01*
X56167541Y-67953371D02*
X56072303Y-67905752D01*
X56072303Y-67905752D02*
X55977065Y-67905752D01*
X55643731Y-68572419D02*
X55643731Y-67905752D01*
X55643731Y-67572419D02*
X55691350Y-67620038D01*
X55691350Y-67620038D02*
X55643731Y-67667657D01*
X55643731Y-67667657D02*
X55596112Y-67620038D01*
X55596112Y-67620038D02*
X55643731Y-67572419D01*
X55643731Y-67572419D02*
X55643731Y-67667657D01*
X55167541Y-67905752D02*
X55167541Y-68572419D01*
X55167541Y-68000990D02*
X55119922Y-67953371D01*
X55119922Y-67953371D02*
X55024684Y-67905752D01*
X55024684Y-67905752D02*
X54881827Y-67905752D01*
X54881827Y-67905752D02*
X54786589Y-67953371D01*
X54786589Y-67953371D02*
X54738970Y-68048609D01*
X54738970Y-68048609D02*
X54738970Y-68572419D01*
X53834208Y-67905752D02*
X53834208Y-68715276D01*
X53834208Y-68715276D02*
X53881827Y-68810514D01*
X53881827Y-68810514D02*
X53929446Y-68858133D01*
X53929446Y-68858133D02*
X54024684Y-68905752D01*
X54024684Y-68905752D02*
X54167541Y-68905752D01*
X54167541Y-68905752D02*
X54262779Y-68858133D01*
X53834208Y-68524800D02*
X53929446Y-68572419D01*
X53929446Y-68572419D02*
X54119922Y-68572419D01*
X54119922Y-68572419D02*
X54215160Y-68524800D01*
X54215160Y-68524800D02*
X54262779Y-68477180D01*
X54262779Y-68477180D02*
X54310398Y-68381942D01*
X54310398Y-68381942D02*
X54310398Y-68096228D01*
X54310398Y-68096228D02*
X54262779Y-68000990D01*
X54262779Y-68000990D02*
X54215160Y-67953371D01*
X54215160Y-67953371D02*
X54119922Y-67905752D01*
X54119922Y-67905752D02*
X53929446Y-67905752D01*
X53929446Y-67905752D02*
X53834208Y-67953371D01*
X179191353Y-50205752D02*
X178953258Y-50872419D01*
X178715163Y-50205752D02*
X178953258Y-50872419D01*
X178953258Y-50872419D02*
X179048496Y-51110514D01*
X179048496Y-51110514D02*
X179096115Y-51158133D01*
X179096115Y-51158133D02*
X179191353Y-51205752D01*
X178191353Y-50872419D02*
X178286591Y-50824800D01*
X178286591Y-50824800D02*
X178334210Y-50777180D01*
X178334210Y-50777180D02*
X178381829Y-50681942D01*
X178381829Y-50681942D02*
X178381829Y-50396228D01*
X178381829Y-50396228D02*
X178334210Y-50300990D01*
X178334210Y-50300990D02*
X178286591Y-50253371D01*
X178286591Y-50253371D02*
X178191353Y-50205752D01*
X178191353Y-50205752D02*
X178048496Y-50205752D01*
X178048496Y-50205752D02*
X177953258Y-50253371D01*
X177953258Y-50253371D02*
X177905639Y-50300990D01*
X177905639Y-50300990D02*
X177858020Y-50396228D01*
X177858020Y-50396228D02*
X177858020Y-50681942D01*
X177858020Y-50681942D02*
X177905639Y-50777180D01*
X177905639Y-50777180D02*
X177953258Y-50824800D01*
X177953258Y-50824800D02*
X178048496Y-50872419D01*
X178048496Y-50872419D02*
X178191353Y-50872419D01*
X177000877Y-50205752D02*
X177000877Y-50872419D01*
X177429448Y-50205752D02*
X177429448Y-50729561D01*
X177429448Y-50729561D02*
X177381829Y-50824800D01*
X177381829Y-50824800D02*
X177286591Y-50872419D01*
X177286591Y-50872419D02*
X177143734Y-50872419D01*
X177143734Y-50872419D02*
X177048496Y-50824800D01*
X177048496Y-50824800D02*
X177000877Y-50777180D01*
X175810400Y-50824800D02*
X175715162Y-50872419D01*
X175715162Y-50872419D02*
X175524686Y-50872419D01*
X175524686Y-50872419D02*
X175429448Y-50824800D01*
X175429448Y-50824800D02*
X175381829Y-50729561D01*
X175381829Y-50729561D02*
X175381829Y-50681942D01*
X175381829Y-50681942D02*
X175429448Y-50586704D01*
X175429448Y-50586704D02*
X175524686Y-50539085D01*
X175524686Y-50539085D02*
X175667543Y-50539085D01*
X175667543Y-50539085D02*
X175762781Y-50491466D01*
X175762781Y-50491466D02*
X175810400Y-50396228D01*
X175810400Y-50396228D02*
X175810400Y-50348609D01*
X175810400Y-50348609D02*
X175762781Y-50253371D01*
X175762781Y-50253371D02*
X175667543Y-50205752D01*
X175667543Y-50205752D02*
X175524686Y-50205752D01*
X175524686Y-50205752D02*
X175429448Y-50253371D01*
X174953257Y-50872419D02*
X174953257Y-49872419D01*
X174524686Y-50872419D02*
X174524686Y-50348609D01*
X174524686Y-50348609D02*
X174572305Y-50253371D01*
X174572305Y-50253371D02*
X174667543Y-50205752D01*
X174667543Y-50205752D02*
X174810400Y-50205752D01*
X174810400Y-50205752D02*
X174905638Y-50253371D01*
X174905638Y-50253371D02*
X174953257Y-50300990D01*
X173905638Y-50872419D02*
X174000876Y-50824800D01*
X174000876Y-50824800D02*
X174048495Y-50777180D01*
X174048495Y-50777180D02*
X174096114Y-50681942D01*
X174096114Y-50681942D02*
X174096114Y-50396228D01*
X174096114Y-50396228D02*
X174048495Y-50300990D01*
X174048495Y-50300990D02*
X174000876Y-50253371D01*
X174000876Y-50253371D02*
X173905638Y-50205752D01*
X173905638Y-50205752D02*
X173762781Y-50205752D01*
X173762781Y-50205752D02*
X173667543Y-50253371D01*
X173667543Y-50253371D02*
X173619924Y-50300990D01*
X173619924Y-50300990D02*
X173572305Y-50396228D01*
X173572305Y-50396228D02*
X173572305Y-50681942D01*
X173572305Y-50681942D02*
X173619924Y-50777180D01*
X173619924Y-50777180D02*
X173667543Y-50824800D01*
X173667543Y-50824800D02*
X173762781Y-50872419D01*
X173762781Y-50872419D02*
X173905638Y-50872419D01*
X172715162Y-50205752D02*
X172715162Y-50872419D01*
X173143733Y-50205752D02*
X173143733Y-50729561D01*
X173143733Y-50729561D02*
X173096114Y-50824800D01*
X173096114Y-50824800D02*
X173000876Y-50872419D01*
X173000876Y-50872419D02*
X172858019Y-50872419D01*
X172858019Y-50872419D02*
X172762781Y-50824800D01*
X172762781Y-50824800D02*
X172715162Y-50777180D01*
X172096114Y-50872419D02*
X172191352Y-50824800D01*
X172191352Y-50824800D02*
X172238971Y-50729561D01*
X172238971Y-50729561D02*
X172238971Y-49872419D01*
X171286590Y-50872419D02*
X171286590Y-49872419D01*
X171286590Y-50824800D02*
X171381828Y-50872419D01*
X171381828Y-50872419D02*
X171572304Y-50872419D01*
X171572304Y-50872419D02*
X171667542Y-50824800D01*
X171667542Y-50824800D02*
X171715161Y-50777180D01*
X171715161Y-50777180D02*
X171762780Y-50681942D01*
X171762780Y-50681942D02*
X171762780Y-50396228D01*
X171762780Y-50396228D02*
X171715161Y-50300990D01*
X171715161Y-50300990D02*
X171667542Y-50253371D01*
X171667542Y-50253371D02*
X171572304Y-50205752D01*
X171572304Y-50205752D02*
X171381828Y-50205752D01*
X171381828Y-50205752D02*
X171286590Y-50253371D01*
X170048494Y-50205752D02*
X170048494Y-51205752D01*
X170048494Y-50253371D02*
X169953256Y-50205752D01*
X169953256Y-50205752D02*
X169762780Y-50205752D01*
X169762780Y-50205752D02*
X169667542Y-50253371D01*
X169667542Y-50253371D02*
X169619923Y-50300990D01*
X169619923Y-50300990D02*
X169572304Y-50396228D01*
X169572304Y-50396228D02*
X169572304Y-50681942D01*
X169572304Y-50681942D02*
X169619923Y-50777180D01*
X169619923Y-50777180D02*
X169667542Y-50824800D01*
X169667542Y-50824800D02*
X169762780Y-50872419D01*
X169762780Y-50872419D02*
X169953256Y-50872419D01*
X169953256Y-50872419D02*
X170048494Y-50824800D01*
X169143732Y-50872419D02*
X169143732Y-50205752D01*
X169143732Y-50396228D02*
X169096113Y-50300990D01*
X169096113Y-50300990D02*
X169048494Y-50253371D01*
X169048494Y-50253371D02*
X168953256Y-50205752D01*
X168953256Y-50205752D02*
X168858018Y-50205752D01*
X168381827Y-50872419D02*
X168477065Y-50824800D01*
X168477065Y-50824800D02*
X168524684Y-50777180D01*
X168524684Y-50777180D02*
X168572303Y-50681942D01*
X168572303Y-50681942D02*
X168572303Y-50396228D01*
X168572303Y-50396228D02*
X168524684Y-50300990D01*
X168524684Y-50300990D02*
X168477065Y-50253371D01*
X168477065Y-50253371D02*
X168381827Y-50205752D01*
X168381827Y-50205752D02*
X168238970Y-50205752D01*
X168238970Y-50205752D02*
X168143732Y-50253371D01*
X168143732Y-50253371D02*
X168096113Y-50300990D01*
X168096113Y-50300990D02*
X168048494Y-50396228D01*
X168048494Y-50396228D02*
X168048494Y-50681942D01*
X168048494Y-50681942D02*
X168096113Y-50777180D01*
X168096113Y-50777180D02*
X168143732Y-50824800D01*
X168143732Y-50824800D02*
X168238970Y-50872419D01*
X168238970Y-50872419D02*
X168381827Y-50872419D01*
X167619922Y-50872419D02*
X167619922Y-49872419D01*
X167619922Y-50253371D02*
X167524684Y-50205752D01*
X167524684Y-50205752D02*
X167334208Y-50205752D01*
X167334208Y-50205752D02*
X167238970Y-50253371D01*
X167238970Y-50253371D02*
X167191351Y-50300990D01*
X167191351Y-50300990D02*
X167143732Y-50396228D01*
X167143732Y-50396228D02*
X167143732Y-50681942D01*
X167143732Y-50681942D02*
X167191351Y-50777180D01*
X167191351Y-50777180D02*
X167238970Y-50824800D01*
X167238970Y-50824800D02*
X167334208Y-50872419D01*
X167334208Y-50872419D02*
X167524684Y-50872419D01*
X167524684Y-50872419D02*
X167619922Y-50824800D01*
X166286589Y-50872419D02*
X166286589Y-50348609D01*
X166286589Y-50348609D02*
X166334208Y-50253371D01*
X166334208Y-50253371D02*
X166429446Y-50205752D01*
X166429446Y-50205752D02*
X166619922Y-50205752D01*
X166619922Y-50205752D02*
X166715160Y-50253371D01*
X166286589Y-50824800D02*
X166381827Y-50872419D01*
X166381827Y-50872419D02*
X166619922Y-50872419D01*
X166619922Y-50872419D02*
X166715160Y-50824800D01*
X166715160Y-50824800D02*
X166762779Y-50729561D01*
X166762779Y-50729561D02*
X166762779Y-50634323D01*
X166762779Y-50634323D02*
X166715160Y-50539085D01*
X166715160Y-50539085D02*
X166619922Y-50491466D01*
X166619922Y-50491466D02*
X166381827Y-50491466D01*
X166381827Y-50491466D02*
X166286589Y-50443847D01*
X165810398Y-50872419D02*
X165810398Y-49872419D01*
X165810398Y-50253371D02*
X165715160Y-50205752D01*
X165715160Y-50205752D02*
X165524684Y-50205752D01*
X165524684Y-50205752D02*
X165429446Y-50253371D01*
X165429446Y-50253371D02*
X165381827Y-50300990D01*
X165381827Y-50300990D02*
X165334208Y-50396228D01*
X165334208Y-50396228D02*
X165334208Y-50681942D01*
X165334208Y-50681942D02*
X165381827Y-50777180D01*
X165381827Y-50777180D02*
X165429446Y-50824800D01*
X165429446Y-50824800D02*
X165524684Y-50872419D01*
X165524684Y-50872419D02*
X165715160Y-50872419D01*
X165715160Y-50872419D02*
X165810398Y-50824800D01*
X164762779Y-50872419D02*
X164858017Y-50824800D01*
X164858017Y-50824800D02*
X164905636Y-50729561D01*
X164905636Y-50729561D02*
X164905636Y-49872419D01*
X164477064Y-50205752D02*
X164238969Y-50872419D01*
X164000874Y-50205752D02*
X164238969Y-50872419D01*
X164238969Y-50872419D02*
X164334207Y-51110514D01*
X164334207Y-51110514D02*
X164381826Y-51158133D01*
X164381826Y-51158133D02*
X164477064Y-51205752D01*
X162858016Y-50872419D02*
X162858016Y-49872419D01*
X162762778Y-50491466D02*
X162477064Y-50872419D01*
X162477064Y-50205752D02*
X162858016Y-50586704D01*
X161667540Y-50824800D02*
X161762778Y-50872419D01*
X161762778Y-50872419D02*
X161953254Y-50872419D01*
X161953254Y-50872419D02*
X162048492Y-50824800D01*
X162048492Y-50824800D02*
X162096111Y-50729561D01*
X162096111Y-50729561D02*
X162096111Y-50348609D01*
X162096111Y-50348609D02*
X162048492Y-50253371D01*
X162048492Y-50253371D02*
X161953254Y-50205752D01*
X161953254Y-50205752D02*
X161762778Y-50205752D01*
X161762778Y-50205752D02*
X161667540Y-50253371D01*
X161667540Y-50253371D02*
X161619921Y-50348609D01*
X161619921Y-50348609D02*
X161619921Y-50443847D01*
X161619921Y-50443847D02*
X162096111Y-50539085D01*
X160810397Y-50824800D02*
X160905635Y-50872419D01*
X160905635Y-50872419D02*
X161096111Y-50872419D01*
X161096111Y-50872419D02*
X161191349Y-50824800D01*
X161191349Y-50824800D02*
X161238968Y-50729561D01*
X161238968Y-50729561D02*
X161238968Y-50348609D01*
X161238968Y-50348609D02*
X161191349Y-50253371D01*
X161191349Y-50253371D02*
X161096111Y-50205752D01*
X161096111Y-50205752D02*
X160905635Y-50205752D01*
X160905635Y-50205752D02*
X160810397Y-50253371D01*
X160810397Y-50253371D02*
X160762778Y-50348609D01*
X160762778Y-50348609D02*
X160762778Y-50443847D01*
X160762778Y-50443847D02*
X161238968Y-50539085D01*
X160334206Y-50205752D02*
X160334206Y-51205752D01*
X160334206Y-50253371D02*
X160238968Y-50205752D01*
X160238968Y-50205752D02*
X160048492Y-50205752D01*
X160048492Y-50205752D02*
X159953254Y-50253371D01*
X159953254Y-50253371D02*
X159905635Y-50300990D01*
X159905635Y-50300990D02*
X159858016Y-50396228D01*
X159858016Y-50396228D02*
X159858016Y-50681942D01*
X159858016Y-50681942D02*
X159905635Y-50777180D01*
X159905635Y-50777180D02*
X159953254Y-50824800D01*
X159953254Y-50824800D02*
X160048492Y-50872419D01*
X160048492Y-50872419D02*
X160238968Y-50872419D01*
X160238968Y-50872419D02*
X160334206Y-50824800D01*
X158810396Y-50205752D02*
X158429444Y-50205752D01*
X158667539Y-49872419D02*
X158667539Y-50729561D01*
X158667539Y-50729561D02*
X158619920Y-50824800D01*
X158619920Y-50824800D02*
X158524682Y-50872419D01*
X158524682Y-50872419D02*
X158429444Y-50872419D01*
X158096110Y-50872419D02*
X158096110Y-49872419D01*
X157667539Y-50872419D02*
X157667539Y-50348609D01*
X157667539Y-50348609D02*
X157715158Y-50253371D01*
X157715158Y-50253371D02*
X157810396Y-50205752D01*
X157810396Y-50205752D02*
X157953253Y-50205752D01*
X157953253Y-50205752D02*
X158048491Y-50253371D01*
X158048491Y-50253371D02*
X158096110Y-50300990D01*
X157191348Y-50872419D02*
X157191348Y-50205752D01*
X157191348Y-49872419D02*
X157238967Y-49920038D01*
X157238967Y-49920038D02*
X157191348Y-49967657D01*
X157191348Y-49967657D02*
X157143729Y-49920038D01*
X157143729Y-49920038D02*
X157191348Y-49872419D01*
X157191348Y-49872419D02*
X157191348Y-49967657D01*
X156762777Y-50824800D02*
X156667539Y-50872419D01*
X156667539Y-50872419D02*
X156477063Y-50872419D01*
X156477063Y-50872419D02*
X156381825Y-50824800D01*
X156381825Y-50824800D02*
X156334206Y-50729561D01*
X156334206Y-50729561D02*
X156334206Y-50681942D01*
X156334206Y-50681942D02*
X156381825Y-50586704D01*
X156381825Y-50586704D02*
X156477063Y-50539085D01*
X156477063Y-50539085D02*
X156619920Y-50539085D01*
X156619920Y-50539085D02*
X156715158Y-50491466D01*
X156715158Y-50491466D02*
X156762777Y-50396228D01*
X156762777Y-50396228D02*
X156762777Y-50348609D01*
X156762777Y-50348609D02*
X156715158Y-50253371D01*
X156715158Y-50253371D02*
X156619920Y-50205752D01*
X156619920Y-50205752D02*
X156477063Y-50205752D01*
X156477063Y-50205752D02*
X156381825Y-50253371D01*
X43238972Y-46705752D02*
X42858020Y-46705752D01*
X43096115Y-46372419D02*
X43096115Y-47229561D01*
X43096115Y-47229561D02*
X43048496Y-47324800D01*
X43048496Y-47324800D02*
X42953258Y-47372419D01*
X42953258Y-47372419D02*
X42858020Y-47372419D01*
X42524686Y-47372419D02*
X42524686Y-46372419D01*
X42096115Y-47372419D02*
X42096115Y-46848609D01*
X42096115Y-46848609D02*
X42143734Y-46753371D01*
X42143734Y-46753371D02*
X42238972Y-46705752D01*
X42238972Y-46705752D02*
X42381829Y-46705752D01*
X42381829Y-46705752D02*
X42477067Y-46753371D01*
X42477067Y-46753371D02*
X42524686Y-46800990D01*
X41238972Y-47324800D02*
X41334210Y-47372419D01*
X41334210Y-47372419D02*
X41524686Y-47372419D01*
X41524686Y-47372419D02*
X41619924Y-47324800D01*
X41619924Y-47324800D02*
X41667543Y-47229561D01*
X41667543Y-47229561D02*
X41667543Y-46848609D01*
X41667543Y-46848609D02*
X41619924Y-46753371D01*
X41619924Y-46753371D02*
X41524686Y-46705752D01*
X41524686Y-46705752D02*
X41334210Y-46705752D01*
X41334210Y-46705752D02*
X41238972Y-46753371D01*
X41238972Y-46753371D02*
X41191353Y-46848609D01*
X41191353Y-46848609D02*
X41191353Y-46943847D01*
X41191353Y-46943847D02*
X41667543Y-47039085D01*
X39572305Y-46705752D02*
X39572305Y-47372419D01*
X40000876Y-46705752D02*
X40000876Y-47229561D01*
X40000876Y-47229561D02*
X39953257Y-47324800D01*
X39953257Y-47324800D02*
X39858019Y-47372419D01*
X39858019Y-47372419D02*
X39715162Y-47372419D01*
X39715162Y-47372419D02*
X39619924Y-47324800D01*
X39619924Y-47324800D02*
X39572305Y-47277180D01*
X38953257Y-47372419D02*
X39048495Y-47324800D01*
X39048495Y-47324800D02*
X39096114Y-47229561D01*
X39096114Y-47229561D02*
X39096114Y-46372419D01*
X38715161Y-46705752D02*
X38334209Y-46705752D01*
X38572304Y-46372419D02*
X38572304Y-47229561D01*
X38572304Y-47229561D02*
X38524685Y-47324800D01*
X38524685Y-47324800D02*
X38429447Y-47372419D01*
X38429447Y-47372419D02*
X38334209Y-47372419D01*
X38000875Y-47372419D02*
X38000875Y-46705752D01*
X38000875Y-46372419D02*
X38048494Y-46420038D01*
X38048494Y-46420038D02*
X38000875Y-46467657D01*
X38000875Y-46467657D02*
X37953256Y-46420038D01*
X37953256Y-46420038D02*
X38000875Y-46372419D01*
X38000875Y-46372419D02*
X38000875Y-46467657D01*
X37524685Y-47372419D02*
X37524685Y-46705752D01*
X37524685Y-46800990D02*
X37477066Y-46753371D01*
X37477066Y-46753371D02*
X37381828Y-46705752D01*
X37381828Y-46705752D02*
X37238971Y-46705752D01*
X37238971Y-46705752D02*
X37143733Y-46753371D01*
X37143733Y-46753371D02*
X37096114Y-46848609D01*
X37096114Y-46848609D02*
X37096114Y-47372419D01*
X37096114Y-46848609D02*
X37048495Y-46753371D01*
X37048495Y-46753371D02*
X36953257Y-46705752D01*
X36953257Y-46705752D02*
X36810400Y-46705752D01*
X36810400Y-46705752D02*
X36715161Y-46753371D01*
X36715161Y-46753371D02*
X36667542Y-46848609D01*
X36667542Y-46848609D02*
X36667542Y-47372419D01*
X35762781Y-47372419D02*
X35762781Y-46848609D01*
X35762781Y-46848609D02*
X35810400Y-46753371D01*
X35810400Y-46753371D02*
X35905638Y-46705752D01*
X35905638Y-46705752D02*
X36096114Y-46705752D01*
X36096114Y-46705752D02*
X36191352Y-46753371D01*
X35762781Y-47324800D02*
X35858019Y-47372419D01*
X35858019Y-47372419D02*
X36096114Y-47372419D01*
X36096114Y-47372419D02*
X36191352Y-47324800D01*
X36191352Y-47324800D02*
X36238971Y-47229561D01*
X36238971Y-47229561D02*
X36238971Y-47134323D01*
X36238971Y-47134323D02*
X36191352Y-47039085D01*
X36191352Y-47039085D02*
X36096114Y-46991466D01*
X36096114Y-46991466D02*
X35858019Y-46991466D01*
X35858019Y-46991466D02*
X35762781Y-46943847D01*
X35429447Y-46705752D02*
X35048495Y-46705752D01*
X35286590Y-46372419D02*
X35286590Y-47229561D01*
X35286590Y-47229561D02*
X35238971Y-47324800D01*
X35238971Y-47324800D02*
X35143733Y-47372419D01*
X35143733Y-47372419D02*
X35048495Y-47372419D01*
X34334209Y-47324800D02*
X34429447Y-47372419D01*
X34429447Y-47372419D02*
X34619923Y-47372419D01*
X34619923Y-47372419D02*
X34715161Y-47324800D01*
X34715161Y-47324800D02*
X34762780Y-47229561D01*
X34762780Y-47229561D02*
X34762780Y-46848609D01*
X34762780Y-46848609D02*
X34715161Y-46753371D01*
X34715161Y-46753371D02*
X34619923Y-46705752D01*
X34619923Y-46705752D02*
X34429447Y-46705752D01*
X34429447Y-46705752D02*
X34334209Y-46753371D01*
X34334209Y-46753371D02*
X34286590Y-46848609D01*
X34286590Y-46848609D02*
X34286590Y-46943847D01*
X34286590Y-46943847D02*
X34762780Y-47039085D01*
X33143732Y-47324800D02*
X33048494Y-47372419D01*
X33048494Y-47372419D02*
X32858018Y-47372419D01*
X32858018Y-47372419D02*
X32762780Y-47324800D01*
X32762780Y-47324800D02*
X32715161Y-47229561D01*
X32715161Y-47229561D02*
X32715161Y-47181942D01*
X32715161Y-47181942D02*
X32762780Y-47086704D01*
X32762780Y-47086704D02*
X32858018Y-47039085D01*
X32858018Y-47039085D02*
X33000875Y-47039085D01*
X33000875Y-47039085D02*
X33096113Y-46991466D01*
X33096113Y-46991466D02*
X33143732Y-46896228D01*
X33143732Y-46896228D02*
X33143732Y-46848609D01*
X33143732Y-46848609D02*
X33096113Y-46753371D01*
X33096113Y-46753371D02*
X33000875Y-46705752D01*
X33000875Y-46705752D02*
X32858018Y-46705752D01*
X32858018Y-46705752D02*
X32762780Y-46753371D01*
X31905637Y-47324800D02*
X32000875Y-47372419D01*
X32000875Y-47372419D02*
X32191351Y-47372419D01*
X32191351Y-47372419D02*
X32286589Y-47324800D01*
X32286589Y-47324800D02*
X32334208Y-47229561D01*
X32334208Y-47229561D02*
X32334208Y-46848609D01*
X32334208Y-46848609D02*
X32286589Y-46753371D01*
X32286589Y-46753371D02*
X32191351Y-46705752D01*
X32191351Y-46705752D02*
X32000875Y-46705752D01*
X32000875Y-46705752D02*
X31905637Y-46753371D01*
X31905637Y-46753371D02*
X31858018Y-46848609D01*
X31858018Y-46848609D02*
X31858018Y-46943847D01*
X31858018Y-46943847D02*
X32334208Y-47039085D01*
X31429446Y-46705752D02*
X31429446Y-47372419D01*
X31429446Y-46800990D02*
X31381827Y-46753371D01*
X31381827Y-46753371D02*
X31286589Y-46705752D01*
X31286589Y-46705752D02*
X31143732Y-46705752D01*
X31143732Y-46705752D02*
X31048494Y-46753371D01*
X31048494Y-46753371D02*
X31000875Y-46848609D01*
X31000875Y-46848609D02*
X31000875Y-47372419D01*
X30572303Y-47324800D02*
X30477065Y-47372419D01*
X30477065Y-47372419D02*
X30286589Y-47372419D01*
X30286589Y-47372419D02*
X30191351Y-47324800D01*
X30191351Y-47324800D02*
X30143732Y-47229561D01*
X30143732Y-47229561D02*
X30143732Y-47181942D01*
X30143732Y-47181942D02*
X30191351Y-47086704D01*
X30191351Y-47086704D02*
X30286589Y-47039085D01*
X30286589Y-47039085D02*
X30429446Y-47039085D01*
X30429446Y-47039085D02*
X30524684Y-46991466D01*
X30524684Y-46991466D02*
X30572303Y-46896228D01*
X30572303Y-46896228D02*
X30572303Y-46848609D01*
X30572303Y-46848609D02*
X30524684Y-46753371D01*
X30524684Y-46753371D02*
X30429446Y-46705752D01*
X30429446Y-46705752D02*
X30286589Y-46705752D01*
X30286589Y-46705752D02*
X30191351Y-46753371D01*
X29572303Y-47372419D02*
X29667541Y-47324800D01*
X29667541Y-47324800D02*
X29715160Y-47277180D01*
X29715160Y-47277180D02*
X29762779Y-47181942D01*
X29762779Y-47181942D02*
X29762779Y-46896228D01*
X29762779Y-46896228D02*
X29715160Y-46800990D01*
X29715160Y-46800990D02*
X29667541Y-46753371D01*
X29667541Y-46753371D02*
X29572303Y-46705752D01*
X29572303Y-46705752D02*
X29429446Y-46705752D01*
X29429446Y-46705752D02*
X29334208Y-46753371D01*
X29334208Y-46753371D02*
X29286589Y-46800990D01*
X29286589Y-46800990D02*
X29238970Y-46896228D01*
X29238970Y-46896228D02*
X29238970Y-47181942D01*
X29238970Y-47181942D02*
X29286589Y-47277180D01*
X29286589Y-47277180D02*
X29334208Y-47324800D01*
X29334208Y-47324800D02*
X29429446Y-47372419D01*
X29429446Y-47372419D02*
X29572303Y-47372419D01*
X28810398Y-47372419D02*
X28810398Y-46705752D01*
X28810398Y-46896228D02*
X28762779Y-46800990D01*
X28762779Y-46800990D02*
X28715160Y-46753371D01*
X28715160Y-46753371D02*
X28619922Y-46705752D01*
X28619922Y-46705752D02*
X28524684Y-46705752D01*
X28191350Y-46991466D02*
X27429446Y-46991466D01*
X27048493Y-46705752D02*
X26810398Y-47372419D01*
X26572303Y-46705752D02*
X26810398Y-47372419D01*
X26810398Y-47372419D02*
X26905636Y-47610514D01*
X26905636Y-47610514D02*
X26953255Y-47658133D01*
X26953255Y-47658133D02*
X27048493Y-47705752D01*
X25048493Y-47324800D02*
X25143731Y-47372419D01*
X25143731Y-47372419D02*
X25334207Y-47372419D01*
X25334207Y-47372419D02*
X25429445Y-47324800D01*
X25429445Y-47324800D02*
X25477064Y-47229561D01*
X25477064Y-47229561D02*
X25477064Y-46848609D01*
X25477064Y-46848609D02*
X25429445Y-46753371D01*
X25429445Y-46753371D02*
X25334207Y-46705752D01*
X25334207Y-46705752D02*
X25143731Y-46705752D01*
X25143731Y-46705752D02*
X25048493Y-46753371D01*
X25048493Y-46753371D02*
X25000874Y-46848609D01*
X25000874Y-46848609D02*
X25000874Y-46943847D01*
X25000874Y-46943847D02*
X25477064Y-47039085D01*
X24667540Y-47372419D02*
X24143731Y-46705752D01*
X24667540Y-46705752D02*
X24143731Y-47372419D01*
X23762778Y-46705752D02*
X23762778Y-47705752D01*
X23762778Y-46753371D02*
X23667540Y-46705752D01*
X23667540Y-46705752D02*
X23477064Y-46705752D01*
X23477064Y-46705752D02*
X23381826Y-46753371D01*
X23381826Y-46753371D02*
X23334207Y-46800990D01*
X23334207Y-46800990D02*
X23286588Y-46896228D01*
X23286588Y-46896228D02*
X23286588Y-47181942D01*
X23286588Y-47181942D02*
X23334207Y-47277180D01*
X23334207Y-47277180D02*
X23381826Y-47324800D01*
X23381826Y-47324800D02*
X23477064Y-47372419D01*
X23477064Y-47372419D02*
X23667540Y-47372419D01*
X23667540Y-47372419D02*
X23762778Y-47324800D01*
X22477064Y-47324800D02*
X22572302Y-47372419D01*
X22572302Y-47372419D02*
X22762778Y-47372419D01*
X22762778Y-47372419D02*
X22858016Y-47324800D01*
X22858016Y-47324800D02*
X22905635Y-47229561D01*
X22905635Y-47229561D02*
X22905635Y-46848609D01*
X22905635Y-46848609D02*
X22858016Y-46753371D01*
X22858016Y-46753371D02*
X22762778Y-46705752D01*
X22762778Y-46705752D02*
X22572302Y-46705752D01*
X22572302Y-46705752D02*
X22477064Y-46753371D01*
X22477064Y-46753371D02*
X22429445Y-46848609D01*
X22429445Y-46848609D02*
X22429445Y-46943847D01*
X22429445Y-46943847D02*
X22905635Y-47039085D01*
X22000873Y-47372419D02*
X22000873Y-46705752D01*
X22000873Y-46896228D02*
X21953254Y-46800990D01*
X21953254Y-46800990D02*
X21905635Y-46753371D01*
X21905635Y-46753371D02*
X21810397Y-46705752D01*
X21810397Y-46705752D02*
X21715159Y-46705752D01*
X21381825Y-47372419D02*
X21381825Y-46705752D01*
X21381825Y-46372419D02*
X21429444Y-46420038D01*
X21429444Y-46420038D02*
X21381825Y-46467657D01*
X21381825Y-46467657D02*
X21334206Y-46420038D01*
X21334206Y-46420038D02*
X21381825Y-46372419D01*
X21381825Y-46372419D02*
X21381825Y-46467657D01*
X20524683Y-47324800D02*
X20619921Y-47372419D01*
X20619921Y-47372419D02*
X20810397Y-47372419D01*
X20810397Y-47372419D02*
X20905635Y-47324800D01*
X20905635Y-47324800D02*
X20953254Y-47229561D01*
X20953254Y-47229561D02*
X20953254Y-46848609D01*
X20953254Y-46848609D02*
X20905635Y-46753371D01*
X20905635Y-46753371D02*
X20810397Y-46705752D01*
X20810397Y-46705752D02*
X20619921Y-46705752D01*
X20619921Y-46705752D02*
X20524683Y-46753371D01*
X20524683Y-46753371D02*
X20477064Y-46848609D01*
X20477064Y-46848609D02*
X20477064Y-46943847D01*
X20477064Y-46943847D02*
X20953254Y-47039085D01*
X20048492Y-46705752D02*
X20048492Y-47372419D01*
X20048492Y-46800990D02*
X20000873Y-46753371D01*
X20000873Y-46753371D02*
X19905635Y-46705752D01*
X19905635Y-46705752D02*
X19762778Y-46705752D01*
X19762778Y-46705752D02*
X19667540Y-46753371D01*
X19667540Y-46753371D02*
X19619921Y-46848609D01*
X19619921Y-46848609D02*
X19619921Y-47372419D01*
X18715159Y-47324800D02*
X18810397Y-47372419D01*
X18810397Y-47372419D02*
X19000873Y-47372419D01*
X19000873Y-47372419D02*
X19096111Y-47324800D01*
X19096111Y-47324800D02*
X19143730Y-47277180D01*
X19143730Y-47277180D02*
X19191349Y-47181942D01*
X19191349Y-47181942D02*
X19191349Y-46896228D01*
X19191349Y-46896228D02*
X19143730Y-46800990D01*
X19143730Y-46800990D02*
X19096111Y-46753371D01*
X19096111Y-46753371D02*
X19000873Y-46705752D01*
X19000873Y-46705752D02*
X18810397Y-46705752D01*
X18810397Y-46705752D02*
X18715159Y-46753371D01*
X17905635Y-47324800D02*
X18000873Y-47372419D01*
X18000873Y-47372419D02*
X18191349Y-47372419D01*
X18191349Y-47372419D02*
X18286587Y-47324800D01*
X18286587Y-47324800D02*
X18334206Y-47229561D01*
X18334206Y-47229561D02*
X18334206Y-46848609D01*
X18334206Y-46848609D02*
X18286587Y-46753371D01*
X18286587Y-46753371D02*
X18191349Y-46705752D01*
X18191349Y-46705752D02*
X18000873Y-46705752D01*
X18000873Y-46705752D02*
X17905635Y-46753371D01*
X17905635Y-46753371D02*
X17858016Y-46848609D01*
X17858016Y-46848609D02*
X17858016Y-46943847D01*
X17858016Y-46943847D02*
X18334206Y-47039085D01*
X231834211Y-48905752D02*
X232596115Y-49191466D01*
X232596115Y-49191466D02*
X231834211Y-49477180D01*
X230167544Y-49572419D02*
X230167544Y-49048609D01*
X230167544Y-49048609D02*
X230215163Y-48953371D01*
X230215163Y-48953371D02*
X230310401Y-48905752D01*
X230310401Y-48905752D02*
X230500877Y-48905752D01*
X230500877Y-48905752D02*
X230596115Y-48953371D01*
X230167544Y-49524800D02*
X230262782Y-49572419D01*
X230262782Y-49572419D02*
X230500877Y-49572419D01*
X230500877Y-49572419D02*
X230596115Y-49524800D01*
X230596115Y-49524800D02*
X230643734Y-49429561D01*
X230643734Y-49429561D02*
X230643734Y-49334323D01*
X230643734Y-49334323D02*
X230596115Y-49239085D01*
X230596115Y-49239085D02*
X230500877Y-49191466D01*
X230500877Y-49191466D02*
X230262782Y-49191466D01*
X230262782Y-49191466D02*
X230167544Y-49143847D01*
X228929448Y-49572419D02*
X228929448Y-48905752D01*
X228929448Y-49000990D02*
X228881829Y-48953371D01*
X228881829Y-48953371D02*
X228786591Y-48905752D01*
X228786591Y-48905752D02*
X228643734Y-48905752D01*
X228643734Y-48905752D02*
X228548496Y-48953371D01*
X228548496Y-48953371D02*
X228500877Y-49048609D01*
X228500877Y-49048609D02*
X228500877Y-49572419D01*
X228500877Y-49048609D02*
X228453258Y-48953371D01*
X228453258Y-48953371D02*
X228358020Y-48905752D01*
X228358020Y-48905752D02*
X228215163Y-48905752D01*
X228215163Y-48905752D02*
X228119924Y-48953371D01*
X228119924Y-48953371D02*
X228072305Y-49048609D01*
X228072305Y-49048609D02*
X228072305Y-49572419D01*
X227596115Y-49572419D02*
X227596115Y-48905752D01*
X227596115Y-48572419D02*
X227643734Y-48620038D01*
X227643734Y-48620038D02*
X227596115Y-48667657D01*
X227596115Y-48667657D02*
X227548496Y-48620038D01*
X227548496Y-48620038D02*
X227596115Y-48572419D01*
X227596115Y-48572419D02*
X227596115Y-48667657D01*
X226691354Y-49572419D02*
X226691354Y-48572419D01*
X226691354Y-49524800D02*
X226786592Y-49572419D01*
X226786592Y-49572419D02*
X226977068Y-49572419D01*
X226977068Y-49572419D02*
X227072306Y-49524800D01*
X227072306Y-49524800D02*
X227119925Y-49477180D01*
X227119925Y-49477180D02*
X227167544Y-49381942D01*
X227167544Y-49381942D02*
X227167544Y-49096228D01*
X227167544Y-49096228D02*
X227119925Y-49000990D01*
X227119925Y-49000990D02*
X227072306Y-48953371D01*
X227072306Y-48953371D02*
X226977068Y-48905752D01*
X226977068Y-48905752D02*
X226786592Y-48905752D01*
X226786592Y-48905752D02*
X226691354Y-48953371D01*
X226215163Y-49191466D02*
X225453259Y-49191466D01*
X224977068Y-49572419D02*
X224977068Y-48905752D01*
X224977068Y-49000990D02*
X224929449Y-48953371D01*
X224929449Y-48953371D02*
X224834211Y-48905752D01*
X224834211Y-48905752D02*
X224691354Y-48905752D01*
X224691354Y-48905752D02*
X224596116Y-48953371D01*
X224596116Y-48953371D02*
X224548497Y-49048609D01*
X224548497Y-49048609D02*
X224548497Y-49572419D01*
X224548497Y-49048609D02*
X224500878Y-48953371D01*
X224500878Y-48953371D02*
X224405640Y-48905752D01*
X224405640Y-48905752D02*
X224262783Y-48905752D01*
X224262783Y-48905752D02*
X224167544Y-48953371D01*
X224167544Y-48953371D02*
X224119925Y-49048609D01*
X224119925Y-49048609D02*
X224119925Y-49572419D01*
X223500878Y-49572419D02*
X223596116Y-49524800D01*
X223596116Y-49524800D02*
X223643735Y-49477180D01*
X223643735Y-49477180D02*
X223691354Y-49381942D01*
X223691354Y-49381942D02*
X223691354Y-49096228D01*
X223691354Y-49096228D02*
X223643735Y-49000990D01*
X223643735Y-49000990D02*
X223596116Y-48953371D01*
X223596116Y-48953371D02*
X223500878Y-48905752D01*
X223500878Y-48905752D02*
X223358021Y-48905752D01*
X223358021Y-48905752D02*
X223262783Y-48953371D01*
X223262783Y-48953371D02*
X223215164Y-49000990D01*
X223215164Y-49000990D02*
X223167545Y-49096228D01*
X223167545Y-49096228D02*
X223167545Y-49381942D01*
X223167545Y-49381942D02*
X223215164Y-49477180D01*
X223215164Y-49477180D02*
X223262783Y-49524800D01*
X223262783Y-49524800D02*
X223358021Y-49572419D01*
X223358021Y-49572419D02*
X223500878Y-49572419D01*
X222738973Y-49572419D02*
X222738973Y-48905752D01*
X222738973Y-49096228D02*
X222691354Y-49000990D01*
X222691354Y-49000990D02*
X222643735Y-48953371D01*
X222643735Y-48953371D02*
X222548497Y-48905752D01*
X222548497Y-48905752D02*
X222453259Y-48905752D01*
X222119925Y-48905752D02*
X222119925Y-49572419D01*
X222119925Y-49000990D02*
X222072306Y-48953371D01*
X222072306Y-48953371D02*
X221977068Y-48905752D01*
X221977068Y-48905752D02*
X221834211Y-48905752D01*
X221834211Y-48905752D02*
X221738973Y-48953371D01*
X221738973Y-48953371D02*
X221691354Y-49048609D01*
X221691354Y-49048609D02*
X221691354Y-49572419D01*
X221215163Y-49572419D02*
X221215163Y-48905752D01*
X221215163Y-48572419D02*
X221262782Y-48620038D01*
X221262782Y-48620038D02*
X221215163Y-48667657D01*
X221215163Y-48667657D02*
X221167544Y-48620038D01*
X221167544Y-48620038D02*
X221215163Y-48572419D01*
X221215163Y-48572419D02*
X221215163Y-48667657D01*
X220738973Y-48905752D02*
X220738973Y-49572419D01*
X220738973Y-49000990D02*
X220691354Y-48953371D01*
X220691354Y-48953371D02*
X220596116Y-48905752D01*
X220596116Y-48905752D02*
X220453259Y-48905752D01*
X220453259Y-48905752D02*
X220358021Y-48953371D01*
X220358021Y-48953371D02*
X220310402Y-49048609D01*
X220310402Y-49048609D02*
X220310402Y-49572419D01*
X219405640Y-48905752D02*
X219405640Y-49715276D01*
X219405640Y-49715276D02*
X219453259Y-49810514D01*
X219453259Y-49810514D02*
X219500878Y-49858133D01*
X219500878Y-49858133D02*
X219596116Y-49905752D01*
X219596116Y-49905752D02*
X219738973Y-49905752D01*
X219738973Y-49905752D02*
X219834211Y-49858133D01*
X219405640Y-49524800D02*
X219500878Y-49572419D01*
X219500878Y-49572419D02*
X219691354Y-49572419D01*
X219691354Y-49572419D02*
X219786592Y-49524800D01*
X219786592Y-49524800D02*
X219834211Y-49477180D01*
X219834211Y-49477180D02*
X219881830Y-49381942D01*
X219881830Y-49381942D02*
X219881830Y-49096228D01*
X219881830Y-49096228D02*
X219834211Y-49000990D01*
X219834211Y-49000990D02*
X219786592Y-48953371D01*
X219786592Y-48953371D02*
X219691354Y-48905752D01*
X219691354Y-48905752D02*
X219500878Y-48905752D01*
X219500878Y-48905752D02*
X219405640Y-48953371D01*
X218215163Y-49524800D02*
X218119925Y-49572419D01*
X218119925Y-49572419D02*
X217929449Y-49572419D01*
X217929449Y-49572419D02*
X217834211Y-49524800D01*
X217834211Y-49524800D02*
X217786592Y-49429561D01*
X217786592Y-49429561D02*
X217786592Y-49381942D01*
X217786592Y-49381942D02*
X217834211Y-49286704D01*
X217834211Y-49286704D02*
X217929449Y-49239085D01*
X217929449Y-49239085D02*
X218072306Y-49239085D01*
X218072306Y-49239085D02*
X218167544Y-49191466D01*
X218167544Y-49191466D02*
X218215163Y-49096228D01*
X218215163Y-49096228D02*
X218215163Y-49048609D01*
X218215163Y-49048609D02*
X218167544Y-48953371D01*
X218167544Y-48953371D02*
X218072306Y-48905752D01*
X218072306Y-48905752D02*
X217929449Y-48905752D01*
X217929449Y-48905752D02*
X217834211Y-48953371D01*
X217358020Y-48905752D02*
X217358020Y-49572419D01*
X217358020Y-49000990D02*
X217310401Y-48953371D01*
X217310401Y-48953371D02*
X217215163Y-48905752D01*
X217215163Y-48905752D02*
X217072306Y-48905752D01*
X217072306Y-48905752D02*
X216977068Y-48953371D01*
X216977068Y-48953371D02*
X216929449Y-49048609D01*
X216929449Y-49048609D02*
X216929449Y-49572419D01*
X216024687Y-49572419D02*
X216024687Y-49048609D01*
X216024687Y-49048609D02*
X216072306Y-48953371D01*
X216072306Y-48953371D02*
X216167544Y-48905752D01*
X216167544Y-48905752D02*
X216358020Y-48905752D01*
X216358020Y-48905752D02*
X216453258Y-48953371D01*
X216024687Y-49524800D02*
X216119925Y-49572419D01*
X216119925Y-49572419D02*
X216358020Y-49572419D01*
X216358020Y-49572419D02*
X216453258Y-49524800D01*
X216453258Y-49524800D02*
X216500877Y-49429561D01*
X216500877Y-49429561D02*
X216500877Y-49334323D01*
X216500877Y-49334323D02*
X216453258Y-49239085D01*
X216453258Y-49239085D02*
X216358020Y-49191466D01*
X216358020Y-49191466D02*
X216119925Y-49191466D01*
X216119925Y-49191466D02*
X216024687Y-49143847D01*
X215119925Y-49524800D02*
X215215163Y-49572419D01*
X215215163Y-49572419D02*
X215405639Y-49572419D01*
X215405639Y-49572419D02*
X215500877Y-49524800D01*
X215500877Y-49524800D02*
X215548496Y-49477180D01*
X215548496Y-49477180D02*
X215596115Y-49381942D01*
X215596115Y-49381942D02*
X215596115Y-49096228D01*
X215596115Y-49096228D02*
X215548496Y-49000990D01*
X215548496Y-49000990D02*
X215500877Y-48953371D01*
X215500877Y-48953371D02*
X215405639Y-48905752D01*
X215405639Y-48905752D02*
X215215163Y-48905752D01*
X215215163Y-48905752D02*
X215119925Y-48953371D01*
X214691353Y-49572419D02*
X214691353Y-48572419D01*
X214596115Y-49191466D02*
X214310401Y-49572419D01*
X214310401Y-48905752D02*
X214691353Y-49286704D01*
X205391353Y-46005752D02*
X205153258Y-46672419D01*
X204915163Y-46005752D02*
X205153258Y-46672419D01*
X205153258Y-46672419D02*
X205248496Y-46910514D01*
X205248496Y-46910514D02*
X205296115Y-46958133D01*
X205296115Y-46958133D02*
X205391353Y-47005752D01*
X204391353Y-46672419D02*
X204486591Y-46624800D01*
X204486591Y-46624800D02*
X204534210Y-46577180D01*
X204534210Y-46577180D02*
X204581829Y-46481942D01*
X204581829Y-46481942D02*
X204581829Y-46196228D01*
X204581829Y-46196228D02*
X204534210Y-46100990D01*
X204534210Y-46100990D02*
X204486591Y-46053371D01*
X204486591Y-46053371D02*
X204391353Y-46005752D01*
X204391353Y-46005752D02*
X204248496Y-46005752D01*
X204248496Y-46005752D02*
X204153258Y-46053371D01*
X204153258Y-46053371D02*
X204105639Y-46100990D01*
X204105639Y-46100990D02*
X204058020Y-46196228D01*
X204058020Y-46196228D02*
X204058020Y-46481942D01*
X204058020Y-46481942D02*
X204105639Y-46577180D01*
X204105639Y-46577180D02*
X204153258Y-46624800D01*
X204153258Y-46624800D02*
X204248496Y-46672419D01*
X204248496Y-46672419D02*
X204391353Y-46672419D01*
X203200877Y-46005752D02*
X203200877Y-46672419D01*
X203629448Y-46005752D02*
X203629448Y-46529561D01*
X203629448Y-46529561D02*
X203581829Y-46624800D01*
X203581829Y-46624800D02*
X203486591Y-46672419D01*
X203486591Y-46672419D02*
X203343734Y-46672419D01*
X203343734Y-46672419D02*
X203248496Y-46624800D01*
X203248496Y-46624800D02*
X203200877Y-46577180D01*
X201962781Y-46672419D02*
X201962781Y-46005752D01*
X201962781Y-46100990D02*
X201915162Y-46053371D01*
X201915162Y-46053371D02*
X201819924Y-46005752D01*
X201819924Y-46005752D02*
X201677067Y-46005752D01*
X201677067Y-46005752D02*
X201581829Y-46053371D01*
X201581829Y-46053371D02*
X201534210Y-46148609D01*
X201534210Y-46148609D02*
X201534210Y-46672419D01*
X201534210Y-46148609D02*
X201486591Y-46053371D01*
X201486591Y-46053371D02*
X201391353Y-46005752D01*
X201391353Y-46005752D02*
X201248496Y-46005752D01*
X201248496Y-46005752D02*
X201153257Y-46053371D01*
X201153257Y-46053371D02*
X201105638Y-46148609D01*
X201105638Y-46148609D02*
X201105638Y-46672419D01*
X200629448Y-46672419D02*
X200629448Y-46005752D01*
X200629448Y-45672419D02*
X200677067Y-45720038D01*
X200677067Y-45720038D02*
X200629448Y-45767657D01*
X200629448Y-45767657D02*
X200581829Y-45720038D01*
X200581829Y-45720038D02*
X200629448Y-45672419D01*
X200629448Y-45672419D02*
X200629448Y-45767657D01*
X199724687Y-46005752D02*
X199724687Y-46815276D01*
X199724687Y-46815276D02*
X199772306Y-46910514D01*
X199772306Y-46910514D02*
X199819925Y-46958133D01*
X199819925Y-46958133D02*
X199915163Y-47005752D01*
X199915163Y-47005752D02*
X200058020Y-47005752D01*
X200058020Y-47005752D02*
X200153258Y-46958133D01*
X199724687Y-46624800D02*
X199819925Y-46672419D01*
X199819925Y-46672419D02*
X200010401Y-46672419D01*
X200010401Y-46672419D02*
X200105639Y-46624800D01*
X200105639Y-46624800D02*
X200153258Y-46577180D01*
X200153258Y-46577180D02*
X200200877Y-46481942D01*
X200200877Y-46481942D02*
X200200877Y-46196228D01*
X200200877Y-46196228D02*
X200153258Y-46100990D01*
X200153258Y-46100990D02*
X200105639Y-46053371D01*
X200105639Y-46053371D02*
X200010401Y-46005752D01*
X200010401Y-46005752D02*
X199819925Y-46005752D01*
X199819925Y-46005752D02*
X199724687Y-46053371D01*
X199248496Y-46672419D02*
X199248496Y-45672419D01*
X198819925Y-46672419D02*
X198819925Y-46148609D01*
X198819925Y-46148609D02*
X198867544Y-46053371D01*
X198867544Y-46053371D02*
X198962782Y-46005752D01*
X198962782Y-46005752D02*
X199105639Y-46005752D01*
X199105639Y-46005752D02*
X199200877Y-46053371D01*
X199200877Y-46053371D02*
X199248496Y-46100990D01*
X198486591Y-46005752D02*
X198105639Y-46005752D01*
X198343734Y-45672419D02*
X198343734Y-46529561D01*
X198343734Y-46529561D02*
X198296115Y-46624800D01*
X198296115Y-46624800D02*
X198200877Y-46672419D01*
X198200877Y-46672419D02*
X198105639Y-46672419D01*
X197010400Y-46005752D02*
X197010400Y-46672419D01*
X197010400Y-46100990D02*
X196962781Y-46053371D01*
X196962781Y-46053371D02*
X196867543Y-46005752D01*
X196867543Y-46005752D02*
X196724686Y-46005752D01*
X196724686Y-46005752D02*
X196629448Y-46053371D01*
X196629448Y-46053371D02*
X196581829Y-46148609D01*
X196581829Y-46148609D02*
X196581829Y-46672419D01*
X195962781Y-46672419D02*
X196058019Y-46624800D01*
X196058019Y-46624800D02*
X196105638Y-46577180D01*
X196105638Y-46577180D02*
X196153257Y-46481942D01*
X196153257Y-46481942D02*
X196153257Y-46196228D01*
X196153257Y-46196228D02*
X196105638Y-46100990D01*
X196105638Y-46100990D02*
X196058019Y-46053371D01*
X196058019Y-46053371D02*
X195962781Y-46005752D01*
X195962781Y-46005752D02*
X195819924Y-46005752D01*
X195819924Y-46005752D02*
X195724686Y-46053371D01*
X195724686Y-46053371D02*
X195677067Y-46100990D01*
X195677067Y-46100990D02*
X195629448Y-46196228D01*
X195629448Y-46196228D02*
X195629448Y-46481942D01*
X195629448Y-46481942D02*
X195677067Y-46577180D01*
X195677067Y-46577180D02*
X195724686Y-46624800D01*
X195724686Y-46624800D02*
X195819924Y-46672419D01*
X195819924Y-46672419D02*
X195962781Y-46672419D01*
X195343733Y-46005752D02*
X194962781Y-46005752D01*
X195200876Y-45672419D02*
X195200876Y-46529561D01*
X195200876Y-46529561D02*
X195153257Y-46624800D01*
X195153257Y-46624800D02*
X195058019Y-46672419D01*
X195058019Y-46672419D02*
X194962781Y-46672419D01*
X193867542Y-46005752D02*
X193867542Y-46672419D01*
X193867542Y-46100990D02*
X193819923Y-46053371D01*
X193819923Y-46053371D02*
X193724685Y-46005752D01*
X193724685Y-46005752D02*
X193581828Y-46005752D01*
X193581828Y-46005752D02*
X193486590Y-46053371D01*
X193486590Y-46053371D02*
X193438971Y-46148609D01*
X193438971Y-46148609D02*
X193438971Y-46672419D01*
X192581828Y-46624800D02*
X192677066Y-46672419D01*
X192677066Y-46672419D02*
X192867542Y-46672419D01*
X192867542Y-46672419D02*
X192962780Y-46624800D01*
X192962780Y-46624800D02*
X193010399Y-46529561D01*
X193010399Y-46529561D02*
X193010399Y-46148609D01*
X193010399Y-46148609D02*
X192962780Y-46053371D01*
X192962780Y-46053371D02*
X192867542Y-46005752D01*
X192867542Y-46005752D02*
X192677066Y-46005752D01*
X192677066Y-46005752D02*
X192581828Y-46053371D01*
X192581828Y-46053371D02*
X192534209Y-46148609D01*
X192534209Y-46148609D02*
X192534209Y-46243847D01*
X192534209Y-46243847D02*
X193010399Y-46339085D01*
X191724685Y-46624800D02*
X191819923Y-46672419D01*
X191819923Y-46672419D02*
X192010399Y-46672419D01*
X192010399Y-46672419D02*
X192105637Y-46624800D01*
X192105637Y-46624800D02*
X192153256Y-46529561D01*
X192153256Y-46529561D02*
X192153256Y-46148609D01*
X192153256Y-46148609D02*
X192105637Y-46053371D01*
X192105637Y-46053371D02*
X192010399Y-46005752D01*
X192010399Y-46005752D02*
X191819923Y-46005752D01*
X191819923Y-46005752D02*
X191724685Y-46053371D01*
X191724685Y-46053371D02*
X191677066Y-46148609D01*
X191677066Y-46148609D02*
X191677066Y-46243847D01*
X191677066Y-46243847D02*
X192153256Y-46339085D01*
X190819923Y-46672419D02*
X190819923Y-45672419D01*
X190819923Y-46624800D02*
X190915161Y-46672419D01*
X190915161Y-46672419D02*
X191105637Y-46672419D01*
X191105637Y-46672419D02*
X191200875Y-46624800D01*
X191200875Y-46624800D02*
X191248494Y-46577180D01*
X191248494Y-46577180D02*
X191296113Y-46481942D01*
X191296113Y-46481942D02*
X191296113Y-46196228D01*
X191296113Y-46196228D02*
X191248494Y-46100990D01*
X191248494Y-46100990D02*
X191200875Y-46053371D01*
X191200875Y-46053371D02*
X191105637Y-46005752D01*
X191105637Y-46005752D02*
X190915161Y-46005752D01*
X190915161Y-46005752D02*
X190819923Y-46053371D01*
X189724684Y-46005752D02*
X189343732Y-46005752D01*
X189581827Y-45672419D02*
X189581827Y-46529561D01*
X189581827Y-46529561D02*
X189534208Y-46624800D01*
X189534208Y-46624800D02*
X189438970Y-46672419D01*
X189438970Y-46672419D02*
X189343732Y-46672419D01*
X189010398Y-46672419D02*
X189010398Y-45672419D01*
X188581827Y-46672419D02*
X188581827Y-46148609D01*
X188581827Y-46148609D02*
X188629446Y-46053371D01*
X188629446Y-46053371D02*
X188724684Y-46005752D01*
X188724684Y-46005752D02*
X188867541Y-46005752D01*
X188867541Y-46005752D02*
X188962779Y-46053371D01*
X188962779Y-46053371D02*
X189010398Y-46100990D01*
X188105636Y-46672419D02*
X188105636Y-46005752D01*
X188105636Y-45672419D02*
X188153255Y-45720038D01*
X188153255Y-45720038D02*
X188105636Y-45767657D01*
X188105636Y-45767657D02*
X188058017Y-45720038D01*
X188058017Y-45720038D02*
X188105636Y-45672419D01*
X188105636Y-45672419D02*
X188105636Y-45767657D01*
X187677065Y-46624800D02*
X187581827Y-46672419D01*
X187581827Y-46672419D02*
X187391351Y-46672419D01*
X187391351Y-46672419D02*
X187296113Y-46624800D01*
X187296113Y-46624800D02*
X187248494Y-46529561D01*
X187248494Y-46529561D02*
X187248494Y-46481942D01*
X187248494Y-46481942D02*
X187296113Y-46386704D01*
X187296113Y-46386704D02*
X187391351Y-46339085D01*
X187391351Y-46339085D02*
X187534208Y-46339085D01*
X187534208Y-46339085D02*
X187629446Y-46291466D01*
X187629446Y-46291466D02*
X187677065Y-46196228D01*
X187677065Y-46196228D02*
X187677065Y-46148609D01*
X187677065Y-46148609D02*
X187629446Y-46053371D01*
X187629446Y-46053371D02*
X187534208Y-46005752D01*
X187534208Y-46005752D02*
X187391351Y-46005752D01*
X187391351Y-46005752D02*
X187296113Y-46053371D01*
X158627580Y-117403884D02*
X159627580Y-117403884D01*
X158627580Y-118641979D02*
X159627580Y-118641979D01*
X158627580Y-119070550D02*
X159151390Y-119070550D01*
X159151390Y-119070550D02*
X159246628Y-119022931D01*
X159246628Y-119022931D02*
X159294247Y-118927693D01*
X159294247Y-118927693D02*
X159294247Y-118784836D01*
X159294247Y-118784836D02*
X159246628Y-118689598D01*
X159246628Y-118689598D02*
X159199009Y-118641979D01*
X158627580Y-119689598D02*
X158675200Y-119594360D01*
X158675200Y-119594360D02*
X158722819Y-119546741D01*
X158722819Y-119546741D02*
X158818057Y-119499122D01*
X158818057Y-119499122D02*
X159103771Y-119499122D01*
X159103771Y-119499122D02*
X159199009Y-119546741D01*
X159199009Y-119546741D02*
X159246628Y-119594360D01*
X159246628Y-119594360D02*
X159294247Y-119689598D01*
X159294247Y-119689598D02*
X159294247Y-119832455D01*
X159294247Y-119832455D02*
X159246628Y-119927693D01*
X159246628Y-119927693D02*
X159199009Y-119975312D01*
X159199009Y-119975312D02*
X159103771Y-120022931D01*
X159103771Y-120022931D02*
X158818057Y-120022931D01*
X158818057Y-120022931D02*
X158722819Y-119975312D01*
X158722819Y-119975312D02*
X158675200Y-119927693D01*
X158675200Y-119927693D02*
X158627580Y-119832455D01*
X158627580Y-119832455D02*
X158627580Y-119689598D01*
X159294247Y-120451503D02*
X158294247Y-120451503D01*
X159246628Y-120451503D02*
X159294247Y-120546741D01*
X159294247Y-120546741D02*
X159294247Y-120737217D01*
X159294247Y-120737217D02*
X159246628Y-120832455D01*
X159246628Y-120832455D02*
X159199009Y-120880074D01*
X159199009Y-120880074D02*
X159103771Y-120927693D01*
X159103771Y-120927693D02*
X158818057Y-120927693D01*
X158818057Y-120927693D02*
X158722819Y-120880074D01*
X158722819Y-120880074D02*
X158675200Y-120832455D01*
X158675200Y-120832455D02*
X158627580Y-120737217D01*
X158627580Y-120737217D02*
X158627580Y-120546741D01*
X158627580Y-120546741D02*
X158675200Y-120451503D01*
X158675200Y-121737217D02*
X158627580Y-121641979D01*
X158627580Y-121641979D02*
X158627580Y-121451503D01*
X158627580Y-121451503D02*
X158675200Y-121356265D01*
X158675200Y-121356265D02*
X158770438Y-121308646D01*
X158770438Y-121308646D02*
X159151390Y-121308646D01*
X159151390Y-121308646D02*
X159246628Y-121356265D01*
X159246628Y-121356265D02*
X159294247Y-121451503D01*
X159294247Y-121451503D02*
X159294247Y-121641979D01*
X159294247Y-121641979D02*
X159246628Y-121737217D01*
X159246628Y-121737217D02*
X159151390Y-121784836D01*
X159151390Y-121784836D02*
X159056152Y-121784836D01*
X159056152Y-121784836D02*
X158960914Y-121308646D01*
X159294247Y-122880075D02*
X158627580Y-123118170D01*
X159294247Y-123356265D02*
X158627580Y-123118170D01*
X158627580Y-123118170D02*
X158389485Y-123022932D01*
X158389485Y-123022932D02*
X158341866Y-122975313D01*
X158341866Y-122975313D02*
X158294247Y-122880075D01*
X158627580Y-123880075D02*
X158675200Y-123784837D01*
X158675200Y-123784837D02*
X158722819Y-123737218D01*
X158722819Y-123737218D02*
X158818057Y-123689599D01*
X158818057Y-123689599D02*
X159103771Y-123689599D01*
X159103771Y-123689599D02*
X159199009Y-123737218D01*
X159199009Y-123737218D02*
X159246628Y-123784837D01*
X159246628Y-123784837D02*
X159294247Y-123880075D01*
X159294247Y-123880075D02*
X159294247Y-124022932D01*
X159294247Y-124022932D02*
X159246628Y-124118170D01*
X159246628Y-124118170D02*
X159199009Y-124165789D01*
X159199009Y-124165789D02*
X159103771Y-124213408D01*
X159103771Y-124213408D02*
X158818057Y-124213408D01*
X158818057Y-124213408D02*
X158722819Y-124165789D01*
X158722819Y-124165789D02*
X158675200Y-124118170D01*
X158675200Y-124118170D02*
X158627580Y-124022932D01*
X158627580Y-124022932D02*
X158627580Y-123880075D01*
X159294247Y-125070551D02*
X158627580Y-125070551D01*
X159294247Y-124641980D02*
X158770438Y-124641980D01*
X158770438Y-124641980D02*
X158675200Y-124689599D01*
X158675200Y-124689599D02*
X158627580Y-124784837D01*
X158627580Y-124784837D02*
X158627580Y-124927694D01*
X158627580Y-124927694D02*
X158675200Y-125022932D01*
X158675200Y-125022932D02*
X158722819Y-125070551D01*
X158675200Y-126737218D02*
X158627580Y-126641980D01*
X158627580Y-126641980D02*
X158627580Y-126451504D01*
X158627580Y-126451504D02*
X158675200Y-126356266D01*
X158675200Y-126356266D02*
X158722819Y-126308647D01*
X158722819Y-126308647D02*
X158818057Y-126261028D01*
X158818057Y-126261028D02*
X159103771Y-126261028D01*
X159103771Y-126261028D02*
X159199009Y-126308647D01*
X159199009Y-126308647D02*
X159246628Y-126356266D01*
X159246628Y-126356266D02*
X159294247Y-126451504D01*
X159294247Y-126451504D02*
X159294247Y-126641980D01*
X159294247Y-126641980D02*
X159246628Y-126737218D01*
X158627580Y-127594361D02*
X159151390Y-127594361D01*
X159151390Y-127594361D02*
X159246628Y-127546742D01*
X159246628Y-127546742D02*
X159294247Y-127451504D01*
X159294247Y-127451504D02*
X159294247Y-127261028D01*
X159294247Y-127261028D02*
X159246628Y-127165790D01*
X158675200Y-127594361D02*
X158627580Y-127499123D01*
X158627580Y-127499123D02*
X158627580Y-127261028D01*
X158627580Y-127261028D02*
X158675200Y-127165790D01*
X158675200Y-127165790D02*
X158770438Y-127118171D01*
X158770438Y-127118171D02*
X158865676Y-127118171D01*
X158865676Y-127118171D02*
X158960914Y-127165790D01*
X158960914Y-127165790D02*
X159008533Y-127261028D01*
X159008533Y-127261028D02*
X159008533Y-127499123D01*
X159008533Y-127499123D02*
X159056152Y-127594361D01*
X159294247Y-128070552D02*
X158627580Y-128070552D01*
X159199009Y-128070552D02*
X159246628Y-128118171D01*
X159246628Y-128118171D02*
X159294247Y-128213409D01*
X159294247Y-128213409D02*
X159294247Y-128356266D01*
X159294247Y-128356266D02*
X159246628Y-128451504D01*
X159246628Y-128451504D02*
X159151390Y-128499123D01*
X159151390Y-128499123D02*
X158627580Y-128499123D01*
X158627580Y-129737219D02*
X159294247Y-129737219D01*
X159103771Y-129737219D02*
X159199009Y-129784838D01*
X159199009Y-129784838D02*
X159246628Y-129832457D01*
X159246628Y-129832457D02*
X159294247Y-129927695D01*
X159294247Y-129927695D02*
X159294247Y-130022933D01*
X158675200Y-130737219D02*
X158627580Y-130641981D01*
X158627580Y-130641981D02*
X158627580Y-130451505D01*
X158627580Y-130451505D02*
X158675200Y-130356267D01*
X158675200Y-130356267D02*
X158770438Y-130308648D01*
X158770438Y-130308648D02*
X159151390Y-130308648D01*
X159151390Y-130308648D02*
X159246628Y-130356267D01*
X159246628Y-130356267D02*
X159294247Y-130451505D01*
X159294247Y-130451505D02*
X159294247Y-130641981D01*
X159294247Y-130641981D02*
X159246628Y-130737219D01*
X159246628Y-130737219D02*
X159151390Y-130784838D01*
X159151390Y-130784838D02*
X159056152Y-130784838D01*
X159056152Y-130784838D02*
X158960914Y-130308648D01*
X158627580Y-131641981D02*
X159151390Y-131641981D01*
X159151390Y-131641981D02*
X159246628Y-131594362D01*
X159246628Y-131594362D02*
X159294247Y-131499124D01*
X159294247Y-131499124D02*
X159294247Y-131308648D01*
X159294247Y-131308648D02*
X159246628Y-131213410D01*
X158675200Y-131641981D02*
X158627580Y-131546743D01*
X158627580Y-131546743D02*
X158627580Y-131308648D01*
X158627580Y-131308648D02*
X158675200Y-131213410D01*
X158675200Y-131213410D02*
X158770438Y-131165791D01*
X158770438Y-131165791D02*
X158865676Y-131165791D01*
X158865676Y-131165791D02*
X158960914Y-131213410D01*
X158960914Y-131213410D02*
X159008533Y-131308648D01*
X159008533Y-131308648D02*
X159008533Y-131546743D01*
X159008533Y-131546743D02*
X159056152Y-131641981D01*
X158627580Y-132546743D02*
X159627580Y-132546743D01*
X158675200Y-132546743D02*
X158627580Y-132451505D01*
X158627580Y-132451505D02*
X158627580Y-132261029D01*
X158627580Y-132261029D02*
X158675200Y-132165791D01*
X158675200Y-132165791D02*
X158722819Y-132118172D01*
X158722819Y-132118172D02*
X158818057Y-132070553D01*
X158818057Y-132070553D02*
X159103771Y-132070553D01*
X159103771Y-132070553D02*
X159199009Y-132118172D01*
X159199009Y-132118172D02*
X159246628Y-132165791D01*
X159246628Y-132165791D02*
X159294247Y-132261029D01*
X159294247Y-132261029D02*
X159294247Y-132451505D01*
X159294247Y-132451505D02*
X159246628Y-132546743D01*
X159294247Y-133641982D02*
X159294247Y-134022934D01*
X159627580Y-133784839D02*
X158770438Y-133784839D01*
X158770438Y-133784839D02*
X158675200Y-133832458D01*
X158675200Y-133832458D02*
X158627580Y-133927696D01*
X158627580Y-133927696D02*
X158627580Y-134022934D01*
X158627580Y-134356268D02*
X159627580Y-134356268D01*
X158627580Y-134784839D02*
X159151390Y-134784839D01*
X159151390Y-134784839D02*
X159246628Y-134737220D01*
X159246628Y-134737220D02*
X159294247Y-134641982D01*
X159294247Y-134641982D02*
X159294247Y-134499125D01*
X159294247Y-134499125D02*
X159246628Y-134403887D01*
X159246628Y-134403887D02*
X159199009Y-134356268D01*
X158627580Y-135261030D02*
X159294247Y-135261030D01*
X159627580Y-135261030D02*
X159579961Y-135213411D01*
X159579961Y-135213411D02*
X159532342Y-135261030D01*
X159532342Y-135261030D02*
X159579961Y-135308649D01*
X159579961Y-135308649D02*
X159627580Y-135261030D01*
X159627580Y-135261030D02*
X159532342Y-135261030D01*
X158675200Y-135689601D02*
X158627580Y-135784839D01*
X158627580Y-135784839D02*
X158627580Y-135975315D01*
X158627580Y-135975315D02*
X158675200Y-136070553D01*
X158675200Y-136070553D02*
X158770438Y-136118172D01*
X158770438Y-136118172D02*
X158818057Y-136118172D01*
X158818057Y-136118172D02*
X158913295Y-136070553D01*
X158913295Y-136070553D02*
X158960914Y-135975315D01*
X158960914Y-135975315D02*
X158960914Y-135832458D01*
X158960914Y-135832458D02*
X159008533Y-135737220D01*
X159008533Y-135737220D02*
X159103771Y-135689601D01*
X159103771Y-135689601D02*
X159151390Y-135689601D01*
X159151390Y-135689601D02*
X159246628Y-135737220D01*
X159246628Y-135737220D02*
X159294247Y-135832458D01*
X159294247Y-135832458D02*
X159294247Y-135975315D01*
X159294247Y-135975315D02*
X159246628Y-136070553D01*
X250748496Y-48821371D02*
X250605639Y-49221371D01*
X250462782Y-48821371D02*
X250605639Y-49221371D01*
X250605639Y-49221371D02*
X250662782Y-49364228D01*
X250662782Y-49364228D02*
X250691353Y-49392800D01*
X250691353Y-49392800D02*
X250748496Y-49421371D01*
X250148496Y-49221371D02*
X250205639Y-49192800D01*
X250205639Y-49192800D02*
X250234210Y-49164228D01*
X250234210Y-49164228D02*
X250262782Y-49107085D01*
X250262782Y-49107085D02*
X250262782Y-48935657D01*
X250262782Y-48935657D02*
X250234210Y-48878514D01*
X250234210Y-48878514D02*
X250205639Y-48849942D01*
X250205639Y-48849942D02*
X250148496Y-48821371D01*
X250148496Y-48821371D02*
X250062782Y-48821371D01*
X250062782Y-48821371D02*
X250005639Y-48849942D01*
X250005639Y-48849942D02*
X249977068Y-48878514D01*
X249977068Y-48878514D02*
X249948496Y-48935657D01*
X249948496Y-48935657D02*
X249948496Y-49107085D01*
X249948496Y-49107085D02*
X249977068Y-49164228D01*
X249977068Y-49164228D02*
X250005639Y-49192800D01*
X250005639Y-49192800D02*
X250062782Y-49221371D01*
X250062782Y-49221371D02*
X250148496Y-49221371D01*
X249434211Y-48821371D02*
X249434211Y-49221371D01*
X249691353Y-48821371D02*
X249691353Y-49135657D01*
X249691353Y-49135657D02*
X249662782Y-49192800D01*
X249662782Y-49192800D02*
X249605639Y-49221371D01*
X249605639Y-49221371D02*
X249519925Y-49221371D01*
X249519925Y-49221371D02*
X249462782Y-49192800D01*
X249462782Y-49192800D02*
X249434211Y-49164228D01*
X248691353Y-48821371D02*
X248691353Y-49421371D01*
X248691353Y-48849942D02*
X248634211Y-48821371D01*
X248634211Y-48821371D02*
X248519925Y-48821371D01*
X248519925Y-48821371D02*
X248462782Y-48849942D01*
X248462782Y-48849942D02*
X248434211Y-48878514D01*
X248434211Y-48878514D02*
X248405639Y-48935657D01*
X248405639Y-48935657D02*
X248405639Y-49107085D01*
X248405639Y-49107085D02*
X248434211Y-49164228D01*
X248434211Y-49164228D02*
X248462782Y-49192800D01*
X248462782Y-49192800D02*
X248519925Y-49221371D01*
X248519925Y-49221371D02*
X248634211Y-49221371D01*
X248634211Y-49221371D02*
X248691353Y-49192800D01*
X248148496Y-49221371D02*
X248148496Y-48821371D01*
X248148496Y-48935657D02*
X248119925Y-48878514D01*
X248119925Y-48878514D02*
X248091354Y-48849942D01*
X248091354Y-48849942D02*
X248034211Y-48821371D01*
X248034211Y-48821371D02*
X247977068Y-48821371D01*
X247691353Y-49221371D02*
X247748496Y-49192800D01*
X247748496Y-49192800D02*
X247777067Y-49164228D01*
X247777067Y-49164228D02*
X247805639Y-49107085D01*
X247805639Y-49107085D02*
X247805639Y-48935657D01*
X247805639Y-48935657D02*
X247777067Y-48878514D01*
X247777067Y-48878514D02*
X247748496Y-48849942D01*
X247748496Y-48849942D02*
X247691353Y-48821371D01*
X247691353Y-48821371D02*
X247605639Y-48821371D01*
X247605639Y-48821371D02*
X247548496Y-48849942D01*
X247548496Y-48849942D02*
X247519925Y-48878514D01*
X247519925Y-48878514D02*
X247491353Y-48935657D01*
X247491353Y-48935657D02*
X247491353Y-49107085D01*
X247491353Y-49107085D02*
X247519925Y-49164228D01*
X247519925Y-49164228D02*
X247548496Y-49192800D01*
X247548496Y-49192800D02*
X247605639Y-49221371D01*
X247605639Y-49221371D02*
X247691353Y-49221371D01*
X247234210Y-49221371D02*
X247234210Y-48621371D01*
X247234210Y-48849942D02*
X247177068Y-48821371D01*
X247177068Y-48821371D02*
X247062782Y-48821371D01*
X247062782Y-48821371D02*
X247005639Y-48849942D01*
X247005639Y-48849942D02*
X246977068Y-48878514D01*
X246977068Y-48878514D02*
X246948496Y-48935657D01*
X246948496Y-48935657D02*
X246948496Y-49107085D01*
X246948496Y-49107085D02*
X246977068Y-49164228D01*
X246977068Y-49164228D02*
X247005639Y-49192800D01*
X247005639Y-49192800D02*
X247062782Y-49221371D01*
X247062782Y-49221371D02*
X247177068Y-49221371D01*
X247177068Y-49221371D02*
X247234210Y-49192800D01*
X246434211Y-49221371D02*
X246434211Y-48907085D01*
X246434211Y-48907085D02*
X246462782Y-48849942D01*
X246462782Y-48849942D02*
X246519925Y-48821371D01*
X246519925Y-48821371D02*
X246634211Y-48821371D01*
X246634211Y-48821371D02*
X246691353Y-48849942D01*
X246434211Y-49192800D02*
X246491353Y-49221371D01*
X246491353Y-49221371D02*
X246634211Y-49221371D01*
X246634211Y-49221371D02*
X246691353Y-49192800D01*
X246691353Y-49192800D02*
X246719925Y-49135657D01*
X246719925Y-49135657D02*
X246719925Y-49078514D01*
X246719925Y-49078514D02*
X246691353Y-49021371D01*
X246691353Y-49021371D02*
X246634211Y-48992800D01*
X246634211Y-48992800D02*
X246491353Y-48992800D01*
X246491353Y-48992800D02*
X246434211Y-48964228D01*
X246148496Y-49221371D02*
X246148496Y-48621371D01*
X246148496Y-48849942D02*
X246091354Y-48821371D01*
X246091354Y-48821371D02*
X245977068Y-48821371D01*
X245977068Y-48821371D02*
X245919925Y-48849942D01*
X245919925Y-48849942D02*
X245891354Y-48878514D01*
X245891354Y-48878514D02*
X245862782Y-48935657D01*
X245862782Y-48935657D02*
X245862782Y-49107085D01*
X245862782Y-49107085D02*
X245891354Y-49164228D01*
X245891354Y-49164228D02*
X245919925Y-49192800D01*
X245919925Y-49192800D02*
X245977068Y-49221371D01*
X245977068Y-49221371D02*
X246091354Y-49221371D01*
X246091354Y-49221371D02*
X246148496Y-49192800D01*
X245519925Y-49221371D02*
X245577068Y-49192800D01*
X245577068Y-49192800D02*
X245605639Y-49135657D01*
X245605639Y-49135657D02*
X245605639Y-48621371D01*
X245348496Y-48821371D02*
X245205639Y-49221371D01*
X245062782Y-48821371D02*
X245205639Y-49221371D01*
X245205639Y-49221371D02*
X245262782Y-49364228D01*
X245262782Y-49364228D02*
X245291353Y-49392800D01*
X245291353Y-49392800D02*
X245348496Y-49421371D01*
X244119925Y-49221371D02*
X244119925Y-48621371D01*
X244119925Y-49192800D02*
X244177067Y-49221371D01*
X244177067Y-49221371D02*
X244291353Y-49221371D01*
X244291353Y-49221371D02*
X244348496Y-49192800D01*
X244348496Y-49192800D02*
X244377067Y-49164228D01*
X244377067Y-49164228D02*
X244405639Y-49107085D01*
X244405639Y-49107085D02*
X244405639Y-48935657D01*
X244405639Y-48935657D02*
X244377067Y-48878514D01*
X244377067Y-48878514D02*
X244348496Y-48849942D01*
X244348496Y-48849942D02*
X244291353Y-48821371D01*
X244291353Y-48821371D02*
X244177067Y-48821371D01*
X244177067Y-48821371D02*
X244119925Y-48849942D01*
X243748496Y-49221371D02*
X243805639Y-49192800D01*
X243805639Y-49192800D02*
X243834210Y-49164228D01*
X243834210Y-49164228D02*
X243862782Y-49107085D01*
X243862782Y-49107085D02*
X243862782Y-48935657D01*
X243862782Y-48935657D02*
X243834210Y-48878514D01*
X243834210Y-48878514D02*
X243805639Y-48849942D01*
X243805639Y-48849942D02*
X243748496Y-48821371D01*
X243748496Y-48821371D02*
X243662782Y-48821371D01*
X243662782Y-48821371D02*
X243605639Y-48849942D01*
X243605639Y-48849942D02*
X243577068Y-48878514D01*
X243577068Y-48878514D02*
X243548496Y-48935657D01*
X243548496Y-48935657D02*
X243548496Y-49107085D01*
X243548496Y-49107085D02*
X243577068Y-49164228D01*
X243577068Y-49164228D02*
X243605639Y-49192800D01*
X243605639Y-49192800D02*
X243662782Y-49221371D01*
X243662782Y-49221371D02*
X243748496Y-49221371D01*
X243291353Y-48821371D02*
X243291353Y-49221371D01*
X243291353Y-48878514D02*
X243262782Y-48849942D01*
X243262782Y-48849942D02*
X243205639Y-48821371D01*
X243205639Y-48821371D02*
X243119925Y-48821371D01*
X243119925Y-48821371D02*
X243062782Y-48849942D01*
X243062782Y-48849942D02*
X243034211Y-48907085D01*
X243034211Y-48907085D02*
X243034211Y-49221371D01*
X242719925Y-48621371D02*
X242777068Y-48735657D01*
X242548497Y-48821371D02*
X242319925Y-48821371D01*
X242462782Y-48621371D02*
X242462782Y-49135657D01*
X242462782Y-49135657D02*
X242434211Y-49192800D01*
X242434211Y-49192800D02*
X242377068Y-49221371D01*
X242377068Y-49221371D02*
X242319925Y-49221371D01*
X241662782Y-48821371D02*
X241662782Y-49221371D01*
X241662782Y-48878514D02*
X241634211Y-48849942D01*
X241634211Y-48849942D02*
X241577068Y-48821371D01*
X241577068Y-48821371D02*
X241491354Y-48821371D01*
X241491354Y-48821371D02*
X241434211Y-48849942D01*
X241434211Y-48849942D02*
X241405640Y-48907085D01*
X241405640Y-48907085D02*
X241405640Y-49221371D01*
X240891354Y-49192800D02*
X240948497Y-49221371D01*
X240948497Y-49221371D02*
X241062783Y-49221371D01*
X241062783Y-49221371D02*
X241119925Y-49192800D01*
X241119925Y-49192800D02*
X241148497Y-49135657D01*
X241148497Y-49135657D02*
X241148497Y-48907085D01*
X241148497Y-48907085D02*
X241119925Y-48849942D01*
X241119925Y-48849942D02*
X241062783Y-48821371D01*
X241062783Y-48821371D02*
X240948497Y-48821371D01*
X240948497Y-48821371D02*
X240891354Y-48849942D01*
X240891354Y-48849942D02*
X240862783Y-48907085D01*
X240862783Y-48907085D02*
X240862783Y-48964228D01*
X240862783Y-48964228D02*
X241148497Y-49021371D01*
X240377068Y-49192800D02*
X240434211Y-49221371D01*
X240434211Y-49221371D02*
X240548497Y-49221371D01*
X240548497Y-49221371D02*
X240605639Y-49192800D01*
X240605639Y-49192800D02*
X240634211Y-49135657D01*
X240634211Y-49135657D02*
X240634211Y-48907085D01*
X240634211Y-48907085D02*
X240605639Y-48849942D01*
X240605639Y-48849942D02*
X240548497Y-48821371D01*
X240548497Y-48821371D02*
X240434211Y-48821371D01*
X240434211Y-48821371D02*
X240377068Y-48849942D01*
X240377068Y-48849942D02*
X240348497Y-48907085D01*
X240348497Y-48907085D02*
X240348497Y-48964228D01*
X240348497Y-48964228D02*
X240634211Y-49021371D01*
X239834211Y-49221371D02*
X239834211Y-48621371D01*
X239834211Y-49192800D02*
X239891353Y-49221371D01*
X239891353Y-49221371D02*
X240005639Y-49221371D01*
X240005639Y-49221371D02*
X240062782Y-49192800D01*
X240062782Y-49192800D02*
X240091353Y-49164228D01*
X240091353Y-49164228D02*
X240119925Y-49107085D01*
X240119925Y-49107085D02*
X240119925Y-48935657D01*
X240119925Y-48935657D02*
X240091353Y-48878514D01*
X240091353Y-48878514D02*
X240062782Y-48849942D01*
X240062782Y-48849942D02*
X240005639Y-48821371D01*
X240005639Y-48821371D02*
X239891353Y-48821371D01*
X239891353Y-48821371D02*
X239834211Y-48849942D01*
X239177068Y-48821371D02*
X238948496Y-48821371D01*
X239091353Y-48621371D02*
X239091353Y-49135657D01*
X239091353Y-49135657D02*
X239062782Y-49192800D01*
X239062782Y-49192800D02*
X239005639Y-49221371D01*
X239005639Y-49221371D02*
X238948496Y-49221371D01*
X238748496Y-49221371D02*
X238748496Y-48621371D01*
X238491354Y-49221371D02*
X238491354Y-48907085D01*
X238491354Y-48907085D02*
X238519925Y-48849942D01*
X238519925Y-48849942D02*
X238577068Y-48821371D01*
X238577068Y-48821371D02*
X238662782Y-48821371D01*
X238662782Y-48821371D02*
X238719925Y-48849942D01*
X238719925Y-48849942D02*
X238748496Y-48878514D01*
X238205639Y-49221371D02*
X238205639Y-48821371D01*
X238205639Y-48621371D02*
X238234211Y-48649942D01*
X238234211Y-48649942D02*
X238205639Y-48678514D01*
X238205639Y-48678514D02*
X238177068Y-48649942D01*
X238177068Y-48649942D02*
X238205639Y-48621371D01*
X238205639Y-48621371D02*
X238205639Y-48678514D01*
X237948497Y-49192800D02*
X237891354Y-49221371D01*
X237891354Y-49221371D02*
X237777068Y-49221371D01*
X237777068Y-49221371D02*
X237719925Y-49192800D01*
X237719925Y-49192800D02*
X237691354Y-49135657D01*
X237691354Y-49135657D02*
X237691354Y-49107085D01*
X237691354Y-49107085D02*
X237719925Y-49049942D01*
X237719925Y-49049942D02*
X237777068Y-49021371D01*
X237777068Y-49021371D02*
X237862783Y-49021371D01*
X237862783Y-49021371D02*
X237919925Y-48992800D01*
X237919925Y-48992800D02*
X237948497Y-48935657D01*
X237948497Y-48935657D02*
X237948497Y-48907085D01*
X237948497Y-48907085D02*
X237919925Y-48849942D01*
X237919925Y-48849942D02*
X237862783Y-48821371D01*
X237862783Y-48821371D02*
X237777068Y-48821371D01*
X237777068Y-48821371D02*
X237719925Y-48849942D01*
X112575334Y-50994908D02*
X113282441Y-50287801D01*
X112777365Y-50658190D02*
X112305960Y-50725534D01*
X112777365Y-50254129D02*
X112777365Y-50792877D01*
X111767212Y-50119442D02*
X111800884Y-50220457D01*
X111800884Y-50220457D02*
X111935571Y-50355144D01*
X111935571Y-50355144D02*
X112036586Y-50388816D01*
X112036586Y-50388816D02*
X112137601Y-50355144D01*
X112137601Y-50355144D02*
X112406975Y-50085770D01*
X112406975Y-50085770D02*
X112440647Y-49984755D01*
X112440647Y-49984755D02*
X112406975Y-49883740D01*
X112406975Y-49883740D02*
X112272288Y-49749053D01*
X112272288Y-49749053D02*
X112171273Y-49715381D01*
X112171273Y-49715381D02*
X112070258Y-49749053D01*
X112070258Y-49749053D02*
X112002914Y-49816396D01*
X112002914Y-49816396D02*
X112272288Y-50220457D01*
X111935571Y-49412335D02*
X111295807Y-49715381D01*
X111598853Y-49075617D02*
X111295807Y-49715381D01*
X111295807Y-49715381D02*
X111194792Y-49951083D01*
X111194792Y-49951083D02*
X111194792Y-50018427D01*
X111194792Y-50018427D02*
X111228464Y-50119442D01*
X109948937Y-48368510D02*
X110352998Y-48772571D01*
X110150968Y-48570541D02*
X110858074Y-47863434D01*
X110858074Y-47863434D02*
X110824403Y-48031793D01*
X110824403Y-48031793D02*
X110824403Y-48166480D01*
X110824403Y-48166480D02*
X110858074Y-48267495D01*
X110420342Y-47425701D02*
X109948937Y-46954297D01*
X109948937Y-46954297D02*
X109544876Y-47964449D01*
X108130662Y-46550236D02*
X108837769Y-45843129D01*
X108164334Y-46516564D02*
X108198006Y-46617579D01*
X108198006Y-46617579D02*
X108332693Y-46752266D01*
X108332693Y-46752266D02*
X108433708Y-46785938D01*
X108433708Y-46785938D02*
X108501052Y-46785938D01*
X108501052Y-46785938D02*
X108602067Y-46752266D01*
X108602067Y-46752266D02*
X108804097Y-46550236D01*
X108804097Y-46550236D02*
X108837769Y-46449220D01*
X108837769Y-46449220D02*
X108837769Y-46381877D01*
X108837769Y-46381877D02*
X108804097Y-46280862D01*
X108804097Y-46280862D02*
X108669410Y-46146175D01*
X108669410Y-46146175D02*
X108568395Y-46112503D01*
X107793945Y-46213518D02*
X108265349Y-45742113D01*
X108501051Y-45506411D02*
X108501051Y-45573755D01*
X108501051Y-45573755D02*
X108433708Y-45573755D01*
X108433708Y-45573755D02*
X108433708Y-45506411D01*
X108433708Y-45506411D02*
X108501051Y-45506411D01*
X108501051Y-45506411D02*
X108433708Y-45573755D01*
X107524571Y-45876801D02*
X107423556Y-45843129D01*
X107423556Y-45843129D02*
X107288869Y-45708442D01*
X107288869Y-45708442D02*
X107255197Y-45607427D01*
X107255197Y-45607427D02*
X107288869Y-45506412D01*
X107288869Y-45506412D02*
X107322540Y-45472740D01*
X107322540Y-45472740D02*
X107423556Y-45439068D01*
X107423556Y-45439068D02*
X107524571Y-45472740D01*
X107524571Y-45472740D02*
X107625586Y-45573755D01*
X107625586Y-45573755D02*
X107726601Y-45607427D01*
X107726601Y-45607427D02*
X107827617Y-45573755D01*
X107827617Y-45573755D02*
X107861289Y-45540083D01*
X107861289Y-45540083D02*
X107894960Y-45439068D01*
X107894960Y-45439068D02*
X107861289Y-45338053D01*
X107861289Y-45338053D02*
X107760273Y-45237037D01*
X107760273Y-45237037D02*
X107659258Y-45203366D01*
X106581762Y-45001335D02*
X106952151Y-44630946D01*
X106952151Y-44630946D02*
X107053166Y-44597274D01*
X107053166Y-44597274D02*
X107154182Y-44630946D01*
X107154182Y-44630946D02*
X107288869Y-44765633D01*
X107288869Y-44765633D02*
X107322540Y-44866648D01*
X106615434Y-44967663D02*
X106649105Y-45068679D01*
X106649105Y-45068679D02*
X106817464Y-45237037D01*
X106817464Y-45237037D02*
X106918479Y-45270709D01*
X106918479Y-45270709D02*
X107019495Y-45237037D01*
X107019495Y-45237037D02*
X107086838Y-45169694D01*
X107086838Y-45169694D02*
X107120510Y-45068679D01*
X107120510Y-45068679D02*
X107086838Y-44967663D01*
X107086838Y-44967663D02*
X106918479Y-44799305D01*
X106918479Y-44799305D02*
X106884808Y-44698289D01*
X106245044Y-44664618D02*
X106952151Y-43957511D01*
X106682777Y-44226885D02*
X106649105Y-44125869D01*
X106649105Y-44125869D02*
X106514418Y-43991182D01*
X106514418Y-43991182D02*
X106413403Y-43957511D01*
X106413403Y-43957511D02*
X106346059Y-43957511D01*
X106346059Y-43957511D02*
X106245044Y-43991182D01*
X106245044Y-43991182D02*
X106043014Y-44193213D01*
X106043014Y-44193213D02*
X106009342Y-44294228D01*
X106009342Y-44294228D02*
X106009342Y-44361572D01*
X106009342Y-44361572D02*
X106043014Y-44462587D01*
X106043014Y-44462587D02*
X106177701Y-44597274D01*
X106177701Y-44597274D02*
X106278716Y-44630946D01*
X105504266Y-43923839D02*
X105605281Y-43957511D01*
X105605281Y-43957511D02*
X105706296Y-43923839D01*
X105706296Y-43923839D02*
X106312388Y-43317747D01*
X104999189Y-43351419D02*
X105032861Y-43452434D01*
X105032861Y-43452434D02*
X105167548Y-43587121D01*
X105167548Y-43587121D02*
X105268563Y-43620793D01*
X105268563Y-43620793D02*
X105369578Y-43587121D01*
X105369578Y-43587121D02*
X105638952Y-43317747D01*
X105638952Y-43317747D02*
X105672624Y-43216732D01*
X105672624Y-43216732D02*
X105638952Y-43115717D01*
X105638952Y-43115717D02*
X105504265Y-42981030D01*
X105504265Y-42981030D02*
X105403250Y-42947358D01*
X105403250Y-42947358D02*
X105302235Y-42981030D01*
X105302235Y-42981030D02*
X105234891Y-43048373D01*
X105234891Y-43048373D02*
X105504265Y-43452434D01*
X115375334Y-50994908D02*
X116082441Y-50287801D01*
X115577365Y-50658190D02*
X115105960Y-50725534D01*
X115577365Y-50254129D02*
X115577365Y-50792877D01*
X114567212Y-50119442D02*
X114600884Y-50220457D01*
X114600884Y-50220457D02*
X114735571Y-50355144D01*
X114735571Y-50355144D02*
X114836586Y-50388816D01*
X114836586Y-50388816D02*
X114937601Y-50355144D01*
X114937601Y-50355144D02*
X115206975Y-50085770D01*
X115206975Y-50085770D02*
X115240647Y-49984755D01*
X115240647Y-49984755D02*
X115206975Y-49883740D01*
X115206975Y-49883740D02*
X115072288Y-49749053D01*
X115072288Y-49749053D02*
X114971273Y-49715381D01*
X114971273Y-49715381D02*
X114870258Y-49749053D01*
X114870258Y-49749053D02*
X114802914Y-49816396D01*
X114802914Y-49816396D02*
X115072288Y-50220457D01*
X114735571Y-49412335D02*
X114095807Y-49715381D01*
X114398853Y-49075617D02*
X114095807Y-49715381D01*
X114095807Y-49715381D02*
X113994792Y-49951083D01*
X113994792Y-49951083D02*
X113994792Y-50018427D01*
X113994792Y-50018427D02*
X114028464Y-50119442D01*
X112748937Y-48368510D02*
X113152998Y-48772571D01*
X112950968Y-48570541D02*
X113658074Y-47863434D01*
X113658074Y-47863434D02*
X113624403Y-48031793D01*
X113624403Y-48031793D02*
X113624403Y-48166480D01*
X113624403Y-48166480D02*
X113658074Y-48267495D01*
X112748937Y-47560388D02*
X112849952Y-47594060D01*
X112849952Y-47594060D02*
X112917296Y-47594060D01*
X112917296Y-47594060D02*
X113018311Y-47560388D01*
X113018311Y-47560388D02*
X113051983Y-47526717D01*
X113051983Y-47526717D02*
X113085655Y-47425701D01*
X113085655Y-47425701D02*
X113085655Y-47358358D01*
X113085655Y-47358358D02*
X113051983Y-47257343D01*
X113051983Y-47257343D02*
X112917296Y-47122656D01*
X112917296Y-47122656D02*
X112816281Y-47088984D01*
X112816281Y-47088984D02*
X112748937Y-47088984D01*
X112748937Y-47088984D02*
X112647922Y-47122656D01*
X112647922Y-47122656D02*
X112614250Y-47156327D01*
X112614250Y-47156327D02*
X112580578Y-47257343D01*
X112580578Y-47257343D02*
X112580578Y-47324686D01*
X112580578Y-47324686D02*
X112614250Y-47425701D01*
X112614250Y-47425701D02*
X112748937Y-47560388D01*
X112748937Y-47560388D02*
X112782609Y-47661404D01*
X112782609Y-47661404D02*
X112782609Y-47728747D01*
X112782609Y-47728747D02*
X112748937Y-47829762D01*
X112748937Y-47829762D02*
X112614250Y-47964449D01*
X112614250Y-47964449D02*
X112513235Y-47998121D01*
X112513235Y-47998121D02*
X112445891Y-47998121D01*
X112445891Y-47998121D02*
X112344876Y-47964449D01*
X112344876Y-47964449D02*
X112210189Y-47829762D01*
X112210189Y-47829762D02*
X112176517Y-47728747D01*
X112176517Y-47728747D02*
X112176517Y-47661404D01*
X112176517Y-47661404D02*
X112210189Y-47560388D01*
X112210189Y-47560388D02*
X112344876Y-47425701D01*
X112344876Y-47425701D02*
X112445891Y-47392030D01*
X112445891Y-47392030D02*
X112513235Y-47392030D01*
X112513235Y-47392030D02*
X112614250Y-47425701D01*
X110930662Y-46550236D02*
X111637769Y-45843129D01*
X110964334Y-46516564D02*
X110998006Y-46617579D01*
X110998006Y-46617579D02*
X111132693Y-46752266D01*
X111132693Y-46752266D02*
X111233708Y-46785938D01*
X111233708Y-46785938D02*
X111301052Y-46785938D01*
X111301052Y-46785938D02*
X111402067Y-46752266D01*
X111402067Y-46752266D02*
X111604097Y-46550236D01*
X111604097Y-46550236D02*
X111637769Y-46449220D01*
X111637769Y-46449220D02*
X111637769Y-46381877D01*
X111637769Y-46381877D02*
X111604097Y-46280862D01*
X111604097Y-46280862D02*
X111469410Y-46146175D01*
X111469410Y-46146175D02*
X111368395Y-46112503D01*
X110593945Y-46213518D02*
X111065349Y-45742113D01*
X111301051Y-45506411D02*
X111301051Y-45573755D01*
X111301051Y-45573755D02*
X111233708Y-45573755D01*
X111233708Y-45573755D02*
X111233708Y-45506411D01*
X111233708Y-45506411D02*
X111301051Y-45506411D01*
X111301051Y-45506411D02*
X111233708Y-45573755D01*
X110324571Y-45876801D02*
X110223556Y-45843129D01*
X110223556Y-45843129D02*
X110088869Y-45708442D01*
X110088869Y-45708442D02*
X110055197Y-45607427D01*
X110055197Y-45607427D02*
X110088869Y-45506412D01*
X110088869Y-45506412D02*
X110122540Y-45472740D01*
X110122540Y-45472740D02*
X110223556Y-45439068D01*
X110223556Y-45439068D02*
X110324571Y-45472740D01*
X110324571Y-45472740D02*
X110425586Y-45573755D01*
X110425586Y-45573755D02*
X110526601Y-45607427D01*
X110526601Y-45607427D02*
X110627617Y-45573755D01*
X110627617Y-45573755D02*
X110661289Y-45540083D01*
X110661289Y-45540083D02*
X110694960Y-45439068D01*
X110694960Y-45439068D02*
X110661289Y-45338053D01*
X110661289Y-45338053D02*
X110560273Y-45237037D01*
X110560273Y-45237037D02*
X110459258Y-45203366D01*
X109381762Y-45001335D02*
X109752151Y-44630946D01*
X109752151Y-44630946D02*
X109853166Y-44597274D01*
X109853166Y-44597274D02*
X109954182Y-44630946D01*
X109954182Y-44630946D02*
X110088869Y-44765633D01*
X110088869Y-44765633D02*
X110122540Y-44866648D01*
X109415434Y-44967663D02*
X109449105Y-45068679D01*
X109449105Y-45068679D02*
X109617464Y-45237037D01*
X109617464Y-45237037D02*
X109718479Y-45270709D01*
X109718479Y-45270709D02*
X109819495Y-45237037D01*
X109819495Y-45237037D02*
X109886838Y-45169694D01*
X109886838Y-45169694D02*
X109920510Y-45068679D01*
X109920510Y-45068679D02*
X109886838Y-44967663D01*
X109886838Y-44967663D02*
X109718479Y-44799305D01*
X109718479Y-44799305D02*
X109684808Y-44698289D01*
X109045044Y-44664618D02*
X109752151Y-43957511D01*
X109482777Y-44226885D02*
X109449105Y-44125869D01*
X109449105Y-44125869D02*
X109314418Y-43991182D01*
X109314418Y-43991182D02*
X109213403Y-43957511D01*
X109213403Y-43957511D02*
X109146059Y-43957511D01*
X109146059Y-43957511D02*
X109045044Y-43991182D01*
X109045044Y-43991182D02*
X108843014Y-44193213D01*
X108843014Y-44193213D02*
X108809342Y-44294228D01*
X108809342Y-44294228D02*
X108809342Y-44361572D01*
X108809342Y-44361572D02*
X108843014Y-44462587D01*
X108843014Y-44462587D02*
X108977701Y-44597274D01*
X108977701Y-44597274D02*
X109078716Y-44630946D01*
X108304266Y-43923839D02*
X108405281Y-43957511D01*
X108405281Y-43957511D02*
X108506296Y-43923839D01*
X108506296Y-43923839D02*
X109112388Y-43317747D01*
X107799189Y-43351419D02*
X107832861Y-43452434D01*
X107832861Y-43452434D02*
X107967548Y-43587121D01*
X107967548Y-43587121D02*
X108068563Y-43620793D01*
X108068563Y-43620793D02*
X108169578Y-43587121D01*
X108169578Y-43587121D02*
X108438952Y-43317747D01*
X108438952Y-43317747D02*
X108472624Y-43216732D01*
X108472624Y-43216732D02*
X108438952Y-43115717D01*
X108438952Y-43115717D02*
X108304265Y-42981030D01*
X108304265Y-42981030D02*
X108203250Y-42947358D01*
X108203250Y-42947358D02*
X108102235Y-42981030D01*
X108102235Y-42981030D02*
X108034891Y-43048373D01*
X108034891Y-43048373D02*
X108304265Y-43452434D01*
X106975334Y-50994908D02*
X107682441Y-50287801D01*
X107177365Y-50658190D02*
X106705960Y-50725534D01*
X107177365Y-50254129D02*
X107177365Y-50792877D01*
X106167212Y-50119442D02*
X106200884Y-50220457D01*
X106200884Y-50220457D02*
X106335571Y-50355144D01*
X106335571Y-50355144D02*
X106436586Y-50388816D01*
X106436586Y-50388816D02*
X106537601Y-50355144D01*
X106537601Y-50355144D02*
X106806975Y-50085770D01*
X106806975Y-50085770D02*
X106840647Y-49984755D01*
X106840647Y-49984755D02*
X106806975Y-49883740D01*
X106806975Y-49883740D02*
X106672288Y-49749053D01*
X106672288Y-49749053D02*
X106571273Y-49715381D01*
X106571273Y-49715381D02*
X106470258Y-49749053D01*
X106470258Y-49749053D02*
X106402914Y-49816396D01*
X106402914Y-49816396D02*
X106672288Y-50220457D01*
X106335571Y-49412335D02*
X105695807Y-49715381D01*
X105998853Y-49075617D02*
X105695807Y-49715381D01*
X105695807Y-49715381D02*
X105594792Y-49951083D01*
X105594792Y-49951083D02*
X105594792Y-50018427D01*
X105594792Y-50018427D02*
X105628464Y-50119442D01*
X104348937Y-48368510D02*
X104752998Y-48772571D01*
X104550968Y-48570541D02*
X105258074Y-47863434D01*
X105258074Y-47863434D02*
X105224403Y-48031793D01*
X105224403Y-48031793D02*
X105224403Y-48166480D01*
X105224403Y-48166480D02*
X105258074Y-48267495D01*
X104416281Y-47021640D02*
X104752998Y-47358358D01*
X104752998Y-47358358D02*
X104449952Y-47728747D01*
X104449952Y-47728747D02*
X104449952Y-47661404D01*
X104449952Y-47661404D02*
X104416281Y-47560388D01*
X104416281Y-47560388D02*
X104247922Y-47392030D01*
X104247922Y-47392030D02*
X104146907Y-47358358D01*
X104146907Y-47358358D02*
X104079563Y-47358358D01*
X104079563Y-47358358D02*
X103978548Y-47392030D01*
X103978548Y-47392030D02*
X103810189Y-47560388D01*
X103810189Y-47560388D02*
X103776517Y-47661404D01*
X103776517Y-47661404D02*
X103776517Y-47728747D01*
X103776517Y-47728747D02*
X103810189Y-47829762D01*
X103810189Y-47829762D02*
X103978548Y-47998121D01*
X103978548Y-47998121D02*
X104079563Y-48031793D01*
X104079563Y-48031793D02*
X104146907Y-48031793D01*
X102530662Y-46550236D02*
X103237769Y-45843129D01*
X102564334Y-46516564D02*
X102598006Y-46617579D01*
X102598006Y-46617579D02*
X102732693Y-46752266D01*
X102732693Y-46752266D02*
X102833708Y-46785938D01*
X102833708Y-46785938D02*
X102901052Y-46785938D01*
X102901052Y-46785938D02*
X103002067Y-46752266D01*
X103002067Y-46752266D02*
X103204097Y-46550236D01*
X103204097Y-46550236D02*
X103237769Y-46449220D01*
X103237769Y-46449220D02*
X103237769Y-46381877D01*
X103237769Y-46381877D02*
X103204097Y-46280862D01*
X103204097Y-46280862D02*
X103069410Y-46146175D01*
X103069410Y-46146175D02*
X102968395Y-46112503D01*
X102193945Y-46213518D02*
X102665349Y-45742113D01*
X102901051Y-45506411D02*
X102901051Y-45573755D01*
X102901051Y-45573755D02*
X102833708Y-45573755D01*
X102833708Y-45573755D02*
X102833708Y-45506411D01*
X102833708Y-45506411D02*
X102901051Y-45506411D01*
X102901051Y-45506411D02*
X102833708Y-45573755D01*
X101924571Y-45876801D02*
X101823556Y-45843129D01*
X101823556Y-45843129D02*
X101688869Y-45708442D01*
X101688869Y-45708442D02*
X101655197Y-45607427D01*
X101655197Y-45607427D02*
X101688869Y-45506412D01*
X101688869Y-45506412D02*
X101722540Y-45472740D01*
X101722540Y-45472740D02*
X101823556Y-45439068D01*
X101823556Y-45439068D02*
X101924571Y-45472740D01*
X101924571Y-45472740D02*
X102025586Y-45573755D01*
X102025586Y-45573755D02*
X102126601Y-45607427D01*
X102126601Y-45607427D02*
X102227617Y-45573755D01*
X102227617Y-45573755D02*
X102261289Y-45540083D01*
X102261289Y-45540083D02*
X102294960Y-45439068D01*
X102294960Y-45439068D02*
X102261289Y-45338053D01*
X102261289Y-45338053D02*
X102160273Y-45237037D01*
X102160273Y-45237037D02*
X102059258Y-45203366D01*
X100981762Y-45001335D02*
X101352151Y-44630946D01*
X101352151Y-44630946D02*
X101453166Y-44597274D01*
X101453166Y-44597274D02*
X101554182Y-44630946D01*
X101554182Y-44630946D02*
X101688869Y-44765633D01*
X101688869Y-44765633D02*
X101722540Y-44866648D01*
X101015434Y-44967663D02*
X101049105Y-45068679D01*
X101049105Y-45068679D02*
X101217464Y-45237037D01*
X101217464Y-45237037D02*
X101318479Y-45270709D01*
X101318479Y-45270709D02*
X101419495Y-45237037D01*
X101419495Y-45237037D02*
X101486838Y-45169694D01*
X101486838Y-45169694D02*
X101520510Y-45068679D01*
X101520510Y-45068679D02*
X101486838Y-44967663D01*
X101486838Y-44967663D02*
X101318479Y-44799305D01*
X101318479Y-44799305D02*
X101284808Y-44698289D01*
X100645044Y-44664618D02*
X101352151Y-43957511D01*
X101082777Y-44226885D02*
X101049105Y-44125869D01*
X101049105Y-44125869D02*
X100914418Y-43991182D01*
X100914418Y-43991182D02*
X100813403Y-43957511D01*
X100813403Y-43957511D02*
X100746059Y-43957511D01*
X100746059Y-43957511D02*
X100645044Y-43991182D01*
X100645044Y-43991182D02*
X100443014Y-44193213D01*
X100443014Y-44193213D02*
X100409342Y-44294228D01*
X100409342Y-44294228D02*
X100409342Y-44361572D01*
X100409342Y-44361572D02*
X100443014Y-44462587D01*
X100443014Y-44462587D02*
X100577701Y-44597274D01*
X100577701Y-44597274D02*
X100678716Y-44630946D01*
X99904266Y-43923839D02*
X100005281Y-43957511D01*
X100005281Y-43957511D02*
X100106296Y-43923839D01*
X100106296Y-43923839D02*
X100712388Y-43317747D01*
X99399189Y-43351419D02*
X99432861Y-43452434D01*
X99432861Y-43452434D02*
X99567548Y-43587121D01*
X99567548Y-43587121D02*
X99668563Y-43620793D01*
X99668563Y-43620793D02*
X99769578Y-43587121D01*
X99769578Y-43587121D02*
X100038952Y-43317747D01*
X100038952Y-43317747D02*
X100072624Y-43216732D01*
X100072624Y-43216732D02*
X100038952Y-43115717D01*
X100038952Y-43115717D02*
X99904265Y-42981030D01*
X99904265Y-42981030D02*
X99803250Y-42947358D01*
X99803250Y-42947358D02*
X99702235Y-42981030D01*
X99702235Y-42981030D02*
X99634891Y-43048373D01*
X99634891Y-43048373D02*
X99904265Y-43452434D01*
X100775334Y-50994908D02*
X101482441Y-50287801D01*
X100977365Y-50658190D02*
X100505960Y-50725534D01*
X100977365Y-50254129D02*
X100977365Y-50792877D01*
X99967212Y-50119442D02*
X100000884Y-50220457D01*
X100000884Y-50220457D02*
X100135571Y-50355144D01*
X100135571Y-50355144D02*
X100236586Y-50388816D01*
X100236586Y-50388816D02*
X100337601Y-50355144D01*
X100337601Y-50355144D02*
X100606975Y-50085770D01*
X100606975Y-50085770D02*
X100640647Y-49984755D01*
X100640647Y-49984755D02*
X100606975Y-49883740D01*
X100606975Y-49883740D02*
X100472288Y-49749053D01*
X100472288Y-49749053D02*
X100371273Y-49715381D01*
X100371273Y-49715381D02*
X100270258Y-49749053D01*
X100270258Y-49749053D02*
X100202914Y-49816396D01*
X100202914Y-49816396D02*
X100472288Y-50220457D01*
X100135571Y-49412335D02*
X99495807Y-49715381D01*
X99798853Y-49075617D02*
X99495807Y-49715381D01*
X99495807Y-49715381D02*
X99394792Y-49951083D01*
X99394792Y-49951083D02*
X99394792Y-50018427D01*
X99394792Y-50018427D02*
X99428464Y-50119442D01*
X98148937Y-48368510D02*
X98552998Y-48772571D01*
X98350968Y-48570541D02*
X99058074Y-47863434D01*
X99058074Y-47863434D02*
X99024403Y-48031793D01*
X99024403Y-48031793D02*
X99024403Y-48166480D01*
X99024403Y-48166480D02*
X99058074Y-48267495D01*
X98620342Y-47425701D02*
X98182609Y-46987969D01*
X98182609Y-46987969D02*
X98148937Y-47493045D01*
X98148937Y-47493045D02*
X98047922Y-47392030D01*
X98047922Y-47392030D02*
X97946907Y-47358358D01*
X97946907Y-47358358D02*
X97879563Y-47358358D01*
X97879563Y-47358358D02*
X97778548Y-47392030D01*
X97778548Y-47392030D02*
X97610189Y-47560388D01*
X97610189Y-47560388D02*
X97576517Y-47661404D01*
X97576517Y-47661404D02*
X97576517Y-47728747D01*
X97576517Y-47728747D02*
X97610189Y-47829762D01*
X97610189Y-47829762D02*
X97812220Y-48031793D01*
X97812220Y-48031793D02*
X97913235Y-48065465D01*
X97913235Y-48065465D02*
X97980578Y-48065465D01*
X96330662Y-46550236D02*
X97037769Y-45843129D01*
X96364334Y-46516564D02*
X96398006Y-46617579D01*
X96398006Y-46617579D02*
X96532693Y-46752266D01*
X96532693Y-46752266D02*
X96633708Y-46785938D01*
X96633708Y-46785938D02*
X96701052Y-46785938D01*
X96701052Y-46785938D02*
X96802067Y-46752266D01*
X96802067Y-46752266D02*
X97004097Y-46550236D01*
X97004097Y-46550236D02*
X97037769Y-46449220D01*
X97037769Y-46449220D02*
X97037769Y-46381877D01*
X97037769Y-46381877D02*
X97004097Y-46280862D01*
X97004097Y-46280862D02*
X96869410Y-46146175D01*
X96869410Y-46146175D02*
X96768395Y-46112503D01*
X95993945Y-46213518D02*
X96465349Y-45742113D01*
X96701051Y-45506411D02*
X96701051Y-45573755D01*
X96701051Y-45573755D02*
X96633708Y-45573755D01*
X96633708Y-45573755D02*
X96633708Y-45506411D01*
X96633708Y-45506411D02*
X96701051Y-45506411D01*
X96701051Y-45506411D02*
X96633708Y-45573755D01*
X95724571Y-45876801D02*
X95623556Y-45843129D01*
X95623556Y-45843129D02*
X95488869Y-45708442D01*
X95488869Y-45708442D02*
X95455197Y-45607427D01*
X95455197Y-45607427D02*
X95488869Y-45506412D01*
X95488869Y-45506412D02*
X95522540Y-45472740D01*
X95522540Y-45472740D02*
X95623556Y-45439068D01*
X95623556Y-45439068D02*
X95724571Y-45472740D01*
X95724571Y-45472740D02*
X95825586Y-45573755D01*
X95825586Y-45573755D02*
X95926601Y-45607427D01*
X95926601Y-45607427D02*
X96027617Y-45573755D01*
X96027617Y-45573755D02*
X96061289Y-45540083D01*
X96061289Y-45540083D02*
X96094960Y-45439068D01*
X96094960Y-45439068D02*
X96061289Y-45338053D01*
X96061289Y-45338053D02*
X95960273Y-45237037D01*
X95960273Y-45237037D02*
X95859258Y-45203366D01*
X94781762Y-45001335D02*
X95152151Y-44630946D01*
X95152151Y-44630946D02*
X95253166Y-44597274D01*
X95253166Y-44597274D02*
X95354182Y-44630946D01*
X95354182Y-44630946D02*
X95488869Y-44765633D01*
X95488869Y-44765633D02*
X95522540Y-44866648D01*
X94815434Y-44967663D02*
X94849105Y-45068679D01*
X94849105Y-45068679D02*
X95017464Y-45237037D01*
X95017464Y-45237037D02*
X95118479Y-45270709D01*
X95118479Y-45270709D02*
X95219495Y-45237037D01*
X95219495Y-45237037D02*
X95286838Y-45169694D01*
X95286838Y-45169694D02*
X95320510Y-45068679D01*
X95320510Y-45068679D02*
X95286838Y-44967663D01*
X95286838Y-44967663D02*
X95118479Y-44799305D01*
X95118479Y-44799305D02*
X95084808Y-44698289D01*
X94445044Y-44664618D02*
X95152151Y-43957511D01*
X94882777Y-44226885D02*
X94849105Y-44125869D01*
X94849105Y-44125869D02*
X94714418Y-43991182D01*
X94714418Y-43991182D02*
X94613403Y-43957511D01*
X94613403Y-43957511D02*
X94546059Y-43957511D01*
X94546059Y-43957511D02*
X94445044Y-43991182D01*
X94445044Y-43991182D02*
X94243014Y-44193213D01*
X94243014Y-44193213D02*
X94209342Y-44294228D01*
X94209342Y-44294228D02*
X94209342Y-44361572D01*
X94209342Y-44361572D02*
X94243014Y-44462587D01*
X94243014Y-44462587D02*
X94377701Y-44597274D01*
X94377701Y-44597274D02*
X94478716Y-44630946D01*
X93704266Y-43923839D02*
X93805281Y-43957511D01*
X93805281Y-43957511D02*
X93906296Y-43923839D01*
X93906296Y-43923839D02*
X94512388Y-43317747D01*
X93199189Y-43351419D02*
X93232861Y-43452434D01*
X93232861Y-43452434D02*
X93367548Y-43587121D01*
X93367548Y-43587121D02*
X93468563Y-43620793D01*
X93468563Y-43620793D02*
X93569578Y-43587121D01*
X93569578Y-43587121D02*
X93838952Y-43317747D01*
X93838952Y-43317747D02*
X93872624Y-43216732D01*
X93872624Y-43216732D02*
X93838952Y-43115717D01*
X93838952Y-43115717D02*
X93704265Y-42981030D01*
X93704265Y-42981030D02*
X93603250Y-42947358D01*
X93603250Y-42947358D02*
X93502235Y-42981030D01*
X93502235Y-42981030D02*
X93434891Y-43048373D01*
X93434891Y-43048373D02*
X93704265Y-43452434D01*
X103875334Y-50994908D02*
X104582441Y-50287801D01*
X104077365Y-50658190D02*
X103605960Y-50725534D01*
X104077365Y-50254129D02*
X104077365Y-50792877D01*
X103067212Y-50119442D02*
X103100884Y-50220457D01*
X103100884Y-50220457D02*
X103235571Y-50355144D01*
X103235571Y-50355144D02*
X103336586Y-50388816D01*
X103336586Y-50388816D02*
X103437601Y-50355144D01*
X103437601Y-50355144D02*
X103706975Y-50085770D01*
X103706975Y-50085770D02*
X103740647Y-49984755D01*
X103740647Y-49984755D02*
X103706975Y-49883740D01*
X103706975Y-49883740D02*
X103572288Y-49749053D01*
X103572288Y-49749053D02*
X103471273Y-49715381D01*
X103471273Y-49715381D02*
X103370258Y-49749053D01*
X103370258Y-49749053D02*
X103302914Y-49816396D01*
X103302914Y-49816396D02*
X103572288Y-50220457D01*
X103235571Y-49412335D02*
X102595807Y-49715381D01*
X102898853Y-49075617D02*
X102595807Y-49715381D01*
X102595807Y-49715381D02*
X102494792Y-49951083D01*
X102494792Y-49951083D02*
X102494792Y-50018427D01*
X102494792Y-50018427D02*
X102528464Y-50119442D01*
X101248937Y-48368510D02*
X101652998Y-48772571D01*
X101450968Y-48570541D02*
X102158074Y-47863434D01*
X102158074Y-47863434D02*
X102124403Y-48031793D01*
X102124403Y-48031793D02*
X102124403Y-48166480D01*
X102124403Y-48166480D02*
X102158074Y-48267495D01*
X101114250Y-47291014D02*
X100642846Y-47762419D01*
X101551983Y-47189999D02*
X101215265Y-47863434D01*
X101215265Y-47863434D02*
X100777533Y-47425701D01*
X99430662Y-46550236D02*
X100137769Y-45843129D01*
X99464334Y-46516564D02*
X99498006Y-46617579D01*
X99498006Y-46617579D02*
X99632693Y-46752266D01*
X99632693Y-46752266D02*
X99733708Y-46785938D01*
X99733708Y-46785938D02*
X99801052Y-46785938D01*
X99801052Y-46785938D02*
X99902067Y-46752266D01*
X99902067Y-46752266D02*
X100104097Y-46550236D01*
X100104097Y-46550236D02*
X100137769Y-46449220D01*
X100137769Y-46449220D02*
X100137769Y-46381877D01*
X100137769Y-46381877D02*
X100104097Y-46280862D01*
X100104097Y-46280862D02*
X99969410Y-46146175D01*
X99969410Y-46146175D02*
X99868395Y-46112503D01*
X99093945Y-46213518D02*
X99565349Y-45742113D01*
X99801051Y-45506411D02*
X99801051Y-45573755D01*
X99801051Y-45573755D02*
X99733708Y-45573755D01*
X99733708Y-45573755D02*
X99733708Y-45506411D01*
X99733708Y-45506411D02*
X99801051Y-45506411D01*
X99801051Y-45506411D02*
X99733708Y-45573755D01*
X98824571Y-45876801D02*
X98723556Y-45843129D01*
X98723556Y-45843129D02*
X98588869Y-45708442D01*
X98588869Y-45708442D02*
X98555197Y-45607427D01*
X98555197Y-45607427D02*
X98588869Y-45506412D01*
X98588869Y-45506412D02*
X98622540Y-45472740D01*
X98622540Y-45472740D02*
X98723556Y-45439068D01*
X98723556Y-45439068D02*
X98824571Y-45472740D01*
X98824571Y-45472740D02*
X98925586Y-45573755D01*
X98925586Y-45573755D02*
X99026601Y-45607427D01*
X99026601Y-45607427D02*
X99127617Y-45573755D01*
X99127617Y-45573755D02*
X99161289Y-45540083D01*
X99161289Y-45540083D02*
X99194960Y-45439068D01*
X99194960Y-45439068D02*
X99161289Y-45338053D01*
X99161289Y-45338053D02*
X99060273Y-45237037D01*
X99060273Y-45237037D02*
X98959258Y-45203366D01*
X97881762Y-45001335D02*
X98252151Y-44630946D01*
X98252151Y-44630946D02*
X98353166Y-44597274D01*
X98353166Y-44597274D02*
X98454182Y-44630946D01*
X98454182Y-44630946D02*
X98588869Y-44765633D01*
X98588869Y-44765633D02*
X98622540Y-44866648D01*
X97915434Y-44967663D02*
X97949105Y-45068679D01*
X97949105Y-45068679D02*
X98117464Y-45237037D01*
X98117464Y-45237037D02*
X98218479Y-45270709D01*
X98218479Y-45270709D02*
X98319495Y-45237037D01*
X98319495Y-45237037D02*
X98386838Y-45169694D01*
X98386838Y-45169694D02*
X98420510Y-45068679D01*
X98420510Y-45068679D02*
X98386838Y-44967663D01*
X98386838Y-44967663D02*
X98218479Y-44799305D01*
X98218479Y-44799305D02*
X98184808Y-44698289D01*
X97545044Y-44664618D02*
X98252151Y-43957511D01*
X97982777Y-44226885D02*
X97949105Y-44125869D01*
X97949105Y-44125869D02*
X97814418Y-43991182D01*
X97814418Y-43991182D02*
X97713403Y-43957511D01*
X97713403Y-43957511D02*
X97646059Y-43957511D01*
X97646059Y-43957511D02*
X97545044Y-43991182D01*
X97545044Y-43991182D02*
X97343014Y-44193213D01*
X97343014Y-44193213D02*
X97309342Y-44294228D01*
X97309342Y-44294228D02*
X97309342Y-44361572D01*
X97309342Y-44361572D02*
X97343014Y-44462587D01*
X97343014Y-44462587D02*
X97477701Y-44597274D01*
X97477701Y-44597274D02*
X97578716Y-44630946D01*
X96804266Y-43923839D02*
X96905281Y-43957511D01*
X96905281Y-43957511D02*
X97006296Y-43923839D01*
X97006296Y-43923839D02*
X97612388Y-43317747D01*
X96299189Y-43351419D02*
X96332861Y-43452434D01*
X96332861Y-43452434D02*
X96467548Y-43587121D01*
X96467548Y-43587121D02*
X96568563Y-43620793D01*
X96568563Y-43620793D02*
X96669578Y-43587121D01*
X96669578Y-43587121D02*
X96938952Y-43317747D01*
X96938952Y-43317747D02*
X96972624Y-43216732D01*
X96972624Y-43216732D02*
X96938952Y-43115717D01*
X96938952Y-43115717D02*
X96804265Y-42981030D01*
X96804265Y-42981030D02*
X96703250Y-42947358D01*
X96703250Y-42947358D02*
X96602235Y-42981030D01*
X96602235Y-42981030D02*
X96534891Y-43048373D01*
X96534891Y-43048373D02*
X96804265Y-43452434D01*
X109775334Y-50994908D02*
X110482441Y-50287801D01*
X109977365Y-50658190D02*
X109505960Y-50725534D01*
X109977365Y-50254129D02*
X109977365Y-50792877D01*
X108967212Y-50119442D02*
X109000884Y-50220457D01*
X109000884Y-50220457D02*
X109135571Y-50355144D01*
X109135571Y-50355144D02*
X109236586Y-50388816D01*
X109236586Y-50388816D02*
X109337601Y-50355144D01*
X109337601Y-50355144D02*
X109606975Y-50085770D01*
X109606975Y-50085770D02*
X109640647Y-49984755D01*
X109640647Y-49984755D02*
X109606975Y-49883740D01*
X109606975Y-49883740D02*
X109472288Y-49749053D01*
X109472288Y-49749053D02*
X109371273Y-49715381D01*
X109371273Y-49715381D02*
X109270258Y-49749053D01*
X109270258Y-49749053D02*
X109202914Y-49816396D01*
X109202914Y-49816396D02*
X109472288Y-50220457D01*
X109135571Y-49412335D02*
X108495807Y-49715381D01*
X108798853Y-49075617D02*
X108495807Y-49715381D01*
X108495807Y-49715381D02*
X108394792Y-49951083D01*
X108394792Y-49951083D02*
X108394792Y-50018427D01*
X108394792Y-50018427D02*
X108428464Y-50119442D01*
X107148937Y-48368510D02*
X107552998Y-48772571D01*
X107350968Y-48570541D02*
X108058074Y-47863434D01*
X108058074Y-47863434D02*
X108024403Y-48031793D01*
X108024403Y-48031793D02*
X108024403Y-48166480D01*
X108024403Y-48166480D02*
X108058074Y-48267495D01*
X107249952Y-47055312D02*
X107384639Y-47189999D01*
X107384639Y-47189999D02*
X107418311Y-47291014D01*
X107418311Y-47291014D02*
X107418311Y-47358358D01*
X107418311Y-47358358D02*
X107384639Y-47526717D01*
X107384639Y-47526717D02*
X107283624Y-47695075D01*
X107283624Y-47695075D02*
X107014250Y-47964449D01*
X107014250Y-47964449D02*
X106913235Y-47998121D01*
X106913235Y-47998121D02*
X106845891Y-47998121D01*
X106845891Y-47998121D02*
X106744876Y-47964449D01*
X106744876Y-47964449D02*
X106610189Y-47829762D01*
X106610189Y-47829762D02*
X106576517Y-47728747D01*
X106576517Y-47728747D02*
X106576517Y-47661404D01*
X106576517Y-47661404D02*
X106610189Y-47560388D01*
X106610189Y-47560388D02*
X106778548Y-47392030D01*
X106778548Y-47392030D02*
X106879563Y-47358358D01*
X106879563Y-47358358D02*
X106946907Y-47358358D01*
X106946907Y-47358358D02*
X107047922Y-47392030D01*
X107047922Y-47392030D02*
X107182609Y-47526717D01*
X107182609Y-47526717D02*
X107216281Y-47627732D01*
X107216281Y-47627732D02*
X107216281Y-47695075D01*
X107216281Y-47695075D02*
X107182609Y-47796091D01*
X105330662Y-46550236D02*
X106037769Y-45843129D01*
X105364334Y-46516564D02*
X105398006Y-46617579D01*
X105398006Y-46617579D02*
X105532693Y-46752266D01*
X105532693Y-46752266D02*
X105633708Y-46785938D01*
X105633708Y-46785938D02*
X105701052Y-46785938D01*
X105701052Y-46785938D02*
X105802067Y-46752266D01*
X105802067Y-46752266D02*
X106004097Y-46550236D01*
X106004097Y-46550236D02*
X106037769Y-46449220D01*
X106037769Y-46449220D02*
X106037769Y-46381877D01*
X106037769Y-46381877D02*
X106004097Y-46280862D01*
X106004097Y-46280862D02*
X105869410Y-46146175D01*
X105869410Y-46146175D02*
X105768395Y-46112503D01*
X104993945Y-46213518D02*
X105465349Y-45742113D01*
X105701051Y-45506411D02*
X105701051Y-45573755D01*
X105701051Y-45573755D02*
X105633708Y-45573755D01*
X105633708Y-45573755D02*
X105633708Y-45506411D01*
X105633708Y-45506411D02*
X105701051Y-45506411D01*
X105701051Y-45506411D02*
X105633708Y-45573755D01*
X104724571Y-45876801D02*
X104623556Y-45843129D01*
X104623556Y-45843129D02*
X104488869Y-45708442D01*
X104488869Y-45708442D02*
X104455197Y-45607427D01*
X104455197Y-45607427D02*
X104488869Y-45506412D01*
X104488869Y-45506412D02*
X104522540Y-45472740D01*
X104522540Y-45472740D02*
X104623556Y-45439068D01*
X104623556Y-45439068D02*
X104724571Y-45472740D01*
X104724571Y-45472740D02*
X104825586Y-45573755D01*
X104825586Y-45573755D02*
X104926601Y-45607427D01*
X104926601Y-45607427D02*
X105027617Y-45573755D01*
X105027617Y-45573755D02*
X105061289Y-45540083D01*
X105061289Y-45540083D02*
X105094960Y-45439068D01*
X105094960Y-45439068D02*
X105061289Y-45338053D01*
X105061289Y-45338053D02*
X104960273Y-45237037D01*
X104960273Y-45237037D02*
X104859258Y-45203366D01*
X103781762Y-45001335D02*
X104152151Y-44630946D01*
X104152151Y-44630946D02*
X104253166Y-44597274D01*
X104253166Y-44597274D02*
X104354182Y-44630946D01*
X104354182Y-44630946D02*
X104488869Y-44765633D01*
X104488869Y-44765633D02*
X104522540Y-44866648D01*
X103815434Y-44967663D02*
X103849105Y-45068679D01*
X103849105Y-45068679D02*
X104017464Y-45237037D01*
X104017464Y-45237037D02*
X104118479Y-45270709D01*
X104118479Y-45270709D02*
X104219495Y-45237037D01*
X104219495Y-45237037D02*
X104286838Y-45169694D01*
X104286838Y-45169694D02*
X104320510Y-45068679D01*
X104320510Y-45068679D02*
X104286838Y-44967663D01*
X104286838Y-44967663D02*
X104118479Y-44799305D01*
X104118479Y-44799305D02*
X104084808Y-44698289D01*
X103445044Y-44664618D02*
X104152151Y-43957511D01*
X103882777Y-44226885D02*
X103849105Y-44125869D01*
X103849105Y-44125869D02*
X103714418Y-43991182D01*
X103714418Y-43991182D02*
X103613403Y-43957511D01*
X103613403Y-43957511D02*
X103546059Y-43957511D01*
X103546059Y-43957511D02*
X103445044Y-43991182D01*
X103445044Y-43991182D02*
X103243014Y-44193213D01*
X103243014Y-44193213D02*
X103209342Y-44294228D01*
X103209342Y-44294228D02*
X103209342Y-44361572D01*
X103209342Y-44361572D02*
X103243014Y-44462587D01*
X103243014Y-44462587D02*
X103377701Y-44597274D01*
X103377701Y-44597274D02*
X103478716Y-44630946D01*
X102704266Y-43923839D02*
X102805281Y-43957511D01*
X102805281Y-43957511D02*
X102906296Y-43923839D01*
X102906296Y-43923839D02*
X103512388Y-43317747D01*
X102199189Y-43351419D02*
X102232861Y-43452434D01*
X102232861Y-43452434D02*
X102367548Y-43587121D01*
X102367548Y-43587121D02*
X102468563Y-43620793D01*
X102468563Y-43620793D02*
X102569578Y-43587121D01*
X102569578Y-43587121D02*
X102838952Y-43317747D01*
X102838952Y-43317747D02*
X102872624Y-43216732D01*
X102872624Y-43216732D02*
X102838952Y-43115717D01*
X102838952Y-43115717D02*
X102704265Y-42981030D01*
X102704265Y-42981030D02*
X102603250Y-42947358D01*
X102603250Y-42947358D02*
X102502235Y-42981030D01*
X102502235Y-42981030D02*
X102434891Y-43048373D01*
X102434891Y-43048373D02*
X102704265Y-43452434D01*
D11*
%TO.C,JP5*%
X93500000Y-42600000D02*
X93500000Y-39800000D01*
X93500000Y-39800000D02*
X95500000Y-39800000D01*
X95500000Y-42600000D02*
X93500000Y-42600000D01*
X95500000Y-39800000D02*
X95500000Y-42600000D01*
%TO.C,JP6*%
X96600000Y-42624999D02*
X96600000Y-39824999D01*
X96600000Y-39824999D02*
X98600000Y-39824999D01*
X98600000Y-42624999D02*
X96600000Y-42624999D01*
X98600000Y-39824999D02*
X98600000Y-42624999D01*
%TO.C,JP26*%
X108100000Y-42600000D02*
X108100000Y-39800000D01*
X108100000Y-39800000D02*
X110100000Y-39800000D01*
X110100000Y-42600000D02*
X108100000Y-42600000D01*
X110100000Y-39800000D02*
X110100000Y-42600000D01*
%TO.C,JPE01*%
X22265686Y-85625000D02*
X24265686Y-85625000D01*
X22265686Y-88425000D02*
X22265686Y-85625000D01*
X24265686Y-85625000D02*
X24265686Y-88425000D01*
X24265686Y-88425000D02*
X22265686Y-88425000D01*
%TO.C,JPE15*%
X57515686Y-85600000D02*
X59515686Y-85600000D01*
X57515686Y-88400000D02*
X57515686Y-85600000D01*
X59515686Y-85600000D02*
X59515686Y-88400000D01*
X59515686Y-88400000D02*
X57515686Y-88400000D01*
%TO.C,JPE13*%
X52515686Y-85600000D02*
X54515686Y-85600000D01*
X52515686Y-88400000D02*
X52515686Y-85600000D01*
X54515686Y-85600000D02*
X54515686Y-88400000D01*
X54515686Y-88400000D02*
X52515686Y-88400000D01*
%TO.C,JP20*%
X54515686Y-75650000D02*
X52515686Y-75650000D01*
X54515686Y-72850000D02*
X54515686Y-75650000D01*
X52515686Y-75650000D02*
X52515686Y-72850000D01*
X52515686Y-72850000D02*
X54515686Y-72850000D01*
%TO.C,JPE04*%
X29765686Y-85625000D02*
X31765686Y-85625000D01*
X29765686Y-88425000D02*
X29765686Y-85625000D01*
X31765686Y-85625000D02*
X31765686Y-88425000D01*
X31765686Y-88425000D02*
X29765686Y-88425000D01*
%TO.C,JP46*%
X64515686Y-75625000D02*
X62515686Y-75625000D01*
X64515686Y-72825000D02*
X64515686Y-75625000D01*
X62515686Y-75625000D02*
X62515686Y-72825000D01*
X62515686Y-72825000D02*
X64515686Y-72825000D01*
%TO.C,JPE18*%
X65015686Y-85600000D02*
X67015686Y-85600000D01*
X65015686Y-88400000D02*
X65015686Y-85600000D01*
X67015686Y-85600000D02*
X67015686Y-88400000D01*
X67015686Y-88400000D02*
X65015686Y-88400000D01*
%TO.C,JP16*%
X44515686Y-75650000D02*
X42515686Y-75650000D01*
X44515686Y-72850000D02*
X44515686Y-75650000D01*
X42515686Y-75650000D02*
X42515686Y-72850000D01*
X42515686Y-72850000D02*
X44515686Y-72850000D01*
%TO.C,JP47*%
X67015686Y-75650000D02*
X65015686Y-75650000D01*
X67015686Y-72850000D02*
X67015686Y-75650000D01*
X65015686Y-75650000D02*
X65015686Y-72850000D01*
X65015686Y-72850000D02*
X67015686Y-72850000D01*
%TO.C,JP13*%
X37015686Y-75625000D02*
X35015686Y-75625000D01*
X37015686Y-72825000D02*
X37015686Y-75625000D01*
X35015686Y-75625000D02*
X35015686Y-72825000D01*
X35015686Y-72825000D02*
X37015686Y-72825000D01*
%TO.C,JPE06*%
X35015686Y-85625000D02*
X37015686Y-85625000D01*
X35015686Y-88425000D02*
X35015686Y-85625000D01*
X37015686Y-85625000D02*
X37015686Y-88425000D01*
X37015686Y-88425000D02*
X35015686Y-88425000D01*
%TO.C,JP15*%
X42015686Y-75650000D02*
X40015686Y-75650000D01*
X42015686Y-72850000D02*
X42015686Y-75650000D01*
X40015686Y-75650000D02*
X40015686Y-72850000D01*
X40015686Y-72850000D02*
X42015686Y-72850000D01*
%TO.C,JPE08*%
X40015686Y-85600000D02*
X42015686Y-85600000D01*
X40015686Y-88400000D02*
X40015686Y-85600000D01*
X42015686Y-85600000D02*
X42015686Y-88400000D01*
X42015686Y-88400000D02*
X40015686Y-88400000D01*
%TO.C,JPE12*%
X50015686Y-85625000D02*
X52015686Y-85625000D01*
X50015686Y-88425000D02*
X50015686Y-85625000D01*
X52015686Y-85625000D02*
X52015686Y-88425000D01*
X52015686Y-88425000D02*
X50015686Y-88425000D01*
%TO.C,JP45*%
X62015686Y-75625000D02*
X60015686Y-75625000D01*
X62015686Y-72825000D02*
X62015686Y-75625000D01*
X60015686Y-75625000D02*
X60015686Y-72825000D01*
X60015686Y-72825000D02*
X62015686Y-72825000D01*
%TO.C,JP17*%
X47015686Y-75625000D02*
X45015686Y-75625000D01*
X47015686Y-72825000D02*
X47015686Y-75625000D01*
X45015686Y-75625000D02*
X45015686Y-72825000D01*
X45015686Y-72825000D02*
X47015686Y-72825000D01*
%TO.C,JPE14*%
X55015686Y-85625000D02*
X57015686Y-85625000D01*
X55015686Y-88425000D02*
X55015686Y-85625000D01*
X57015686Y-85625000D02*
X57015686Y-88425000D01*
X57015686Y-88425000D02*
X55015686Y-88425000D01*
%TO.C,JPE16*%
X60015686Y-85625000D02*
X62015686Y-85625000D01*
X60015686Y-88425000D02*
X60015686Y-85625000D01*
X62015686Y-85625000D02*
X62015686Y-88425000D01*
X62015686Y-88425000D02*
X60015686Y-88425000D01*
%TO.C,JP21*%
X57015686Y-75625000D02*
X55015686Y-75625000D01*
X57015686Y-72825000D02*
X57015686Y-75625000D01*
X55015686Y-75625000D02*
X55015686Y-72825000D01*
X55015686Y-72825000D02*
X57015686Y-72825000D01*
%TO.C,JPE03*%
X27265686Y-85625000D02*
X29265686Y-85625000D01*
X27265686Y-88425000D02*
X27265686Y-85625000D01*
X29265686Y-85625000D02*
X29265686Y-88425000D01*
X29265686Y-88425000D02*
X27265686Y-88425000D01*
%TO.C,JPE02*%
X24765686Y-85625000D02*
X26765686Y-85625000D01*
X24765686Y-88425000D02*
X24765686Y-85625000D01*
X26765686Y-85625000D02*
X26765686Y-88425000D01*
X26765686Y-88425000D02*
X24765686Y-88425000D01*
%TO.C,JP19*%
X52015686Y-75625000D02*
X50015686Y-75625000D01*
X52015686Y-72825000D02*
X52015686Y-75625000D01*
X50015686Y-75625000D02*
X50015686Y-72825000D01*
X50015686Y-72825000D02*
X52015686Y-72825000D01*
%TO.C,JPE09*%
X42515686Y-85625000D02*
X44515686Y-85625000D01*
X42515686Y-88425000D02*
X42515686Y-85625000D01*
X44515686Y-85625000D02*
X44515686Y-88425000D01*
X44515686Y-88425000D02*
X42515686Y-88425000D01*
%TO.C,JPE07*%
X37515686Y-85625000D02*
X39515686Y-85625000D01*
X37515686Y-88425000D02*
X37515686Y-85625000D01*
X39515686Y-85625000D02*
X39515686Y-88425000D01*
X39515686Y-88425000D02*
X37515686Y-88425000D01*
%TO.C,JP14*%
X39515686Y-75650000D02*
X37515686Y-75650000D01*
X39515686Y-72850000D02*
X39515686Y-75650000D01*
X37515686Y-75650000D02*
X37515686Y-72850000D01*
X37515686Y-72850000D02*
X39515686Y-72850000D01*
%TO.C,JP11*%
X32015686Y-75625000D02*
X30015686Y-75625000D01*
X32015686Y-72825000D02*
X32015686Y-75625000D01*
X30015686Y-75625000D02*
X30015686Y-72825000D01*
X30015686Y-72825000D02*
X32015686Y-72825000D01*
%TO.C,JPE05*%
X32515686Y-85625000D02*
X34515686Y-85625000D01*
X32515686Y-88425000D02*
X32515686Y-85625000D01*
X34515686Y-85625000D02*
X34515686Y-88425000D01*
X34515686Y-88425000D02*
X32515686Y-88425000D01*
%TO.C,JPE11*%
X47515686Y-85625000D02*
X49515686Y-85625000D01*
X47515686Y-88425000D02*
X47515686Y-85625000D01*
X49515686Y-85625000D02*
X49515686Y-88425000D01*
X49515686Y-88425000D02*
X47515686Y-88425000D01*
%TO.C,JP9*%
X27015686Y-75650000D02*
X25015686Y-75650000D01*
X27015686Y-72850000D02*
X27015686Y-75650000D01*
X25015686Y-75650000D02*
X25015686Y-72850000D01*
X25015686Y-72850000D02*
X27015686Y-72850000D01*
%TO.C,JP22*%
X59515686Y-75650000D02*
X57515686Y-75650000D01*
X59515686Y-72850000D02*
X59515686Y-75650000D01*
X57515686Y-75650000D02*
X57515686Y-72850000D01*
X57515686Y-72850000D02*
X59515686Y-72850000D01*
%TO.C,JPE10*%
X45015686Y-85625000D02*
X47015686Y-85625000D01*
X45015686Y-88425000D02*
X45015686Y-85625000D01*
X47015686Y-85625000D02*
X47015686Y-88425000D01*
X47015686Y-88425000D02*
X45015686Y-88425000D01*
%TO.C,JP18*%
X49515686Y-75650000D02*
X47515686Y-75650000D01*
X49515686Y-72850000D02*
X49515686Y-75650000D01*
X47515686Y-75650000D02*
X47515686Y-72850000D01*
X47515686Y-72850000D02*
X49515686Y-72850000D01*
%TO.C,JP8*%
X24515686Y-75625000D02*
X22515686Y-75625000D01*
X24515686Y-72825000D02*
X24515686Y-75625000D01*
X22515686Y-75625000D02*
X22515686Y-72825000D01*
X22515686Y-72825000D02*
X24515686Y-72825000D01*
%TO.C,JP10*%
X29515686Y-75625000D02*
X27515686Y-75625000D01*
X29515686Y-72825000D02*
X29515686Y-75625000D01*
X27515686Y-75625000D02*
X27515686Y-72825000D01*
X27515686Y-72825000D02*
X29515686Y-72825000D01*
%TO.C,JP12*%
X34515686Y-75625000D02*
X32515686Y-75625000D01*
X34515686Y-72825000D02*
X34515686Y-75625000D01*
X32515686Y-75625000D02*
X32515686Y-72825000D01*
X32515686Y-72825000D02*
X34515686Y-72825000D01*
%TO.C,JPE17*%
X62515686Y-85625000D02*
X64515686Y-85625000D01*
X62515686Y-88425000D02*
X62515686Y-85625000D01*
X64515686Y-85625000D02*
X64515686Y-88425000D01*
X64515686Y-88425000D02*
X62515686Y-88425000D01*
%TO.C,JP7*%
X99699998Y-42649999D02*
X99699998Y-39849999D01*
X99699998Y-39849999D02*
X101699998Y-39849999D01*
X101699998Y-42649999D02*
X99699998Y-42649999D01*
X101699998Y-39849999D02*
X101699998Y-42649999D01*
%TO.C,JP25*%
X105300000Y-42549999D02*
X105300000Y-39749999D01*
X105300000Y-39749999D02*
X107300000Y-39749999D01*
X107300000Y-42549999D02*
X105300000Y-42549999D01*
X107300000Y-39749999D02*
X107300000Y-42549999D01*
%TO.C,JP24*%
X102500000Y-42549999D02*
X102500000Y-39749999D01*
X102500000Y-39749999D02*
X104500000Y-39749999D01*
X104500000Y-42549999D02*
X102500000Y-42549999D01*
X104500000Y-39749999D02*
X104500000Y-42549999D01*
%TD*%
M02*
