%TF.GenerationSoftware,KiCad,Pcbnew,8.0.3-1.fc40*%
%TF.CreationDate,2024-06-20T20:24:02-04:00*%
%TF.ProjectId,sampler_split_sensor,73616d70-6c65-4725-9f73-706c69745f73,rev?*%
%TF.SameCoordinates,Original*%
%TF.FileFunction,Legend,Top*%
%TF.FilePolarity,Positive*%
%FSLAX46Y46*%
G04 Gerber Fmt 4.6, Leading zero omitted, Abs format (unit mm)*
G04 Created by KiCad (PCBNEW 8.0.3-1.fc40) date 2024-06-20 20:24:02*
%MOMM*%
%LPD*%
G01*
G04 APERTURE LIST*
%ADD10C,0.100000*%
%ADD11C,0.400000*%
%ADD12C,0.150000*%
%ADD13C,0.120000*%
%ADD14C,0.200000*%
%ADD15C,0.127000*%
G04 APERTURE END LIST*
D10*
X40303884Y-73372419D02*
X40303884Y-72705752D01*
X40303884Y-72372419D02*
X40256265Y-72420038D01*
X40256265Y-72420038D02*
X40303884Y-72467657D01*
X40303884Y-72467657D02*
X40351503Y-72420038D01*
X40351503Y-72420038D02*
X40303884Y-72372419D01*
X40303884Y-72372419D02*
X40303884Y-72467657D01*
X40780074Y-72705752D02*
X40780074Y-73372419D01*
X40780074Y-72800990D02*
X40827693Y-72753371D01*
X40827693Y-72753371D02*
X40922931Y-72705752D01*
X40922931Y-72705752D02*
X41065788Y-72705752D01*
X41065788Y-72705752D02*
X41161026Y-72753371D01*
X41161026Y-72753371D02*
X41208645Y-72848609D01*
X41208645Y-72848609D02*
X41208645Y-73372419D01*
X41541979Y-72705752D02*
X41922931Y-72705752D01*
X41684836Y-72372419D02*
X41684836Y-73229561D01*
X41684836Y-73229561D02*
X41732455Y-73324800D01*
X41732455Y-73324800D02*
X41827693Y-73372419D01*
X41827693Y-73372419D02*
X41922931Y-73372419D01*
X42637217Y-73324800D02*
X42541979Y-73372419D01*
X42541979Y-73372419D02*
X42351503Y-73372419D01*
X42351503Y-73372419D02*
X42256265Y-73324800D01*
X42256265Y-73324800D02*
X42208646Y-73229561D01*
X42208646Y-73229561D02*
X42208646Y-72848609D01*
X42208646Y-72848609D02*
X42256265Y-72753371D01*
X42256265Y-72753371D02*
X42351503Y-72705752D01*
X42351503Y-72705752D02*
X42541979Y-72705752D01*
X42541979Y-72705752D02*
X42637217Y-72753371D01*
X42637217Y-72753371D02*
X42684836Y-72848609D01*
X42684836Y-72848609D02*
X42684836Y-72943847D01*
X42684836Y-72943847D02*
X42208646Y-73039085D01*
X43113408Y-73372419D02*
X43113408Y-72705752D01*
X43113408Y-72896228D02*
X43161027Y-72800990D01*
X43161027Y-72800990D02*
X43208646Y-72753371D01*
X43208646Y-72753371D02*
X43303884Y-72705752D01*
X43303884Y-72705752D02*
X43399122Y-72705752D01*
X43732456Y-72991466D02*
X44494361Y-72991466D01*
X44970551Y-73372419D02*
X44970551Y-72372419D01*
X44970551Y-72753371D02*
X45065789Y-72705752D01*
X45065789Y-72705752D02*
X45256265Y-72705752D01*
X45256265Y-72705752D02*
X45351503Y-72753371D01*
X45351503Y-72753371D02*
X45399122Y-72800990D01*
X45399122Y-72800990D02*
X45446741Y-72896228D01*
X45446741Y-72896228D02*
X45446741Y-73181942D01*
X45446741Y-73181942D02*
X45399122Y-73277180D01*
X45399122Y-73277180D02*
X45351503Y-73324800D01*
X45351503Y-73324800D02*
X45256265Y-73372419D01*
X45256265Y-73372419D02*
X45065789Y-73372419D01*
X45065789Y-73372419D02*
X44970551Y-73324800D01*
X46018170Y-73372419D02*
X45922932Y-73324800D01*
X45922932Y-73324800D02*
X45875313Y-73277180D01*
X45875313Y-73277180D02*
X45827694Y-73181942D01*
X45827694Y-73181942D02*
X45827694Y-72896228D01*
X45827694Y-72896228D02*
X45875313Y-72800990D01*
X45875313Y-72800990D02*
X45922932Y-72753371D01*
X45922932Y-72753371D02*
X46018170Y-72705752D01*
X46018170Y-72705752D02*
X46161027Y-72705752D01*
X46161027Y-72705752D02*
X46256265Y-72753371D01*
X46256265Y-72753371D02*
X46303884Y-72800990D01*
X46303884Y-72800990D02*
X46351503Y-72896228D01*
X46351503Y-72896228D02*
X46351503Y-73181942D01*
X46351503Y-73181942D02*
X46303884Y-73277180D01*
X46303884Y-73277180D02*
X46256265Y-73324800D01*
X46256265Y-73324800D02*
X46161027Y-73372419D01*
X46161027Y-73372419D02*
X46018170Y-73372419D01*
X47208646Y-73372419D02*
X47208646Y-72848609D01*
X47208646Y-72848609D02*
X47161027Y-72753371D01*
X47161027Y-72753371D02*
X47065789Y-72705752D01*
X47065789Y-72705752D02*
X46875313Y-72705752D01*
X46875313Y-72705752D02*
X46780075Y-72753371D01*
X47208646Y-73324800D02*
X47113408Y-73372419D01*
X47113408Y-73372419D02*
X46875313Y-73372419D01*
X46875313Y-73372419D02*
X46780075Y-73324800D01*
X46780075Y-73324800D02*
X46732456Y-73229561D01*
X46732456Y-73229561D02*
X46732456Y-73134323D01*
X46732456Y-73134323D02*
X46780075Y-73039085D01*
X46780075Y-73039085D02*
X46875313Y-72991466D01*
X46875313Y-72991466D02*
X47113408Y-72991466D01*
X47113408Y-72991466D02*
X47208646Y-72943847D01*
X47684837Y-73372419D02*
X47684837Y-72705752D01*
X47684837Y-72896228D02*
X47732456Y-72800990D01*
X47732456Y-72800990D02*
X47780075Y-72753371D01*
X47780075Y-72753371D02*
X47875313Y-72705752D01*
X47875313Y-72705752D02*
X47970551Y-72705752D01*
X48732456Y-73372419D02*
X48732456Y-72372419D01*
X48732456Y-73324800D02*
X48637218Y-73372419D01*
X48637218Y-73372419D02*
X48446742Y-73372419D01*
X48446742Y-73372419D02*
X48351504Y-73324800D01*
X48351504Y-73324800D02*
X48303885Y-73277180D01*
X48303885Y-73277180D02*
X48256266Y-73181942D01*
X48256266Y-73181942D02*
X48256266Y-72896228D01*
X48256266Y-72896228D02*
X48303885Y-72800990D01*
X48303885Y-72800990D02*
X48351504Y-72753371D01*
X48351504Y-72753371D02*
X48446742Y-72705752D01*
X48446742Y-72705752D02*
X48637218Y-72705752D01*
X48637218Y-72705752D02*
X48732456Y-72753371D01*
X50399123Y-73324800D02*
X50303885Y-73372419D01*
X50303885Y-73372419D02*
X50113409Y-73372419D01*
X50113409Y-73372419D02*
X50018171Y-73324800D01*
X50018171Y-73324800D02*
X49970552Y-73277180D01*
X49970552Y-73277180D02*
X49922933Y-73181942D01*
X49922933Y-73181942D02*
X49922933Y-72896228D01*
X49922933Y-72896228D02*
X49970552Y-72800990D01*
X49970552Y-72800990D02*
X50018171Y-72753371D01*
X50018171Y-72753371D02*
X50113409Y-72705752D01*
X50113409Y-72705752D02*
X50303885Y-72705752D01*
X50303885Y-72705752D02*
X50399123Y-72753371D01*
X50970552Y-73372419D02*
X50875314Y-73324800D01*
X50875314Y-73324800D02*
X50827695Y-73277180D01*
X50827695Y-73277180D02*
X50780076Y-73181942D01*
X50780076Y-73181942D02*
X50780076Y-72896228D01*
X50780076Y-72896228D02*
X50827695Y-72800990D01*
X50827695Y-72800990D02*
X50875314Y-72753371D01*
X50875314Y-72753371D02*
X50970552Y-72705752D01*
X50970552Y-72705752D02*
X51113409Y-72705752D01*
X51113409Y-72705752D02*
X51208647Y-72753371D01*
X51208647Y-72753371D02*
X51256266Y-72800990D01*
X51256266Y-72800990D02*
X51303885Y-72896228D01*
X51303885Y-72896228D02*
X51303885Y-73181942D01*
X51303885Y-73181942D02*
X51256266Y-73277180D01*
X51256266Y-73277180D02*
X51208647Y-73324800D01*
X51208647Y-73324800D02*
X51113409Y-73372419D01*
X51113409Y-73372419D02*
X50970552Y-73372419D01*
X51732457Y-72705752D02*
X51732457Y-73372419D01*
X51732457Y-72800990D02*
X51780076Y-72753371D01*
X51780076Y-72753371D02*
X51875314Y-72705752D01*
X51875314Y-72705752D02*
X52018171Y-72705752D01*
X52018171Y-72705752D02*
X52113409Y-72753371D01*
X52113409Y-72753371D02*
X52161028Y-72848609D01*
X52161028Y-72848609D02*
X52161028Y-73372419D01*
X52637219Y-72705752D02*
X52637219Y-73372419D01*
X52637219Y-72800990D02*
X52684838Y-72753371D01*
X52684838Y-72753371D02*
X52780076Y-72705752D01*
X52780076Y-72705752D02*
X52922933Y-72705752D01*
X52922933Y-72705752D02*
X53018171Y-72753371D01*
X53018171Y-72753371D02*
X53065790Y-72848609D01*
X53065790Y-72848609D02*
X53065790Y-73372419D01*
X53922933Y-73324800D02*
X53827695Y-73372419D01*
X53827695Y-73372419D02*
X53637219Y-73372419D01*
X53637219Y-73372419D02*
X53541981Y-73324800D01*
X53541981Y-73324800D02*
X53494362Y-73229561D01*
X53494362Y-73229561D02*
X53494362Y-72848609D01*
X53494362Y-72848609D02*
X53541981Y-72753371D01*
X53541981Y-72753371D02*
X53637219Y-72705752D01*
X53637219Y-72705752D02*
X53827695Y-72705752D01*
X53827695Y-72705752D02*
X53922933Y-72753371D01*
X53922933Y-72753371D02*
X53970552Y-72848609D01*
X53970552Y-72848609D02*
X53970552Y-72943847D01*
X53970552Y-72943847D02*
X53494362Y-73039085D01*
X54827695Y-73324800D02*
X54732457Y-73372419D01*
X54732457Y-73372419D02*
X54541981Y-73372419D01*
X54541981Y-73372419D02*
X54446743Y-73324800D01*
X54446743Y-73324800D02*
X54399124Y-73277180D01*
X54399124Y-73277180D02*
X54351505Y-73181942D01*
X54351505Y-73181942D02*
X54351505Y-72896228D01*
X54351505Y-72896228D02*
X54399124Y-72800990D01*
X54399124Y-72800990D02*
X54446743Y-72753371D01*
X54446743Y-72753371D02*
X54541981Y-72705752D01*
X54541981Y-72705752D02*
X54732457Y-72705752D01*
X54732457Y-72705752D02*
X54827695Y-72753371D01*
X55113410Y-72705752D02*
X55494362Y-72705752D01*
X55256267Y-72372419D02*
X55256267Y-73229561D01*
X55256267Y-73229561D02*
X55303886Y-73324800D01*
X55303886Y-73324800D02*
X55399124Y-73372419D01*
X55399124Y-73372419D02*
X55494362Y-73372419D01*
D11*
X24435686Y-75315000D02*
X24435686Y-75315000D01*
X26035686Y-75315000D02*
X26035686Y-75315000D01*
X27635686Y-75315000D02*
X27635686Y-75315000D01*
X29235686Y-75315000D02*
X29235686Y-75315000D01*
X30835686Y-75315000D02*
X30835686Y-75315000D01*
X32435686Y-75315000D02*
X32435686Y-75315000D01*
X34035686Y-75315000D02*
X34035686Y-75315000D01*
X35635686Y-75315000D02*
X35635686Y-75315000D01*
X37235686Y-75315000D02*
X37235686Y-75315000D01*
X38835686Y-75315000D02*
X38835686Y-75315000D01*
X40435686Y-75315000D02*
X40435686Y-75315000D01*
X42035686Y-75315000D02*
X42035686Y-75315000D01*
X43635686Y-75315000D02*
X43635686Y-75315000D01*
X45235686Y-75315000D02*
X45235686Y-75315000D01*
X46835686Y-75315000D02*
X46835686Y-75315000D01*
X48435686Y-75315000D02*
X48435686Y-75315000D01*
X50035686Y-75315000D02*
X50035686Y-75315000D01*
X51635686Y-75315000D02*
X51635686Y-75315000D01*
X53235686Y-75315000D02*
X53235686Y-75315000D01*
X54835686Y-75315000D02*
X54835686Y-75315000D01*
X56435686Y-75315000D02*
X56435686Y-75315000D01*
X58035686Y-75315000D02*
X58035686Y-75315000D01*
X59635686Y-75315000D02*
X59635686Y-75315000D01*
X61235686Y-75315000D02*
X61235686Y-75315000D01*
X62835686Y-75315000D02*
X62835686Y-75315000D01*
X64435686Y-75315000D02*
X64435686Y-75315000D01*
D10*
X163627152Y-131111115D02*
X163627152Y-130349211D01*
X163627152Y-129873020D02*
X163627152Y-129111116D01*
X163627152Y-128634925D02*
X163627152Y-127873021D01*
X163627152Y-127396830D02*
X163627152Y-126634926D01*
X163627152Y-126158735D02*
X163627152Y-125396831D01*
X163627152Y-124920640D02*
X163627152Y-124158736D01*
X163627152Y-123682545D02*
X163627152Y-122920641D01*
X163627152Y-122444450D02*
X163627152Y-121682546D01*
X163627152Y-121206355D02*
X163627152Y-120444451D01*
X163960486Y-119253974D02*
X164008105Y-119158736D01*
X164008105Y-119158736D02*
X164008105Y-118968260D01*
X164008105Y-118968260D02*
X163960486Y-118873022D01*
X163960486Y-118873022D02*
X163865247Y-118825403D01*
X163865247Y-118825403D02*
X163817628Y-118825403D01*
X163817628Y-118825403D02*
X163722390Y-118873022D01*
X163722390Y-118873022D02*
X163674771Y-118968260D01*
X163674771Y-118968260D02*
X163674771Y-119111117D01*
X163674771Y-119111117D02*
X163627152Y-119206355D01*
X163627152Y-119206355D02*
X163531914Y-119253974D01*
X163531914Y-119253974D02*
X163484295Y-119253974D01*
X163484295Y-119253974D02*
X163389057Y-119206355D01*
X163389057Y-119206355D02*
X163341438Y-119111117D01*
X163341438Y-119111117D02*
X163341438Y-118968260D01*
X163341438Y-118968260D02*
X163389057Y-118873022D01*
X163960486Y-118015879D02*
X164008105Y-118111117D01*
X164008105Y-118111117D02*
X164008105Y-118301593D01*
X164008105Y-118301593D02*
X163960486Y-118396831D01*
X163960486Y-118396831D02*
X163865247Y-118444450D01*
X163865247Y-118444450D02*
X163484295Y-118444450D01*
X163484295Y-118444450D02*
X163389057Y-118396831D01*
X163389057Y-118396831D02*
X163341438Y-118301593D01*
X163341438Y-118301593D02*
X163341438Y-118111117D01*
X163341438Y-118111117D02*
X163389057Y-118015879D01*
X163389057Y-118015879D02*
X163484295Y-117968260D01*
X163484295Y-117968260D02*
X163579533Y-117968260D01*
X163579533Y-117968260D02*
X163674771Y-118444450D01*
X163341438Y-117539688D02*
X164008105Y-117539688D01*
X163436676Y-117539688D02*
X163389057Y-117492069D01*
X163389057Y-117492069D02*
X163341438Y-117396831D01*
X163341438Y-117396831D02*
X163341438Y-117253974D01*
X163341438Y-117253974D02*
X163389057Y-117158736D01*
X163389057Y-117158736D02*
X163484295Y-117111117D01*
X163484295Y-117111117D02*
X164008105Y-117111117D01*
X163960486Y-116682545D02*
X164008105Y-116587307D01*
X164008105Y-116587307D02*
X164008105Y-116396831D01*
X164008105Y-116396831D02*
X163960486Y-116301593D01*
X163960486Y-116301593D02*
X163865247Y-116253974D01*
X163865247Y-116253974D02*
X163817628Y-116253974D01*
X163817628Y-116253974D02*
X163722390Y-116301593D01*
X163722390Y-116301593D02*
X163674771Y-116396831D01*
X163674771Y-116396831D02*
X163674771Y-116539688D01*
X163674771Y-116539688D02*
X163627152Y-116634926D01*
X163627152Y-116634926D02*
X163531914Y-116682545D01*
X163531914Y-116682545D02*
X163484295Y-116682545D01*
X163484295Y-116682545D02*
X163389057Y-116634926D01*
X163389057Y-116634926D02*
X163341438Y-116539688D01*
X163341438Y-116539688D02*
X163341438Y-116396831D01*
X163341438Y-116396831D02*
X163389057Y-116301593D01*
X164008105Y-115682545D02*
X163960486Y-115777783D01*
X163960486Y-115777783D02*
X163912866Y-115825402D01*
X163912866Y-115825402D02*
X163817628Y-115873021D01*
X163817628Y-115873021D02*
X163531914Y-115873021D01*
X163531914Y-115873021D02*
X163436676Y-115825402D01*
X163436676Y-115825402D02*
X163389057Y-115777783D01*
X163389057Y-115777783D02*
X163341438Y-115682545D01*
X163341438Y-115682545D02*
X163341438Y-115539688D01*
X163341438Y-115539688D02*
X163389057Y-115444450D01*
X163389057Y-115444450D02*
X163436676Y-115396831D01*
X163436676Y-115396831D02*
X163531914Y-115349212D01*
X163531914Y-115349212D02*
X163817628Y-115349212D01*
X163817628Y-115349212D02*
X163912866Y-115396831D01*
X163912866Y-115396831D02*
X163960486Y-115444450D01*
X163960486Y-115444450D02*
X164008105Y-115539688D01*
X164008105Y-115539688D02*
X164008105Y-115682545D01*
X164008105Y-114920640D02*
X163341438Y-114920640D01*
X163531914Y-114920640D02*
X163436676Y-114873021D01*
X163436676Y-114873021D02*
X163389057Y-114825402D01*
X163389057Y-114825402D02*
X163341438Y-114730164D01*
X163341438Y-114730164D02*
X163341438Y-114634926D01*
X164008105Y-113396830D02*
X163960486Y-113492068D01*
X163960486Y-113492068D02*
X163912866Y-113539687D01*
X163912866Y-113539687D02*
X163817628Y-113587306D01*
X163817628Y-113587306D02*
X163531914Y-113587306D01*
X163531914Y-113587306D02*
X163436676Y-113539687D01*
X163436676Y-113539687D02*
X163389057Y-113492068D01*
X163389057Y-113492068D02*
X163341438Y-113396830D01*
X163341438Y-113396830D02*
X163341438Y-113253973D01*
X163341438Y-113253973D02*
X163389057Y-113158735D01*
X163389057Y-113158735D02*
X163436676Y-113111116D01*
X163436676Y-113111116D02*
X163531914Y-113063497D01*
X163531914Y-113063497D02*
X163817628Y-113063497D01*
X163817628Y-113063497D02*
X163912866Y-113111116D01*
X163912866Y-113111116D02*
X163960486Y-113158735D01*
X163960486Y-113158735D02*
X164008105Y-113253973D01*
X164008105Y-113253973D02*
X164008105Y-113396830D01*
X163341438Y-112206354D02*
X164008105Y-112206354D01*
X163341438Y-112634925D02*
X163865247Y-112634925D01*
X163865247Y-112634925D02*
X163960486Y-112587306D01*
X163960486Y-112587306D02*
X164008105Y-112492068D01*
X164008105Y-112492068D02*
X164008105Y-112349211D01*
X164008105Y-112349211D02*
X163960486Y-112253973D01*
X163960486Y-112253973D02*
X163912866Y-112206354D01*
X163341438Y-111873020D02*
X163341438Y-111492068D01*
X163008105Y-111730163D02*
X163865247Y-111730163D01*
X163865247Y-111730163D02*
X163960486Y-111682544D01*
X163960486Y-111682544D02*
X164008105Y-111587306D01*
X164008105Y-111587306D02*
X164008105Y-111492068D01*
X163627152Y-110396829D02*
X163627152Y-109634925D01*
X163627152Y-109158734D02*
X163627152Y-108396830D01*
X163627152Y-107920639D02*
X163627152Y-107158735D01*
X163627152Y-106682544D02*
X163627152Y-105920640D01*
X163627152Y-105444449D02*
X163627152Y-104682545D01*
X163627152Y-104206354D02*
X163627152Y-103444450D01*
X163627152Y-102968259D02*
X163627152Y-102206355D01*
X163627152Y-101730164D02*
X163627152Y-100968260D01*
X163627152Y-100492069D02*
X163627152Y-99730165D01*
X119508105Y-116306353D02*
X119508105Y-115687306D01*
X119508105Y-115687306D02*
X119889057Y-116020639D01*
X119889057Y-116020639D02*
X119889057Y-115877782D01*
X119889057Y-115877782D02*
X119936676Y-115782544D01*
X119936676Y-115782544D02*
X119984295Y-115734925D01*
X119984295Y-115734925D02*
X120079533Y-115687306D01*
X120079533Y-115687306D02*
X120317628Y-115687306D01*
X120317628Y-115687306D02*
X120412866Y-115734925D01*
X120412866Y-115734925D02*
X120460486Y-115782544D01*
X120460486Y-115782544D02*
X120508105Y-115877782D01*
X120508105Y-115877782D02*
X120508105Y-116163496D01*
X120508105Y-116163496D02*
X120460486Y-116258734D01*
X120460486Y-116258734D02*
X120412866Y-116306353D01*
X16296713Y-120172713D02*
X16487189Y-120029856D01*
X16487189Y-120029856D02*
X16677665Y-120172713D01*
X16963379Y-122687419D02*
X16391951Y-122687419D01*
X16677665Y-122687419D02*
X16677665Y-121687419D01*
X16677665Y-121687419D02*
X16582427Y-121830276D01*
X16582427Y-121830276D02*
X16487189Y-121925514D01*
X16487189Y-121925514D02*
X16391951Y-121973133D01*
X123382427Y-112277475D02*
X123287189Y-112229856D01*
X123287189Y-112229856D02*
X123239570Y-112134617D01*
X123239570Y-112134617D02*
X123239570Y-111277475D01*
X123906237Y-112277475D02*
X123810999Y-112229856D01*
X123810999Y-112229856D02*
X123763380Y-112182236D01*
X123763380Y-112182236D02*
X123715761Y-112086998D01*
X123715761Y-112086998D02*
X123715761Y-111801284D01*
X123715761Y-111801284D02*
X123763380Y-111706046D01*
X123763380Y-111706046D02*
X123810999Y-111658427D01*
X123810999Y-111658427D02*
X123906237Y-111610808D01*
X123906237Y-111610808D02*
X124049094Y-111610808D01*
X124049094Y-111610808D02*
X124144332Y-111658427D01*
X124144332Y-111658427D02*
X124191951Y-111706046D01*
X124191951Y-111706046D02*
X124239570Y-111801284D01*
X124239570Y-111801284D02*
X124239570Y-112086998D01*
X124239570Y-112086998D02*
X124191951Y-112182236D01*
X124191951Y-112182236D02*
X124144332Y-112229856D01*
X124144332Y-112229856D02*
X124049094Y-112277475D01*
X124049094Y-112277475D02*
X123906237Y-112277475D01*
X125430047Y-112277475D02*
X125430047Y-111277475D01*
X125858618Y-112277475D02*
X125858618Y-111753665D01*
X125858618Y-111753665D02*
X125810999Y-111658427D01*
X125810999Y-111658427D02*
X125715761Y-111610808D01*
X125715761Y-111610808D02*
X125572904Y-111610808D01*
X125572904Y-111610808D02*
X125477666Y-111658427D01*
X125477666Y-111658427D02*
X125430047Y-111706046D01*
X126334809Y-112277475D02*
X126334809Y-111610808D01*
X126334809Y-111277475D02*
X126287190Y-111325094D01*
X126287190Y-111325094D02*
X126334809Y-111372713D01*
X126334809Y-111372713D02*
X126382428Y-111325094D01*
X126382428Y-111325094D02*
X126334809Y-111277475D01*
X126334809Y-111277475D02*
X126334809Y-111372713D01*
X123144332Y-113220752D02*
X123382427Y-113887419D01*
X123382427Y-113887419D02*
X123620522Y-113220752D01*
X126191952Y-113220752D02*
X126430047Y-113887419D01*
X126430047Y-113887419D02*
X126668142Y-113220752D01*
X19427152Y-106311115D02*
X19427152Y-105549211D01*
X19427152Y-105073020D02*
X19427152Y-104311116D01*
X19427152Y-103834925D02*
X19427152Y-103073021D01*
X19427152Y-102596830D02*
X19427152Y-101834926D01*
X19427152Y-101358735D02*
X19427152Y-100596831D01*
X19427152Y-100120640D02*
X19427152Y-99358736D01*
X19760486Y-98168259D02*
X19808105Y-98073021D01*
X19808105Y-98073021D02*
X19808105Y-97882545D01*
X19808105Y-97882545D02*
X19760486Y-97787307D01*
X19760486Y-97787307D02*
X19665247Y-97739688D01*
X19665247Y-97739688D02*
X19617628Y-97739688D01*
X19617628Y-97739688D02*
X19522390Y-97787307D01*
X19522390Y-97787307D02*
X19474771Y-97882545D01*
X19474771Y-97882545D02*
X19474771Y-98025402D01*
X19474771Y-98025402D02*
X19427152Y-98120640D01*
X19427152Y-98120640D02*
X19331914Y-98168259D01*
X19331914Y-98168259D02*
X19284295Y-98168259D01*
X19284295Y-98168259D02*
X19189057Y-98120640D01*
X19189057Y-98120640D02*
X19141438Y-98025402D01*
X19141438Y-98025402D02*
X19141438Y-97882545D01*
X19141438Y-97882545D02*
X19189057Y-97787307D01*
X19760486Y-96930164D02*
X19808105Y-97025402D01*
X19808105Y-97025402D02*
X19808105Y-97215878D01*
X19808105Y-97215878D02*
X19760486Y-97311116D01*
X19760486Y-97311116D02*
X19665247Y-97358735D01*
X19665247Y-97358735D02*
X19284295Y-97358735D01*
X19284295Y-97358735D02*
X19189057Y-97311116D01*
X19189057Y-97311116D02*
X19141438Y-97215878D01*
X19141438Y-97215878D02*
X19141438Y-97025402D01*
X19141438Y-97025402D02*
X19189057Y-96930164D01*
X19189057Y-96930164D02*
X19284295Y-96882545D01*
X19284295Y-96882545D02*
X19379533Y-96882545D01*
X19379533Y-96882545D02*
X19474771Y-97358735D01*
X19141438Y-96453973D02*
X19808105Y-96453973D01*
X19236676Y-96453973D02*
X19189057Y-96406354D01*
X19189057Y-96406354D02*
X19141438Y-96311116D01*
X19141438Y-96311116D02*
X19141438Y-96168259D01*
X19141438Y-96168259D02*
X19189057Y-96073021D01*
X19189057Y-96073021D02*
X19284295Y-96025402D01*
X19284295Y-96025402D02*
X19808105Y-96025402D01*
X19760486Y-95596830D02*
X19808105Y-95501592D01*
X19808105Y-95501592D02*
X19808105Y-95311116D01*
X19808105Y-95311116D02*
X19760486Y-95215878D01*
X19760486Y-95215878D02*
X19665247Y-95168259D01*
X19665247Y-95168259D02*
X19617628Y-95168259D01*
X19617628Y-95168259D02*
X19522390Y-95215878D01*
X19522390Y-95215878D02*
X19474771Y-95311116D01*
X19474771Y-95311116D02*
X19474771Y-95453973D01*
X19474771Y-95453973D02*
X19427152Y-95549211D01*
X19427152Y-95549211D02*
X19331914Y-95596830D01*
X19331914Y-95596830D02*
X19284295Y-95596830D01*
X19284295Y-95596830D02*
X19189057Y-95549211D01*
X19189057Y-95549211D02*
X19141438Y-95453973D01*
X19141438Y-95453973D02*
X19141438Y-95311116D01*
X19141438Y-95311116D02*
X19189057Y-95215878D01*
X19808105Y-94596830D02*
X19760486Y-94692068D01*
X19760486Y-94692068D02*
X19712866Y-94739687D01*
X19712866Y-94739687D02*
X19617628Y-94787306D01*
X19617628Y-94787306D02*
X19331914Y-94787306D01*
X19331914Y-94787306D02*
X19236676Y-94739687D01*
X19236676Y-94739687D02*
X19189057Y-94692068D01*
X19189057Y-94692068D02*
X19141438Y-94596830D01*
X19141438Y-94596830D02*
X19141438Y-94453973D01*
X19141438Y-94453973D02*
X19189057Y-94358735D01*
X19189057Y-94358735D02*
X19236676Y-94311116D01*
X19236676Y-94311116D02*
X19331914Y-94263497D01*
X19331914Y-94263497D02*
X19617628Y-94263497D01*
X19617628Y-94263497D02*
X19712866Y-94311116D01*
X19712866Y-94311116D02*
X19760486Y-94358735D01*
X19760486Y-94358735D02*
X19808105Y-94453973D01*
X19808105Y-94453973D02*
X19808105Y-94596830D01*
X19808105Y-93834925D02*
X19141438Y-93834925D01*
X19331914Y-93834925D02*
X19236676Y-93787306D01*
X19236676Y-93787306D02*
X19189057Y-93739687D01*
X19189057Y-93739687D02*
X19141438Y-93644449D01*
X19141438Y-93644449D02*
X19141438Y-93549211D01*
X19808105Y-92311115D02*
X19760486Y-92406353D01*
X19760486Y-92406353D02*
X19712866Y-92453972D01*
X19712866Y-92453972D02*
X19617628Y-92501591D01*
X19617628Y-92501591D02*
X19331914Y-92501591D01*
X19331914Y-92501591D02*
X19236676Y-92453972D01*
X19236676Y-92453972D02*
X19189057Y-92406353D01*
X19189057Y-92406353D02*
X19141438Y-92311115D01*
X19141438Y-92311115D02*
X19141438Y-92168258D01*
X19141438Y-92168258D02*
X19189057Y-92073020D01*
X19189057Y-92073020D02*
X19236676Y-92025401D01*
X19236676Y-92025401D02*
X19331914Y-91977782D01*
X19331914Y-91977782D02*
X19617628Y-91977782D01*
X19617628Y-91977782D02*
X19712866Y-92025401D01*
X19712866Y-92025401D02*
X19760486Y-92073020D01*
X19760486Y-92073020D02*
X19808105Y-92168258D01*
X19808105Y-92168258D02*
X19808105Y-92311115D01*
X19141438Y-91120639D02*
X19808105Y-91120639D01*
X19141438Y-91549210D02*
X19665247Y-91549210D01*
X19665247Y-91549210D02*
X19760486Y-91501591D01*
X19760486Y-91501591D02*
X19808105Y-91406353D01*
X19808105Y-91406353D02*
X19808105Y-91263496D01*
X19808105Y-91263496D02*
X19760486Y-91168258D01*
X19760486Y-91168258D02*
X19712866Y-91120639D01*
X19141438Y-90787305D02*
X19141438Y-90406353D01*
X18808105Y-90644448D02*
X19665247Y-90644448D01*
X19665247Y-90644448D02*
X19760486Y-90596829D01*
X19760486Y-90596829D02*
X19808105Y-90501591D01*
X19808105Y-90501591D02*
X19808105Y-90406353D01*
X19427152Y-89311114D02*
X19427152Y-88549210D01*
X19427152Y-88073019D02*
X19427152Y-87311115D01*
X19427152Y-86834924D02*
X19427152Y-86073020D01*
X71415647Y-75042693D02*
X71463266Y-74947455D01*
X71463266Y-74947455D02*
X71463266Y-74804598D01*
X71463266Y-74804598D02*
X71415647Y-74661741D01*
X71415647Y-74661741D02*
X71320409Y-74566503D01*
X71320409Y-74566503D02*
X71225171Y-74518884D01*
X71225171Y-74518884D02*
X71034695Y-74471265D01*
X71034695Y-74471265D02*
X70891838Y-74471265D01*
X70891838Y-74471265D02*
X70701362Y-74518884D01*
X70701362Y-74518884D02*
X70606124Y-74566503D01*
X70606124Y-74566503D02*
X70510886Y-74661741D01*
X70510886Y-74661741D02*
X70463266Y-74804598D01*
X70463266Y-74804598D02*
X70463266Y-74899836D01*
X70463266Y-74899836D02*
X70510886Y-75042693D01*
X70510886Y-75042693D02*
X70558505Y-75090312D01*
X70558505Y-75090312D02*
X70891838Y-75090312D01*
X70891838Y-75090312D02*
X70891838Y-74899836D01*
X70463266Y-75518884D02*
X71463266Y-75518884D01*
X71463266Y-75518884D02*
X70463266Y-76090312D01*
X70463266Y-76090312D02*
X71463266Y-76090312D01*
X70463266Y-76566503D02*
X71463266Y-76566503D01*
X71463266Y-76566503D02*
X71463266Y-76804598D01*
X71463266Y-76804598D02*
X71415647Y-76947455D01*
X71415647Y-76947455D02*
X71320409Y-77042693D01*
X71320409Y-77042693D02*
X71225171Y-77090312D01*
X71225171Y-77090312D02*
X71034695Y-77137931D01*
X71034695Y-77137931D02*
X70891838Y-77137931D01*
X70891838Y-77137931D02*
X70701362Y-77090312D01*
X70701362Y-77090312D02*
X70606124Y-77042693D01*
X70606124Y-77042693D02*
X70510886Y-76947455D01*
X70510886Y-76947455D02*
X70463266Y-76804598D01*
X70463266Y-76804598D02*
X70463266Y-76566503D01*
X72896713Y-85287419D02*
X73230046Y-86287419D01*
X73230046Y-86287419D02*
X73563379Y-85287419D01*
X73658618Y-86382657D02*
X74420522Y-86382657D01*
X74658618Y-86287419D02*
X74658618Y-85287419D01*
X75134808Y-86287419D02*
X75134808Y-85287419D01*
X75134808Y-85287419D02*
X75706236Y-86287419D01*
X75706236Y-86287419D02*
X75706236Y-85287419D01*
X77372903Y-86239800D02*
X77277665Y-86287419D01*
X77277665Y-86287419D02*
X77087189Y-86287419D01*
X77087189Y-86287419D02*
X76991951Y-86239800D01*
X76991951Y-86239800D02*
X76944332Y-86192180D01*
X76944332Y-86192180D02*
X76896713Y-86096942D01*
X76896713Y-86096942D02*
X76896713Y-85811228D01*
X76896713Y-85811228D02*
X76944332Y-85715990D01*
X76944332Y-85715990D02*
X76991951Y-85668371D01*
X76991951Y-85668371D02*
X77087189Y-85620752D01*
X77087189Y-85620752D02*
X77277665Y-85620752D01*
X77277665Y-85620752D02*
X77372903Y-85668371D01*
X77944332Y-86287419D02*
X77849094Y-86239800D01*
X77849094Y-86239800D02*
X77801475Y-86192180D01*
X77801475Y-86192180D02*
X77753856Y-86096942D01*
X77753856Y-86096942D02*
X77753856Y-85811228D01*
X77753856Y-85811228D02*
X77801475Y-85715990D01*
X77801475Y-85715990D02*
X77849094Y-85668371D01*
X77849094Y-85668371D02*
X77944332Y-85620752D01*
X77944332Y-85620752D02*
X78087189Y-85620752D01*
X78087189Y-85620752D02*
X78182427Y-85668371D01*
X78182427Y-85668371D02*
X78230046Y-85715990D01*
X78230046Y-85715990D02*
X78277665Y-85811228D01*
X78277665Y-85811228D02*
X78277665Y-86096942D01*
X78277665Y-86096942D02*
X78230046Y-86192180D01*
X78230046Y-86192180D02*
X78182427Y-86239800D01*
X78182427Y-86239800D02*
X78087189Y-86287419D01*
X78087189Y-86287419D02*
X77944332Y-86287419D01*
X78706237Y-85620752D02*
X78706237Y-86287419D01*
X78706237Y-85715990D02*
X78753856Y-85668371D01*
X78753856Y-85668371D02*
X78849094Y-85620752D01*
X78849094Y-85620752D02*
X78991951Y-85620752D01*
X78991951Y-85620752D02*
X79087189Y-85668371D01*
X79087189Y-85668371D02*
X79134808Y-85763609D01*
X79134808Y-85763609D02*
X79134808Y-86287419D01*
X79610999Y-85620752D02*
X79610999Y-86287419D01*
X79610999Y-85715990D02*
X79658618Y-85668371D01*
X79658618Y-85668371D02*
X79753856Y-85620752D01*
X79753856Y-85620752D02*
X79896713Y-85620752D01*
X79896713Y-85620752D02*
X79991951Y-85668371D01*
X79991951Y-85668371D02*
X80039570Y-85763609D01*
X80039570Y-85763609D02*
X80039570Y-86287419D01*
X80896713Y-86239800D02*
X80801475Y-86287419D01*
X80801475Y-86287419D02*
X80610999Y-86287419D01*
X80610999Y-86287419D02*
X80515761Y-86239800D01*
X80515761Y-86239800D02*
X80468142Y-86144561D01*
X80468142Y-86144561D02*
X80468142Y-85763609D01*
X80468142Y-85763609D02*
X80515761Y-85668371D01*
X80515761Y-85668371D02*
X80610999Y-85620752D01*
X80610999Y-85620752D02*
X80801475Y-85620752D01*
X80801475Y-85620752D02*
X80896713Y-85668371D01*
X80896713Y-85668371D02*
X80944332Y-85763609D01*
X80944332Y-85763609D02*
X80944332Y-85858847D01*
X80944332Y-85858847D02*
X80468142Y-85954085D01*
X81801475Y-86239800D02*
X81706237Y-86287419D01*
X81706237Y-86287419D02*
X81515761Y-86287419D01*
X81515761Y-86287419D02*
X81420523Y-86239800D01*
X81420523Y-86239800D02*
X81372904Y-86192180D01*
X81372904Y-86192180D02*
X81325285Y-86096942D01*
X81325285Y-86096942D02*
X81325285Y-85811228D01*
X81325285Y-85811228D02*
X81372904Y-85715990D01*
X81372904Y-85715990D02*
X81420523Y-85668371D01*
X81420523Y-85668371D02*
X81515761Y-85620752D01*
X81515761Y-85620752D02*
X81706237Y-85620752D01*
X81706237Y-85620752D02*
X81801475Y-85668371D01*
X82087190Y-85620752D02*
X82468142Y-85620752D01*
X82230047Y-85287419D02*
X82230047Y-86144561D01*
X82230047Y-86144561D02*
X82277666Y-86239800D01*
X82277666Y-86239800D02*
X82372904Y-86287419D01*
X82372904Y-86287419D02*
X82468142Y-86287419D01*
X164108105Y-98287306D02*
X164108105Y-98858734D01*
X164108105Y-98573020D02*
X163108105Y-98573020D01*
X163108105Y-98573020D02*
X163250962Y-98668258D01*
X163250962Y-98668258D02*
X163346200Y-98763496D01*
X163346200Y-98763496D02*
X163393819Y-98858734D01*
X163536676Y-97715877D02*
X163489057Y-97811115D01*
X163489057Y-97811115D02*
X163441438Y-97858734D01*
X163441438Y-97858734D02*
X163346200Y-97906353D01*
X163346200Y-97906353D02*
X163298581Y-97906353D01*
X163298581Y-97906353D02*
X163203343Y-97858734D01*
X163203343Y-97858734D02*
X163155724Y-97811115D01*
X163155724Y-97811115D02*
X163108105Y-97715877D01*
X163108105Y-97715877D02*
X163108105Y-97525401D01*
X163108105Y-97525401D02*
X163155724Y-97430163D01*
X163155724Y-97430163D02*
X163203343Y-97382544D01*
X163203343Y-97382544D02*
X163298581Y-97334925D01*
X163298581Y-97334925D02*
X163346200Y-97334925D01*
X163346200Y-97334925D02*
X163441438Y-97382544D01*
X163441438Y-97382544D02*
X163489057Y-97430163D01*
X163489057Y-97430163D02*
X163536676Y-97525401D01*
X163536676Y-97525401D02*
X163536676Y-97715877D01*
X163536676Y-97715877D02*
X163584295Y-97811115D01*
X163584295Y-97811115D02*
X163631914Y-97858734D01*
X163631914Y-97858734D02*
X163727152Y-97906353D01*
X163727152Y-97906353D02*
X163917628Y-97906353D01*
X163917628Y-97906353D02*
X164012866Y-97858734D01*
X164012866Y-97858734D02*
X164060486Y-97811115D01*
X164060486Y-97811115D02*
X164108105Y-97715877D01*
X164108105Y-97715877D02*
X164108105Y-97525401D01*
X164108105Y-97525401D02*
X164060486Y-97430163D01*
X164060486Y-97430163D02*
X164012866Y-97382544D01*
X164012866Y-97382544D02*
X163917628Y-97334925D01*
X163917628Y-97334925D02*
X163727152Y-97334925D01*
X163727152Y-97334925D02*
X163631914Y-97382544D01*
X163631914Y-97382544D02*
X163584295Y-97430163D01*
X163584295Y-97430163D02*
X163536676Y-97525401D01*
X164108105Y-131787306D02*
X164108105Y-132358734D01*
X164108105Y-132073020D02*
X163108105Y-132073020D01*
X163108105Y-132073020D02*
X163250962Y-132168258D01*
X163250962Y-132168258D02*
X163346200Y-132263496D01*
X163346200Y-132263496D02*
X163393819Y-132358734D01*
X43563266Y-83576027D02*
X42563266Y-83909360D01*
X42563266Y-83909360D02*
X43563266Y-84242693D01*
X42468028Y-84337932D02*
X42468028Y-85099836D01*
X42563266Y-85337932D02*
X43563266Y-85337932D01*
X42563266Y-85814122D02*
X43563266Y-85814122D01*
X43563266Y-85814122D02*
X42563266Y-86385550D01*
X42563266Y-86385550D02*
X43563266Y-86385550D01*
X119603343Y-120258734D02*
X119555724Y-120211115D01*
X119555724Y-120211115D02*
X119508105Y-120115877D01*
X119508105Y-120115877D02*
X119508105Y-119877782D01*
X119508105Y-119877782D02*
X119555724Y-119782544D01*
X119555724Y-119782544D02*
X119603343Y-119734925D01*
X119603343Y-119734925D02*
X119698581Y-119687306D01*
X119698581Y-119687306D02*
X119793819Y-119687306D01*
X119793819Y-119687306D02*
X119936676Y-119734925D01*
X119936676Y-119734925D02*
X120508105Y-120306353D01*
X120508105Y-120306353D02*
X120508105Y-119687306D01*
X118108105Y-128311115D02*
X117108105Y-128311115D01*
X117489057Y-128311115D02*
X117441438Y-128215877D01*
X117441438Y-128215877D02*
X117441438Y-128025401D01*
X117441438Y-128025401D02*
X117489057Y-127930163D01*
X117489057Y-127930163D02*
X117536676Y-127882544D01*
X117536676Y-127882544D02*
X117631914Y-127834925D01*
X117631914Y-127834925D02*
X117917628Y-127834925D01*
X117917628Y-127834925D02*
X118012866Y-127882544D01*
X118012866Y-127882544D02*
X118060486Y-127930163D01*
X118060486Y-127930163D02*
X118108105Y-128025401D01*
X118108105Y-128025401D02*
X118108105Y-128215877D01*
X118108105Y-128215877D02*
X118060486Y-128311115D01*
X118108105Y-127263496D02*
X118060486Y-127358734D01*
X118060486Y-127358734D02*
X118012866Y-127406353D01*
X118012866Y-127406353D02*
X117917628Y-127453972D01*
X117917628Y-127453972D02*
X117631914Y-127453972D01*
X117631914Y-127453972D02*
X117536676Y-127406353D01*
X117536676Y-127406353D02*
X117489057Y-127358734D01*
X117489057Y-127358734D02*
X117441438Y-127263496D01*
X117441438Y-127263496D02*
X117441438Y-127120639D01*
X117441438Y-127120639D02*
X117489057Y-127025401D01*
X117489057Y-127025401D02*
X117536676Y-126977782D01*
X117536676Y-126977782D02*
X117631914Y-126930163D01*
X117631914Y-126930163D02*
X117917628Y-126930163D01*
X117917628Y-126930163D02*
X118012866Y-126977782D01*
X118012866Y-126977782D02*
X118060486Y-127025401D01*
X118060486Y-127025401D02*
X118108105Y-127120639D01*
X118108105Y-127120639D02*
X118108105Y-127263496D01*
X118108105Y-126073020D02*
X117584295Y-126073020D01*
X117584295Y-126073020D02*
X117489057Y-126120639D01*
X117489057Y-126120639D02*
X117441438Y-126215877D01*
X117441438Y-126215877D02*
X117441438Y-126406353D01*
X117441438Y-126406353D02*
X117489057Y-126501591D01*
X118060486Y-126073020D02*
X118108105Y-126168258D01*
X118108105Y-126168258D02*
X118108105Y-126406353D01*
X118108105Y-126406353D02*
X118060486Y-126501591D01*
X118060486Y-126501591D02*
X117965247Y-126549210D01*
X117965247Y-126549210D02*
X117870009Y-126549210D01*
X117870009Y-126549210D02*
X117774771Y-126501591D01*
X117774771Y-126501591D02*
X117727152Y-126406353D01*
X117727152Y-126406353D02*
X117727152Y-126168258D01*
X117727152Y-126168258D02*
X117679533Y-126073020D01*
X118108105Y-125596829D02*
X117441438Y-125596829D01*
X117631914Y-125596829D02*
X117536676Y-125549210D01*
X117536676Y-125549210D02*
X117489057Y-125501591D01*
X117489057Y-125501591D02*
X117441438Y-125406353D01*
X117441438Y-125406353D02*
X117441438Y-125311115D01*
X118108105Y-124549210D02*
X117108105Y-124549210D01*
X118060486Y-124549210D02*
X118108105Y-124644448D01*
X118108105Y-124644448D02*
X118108105Y-124834924D01*
X118108105Y-124834924D02*
X118060486Y-124930162D01*
X118060486Y-124930162D02*
X118012866Y-124977781D01*
X118012866Y-124977781D02*
X117917628Y-125025400D01*
X117917628Y-125025400D02*
X117631914Y-125025400D01*
X117631914Y-125025400D02*
X117536676Y-124977781D01*
X117536676Y-124977781D02*
X117489057Y-124930162D01*
X117489057Y-124930162D02*
X117441438Y-124834924D01*
X117441438Y-124834924D02*
X117441438Y-124644448D01*
X117441438Y-124644448D02*
X117489057Y-124549210D01*
X118108105Y-123311114D02*
X117441438Y-123311114D01*
X117108105Y-123311114D02*
X117155724Y-123358733D01*
X117155724Y-123358733D02*
X117203343Y-123311114D01*
X117203343Y-123311114D02*
X117155724Y-123263495D01*
X117155724Y-123263495D02*
X117108105Y-123311114D01*
X117108105Y-123311114D02*
X117203343Y-123311114D01*
X118108105Y-122406353D02*
X117108105Y-122406353D01*
X118060486Y-122406353D02*
X118108105Y-122501591D01*
X118108105Y-122501591D02*
X118108105Y-122692067D01*
X118108105Y-122692067D02*
X118060486Y-122787305D01*
X118060486Y-122787305D02*
X118012866Y-122834924D01*
X118012866Y-122834924D02*
X117917628Y-122882543D01*
X117917628Y-122882543D02*
X117631914Y-122882543D01*
X117631914Y-122882543D02*
X117536676Y-122834924D01*
X117536676Y-122834924D02*
X117489057Y-122787305D01*
X117489057Y-122787305D02*
X117441438Y-122692067D01*
X117441438Y-122692067D02*
X117441438Y-122501591D01*
X117441438Y-122501591D02*
X117489057Y-122406353D01*
X118060486Y-121549210D02*
X118108105Y-121644448D01*
X118108105Y-121644448D02*
X118108105Y-121834924D01*
X118108105Y-121834924D02*
X118060486Y-121930162D01*
X118060486Y-121930162D02*
X117965247Y-121977781D01*
X117965247Y-121977781D02*
X117584295Y-121977781D01*
X117584295Y-121977781D02*
X117489057Y-121930162D01*
X117489057Y-121930162D02*
X117441438Y-121834924D01*
X117441438Y-121834924D02*
X117441438Y-121644448D01*
X117441438Y-121644448D02*
X117489057Y-121549210D01*
X117489057Y-121549210D02*
X117584295Y-121501591D01*
X117584295Y-121501591D02*
X117679533Y-121501591D01*
X117679533Y-121501591D02*
X117774771Y-121977781D01*
X117441438Y-121073019D02*
X118108105Y-121073019D01*
X117536676Y-121073019D02*
X117489057Y-121025400D01*
X117489057Y-121025400D02*
X117441438Y-120930162D01*
X117441438Y-120930162D02*
X117441438Y-120787305D01*
X117441438Y-120787305D02*
X117489057Y-120692067D01*
X117489057Y-120692067D02*
X117584295Y-120644448D01*
X117584295Y-120644448D02*
X118108105Y-120644448D01*
X117441438Y-120311114D02*
X117441438Y-119930162D01*
X117108105Y-120168257D02*
X117965247Y-120168257D01*
X117965247Y-120168257D02*
X118060486Y-120120638D01*
X118060486Y-120120638D02*
X118108105Y-120025400D01*
X118108105Y-120025400D02*
X118108105Y-119930162D01*
X118108105Y-119596828D02*
X117441438Y-119596828D01*
X117108105Y-119596828D02*
X117155724Y-119644447D01*
X117155724Y-119644447D02*
X117203343Y-119596828D01*
X117203343Y-119596828D02*
X117155724Y-119549209D01*
X117155724Y-119549209D02*
X117108105Y-119596828D01*
X117108105Y-119596828D02*
X117203343Y-119596828D01*
X117441438Y-119263495D02*
X117441438Y-118882543D01*
X118108105Y-119120638D02*
X117250962Y-119120638D01*
X117250962Y-119120638D02*
X117155724Y-119073019D01*
X117155724Y-119073019D02*
X117108105Y-118977781D01*
X117108105Y-118977781D02*
X117108105Y-118882543D01*
X118108105Y-118549209D02*
X117441438Y-118549209D01*
X117108105Y-118549209D02*
X117155724Y-118596828D01*
X117155724Y-118596828D02*
X117203343Y-118549209D01*
X117203343Y-118549209D02*
X117155724Y-118501590D01*
X117155724Y-118501590D02*
X117108105Y-118549209D01*
X117108105Y-118549209D02*
X117203343Y-118549209D01*
X118060486Y-117692067D02*
X118108105Y-117787305D01*
X118108105Y-117787305D02*
X118108105Y-117977781D01*
X118108105Y-117977781D02*
X118060486Y-118073019D01*
X118060486Y-118073019D02*
X117965247Y-118120638D01*
X117965247Y-118120638D02*
X117584295Y-118120638D01*
X117584295Y-118120638D02*
X117489057Y-118073019D01*
X117489057Y-118073019D02*
X117441438Y-117977781D01*
X117441438Y-117977781D02*
X117441438Y-117787305D01*
X117441438Y-117787305D02*
X117489057Y-117692067D01*
X117489057Y-117692067D02*
X117584295Y-117644448D01*
X117584295Y-117644448D02*
X117679533Y-117644448D01*
X117679533Y-117644448D02*
X117774771Y-118120638D01*
X118108105Y-117215876D02*
X117441438Y-117215876D01*
X117631914Y-117215876D02*
X117536676Y-117168257D01*
X117536676Y-117168257D02*
X117489057Y-117120638D01*
X117489057Y-117120638D02*
X117441438Y-117025400D01*
X117441438Y-117025400D02*
X117441438Y-116930162D01*
X58863266Y-83723646D02*
X58863266Y-84342693D01*
X58863266Y-84342693D02*
X58482314Y-84009360D01*
X58482314Y-84009360D02*
X58482314Y-84152217D01*
X58482314Y-84152217D02*
X58434695Y-84247455D01*
X58434695Y-84247455D02*
X58387076Y-84295074D01*
X58387076Y-84295074D02*
X58291838Y-84342693D01*
X58291838Y-84342693D02*
X58053743Y-84342693D01*
X58053743Y-84342693D02*
X57958505Y-84295074D01*
X57958505Y-84295074D02*
X57910886Y-84247455D01*
X57910886Y-84247455D02*
X57863266Y-84152217D01*
X57863266Y-84152217D02*
X57863266Y-83866503D01*
X57863266Y-83866503D02*
X57910886Y-83771265D01*
X57910886Y-83771265D02*
X57958505Y-83723646D01*
X57958505Y-84771265D02*
X57910886Y-84818884D01*
X57910886Y-84818884D02*
X57863266Y-84771265D01*
X57863266Y-84771265D02*
X57910886Y-84723646D01*
X57910886Y-84723646D02*
X57958505Y-84771265D01*
X57958505Y-84771265D02*
X57863266Y-84771265D01*
X58863266Y-85152217D02*
X58863266Y-85771264D01*
X58863266Y-85771264D02*
X58482314Y-85437931D01*
X58482314Y-85437931D02*
X58482314Y-85580788D01*
X58482314Y-85580788D02*
X58434695Y-85676026D01*
X58434695Y-85676026D02*
X58387076Y-85723645D01*
X58387076Y-85723645D02*
X58291838Y-85771264D01*
X58291838Y-85771264D02*
X58053743Y-85771264D01*
X58053743Y-85771264D02*
X57958505Y-85723645D01*
X57958505Y-85723645D02*
X57910886Y-85676026D01*
X57910886Y-85676026D02*
X57863266Y-85580788D01*
X57863266Y-85580788D02*
X57863266Y-85295074D01*
X57863266Y-85295074D02*
X57910886Y-85199836D01*
X57910886Y-85199836D02*
X57958505Y-85152217D01*
X58529933Y-86104598D02*
X57863266Y-86342693D01*
X57863266Y-86342693D02*
X58529933Y-86580788D01*
X65691951Y-75629856D02*
X65787189Y-75677475D01*
X65787189Y-75677475D02*
X65977665Y-75677475D01*
X65977665Y-75677475D02*
X66072903Y-75629856D01*
X66072903Y-75629856D02*
X66120522Y-75534617D01*
X66120522Y-75534617D02*
X66120522Y-75486998D01*
X66120522Y-75486998D02*
X66072903Y-75391760D01*
X66072903Y-75391760D02*
X65977665Y-75344141D01*
X65977665Y-75344141D02*
X65834808Y-75344141D01*
X65834808Y-75344141D02*
X65739570Y-75296522D01*
X65739570Y-75296522D02*
X65691951Y-75201284D01*
X65691951Y-75201284D02*
X65691951Y-75153665D01*
X65691951Y-75153665D02*
X65739570Y-75058427D01*
X65739570Y-75058427D02*
X65834808Y-75010808D01*
X65834808Y-75010808D02*
X65977665Y-75010808D01*
X65977665Y-75010808D02*
X66072903Y-75058427D01*
X67072903Y-75677475D02*
X66501475Y-75677475D01*
X66787189Y-75677475D02*
X66787189Y-74677475D01*
X66787189Y-74677475D02*
X66691951Y-74820332D01*
X66691951Y-74820332D02*
X66596713Y-74915570D01*
X66596713Y-74915570D02*
X66501475Y-74963189D01*
X67644332Y-75106046D02*
X67549094Y-75058427D01*
X67549094Y-75058427D02*
X67501475Y-75010808D01*
X67501475Y-75010808D02*
X67453856Y-74915570D01*
X67453856Y-74915570D02*
X67453856Y-74867951D01*
X67453856Y-74867951D02*
X67501475Y-74772713D01*
X67501475Y-74772713D02*
X67549094Y-74725094D01*
X67549094Y-74725094D02*
X67644332Y-74677475D01*
X67644332Y-74677475D02*
X67834808Y-74677475D01*
X67834808Y-74677475D02*
X67930046Y-74725094D01*
X67930046Y-74725094D02*
X67977665Y-74772713D01*
X67977665Y-74772713D02*
X68025284Y-74867951D01*
X68025284Y-74867951D02*
X68025284Y-74915570D01*
X68025284Y-74915570D02*
X67977665Y-75010808D01*
X67977665Y-75010808D02*
X67930046Y-75058427D01*
X67930046Y-75058427D02*
X67834808Y-75106046D01*
X67834808Y-75106046D02*
X67644332Y-75106046D01*
X67644332Y-75106046D02*
X67549094Y-75153665D01*
X67549094Y-75153665D02*
X67501475Y-75201284D01*
X67501475Y-75201284D02*
X67453856Y-75296522D01*
X67453856Y-75296522D02*
X67453856Y-75486998D01*
X67453856Y-75486998D02*
X67501475Y-75582236D01*
X67501475Y-75582236D02*
X67549094Y-75629856D01*
X67549094Y-75629856D02*
X67644332Y-75677475D01*
X67644332Y-75677475D02*
X67834808Y-75677475D01*
X67834808Y-75677475D02*
X67930046Y-75629856D01*
X67930046Y-75629856D02*
X67977665Y-75582236D01*
X67977665Y-75582236D02*
X68025284Y-75486998D01*
X68025284Y-75486998D02*
X68025284Y-75296522D01*
X68025284Y-75296522D02*
X67977665Y-75201284D01*
X67977665Y-75201284D02*
X67930046Y-75153665D01*
X67930046Y-75153665D02*
X67834808Y-75106046D01*
X65644332Y-76620752D02*
X65882427Y-77287419D01*
X65882427Y-77287419D02*
X66120522Y-76620752D01*
X120408105Y-124187306D02*
X120408105Y-124758734D01*
X120408105Y-124473020D02*
X119408105Y-124473020D01*
X119408105Y-124473020D02*
X119550962Y-124568258D01*
X119550962Y-124568258D02*
X119646200Y-124663496D01*
X119646200Y-124663496D02*
X119693819Y-124758734D01*
X22838617Y-83577475D02*
X22935760Y-83577475D01*
X22935760Y-83577475D02*
X23032903Y-83625094D01*
X23032903Y-83625094D02*
X23081475Y-83672713D01*
X23081475Y-83672713D02*
X23130046Y-83767951D01*
X23130046Y-83767951D02*
X23178617Y-83958427D01*
X23178617Y-83958427D02*
X23178617Y-84196522D01*
X23178617Y-84196522D02*
X23130046Y-84386998D01*
X23130046Y-84386998D02*
X23081475Y-84482236D01*
X23081475Y-84482236D02*
X23032903Y-84529856D01*
X23032903Y-84529856D02*
X22935760Y-84577475D01*
X22935760Y-84577475D02*
X22838617Y-84577475D01*
X22838617Y-84577475D02*
X22741475Y-84529856D01*
X22741475Y-84529856D02*
X22692903Y-84482236D01*
X22692903Y-84482236D02*
X22644332Y-84386998D01*
X22644332Y-84386998D02*
X22595760Y-84196522D01*
X22595760Y-84196522D02*
X22595760Y-83958427D01*
X22595760Y-83958427D02*
X22644332Y-83767951D01*
X22644332Y-83767951D02*
X22692903Y-83672713D01*
X22692903Y-83672713D02*
X22741475Y-83625094D01*
X22741475Y-83625094D02*
X22838617Y-83577475D01*
X25704332Y-84577475D02*
X25121475Y-84577475D01*
X25412904Y-84577475D02*
X25412904Y-83577475D01*
X25412904Y-83577475D02*
X25315761Y-83720332D01*
X25315761Y-83720332D02*
X25218618Y-83815570D01*
X25218618Y-83815570D02*
X25121475Y-83863189D01*
X27647190Y-83672713D02*
X27695762Y-83625094D01*
X27695762Y-83625094D02*
X27792905Y-83577475D01*
X27792905Y-83577475D02*
X28035762Y-83577475D01*
X28035762Y-83577475D02*
X28132905Y-83625094D01*
X28132905Y-83625094D02*
X28181476Y-83672713D01*
X28181476Y-83672713D02*
X28230047Y-83767951D01*
X28230047Y-83767951D02*
X28230047Y-83863189D01*
X28230047Y-83863189D02*
X28181476Y-84006046D01*
X28181476Y-84006046D02*
X27598619Y-84577475D01*
X27598619Y-84577475D02*
X28230047Y-84577475D01*
X30124334Y-83577475D02*
X30755762Y-83577475D01*
X30755762Y-83577475D02*
X30415762Y-83958427D01*
X30415762Y-83958427D02*
X30561477Y-83958427D01*
X30561477Y-83958427D02*
X30658620Y-84006046D01*
X30658620Y-84006046D02*
X30707191Y-84053665D01*
X30707191Y-84053665D02*
X30755762Y-84148903D01*
X30755762Y-84148903D02*
X30755762Y-84386998D01*
X30755762Y-84386998D02*
X30707191Y-84482236D01*
X30707191Y-84482236D02*
X30658620Y-84529856D01*
X30658620Y-84529856D02*
X30561477Y-84577475D01*
X30561477Y-84577475D02*
X30270048Y-84577475D01*
X30270048Y-84577475D02*
X30172905Y-84529856D01*
X30172905Y-84529856D02*
X30124334Y-84482236D01*
X22644332Y-86187419D02*
X22644332Y-85187419D01*
X22644332Y-85568371D02*
X22741475Y-85520752D01*
X22741475Y-85520752D02*
X22935760Y-85520752D01*
X22935760Y-85520752D02*
X23032903Y-85568371D01*
X23032903Y-85568371D02*
X23081475Y-85615990D01*
X23081475Y-85615990D02*
X23130046Y-85711228D01*
X23130046Y-85711228D02*
X23130046Y-85996942D01*
X23130046Y-85996942D02*
X23081475Y-86092180D01*
X23081475Y-86092180D02*
X23032903Y-86139800D01*
X23032903Y-86139800D02*
X22935760Y-86187419D01*
X22935760Y-86187419D02*
X22741475Y-86187419D01*
X22741475Y-86187419D02*
X22644332Y-86139800D01*
X23712903Y-86187419D02*
X23615760Y-86139800D01*
X23615760Y-86139800D02*
X23567189Y-86092180D01*
X23567189Y-86092180D02*
X23518617Y-85996942D01*
X23518617Y-85996942D02*
X23518617Y-85711228D01*
X23518617Y-85711228D02*
X23567189Y-85615990D01*
X23567189Y-85615990D02*
X23615760Y-85568371D01*
X23615760Y-85568371D02*
X23712903Y-85520752D01*
X23712903Y-85520752D02*
X23858617Y-85520752D01*
X23858617Y-85520752D02*
X23955760Y-85568371D01*
X23955760Y-85568371D02*
X24004332Y-85615990D01*
X24004332Y-85615990D02*
X24052903Y-85711228D01*
X24052903Y-85711228D02*
X24052903Y-85996942D01*
X24052903Y-85996942D02*
X24004332Y-86092180D01*
X24004332Y-86092180D02*
X23955760Y-86139800D01*
X23955760Y-86139800D02*
X23858617Y-86187419D01*
X23858617Y-86187419D02*
X23712903Y-86187419D01*
X24927189Y-86187419D02*
X24927189Y-85663609D01*
X24927189Y-85663609D02*
X24878617Y-85568371D01*
X24878617Y-85568371D02*
X24781474Y-85520752D01*
X24781474Y-85520752D02*
X24587189Y-85520752D01*
X24587189Y-85520752D02*
X24490046Y-85568371D01*
X24927189Y-86139800D02*
X24830046Y-86187419D01*
X24830046Y-86187419D02*
X24587189Y-86187419D01*
X24587189Y-86187419D02*
X24490046Y-86139800D01*
X24490046Y-86139800D02*
X24441474Y-86044561D01*
X24441474Y-86044561D02*
X24441474Y-85949323D01*
X24441474Y-85949323D02*
X24490046Y-85854085D01*
X24490046Y-85854085D02*
X24587189Y-85806466D01*
X24587189Y-85806466D02*
X24830046Y-85806466D01*
X24830046Y-85806466D02*
X24927189Y-85758847D01*
X25412903Y-86187419D02*
X25412903Y-85520752D01*
X25412903Y-85711228D02*
X25461474Y-85615990D01*
X25461474Y-85615990D02*
X25510046Y-85568371D01*
X25510046Y-85568371D02*
X25607188Y-85520752D01*
X25607188Y-85520752D02*
X25704331Y-85520752D01*
X26481475Y-86187419D02*
X26481475Y-85187419D01*
X26481475Y-86139800D02*
X26384332Y-86187419D01*
X26384332Y-86187419D02*
X26190046Y-86187419D01*
X26190046Y-86187419D02*
X26092903Y-86139800D01*
X26092903Y-86139800D02*
X26044332Y-86092180D01*
X26044332Y-86092180D02*
X25995760Y-85996942D01*
X25995760Y-85996942D02*
X25995760Y-85711228D01*
X25995760Y-85711228D02*
X26044332Y-85615990D01*
X26044332Y-85615990D02*
X26092903Y-85568371D01*
X26092903Y-85568371D02*
X26190046Y-85520752D01*
X26190046Y-85520752D02*
X26384332Y-85520752D01*
X26384332Y-85520752D02*
X26481475Y-85568371D01*
X27695760Y-86139800D02*
X27792903Y-86187419D01*
X27792903Y-86187419D02*
X27987189Y-86187419D01*
X27987189Y-86187419D02*
X28084332Y-86139800D01*
X28084332Y-86139800D02*
X28132903Y-86044561D01*
X28132903Y-86044561D02*
X28132903Y-85996942D01*
X28132903Y-85996942D02*
X28084332Y-85901704D01*
X28084332Y-85901704D02*
X27987189Y-85854085D01*
X27987189Y-85854085D02*
X27841475Y-85854085D01*
X27841475Y-85854085D02*
X27744332Y-85806466D01*
X27744332Y-85806466D02*
X27695760Y-85711228D01*
X27695760Y-85711228D02*
X27695760Y-85663609D01*
X27695760Y-85663609D02*
X27744332Y-85568371D01*
X27744332Y-85568371D02*
X27841475Y-85520752D01*
X27841475Y-85520752D02*
X27987189Y-85520752D01*
X27987189Y-85520752D02*
X28084332Y-85568371D01*
X28958617Y-86139800D02*
X28861474Y-86187419D01*
X28861474Y-86187419D02*
X28667189Y-86187419D01*
X28667189Y-86187419D02*
X28570046Y-86139800D01*
X28570046Y-86139800D02*
X28521474Y-86044561D01*
X28521474Y-86044561D02*
X28521474Y-85663609D01*
X28521474Y-85663609D02*
X28570046Y-85568371D01*
X28570046Y-85568371D02*
X28667189Y-85520752D01*
X28667189Y-85520752D02*
X28861474Y-85520752D01*
X28861474Y-85520752D02*
X28958617Y-85568371D01*
X28958617Y-85568371D02*
X29007189Y-85663609D01*
X29007189Y-85663609D02*
X29007189Y-85758847D01*
X29007189Y-85758847D02*
X28521474Y-85854085D01*
X29590046Y-86187419D02*
X29492903Y-86139800D01*
X29492903Y-86139800D02*
X29444332Y-86044561D01*
X29444332Y-86044561D02*
X29444332Y-85187419D01*
X30367189Y-86139800D02*
X30270046Y-86187419D01*
X30270046Y-86187419D02*
X30075761Y-86187419D01*
X30075761Y-86187419D02*
X29978618Y-86139800D01*
X29978618Y-86139800D02*
X29930046Y-86044561D01*
X29930046Y-86044561D02*
X29930046Y-85663609D01*
X29930046Y-85663609D02*
X29978618Y-85568371D01*
X29978618Y-85568371D02*
X30075761Y-85520752D01*
X30075761Y-85520752D02*
X30270046Y-85520752D01*
X30270046Y-85520752D02*
X30367189Y-85568371D01*
X30367189Y-85568371D02*
X30415761Y-85663609D01*
X30415761Y-85663609D02*
X30415761Y-85758847D01*
X30415761Y-85758847D02*
X29930046Y-85854085D01*
X31290047Y-86139800D02*
X31192904Y-86187419D01*
X31192904Y-86187419D02*
X30998618Y-86187419D01*
X30998618Y-86187419D02*
X30901475Y-86139800D01*
X30901475Y-86139800D02*
X30852904Y-86092180D01*
X30852904Y-86092180D02*
X30804332Y-85996942D01*
X30804332Y-85996942D02*
X30804332Y-85711228D01*
X30804332Y-85711228D02*
X30852904Y-85615990D01*
X30852904Y-85615990D02*
X30901475Y-85568371D01*
X30901475Y-85568371D02*
X30998618Y-85520752D01*
X30998618Y-85520752D02*
X31192904Y-85520752D01*
X31192904Y-85520752D02*
X31290047Y-85568371D01*
X31581475Y-85520752D02*
X31970047Y-85520752D01*
X31727190Y-85187419D02*
X31727190Y-86044561D01*
X31727190Y-86044561D02*
X31775761Y-86139800D01*
X31775761Y-86139800D02*
X31872904Y-86187419D01*
X31872904Y-86187419D02*
X31970047Y-86187419D01*
X119508105Y-129520639D02*
X119508105Y-129425401D01*
X119508105Y-129425401D02*
X119555724Y-129330163D01*
X119555724Y-129330163D02*
X119603343Y-129282544D01*
X119603343Y-129282544D02*
X119698581Y-129234925D01*
X119698581Y-129234925D02*
X119889057Y-129187306D01*
X119889057Y-129187306D02*
X120127152Y-129187306D01*
X120127152Y-129187306D02*
X120317628Y-129234925D01*
X120317628Y-129234925D02*
X120412866Y-129282544D01*
X120412866Y-129282544D02*
X120460486Y-129330163D01*
X120460486Y-129330163D02*
X120508105Y-129425401D01*
X120508105Y-129425401D02*
X120508105Y-129520639D01*
X120508105Y-129520639D02*
X120460486Y-129615877D01*
X120460486Y-129615877D02*
X120412866Y-129663496D01*
X120412866Y-129663496D02*
X120317628Y-129711115D01*
X120317628Y-129711115D02*
X120127152Y-129758734D01*
X120127152Y-129758734D02*
X119889057Y-129758734D01*
X119889057Y-129758734D02*
X119698581Y-129711115D01*
X119698581Y-129711115D02*
X119603343Y-129663496D01*
X119603343Y-129663496D02*
X119555724Y-129615877D01*
X119555724Y-129615877D02*
X119508105Y-129520639D01*
X19808105Y-85087306D02*
X19808105Y-85658734D01*
X19808105Y-85373020D02*
X18808105Y-85373020D01*
X18808105Y-85373020D02*
X18950962Y-85468258D01*
X18950962Y-85468258D02*
X19046200Y-85563496D01*
X19046200Y-85563496D02*
X19093819Y-85658734D01*
X19236676Y-84515877D02*
X19189057Y-84611115D01*
X19189057Y-84611115D02*
X19141438Y-84658734D01*
X19141438Y-84658734D02*
X19046200Y-84706353D01*
X19046200Y-84706353D02*
X18998581Y-84706353D01*
X18998581Y-84706353D02*
X18903343Y-84658734D01*
X18903343Y-84658734D02*
X18855724Y-84611115D01*
X18855724Y-84611115D02*
X18808105Y-84515877D01*
X18808105Y-84515877D02*
X18808105Y-84325401D01*
X18808105Y-84325401D02*
X18855724Y-84230163D01*
X18855724Y-84230163D02*
X18903343Y-84182544D01*
X18903343Y-84182544D02*
X18998581Y-84134925D01*
X18998581Y-84134925D02*
X19046200Y-84134925D01*
X19046200Y-84134925D02*
X19141438Y-84182544D01*
X19141438Y-84182544D02*
X19189057Y-84230163D01*
X19189057Y-84230163D02*
X19236676Y-84325401D01*
X19236676Y-84325401D02*
X19236676Y-84515877D01*
X19236676Y-84515877D02*
X19284295Y-84611115D01*
X19284295Y-84611115D02*
X19331914Y-84658734D01*
X19331914Y-84658734D02*
X19427152Y-84706353D01*
X19427152Y-84706353D02*
X19617628Y-84706353D01*
X19617628Y-84706353D02*
X19712866Y-84658734D01*
X19712866Y-84658734D02*
X19760486Y-84611115D01*
X19760486Y-84611115D02*
X19808105Y-84515877D01*
X19808105Y-84515877D02*
X19808105Y-84325401D01*
X19808105Y-84325401D02*
X19760486Y-84230163D01*
X19760486Y-84230163D02*
X19712866Y-84182544D01*
X19712866Y-84182544D02*
X19617628Y-84134925D01*
X19617628Y-84134925D02*
X19427152Y-84134925D01*
X19427152Y-84134925D02*
X19331914Y-84182544D01*
X19331914Y-84182544D02*
X19284295Y-84230163D01*
X19284295Y-84230163D02*
X19236676Y-84325401D01*
X22591951Y-75729856D02*
X22687189Y-75777475D01*
X22687189Y-75777475D02*
X22877665Y-75777475D01*
X22877665Y-75777475D02*
X22972903Y-75729856D01*
X22972903Y-75729856D02*
X23020522Y-75634617D01*
X23020522Y-75634617D02*
X23020522Y-75586998D01*
X23020522Y-75586998D02*
X22972903Y-75491760D01*
X22972903Y-75491760D02*
X22877665Y-75444141D01*
X22877665Y-75444141D02*
X22734808Y-75444141D01*
X22734808Y-75444141D02*
X22639570Y-75396522D01*
X22639570Y-75396522D02*
X22591951Y-75301284D01*
X22591951Y-75301284D02*
X22591951Y-75253665D01*
X22591951Y-75253665D02*
X22639570Y-75158427D01*
X22639570Y-75158427D02*
X22734808Y-75110808D01*
X22734808Y-75110808D02*
X22877665Y-75110808D01*
X22877665Y-75110808D02*
X22972903Y-75158427D01*
X23972903Y-75777475D02*
X23401475Y-75777475D01*
X23687189Y-75777475D02*
X23687189Y-74777475D01*
X23687189Y-74777475D02*
X23591951Y-74920332D01*
X23591951Y-74920332D02*
X23496713Y-75015570D01*
X23496713Y-75015570D02*
X23401475Y-75063189D01*
X22544332Y-76720752D02*
X22782427Y-77387419D01*
X22782427Y-77387419D02*
X23020522Y-76720752D01*
D12*
X135946695Y-129033333D02*
X135994314Y-128890476D01*
X135994314Y-128890476D02*
X136041933Y-128842857D01*
X136041933Y-128842857D02*
X136137171Y-128795238D01*
X136137171Y-128795238D02*
X136280028Y-128795238D01*
X136280028Y-128795238D02*
X136375266Y-128842857D01*
X136375266Y-128842857D02*
X136422886Y-128890476D01*
X136422886Y-128890476D02*
X136470505Y-128985714D01*
X136470505Y-128985714D02*
X136470505Y-129366666D01*
X136470505Y-129366666D02*
X135470505Y-129366666D01*
X135470505Y-129366666D02*
X135470505Y-129033333D01*
X135470505Y-129033333D02*
X135518124Y-128938095D01*
X135518124Y-128938095D02*
X135565743Y-128890476D01*
X135565743Y-128890476D02*
X135660981Y-128842857D01*
X135660981Y-128842857D02*
X135756219Y-128842857D01*
X135756219Y-128842857D02*
X135851457Y-128890476D01*
X135851457Y-128890476D02*
X135899076Y-128938095D01*
X135899076Y-128938095D02*
X135946695Y-129033333D01*
X135946695Y-129033333D02*
X135946695Y-129366666D01*
X135470505Y-128176190D02*
X135470505Y-127985714D01*
X135470505Y-127985714D02*
X135518124Y-127890476D01*
X135518124Y-127890476D02*
X135613362Y-127795238D01*
X135613362Y-127795238D02*
X135803838Y-127747619D01*
X135803838Y-127747619D02*
X136137171Y-127747619D01*
X136137171Y-127747619D02*
X136327647Y-127795238D01*
X136327647Y-127795238D02*
X136422886Y-127890476D01*
X136422886Y-127890476D02*
X136470505Y-127985714D01*
X136470505Y-127985714D02*
X136470505Y-128176190D01*
X136470505Y-128176190D02*
X136422886Y-128271428D01*
X136422886Y-128271428D02*
X136327647Y-128366666D01*
X136327647Y-128366666D02*
X136137171Y-128414285D01*
X136137171Y-128414285D02*
X135803838Y-128414285D01*
X135803838Y-128414285D02*
X135613362Y-128366666D01*
X135613362Y-128366666D02*
X135518124Y-128271428D01*
X135518124Y-128271428D02*
X135470505Y-128176190D01*
X136184790Y-127366666D02*
X136184790Y-126890476D01*
X136470505Y-127461904D02*
X135470505Y-127128571D01*
X135470505Y-127128571D02*
X136470505Y-126795238D01*
X136470505Y-125890476D02*
X135994314Y-126223809D01*
X136470505Y-126461904D02*
X135470505Y-126461904D01*
X135470505Y-126461904D02*
X135470505Y-126080952D01*
X135470505Y-126080952D02*
X135518124Y-125985714D01*
X135518124Y-125985714D02*
X135565743Y-125938095D01*
X135565743Y-125938095D02*
X135660981Y-125890476D01*
X135660981Y-125890476D02*
X135803838Y-125890476D01*
X135803838Y-125890476D02*
X135899076Y-125938095D01*
X135899076Y-125938095D02*
X135946695Y-125985714D01*
X135946695Y-125985714D02*
X135994314Y-126080952D01*
X135994314Y-126080952D02*
X135994314Y-126461904D01*
X136470505Y-125461904D02*
X135470505Y-125461904D01*
X135470505Y-125461904D02*
X135470505Y-125223809D01*
X135470505Y-125223809D02*
X135518124Y-125080952D01*
X135518124Y-125080952D02*
X135613362Y-124985714D01*
X135613362Y-124985714D02*
X135708600Y-124938095D01*
X135708600Y-124938095D02*
X135899076Y-124890476D01*
X135899076Y-124890476D02*
X136041933Y-124890476D01*
X136041933Y-124890476D02*
X136232409Y-124938095D01*
X136232409Y-124938095D02*
X136327647Y-124985714D01*
X136327647Y-124985714D02*
X136422886Y-125080952D01*
X136422886Y-125080952D02*
X136470505Y-125223809D01*
X136470505Y-125223809D02*
X136470505Y-125461904D01*
X136422886Y-124509523D02*
X136470505Y-124366666D01*
X136470505Y-124366666D02*
X136470505Y-124128571D01*
X136470505Y-124128571D02*
X136422886Y-124033333D01*
X136422886Y-124033333D02*
X136375266Y-123985714D01*
X136375266Y-123985714D02*
X136280028Y-123938095D01*
X136280028Y-123938095D02*
X136184790Y-123938095D01*
X136184790Y-123938095D02*
X136089552Y-123985714D01*
X136089552Y-123985714D02*
X136041933Y-124033333D01*
X136041933Y-124033333D02*
X135994314Y-124128571D01*
X135994314Y-124128571D02*
X135946695Y-124319047D01*
X135946695Y-124319047D02*
X135899076Y-124414285D01*
X135899076Y-124414285D02*
X135851457Y-124461904D01*
X135851457Y-124461904D02*
X135756219Y-124509523D01*
X135756219Y-124509523D02*
X135660981Y-124509523D01*
X135660981Y-124509523D02*
X135565743Y-124461904D01*
X135565743Y-124461904D02*
X135518124Y-124414285D01*
X135518124Y-124414285D02*
X135470505Y-124319047D01*
X135470505Y-124319047D02*
X135470505Y-124080952D01*
X135470505Y-124080952D02*
X135518124Y-123938095D01*
X135946695Y-123509523D02*
X135946695Y-123176190D01*
X136470505Y-123033333D02*
X136470505Y-123509523D01*
X136470505Y-123509523D02*
X135470505Y-123509523D01*
X135470505Y-123509523D02*
X135470505Y-123033333D01*
X136470505Y-122128571D02*
X136470505Y-122604761D01*
X136470505Y-122604761D02*
X135470505Y-122604761D01*
X136565743Y-122033333D02*
X136565743Y-121271428D01*
X135946695Y-121033332D02*
X135946695Y-120699999D01*
X136470505Y-120557142D02*
X136470505Y-121033332D01*
X136470505Y-121033332D02*
X135470505Y-121033332D01*
X135470505Y-121033332D02*
X135470505Y-120557142D01*
X136470505Y-120128570D02*
X135470505Y-120128570D01*
X135470505Y-120128570D02*
X136470505Y-119557142D01*
X136470505Y-119557142D02*
X135470505Y-119557142D01*
X136184790Y-119128570D02*
X136184790Y-118652380D01*
X136470505Y-119223808D02*
X135470505Y-118890475D01*
X135470505Y-118890475D02*
X136470505Y-118557142D01*
X135946695Y-117890475D02*
X135994314Y-117747618D01*
X135994314Y-117747618D02*
X136041933Y-117699999D01*
X136041933Y-117699999D02*
X136137171Y-117652380D01*
X136137171Y-117652380D02*
X136280028Y-117652380D01*
X136280028Y-117652380D02*
X136375266Y-117699999D01*
X136375266Y-117699999D02*
X136422886Y-117747618D01*
X136422886Y-117747618D02*
X136470505Y-117842856D01*
X136470505Y-117842856D02*
X136470505Y-118223808D01*
X136470505Y-118223808D02*
X135470505Y-118223808D01*
X135470505Y-118223808D02*
X135470505Y-117890475D01*
X135470505Y-117890475D02*
X135518124Y-117795237D01*
X135518124Y-117795237D02*
X135565743Y-117747618D01*
X135565743Y-117747618D02*
X135660981Y-117699999D01*
X135660981Y-117699999D02*
X135756219Y-117699999D01*
X135756219Y-117699999D02*
X135851457Y-117747618D01*
X135851457Y-117747618D02*
X135899076Y-117795237D01*
X135899076Y-117795237D02*
X135946695Y-117890475D01*
X135946695Y-117890475D02*
X135946695Y-118223808D01*
X136470505Y-116747618D02*
X136470505Y-117223808D01*
X136470505Y-117223808D02*
X135470505Y-117223808D01*
X135946695Y-116414284D02*
X135946695Y-116080951D01*
X136470505Y-115938094D02*
X136470505Y-116414284D01*
X136470505Y-116414284D02*
X135470505Y-116414284D01*
X135470505Y-116414284D02*
X135470505Y-115938094D01*
X136470505Y-114985713D02*
X136470505Y-115557141D01*
X136470505Y-115271427D02*
X135470505Y-115271427D01*
X135470505Y-115271427D02*
X135613362Y-115366665D01*
X135613362Y-115366665D02*
X135708600Y-115461903D01*
X135708600Y-115461903D02*
X135756219Y-115557141D01*
X106068067Y-125254819D02*
X106068067Y-124254819D01*
X106068067Y-124254819D02*
X106306162Y-124254819D01*
X106306162Y-124254819D02*
X106449019Y-124302438D01*
X106449019Y-124302438D02*
X106544257Y-124397676D01*
X106544257Y-124397676D02*
X106591876Y-124492914D01*
X106591876Y-124492914D02*
X106639495Y-124683390D01*
X106639495Y-124683390D02*
X106639495Y-124826247D01*
X106639495Y-124826247D02*
X106591876Y-125016723D01*
X106591876Y-125016723D02*
X106544257Y-125111961D01*
X106544257Y-125111961D02*
X106449019Y-125207200D01*
X106449019Y-125207200D02*
X106306162Y-125254819D01*
X106306162Y-125254819D02*
X106068067Y-125254819D01*
X107591876Y-124302438D02*
X107496638Y-124254819D01*
X107496638Y-124254819D02*
X107353781Y-124254819D01*
X107353781Y-124254819D02*
X107210924Y-124302438D01*
X107210924Y-124302438D02*
X107115686Y-124397676D01*
X107115686Y-124397676D02*
X107068067Y-124492914D01*
X107068067Y-124492914D02*
X107020448Y-124683390D01*
X107020448Y-124683390D02*
X107020448Y-124826247D01*
X107020448Y-124826247D02*
X107068067Y-125016723D01*
X107068067Y-125016723D02*
X107115686Y-125111961D01*
X107115686Y-125111961D02*
X107210924Y-125207200D01*
X107210924Y-125207200D02*
X107353781Y-125254819D01*
X107353781Y-125254819D02*
X107449019Y-125254819D01*
X107449019Y-125254819D02*
X107591876Y-125207200D01*
X107591876Y-125207200D02*
X107639495Y-125159580D01*
X107639495Y-125159580D02*
X107639495Y-124826247D01*
X107639495Y-124826247D02*
X107449019Y-124826247D01*
X108496638Y-124588152D02*
X108496638Y-125254819D01*
X108258543Y-124207200D02*
X108020448Y-124921485D01*
X108020448Y-124921485D02*
X108639495Y-124921485D01*
X109496638Y-124254819D02*
X109020448Y-124254819D01*
X109020448Y-124254819D02*
X108972829Y-124731009D01*
X108972829Y-124731009D02*
X109020448Y-124683390D01*
X109020448Y-124683390D02*
X109115686Y-124635771D01*
X109115686Y-124635771D02*
X109353781Y-124635771D01*
X109353781Y-124635771D02*
X109449019Y-124683390D01*
X109449019Y-124683390D02*
X109496638Y-124731009D01*
X109496638Y-124731009D02*
X109544257Y-124826247D01*
X109544257Y-124826247D02*
X109544257Y-125064342D01*
X109544257Y-125064342D02*
X109496638Y-125159580D01*
X109496638Y-125159580D02*
X109449019Y-125207200D01*
X109449019Y-125207200D02*
X109353781Y-125254819D01*
X109353781Y-125254819D02*
X109115686Y-125254819D01*
X109115686Y-125254819D02*
X109020448Y-125207200D01*
X109020448Y-125207200D02*
X108972829Y-125159580D01*
X109925210Y-124350057D02*
X109972829Y-124302438D01*
X109972829Y-124302438D02*
X110068067Y-124254819D01*
X110068067Y-124254819D02*
X110306162Y-124254819D01*
X110306162Y-124254819D02*
X110401400Y-124302438D01*
X110401400Y-124302438D02*
X110449019Y-124350057D01*
X110449019Y-124350057D02*
X110496638Y-124445295D01*
X110496638Y-124445295D02*
X110496638Y-124540533D01*
X110496638Y-124540533D02*
X110449019Y-124683390D01*
X110449019Y-124683390D02*
X109877591Y-125254819D01*
X109877591Y-125254819D02*
X110496638Y-125254819D01*
X110687115Y-125350057D02*
X111449019Y-125350057D01*
X111877591Y-124254819D02*
X111972829Y-124254819D01*
X111972829Y-124254819D02*
X112068067Y-124302438D01*
X112068067Y-124302438D02*
X112115686Y-124350057D01*
X112115686Y-124350057D02*
X112163305Y-124445295D01*
X112163305Y-124445295D02*
X112210924Y-124635771D01*
X112210924Y-124635771D02*
X112210924Y-124873866D01*
X112210924Y-124873866D02*
X112163305Y-125064342D01*
X112163305Y-125064342D02*
X112115686Y-125159580D01*
X112115686Y-125159580D02*
X112068067Y-125207200D01*
X112068067Y-125207200D02*
X111972829Y-125254819D01*
X111972829Y-125254819D02*
X111877591Y-125254819D01*
X111877591Y-125254819D02*
X111782353Y-125207200D01*
X111782353Y-125207200D02*
X111734734Y-125159580D01*
X111734734Y-125159580D02*
X111687115Y-125064342D01*
X111687115Y-125064342D02*
X111639496Y-124873866D01*
X111639496Y-124873866D02*
X111639496Y-124635771D01*
X111639496Y-124635771D02*
X111687115Y-124445295D01*
X111687115Y-124445295D02*
X111734734Y-124350057D01*
X111734734Y-124350057D02*
X111782353Y-124302438D01*
X111782353Y-124302438D02*
X111877591Y-124254819D01*
X105668067Y-100754819D02*
X105668067Y-99754819D01*
X105668067Y-99754819D02*
X105906162Y-99754819D01*
X105906162Y-99754819D02*
X106049019Y-99802438D01*
X106049019Y-99802438D02*
X106144257Y-99897676D01*
X106144257Y-99897676D02*
X106191876Y-99992914D01*
X106191876Y-99992914D02*
X106239495Y-100183390D01*
X106239495Y-100183390D02*
X106239495Y-100326247D01*
X106239495Y-100326247D02*
X106191876Y-100516723D01*
X106191876Y-100516723D02*
X106144257Y-100611961D01*
X106144257Y-100611961D02*
X106049019Y-100707200D01*
X106049019Y-100707200D02*
X105906162Y-100754819D01*
X105906162Y-100754819D02*
X105668067Y-100754819D01*
X107191876Y-99802438D02*
X107096638Y-99754819D01*
X107096638Y-99754819D02*
X106953781Y-99754819D01*
X106953781Y-99754819D02*
X106810924Y-99802438D01*
X106810924Y-99802438D02*
X106715686Y-99897676D01*
X106715686Y-99897676D02*
X106668067Y-99992914D01*
X106668067Y-99992914D02*
X106620448Y-100183390D01*
X106620448Y-100183390D02*
X106620448Y-100326247D01*
X106620448Y-100326247D02*
X106668067Y-100516723D01*
X106668067Y-100516723D02*
X106715686Y-100611961D01*
X106715686Y-100611961D02*
X106810924Y-100707200D01*
X106810924Y-100707200D02*
X106953781Y-100754819D01*
X106953781Y-100754819D02*
X107049019Y-100754819D01*
X107049019Y-100754819D02*
X107191876Y-100707200D01*
X107191876Y-100707200D02*
X107239495Y-100659580D01*
X107239495Y-100659580D02*
X107239495Y-100326247D01*
X107239495Y-100326247D02*
X107049019Y-100326247D01*
X108096638Y-100088152D02*
X108096638Y-100754819D01*
X107858543Y-99707200D02*
X107620448Y-100421485D01*
X107620448Y-100421485D02*
X108239495Y-100421485D01*
X109096638Y-99754819D02*
X108620448Y-99754819D01*
X108620448Y-99754819D02*
X108572829Y-100231009D01*
X108572829Y-100231009D02*
X108620448Y-100183390D01*
X108620448Y-100183390D02*
X108715686Y-100135771D01*
X108715686Y-100135771D02*
X108953781Y-100135771D01*
X108953781Y-100135771D02*
X109049019Y-100183390D01*
X109049019Y-100183390D02*
X109096638Y-100231009D01*
X109096638Y-100231009D02*
X109144257Y-100326247D01*
X109144257Y-100326247D02*
X109144257Y-100564342D01*
X109144257Y-100564342D02*
X109096638Y-100659580D01*
X109096638Y-100659580D02*
X109049019Y-100707200D01*
X109049019Y-100707200D02*
X108953781Y-100754819D01*
X108953781Y-100754819D02*
X108715686Y-100754819D01*
X108715686Y-100754819D02*
X108620448Y-100707200D01*
X108620448Y-100707200D02*
X108572829Y-100659580D01*
X109525210Y-99850057D02*
X109572829Y-99802438D01*
X109572829Y-99802438D02*
X109668067Y-99754819D01*
X109668067Y-99754819D02*
X109906162Y-99754819D01*
X109906162Y-99754819D02*
X110001400Y-99802438D01*
X110001400Y-99802438D02*
X110049019Y-99850057D01*
X110049019Y-99850057D02*
X110096638Y-99945295D01*
X110096638Y-99945295D02*
X110096638Y-100040533D01*
X110096638Y-100040533D02*
X110049019Y-100183390D01*
X110049019Y-100183390D02*
X109477591Y-100754819D01*
X109477591Y-100754819D02*
X110096638Y-100754819D01*
X110287115Y-100850057D02*
X111049019Y-100850057D01*
X111239496Y-99850057D02*
X111287115Y-99802438D01*
X111287115Y-99802438D02*
X111382353Y-99754819D01*
X111382353Y-99754819D02*
X111620448Y-99754819D01*
X111620448Y-99754819D02*
X111715686Y-99802438D01*
X111715686Y-99802438D02*
X111763305Y-99850057D01*
X111763305Y-99850057D02*
X111810924Y-99945295D01*
X111810924Y-99945295D02*
X111810924Y-100040533D01*
X111810924Y-100040533D02*
X111763305Y-100183390D01*
X111763305Y-100183390D02*
X111191877Y-100754819D01*
X111191877Y-100754819D02*
X111810924Y-100754819D01*
X105668067Y-88254819D02*
X105668067Y-87254819D01*
X105668067Y-87254819D02*
X105906162Y-87254819D01*
X105906162Y-87254819D02*
X106049019Y-87302438D01*
X106049019Y-87302438D02*
X106144257Y-87397676D01*
X106144257Y-87397676D02*
X106191876Y-87492914D01*
X106191876Y-87492914D02*
X106239495Y-87683390D01*
X106239495Y-87683390D02*
X106239495Y-87826247D01*
X106239495Y-87826247D02*
X106191876Y-88016723D01*
X106191876Y-88016723D02*
X106144257Y-88111961D01*
X106144257Y-88111961D02*
X106049019Y-88207200D01*
X106049019Y-88207200D02*
X105906162Y-88254819D01*
X105906162Y-88254819D02*
X105668067Y-88254819D01*
X107191876Y-87302438D02*
X107096638Y-87254819D01*
X107096638Y-87254819D02*
X106953781Y-87254819D01*
X106953781Y-87254819D02*
X106810924Y-87302438D01*
X106810924Y-87302438D02*
X106715686Y-87397676D01*
X106715686Y-87397676D02*
X106668067Y-87492914D01*
X106668067Y-87492914D02*
X106620448Y-87683390D01*
X106620448Y-87683390D02*
X106620448Y-87826247D01*
X106620448Y-87826247D02*
X106668067Y-88016723D01*
X106668067Y-88016723D02*
X106715686Y-88111961D01*
X106715686Y-88111961D02*
X106810924Y-88207200D01*
X106810924Y-88207200D02*
X106953781Y-88254819D01*
X106953781Y-88254819D02*
X107049019Y-88254819D01*
X107049019Y-88254819D02*
X107191876Y-88207200D01*
X107191876Y-88207200D02*
X107239495Y-88159580D01*
X107239495Y-88159580D02*
X107239495Y-87826247D01*
X107239495Y-87826247D02*
X107049019Y-87826247D01*
X108096638Y-87588152D02*
X108096638Y-88254819D01*
X107858543Y-87207200D02*
X107620448Y-87921485D01*
X107620448Y-87921485D02*
X108239495Y-87921485D01*
X109096638Y-87254819D02*
X108620448Y-87254819D01*
X108620448Y-87254819D02*
X108572829Y-87731009D01*
X108572829Y-87731009D02*
X108620448Y-87683390D01*
X108620448Y-87683390D02*
X108715686Y-87635771D01*
X108715686Y-87635771D02*
X108953781Y-87635771D01*
X108953781Y-87635771D02*
X109049019Y-87683390D01*
X109049019Y-87683390D02*
X109096638Y-87731009D01*
X109096638Y-87731009D02*
X109144257Y-87826247D01*
X109144257Y-87826247D02*
X109144257Y-88064342D01*
X109144257Y-88064342D02*
X109096638Y-88159580D01*
X109096638Y-88159580D02*
X109049019Y-88207200D01*
X109049019Y-88207200D02*
X108953781Y-88254819D01*
X108953781Y-88254819D02*
X108715686Y-88254819D01*
X108715686Y-88254819D02*
X108620448Y-88207200D01*
X108620448Y-88207200D02*
X108572829Y-88159580D01*
X109525210Y-87350057D02*
X109572829Y-87302438D01*
X109572829Y-87302438D02*
X109668067Y-87254819D01*
X109668067Y-87254819D02*
X109906162Y-87254819D01*
X109906162Y-87254819D02*
X110001400Y-87302438D01*
X110001400Y-87302438D02*
X110049019Y-87350057D01*
X110049019Y-87350057D02*
X110096638Y-87445295D01*
X110096638Y-87445295D02*
X110096638Y-87540533D01*
X110096638Y-87540533D02*
X110049019Y-87683390D01*
X110049019Y-87683390D02*
X109477591Y-88254819D01*
X109477591Y-88254819D02*
X110096638Y-88254819D01*
X110287115Y-88350057D02*
X111049019Y-88350057D01*
X111191877Y-87254819D02*
X111810924Y-87254819D01*
X111810924Y-87254819D02*
X111477591Y-87635771D01*
X111477591Y-87635771D02*
X111620448Y-87635771D01*
X111620448Y-87635771D02*
X111715686Y-87683390D01*
X111715686Y-87683390D02*
X111763305Y-87731009D01*
X111763305Y-87731009D02*
X111810924Y-87826247D01*
X111810924Y-87826247D02*
X111810924Y-88064342D01*
X111810924Y-88064342D02*
X111763305Y-88159580D01*
X111763305Y-88159580D02*
X111715686Y-88207200D01*
X111715686Y-88207200D02*
X111620448Y-88254819D01*
X111620448Y-88254819D02*
X111334734Y-88254819D01*
X111334734Y-88254819D02*
X111239496Y-88207200D01*
X111239496Y-88207200D02*
X111191877Y-88159580D01*
X106424257Y-76804819D02*
X106424257Y-75804819D01*
X106424257Y-75804819D02*
X106662352Y-75804819D01*
X106662352Y-75804819D02*
X106805209Y-75852438D01*
X106805209Y-75852438D02*
X106900447Y-75947676D01*
X106900447Y-75947676D02*
X106948066Y-76042914D01*
X106948066Y-76042914D02*
X106995685Y-76233390D01*
X106995685Y-76233390D02*
X106995685Y-76376247D01*
X106995685Y-76376247D02*
X106948066Y-76566723D01*
X106948066Y-76566723D02*
X106900447Y-76661961D01*
X106900447Y-76661961D02*
X106805209Y-76757200D01*
X106805209Y-76757200D02*
X106662352Y-76804819D01*
X106662352Y-76804819D02*
X106424257Y-76804819D01*
X107948066Y-75852438D02*
X107852828Y-75804819D01*
X107852828Y-75804819D02*
X107709971Y-75804819D01*
X107709971Y-75804819D02*
X107567114Y-75852438D01*
X107567114Y-75852438D02*
X107471876Y-75947676D01*
X107471876Y-75947676D02*
X107424257Y-76042914D01*
X107424257Y-76042914D02*
X107376638Y-76233390D01*
X107376638Y-76233390D02*
X107376638Y-76376247D01*
X107376638Y-76376247D02*
X107424257Y-76566723D01*
X107424257Y-76566723D02*
X107471876Y-76661961D01*
X107471876Y-76661961D02*
X107567114Y-76757200D01*
X107567114Y-76757200D02*
X107709971Y-76804819D01*
X107709971Y-76804819D02*
X107805209Y-76804819D01*
X107805209Y-76804819D02*
X107948066Y-76757200D01*
X107948066Y-76757200D02*
X107995685Y-76709580D01*
X107995685Y-76709580D02*
X107995685Y-76376247D01*
X107995685Y-76376247D02*
X107805209Y-76376247D01*
X108852828Y-76138152D02*
X108852828Y-76804819D01*
X108614733Y-75757200D02*
X108376638Y-76471485D01*
X108376638Y-76471485D02*
X108995685Y-76471485D01*
X109852828Y-75804819D02*
X109376638Y-75804819D01*
X109376638Y-75804819D02*
X109329019Y-76281009D01*
X109329019Y-76281009D02*
X109376638Y-76233390D01*
X109376638Y-76233390D02*
X109471876Y-76185771D01*
X109471876Y-76185771D02*
X109709971Y-76185771D01*
X109709971Y-76185771D02*
X109805209Y-76233390D01*
X109805209Y-76233390D02*
X109852828Y-76281009D01*
X109852828Y-76281009D02*
X109900447Y-76376247D01*
X109900447Y-76376247D02*
X109900447Y-76614342D01*
X109900447Y-76614342D02*
X109852828Y-76709580D01*
X109852828Y-76709580D02*
X109805209Y-76757200D01*
X109805209Y-76757200D02*
X109709971Y-76804819D01*
X109709971Y-76804819D02*
X109471876Y-76804819D01*
X109471876Y-76804819D02*
X109376638Y-76757200D01*
X109376638Y-76757200D02*
X109329019Y-76709580D01*
X110090924Y-76900057D02*
X110852828Y-76900057D01*
X111519495Y-76138152D02*
X111519495Y-76804819D01*
X111281400Y-75757200D02*
X111043305Y-76471485D01*
X111043305Y-76471485D02*
X111662352Y-76471485D01*
X105568067Y-113154819D02*
X105568067Y-112154819D01*
X105568067Y-112154819D02*
X105806162Y-112154819D01*
X105806162Y-112154819D02*
X105949019Y-112202438D01*
X105949019Y-112202438D02*
X106044257Y-112297676D01*
X106044257Y-112297676D02*
X106091876Y-112392914D01*
X106091876Y-112392914D02*
X106139495Y-112583390D01*
X106139495Y-112583390D02*
X106139495Y-112726247D01*
X106139495Y-112726247D02*
X106091876Y-112916723D01*
X106091876Y-112916723D02*
X106044257Y-113011961D01*
X106044257Y-113011961D02*
X105949019Y-113107200D01*
X105949019Y-113107200D02*
X105806162Y-113154819D01*
X105806162Y-113154819D02*
X105568067Y-113154819D01*
X107091876Y-112202438D02*
X106996638Y-112154819D01*
X106996638Y-112154819D02*
X106853781Y-112154819D01*
X106853781Y-112154819D02*
X106710924Y-112202438D01*
X106710924Y-112202438D02*
X106615686Y-112297676D01*
X106615686Y-112297676D02*
X106568067Y-112392914D01*
X106568067Y-112392914D02*
X106520448Y-112583390D01*
X106520448Y-112583390D02*
X106520448Y-112726247D01*
X106520448Y-112726247D02*
X106568067Y-112916723D01*
X106568067Y-112916723D02*
X106615686Y-113011961D01*
X106615686Y-113011961D02*
X106710924Y-113107200D01*
X106710924Y-113107200D02*
X106853781Y-113154819D01*
X106853781Y-113154819D02*
X106949019Y-113154819D01*
X106949019Y-113154819D02*
X107091876Y-113107200D01*
X107091876Y-113107200D02*
X107139495Y-113059580D01*
X107139495Y-113059580D02*
X107139495Y-112726247D01*
X107139495Y-112726247D02*
X106949019Y-112726247D01*
X107996638Y-112488152D02*
X107996638Y-113154819D01*
X107758543Y-112107200D02*
X107520448Y-112821485D01*
X107520448Y-112821485D02*
X108139495Y-112821485D01*
X108996638Y-112154819D02*
X108520448Y-112154819D01*
X108520448Y-112154819D02*
X108472829Y-112631009D01*
X108472829Y-112631009D02*
X108520448Y-112583390D01*
X108520448Y-112583390D02*
X108615686Y-112535771D01*
X108615686Y-112535771D02*
X108853781Y-112535771D01*
X108853781Y-112535771D02*
X108949019Y-112583390D01*
X108949019Y-112583390D02*
X108996638Y-112631009D01*
X108996638Y-112631009D02*
X109044257Y-112726247D01*
X109044257Y-112726247D02*
X109044257Y-112964342D01*
X109044257Y-112964342D02*
X108996638Y-113059580D01*
X108996638Y-113059580D02*
X108949019Y-113107200D01*
X108949019Y-113107200D02*
X108853781Y-113154819D01*
X108853781Y-113154819D02*
X108615686Y-113154819D01*
X108615686Y-113154819D02*
X108520448Y-113107200D01*
X108520448Y-113107200D02*
X108472829Y-113059580D01*
X109425210Y-112250057D02*
X109472829Y-112202438D01*
X109472829Y-112202438D02*
X109568067Y-112154819D01*
X109568067Y-112154819D02*
X109806162Y-112154819D01*
X109806162Y-112154819D02*
X109901400Y-112202438D01*
X109901400Y-112202438D02*
X109949019Y-112250057D01*
X109949019Y-112250057D02*
X109996638Y-112345295D01*
X109996638Y-112345295D02*
X109996638Y-112440533D01*
X109996638Y-112440533D02*
X109949019Y-112583390D01*
X109949019Y-112583390D02*
X109377591Y-113154819D01*
X109377591Y-113154819D02*
X109996638Y-113154819D01*
X110187115Y-113250057D02*
X110949019Y-113250057D01*
X111710924Y-113154819D02*
X111139496Y-113154819D01*
X111425210Y-113154819D02*
X111425210Y-112154819D01*
X111425210Y-112154819D02*
X111329972Y-112297676D01*
X111329972Y-112297676D02*
X111234734Y-112392914D01*
X111234734Y-112392914D02*
X111139496Y-112440533D01*
X46566666Y-79654819D02*
X46566666Y-80369104D01*
X46566666Y-80369104D02*
X46519047Y-80511961D01*
X46519047Y-80511961D02*
X46423809Y-80607200D01*
X46423809Y-80607200D02*
X46280952Y-80654819D01*
X46280952Y-80654819D02*
X46185714Y-80654819D01*
X47566666Y-80654819D02*
X46995238Y-80654819D01*
X47280952Y-80654819D02*
X47280952Y-79654819D01*
X47280952Y-79654819D02*
X47185714Y-79797676D01*
X47185714Y-79797676D02*
X47090476Y-79892914D01*
X47090476Y-79892914D02*
X46995238Y-79940533D01*
X48253781Y-105294819D02*
X48253781Y-106104342D01*
X48253781Y-106104342D02*
X48301400Y-106199580D01*
X48301400Y-106199580D02*
X48349019Y-106247200D01*
X48349019Y-106247200D02*
X48444257Y-106294819D01*
X48444257Y-106294819D02*
X48634733Y-106294819D01*
X48634733Y-106294819D02*
X48729971Y-106247200D01*
X48729971Y-106247200D02*
X48777590Y-106199580D01*
X48777590Y-106199580D02*
X48825209Y-106104342D01*
X48825209Y-106104342D02*
X48825209Y-105294819D01*
X49825209Y-106294819D02*
X49253781Y-106294819D01*
X49539495Y-106294819D02*
X49539495Y-105294819D01*
X49539495Y-105294819D02*
X49444257Y-105437676D01*
X49444257Y-105437676D02*
X49349019Y-105532914D01*
X49349019Y-105532914D02*
X49253781Y-105580533D01*
X46791719Y-117203333D02*
X46091719Y-117203333D01*
X46091719Y-117203333D02*
X46091719Y-117036666D01*
X46091719Y-117036666D02*
X46125052Y-116936666D01*
X46125052Y-116936666D02*
X46191719Y-116870000D01*
X46191719Y-116870000D02*
X46258386Y-116836666D01*
X46258386Y-116836666D02*
X46391719Y-116803333D01*
X46391719Y-116803333D02*
X46491719Y-116803333D01*
X46491719Y-116803333D02*
X46625052Y-116836666D01*
X46625052Y-116836666D02*
X46691719Y-116870000D01*
X46691719Y-116870000D02*
X46758386Y-116936666D01*
X46758386Y-116936666D02*
X46791719Y-117036666D01*
X46791719Y-117036666D02*
X46791719Y-117203333D01*
X46091719Y-116603333D02*
X46791719Y-116370000D01*
X46791719Y-116370000D02*
X46091719Y-116136666D01*
X46091719Y-115703333D02*
X46591719Y-115703333D01*
X46591719Y-115703333D02*
X46691719Y-115736666D01*
X46691719Y-115736666D02*
X46758386Y-115803333D01*
X46758386Y-115803333D02*
X46791719Y-115903333D01*
X46791719Y-115903333D02*
X46791719Y-115970000D01*
X46091719Y-115070000D02*
X46091719Y-115203333D01*
X46091719Y-115203333D02*
X46125052Y-115270000D01*
X46125052Y-115270000D02*
X46158386Y-115303333D01*
X46158386Y-115303333D02*
X46258386Y-115370000D01*
X46258386Y-115370000D02*
X46391719Y-115403333D01*
X46391719Y-115403333D02*
X46658386Y-115403333D01*
X46658386Y-115403333D02*
X46725052Y-115370000D01*
X46725052Y-115370000D02*
X46758386Y-115336667D01*
X46758386Y-115336667D02*
X46791719Y-115270000D01*
X46791719Y-115270000D02*
X46791719Y-115136667D01*
X46791719Y-115136667D02*
X46758386Y-115070000D01*
X46758386Y-115070000D02*
X46725052Y-115036667D01*
X46725052Y-115036667D02*
X46658386Y-115003333D01*
X46658386Y-115003333D02*
X46491719Y-115003333D01*
X46491719Y-115003333D02*
X46425052Y-115036667D01*
X46425052Y-115036667D02*
X46391719Y-115070000D01*
X46391719Y-115070000D02*
X46358386Y-115136667D01*
X46358386Y-115136667D02*
X46358386Y-115270000D01*
X46358386Y-115270000D02*
X46391719Y-115336667D01*
X46391719Y-115336667D02*
X46425052Y-115370000D01*
X46425052Y-115370000D02*
X46491719Y-115403333D01*
X46591719Y-114736666D02*
X46591719Y-114403333D01*
X46791719Y-114803333D02*
X46091719Y-114570000D01*
X46091719Y-114570000D02*
X46791719Y-114336666D01*
X70026638Y-116454819D02*
X70026638Y-115454819D01*
X70026638Y-115454819D02*
X70359971Y-116169104D01*
X70359971Y-116169104D02*
X70693304Y-115454819D01*
X70693304Y-115454819D02*
X70693304Y-116454819D01*
X71169495Y-116454819D02*
X71169495Y-115788152D01*
X71169495Y-115454819D02*
X71121876Y-115502438D01*
X71121876Y-115502438D02*
X71169495Y-115550057D01*
X71169495Y-115550057D02*
X71217114Y-115502438D01*
X71217114Y-115502438D02*
X71169495Y-115454819D01*
X71169495Y-115454819D02*
X71169495Y-115550057D01*
X72074256Y-116407200D02*
X71979018Y-116454819D01*
X71979018Y-116454819D02*
X71788542Y-116454819D01*
X71788542Y-116454819D02*
X71693304Y-116407200D01*
X71693304Y-116407200D02*
X71645685Y-116359580D01*
X71645685Y-116359580D02*
X71598066Y-116264342D01*
X71598066Y-116264342D02*
X71598066Y-115978628D01*
X71598066Y-115978628D02*
X71645685Y-115883390D01*
X71645685Y-115883390D02*
X71693304Y-115835771D01*
X71693304Y-115835771D02*
X71788542Y-115788152D01*
X71788542Y-115788152D02*
X71979018Y-115788152D01*
X71979018Y-115788152D02*
X72074256Y-115835771D01*
X72502828Y-116454819D02*
X72502828Y-115788152D01*
X72502828Y-115978628D02*
X72550447Y-115883390D01*
X72550447Y-115883390D02*
X72598066Y-115835771D01*
X72598066Y-115835771D02*
X72693304Y-115788152D01*
X72693304Y-115788152D02*
X72788542Y-115788152D01*
X73264733Y-116454819D02*
X73169495Y-116407200D01*
X73169495Y-116407200D02*
X73121876Y-116359580D01*
X73121876Y-116359580D02*
X73074257Y-116264342D01*
X73074257Y-116264342D02*
X73074257Y-115978628D01*
X73074257Y-115978628D02*
X73121876Y-115883390D01*
X73121876Y-115883390D02*
X73169495Y-115835771D01*
X73169495Y-115835771D02*
X73264733Y-115788152D01*
X73264733Y-115788152D02*
X73407590Y-115788152D01*
X73407590Y-115788152D02*
X73502828Y-115835771D01*
X73502828Y-115835771D02*
X73550447Y-115883390D01*
X73550447Y-115883390D02*
X73598066Y-115978628D01*
X73598066Y-115978628D02*
X73598066Y-116264342D01*
X73598066Y-116264342D02*
X73550447Y-116359580D01*
X73550447Y-116359580D02*
X73502828Y-116407200D01*
X73502828Y-116407200D02*
X73407590Y-116454819D01*
X73407590Y-116454819D02*
X73264733Y-116454819D01*
X74740924Y-116407200D02*
X74883781Y-116454819D01*
X74883781Y-116454819D02*
X75121876Y-116454819D01*
X75121876Y-116454819D02*
X75217114Y-116407200D01*
X75217114Y-116407200D02*
X75264733Y-116359580D01*
X75264733Y-116359580D02*
X75312352Y-116264342D01*
X75312352Y-116264342D02*
X75312352Y-116169104D01*
X75312352Y-116169104D02*
X75264733Y-116073866D01*
X75264733Y-116073866D02*
X75217114Y-116026247D01*
X75217114Y-116026247D02*
X75121876Y-115978628D01*
X75121876Y-115978628D02*
X74931400Y-115931009D01*
X74931400Y-115931009D02*
X74836162Y-115883390D01*
X74836162Y-115883390D02*
X74788543Y-115835771D01*
X74788543Y-115835771D02*
X74740924Y-115740533D01*
X74740924Y-115740533D02*
X74740924Y-115645295D01*
X74740924Y-115645295D02*
X74788543Y-115550057D01*
X74788543Y-115550057D02*
X74836162Y-115502438D01*
X74836162Y-115502438D02*
X74931400Y-115454819D01*
X74931400Y-115454819D02*
X75169495Y-115454819D01*
X75169495Y-115454819D02*
X75312352Y-115502438D01*
X75740924Y-116454819D02*
X75740924Y-115454819D01*
X75740924Y-115454819D02*
X75979019Y-115454819D01*
X75979019Y-115454819D02*
X76121876Y-115502438D01*
X76121876Y-115502438D02*
X76217114Y-115597676D01*
X76217114Y-115597676D02*
X76264733Y-115692914D01*
X76264733Y-115692914D02*
X76312352Y-115883390D01*
X76312352Y-115883390D02*
X76312352Y-116026247D01*
X76312352Y-116026247D02*
X76264733Y-116216723D01*
X76264733Y-116216723D02*
X76217114Y-116311961D01*
X76217114Y-116311961D02*
X76121876Y-116407200D01*
X76121876Y-116407200D02*
X75979019Y-116454819D01*
X75979019Y-116454819D02*
X75740924Y-116454819D01*
X27240362Y-117944019D02*
X27240362Y-118753542D01*
X27240362Y-118753542D02*
X27287981Y-118848780D01*
X27287981Y-118848780D02*
X27335600Y-118896400D01*
X27335600Y-118896400D02*
X27430838Y-118944019D01*
X27430838Y-118944019D02*
X27621314Y-118944019D01*
X27621314Y-118944019D02*
X27716552Y-118896400D01*
X27716552Y-118896400D02*
X27764171Y-118848780D01*
X27764171Y-118848780D02*
X27811790Y-118753542D01*
X27811790Y-118753542D02*
X27811790Y-117944019D01*
X28240362Y-118896400D02*
X28383219Y-118944019D01*
X28383219Y-118944019D02*
X28621314Y-118944019D01*
X28621314Y-118944019D02*
X28716552Y-118896400D01*
X28716552Y-118896400D02*
X28764171Y-118848780D01*
X28764171Y-118848780D02*
X28811790Y-118753542D01*
X28811790Y-118753542D02*
X28811790Y-118658304D01*
X28811790Y-118658304D02*
X28764171Y-118563066D01*
X28764171Y-118563066D02*
X28716552Y-118515447D01*
X28716552Y-118515447D02*
X28621314Y-118467828D01*
X28621314Y-118467828D02*
X28430838Y-118420209D01*
X28430838Y-118420209D02*
X28335600Y-118372590D01*
X28335600Y-118372590D02*
X28287981Y-118324971D01*
X28287981Y-118324971D02*
X28240362Y-118229733D01*
X28240362Y-118229733D02*
X28240362Y-118134495D01*
X28240362Y-118134495D02*
X28287981Y-118039257D01*
X28287981Y-118039257D02*
X28335600Y-117991638D01*
X28335600Y-117991638D02*
X28430838Y-117944019D01*
X28430838Y-117944019D02*
X28668933Y-117944019D01*
X28668933Y-117944019D02*
X28811790Y-117991638D01*
X29573695Y-118420209D02*
X29716552Y-118467828D01*
X29716552Y-118467828D02*
X29764171Y-118515447D01*
X29764171Y-118515447D02*
X29811790Y-118610685D01*
X29811790Y-118610685D02*
X29811790Y-118753542D01*
X29811790Y-118753542D02*
X29764171Y-118848780D01*
X29764171Y-118848780D02*
X29716552Y-118896400D01*
X29716552Y-118896400D02*
X29621314Y-118944019D01*
X29621314Y-118944019D02*
X29240362Y-118944019D01*
X29240362Y-118944019D02*
X29240362Y-117944019D01*
X29240362Y-117944019D02*
X29573695Y-117944019D01*
X29573695Y-117944019D02*
X29668933Y-117991638D01*
X29668933Y-117991638D02*
X29716552Y-118039257D01*
X29716552Y-118039257D02*
X29764171Y-118134495D01*
X29764171Y-118134495D02*
X29764171Y-118229733D01*
X29764171Y-118229733D02*
X29716552Y-118324971D01*
X29716552Y-118324971D02*
X29668933Y-118372590D01*
X29668933Y-118372590D02*
X29573695Y-118420209D01*
X29573695Y-118420209D02*
X29240362Y-118420209D01*
X31002267Y-118944019D02*
X31002267Y-117944019D01*
X31002267Y-118420209D02*
X31573695Y-118420209D01*
X31573695Y-118944019D02*
X31573695Y-117944019D01*
X32192743Y-118944019D02*
X32097505Y-118896400D01*
X32097505Y-118896400D02*
X32049886Y-118848780D01*
X32049886Y-118848780D02*
X32002267Y-118753542D01*
X32002267Y-118753542D02*
X32002267Y-118467828D01*
X32002267Y-118467828D02*
X32049886Y-118372590D01*
X32049886Y-118372590D02*
X32097505Y-118324971D01*
X32097505Y-118324971D02*
X32192743Y-118277352D01*
X32192743Y-118277352D02*
X32335600Y-118277352D01*
X32335600Y-118277352D02*
X32430838Y-118324971D01*
X32430838Y-118324971D02*
X32478457Y-118372590D01*
X32478457Y-118372590D02*
X32526076Y-118467828D01*
X32526076Y-118467828D02*
X32526076Y-118753542D01*
X32526076Y-118753542D02*
X32478457Y-118848780D01*
X32478457Y-118848780D02*
X32430838Y-118896400D01*
X32430838Y-118896400D02*
X32335600Y-118944019D01*
X32335600Y-118944019D02*
X32192743Y-118944019D01*
X32907029Y-118896400D02*
X33002267Y-118944019D01*
X33002267Y-118944019D02*
X33192743Y-118944019D01*
X33192743Y-118944019D02*
X33287981Y-118896400D01*
X33287981Y-118896400D02*
X33335600Y-118801161D01*
X33335600Y-118801161D02*
X33335600Y-118753542D01*
X33335600Y-118753542D02*
X33287981Y-118658304D01*
X33287981Y-118658304D02*
X33192743Y-118610685D01*
X33192743Y-118610685D02*
X33049886Y-118610685D01*
X33049886Y-118610685D02*
X32954648Y-118563066D01*
X32954648Y-118563066D02*
X32907029Y-118467828D01*
X32907029Y-118467828D02*
X32907029Y-118420209D01*
X32907029Y-118420209D02*
X32954648Y-118324971D01*
X32954648Y-118324971D02*
X33049886Y-118277352D01*
X33049886Y-118277352D02*
X33192743Y-118277352D01*
X33192743Y-118277352D02*
X33287981Y-118324971D01*
X33621315Y-118277352D02*
X34002267Y-118277352D01*
X33764172Y-117944019D02*
X33764172Y-118801161D01*
X33764172Y-118801161D02*
X33811791Y-118896400D01*
X33811791Y-118896400D02*
X33907029Y-118944019D01*
X33907029Y-118944019D02*
X34002267Y-118944019D01*
X36881695Y-115580543D02*
X36881695Y-115247210D01*
X37405505Y-115104353D02*
X37405505Y-115580543D01*
X37405505Y-115580543D02*
X36405505Y-115580543D01*
X36405505Y-115580543D02*
X36405505Y-115104353D01*
X36738838Y-114818638D02*
X36738838Y-114437686D01*
X36405505Y-114675781D02*
X37262647Y-114675781D01*
X37262647Y-114675781D02*
X37357886Y-114628162D01*
X37357886Y-114628162D02*
X37405505Y-114532924D01*
X37405505Y-114532924D02*
X37405505Y-114437686D01*
X37405505Y-114104352D02*
X36405505Y-114104352D01*
X37405505Y-113675781D02*
X36881695Y-113675781D01*
X36881695Y-113675781D02*
X36786457Y-113723400D01*
X36786457Y-113723400D02*
X36738838Y-113818638D01*
X36738838Y-113818638D02*
X36738838Y-113961495D01*
X36738838Y-113961495D02*
X36786457Y-114056733D01*
X36786457Y-114056733D02*
X36834076Y-114104352D01*
X37357886Y-112818638D02*
X37405505Y-112913876D01*
X37405505Y-112913876D02*
X37405505Y-113104352D01*
X37405505Y-113104352D02*
X37357886Y-113199590D01*
X37357886Y-113199590D02*
X37262647Y-113247209D01*
X37262647Y-113247209D02*
X36881695Y-113247209D01*
X36881695Y-113247209D02*
X36786457Y-113199590D01*
X36786457Y-113199590D02*
X36738838Y-113104352D01*
X36738838Y-113104352D02*
X36738838Y-112913876D01*
X36738838Y-112913876D02*
X36786457Y-112818638D01*
X36786457Y-112818638D02*
X36881695Y-112771019D01*
X36881695Y-112771019D02*
X36976933Y-112771019D01*
X36976933Y-112771019D02*
X37072171Y-113247209D01*
X37405505Y-112342447D02*
X36738838Y-112342447D01*
X36929314Y-112342447D02*
X36834076Y-112294828D01*
X36834076Y-112294828D02*
X36786457Y-112247209D01*
X36786457Y-112247209D02*
X36738838Y-112151971D01*
X36738838Y-112151971D02*
X36738838Y-112056733D01*
X36738838Y-111723399D02*
X37405505Y-111723399D01*
X36834076Y-111723399D02*
X36786457Y-111675780D01*
X36786457Y-111675780D02*
X36738838Y-111580542D01*
X36738838Y-111580542D02*
X36738838Y-111437685D01*
X36738838Y-111437685D02*
X36786457Y-111342447D01*
X36786457Y-111342447D02*
X36881695Y-111294828D01*
X36881695Y-111294828D02*
X37405505Y-111294828D01*
X37357886Y-110437685D02*
X37405505Y-110532923D01*
X37405505Y-110532923D02*
X37405505Y-110723399D01*
X37405505Y-110723399D02*
X37357886Y-110818637D01*
X37357886Y-110818637D02*
X37262647Y-110866256D01*
X37262647Y-110866256D02*
X36881695Y-110866256D01*
X36881695Y-110866256D02*
X36786457Y-110818637D01*
X36786457Y-110818637D02*
X36738838Y-110723399D01*
X36738838Y-110723399D02*
X36738838Y-110532923D01*
X36738838Y-110532923D02*
X36786457Y-110437685D01*
X36786457Y-110437685D02*
X36881695Y-110390066D01*
X36881695Y-110390066D02*
X36976933Y-110390066D01*
X36976933Y-110390066D02*
X37072171Y-110866256D01*
X36738838Y-110104351D02*
X36738838Y-109723399D01*
X36405505Y-109961494D02*
X37262647Y-109961494D01*
X37262647Y-109961494D02*
X37357886Y-109913875D01*
X37357886Y-109913875D02*
X37405505Y-109818637D01*
X37405505Y-109818637D02*
X37405505Y-109723399D01*
X48061719Y-119083333D02*
X47361719Y-119083333D01*
X47361719Y-119083333D02*
X47861719Y-118850000D01*
X47861719Y-118850000D02*
X47361719Y-118616666D01*
X47361719Y-118616666D02*
X48061719Y-118616666D01*
X48061719Y-118283333D02*
X47361719Y-118283333D01*
X48061719Y-117950000D02*
X47361719Y-117950000D01*
X47361719Y-117950000D02*
X47861719Y-117716667D01*
X47861719Y-117716667D02*
X47361719Y-117483333D01*
X47361719Y-117483333D02*
X48061719Y-117483333D01*
X47361719Y-117216667D02*
X48061719Y-116750000D01*
X47361719Y-116750000D02*
X48061719Y-117216667D01*
X48061719Y-116083333D02*
X47728386Y-116316666D01*
X48061719Y-116483333D02*
X47361719Y-116483333D01*
X47361719Y-116483333D02*
X47361719Y-116216666D01*
X47361719Y-116216666D02*
X47395052Y-116150000D01*
X47395052Y-116150000D02*
X47428386Y-116116666D01*
X47428386Y-116116666D02*
X47495052Y-116083333D01*
X47495052Y-116083333D02*
X47595052Y-116083333D01*
X47595052Y-116083333D02*
X47661719Y-116116666D01*
X47661719Y-116116666D02*
X47695052Y-116150000D01*
X47695052Y-116150000D02*
X47728386Y-116216666D01*
X47728386Y-116216666D02*
X47728386Y-116483333D01*
X47361719Y-115883333D02*
X47361719Y-115483333D01*
X48061719Y-115683333D02*
X47361719Y-115683333D01*
X48061719Y-114883333D02*
X48061719Y-115283333D01*
X48061719Y-115083333D02*
X47361719Y-115083333D01*
X47361719Y-115083333D02*
X47461719Y-115150000D01*
X47461719Y-115150000D02*
X47528386Y-115216667D01*
X47528386Y-115216667D02*
X47561719Y-115283333D01*
X47361719Y-114450000D02*
X47361719Y-114383333D01*
X47361719Y-114383333D02*
X47395052Y-114316666D01*
X47395052Y-114316666D02*
X47428386Y-114283333D01*
X47428386Y-114283333D02*
X47495052Y-114250000D01*
X47495052Y-114250000D02*
X47628386Y-114216666D01*
X47628386Y-114216666D02*
X47795052Y-114216666D01*
X47795052Y-114216666D02*
X47928386Y-114250000D01*
X47928386Y-114250000D02*
X47995052Y-114283333D01*
X47995052Y-114283333D02*
X48028386Y-114316666D01*
X48028386Y-114316666D02*
X48061719Y-114383333D01*
X48061719Y-114383333D02*
X48061719Y-114450000D01*
X48061719Y-114450000D02*
X48028386Y-114516666D01*
X48028386Y-114516666D02*
X47995052Y-114550000D01*
X47995052Y-114550000D02*
X47928386Y-114583333D01*
X47928386Y-114583333D02*
X47795052Y-114616666D01*
X47795052Y-114616666D02*
X47628386Y-114616666D01*
X47628386Y-114616666D02*
X47495052Y-114583333D01*
X47495052Y-114583333D02*
X47428386Y-114550000D01*
X47428386Y-114550000D02*
X47395052Y-114516666D01*
X47395052Y-114516666D02*
X47361719Y-114450000D01*
X47361719Y-113616666D02*
X47361719Y-113749999D01*
X47361719Y-113749999D02*
X47395052Y-113816666D01*
X47395052Y-113816666D02*
X47428386Y-113849999D01*
X47428386Y-113849999D02*
X47528386Y-113916666D01*
X47528386Y-113916666D02*
X47661719Y-113949999D01*
X47661719Y-113949999D02*
X47928386Y-113949999D01*
X47928386Y-113949999D02*
X47995052Y-113916666D01*
X47995052Y-113916666D02*
X48028386Y-113883333D01*
X48028386Y-113883333D02*
X48061719Y-113816666D01*
X48061719Y-113816666D02*
X48061719Y-113683333D01*
X48061719Y-113683333D02*
X48028386Y-113616666D01*
X48028386Y-113616666D02*
X47995052Y-113583333D01*
X47995052Y-113583333D02*
X47928386Y-113549999D01*
X47928386Y-113549999D02*
X47761719Y-113549999D01*
X47761719Y-113549999D02*
X47695052Y-113583333D01*
X47695052Y-113583333D02*
X47661719Y-113616666D01*
X47661719Y-113616666D02*
X47628386Y-113683333D01*
X47628386Y-113683333D02*
X47628386Y-113816666D01*
X47628386Y-113816666D02*
X47661719Y-113883333D01*
X47661719Y-113883333D02*
X47695052Y-113916666D01*
X47695052Y-113916666D02*
X47761719Y-113949999D01*
X47428386Y-113283332D02*
X47395052Y-113249999D01*
X47395052Y-113249999D02*
X47361719Y-113183332D01*
X47361719Y-113183332D02*
X47361719Y-113016666D01*
X47361719Y-113016666D02*
X47395052Y-112949999D01*
X47395052Y-112949999D02*
X47428386Y-112916666D01*
X47428386Y-112916666D02*
X47495052Y-112883332D01*
X47495052Y-112883332D02*
X47561719Y-112883332D01*
X47561719Y-112883332D02*
X47661719Y-112916666D01*
X47661719Y-112916666D02*
X48061719Y-113316666D01*
X48061719Y-113316666D02*
X48061719Y-112883332D01*
X21800505Y-117261904D02*
X22610028Y-117261904D01*
X22610028Y-117261904D02*
X22705266Y-117214285D01*
X22705266Y-117214285D02*
X22752886Y-117166666D01*
X22752886Y-117166666D02*
X22800505Y-117071428D01*
X22800505Y-117071428D02*
X22800505Y-116880952D01*
X22800505Y-116880952D02*
X22752886Y-116785714D01*
X22752886Y-116785714D02*
X22705266Y-116738095D01*
X22705266Y-116738095D02*
X22610028Y-116690476D01*
X22610028Y-116690476D02*
X21800505Y-116690476D01*
X22752886Y-116261904D02*
X22800505Y-116119047D01*
X22800505Y-116119047D02*
X22800505Y-115880952D01*
X22800505Y-115880952D02*
X22752886Y-115785714D01*
X22752886Y-115785714D02*
X22705266Y-115738095D01*
X22705266Y-115738095D02*
X22610028Y-115690476D01*
X22610028Y-115690476D02*
X22514790Y-115690476D01*
X22514790Y-115690476D02*
X22419552Y-115738095D01*
X22419552Y-115738095D02*
X22371933Y-115785714D01*
X22371933Y-115785714D02*
X22324314Y-115880952D01*
X22324314Y-115880952D02*
X22276695Y-116071428D01*
X22276695Y-116071428D02*
X22229076Y-116166666D01*
X22229076Y-116166666D02*
X22181457Y-116214285D01*
X22181457Y-116214285D02*
X22086219Y-116261904D01*
X22086219Y-116261904D02*
X21990981Y-116261904D01*
X21990981Y-116261904D02*
X21895743Y-116214285D01*
X21895743Y-116214285D02*
X21848124Y-116166666D01*
X21848124Y-116166666D02*
X21800505Y-116071428D01*
X21800505Y-116071428D02*
X21800505Y-115833333D01*
X21800505Y-115833333D02*
X21848124Y-115690476D01*
X22276695Y-114928571D02*
X22324314Y-114785714D01*
X22324314Y-114785714D02*
X22371933Y-114738095D01*
X22371933Y-114738095D02*
X22467171Y-114690476D01*
X22467171Y-114690476D02*
X22610028Y-114690476D01*
X22610028Y-114690476D02*
X22705266Y-114738095D01*
X22705266Y-114738095D02*
X22752886Y-114785714D01*
X22752886Y-114785714D02*
X22800505Y-114880952D01*
X22800505Y-114880952D02*
X22800505Y-115261904D01*
X22800505Y-115261904D02*
X21800505Y-115261904D01*
X21800505Y-115261904D02*
X21800505Y-114928571D01*
X21800505Y-114928571D02*
X21848124Y-114833333D01*
X21848124Y-114833333D02*
X21895743Y-114785714D01*
X21895743Y-114785714D02*
X21990981Y-114738095D01*
X21990981Y-114738095D02*
X22086219Y-114738095D01*
X22086219Y-114738095D02*
X22181457Y-114785714D01*
X22181457Y-114785714D02*
X22229076Y-114833333D01*
X22229076Y-114833333D02*
X22276695Y-114928571D01*
X22276695Y-114928571D02*
X22276695Y-115261904D01*
X148346695Y-127442857D02*
X148394314Y-127300000D01*
X148394314Y-127300000D02*
X148441933Y-127252381D01*
X148441933Y-127252381D02*
X148537171Y-127204762D01*
X148537171Y-127204762D02*
X148680028Y-127204762D01*
X148680028Y-127204762D02*
X148775266Y-127252381D01*
X148775266Y-127252381D02*
X148822886Y-127300000D01*
X148822886Y-127300000D02*
X148870505Y-127395238D01*
X148870505Y-127395238D02*
X148870505Y-127776190D01*
X148870505Y-127776190D02*
X147870505Y-127776190D01*
X147870505Y-127776190D02*
X147870505Y-127442857D01*
X147870505Y-127442857D02*
X147918124Y-127347619D01*
X147918124Y-127347619D02*
X147965743Y-127300000D01*
X147965743Y-127300000D02*
X148060981Y-127252381D01*
X148060981Y-127252381D02*
X148156219Y-127252381D01*
X148156219Y-127252381D02*
X148251457Y-127300000D01*
X148251457Y-127300000D02*
X148299076Y-127347619D01*
X148299076Y-127347619D02*
X148346695Y-127442857D01*
X148346695Y-127442857D02*
X148346695Y-127776190D01*
X147870505Y-126585714D02*
X147870505Y-126395238D01*
X147870505Y-126395238D02*
X147918124Y-126300000D01*
X147918124Y-126300000D02*
X148013362Y-126204762D01*
X148013362Y-126204762D02*
X148203838Y-126157143D01*
X148203838Y-126157143D02*
X148537171Y-126157143D01*
X148537171Y-126157143D02*
X148727647Y-126204762D01*
X148727647Y-126204762D02*
X148822886Y-126300000D01*
X148822886Y-126300000D02*
X148870505Y-126395238D01*
X148870505Y-126395238D02*
X148870505Y-126585714D01*
X148870505Y-126585714D02*
X148822886Y-126680952D01*
X148822886Y-126680952D02*
X148727647Y-126776190D01*
X148727647Y-126776190D02*
X148537171Y-126823809D01*
X148537171Y-126823809D02*
X148203838Y-126823809D01*
X148203838Y-126823809D02*
X148013362Y-126776190D01*
X148013362Y-126776190D02*
X147918124Y-126680952D01*
X147918124Y-126680952D02*
X147870505Y-126585714D01*
X148584790Y-125776190D02*
X148584790Y-125300000D01*
X148870505Y-125871428D02*
X147870505Y-125538095D01*
X147870505Y-125538095D02*
X148870505Y-125204762D01*
X148870505Y-124300000D02*
X148394314Y-124633333D01*
X148870505Y-124871428D02*
X147870505Y-124871428D01*
X147870505Y-124871428D02*
X147870505Y-124490476D01*
X147870505Y-124490476D02*
X147918124Y-124395238D01*
X147918124Y-124395238D02*
X147965743Y-124347619D01*
X147965743Y-124347619D02*
X148060981Y-124300000D01*
X148060981Y-124300000D02*
X148203838Y-124300000D01*
X148203838Y-124300000D02*
X148299076Y-124347619D01*
X148299076Y-124347619D02*
X148346695Y-124395238D01*
X148346695Y-124395238D02*
X148394314Y-124490476D01*
X148394314Y-124490476D02*
X148394314Y-124871428D01*
X148870505Y-123871428D02*
X147870505Y-123871428D01*
X147870505Y-123871428D02*
X147870505Y-123633333D01*
X147870505Y-123633333D02*
X147918124Y-123490476D01*
X147918124Y-123490476D02*
X148013362Y-123395238D01*
X148013362Y-123395238D02*
X148108600Y-123347619D01*
X148108600Y-123347619D02*
X148299076Y-123300000D01*
X148299076Y-123300000D02*
X148441933Y-123300000D01*
X148441933Y-123300000D02*
X148632409Y-123347619D01*
X148632409Y-123347619D02*
X148727647Y-123395238D01*
X148727647Y-123395238D02*
X148822886Y-123490476D01*
X148822886Y-123490476D02*
X148870505Y-123633333D01*
X148870505Y-123633333D02*
X148870505Y-123871428D01*
X148822886Y-122919047D02*
X148870505Y-122776190D01*
X148870505Y-122776190D02*
X148870505Y-122538095D01*
X148870505Y-122538095D02*
X148822886Y-122442857D01*
X148822886Y-122442857D02*
X148775266Y-122395238D01*
X148775266Y-122395238D02*
X148680028Y-122347619D01*
X148680028Y-122347619D02*
X148584790Y-122347619D01*
X148584790Y-122347619D02*
X148489552Y-122395238D01*
X148489552Y-122395238D02*
X148441933Y-122442857D01*
X148441933Y-122442857D02*
X148394314Y-122538095D01*
X148394314Y-122538095D02*
X148346695Y-122728571D01*
X148346695Y-122728571D02*
X148299076Y-122823809D01*
X148299076Y-122823809D02*
X148251457Y-122871428D01*
X148251457Y-122871428D02*
X148156219Y-122919047D01*
X148156219Y-122919047D02*
X148060981Y-122919047D01*
X148060981Y-122919047D02*
X147965743Y-122871428D01*
X147965743Y-122871428D02*
X147918124Y-122823809D01*
X147918124Y-122823809D02*
X147870505Y-122728571D01*
X147870505Y-122728571D02*
X147870505Y-122490476D01*
X147870505Y-122490476D02*
X147918124Y-122347619D01*
X148346695Y-121919047D02*
X148346695Y-121585714D01*
X148870505Y-121442857D02*
X148870505Y-121919047D01*
X148870505Y-121919047D02*
X147870505Y-121919047D01*
X147870505Y-121919047D02*
X147870505Y-121442857D01*
X148870505Y-120538095D02*
X148870505Y-121014285D01*
X148870505Y-121014285D02*
X147870505Y-121014285D01*
X148965743Y-120442857D02*
X148965743Y-119680952D01*
X148775266Y-118871428D02*
X148822886Y-118919047D01*
X148822886Y-118919047D02*
X148870505Y-119061904D01*
X148870505Y-119061904D02*
X148870505Y-119157142D01*
X148870505Y-119157142D02*
X148822886Y-119299999D01*
X148822886Y-119299999D02*
X148727647Y-119395237D01*
X148727647Y-119395237D02*
X148632409Y-119442856D01*
X148632409Y-119442856D02*
X148441933Y-119490475D01*
X148441933Y-119490475D02*
X148299076Y-119490475D01*
X148299076Y-119490475D02*
X148108600Y-119442856D01*
X148108600Y-119442856D02*
X148013362Y-119395237D01*
X148013362Y-119395237D02*
X147918124Y-119299999D01*
X147918124Y-119299999D02*
X147870505Y-119157142D01*
X147870505Y-119157142D02*
X147870505Y-119061904D01*
X147870505Y-119061904D02*
X147918124Y-118919047D01*
X147918124Y-118919047D02*
X147965743Y-118871428D01*
X148870505Y-118442856D02*
X147870505Y-118442856D01*
X147870505Y-118442856D02*
X148584790Y-118109523D01*
X148584790Y-118109523D02*
X147870505Y-117776190D01*
X147870505Y-117776190D02*
X148870505Y-117776190D01*
X148870505Y-117299999D02*
X147870505Y-117299999D01*
X147870505Y-117299999D02*
X147870505Y-116919047D01*
X147870505Y-116919047D02*
X147918124Y-116823809D01*
X147918124Y-116823809D02*
X147965743Y-116776190D01*
X147965743Y-116776190D02*
X148060981Y-116728571D01*
X148060981Y-116728571D02*
X148203838Y-116728571D01*
X148203838Y-116728571D02*
X148299076Y-116776190D01*
X148299076Y-116776190D02*
X148346695Y-116823809D01*
X148346695Y-116823809D02*
X148394314Y-116919047D01*
X148394314Y-116919047D02*
X148394314Y-117299999D01*
X148870505Y-115776190D02*
X148870505Y-116347618D01*
X148870505Y-116061904D02*
X147870505Y-116061904D01*
X147870505Y-116061904D02*
X148013362Y-116157142D01*
X148013362Y-116157142D02*
X148108600Y-116252380D01*
X148108600Y-116252380D02*
X148156219Y-116347618D01*
D13*
%TO.C,U4*%
X44700000Y-37710000D02*
X48300000Y-37710000D01*
X44143600Y-34761193D02*
G75*
G02*
X46500000Y-33260000I2356400J-1098807D01*
G01*
X44700000Y-37710000D02*
G75*
G02*
X44175816Y-36982795I1800000J1850000D01*
G01*
X46500000Y-33260000D02*
G75*
G02*
X48856400Y-34761193I0J-2600000D01*
G01*
X48824184Y-36982795D02*
G75*
G02*
X48300000Y-37710000I-2324184J1122795D01*
G01*
%TO.C,U14*%
X184700000Y-37710000D02*
X188300000Y-37710000D01*
X184143600Y-34761193D02*
G75*
G02*
X186500000Y-33260000I2356400J-1098807D01*
G01*
X184700000Y-37710000D02*
G75*
G02*
X184175816Y-36982795I1800000J1850000D01*
G01*
X186500000Y-33260000D02*
G75*
G02*
X188856400Y-34761193I0J-2600000D01*
G01*
X188824184Y-36982795D02*
G75*
G02*
X188300000Y-37710000I-2324184J1122795D01*
G01*
%TO.C,U2*%
X16700000Y-37710000D02*
X20300000Y-37710000D01*
X16143600Y-34761193D02*
G75*
G02*
X18500000Y-33260000I2356400J-1098807D01*
G01*
X16700000Y-37710000D02*
G75*
G02*
X16175816Y-36982795I1800000J1850000D01*
G01*
X18500000Y-33260000D02*
G75*
G02*
X20856400Y-34761193I0J-2600000D01*
G01*
X20824184Y-36982795D02*
G75*
G02*
X20300000Y-37710000I-2324184J1122795D01*
G01*
%TO.C,U5*%
X58700000Y-37710000D02*
X62300000Y-37710000D01*
X58143600Y-34761193D02*
G75*
G02*
X60500000Y-33260000I2356400J-1098807D01*
G01*
X58700000Y-37710000D02*
G75*
G02*
X58175816Y-36982795I1800000J1850000D01*
G01*
X60500000Y-33260000D02*
G75*
G02*
X62856400Y-34761193I0J-2600000D01*
G01*
X62824184Y-36982795D02*
G75*
G02*
X62300000Y-37710000I-2324184J1122795D01*
G01*
%TO.C,U3*%
X30700000Y-37710000D02*
X34300000Y-37710000D01*
X30143600Y-34761193D02*
G75*
G02*
X32500000Y-33260000I2356400J-1098807D01*
G01*
X30700000Y-37710000D02*
G75*
G02*
X30175816Y-36982795I1800000J1850000D01*
G01*
X32500000Y-33260000D02*
G75*
G02*
X34856400Y-34761193I0J-2600000D01*
G01*
X34824184Y-36982795D02*
G75*
G02*
X34300000Y-37710000I-2324184J1122795D01*
G01*
%TO.C,U12*%
X156700000Y-37710000D02*
X160300000Y-37710000D01*
X156143600Y-34761193D02*
G75*
G02*
X158500000Y-33260000I2356400J-1098807D01*
G01*
X156700000Y-37710000D02*
G75*
G02*
X156175816Y-36982795I1800000J1850000D01*
G01*
X158500000Y-33260000D02*
G75*
G02*
X160856400Y-34761193I0J-2600000D01*
G01*
X160824184Y-36982795D02*
G75*
G02*
X160300000Y-37710000I-2324184J1122795D01*
G01*
%TO.C,U18*%
X240700000Y-37710000D02*
X244300000Y-37710000D01*
X240143600Y-34761193D02*
G75*
G02*
X242500000Y-33260000I2356400J-1098807D01*
G01*
X240700000Y-37710000D02*
G75*
G02*
X240175816Y-36982795I1800000J1850000D01*
G01*
X242500000Y-33260000D02*
G75*
G02*
X244856400Y-34761193I0J-2600000D01*
G01*
X244824184Y-36982795D02*
G75*
G02*
X244300000Y-37710000I-2324184J1122795D01*
G01*
%TO.C,U17*%
X226700000Y-37710000D02*
X230300000Y-37710000D01*
X226143600Y-34761193D02*
G75*
G02*
X228500000Y-33260000I2356400J-1098807D01*
G01*
X226700000Y-37710000D02*
G75*
G02*
X226175816Y-36982795I1800000J1850000D01*
G01*
X228500000Y-33260000D02*
G75*
G02*
X230856400Y-34761193I0J-2600000D01*
G01*
X230824184Y-36982795D02*
G75*
G02*
X230300000Y-37710000I-2324184J1122795D01*
G01*
%TO.C,U6*%
X72700000Y-37710000D02*
X76300000Y-37710000D01*
X72143600Y-34761193D02*
G75*
G02*
X74500000Y-33260000I2356400J-1098807D01*
G01*
X72700000Y-37710000D02*
G75*
G02*
X72175816Y-36982795I1800000J1850000D01*
G01*
X74500000Y-33260000D02*
G75*
G02*
X76856400Y-34761193I0J-2600000D01*
G01*
X76824184Y-36982795D02*
G75*
G02*
X76300000Y-37710000I-2324184J1122795D01*
G01*
%TO.C,U8*%
X100700000Y-37710000D02*
X104300000Y-37710000D01*
X100143600Y-34761193D02*
G75*
G02*
X102500000Y-33260000I2356400J-1098807D01*
G01*
X100700000Y-37710000D02*
G75*
G02*
X100175816Y-36982795I1800000J1850000D01*
G01*
X102500000Y-33260000D02*
G75*
G02*
X104856400Y-34761193I0J-2600000D01*
G01*
X104824184Y-36982795D02*
G75*
G02*
X104300000Y-37710000I-2324184J1122795D01*
G01*
%TO.C,U11*%
X142700000Y-37710000D02*
X146300000Y-37710000D01*
X142143600Y-34761193D02*
G75*
G02*
X144500000Y-33260000I2356400J-1098807D01*
G01*
X142700000Y-37710000D02*
G75*
G02*
X142175816Y-36982795I1800000J1850000D01*
G01*
X144500000Y-33260000D02*
G75*
G02*
X146856400Y-34761193I0J-2600000D01*
G01*
X146824184Y-36982795D02*
G75*
G02*
X146300000Y-37710000I-2324184J1122795D01*
G01*
%TO.C,U7*%
X86700000Y-37710000D02*
X90300000Y-37710000D01*
X86143600Y-34761193D02*
G75*
G02*
X88500000Y-33260000I2356400J-1098807D01*
G01*
X86700000Y-37710000D02*
G75*
G02*
X86175816Y-36982795I1800000J1850000D01*
G01*
X88500000Y-33260000D02*
G75*
G02*
X90856400Y-34761193I0J-2600000D01*
G01*
X90824184Y-36982795D02*
G75*
G02*
X90300000Y-37710000I-2324184J1122795D01*
G01*
%TO.C,U10*%
X128700000Y-37710000D02*
X132300000Y-37710000D01*
X128143600Y-34761193D02*
G75*
G02*
X130500000Y-33260000I2356400J-1098807D01*
G01*
X128700000Y-37710000D02*
G75*
G02*
X128175816Y-36982795I1800000J1850000D01*
G01*
X130500000Y-33260000D02*
G75*
G02*
X132856400Y-34761193I0J-2600000D01*
G01*
X132824184Y-36982795D02*
G75*
G02*
X132300000Y-37710000I-2324184J1122795D01*
G01*
%TO.C,U19*%
X254700000Y-37710000D02*
X258300000Y-37710000D01*
X254143600Y-34761193D02*
G75*
G02*
X256500000Y-33260000I2356400J-1098807D01*
G01*
X254700000Y-37710000D02*
G75*
G02*
X254175816Y-36982795I1800000J1850000D01*
G01*
X256500000Y-33260000D02*
G75*
G02*
X258856400Y-34761193I0J-2600000D01*
G01*
X258824184Y-36982795D02*
G75*
G02*
X258300000Y-37710000I-2324184J1122795D01*
G01*
%TO.C,U9*%
X114700000Y-37710000D02*
X118300000Y-37710000D01*
X114143600Y-34761193D02*
G75*
G02*
X116500000Y-33260000I2356400J-1098807D01*
G01*
X114700000Y-37710000D02*
G75*
G02*
X114175816Y-36982795I1800000J1850000D01*
G01*
X116500000Y-33260000D02*
G75*
G02*
X118856400Y-34761193I0J-2600000D01*
G01*
X118824184Y-36982795D02*
G75*
G02*
X118300000Y-37710000I-2324184J1122795D01*
G01*
%TO.C,U15*%
X198700000Y-37710000D02*
X202300000Y-37710000D01*
X198143600Y-34761193D02*
G75*
G02*
X200500000Y-33260000I2356400J-1098807D01*
G01*
X198700000Y-37710000D02*
G75*
G02*
X198175816Y-36982795I1800000J1850000D01*
G01*
X200500000Y-33260000D02*
G75*
G02*
X202856400Y-34761193I0J-2600000D01*
G01*
X202824184Y-36982795D02*
G75*
G02*
X202300000Y-37710000I-2324184J1122795D01*
G01*
%TO.C,U13*%
X170700000Y-37710000D02*
X174300000Y-37710000D01*
X170143600Y-34761193D02*
G75*
G02*
X172500000Y-33260000I2356400J-1098807D01*
G01*
X170700000Y-37710000D02*
G75*
G02*
X170175816Y-36982795I1800000J1850000D01*
G01*
X172500000Y-33260000D02*
G75*
G02*
X174856400Y-34761193I0J-2600000D01*
G01*
X174824184Y-36982795D02*
G75*
G02*
X174300000Y-37710000I-2324184J1122795D01*
G01*
%TO.C,U16*%
X212700000Y-37710000D02*
X216300000Y-37710000D01*
X212143600Y-34761193D02*
G75*
G02*
X214500000Y-33260000I2356400J-1098807D01*
G01*
X212700000Y-37710000D02*
G75*
G02*
X212175816Y-36982795I1800000J1850000D01*
G01*
X214500000Y-33260000D02*
G75*
G02*
X216856400Y-34761193I0J-2600000D01*
G01*
X216824184Y-36982795D02*
G75*
G02*
X216300000Y-37710000I-2324184J1122795D01*
G01*
D14*
%TO.C,BOARDSEL_ENABLE1*%
X141080686Y-130120000D02*
G75*
G02*
X140880686Y-130120000I-100000J0D01*
G01*
X140880686Y-130120000D02*
G75*
G02*
X141080686Y-130120000I100000J0D01*
G01*
D15*
X139225686Y-132345000D02*
X132625686Y-132345000D01*
X139225686Y-131025000D02*
X139225686Y-132345000D01*
X139225686Y-112655000D02*
X139225686Y-113975000D01*
X132625686Y-132345000D02*
X132625686Y-131025000D01*
X132625686Y-113975000D02*
X132625686Y-112655000D01*
X132625686Y-112655000D02*
X139225686Y-112655000D01*
%TO.C,DG452_0*%
X104195686Y-126845000D02*
X104195686Y-122845000D01*
X114315686Y-126845000D02*
X114315686Y-122845000D01*
D14*
X104320686Y-129290000D02*
G75*
G02*
X104120686Y-129290000I-100000J0D01*
G01*
X104120686Y-129290000D02*
G75*
G02*
X104320686Y-129290000I100000J0D01*
G01*
D13*
%TO.C,JP52*%
X34115686Y-64075000D02*
X32115686Y-64075000D01*
X34115686Y-61275000D02*
X34115686Y-64075000D01*
X32115686Y-64075000D02*
X32115686Y-61275000D01*
X32115686Y-61275000D02*
X34115686Y-61275000D01*
%TO.C,JP53*%
X36615686Y-64075000D02*
X34615686Y-64075000D01*
X36615686Y-61275000D02*
X36615686Y-64075000D01*
X34615686Y-64075000D02*
X34615686Y-61275000D01*
X34615686Y-61275000D02*
X36615686Y-61275000D01*
D15*
%TO.C,DG452_2*%
X104250686Y-102275000D02*
X104250686Y-98275000D01*
X114370686Y-102275000D02*
X114370686Y-98275000D01*
D14*
X104375686Y-104720000D02*
G75*
G02*
X104175686Y-104720000I-100000J0D01*
G01*
X104175686Y-104720000D02*
G75*
G02*
X104375686Y-104720000I100000J0D01*
G01*
D15*
%TO.C,DG452_3*%
X104195686Y-89800000D02*
X104195686Y-85800000D01*
X114315686Y-89800000D02*
X114315686Y-85800000D01*
D14*
X104320686Y-92245000D02*
G75*
G02*
X104120686Y-92245000I-100000J0D01*
G01*
X104120686Y-92245000D02*
G75*
G02*
X104320686Y-92245000I100000J0D01*
G01*
D13*
%TO.C,JP2*%
X127465686Y-125500000D02*
X121965686Y-125500000D01*
X127465686Y-123550000D02*
X127465686Y-125500000D01*
X126415686Y-123000000D02*
X125815686Y-123000000D01*
X126115686Y-123300000D02*
X126415686Y-123000000D01*
X125815686Y-123000000D02*
X126115686Y-123300000D01*
X121965686Y-125500000D02*
X121965686Y-123550000D01*
X121965686Y-123550000D02*
X127465686Y-123550000D01*
%TO.C,JP4*%
X127465686Y-117000000D02*
X121965686Y-117000000D01*
X127465686Y-115050000D02*
X127465686Y-117000000D01*
X126415686Y-114500000D02*
X125815686Y-114500000D01*
X126115686Y-114800000D02*
X126415686Y-114500000D01*
X125815686Y-114500000D02*
X126115686Y-114800000D01*
X121965686Y-117000000D02*
X121965686Y-115050000D01*
X121965686Y-115050000D02*
X127465686Y-115050000D01*
D15*
%TO.C,DG45_4*%
X104230686Y-78325000D02*
X104230686Y-74325000D01*
X114350686Y-78325000D02*
X114350686Y-74325000D01*
D14*
X104355686Y-80770000D02*
G75*
G02*
X104155686Y-80770000I-100000J0D01*
G01*
X104155686Y-80770000D02*
G75*
G02*
X104355686Y-80770000I100000J0D01*
G01*
D13*
%TO.C,JP1*%
X127465686Y-130500000D02*
X121965686Y-130500000D01*
X127465686Y-128550000D02*
X127465686Y-130500000D01*
X126415686Y-128000000D02*
X125815686Y-128000000D01*
X126115686Y-128300000D02*
X126415686Y-128000000D01*
X125815686Y-128000000D02*
X126115686Y-128300000D01*
X121965686Y-130500000D02*
X121965686Y-128550000D01*
X121965686Y-128550000D02*
X127465686Y-128550000D01*
%TO.C,JP49*%
X26615686Y-64075000D02*
X24615686Y-64075000D01*
X26615686Y-61275000D02*
X26615686Y-64075000D01*
X24615686Y-64075000D02*
X24615686Y-61275000D01*
X24615686Y-61275000D02*
X26615686Y-61275000D01*
%TO.C,JP61*%
X56615686Y-64075000D02*
X54615686Y-64075000D01*
X56615686Y-61275000D02*
X56615686Y-64075000D01*
X54615686Y-64075000D02*
X54615686Y-61275000D01*
X54615686Y-61275000D02*
X56615686Y-61275000D01*
%TO.C,JP59*%
X51615686Y-64100000D02*
X49615686Y-64100000D01*
X51615686Y-61300000D02*
X51615686Y-64100000D01*
X49615686Y-64100000D02*
X49615686Y-61300000D01*
X49615686Y-61300000D02*
X51615686Y-61300000D01*
%TO.C,JP57*%
X46615686Y-64100000D02*
X44615686Y-64100000D01*
X46615686Y-61300000D02*
X46615686Y-64100000D01*
X44615686Y-64100000D02*
X44615686Y-61300000D01*
X44615686Y-61300000D02*
X46615686Y-61300000D01*
%TO.C,JP60*%
X54115686Y-64075000D02*
X52115686Y-64075000D01*
X54115686Y-61275000D02*
X54115686Y-64075000D01*
X52115686Y-64075000D02*
X52115686Y-61275000D01*
X52115686Y-61275000D02*
X54115686Y-61275000D01*
%TO.C,JP54*%
X39115686Y-64075000D02*
X37115686Y-64075000D01*
X39115686Y-61275000D02*
X39115686Y-64075000D01*
X37115686Y-64075000D02*
X37115686Y-61275000D01*
X37115686Y-61275000D02*
X39115686Y-61275000D01*
%TO.C,JP64*%
X64115686Y-64100000D02*
X62115686Y-64100000D01*
X64115686Y-61300000D02*
X64115686Y-64100000D01*
X62115686Y-64100000D02*
X62115686Y-61300000D01*
X62115686Y-61300000D02*
X64115686Y-61300000D01*
%TO.C,JP23*%
X70435686Y-84440000D02*
X72435686Y-84440000D01*
X70435686Y-87240000D02*
X70435686Y-84440000D01*
X72435686Y-84440000D02*
X72435686Y-87240000D01*
X72435686Y-87240000D02*
X70435686Y-87240000D01*
%TO.C,JP58*%
X49115686Y-64100000D02*
X47115686Y-64100000D01*
X49115686Y-61300000D02*
X49115686Y-64100000D01*
X47115686Y-64100000D02*
X47115686Y-61300000D01*
X47115686Y-61300000D02*
X49115686Y-61300000D01*
%TO.C,JP51*%
X31615686Y-64075000D02*
X29615686Y-64075000D01*
X31615686Y-61275000D02*
X31615686Y-64075000D01*
X29615686Y-64075000D02*
X29615686Y-61275000D01*
X29615686Y-61275000D02*
X31615686Y-61275000D01*
%TO.C,JP50*%
X29115686Y-64075000D02*
X27115686Y-64075000D01*
X29115686Y-61275000D02*
X29115686Y-64075000D01*
X27115686Y-64075000D02*
X27115686Y-61275000D01*
X27115686Y-61275000D02*
X29115686Y-61275000D01*
%TO.C,JP3*%
X127465686Y-121000000D02*
X121965686Y-121000000D01*
X127465686Y-119050000D02*
X127465686Y-121000000D01*
X126415686Y-118500000D02*
X125815686Y-118500000D01*
X126115686Y-118800000D02*
X126415686Y-118500000D01*
X125815686Y-118500000D02*
X126115686Y-118800000D01*
X121965686Y-121000000D02*
X121965686Y-119050000D01*
X121965686Y-119050000D02*
X127465686Y-119050000D01*
%TO.C,JP55*%
X41615686Y-64075000D02*
X39615686Y-64075000D01*
X41615686Y-61275000D02*
X41615686Y-64075000D01*
X39615686Y-64075000D02*
X39615686Y-61275000D01*
X39615686Y-61275000D02*
X41615686Y-61275000D01*
D15*
%TO.C,DG452_1*%
X104195686Y-114750000D02*
X104195686Y-110750000D01*
X114315686Y-114750000D02*
X114315686Y-110750000D01*
D14*
X104320686Y-117195000D02*
G75*
G02*
X104120686Y-117195000I-100000J0D01*
G01*
X104120686Y-117195000D02*
G75*
G02*
X104320686Y-117195000I100000J0D01*
G01*
D13*
%TO.C,JP65*%
X66615686Y-64100000D02*
X64615686Y-64100000D01*
X66615686Y-61300000D02*
X66615686Y-64100000D01*
X64615686Y-64100000D02*
X64615686Y-61300000D01*
X64615686Y-61300000D02*
X66615686Y-61300000D01*
%TO.C,JP63*%
X61615686Y-64075000D02*
X59615686Y-64075000D01*
X61615686Y-61275000D02*
X61615686Y-64075000D01*
X59615686Y-64075000D02*
X59615686Y-61275000D01*
X59615686Y-61275000D02*
X61615686Y-61275000D01*
%TO.C,JP48*%
X24115686Y-64075000D02*
X22115686Y-64075000D01*
X24115686Y-61275000D02*
X24115686Y-64075000D01*
X22115686Y-64075000D02*
X22115686Y-61275000D01*
X22115686Y-61275000D02*
X24115686Y-61275000D01*
D14*
%TO.C,J1*%
X21505686Y-82810000D02*
X21505686Y-77730000D01*
X72305686Y-77730000D02*
X21505686Y-77730000D01*
X72305686Y-77730000D02*
X72305686Y-82810000D01*
X72305686Y-82810000D02*
X21505686Y-82810000D01*
X20955686Y-81540000D02*
G75*
G02*
X20755686Y-81540000I-100000J0D01*
G01*
X20755686Y-81540000D02*
G75*
G02*
X20955686Y-81540000I100000J0D01*
G01*
D12*
%TO.C,U1*%
X17265686Y-112190000D02*
X18535686Y-112190000D01*
X17265686Y-119810000D02*
X17265686Y-112190000D01*
X18535686Y-107110000D02*
X79495686Y-107110000D01*
X18535686Y-119810000D02*
X17265686Y-119810000D01*
X18535686Y-124890000D02*
X18535686Y-107110000D01*
X23615686Y-112190000D02*
X18535686Y-112190000D01*
X23615686Y-119810000D02*
X18535686Y-119810000D01*
X23615686Y-119810000D02*
X23615686Y-112190000D01*
X24834886Y-119299200D02*
X27374886Y-119299200D01*
X24834886Y-119299200D02*
X37534886Y-119299200D01*
X24834886Y-121839200D02*
X24834886Y-119299200D01*
X27374886Y-119299200D02*
X27374886Y-121839200D01*
X31765686Y-109648400D02*
X31765686Y-109898400D01*
X31765686Y-109898400D02*
X31765686Y-115898400D01*
X31765686Y-115898400D02*
X35765686Y-115898400D01*
X35765686Y-109648400D02*
X31765686Y-109648400D01*
X35765686Y-115898400D02*
X35765686Y-109648400D01*
X37534886Y-119299200D02*
X37534886Y-121839200D01*
X37534886Y-121839200D02*
X24834886Y-121839200D01*
X41395686Y-109650000D02*
X41395686Y-122350000D01*
X41395686Y-122350000D02*
X54095686Y-122350000D01*
X54095686Y-109650000D02*
X41395686Y-109650000D01*
X54095686Y-122350000D02*
X54095686Y-109650000D01*
X59175686Y-114730000D02*
X62985686Y-114730000D01*
X59175686Y-117270000D02*
X59175686Y-114730000D01*
X62985686Y-114730000D02*
X62985686Y-117270000D01*
X62985686Y-117270000D02*
X59175686Y-117270000D01*
X66795686Y-109650000D02*
X66795686Y-122350000D01*
X66795686Y-122350000D02*
X79495686Y-122350000D01*
X78225686Y-110920000D02*
X78225686Y-121080000D01*
X78225686Y-121080000D02*
X79495686Y-121080000D01*
X79495686Y-107110000D02*
X79495686Y-124890000D01*
X79495686Y-109650000D02*
X66795686Y-109650000D01*
X79495686Y-110920000D02*
X78225686Y-110920000D01*
X79495686Y-124890000D02*
X18535686Y-124890000D01*
X61978712Y-116000000D02*
G75*
G02*
X60182660Y-116000000I-898026J0D01*
G01*
X60182660Y-116000000D02*
G75*
G02*
X61978712Y-116000000I898026J0D01*
G01*
D10*
X49926686Y-115312000D02*
X49672686Y-115566000D01*
X49418686Y-115185000D01*
X49672686Y-114931000D01*
X49926686Y-115312000D01*
G36*
X49926686Y-115312000D02*
G01*
X49672686Y-115566000D01*
X49418686Y-115185000D01*
X49672686Y-114931000D01*
X49926686Y-115312000D01*
G37*
X50307686Y-115820000D02*
X50053686Y-116074000D01*
X49799686Y-115693000D01*
X50053686Y-115439000D01*
X50307686Y-115820000D01*
G36*
X50307686Y-115820000D02*
G01*
X50053686Y-116074000D01*
X49799686Y-115693000D01*
X50053686Y-115439000D01*
X50307686Y-115820000D01*
G37*
X50688686Y-115439000D02*
X50434686Y-115693000D01*
X50180686Y-115312000D01*
X50434686Y-115058000D01*
X50688686Y-115439000D01*
G36*
X50688686Y-115439000D02*
G01*
X50434686Y-115693000D01*
X50180686Y-115312000D01*
X50434686Y-115058000D01*
X50688686Y-115439000D01*
G37*
X50688686Y-116328000D02*
X50434686Y-116582000D01*
X50180686Y-116201000D01*
X50434686Y-115947000D01*
X50688686Y-116328000D01*
G36*
X50688686Y-116328000D02*
G01*
X50434686Y-116582000D01*
X50180686Y-116201000D01*
X50434686Y-115947000D01*
X50688686Y-116328000D01*
G37*
X51069686Y-115947000D02*
X50815686Y-116201000D01*
X50561686Y-115820000D01*
X50815686Y-115566000D01*
X51069686Y-115947000D01*
G36*
X51069686Y-115947000D02*
G01*
X50815686Y-116201000D01*
X50561686Y-115820000D01*
X50815686Y-115566000D01*
X51069686Y-115947000D01*
G37*
X51450686Y-116455000D02*
X51196686Y-116709000D01*
X50942686Y-116328000D01*
X51196686Y-116074000D01*
X51450686Y-116455000D01*
G36*
X51450686Y-116455000D02*
G01*
X51196686Y-116709000D01*
X50942686Y-116328000D01*
X51196686Y-116074000D01*
X51450686Y-116455000D01*
G37*
X51831686Y-116074000D02*
X51577686Y-116328000D01*
X51323686Y-115947000D01*
X51577686Y-115693000D01*
X51831686Y-116074000D01*
G36*
X51831686Y-116074000D02*
G01*
X51577686Y-116328000D01*
X51323686Y-115947000D01*
X51577686Y-115693000D01*
X51831686Y-116074000D01*
G37*
X52212686Y-115693000D02*
X51958686Y-115947000D01*
X51704686Y-115566000D01*
X51958686Y-115312000D01*
X52212686Y-115693000D01*
G36*
X52212686Y-115693000D02*
G01*
X51958686Y-115947000D01*
X51704686Y-115566000D01*
X51958686Y-115312000D01*
X52212686Y-115693000D01*
G37*
D15*
%TO.C,BOARDSEL_CMP1*%
X144685686Y-112695000D02*
X151285686Y-112695000D01*
X144685686Y-114015000D02*
X144685686Y-112695000D01*
X144685686Y-132385000D02*
X144685686Y-131065000D01*
X151285686Y-112695000D02*
X151285686Y-114015000D01*
X151285686Y-131065000D02*
X151285686Y-132385000D01*
X151285686Y-132385000D02*
X144685686Y-132385000D01*
D14*
X153140686Y-130160000D02*
G75*
G02*
X152940686Y-130160000I-100000J0D01*
G01*
X152940686Y-130160000D02*
G75*
G02*
X153140686Y-130160000I100000J0D01*
G01*
D13*
%TO.C,JP56*%
X44115686Y-64100000D02*
X42115686Y-64100000D01*
X44115686Y-61300000D02*
X44115686Y-64100000D01*
X42115686Y-64100000D02*
X42115686Y-61300000D01*
X42115686Y-61300000D02*
X44115686Y-61300000D01*
%TO.C,JP62*%
X59115686Y-64075000D02*
X57115686Y-64075000D01*
X59115686Y-61275000D02*
X59115686Y-64075000D01*
X57115686Y-64075000D02*
X57115686Y-61275000D01*
X57115686Y-61275000D02*
X59115686Y-61275000D01*
%TD*%
M02*
