%TF.GenerationSoftware,KiCad,Pcbnew,8.0.3-1.fc40*%
%TF.CreationDate,2024-06-20T20:23:50-04:00*%
%TF.ProjectId,sampler_split_sensor,73616d70-6c65-4725-9f73-706c69745f73,rev?*%
%TF.SameCoordinates,Original*%
%TF.FileFunction,Copper,L3,Inr*%
%TF.FilePolarity,Positive*%
%FSLAX46Y46*%
G04 Gerber Fmt 4.6, Leading zero omitted, Abs format (unit mm)*
G04 Created by KiCad (PCBNEW 8.0.3-1.fc40) date 2024-06-20 20:23:50*
%MOMM*%
%LPD*%
G01*
G04 APERTURE LIST*
%TA.AperFunction,ComponentPad*%
%ADD10R,1.500000X1.500000*%
%TD*%
%TA.AperFunction,ComponentPad*%
%ADD11C,1.500000*%
%TD*%
%TA.AperFunction,ComponentPad*%
%ADD12C,1.170000*%
%TD*%
%TA.AperFunction,ComponentPad*%
%ADD13R,1.170000X1.170000*%
%TD*%
%TA.AperFunction,ComponentPad*%
%ADD14R,1.370000X1.370000*%
%TD*%
%TA.AperFunction,ComponentPad*%
%ADD15C,1.370000*%
%TD*%
%TA.AperFunction,ComponentPad*%
%ADD16R,1.600000X1.600000*%
%TD*%
%TA.AperFunction,ComponentPad*%
%ADD17C,1.600000*%
%TD*%
%TA.AperFunction,ComponentPad*%
%ADD18R,1.300000X1.300000*%
%TD*%
%TA.AperFunction,ComponentPad*%
%ADD19C,1.300000*%
%TD*%
%TA.AperFunction,ViaPad*%
%ADD20C,0.600000*%
%TD*%
%TA.AperFunction,Conductor*%
%ADD21C,0.200000*%
%TD*%
%TA.AperFunction,Conductor*%
%ADD22C,0.800000*%
%TD*%
G04 APERTURE END LIST*
D10*
%TO.N,Net-(BOARDSEL_CMP1-VCC)*%
%TO.C,U4*%
X43960000Y-35860000D03*
D11*
%TO.N,GND*%
X46500000Y-35860000D03*
%TO.N,Net-(J4-Pin_30)*%
X49040000Y-35860000D03*
%TD*%
D10*
%TO.N,Net-(BOARDSEL_CMP1-VCC)*%
%TO.C,U14*%
X183960000Y-35860000D03*
D11*
%TO.N,GND*%
X186500000Y-35860000D03*
%TO.N,Net-(J4-Pin_20)*%
X189040000Y-35860000D03*
%TD*%
D10*
%TO.N,Net-(BOARDSEL_CMP1-VCC)*%
%TO.C,U2*%
X15960000Y-35860000D03*
D11*
%TO.N,GND*%
X18500000Y-35860000D03*
%TO.N,Net-(J4-Pin_32)*%
X21040000Y-35860000D03*
%TD*%
D10*
%TO.N,Net-(BOARDSEL_CMP1-VCC)*%
%TO.C,U5*%
X57960000Y-35860000D03*
D11*
%TO.N,GND*%
X60500000Y-35860000D03*
%TO.N,Net-(J4-Pin_29)*%
X63040000Y-35860000D03*
%TD*%
D10*
%TO.N,Net-(BOARDSEL_CMP1-VCC)*%
%TO.C,U3*%
X29960000Y-35860000D03*
D11*
%TO.N,GND*%
X32500000Y-35860000D03*
%TO.N,Net-(J4-Pin_31)*%
X35040000Y-35860000D03*
%TD*%
D10*
%TO.N,Net-(BOARDSEL_CMP1-VCC)*%
%TO.C,U12*%
X155960000Y-35860000D03*
D11*
%TO.N,GND*%
X158500000Y-35860000D03*
%TO.N,Net-(J4-Pin_22)*%
X161040000Y-35860000D03*
%TD*%
D10*
%TO.N,Net-(BOARDSEL_CMP1-VCC)*%
%TO.C,U18*%
X239960000Y-35860000D03*
D11*
%TO.N,GND*%
X242500000Y-35860000D03*
%TO.N,Net-(J4-Pin_16)*%
X245040000Y-35860000D03*
%TD*%
D10*
%TO.N,Net-(BOARDSEL_CMP1-VCC)*%
%TO.C,U17*%
X225960000Y-35860000D03*
D11*
%TO.N,GND*%
X228500000Y-35860000D03*
%TO.N,Net-(J4-Pin_17)*%
X231040000Y-35860000D03*
%TD*%
D10*
%TO.N,Net-(BOARDSEL_CMP1-VCC)*%
%TO.C,U6*%
X71960000Y-35860000D03*
D11*
%TO.N,GND*%
X74500000Y-35860000D03*
%TO.N,Net-(J4-Pin_28)*%
X77040000Y-35860000D03*
%TD*%
D10*
%TO.N,Net-(BOARDSEL_CMP1-VCC)*%
%TO.C,U8*%
X99960000Y-35860000D03*
D11*
%TO.N,GND*%
X102500000Y-35860000D03*
%TO.N,Net-(J4-Pin_26)*%
X105040000Y-35860000D03*
%TD*%
D10*
%TO.N,Net-(BOARDSEL_CMP1-VCC)*%
%TO.C,U11*%
X141960000Y-35860000D03*
D11*
%TO.N,GND*%
X144500000Y-35860000D03*
%TO.N,Net-(J4-Pin_23)*%
X147040000Y-35860000D03*
%TD*%
D10*
%TO.N,Net-(BOARDSEL_CMP1-VCC)*%
%TO.C,U7*%
X85960000Y-35860000D03*
D11*
%TO.N,GND*%
X88500000Y-35860000D03*
%TO.N,Net-(J4-Pin_27)*%
X91040000Y-35860000D03*
%TD*%
D10*
%TO.N,Net-(BOARDSEL_CMP1-VCC)*%
%TO.C,U10*%
X127960000Y-35860000D03*
D11*
%TO.N,GND*%
X130500000Y-35860000D03*
%TO.N,Net-(J4-Pin_24)*%
X133040000Y-35860000D03*
%TD*%
D10*
%TO.N,Net-(BOARDSEL_CMP1-VCC)*%
%TO.C,U19*%
X253960000Y-35860000D03*
D11*
%TO.N,GND*%
X256500000Y-35860000D03*
%TO.N,Net-(J4-Pin_15)*%
X259040000Y-35860000D03*
%TD*%
D10*
%TO.N,Net-(BOARDSEL_CMP1-VCC)*%
%TO.C,U9*%
X113960000Y-35860000D03*
D11*
%TO.N,GND*%
X116500000Y-35860000D03*
%TO.N,Net-(J4-Pin_25)*%
X119040000Y-35860000D03*
%TD*%
D10*
%TO.N,Net-(BOARDSEL_CMP1-VCC)*%
%TO.C,U15*%
X197960000Y-35860000D03*
D11*
%TO.N,GND*%
X200500000Y-35860000D03*
%TO.N,Net-(J4-Pin_19)*%
X203040000Y-35860000D03*
%TD*%
D10*
%TO.N,Net-(BOARDSEL_CMP1-VCC)*%
%TO.C,U13*%
X169960000Y-35860000D03*
D11*
%TO.N,GND*%
X172500000Y-35860000D03*
%TO.N,Net-(J4-Pin_21)*%
X175040000Y-35860000D03*
%TD*%
D10*
%TO.N,Net-(BOARDSEL_CMP1-VCC)*%
%TO.C,U16*%
X211960000Y-35860000D03*
D11*
%TO.N,GND*%
X214500000Y-35860000D03*
%TO.N,Net-(J4-Pin_18)*%
X217040000Y-35860000D03*
%TD*%
D12*
%TO.N,Net-(BOARDSEL_CMP1-VCC)*%
%TO.C,BOARDSEL_ENABLE1*%
X131955686Y-130120000D03*
%TO.N,unconnected-(BOARDSEL_ENABLE1-2D-Pad13)*%
X131955686Y-127580000D03*
%TO.N,unconnected-(BOARDSEL_ENABLE1-2C-Pad12)*%
X131955686Y-125040000D03*
%TO.N,N/C*%
X131955686Y-122500000D03*
%TO.N,unconnected-(BOARDSEL_ENABLE1-2B-Pad10)*%
X131955686Y-119960000D03*
%TO.N,unconnected-(BOARDSEL_ENABLE1-2A-Pad9)*%
X131955686Y-117420000D03*
%TO.N,unconnected-(BOARDSEL_ENABLE1-2Y-Pad8)*%
X131955686Y-114880000D03*
%TO.N,GND*%
X139895686Y-114880000D03*
%TO.N,Net-(BOARDSEL_ENABLE1-1Y)*%
X139895686Y-117420000D03*
%TO.N,Net-(BOARDSEL_CMP1-4Y)*%
X139895686Y-119960000D03*
%TO.N,Net-(BOARDSEL_CMP1-3Y)*%
X139895686Y-122500000D03*
%TO.N,N/C*%
X139895686Y-125040000D03*
%TO.N,Net-(BOARDSEL_CMP1-2Y)*%
X139895686Y-127580000D03*
D13*
%TO.N,Net-(BOARDSEL_CMP1-1Y)*%
X139895686Y-130120000D03*
%TD*%
D14*
%TO.N,Net-(BOARDSEL_CMP1-1A)*%
%TO.C,J1*%
X22775686Y-81540000D03*
D15*
%TO.N,Net-(JP8-A)*%
X22775686Y-79000000D03*
%TO.N,Net-(BOARDSEL_CMP1-2A)*%
X25315686Y-81540000D03*
%TO.N,Net-(JP9-A)*%
X25315686Y-79000000D03*
%TO.N,Net-(BOARDSEL_CMP1-3A)*%
X27855686Y-81540000D03*
%TO.N,Net-(JP10-A)*%
X27855686Y-79000000D03*
%TO.N,Net-(BOARDSEL_CMP1-4A)*%
X30395686Y-81540000D03*
%TO.N,Net-(JP11-A)*%
X30395686Y-79000000D03*
%TO.N,unconnected-(J1-Pad09)*%
X32935686Y-81540000D03*
%TO.N,Net-(JP12-A)*%
X32935686Y-79000000D03*
%TO.N,unconnected-(J1-Pad11)*%
X35475686Y-81540000D03*
%TO.N,Net-(JP13-A)*%
X35475686Y-79000000D03*
%TO.N,unconnected-(J1-Pad13)*%
X38015686Y-81540000D03*
%TO.N,Net-(JP14-A)*%
X38015686Y-79000000D03*
%TO.N,unconnected-(J1-Pad15)*%
X40555686Y-81540000D03*
%TO.N,Net-(JP15-A)*%
X40555686Y-79000000D03*
%TO.N,Net-(J2-Pin_9)*%
X43095686Y-81540000D03*
%TO.N,Net-(JP16-A)*%
X43095686Y-79000000D03*
%TO.N,unconnected-(J1-Pad19)*%
X45635686Y-81540000D03*
%TO.N,Net-(JP17-A)*%
X45635686Y-79000000D03*
%TO.N,unconnected-(J1-Pad21)*%
X48175686Y-81540000D03*
%TO.N,Net-(JP18-A)*%
X48175686Y-79000000D03*
%TO.N,unconnected-(J1-Pad23)*%
X50715686Y-81540000D03*
%TO.N,Net-(JP19-A)*%
X50715686Y-79000000D03*
%TO.N,unconnected-(J1-Pad25)*%
X53255686Y-81540000D03*
%TO.N,Net-(JP20-A)*%
X53255686Y-79000000D03*
%TO.N,unconnected-(J1-Pad27)*%
X55795686Y-81540000D03*
%TO.N,Net-(JP21-A)*%
X55795686Y-79000000D03*
%TO.N,Net-(BOARDSEL_CMP1-VCC)*%
X58335686Y-81540000D03*
%TO.N,Net-(JP22-A)*%
X58335686Y-79000000D03*
%TO.N,unconnected-(J1-Pad31)*%
X60875686Y-81540000D03*
%TO.N,Net-(JP45-A)*%
X60875686Y-79000000D03*
%TO.N,unconnected-(J1-Pad33)*%
X63415686Y-81540000D03*
%TO.N,Net-(JP46-A)*%
X63415686Y-79000000D03*
%TO.N,unconnected-(J1-Pad35)*%
X65955686Y-81540000D03*
%TO.N,Net-(JP47-A)*%
X65955686Y-79000000D03*
%TO.N,unconnected-(J1-Pad37)*%
X68495686Y-81540000D03*
%TO.N,unconnected-(J1-Pad38)*%
X68495686Y-79000000D03*
%TO.N,unconnected-(J1-Pad39)*%
X71035686Y-81540000D03*
%TO.N,GND*%
X71035686Y-79000000D03*
%TD*%
D16*
%TO.N,unconnected-(U1-GND-Pad1)*%
%TO.C,U1*%
X19805686Y-123620000D03*
D17*
%TO.N,Net-(BOARDSEL_CMP1-1A)*%
X22345686Y-123620000D03*
%TO.N,Net-(BOARDSEL_CMP1-2A)*%
X24885686Y-123620000D03*
%TO.N,Net-(BOARDSEL_CMP1-3A)*%
X27425686Y-123620000D03*
%TO.N,Net-(BOARDSEL_CMP1-4A)*%
X29965686Y-123620000D03*
%TO.N,unconnected-(U1-4_BCLK2-Pad6)*%
X32505686Y-123620000D03*
%TO.N,unconnected-(U1-5_IN2-Pad7)*%
X35045686Y-123620000D03*
%TO.N,unconnected-(U1-6_OUT1D-Pad8)*%
X37585686Y-123620000D03*
%TO.N,unconnected-(U1-7_RX2_OUT1A-Pad9)*%
X40125686Y-123620000D03*
%TO.N,unconnected-(U1-8_TX2_IN1-Pad10)*%
X42665686Y-123620000D03*
%TO.N,unconnected-(U1-9_OUT1C-Pad11)*%
X45205686Y-123620000D03*
%TO.N,unconnected-(U1-10_CS_MQSR-Pad12)*%
X47745686Y-123620000D03*
%TO.N,unconnected-(U1-11_MOSI_CTX1-Pad13)*%
X50285686Y-123620000D03*
%TO.N,unconnected-(U1-12_MISO_MQSL-Pad14)*%
X52825686Y-123620000D03*
%TO.N,unconnected-(U1-3V3-Pad15)*%
X55365686Y-123620000D03*
%TO.N,Net-(JP8-A)*%
X57905686Y-123620000D03*
%TO.N,Net-(JP9-A)*%
X60445686Y-123620000D03*
%TO.N,Net-(JP10-A)*%
X62985686Y-123620000D03*
%TO.N,Net-(JP11-A)*%
X65525686Y-123620000D03*
%TO.N,unconnected-(U1-28_RX7-Pad20)*%
X68065686Y-123620000D03*
%TO.N,unconnected-(U1-29_TX7-Pad21)*%
X70605686Y-123620000D03*
%TO.N,unconnected-(U1-30_CRX3-Pad22)*%
X73145686Y-123620000D03*
%TO.N,unconnected-(U1-31_CTX3-Pad23)*%
X75685686Y-123620000D03*
%TO.N,unconnected-(U1-32_OUT1B-Pad24)*%
X78225686Y-123620000D03*
%TO.N,unconnected-(U1-33_MCLK2-Pad25)*%
X78225686Y-108380000D03*
%TO.N,unconnected-(U1-34_RX8-Pad26)*%
X75685686Y-108380000D03*
%TO.N,unconnected-(U1-35_TX8-Pad27)*%
X73145686Y-108380000D03*
%TO.N,unconnected-(U1-36_CS-Pad28)*%
X70605686Y-108380000D03*
%TO.N,unconnected-(U1-37_CS-Pad29)*%
X68065686Y-108380000D03*
%TO.N,Net-(JP15-A)*%
X65525686Y-108380000D03*
%TO.N,Net-(JP14-A)*%
X62985686Y-108380000D03*
%TO.N,Net-(JP13-A)*%
X60445686Y-108380000D03*
%TO.N,Net-(JP12-A)*%
X57905686Y-108380000D03*
%TO.N,unconnected-(U1-GND-Pad34)*%
X55365686Y-108380000D03*
%TO.N,unconnected-(U1-13_SCK_LED-Pad35)*%
X52825686Y-108380000D03*
%TO.N,Net-(JP47-A)*%
X50285686Y-108380000D03*
%TO.N,Net-(JP46-A)*%
X47745686Y-108380000D03*
%TO.N,Net-(JP45-A)*%
X45205686Y-108380000D03*
%TO.N,Net-(JP22-A)*%
X42665686Y-108380000D03*
%TO.N,Net-(JP21-A)*%
X40125686Y-108380000D03*
%TO.N,Net-(JP20-A)*%
X37585686Y-108380000D03*
%TO.N,Net-(JP19-A)*%
X35045686Y-108380000D03*
%TO.N,Net-(JP18-A)*%
X32505686Y-108380000D03*
%TO.N,Net-(JP17-A)*%
X29965686Y-108380000D03*
%TO.N,Net-(JP16-A)*%
X27425686Y-108380000D03*
%TO.N,Net-(BOARDSEL_CMP1-VCC)*%
X24885686Y-108380000D03*
%TO.N,GND*%
X22345686Y-108380000D03*
%TO.N,Net-(JP23-B)*%
X19805686Y-108380000D03*
%TO.N,unconnected-(U1-VUSB-Pad49)*%
X22345686Y-110920000D03*
%TO.N,unconnected-(U1-VBAT-Pad50)*%
X65525686Y-121080000D03*
%TO.N,unconnected-(U1-3V3-Pad51)*%
X65525686Y-118540000D03*
%TO.N,unconnected-(U1-GND-Pad52)*%
X65525686Y-116000000D03*
%TO.N,unconnected-(U1-PROGRAM-Pad53)*%
X65525686Y-113460000D03*
%TO.N,unconnected-(U1-ON_OFF-Pad54)*%
X65525686Y-110920000D03*
D16*
%TO.N,unconnected-(U1-5V-Pad55)*%
X26104886Y-120569200D03*
D17*
%TO.N,unconnected-(U1-D--Pad56)*%
X28644886Y-120569200D03*
%TO.N,unconnected-(U1-D+-Pad57)*%
X31184886Y-120569200D03*
%TO.N,unconnected-(U1-GND-Pad58)*%
X33724886Y-120569200D03*
%TO.N,unconnected-(U1-GND-Pad59)*%
X36264886Y-120569200D03*
D18*
%TO.N,unconnected-(U1-R+-Pad60)*%
X32775686Y-110818400D03*
D19*
%TO.N,unconnected-(U1-LED-Pad61)*%
X32775686Y-112818400D03*
%TO.N,unconnected-(U1-T--Pad62)*%
X32775686Y-114818400D03*
%TO.N,unconnected-(U1-T+-Pad63)*%
X34775686Y-114818400D03*
%TO.N,unconnected-(U1-GND-Pad64)*%
X34775686Y-112818400D03*
%TO.N,unconnected-(U1-R--Pad65)*%
X34775686Y-110818400D03*
%TO.N,unconnected-(U1-D--Pad66)*%
X20535686Y-114730000D03*
%TO.N,unconnected-(U1-D+-Pad67)*%
X20535686Y-117270000D03*
%TD*%
D13*
%TO.N,Net-(BOARDSEL_CMP1-1A)*%
%TO.C,BOARDSEL_CMP1*%
X151955686Y-130160000D03*
D12*
%TO.N,Net-(BOARDSEL_CMP1-1B)*%
X151955686Y-127620000D03*
%TO.N,Net-(BOARDSEL_CMP1-1Y)*%
X151955686Y-125080000D03*
%TO.N,Net-(BOARDSEL_CMP1-2Y)*%
X151955686Y-122540000D03*
%TO.N,Net-(BOARDSEL_CMP1-2A)*%
X151955686Y-120000000D03*
%TO.N,Net-(BOARDSEL_CMP1-2B)*%
X151955686Y-117460000D03*
%TO.N,GND*%
X151955686Y-114920000D03*
%TO.N,Net-(BOARDSEL_CMP1-3A)*%
X144015686Y-114920000D03*
%TO.N,Net-(BOARDSEL_CMP1-3B)*%
X144015686Y-117460000D03*
%TO.N,Net-(BOARDSEL_CMP1-3Y)*%
X144015686Y-120000000D03*
%TO.N,Net-(BOARDSEL_CMP1-4Y)*%
X144015686Y-122540000D03*
%TO.N,Net-(BOARDSEL_CMP1-4A)*%
X144015686Y-125080000D03*
%TO.N,Net-(BOARDSEL_CMP1-4B)*%
X144015686Y-127620000D03*
%TO.N,Net-(BOARDSEL_CMP1-VCC)*%
X144015686Y-130160000D03*
%TD*%
D20*
%TO.N,GND*%
X87400000Y-44200000D03*
%TO.N,Net-(J4-Pin_20)*%
X54000000Y-42900000D03*
%TO.N,Net-(J4-Pin_19)*%
X55000000Y-43900000D03*
%TO.N,Net-(J4-Pin_18)*%
X56200000Y-44900000D03*
%TO.N,Net-(J4-Pin_17)*%
X57100000Y-45900000D03*
%TO.N,Net-(J4-Pin_16)*%
X58100000Y-46900000D03*
%TO.N,Net-(J4-Pin_15)*%
X58978499Y-47878499D03*
X109100000Y-44200000D03*
%TO.N,Net-(J4-Pin_16)*%
X106300000Y-44200000D03*
%TO.N,Net-(J4-Pin_17)*%
X103500000Y-44200000D03*
%TO.N,Net-(J4-Pin_18)*%
X100700000Y-44200000D03*
%TO.N,Net-(J4-Pin_19)*%
X97600000Y-44200000D03*
%TO.N,Net-(J4-Pin_20)*%
X94500000Y-44200000D03*
%TO.N,GND*%
X85800000Y-48000000D03*
%TO.N,Net-(BOARDSEL_CMP1-VCC)*%
X81800000Y-48000000D03*
X79800000Y-48000000D03*
%TO.N,GND*%
X75800000Y-48000000D03*
%TO.N,Net-(BOARDSEL_CMP1-VCC)*%
X81800000Y-60200000D03*
X79800000Y-62200000D03*
%TO.N,GND*%
X84343001Y-57600000D03*
X77257001Y-57600000D03*
%TO.N,Net-(BOARDSEL_CMP1-3B)*%
X124715686Y-121900000D03*
%TO.N,Net-(BOARDSEL_CMP1-4A)*%
X163015686Y-70100000D03*
%TO.N,Net-(BOARDSEL_CMP1-2A)*%
X163015686Y-74100000D03*
%TO.N,Net-(BOARDSEL_CMP1-4B)*%
X124715686Y-117700000D03*
%TO.N,Net-(BOARDSEL_CMP1-1A)*%
X163015686Y-76100000D03*
%TO.N,Net-(BOARDSEL_CMP1-1B)*%
X124715686Y-131100000D03*
%TO.N,Net-(BOARDSEL_CMP1-2B)*%
X124715686Y-126300000D03*
%TO.N,GND*%
X19295538Y-70128382D03*
X108635686Y-101150000D03*
X108635686Y-88650000D03*
X108635686Y-125650000D03*
X161915686Y-80100000D03*
X108735686Y-77050000D03*
X121015686Y-124500000D03*
X108635686Y-113550000D03*
X121015686Y-116000000D03*
X121015686Y-129500000D03*
X121015686Y-120000000D03*
X21908921Y-72741765D03*
%TO.N,Net-(BOARDSEL_CMP1-VCC)*%
X21936596Y-73541288D03*
X109835686Y-124050000D03*
X163015686Y-92100000D03*
X128315686Y-116000000D03*
X109935686Y-75550000D03*
X128315686Y-119900000D03*
X128315686Y-129500000D03*
X109935686Y-86950000D03*
X128315686Y-124500000D03*
X109935686Y-111950000D03*
X18335686Y-78715000D03*
X109935686Y-99350000D03*
%TO.N,Net-(BOARDSEL_CMP1-3A)*%
X163015686Y-72100000D03*
%TO.N,Net-(BOARDSEL_ENABLE1-1Y)*%
X103915686Y-73800000D03*
X103915686Y-122400000D03*
X113715686Y-72100000D03*
X103815686Y-90200000D03*
X103915686Y-115200000D03*
X103915686Y-97800000D03*
X103915686Y-110300000D03*
X103815686Y-85200000D03*
X103915686Y-102700000D03*
X103915686Y-127300000D03*
X103915686Y-78700000D03*
%TO.N,Net-(DG45_4-S_1)*%
X77815686Y-98800000D03*
X164715686Y-100100000D03*
X107415686Y-80200000D03*
%TO.N,Net-(JP46-A)*%
X64415686Y-85400000D03*
%TO.N,Net-(DG45_4-D_4)*%
X78415686Y-98200000D03*
%TO.N,Net-(JP47-A)*%
X66915686Y-85400000D03*
%TO.N,Net-(DG45_4-D_4)*%
X164715686Y-98100000D03*
X112515686Y-80200000D03*
%TO.N,Net-(DG452_0-D_3)*%
X68315686Y-104000000D03*
%TO.N,Net-(JP11-A)*%
X31415686Y-85100000D03*
%TO.N,Net-(DG452_0-D_3)*%
X112415686Y-121000000D03*
X164715686Y-126000000D03*
%TO.N,Net-(DG452_0-D_4)*%
X66820008Y-104800000D03*
X112415686Y-128800000D03*
%TO.N,Net-(JP9-A)*%
X26315686Y-85100000D03*
%TO.N,Net-(DG452_0-D_4)*%
X164715686Y-130100000D03*
%TO.N,Net-(JP8-A)*%
X24315686Y-85100000D03*
%TO.N,Net-(DG452_0-S_1)*%
X164715686Y-132100000D03*
X107415686Y-128700000D03*
X66115686Y-105200000D03*
%TO.N,Net-(JP10-A)*%
X28815686Y-85100000D03*
%TO.N,Net-(DG452_0-S_2)*%
X107415686Y-121000000D03*
X164715686Y-128000000D03*
X67615683Y-104400000D03*
%TO.N,Net-(DG452_1-D_4)*%
X69746539Y-103200000D03*
X112415686Y-116800000D03*
%TO.N,Net-(JP13-A)*%
X36515686Y-85200000D03*
%TO.N,Net-(DG452_1-D_4)*%
X164715686Y-121900000D03*
%TO.N,Net-(DG452_1-S_1)*%
X107415686Y-116800000D03*
X164715686Y-124000000D03*
%TO.N,Net-(JP12-A)*%
X33915686Y-85100000D03*
%TO.N,Net-(DG452_1-S_1)*%
X69046536Y-103600000D03*
%TO.N,Net-(DG452_1-S_2)*%
X164715686Y-120000000D03*
%TO.N,Net-(JP14-A)*%
X39015686Y-85200000D03*
%TO.N,Net-(DG452_1-S_2)*%
X70545925Y-102847000D03*
X107415686Y-108800000D03*
%TO.N,Net-(DG452_1-D_3)*%
X71209396Y-102400000D03*
X112515686Y-108800000D03*
%TO.N,Net-(JP15-A)*%
X41615686Y-85200000D03*
%TO.N,Net-(DG452_1-D_3)*%
X164715686Y-118000000D03*
%TO.N,Net-(DG452_2-D_3)*%
X112515686Y-99300000D03*
X74264542Y-100800000D03*
%TO.N,Net-(JP19-A)*%
X51715686Y-85300000D03*
%TO.N,Net-(DG452_2-D_3)*%
X164715686Y-110100000D03*
%TO.N,Net-(DG452_2-S_2)*%
X164715686Y-112100000D03*
X107415686Y-99300000D03*
X73464539Y-101200000D03*
%TO.N,Net-(JP18-A)*%
X49215686Y-85300000D03*
%TO.N,Net-(JP17-A)*%
X46615686Y-85300000D03*
%TO.N,Net-(DG452_2-D_4)*%
X72726244Y-101600000D03*
X164715686Y-114200000D03*
X112515686Y-104200000D03*
%TO.N,Net-(JP16-A)*%
X44115686Y-85300000D03*
%TO.N,Net-(DG452_2-S_1)*%
X164715686Y-116100000D03*
X71981355Y-102000000D03*
X107415686Y-104100000D03*
%TO.N,Net-(DG452_3-S_2)*%
X76485185Y-99703263D03*
%TO.N,Net-(JP22-A)*%
X59315686Y-85300000D03*
%TO.N,Net-(DG452_3-S_2)*%
X107315686Y-86800000D03*
X164715686Y-104000000D03*
%TO.N,Net-(DG452_3-D_3)*%
X112415686Y-86700000D03*
X77152964Y-99262722D03*
X164715686Y-102000000D03*
%TO.N,Net-(JP45-A)*%
X61915686Y-85400000D03*
%TO.N,Net-(DG452_3-D_4)*%
X112415686Y-91600000D03*
X164715686Y-106100000D03*
X75700337Y-100000000D03*
%TO.N,Net-(JP21-A)*%
X56815686Y-85300000D03*
%TO.N,Net-(DG452_3-S_1)*%
X107315686Y-91600000D03*
X164715686Y-108100000D03*
%TO.N,Net-(JP20-A)*%
X54215686Y-85300000D03*
%TO.N,Net-(DG452_3-S_1)*%
X74967996Y-100400000D03*
%TO.N,Net-(J4-Pin_17)*%
X60615686Y-60900000D03*
%TO.N,Net-(J4-Pin_18)*%
X58115686Y-60900000D03*
%TO.N,Net-(J4-Pin_19)*%
X55615686Y-60900000D03*
%TO.N,Net-(J4-Pin_20)*%
X53115686Y-60900000D03*
%TO.N,Net-(J4-Pin_21)*%
X50615686Y-60900000D03*
%TO.N,Net-(J4-Pin_22)*%
X48115686Y-60900000D03*
%TO.N,Net-(J4-Pin_23)*%
X45615686Y-60900000D03*
%TO.N,Net-(J4-Pin_24)*%
X43115686Y-60900000D03*
%TO.N,Net-(J4-Pin_25)*%
X40615686Y-60900000D03*
%TO.N,Net-(J4-Pin_26)*%
X38115686Y-60900000D03*
%TO.N,Net-(J4-Pin_27)*%
X35615686Y-60900000D03*
%TO.N,Net-(J4-Pin_28)*%
X33115686Y-60900000D03*
%TO.N,Net-(J4-Pin_29)*%
X30615686Y-60900000D03*
%TO.N,Net-(JP23-B)*%
X30835686Y-116215000D03*
%TO.N,Net-(J4-Pin_30)*%
X28115686Y-60900000D03*
%TO.N,Net-(J4-Pin_31)*%
X25615686Y-60900000D03*
%TO.N,Net-(J4-Pin_32)*%
X24300000Y-61100000D03*
%TO.N,Net-(J2-Pin_9)*%
X163015686Y-86100000D03*
X18535686Y-73015000D03*
%TO.N,Net-(J4-Pin_16)*%
X63115686Y-60900000D03*
%TO.N,Net-(J4-Pin_15)*%
X65615686Y-60900000D03*
%TD*%
D21*
%TO.N,Net-(J4-Pin_20)*%
X94500000Y-44200000D02*
X94500000Y-44400000D01*
X94500000Y-44400000D02*
X94000000Y-44900000D01*
X94000000Y-44900000D02*
X58100000Y-44900000D01*
X58100000Y-44900000D02*
X56500000Y-43300000D01*
X56500000Y-43300000D02*
X54400000Y-43300000D01*
X54400000Y-43300000D02*
X54000000Y-42900000D01*
%TO.N,Net-(J4-Pin_15)*%
X109100000Y-44200000D02*
X106200000Y-47100000D01*
X106200000Y-47100000D02*
X59756998Y-47100000D01*
X59756998Y-47100000D02*
X58978499Y-47878499D01*
%TO.N,Net-(J4-Pin_16)*%
X106300000Y-44200000D02*
X103800000Y-46700000D01*
X103800000Y-46700000D02*
X58300000Y-46700000D01*
X58300000Y-46700000D02*
X58100000Y-46900000D01*
%TO.N,Net-(J4-Pin_19)*%
X97600000Y-44200000D02*
X96500000Y-45300000D01*
X96500000Y-45300000D02*
X57914215Y-45300000D01*
X57914215Y-45300000D02*
X56514215Y-43900000D01*
X56514215Y-43900000D02*
X55000000Y-43900000D01*
%TO.N,Net-(J4-Pin_18)*%
X100700000Y-44200000D02*
X99100000Y-45800000D01*
X99100000Y-45800000D02*
X57848529Y-45800000D01*
X56948529Y-44900000D02*
X56200000Y-44900000D01*
X57848529Y-45800000D02*
X56948529Y-44900000D01*
%TO.N,Net-(J4-Pin_17)*%
X103500000Y-44200000D02*
X101400000Y-46300000D01*
X101400000Y-46300000D02*
X57500000Y-46300000D01*
X57500000Y-46300000D02*
X57100000Y-45900000D01*
D22*
%TO.N,Net-(BOARDSEL_CMP1-VCC)*%
X79800000Y-62200000D02*
X79800000Y-75500000D01*
X71800000Y-83500000D02*
X60295686Y-83500000D01*
X60295686Y-83500000D02*
X58335686Y-81540000D01*
X79800000Y-75500000D02*
X71800000Y-83500000D01*
X81800000Y-60200000D02*
X79800000Y-62200000D01*
D21*
%TO.N,Net-(BOARDSEL_CMP1-3B)*%
X129420686Y-113995000D02*
X130515686Y-112900000D01*
X121320686Y-113995000D02*
X129420686Y-113995000D01*
X142115686Y-115560000D02*
X144015686Y-117460000D01*
X130515686Y-112900000D02*
X141315686Y-112900000D01*
X120015686Y-115300000D02*
X121320686Y-113995000D01*
X142115686Y-113700000D02*
X142115686Y-115560000D01*
X141315686Y-112900000D02*
X142115686Y-113700000D01*
X121715686Y-121900000D02*
X120015686Y-120200000D01*
X124715686Y-121900000D02*
X121715686Y-121900000D01*
X120015686Y-120200000D02*
X120015686Y-115300000D01*
%TO.N,Net-(BOARDSEL_CMP1-2A)*%
X152915686Y-120000000D02*
X151955686Y-120000000D01*
X153390686Y-129275000D02*
X153415686Y-129300000D01*
X24885686Y-130370000D02*
X26915686Y-132400000D01*
X26915686Y-132400000D02*
X147945686Y-132400000D01*
X151070686Y-129275000D02*
X153390686Y-129275000D01*
X154115686Y-121200000D02*
X152915686Y-120000000D01*
X154115686Y-128600000D02*
X154115686Y-121200000D01*
X153415686Y-129300000D02*
X154115686Y-128600000D01*
X147945686Y-132400000D02*
X151070686Y-129275000D01*
X24885686Y-123620000D02*
X24885686Y-130370000D01*
%TO.N,Net-(BOARDSEL_CMP1-4B)*%
X124715686Y-117700000D02*
X130947266Y-117700000D01*
X130947266Y-117700000D02*
X139647266Y-126400000D01*
X142795686Y-126400000D02*
X144015686Y-127620000D01*
X139647266Y-126400000D02*
X142795686Y-126400000D01*
%TO.N,Net-(BOARDSEL_CMP1-1A)*%
X22345686Y-123620000D02*
X22345686Y-130930000D01*
X22345686Y-130930000D02*
X24215686Y-132800000D01*
X24215686Y-132800000D02*
X149315686Y-132800000D01*
X149315686Y-132800000D02*
X151955686Y-130160000D01*
%TO.N,Net-(BOARDSEL_CMP1-1B)*%
X150575686Y-129000000D02*
X134515686Y-129000000D01*
X132510686Y-131005000D02*
X124810686Y-131005000D01*
X134515686Y-129000000D02*
X132510686Y-131005000D01*
X151955686Y-127620000D02*
X150575686Y-129000000D01*
X124810686Y-131005000D02*
X124715686Y-131100000D01*
%TO.N,Net-(BOARDSEL_CMP1-2B)*%
X124715686Y-126300000D02*
X120215686Y-126300000D01*
X120215686Y-126300000D02*
X118715686Y-124800000D01*
X118715686Y-124800000D02*
X118715686Y-116034314D01*
X118715686Y-116034314D02*
X122550000Y-112200000D01*
X122550000Y-112200000D02*
X146695686Y-112200000D01*
X146695686Y-112200000D02*
X151955686Y-117460000D01*
%TO.N,Net-(BOARDSEL_ENABLE1-1Y)*%
X103915686Y-72400000D02*
X105115686Y-71200000D01*
X112815686Y-71200000D02*
X113715686Y-72100000D01*
X105115686Y-71200000D02*
X112815686Y-71200000D01*
X103915686Y-73800000D02*
X103915686Y-72400000D01*
X103915686Y-127300000D02*
X103915686Y-73800000D01*
%TO.N,Net-(DG45_4-S_1)*%
X107415686Y-80200000D02*
X114315686Y-87100000D01*
X150750000Y-87100000D02*
X163750000Y-100100000D01*
X114315686Y-87100000D02*
X150750000Y-87100000D01*
X163750000Y-100100000D02*
X164715686Y-100100000D01*
%TO.N,Net-(DG45_4-D_4)*%
X119015686Y-86700000D02*
X150915686Y-86700000D01*
X150915686Y-86700000D02*
X162315686Y-98100000D01*
X162315686Y-98100000D02*
X164715686Y-98100000D01*
X112515686Y-80200000D02*
X119015686Y-86700000D01*
%TO.N,Net-(DG452_0-D_3)*%
X159515686Y-103219604D02*
X159515686Y-103871075D01*
%TO.N,Net-(JP11-A)*%
X49185686Y-106838628D02*
X49185686Y-109070000D01*
X62615686Y-122500000D02*
X64405686Y-122500000D01*
%TO.N,Net-(DG452_0-D_3)*%
X162515686Y-115676959D02*
X162515686Y-119779901D01*
X117215686Y-106645587D02*
X117215686Y-93462744D01*
X159515686Y-103871075D02*
X160115686Y-104471075D01*
X160115686Y-113276959D02*
X162515686Y-115676959D01*
X113415686Y-110445587D02*
X117215686Y-106645587D01*
X164715686Y-124848529D02*
X164715686Y-126000000D01*
%TO.N,Net-(JP11-A)*%
X64405686Y-122500000D02*
X65525686Y-123620000D01*
%TO.N,Net-(DG452_0-D_3)*%
X113415686Y-120000000D02*
X113415686Y-110445587D01*
%TO.N,Net-(JP11-A)*%
X49185686Y-109070000D02*
X62615686Y-122500000D01*
%TO.N,Net-(DG452_0-D_3)*%
X118378430Y-92300000D02*
X148596082Y-92300000D01*
X163715686Y-123848529D02*
X164715686Y-124848529D01*
X112415686Y-121000000D02*
X113415686Y-120000000D01*
%TO.N,Net-(JP11-A)*%
X31415686Y-89068628D02*
X49185686Y-106838628D01*
%TO.N,Net-(DG452_0-D_3)*%
X148596082Y-92300000D02*
X159515686Y-103219604D01*
X117215686Y-93462744D02*
X118378430Y-92300000D01*
X160115686Y-104471075D02*
X160115686Y-113276959D01*
X163715686Y-120979901D02*
X163715686Y-123848529D01*
%TO.N,Net-(JP11-A)*%
X31415686Y-85100000D02*
X31415686Y-89068628D01*
%TO.N,Net-(DG452_0-D_3)*%
X162515686Y-119779901D02*
X163715686Y-120979901D01*
%TO.N,Net-(DG452_0-D_4)*%
X162915686Y-121311273D02*
X162915686Y-127048529D01*
%TO.N,Net-(JP9-A)*%
X26315686Y-85100000D02*
X41815686Y-100600000D01*
X59325686Y-122500000D02*
X60445686Y-123620000D01*
X43765686Y-107150000D02*
X43765686Y-108550000D01*
%TO.N,Net-(DG452_0-D_4)*%
X159315686Y-113608331D02*
X161715686Y-116008331D01*
X159315686Y-104802447D02*
X159315686Y-113608331D01*
X158715686Y-103550976D02*
X158715686Y-104202447D01*
%TO.N,Net-(JP9-A)*%
X57715686Y-122500000D02*
X59325686Y-122500000D01*
%TO.N,Net-(DG452_0-D_4)*%
X158715686Y-104202447D02*
X159315686Y-104802447D01*
X162915686Y-127048529D02*
X164715686Y-128848529D01*
X161715686Y-116008331D02*
X161715686Y-120111273D01*
X114215686Y-110776959D02*
X118015686Y-106976959D01*
X118709802Y-93100000D02*
X148264710Y-93100000D01*
X118015686Y-106976959D02*
X118015686Y-93794116D01*
%TO.N,Net-(JP9-A)*%
X43765686Y-108550000D02*
X57715686Y-122500000D01*
%TO.N,Net-(DG452_0-D_4)*%
X114215686Y-127000000D02*
X114215686Y-110776959D01*
%TO.N,Net-(JP9-A)*%
X41815686Y-100600000D02*
X41815686Y-105200000D01*
%TO.N,Net-(DG452_0-D_4)*%
X118015686Y-93794116D02*
X118709802Y-93100000D01*
X148264710Y-93100000D02*
X158715686Y-103550976D01*
X161715686Y-120111273D02*
X162915686Y-121311273D01*
X112415686Y-128800000D02*
X114215686Y-127000000D01*
%TO.N,Net-(JP9-A)*%
X41815686Y-105200000D02*
X43765686Y-107150000D01*
%TO.N,Net-(DG452_0-D_4)*%
X164715686Y-128848529D02*
X164715686Y-130100000D01*
%TO.N,Net-(DG452_0-S_1)*%
X162515686Y-127214214D02*
X164101472Y-128800000D01*
X158315686Y-104368133D02*
X158915686Y-104968133D01*
%TO.N,Net-(JP8-A)*%
X55235686Y-122520000D02*
X56805686Y-122520000D01*
X41225686Y-102010000D02*
X41225686Y-108510000D01*
%TO.N,Net-(DG452_0-S_1)*%
X158315686Y-103716662D02*
X158315686Y-104368133D01*
%TO.N,Net-(JP8-A)*%
X41225686Y-108510000D02*
X55235686Y-122520000D01*
%TO.N,Net-(DG452_0-S_1)*%
X112664215Y-129400000D02*
X114615686Y-127448529D01*
X164101472Y-131485786D02*
X164715686Y-132100000D01*
%TO.N,Net-(JP8-A)*%
X24315686Y-85100000D02*
X41225686Y-102010000D01*
%TO.N,Net-(DG452_0-S_1)*%
X164101472Y-128800000D02*
X164101472Y-131485786D01*
X108115686Y-129400000D02*
X112664215Y-129400000D01*
X114615686Y-110942645D02*
X118415686Y-107142645D01*
%TO.N,Net-(JP8-A)*%
X56805686Y-122520000D02*
X57905686Y-123620000D01*
%TO.N,Net-(DG452_0-S_1)*%
X158915686Y-104968133D02*
X158915686Y-113774017D01*
X148099024Y-93500000D02*
X158315686Y-103716662D01*
X114615686Y-127448529D02*
X114615686Y-110942645D01*
X107415686Y-128700000D02*
X108115686Y-129400000D01*
X118875488Y-93500000D02*
X148099024Y-93500000D01*
X118415686Y-93959802D02*
X118875488Y-93500000D01*
X158915686Y-113774017D02*
X161315686Y-116174017D01*
X161315686Y-120276959D02*
X162515686Y-121476959D01*
X118415686Y-107142645D02*
X118415686Y-93959802D01*
X161315686Y-116174017D02*
X161315686Y-120276959D01*
X162515686Y-121476959D02*
X162515686Y-127214214D01*
%TO.N,Net-(JP10-A)*%
X28815686Y-87034314D02*
X42315686Y-100534314D01*
%TO.N,Net-(DG452_0-S_2)*%
X112664215Y-121600000D02*
X113815686Y-120448529D01*
X163315686Y-126600000D02*
X164715686Y-128000000D01*
%TO.N,Net-(JP10-A)*%
X60310051Y-122500000D02*
X61865686Y-122500000D01*
X28815686Y-85100000D02*
X28815686Y-87034314D01*
%TO.N,Net-(DG452_0-S_2)*%
X163315686Y-121145587D02*
X163315686Y-126600000D01*
%TO.N,Net-(JP10-A)*%
X61865686Y-122500000D02*
X62985686Y-123620000D01*
%TO.N,Net-(DG452_0-S_2)*%
X159115686Y-103385290D02*
X159115686Y-104036761D01*
X159715686Y-113442645D02*
X162115686Y-115842645D01*
X159715686Y-104636761D02*
X159715686Y-113442645D01*
X117615686Y-106811273D02*
X117615686Y-93628430D01*
X162115686Y-115842645D02*
X162115686Y-119945587D01*
%TO.N,Net-(JP10-A)*%
X46615686Y-108805635D02*
X60310051Y-122500000D01*
%TO.N,Net-(DG452_0-S_2)*%
X162115686Y-119945587D02*
X163315686Y-121145587D01*
%TO.N,Net-(JP10-A)*%
X43181321Y-104800000D02*
X46615686Y-108234365D01*
%TO.N,Net-(DG452_0-S_2)*%
X107415686Y-121000000D02*
X108015686Y-121600000D01*
X108015686Y-121600000D02*
X112664215Y-121600000D01*
X113815686Y-110611273D02*
X117615686Y-106811273D01*
%TO.N,Net-(JP10-A)*%
X42315686Y-100534314D02*
X42315686Y-104800000D01*
X46615686Y-108234365D02*
X46615686Y-108805635D01*
%TO.N,Net-(DG452_0-S_2)*%
X118544116Y-92700000D02*
X148430396Y-92700000D01*
X113815686Y-120448529D02*
X113815686Y-110611273D01*
X159115686Y-104036761D02*
X159715686Y-104636761D01*
%TO.N,Net-(JP10-A)*%
X42315686Y-104800000D02*
X43181321Y-104800000D01*
%TO.N,Net-(DG452_0-S_2)*%
X117615686Y-93628430D02*
X118544116Y-92700000D01*
X148430396Y-92700000D02*
X159115686Y-103385290D01*
%TO.N,Net-(DG452_1-D_4)*%
X164715686Y-120848529D02*
X164715686Y-121900000D01*
X163315686Y-119448529D02*
X164715686Y-120848529D01*
X112515686Y-116700000D02*
X112515686Y-110214215D01*
X112515686Y-110214215D02*
X116415686Y-106314215D01*
X160915686Y-112945587D02*
X163315686Y-115345587D01*
%TO.N,Net-(JP13-A)*%
X47581372Y-102100000D02*
X54165686Y-102100000D01*
%TO.N,Net-(DG452_1-D_4)*%
X118047058Y-91500000D02*
X148927454Y-91500000D01*
X116415686Y-106314215D02*
X116415686Y-93131372D01*
%TO.N,Net-(JP13-A)*%
X36515686Y-85200000D02*
X36515686Y-91034314D01*
%TO.N,Net-(DG452_1-D_4)*%
X112415686Y-116800000D02*
X112515686Y-116700000D01*
X160315686Y-103539703D02*
X160915686Y-104139703D01*
X160915686Y-104139703D02*
X160915686Y-112945587D01*
X148927454Y-91500000D02*
X160315686Y-102888232D01*
X116415686Y-93131372D02*
X118047058Y-91500000D01*
%TO.N,Net-(JP13-A)*%
X36515686Y-91034314D02*
X47581372Y-102100000D01*
%TO.N,Net-(DG452_1-D_4)*%
X163315686Y-115345587D02*
X163315686Y-119448529D01*
X160315686Y-102888232D02*
X160315686Y-103539703D01*
%TO.N,Net-(JP13-A)*%
X54165686Y-102100000D02*
X60445686Y-108380000D01*
%TO.N,Net-(DG452_1-S_1)*%
X162915686Y-119614215D02*
X164115686Y-120814215D01*
X164115686Y-123400000D02*
X164715686Y-124000000D01*
%TO.N,Net-(JP12-A)*%
X47415686Y-102500000D02*
X52025686Y-102500000D01*
%TO.N,Net-(DG452_1-S_1)*%
X160515686Y-104305389D02*
X160515686Y-113111273D01*
X116815686Y-106479901D02*
X116815686Y-93297058D01*
X113015686Y-117048529D02*
X113015686Y-110279901D01*
X160515686Y-113111273D02*
X162915686Y-115511273D01*
X113015686Y-110279901D02*
X116815686Y-106479901D01*
%TO.N,Net-(JP12-A)*%
X52025686Y-102500000D02*
X57905686Y-108380000D01*
%TO.N,Net-(DG452_1-S_1)*%
X159915686Y-103053918D02*
X159915686Y-103705389D01*
X108015686Y-117400000D02*
X112664215Y-117400000D01*
X107415686Y-116800000D02*
X108015686Y-117400000D01*
X148761768Y-91900000D02*
X159915686Y-103053918D01*
X112664215Y-117400000D02*
X113015686Y-117048529D01*
%TO.N,Net-(JP12-A)*%
X33915686Y-85100000D02*
X33915686Y-89000000D01*
%TO.N,Net-(DG452_1-S_1)*%
X118212744Y-91900000D02*
X148761768Y-91900000D01*
X116815686Y-93297058D02*
X118212744Y-91900000D01*
X162915686Y-115511273D02*
X162915686Y-119614215D01*
%TO.N,Net-(JP12-A)*%
X33915686Y-89000000D02*
X47415686Y-102500000D01*
%TO.N,Net-(DG452_1-S_1)*%
X164115686Y-120814215D02*
X164115686Y-123400000D01*
X159915686Y-103705389D02*
X160515686Y-104305389D01*
%TO.N,Net-(DG452_1-S_2)*%
X163715686Y-119000000D02*
X164715686Y-120000000D01*
X117881372Y-91100000D02*
X149093140Y-91100000D01*
X149093140Y-91100000D02*
X160715686Y-102722546D01*
X160715686Y-103374017D02*
X161315686Y-103974017D01*
X116015686Y-106148529D02*
X116015686Y-92965686D01*
%TO.N,Net-(JP14-A)*%
X39015686Y-85200000D02*
X39015686Y-92968628D01*
%TO.N,Net-(DG452_1-S_2)*%
X112764215Y-109400000D02*
X116015686Y-106148529D01*
X161315686Y-112779901D02*
X163715686Y-115179901D01*
X107415686Y-108800000D02*
X108015686Y-109400000D01*
X163715686Y-115179901D02*
X163715686Y-119000000D01*
%TO.N,Net-(JP14-A)*%
X56305686Y-101700000D02*
X62985686Y-108380000D01*
%TO.N,Net-(DG452_1-S_2)*%
X161315686Y-103974017D02*
X161315686Y-112779901D01*
X108015686Y-109400000D02*
X112764215Y-109400000D01*
%TO.N,Net-(JP14-A)*%
X47747058Y-101700000D02*
X56305686Y-101700000D01*
%TO.N,Net-(DG452_1-S_2)*%
X160715686Y-102722546D02*
X160715686Y-103374017D01*
X116015686Y-92965686D02*
X117881372Y-91100000D01*
%TO.N,Net-(JP14-A)*%
X39015686Y-92968628D02*
X47747058Y-101700000D01*
%TO.N,Net-(DG452_1-D_3)*%
X161115686Y-103208331D02*
X161715686Y-103808331D01*
%TO.N,Net-(JP15-A)*%
X58445686Y-101300000D02*
X65525686Y-108380000D01*
%TO.N,Net-(DG452_1-D_3)*%
X164115686Y-115014215D02*
X164115686Y-117400000D01*
X161715686Y-103808331D02*
X161715686Y-112614215D01*
X115615686Y-105700000D02*
X115615686Y-92800000D01*
X164115686Y-117400000D02*
X164715686Y-118000000D01*
X117715686Y-90700000D02*
X149258826Y-90700000D01*
X115615686Y-92800000D02*
X117715686Y-90700000D01*
X149258826Y-90700000D02*
X161115686Y-102556860D01*
%TO.N,Net-(JP15-A)*%
X41615686Y-95002942D02*
X47912744Y-101300000D01*
%TO.N,Net-(DG452_1-D_3)*%
X112515686Y-108800000D02*
X115615686Y-105700000D01*
%TO.N,Net-(JP15-A)*%
X47912744Y-101300000D02*
X58445686Y-101300000D01*
%TO.N,Net-(DG452_1-D_3)*%
X161715686Y-112614215D02*
X164115686Y-115014215D01*
X161115686Y-102556860D02*
X161115686Y-103208331D01*
%TO.N,Net-(JP15-A)*%
X41615686Y-85200000D02*
X41615686Y-95002942D01*
%TO.N,Net-(DG452_2-D_3)*%
X149921570Y-89100000D02*
X162715686Y-101894116D01*
X163315686Y-108700000D02*
X164715686Y-110100000D01*
X116981372Y-89100000D02*
X149921570Y-89100000D01*
X112515686Y-93565686D02*
X116981372Y-89100000D01*
X112515686Y-99300000D02*
X112515686Y-93565686D01*
X163315686Y-103145587D02*
X163315686Y-108700000D01*
X162715686Y-102545587D02*
X163315686Y-103145587D01*
X162715686Y-101894116D02*
X162715686Y-102545587D01*
%TO.N,Net-(DG452_2-S_2)*%
X162315686Y-102059802D02*
X162315686Y-102711273D01*
X107415686Y-99300000D02*
X107415686Y-99600000D01*
X162915686Y-110300000D02*
X164715686Y-112100000D01*
X107415686Y-99600000D02*
X107765686Y-99950000D01*
X117147058Y-89500000D02*
X149755884Y-89500000D01*
X162915686Y-103311273D02*
X162915686Y-110300000D01*
X113115686Y-93531372D02*
X117147058Y-89500000D01*
X113115686Y-99600000D02*
X113115686Y-93531372D01*
X107765686Y-99950000D02*
X112765686Y-99950000D01*
X162315686Y-102711273D02*
X162915686Y-103311273D01*
X112765686Y-99950000D02*
X113115686Y-99600000D01*
X149755884Y-89500000D02*
X162315686Y-102059802D01*
%TO.N,Net-(DG452_2-D_4)*%
X114815686Y-92397058D02*
X117312744Y-89900000D01*
X117312744Y-89900000D02*
X149590198Y-89900000D01*
X114815686Y-99700000D02*
X114815686Y-92397058D01*
X161915686Y-102225488D02*
X161915686Y-102876959D01*
X112515686Y-104200000D02*
X112515686Y-102000000D01*
X149590198Y-89900000D02*
X161915686Y-102225488D01*
X162515686Y-112000000D02*
X164715686Y-114200000D01*
X161915686Y-102876959D02*
X162515686Y-103476959D01*
X162515686Y-103476959D02*
X162515686Y-112000000D01*
X112515686Y-102000000D02*
X114815686Y-99700000D01*
%TO.N,Net-(DG452_2-S_1)*%
X108115686Y-104800000D02*
X114115686Y-104800000D01*
X117478430Y-90300000D02*
X149424512Y-90300000D01*
X107415686Y-104100000D02*
X108115686Y-104800000D01*
X114115686Y-104800000D02*
X115215686Y-103700000D01*
X162115686Y-112448529D02*
X164715686Y-115048529D01*
X149424512Y-90300000D02*
X161515686Y-102391174D01*
X164715686Y-115048529D02*
X164715686Y-116100000D01*
X115215686Y-103700000D02*
X115215686Y-92562744D01*
X161515686Y-102391174D02*
X161515686Y-103042645D01*
X161515686Y-103042645D02*
X162115686Y-103642645D01*
X162115686Y-103642645D02*
X162115686Y-112448529D01*
X115215686Y-92562744D02*
X117478430Y-90300000D01*
%TO.N,Net-(DG452_3-S_2)*%
X163915686Y-102048529D02*
X164715686Y-102848529D01*
X107634215Y-86800000D02*
X108734215Y-87900000D01*
X164715686Y-102848529D02*
X164715686Y-104000000D01*
X163915686Y-101397058D02*
X163915686Y-102048529D01*
X107315686Y-86800000D02*
X107634215Y-86800000D01*
X108734215Y-87900000D02*
X150418628Y-87900000D01*
X150418628Y-87900000D02*
X163915686Y-101397058D01*
X164715686Y-104000000D02*
X164615686Y-104000000D01*
%TO.N,Net-(DG452_3-D_3)*%
X164715686Y-102000000D02*
X164615686Y-102000000D01*
X150584314Y-87500000D02*
X164715686Y-101631372D01*
X113215686Y-87500000D02*
X150584314Y-87500000D01*
X112415686Y-86700000D02*
X113215686Y-87500000D01*
X164715686Y-101631372D02*
X164715686Y-102000000D01*
%TO.N,Net-(DG452_3-D_4)*%
X163515686Y-101562744D02*
X163515686Y-102214215D01*
X112415686Y-91600000D02*
X115715686Y-88300000D01*
X150252942Y-88300000D02*
X163515686Y-101562744D01*
X164115686Y-105500000D02*
X164715686Y-106100000D01*
X163515686Y-102214215D02*
X164115686Y-102814215D01*
X164115686Y-102814215D02*
X164115686Y-105500000D01*
X164815686Y-106100000D02*
X164815686Y-106100000D01*
X115715686Y-88300000D02*
X150252942Y-88300000D01*
X164715686Y-106100000D02*
X164815686Y-106100000D01*
%TO.N,Net-(DG452_3-S_1)*%
X163715686Y-107100000D02*
X164615686Y-108000000D01*
X163115686Y-102379901D02*
X163715686Y-102979901D01*
X116815686Y-88700000D02*
X150087256Y-88700000D01*
X107915686Y-92200000D02*
X113315686Y-92200000D01*
X163715686Y-102979901D02*
X163715686Y-107100000D01*
X150087256Y-88700000D02*
X163115686Y-101728430D01*
X113315686Y-92200000D02*
X116815686Y-88700000D01*
X163115686Y-101728430D02*
X163115686Y-102379901D01*
X107315686Y-91600000D02*
X107915686Y-92200000D01*
%TO.N,Net-(J2-Pin_9)*%
X41540686Y-79985000D02*
X43095686Y-81540000D01*
X35090452Y-72141765D02*
X41540686Y-78591999D01*
X41540686Y-78591999D02*
X41540686Y-79985000D01*
X18535686Y-73015000D02*
X19408921Y-72141765D01*
X19408921Y-72141765D02*
X35090452Y-72141765D01*
%TD*%
M02*
