%TF.GenerationSoftware,KiCad,Pcbnew,8.0.3-1.fc40*%
%TF.CreationDate,2024-06-20T20:23:44-04:00*%
%TF.ProjectId,sampler_split_sensor,73616d70-6c65-4725-9f73-706c69745f73,rev?*%
%TF.SameCoordinates,Original*%
%TF.FileFunction,Drillmap*%
%TF.FilePolarity,Positive*%
%FSLAX45Y45*%
G04 Gerber Fmt 4.5, Leading zero omitted, Abs format (unit mm)*
G04 Created by KiCad (PCBNEW 8.0.3-1.fc40) date 2024-06-20 20:23:44*
%MOMM*%
%LPD*%
G01*
G04 APERTURE LIST*
%ADD10C,0.050000*%
%ADD11C,0.200000*%
%ADD12C,0.100000*%
%ADD13C,0.102000*%
%ADD14C,0.110000*%
G04 APERTURE END LIST*
D10*
X2708284Y-5221716D02*
G75*
G02*
X2651716Y-5221716I-28284J0D01*
G01*
X2651716Y-5221716D02*
G75*
G02*
X2708284Y-5221716I28284J0D01*
G01*
X2508284Y-5221716D02*
G75*
G02*
X2451716Y-5221716I-28284J0D01*
G01*
X2451716Y-5221716D02*
G75*
G02*
X2508284Y-5221716I28284J0D01*
G01*
X2308284Y-5221716D02*
G75*
G02*
X2251716Y-5221716I-28284J0D01*
G01*
X2251716Y-5221716D02*
G75*
G02*
X2308284Y-5221716I28284J0D01*
G01*
X3308284Y-5221716D02*
G75*
G02*
X3251716Y-5221716I-28284J0D01*
G01*
X3251716Y-5221716D02*
G75*
G02*
X3308284Y-5221716I28284J0D01*
G01*
X3108284Y-5221716D02*
G75*
G02*
X3051716Y-5221716I-28284J0D01*
G01*
X3051716Y-5221716D02*
G75*
G02*
X3108284Y-5221716I28284J0D01*
G01*
X2908284Y-5221716D02*
G75*
G02*
X2851716Y-5221716I-28284J0D01*
G01*
X2851716Y-5221716D02*
G75*
G02*
X2908284Y-5221716I28284J0D01*
G01*
X3908284Y-5221716D02*
G75*
G02*
X3851716Y-5221716I-28284J0D01*
G01*
X3851716Y-5221716D02*
G75*
G02*
X3908284Y-5221716I28284J0D01*
G01*
X3708284Y-5221716D02*
G75*
G02*
X3651716Y-5221716I-28284J0D01*
G01*
X3651716Y-5221716D02*
G75*
G02*
X3708284Y-5221716I28284J0D01*
G01*
X3508284Y-5221716D02*
G75*
G02*
X3451716Y-5221716I-28284J0D01*
G01*
X3451716Y-5221716D02*
G75*
G02*
X3508284Y-5221716I28284J0D01*
G01*
X4508284Y-5221716D02*
G75*
G02*
X4451716Y-5221716I-28284J0D01*
G01*
X4451716Y-5221716D02*
G75*
G02*
X4508284Y-5221716I28284J0D01*
G01*
X4308284Y-5221716D02*
G75*
G02*
X4251716Y-5221716I-28284J0D01*
G01*
X4251716Y-5221716D02*
G75*
G02*
X4308284Y-5221716I28284J0D01*
G01*
X4108284Y-5221716D02*
G75*
G02*
X4051716Y-5221716I-28284J0D01*
G01*
X4051716Y-5221716D02*
G75*
G02*
X4108284Y-5221716I28284J0D01*
G01*
X5108284Y-5221716D02*
G75*
G02*
X5051716Y-5221716I-28284J0D01*
G01*
X5051716Y-5221716D02*
G75*
G02*
X5108284Y-5221716I28284J0D01*
G01*
X4908284Y-5221716D02*
G75*
G02*
X4851716Y-5221716I-28284J0D01*
G01*
X4851716Y-5221716D02*
G75*
G02*
X4908284Y-5221716I28284J0D01*
G01*
X4708284Y-5221716D02*
G75*
G02*
X4651716Y-5221716I-28284J0D01*
G01*
X4651716Y-5221716D02*
G75*
G02*
X4708284Y-5221716I28284J0D01*
G01*
X5310000Y-5220000D02*
G75*
G02*
X5253432Y-5220000I-28284J0D01*
G01*
X5253432Y-5220000D02*
G75*
G02*
X5310000Y-5220000I28284J0D01*
G01*
X5510000Y-5220000D02*
G75*
G02*
X5453432Y-5220000I-28284J0D01*
G01*
X5453432Y-5220000D02*
G75*
G02*
X5510000Y-5220000I28284J0D01*
G01*
X5710000Y-5220000D02*
G75*
G02*
X5653431Y-5220000I-28284J0D01*
G01*
X5653431Y-5220000D02*
G75*
G02*
X5710000Y-5220000I28284J0D01*
G01*
X6018284Y-5220000D02*
G75*
G02*
X5961716Y-5220000I-28284J0D01*
G01*
X5961716Y-5220000D02*
G75*
G02*
X6018284Y-5220000I28284J0D01*
G01*
X5896568Y-5220000D02*
G75*
G02*
X5840000Y-5220000I-28284J0D01*
G01*
X5840000Y-5220000D02*
G75*
G02*
X5896568Y-5220000I28284J0D01*
G01*
X6136568Y-5220000D02*
G75*
G02*
X6080000Y-5220000I-28284J0D01*
G01*
X6080000Y-5220000D02*
G75*
G02*
X6136568Y-5220000I28284J0D01*
G01*
X6376568Y-5220000D02*
G75*
G02*
X6320000Y-5220000I-28284J0D01*
G01*
X6320000Y-5220000D02*
G75*
G02*
X6376568Y-5220000I28284J0D01*
G01*
X6258284Y-5220000D02*
G75*
G02*
X6201716Y-5220000I-28284J0D01*
G01*
X6201716Y-5220000D02*
G75*
G02*
X6258284Y-5220000I28284J0D01*
G01*
X6498284Y-5220000D02*
G75*
G02*
X6441716Y-5220000I-28284J0D01*
G01*
X6441716Y-5220000D02*
G75*
G02*
X6498284Y-5220000I28284J0D01*
G01*
X6616568Y-5220000D02*
G75*
G02*
X6560000Y-5220000I-28284J0D01*
G01*
X6560000Y-5220000D02*
G75*
G02*
X6616568Y-5220000I28284J0D01*
G01*
X6856568Y-5220000D02*
G75*
G02*
X6800000Y-5220000I-28284J0D01*
G01*
X6800000Y-5220000D02*
G75*
G02*
X6856568Y-5220000I28284J0D01*
G01*
X6738284Y-5220000D02*
G75*
G02*
X6681716Y-5220000I-28284J0D01*
G01*
X6681716Y-5220000D02*
G75*
G02*
X6738284Y-5220000I28284J0D01*
G01*
X6978284Y-5220000D02*
G75*
G02*
X6921716Y-5220000I-28284J0D01*
G01*
X6921716Y-5220000D02*
G75*
G02*
X6978284Y-5220000I28284J0D01*
G01*
X7098284Y-5220000D02*
G75*
G02*
X7041716Y-5220000I-28284J0D01*
G01*
X7041716Y-5220000D02*
G75*
G02*
X7098284Y-5220000I28284J0D01*
G01*
X7220000Y-5220000D02*
G75*
G02*
X7163431Y-5220000I-28284J0D01*
G01*
X7163431Y-5220000D02*
G75*
G02*
X7220000Y-5220000I28284J0D01*
G01*
X7338284Y-5220000D02*
G75*
G02*
X7281716Y-5220000I-28284J0D01*
G01*
X7281716Y-5220000D02*
G75*
G02*
X7338284Y-5220000I28284J0D01*
G01*
X7460000Y-5220000D02*
G75*
G02*
X7403431Y-5220000I-28284J0D01*
G01*
X7403431Y-5220000D02*
G75*
G02*
X7460000Y-5220000I28284J0D01*
G01*
X7748284Y-5220000D02*
G75*
G02*
X7691716Y-5220000I-28284J0D01*
G01*
X7691716Y-5220000D02*
G75*
G02*
X7748284Y-5220000I28284J0D01*
G01*
X7870000Y-5220000D02*
G75*
G02*
X7813431Y-5220000I-28284J0D01*
G01*
X7813431Y-5220000D02*
G75*
G02*
X7870000Y-5220000I28284J0D01*
G01*
X8356568Y-5220000D02*
G75*
G02*
X8300000Y-5220000I-28284J0D01*
G01*
X8300000Y-5220000D02*
G75*
G02*
X8356568Y-5220000I28284J0D01*
G01*
X8478284Y-5220000D02*
G75*
G02*
X8421716Y-5220000I-28284J0D01*
G01*
X8421716Y-5220000D02*
G75*
G02*
X8478284Y-5220000I28284J0D01*
G01*
X8717678Y-5197322D02*
X8767678Y-5197322D01*
X8767678Y-5197322D02*
G75*
G02*
X8792678Y-5222322I0J-25000D01*
G01*
X8692678Y-5222322D02*
G75*
G02*
X8717678Y-5197322I25000J0D01*
G01*
X8717678Y-5247322D02*
G75*
G02*
X8692678Y-5222322I0J25000D01*
G01*
X8767678Y-5247322D02*
X8717678Y-5247322D01*
X8792678Y-5222322D02*
G75*
G02*
X8767678Y-5247322I-25000J0D01*
G01*
X8927322Y-5225000D02*
G75*
G02*
X8902322Y-5250000I-25000J0D01*
G01*
X9185000Y-5252678D02*
X9135000Y-5252678D01*
X8995000Y-5250000D02*
G75*
G02*
X8970000Y-5225000I0J25000D01*
G01*
X8970000Y-5225000D02*
G75*
G02*
X8995000Y-5199999I25000J0D01*
G01*
X8995000Y-5200000D02*
X9045000Y-5200000D01*
X9070000Y-5225000D02*
G75*
G02*
X9045000Y-5249999I-25000J0D01*
G01*
X9045000Y-5200000D02*
G75*
G02*
X9070000Y-5225000I2J-24998D01*
G01*
X9045000Y-5250000D02*
X8995000Y-5250000D01*
X9210000Y-5227678D02*
G75*
G02*
X9185000Y-5252678I-24999J0D01*
G01*
X8902322Y-5200000D02*
G75*
G02*
X8927322Y-5225000I0J-25000D01*
G01*
X9110000Y-5227678D02*
G75*
G02*
X9135000Y-5202678I25000J1D01*
G01*
X8852322Y-5250000D02*
G75*
G02*
X8827322Y-5225000I0J25000D01*
G01*
X8902322Y-5250000D02*
X8852322Y-5250000D01*
X8852322Y-5200000D02*
X8902322Y-5200000D01*
X9135000Y-5252678D02*
G75*
G02*
X9110000Y-5227678I0J25000D01*
G01*
X9185000Y-5202678D02*
G75*
G02*
X9210000Y-5227678I5J-24995D01*
G01*
X8827322Y-5225000D02*
G75*
G02*
X8852322Y-5200000I25000J0D01*
G01*
X9135000Y-5202678D02*
X9185000Y-5202678D01*
X9557678Y-5247322D02*
G75*
G02*
X9532678Y-5222322I0J25000D01*
G01*
X9532678Y-5222322D02*
G75*
G02*
X9557678Y-5197322I25000J0D01*
G01*
X9557678Y-5197322D02*
X9607678Y-5197322D01*
X9632678Y-5222322D02*
G75*
G02*
X9607678Y-5247322I-25000J0D01*
G01*
X9607678Y-5197322D02*
G75*
G02*
X9632678Y-5222322I0J-25000D01*
G01*
X9607678Y-5247322D02*
X9557678Y-5247322D01*
X9325000Y-5250000D02*
X9275000Y-5250000D01*
X9275000Y-5200000D02*
X9325000Y-5200000D01*
X9350000Y-5225000D02*
G75*
G02*
X9325000Y-5250000I-25000J0D01*
G01*
X9275000Y-5250000D02*
G75*
G02*
X9250000Y-5225000I0J25000D01*
G01*
X9325000Y-5200000D02*
G75*
G02*
X9350000Y-5225000I0J-25000D01*
G01*
X9250000Y-5225000D02*
G75*
G02*
X9275000Y-5200000I25000J0D01*
G01*
X9415000Y-5200000D02*
X9465000Y-5200000D01*
X9465000Y-5250000D02*
X9415000Y-5250000D01*
X9465000Y-5200000D02*
G75*
G02*
X9490000Y-5225000I0J-25000D01*
G01*
X9490000Y-5225000D02*
G75*
G02*
X9465000Y-5250000I-25000J0D01*
G01*
X9390000Y-5225000D02*
G75*
G02*
X9415000Y-5200000I25000J0D01*
G01*
X9415000Y-5250000D02*
G75*
G02*
X9390000Y-5225000I0J25000D01*
G01*
X2700000Y-3600000D02*
G75*
G02*
X2500000Y-3600000I-100000J0D01*
G01*
X2500000Y-3600000D02*
G75*
G02*
X2700000Y-3600000I100000J0D01*
G01*
X4100000Y-3600000D02*
G75*
G02*
X3900000Y-3600000I-100000J0D01*
G01*
X3900000Y-3600000D02*
G75*
G02*
X4100000Y-3600000I100000J0D01*
G01*
X5500000Y-3600000D02*
G75*
G02*
X5300000Y-3600000I-100000J0D01*
G01*
X5300000Y-3600000D02*
G75*
G02*
X5500000Y-3600000I100000J0D01*
G01*
X8200000Y-3600000D02*
G75*
G02*
X8000000Y-3600000I-100000J0D01*
G01*
X8000000Y-3600000D02*
G75*
G02*
X8200000Y-3600000I100000J0D01*
G01*
X11000000Y-3600000D02*
G75*
G02*
X10800000Y-3600000I-100000J0D01*
G01*
X10800000Y-3600000D02*
G75*
G02*
X11000000Y-3600000I100000J0D01*
G01*
X12400000Y-3600000D02*
G75*
G02*
X12200000Y-3600000I-100000J0D01*
G01*
X12200000Y-3600000D02*
G75*
G02*
X12400000Y-3600000I100000J0D01*
G01*
X13800000Y-3600000D02*
G75*
G02*
X13600000Y-3600000I-100000J0D01*
G01*
X13600000Y-3600000D02*
G75*
G02*
X13800000Y-3600000I100000J0D01*
G01*
X15200000Y-3600000D02*
G75*
G02*
X15000000Y-3600000I-100000J0D01*
G01*
X15000000Y-3600000D02*
G75*
G02*
X15200000Y-3600000I100000J0D01*
G01*
X16600000Y-3600000D02*
G75*
G02*
X16400000Y-3600000I-100000J0D01*
G01*
X16400000Y-3600000D02*
G75*
G02*
X16600000Y-3600000I100000J0D01*
G01*
X19400000Y-3600000D02*
G75*
G02*
X19200000Y-3600000I-100000J0D01*
G01*
X19200000Y-3600000D02*
G75*
G02*
X19400000Y-3600000I100000J0D01*
G01*
X20800000Y-3600000D02*
G75*
G02*
X20600000Y-3600000I-100000J0D01*
G01*
X20600000Y-3600000D02*
G75*
G02*
X20800000Y-3600000I100000J0D01*
G01*
X22200000Y-3600000D02*
G75*
G02*
X22000000Y-3600000I-100000J0D01*
G01*
X22000000Y-3600000D02*
G75*
G02*
X22200000Y-3600000I100000J0D01*
G01*
X21000000Y-4600000D02*
G75*
G02*
X20800000Y-4600000I-100000J0D01*
G01*
X20800000Y-4600000D02*
G75*
G02*
X21000000Y-4600000I100000J0D01*
G01*
X12300000Y-9700000D02*
G75*
G02*
X12100000Y-9700000I-100000J0D01*
G01*
X12100000Y-9700000D02*
G75*
G02*
X12300000Y-9700000I100000J0D01*
G01*
X15800000Y-7290000D02*
G75*
G02*
X15600000Y-7290000I-100000J0D01*
G01*
X15600000Y-7290000D02*
G75*
G02*
X15800000Y-7290000I100000J0D01*
G01*
X9800000Y-5600000D02*
G75*
G02*
X9600000Y-5600000I-100000J0D01*
G01*
X9600000Y-5600000D02*
G75*
G02*
X9800000Y-5600000I100000J0D01*
G01*
X25000000Y-3600000D02*
G75*
G02*
X24800000Y-3600000I-100000J0D01*
G01*
X24800000Y-3600000D02*
G75*
G02*
X25000000Y-3600000I100000J0D01*
G01*
X25100000Y-4600000D02*
G75*
G02*
X24900000Y-4600000I-100000J0D01*
G01*
X24900000Y-4600000D02*
G75*
G02*
X25100000Y-4600000I100000J0D01*
G01*
X23700000Y-4600000D02*
G75*
G02*
X23500000Y-4600000I-100000J0D01*
G01*
X23500000Y-4600000D02*
G75*
G02*
X23700000Y-4600000I100000J0D01*
G01*
X1700000Y-4200000D02*
G75*
G02*
X1500000Y-4200000I-100000J0D01*
G01*
X1500000Y-4200000D02*
G75*
G02*
X1700000Y-4200000I100000J0D01*
G01*
X3100000Y-4200000D02*
G75*
G02*
X2900000Y-4200000I-100000J0D01*
G01*
X2900000Y-4200000D02*
G75*
G02*
X3100000Y-4200000I100000J0D01*
G01*
X12200000Y-4600000D02*
G75*
G02*
X12000000Y-4600000I-100000J0D01*
G01*
X12000000Y-4600000D02*
G75*
G02*
X12200000Y-4600000I100000J0D01*
G01*
X26200000Y-3500000D02*
X26200000Y-4000000D01*
X25000000Y-5200000D01*
X9700000Y-5200000D01*
X9680000Y-5210000D01*
X9680000Y-5240000D01*
X9700000Y-5250000D01*
X9800000Y-5250000D01*
X10000000Y-5450000D01*
X10000000Y-6300000D01*
X10300000Y-6600000D01*
X16400000Y-6600000D01*
X16600000Y-6800000D01*
X16910000Y-6800000D01*
X17000000Y-6890000D01*
X17000000Y-13300000D01*
X16900000Y-13400000D01*
X16300000Y-13400000D01*
X15900000Y-13800000D01*
X1800000Y-13800000D01*
X1410000Y-13410000D01*
X1410000Y-5550000D01*
X1710000Y-5250000D01*
X2200000Y-5250000D01*
X2200000Y-5200000D01*
X2100000Y-5200000D01*
X1300000Y-4400000D01*
X1300000Y-3400000D01*
X1560000Y-3140000D01*
X25840000Y-3140000D01*
X26200000Y-3500000D01*
X18060000Y-3460000D02*
X18030000Y-3460000D01*
X18030000Y-3420000D01*
X18060000Y-3420000D01*
X18060000Y-3460000D01*
X18060000Y-3380000D02*
X18030000Y-3380000D01*
X18030000Y-3340000D01*
X18060000Y-3340000D01*
X18060000Y-3380000D01*
X18060000Y-3540000D02*
X18030000Y-3540000D01*
X18030000Y-3500000D01*
X18060000Y-3500000D01*
X18060000Y-3540000D01*
X18060000Y-3700000D02*
X18030000Y-3700000D01*
X18030000Y-3660000D01*
X18060000Y-3660000D01*
X18060000Y-3700000D01*
X18060000Y-3620000D02*
X18030000Y-3620000D01*
X18030000Y-3580000D01*
X18060000Y-3580000D01*
X18060000Y-3620000D01*
X18060000Y-3780000D02*
X18030000Y-3780000D01*
X18030000Y-3740000D01*
X18060000Y-3740000D01*
X18060000Y-3780000D01*
X18060000Y-4080000D02*
X18030000Y-4080000D01*
X18030000Y-4030000D01*
X18060000Y-4030000D01*
X18060000Y-4080000D01*
X18060000Y-4470000D02*
X18030000Y-4470000D01*
X18030000Y-4430000D01*
X18060000Y-4430000D01*
X18060000Y-4470000D01*
X18060000Y-4550000D02*
X18030000Y-4550000D01*
X18030000Y-4510000D01*
X18060000Y-4510000D01*
X18060000Y-4550000D01*
X23300000Y-3480000D02*
X23280000Y-3480000D01*
X23280000Y-3440000D01*
X23300000Y-3440000D01*
X23300000Y-3480000D01*
X23300000Y-3400000D02*
X23280000Y-3400000D01*
X23280000Y-3360000D01*
X23300000Y-3360000D01*
X23300000Y-3400000D01*
X23300000Y-3800000D02*
X23280000Y-3800000D01*
X23280000Y-3760000D01*
X23300000Y-3760000D01*
X23300000Y-3800000D01*
X23300000Y-3640000D02*
X23280000Y-3640000D01*
X23280000Y-3600000D01*
X23300000Y-3600000D01*
X23300000Y-3640000D01*
X23300000Y-3720000D02*
X23280000Y-3720000D01*
X23280000Y-3680000D01*
X23300000Y-3680000D01*
X23300000Y-3720000D01*
X23300000Y-3560000D02*
X23280000Y-3560000D01*
X23280000Y-3520000D01*
X23300000Y-3520000D01*
X23300000Y-3560000D01*
X23300000Y-4170000D02*
X23280000Y-4170000D01*
X23280000Y-4130000D01*
X23300000Y-4130000D01*
X23300000Y-4170000D01*
X23300000Y-4520000D02*
X23280000Y-4520000D01*
X23280000Y-4480000D01*
X23300000Y-4480000D01*
X23300000Y-4520000D01*
X23300000Y-4680000D02*
X23280000Y-4680000D01*
X23280000Y-4640000D01*
X23300000Y-4640000D01*
X23300000Y-4680000D01*
X23300000Y-4600000D02*
X23280000Y-4600000D01*
X23280000Y-4560000D01*
X23300000Y-4560000D01*
X23300000Y-4600000D01*
X23300000Y-4250000D02*
X23280000Y-4250000D01*
X23280000Y-4210000D01*
X23300000Y-4210000D01*
X23300000Y-4250000D01*
X18060000Y-4630000D02*
X18030000Y-4630000D01*
X18030000Y-4590000D01*
X18060000Y-4590000D01*
X18060000Y-4630000D01*
X18047000Y-2301500D02*
X18027000Y-2301500D01*
X18027000Y-2261500D01*
X18047000Y-2261500D01*
X18047000Y-2301500D01*
X3283569Y-6791500D02*
G75*
G02*
X3083569Y-6791500I-100000J0D01*
G01*
X3083569Y-6791500D02*
G75*
G02*
X3283569Y-6791500I100000J0D01*
G01*
X3411569Y-12760000D02*
G75*
G02*
X3211569Y-12760000I-100000J0D01*
G01*
X3211569Y-12760000D02*
G75*
G02*
X3411569Y-12760000I100000J0D01*
G01*
X15551569Y-11160000D02*
G75*
G02*
X15351569Y-11160000I-100000J0D01*
G01*
X15351569Y-11160000D02*
G75*
G02*
X15551569Y-11160000I100000J0D01*
G01*
X15601569Y-13430000D02*
G75*
G02*
X15401569Y-13430000I-100000J0D01*
G01*
X15401569Y-13430000D02*
G75*
G02*
X15601569Y-13430000I100000J0D01*
G01*
X17800000Y-4600000D02*
G75*
G02*
X17600000Y-4600000I-100000J0D01*
G01*
X17600000Y-4600000D02*
G75*
G02*
X17800000Y-4600000I100000J0D01*
G01*
X7521569Y-9040000D02*
G75*
G02*
X7321569Y-9040000I-100000J0D01*
G01*
X7321569Y-9040000D02*
G75*
G02*
X7521569Y-9040000I100000J0D01*
G01*
X2701569Y-13450000D02*
G75*
G02*
X2501569Y-13450000I-100000J0D01*
G01*
X2501569Y-13450000D02*
G75*
G02*
X2701569Y-13450000I100000J0D01*
G01*
X18500000Y-4600000D02*
G75*
G02*
X18300000Y-4600000I-100000J0D01*
G01*
X18300000Y-4600000D02*
G75*
G02*
X18500000Y-4600000I100000J0D01*
G01*
X7931569Y-12740000D02*
G75*
G02*
X7731569Y-12740000I-100000J0D01*
G01*
X7731569Y-12740000D02*
G75*
G02*
X7931569Y-12740000I100000J0D01*
G01*
X23100000Y-4600000D02*
G75*
G02*
X22900000Y-4600000I-100000J0D01*
G01*
X22900000Y-4600000D02*
G75*
G02*
X23100000Y-4600000I100000J0D01*
G01*
X15100000Y-4600000D02*
G75*
G02*
X14900000Y-4600000I-100000J0D01*
G01*
X14900000Y-4600000D02*
G75*
G02*
X15100000Y-4600000I100000J0D01*
G01*
X9001569Y-13450000D02*
G75*
G02*
X8801569Y-13450000I-100000J0D01*
G01*
X8801569Y-13450000D02*
G75*
G02*
X9001569Y-13450000I100000J0D01*
G01*
X7801569Y-6260000D02*
G75*
G02*
X7601569Y-6260000I-100000J0D01*
G01*
X7601569Y-6260000D02*
G75*
G02*
X7801569Y-6260000I100000J0D01*
G01*
D11*
D12*
X1818569Y-7856500D02*
X1848569Y-7886500D01*
X1848569Y-7856500D02*
X1818569Y-7886500D01*
X1838569Y-7286500D02*
X1868569Y-7316500D01*
X1868569Y-7286500D02*
X1838569Y-7316500D01*
X1914554Y-6997838D02*
X1944554Y-7027838D01*
X1944554Y-6997838D02*
X1914554Y-7027838D01*
X2175892Y-7259176D02*
X2205892Y-7289176D01*
X2205892Y-7259176D02*
X2175892Y-7289176D01*
X2178660Y-7339129D02*
X2208660Y-7369129D01*
X2208660Y-7339129D02*
X2178660Y-7369129D01*
X2415000Y-6095000D02*
X2445000Y-6125000D01*
X2445000Y-6095000D02*
X2415000Y-6125000D01*
X2416569Y-8495000D02*
X2446569Y-8525000D01*
X2446569Y-8495000D02*
X2416569Y-8525000D01*
X2546569Y-6075000D02*
X2576569Y-6105000D01*
X2576569Y-6075000D02*
X2546569Y-6105000D01*
X2616569Y-8495000D02*
X2646569Y-8525000D01*
X2646569Y-8495000D02*
X2616569Y-8525000D01*
X2796569Y-6075000D02*
X2826569Y-6105000D01*
X2826569Y-6075000D02*
X2796569Y-6105000D01*
X2866569Y-8495000D02*
X2896569Y-8525000D01*
X2896569Y-8495000D02*
X2866569Y-8525000D01*
X3046569Y-6075000D02*
X3076569Y-6105000D01*
X3076569Y-6075000D02*
X3046569Y-6105000D01*
X3068569Y-11606500D02*
X3098569Y-11636500D01*
X3098569Y-11606500D02*
X3068569Y-11636500D01*
X3126569Y-8495000D02*
X3156569Y-8525000D01*
X3156569Y-8495000D02*
X3126569Y-8525000D01*
X3296569Y-6075000D02*
X3326569Y-6105000D01*
X3326569Y-6075000D02*
X3296569Y-6105000D01*
X3376569Y-8495000D02*
X3406569Y-8525000D01*
X3406569Y-8495000D02*
X3376569Y-8525000D01*
X3546569Y-6075000D02*
X3576569Y-6105000D01*
X3576569Y-6075000D02*
X3546569Y-6105000D01*
X3636569Y-8505000D02*
X3666569Y-8535000D01*
X3666569Y-8505000D02*
X3636569Y-8535000D01*
X3796569Y-6075000D02*
X3826569Y-6105000D01*
X3826569Y-6075000D02*
X3796569Y-6105000D01*
X3886569Y-8505000D02*
X3916569Y-8535000D01*
X3916569Y-8505000D02*
X3886569Y-8535000D01*
X4046569Y-6075000D02*
X4076569Y-6105000D01*
X4076569Y-6075000D02*
X4046569Y-6105000D01*
X4146569Y-8505000D02*
X4176569Y-8535000D01*
X4176569Y-8505000D02*
X4146569Y-8535000D01*
X4296569Y-6075000D02*
X4326569Y-6105000D01*
X4326569Y-6075000D02*
X4296569Y-6105000D01*
X4396569Y-8515000D02*
X4426569Y-8545000D01*
X4426569Y-8515000D02*
X4396569Y-8545000D01*
X4546569Y-6075000D02*
X4576569Y-6105000D01*
X4576569Y-6075000D02*
X4546569Y-6105000D01*
X4646569Y-8515000D02*
X4676569Y-8545000D01*
X4676569Y-8515000D02*
X4646569Y-8545000D01*
X4796569Y-6075000D02*
X4826569Y-6105000D01*
X4826569Y-6075000D02*
X4796569Y-6105000D01*
X4906569Y-8515000D02*
X4936569Y-8545000D01*
X4936569Y-8515000D02*
X4906569Y-8545000D01*
X5046569Y-6075000D02*
X5076569Y-6105000D01*
X5076569Y-6075000D02*
X5046569Y-6105000D01*
X5156569Y-8515000D02*
X5186569Y-8545000D01*
X5186569Y-8515000D02*
X5156569Y-8545000D01*
X5296569Y-6075000D02*
X5326569Y-6105000D01*
X5326569Y-6075000D02*
X5296569Y-6105000D01*
X5385000Y-4275000D02*
X5415000Y-4305000D01*
X5415000Y-4275000D02*
X5385000Y-4305000D01*
X5406569Y-8515000D02*
X5436569Y-8545000D01*
X5436569Y-8515000D02*
X5406569Y-8545000D01*
X5485000Y-4375000D02*
X5515000Y-4405000D01*
X5515000Y-4375000D02*
X5485000Y-4405000D01*
X5546569Y-6075000D02*
X5576569Y-6105000D01*
X5576569Y-6075000D02*
X5546569Y-6105000D01*
X5605000Y-4475000D02*
X5635000Y-4505000D01*
X5635000Y-4475000D02*
X5605000Y-4505000D01*
X5666569Y-8515000D02*
X5696569Y-8545000D01*
X5696569Y-8515000D02*
X5666569Y-8545000D01*
X5695000Y-4575000D02*
X5725000Y-4605000D01*
X5725000Y-4575000D02*
X5695000Y-4605000D01*
X5795000Y-4675000D02*
X5825000Y-4705000D01*
X5825000Y-4675000D02*
X5795000Y-4705000D01*
X5796569Y-6075000D02*
X5826569Y-6105000D01*
X5826569Y-6075000D02*
X5796569Y-6105000D01*
X5882850Y-4772850D02*
X5912850Y-4802850D01*
X5912850Y-4772850D02*
X5882850Y-4802850D01*
X5916569Y-8515000D02*
X5946569Y-8545000D01*
X5946569Y-8515000D02*
X5916569Y-8545000D01*
X6046569Y-6075000D02*
X6076569Y-6105000D01*
X6076569Y-6075000D02*
X6046569Y-6105000D01*
X6176569Y-8525000D02*
X6206569Y-8555000D01*
X6206569Y-8525000D02*
X6176569Y-8555000D01*
X6296569Y-6075000D02*
X6326569Y-6105000D01*
X6326569Y-6075000D02*
X6296569Y-6105000D01*
X6426569Y-8525000D02*
X6456569Y-8555000D01*
X6456569Y-8525000D02*
X6426569Y-8555000D01*
X6546569Y-6075000D02*
X6576569Y-6105000D01*
X6576569Y-6075000D02*
X6546569Y-6105000D01*
X6596569Y-10505000D02*
X6626569Y-10535000D01*
X6626569Y-10505000D02*
X6596569Y-10535000D01*
X6667001Y-10465000D02*
X6697001Y-10495000D01*
X6697001Y-10465000D02*
X6667001Y-10495000D01*
X6676569Y-8525000D02*
X6706569Y-8555000D01*
X6706569Y-8525000D02*
X6676569Y-8555000D01*
X6746568Y-10425000D02*
X6776568Y-10455000D01*
X6776568Y-10425000D02*
X6746568Y-10455000D01*
X6816569Y-10385000D02*
X6846569Y-10415000D01*
X6846569Y-10385000D02*
X6816569Y-10415000D01*
X6889654Y-10345000D02*
X6919654Y-10375000D01*
X6919654Y-10345000D02*
X6889654Y-10375000D01*
X6959654Y-10305000D02*
X6989654Y-10335000D01*
X6989654Y-10305000D02*
X6959654Y-10335000D01*
X7039592Y-10269700D02*
X7069592Y-10299700D01*
X7069592Y-10269700D02*
X7039592Y-10299700D01*
X7105940Y-10225000D02*
X7135940Y-10255000D01*
X7135940Y-10225000D02*
X7105940Y-10255000D01*
X7183135Y-10185000D02*
X7213135Y-10215000D01*
X7213135Y-10185000D02*
X7183135Y-10215000D01*
X7257624Y-10145000D02*
X7287624Y-10175000D01*
X7287624Y-10145000D02*
X7257624Y-10175000D01*
X7331454Y-10105000D02*
X7361454Y-10135000D01*
X7361454Y-10105000D02*
X7331454Y-10135000D01*
X7411454Y-10065000D02*
X7441454Y-10095000D01*
X7441454Y-10065000D02*
X7411454Y-10095000D01*
X7481800Y-10025000D02*
X7511800Y-10055000D01*
X7511800Y-10025000D02*
X7481800Y-10055000D01*
X7555034Y-9985000D02*
X7585034Y-10015000D01*
X7585034Y-9985000D02*
X7555034Y-10015000D01*
X7565000Y-4785000D02*
X7595000Y-4815000D01*
X7595000Y-4785000D02*
X7565000Y-4815000D01*
X7633518Y-9955326D02*
X7663518Y-9985326D01*
X7663518Y-9955326D02*
X7633518Y-9985326D01*
X7700296Y-9911272D02*
X7730296Y-9941272D01*
X7730296Y-9911272D02*
X7700296Y-9941272D01*
X7710700Y-5745000D02*
X7740700Y-5775000D01*
X7740700Y-5745000D02*
X7710700Y-5775000D01*
X7766569Y-9865000D02*
X7796569Y-9895000D01*
X7796569Y-9865000D02*
X7766569Y-9895000D01*
X7826569Y-9805000D02*
X7856569Y-9835000D01*
X7856569Y-9805000D02*
X7826569Y-9835000D01*
X7965000Y-4785000D02*
X7995000Y-4815000D01*
X7995000Y-4785000D02*
X7965000Y-4815000D01*
X7965000Y-6205000D02*
X7995000Y-6235000D01*
X7995000Y-6205000D02*
X7965000Y-6235000D01*
X8165000Y-4785000D02*
X8195000Y-4815000D01*
X8195000Y-4785000D02*
X8165000Y-4815000D01*
X8165000Y-6005000D02*
X8195000Y-6035000D01*
X8195000Y-6005000D02*
X8165000Y-6035000D01*
X8419300Y-5745000D02*
X8449300Y-5775000D01*
X8449300Y-5745000D02*
X8419300Y-5775000D01*
X8565000Y-4785000D02*
X8595000Y-4815000D01*
X8595000Y-4785000D02*
X8565000Y-4815000D01*
X8725000Y-4405000D02*
X8755000Y-4435000D01*
X8755000Y-4405000D02*
X8725000Y-4435000D01*
X9435000Y-4405000D02*
X9465000Y-4435000D01*
X9465000Y-4405000D02*
X9435000Y-4435000D01*
X9745000Y-4405000D02*
X9775000Y-4435000D01*
X9775000Y-4405000D02*
X9745000Y-4435000D01*
X10055000Y-4405000D02*
X10085000Y-4435000D01*
X10085000Y-4405000D02*
X10055000Y-4435000D01*
X10335000Y-4405000D02*
X10365000Y-4435000D01*
X10365000Y-4405000D02*
X10335000Y-4435000D01*
X10366569Y-8505000D02*
X10396569Y-8535000D01*
X10396569Y-8505000D02*
X10366569Y-8535000D01*
X10366569Y-9005000D02*
X10396569Y-9035000D01*
X10396569Y-9005000D02*
X10366569Y-9035000D01*
X10376569Y-7365000D02*
X10406569Y-7395000D01*
X10406569Y-7365000D02*
X10376569Y-7395000D01*
X10376569Y-7855000D02*
X10406569Y-7885000D01*
X10406569Y-7855000D02*
X10376569Y-7885000D01*
X10376569Y-9765000D02*
X10406569Y-9795000D01*
X10406569Y-9765000D02*
X10376569Y-9795000D01*
X10376569Y-10255000D02*
X10406569Y-10285000D01*
X10406569Y-10255000D02*
X10376569Y-10285000D01*
X10376569Y-11015000D02*
X10406569Y-11045000D01*
X10406569Y-11015000D02*
X10376569Y-11045000D01*
X10376569Y-11505000D02*
X10406569Y-11535000D01*
X10406569Y-11505000D02*
X10376569Y-11535000D01*
X10376569Y-12225000D02*
X10406569Y-12255000D01*
X10406569Y-12225000D02*
X10376569Y-12255000D01*
X10376569Y-12715000D02*
X10406569Y-12745000D01*
X10406569Y-12715000D02*
X10376569Y-12745000D01*
X10615000Y-4405000D02*
X10645000Y-4435000D01*
X10645000Y-4405000D02*
X10615000Y-4435000D01*
X10716569Y-8665000D02*
X10746569Y-8695000D01*
X10746569Y-8665000D02*
X10716569Y-8695000D01*
X10716569Y-9145000D02*
X10746569Y-9175000D01*
X10746569Y-9145000D02*
X10716569Y-9175000D01*
X10726569Y-8005000D02*
X10756569Y-8035000D01*
X10756569Y-8005000D02*
X10726569Y-8035000D01*
X10726569Y-9915000D02*
X10756569Y-9945000D01*
X10756569Y-9915000D02*
X10726569Y-9945000D01*
X10726569Y-10395000D02*
X10756569Y-10425000D01*
X10756569Y-10395000D02*
X10726569Y-10425000D01*
X10726569Y-10865000D02*
X10756569Y-10895000D01*
X10756569Y-10865000D02*
X10726569Y-10895000D01*
X10726569Y-11665000D02*
X10756569Y-11695000D01*
X10756569Y-11665000D02*
X10726569Y-11695000D01*
X10726569Y-12085000D02*
X10756569Y-12115000D01*
X10756569Y-12085000D02*
X10726569Y-12115000D01*
X10726569Y-12855000D02*
X10756569Y-12885000D01*
X10756569Y-12855000D02*
X10726569Y-12885000D01*
X10848569Y-8850000D02*
X10878569Y-8880000D01*
X10878569Y-8850000D02*
X10848569Y-8880000D01*
X10848569Y-10100000D02*
X10878569Y-10130000D01*
X10878569Y-10100000D02*
X10848569Y-10130000D01*
X10848569Y-11340000D02*
X10878569Y-11370000D01*
X10878569Y-11340000D02*
X10848569Y-11370000D01*
X10848569Y-12550000D02*
X10878569Y-12580000D01*
X10878569Y-12550000D02*
X10848569Y-12580000D01*
X10858569Y-7690000D02*
X10888569Y-7720000D01*
X10888569Y-7690000D02*
X10858569Y-7720000D01*
X10895000Y-4405000D02*
X10925000Y-4435000D01*
X10925000Y-4405000D02*
X10895000Y-4435000D01*
X10968569Y-12390000D02*
X10998569Y-12420000D01*
X10998569Y-12390000D02*
X10968569Y-12420000D01*
X10978569Y-7540000D02*
X11008569Y-7570000D01*
X11008569Y-7540000D02*
X10978569Y-7570000D01*
X10978569Y-8680000D02*
X11008569Y-8710000D01*
X11008569Y-8680000D02*
X10978569Y-8710000D01*
X10978569Y-9920000D02*
X11008569Y-9950000D01*
X11008569Y-9920000D02*
X10978569Y-9950000D01*
X10978569Y-11180000D02*
X11008569Y-11210000D01*
X11008569Y-11180000D02*
X10978569Y-11210000D01*
X11226569Y-8655000D02*
X11256569Y-8685000D01*
X11256569Y-8655000D02*
X11226569Y-8685000D01*
X11226569Y-9145000D02*
X11256569Y-9175000D01*
X11256569Y-9145000D02*
X11226569Y-9175000D01*
X11226569Y-11665000D02*
X11256569Y-11695000D01*
X11256569Y-11665000D02*
X11226569Y-11695000D01*
X11226569Y-12085000D02*
X11256569Y-12115000D01*
X11256569Y-12085000D02*
X11226569Y-12115000D01*
X11226569Y-12865000D02*
X11256569Y-12895000D01*
X11256569Y-12865000D02*
X11226569Y-12895000D01*
X11236569Y-8005000D02*
X11266569Y-8035000D01*
X11266569Y-8005000D02*
X11236569Y-8035000D01*
X11236569Y-9915000D02*
X11266569Y-9945000D01*
X11266569Y-9915000D02*
X11236569Y-9945000D01*
X11236569Y-10405000D02*
X11266569Y-10435000D01*
X11266569Y-10405000D02*
X11236569Y-10435000D01*
X11236569Y-10865000D02*
X11266569Y-10895000D01*
X11266569Y-10865000D02*
X11236569Y-10895000D01*
X11356569Y-7195000D02*
X11386569Y-7225000D01*
X11386569Y-7195000D02*
X11356569Y-7225000D01*
X12086569Y-11585000D02*
X12116569Y-11615000D01*
X12116569Y-11585000D02*
X12086569Y-11615000D01*
X12086569Y-11985000D02*
X12116569Y-12015000D01*
X12116569Y-11985000D02*
X12086569Y-12015000D01*
X12086569Y-12435000D02*
X12116569Y-12465000D01*
X12116569Y-12435000D02*
X12086569Y-12465000D01*
X12086569Y-12935000D02*
X12116569Y-12965000D01*
X12116569Y-12935000D02*
X12086569Y-12965000D01*
X12456569Y-11755000D02*
X12486569Y-11785000D01*
X12486569Y-11755000D02*
X12456569Y-11785000D01*
X12456569Y-12175000D02*
X12486569Y-12205000D01*
X12486569Y-12175000D02*
X12456569Y-12205000D01*
X12456569Y-12615000D02*
X12486569Y-12645000D01*
X12486569Y-12615000D02*
X12456569Y-12645000D01*
X12456569Y-13095000D02*
X12486569Y-13125000D01*
X12486569Y-13095000D02*
X12456569Y-13125000D01*
X12816569Y-11585000D02*
X12846569Y-11615000D01*
X12846569Y-11585000D02*
X12816569Y-11615000D01*
X12816569Y-11975000D02*
X12846569Y-12005000D01*
X12846569Y-11975000D02*
X12816569Y-12005000D01*
X12816569Y-12435000D02*
X12846569Y-12465000D01*
X12846569Y-12435000D02*
X12816569Y-12465000D01*
X12816569Y-12935000D02*
X12846569Y-12965000D01*
X12846569Y-12935000D02*
X12816569Y-12965000D01*
X16176569Y-7995000D02*
X16206569Y-8025000D01*
X16206569Y-7995000D02*
X16176569Y-8025000D01*
X16286569Y-6995000D02*
X16316569Y-7025000D01*
X16316569Y-6995000D02*
X16286569Y-7025000D01*
X16286569Y-7195000D02*
X16316569Y-7225000D01*
X16316569Y-7195000D02*
X16286569Y-7225000D01*
X16286569Y-7395000D02*
X16316569Y-7425000D01*
X16316569Y-7395000D02*
X16286569Y-7425000D01*
X16286569Y-7595000D02*
X16316569Y-7625000D01*
X16316569Y-7595000D02*
X16286569Y-7625000D01*
X16286569Y-8595000D02*
X16316569Y-8625000D01*
X16316569Y-8595000D02*
X16286569Y-8625000D01*
X16286569Y-9195000D02*
X16316569Y-9225000D01*
X16316569Y-9195000D02*
X16286569Y-9225000D01*
X16456569Y-9795000D02*
X16486569Y-9825000D01*
X16486569Y-9795000D02*
X16456569Y-9825000D01*
X16456569Y-9995000D02*
X16486569Y-10025000D01*
X16486569Y-9995000D02*
X16456569Y-10025000D01*
X16456569Y-10185000D02*
X16486569Y-10215000D01*
X16486569Y-10185000D02*
X16456569Y-10215000D01*
X16456569Y-10385000D02*
X16486569Y-10415000D01*
X16486569Y-10385000D02*
X16456569Y-10415000D01*
X16456569Y-10595000D02*
X16486569Y-10625000D01*
X16486569Y-10595000D02*
X16456569Y-10625000D01*
X16456569Y-10795000D02*
X16486569Y-10825000D01*
X16486569Y-10795000D02*
X16456569Y-10825000D01*
X16456569Y-10995000D02*
X16486569Y-11025000D01*
X16486569Y-10995000D02*
X16456569Y-11025000D01*
X16456569Y-11195000D02*
X16486569Y-11225000D01*
X16486569Y-11195000D02*
X16456569Y-11225000D01*
X16456569Y-11405000D02*
X16486569Y-11435000D01*
X16486569Y-11405000D02*
X16456569Y-11435000D01*
X16456569Y-11595000D02*
X16486569Y-11625000D01*
X16486569Y-11595000D02*
X16456569Y-11625000D01*
X16456569Y-11785000D02*
X16486569Y-11815000D01*
X16486569Y-11785000D02*
X16456569Y-11815000D01*
X16456569Y-11985000D02*
X16486569Y-12015000D01*
X16486569Y-11985000D02*
X16456569Y-12015000D01*
X16456569Y-12175000D02*
X16486569Y-12205000D01*
X16486569Y-12175000D02*
X16456569Y-12205000D01*
X16456569Y-12385000D02*
X16486569Y-12415000D01*
X16486569Y-12385000D02*
X16456569Y-12415000D01*
X16456569Y-12585000D02*
X16486569Y-12615000D01*
X16486569Y-12585000D02*
X16456569Y-12615000D01*
X16456569Y-12785000D02*
X16486569Y-12815000D01*
X16486569Y-12785000D02*
X16456569Y-12815000D01*
X16456569Y-12995000D02*
X16486569Y-13025000D01*
X16486569Y-12995000D02*
X16456569Y-13025000D01*
X16456569Y-13195000D02*
X16486569Y-13225000D01*
X16486569Y-13195000D02*
X16456569Y-13225000D01*
X13234069Y-11488000D02*
G75*
G02*
X13157069Y-11488000I-38500J0D01*
G01*
X13157069Y-11488000D02*
G75*
G02*
X13234069Y-11488000I38500J0D01*
G01*
X13234069Y-11742000D02*
G75*
G02*
X13157069Y-11742000I-38500J0D01*
G01*
X13157069Y-11742000D02*
G75*
G02*
X13234069Y-11742000I38500J0D01*
G01*
X13234069Y-11996000D02*
G75*
G02*
X13157069Y-11996000I-38500J0D01*
G01*
X13157069Y-11996000D02*
G75*
G02*
X13234069Y-11996000I38500J0D01*
G01*
X13234069Y-12250000D02*
G75*
G02*
X13157069Y-12250000I-38500J0D01*
G01*
X13157069Y-12250000D02*
G75*
G02*
X13234069Y-12250000I38500J0D01*
G01*
X13234069Y-12504000D02*
G75*
G02*
X13157069Y-12504000I-38500J0D01*
G01*
X13157069Y-12504000D02*
G75*
G02*
X13234069Y-12504000I38500J0D01*
G01*
X13234069Y-12758000D02*
G75*
G02*
X13157069Y-12758000I-38500J0D01*
G01*
X13157069Y-12758000D02*
G75*
G02*
X13234069Y-12758000I38500J0D01*
G01*
X13234069Y-13012000D02*
G75*
G02*
X13157069Y-13012000I-38500J0D01*
G01*
X13157069Y-13012000D02*
G75*
G02*
X13234069Y-13012000I38500J0D01*
G01*
X14028069Y-11488000D02*
G75*
G02*
X13951069Y-11488000I-38500J0D01*
G01*
X13951069Y-11488000D02*
G75*
G02*
X14028069Y-11488000I38500J0D01*
G01*
X14028069Y-11742000D02*
G75*
G02*
X13951069Y-11742000I-38500J0D01*
G01*
X13951069Y-11742000D02*
G75*
G02*
X14028069Y-11742000I38500J0D01*
G01*
X14028069Y-11996000D02*
G75*
G02*
X13951069Y-11996000I-38500J0D01*
G01*
X13951069Y-11996000D02*
G75*
G02*
X14028069Y-11996000I38500J0D01*
G01*
X14028069Y-12250000D02*
G75*
G02*
X13951069Y-12250000I-38500J0D01*
G01*
X13951069Y-12250000D02*
G75*
G02*
X14028069Y-12250000I38500J0D01*
G01*
X14028069Y-12504000D02*
G75*
G02*
X13951069Y-12504000I-38500J0D01*
G01*
X13951069Y-12504000D02*
G75*
G02*
X14028069Y-12504000I38500J0D01*
G01*
X14028069Y-12758000D02*
G75*
G02*
X13951069Y-12758000I-38500J0D01*
G01*
X13951069Y-12758000D02*
G75*
G02*
X14028069Y-12758000I38500J0D01*
G01*
X14028069Y-13012000D02*
G75*
G02*
X13951069Y-13012000I-38500J0D01*
G01*
X13951069Y-13012000D02*
G75*
G02*
X14028069Y-13012000I38500J0D01*
G01*
X14440069Y-11492000D02*
G75*
G02*
X14363069Y-11492000I-38500J0D01*
G01*
X14363069Y-11492000D02*
G75*
G02*
X14440069Y-11492000I38500J0D01*
G01*
X14440069Y-11746000D02*
G75*
G02*
X14363069Y-11746000I-38500J0D01*
G01*
X14363069Y-11746000D02*
G75*
G02*
X14440069Y-11746000I38500J0D01*
G01*
X14440069Y-12000000D02*
G75*
G02*
X14363069Y-12000000I-38500J0D01*
G01*
X14363069Y-12000000D02*
G75*
G02*
X14440069Y-12000000I38500J0D01*
G01*
X14440069Y-12254000D02*
G75*
G02*
X14363069Y-12254000I-38500J0D01*
G01*
X14363069Y-12254000D02*
G75*
G02*
X14440069Y-12254000I38500J0D01*
G01*
X14440069Y-12508000D02*
G75*
G02*
X14363069Y-12508000I-38500J0D01*
G01*
X14363069Y-12508000D02*
G75*
G02*
X14440069Y-12508000I38500J0D01*
G01*
X14440069Y-12762000D02*
G75*
G02*
X14363069Y-12762000I-38500J0D01*
G01*
X14363069Y-12762000D02*
G75*
G02*
X14440069Y-12762000I38500J0D01*
G01*
X14440069Y-13016000D02*
G75*
G02*
X14363069Y-13016000I-38500J0D01*
G01*
X14363069Y-13016000D02*
G75*
G02*
X14440069Y-13016000I38500J0D01*
G01*
X15234069Y-11492000D02*
G75*
G02*
X15157069Y-11492000I-38500J0D01*
G01*
X15157069Y-11492000D02*
G75*
G02*
X15234069Y-11492000I38500J0D01*
G01*
X15234069Y-11746000D02*
G75*
G02*
X15157069Y-11746000I-38500J0D01*
G01*
X15157069Y-11746000D02*
G75*
G02*
X15234069Y-11746000I38500J0D01*
G01*
X15234069Y-12000000D02*
G75*
G02*
X15157069Y-12000000I-38500J0D01*
G01*
X15157069Y-12000000D02*
G75*
G02*
X15234069Y-12000000I38500J0D01*
G01*
X15234069Y-12254000D02*
G75*
G02*
X15157069Y-12254000I-38500J0D01*
G01*
X15157069Y-12254000D02*
G75*
G02*
X15234069Y-12254000I38500J0D01*
G01*
X15234069Y-12508000D02*
G75*
G02*
X15157069Y-12508000I-38500J0D01*
G01*
X15157069Y-12508000D02*
G75*
G02*
X15234069Y-12508000I38500J0D01*
G01*
X15234069Y-12762000D02*
G75*
G02*
X15157069Y-12762000I-38500J0D01*
G01*
X15157069Y-12762000D02*
G75*
G02*
X15234069Y-12762000I38500J0D01*
G01*
X15234069Y-13016000D02*
G75*
G02*
X15157069Y-13016000I-38500J0D01*
G01*
X15157069Y-13016000D02*
G75*
G02*
X15234069Y-13016000I38500J0D01*
G01*
X1596000Y-3546000D02*
X1596000Y-3626000D01*
X1556000Y-3586000D02*
X1636000Y-3586000D01*
X1850000Y-3546000D02*
X1850000Y-3626000D01*
X1810000Y-3586000D02*
X1890000Y-3586000D01*
X2053569Y-11433000D02*
X2053569Y-11513000D01*
X2013569Y-11473000D02*
X2093569Y-11473000D01*
X2053569Y-11687000D02*
X2053569Y-11767000D01*
X2013569Y-11727000D02*
X2093569Y-11727000D01*
X2104000Y-3546000D02*
X2104000Y-3626000D01*
X2064000Y-3586000D02*
X2144000Y-3586000D01*
X2996000Y-3546000D02*
X2996000Y-3626000D01*
X2956000Y-3586000D02*
X3036000Y-3586000D01*
X3250000Y-3546000D02*
X3250000Y-3626000D01*
X3210000Y-3586000D02*
X3290000Y-3586000D01*
X3277569Y-11041840D02*
X3277569Y-11121840D01*
X3237569Y-11081840D02*
X3317569Y-11081840D01*
X3277569Y-11241840D02*
X3277569Y-11321840D01*
X3237569Y-11281840D02*
X3317569Y-11281840D01*
X3277569Y-11441840D02*
X3277569Y-11521840D01*
X3237569Y-11481840D02*
X3317569Y-11481840D01*
X3477569Y-11041840D02*
X3477569Y-11121840D01*
X3437569Y-11081840D02*
X3517569Y-11081840D01*
X3477569Y-11241840D02*
X3477569Y-11321840D01*
X3437569Y-11281840D02*
X3517569Y-11281840D01*
X3477569Y-11441840D02*
X3477569Y-11521840D01*
X3437569Y-11481840D02*
X3517569Y-11481840D01*
X3504000Y-3546000D02*
X3504000Y-3626000D01*
X3464000Y-3586000D02*
X3544000Y-3586000D01*
X4396000Y-3546000D02*
X4396000Y-3626000D01*
X4356000Y-3586000D02*
X4436000Y-3586000D01*
X4650000Y-3546000D02*
X4650000Y-3626000D01*
X4610000Y-3586000D02*
X4690000Y-3586000D01*
X4904000Y-3546000D02*
X4904000Y-3626000D01*
X4864000Y-3586000D02*
X4944000Y-3586000D01*
X5796000Y-3546000D02*
X5796000Y-3626000D01*
X5756000Y-3586000D02*
X5836000Y-3586000D01*
X6050000Y-3546000D02*
X6050000Y-3626000D01*
X6010000Y-3586000D02*
X6090000Y-3586000D01*
X6304000Y-3546000D02*
X6304000Y-3626000D01*
X6264000Y-3586000D02*
X6344000Y-3586000D01*
X7196000Y-3546000D02*
X7196000Y-3626000D01*
X7156000Y-3586000D02*
X7236000Y-3586000D01*
X7450000Y-3546000D02*
X7450000Y-3626000D01*
X7410000Y-3586000D02*
X7490000Y-3586000D01*
X7704000Y-3546000D02*
X7704000Y-3626000D01*
X7664000Y-3586000D02*
X7744000Y-3586000D01*
X8596000Y-3546000D02*
X8596000Y-3626000D01*
X8556000Y-3586000D02*
X8636000Y-3586000D01*
X8850000Y-3546000D02*
X8850000Y-3626000D01*
X8810000Y-3586000D02*
X8890000Y-3586000D01*
X9104000Y-3546000D02*
X9104000Y-3626000D01*
X9064000Y-3586000D02*
X9144000Y-3586000D01*
X9996000Y-3546000D02*
X9996000Y-3626000D01*
X9956000Y-3586000D02*
X10036000Y-3586000D01*
X10250000Y-3546000D02*
X10250000Y-3626000D01*
X10210000Y-3586000D02*
X10290000Y-3586000D01*
X10504000Y-3546000D02*
X10504000Y-3626000D01*
X10464000Y-3586000D02*
X10544000Y-3586000D01*
X11396000Y-3546000D02*
X11396000Y-3626000D01*
X11356000Y-3586000D02*
X11436000Y-3586000D01*
X11650000Y-3546000D02*
X11650000Y-3626000D01*
X11610000Y-3586000D02*
X11690000Y-3586000D01*
X11904000Y-3546000D02*
X11904000Y-3626000D01*
X11864000Y-3586000D02*
X11944000Y-3586000D01*
X12796000Y-3546000D02*
X12796000Y-3626000D01*
X12756000Y-3586000D02*
X12836000Y-3586000D01*
X13050000Y-3546000D02*
X13050000Y-3626000D01*
X13010000Y-3586000D02*
X13090000Y-3586000D01*
X13304000Y-3546000D02*
X13304000Y-3626000D01*
X13264000Y-3586000D02*
X13344000Y-3586000D01*
X14196000Y-3546000D02*
X14196000Y-3626000D01*
X14156000Y-3586000D02*
X14236000Y-3586000D01*
X14450000Y-3546000D02*
X14450000Y-3626000D01*
X14410000Y-3586000D02*
X14490000Y-3586000D01*
X14704000Y-3546000D02*
X14704000Y-3626000D01*
X14664000Y-3586000D02*
X14744000Y-3586000D01*
X15596000Y-3546000D02*
X15596000Y-3626000D01*
X15556000Y-3586000D02*
X15636000Y-3586000D01*
X15850000Y-3546000D02*
X15850000Y-3626000D01*
X15810000Y-3586000D02*
X15890000Y-3586000D01*
X16104000Y-3546000D02*
X16104000Y-3626000D01*
X16064000Y-3586000D02*
X16144000Y-3586000D01*
X16996000Y-3546000D02*
X16996000Y-3626000D01*
X16956000Y-3586000D02*
X17036000Y-3586000D01*
X17250000Y-3546000D02*
X17250000Y-3626000D01*
X17210000Y-3586000D02*
X17290000Y-3586000D01*
X17504000Y-3546000D02*
X17504000Y-3626000D01*
X17464000Y-3586000D02*
X17544000Y-3586000D01*
X18396000Y-3546000D02*
X18396000Y-3626000D01*
X18356000Y-3586000D02*
X18436000Y-3586000D01*
X18650000Y-3546000D02*
X18650000Y-3626000D01*
X18610000Y-3586000D02*
X18690000Y-3586000D01*
X18904000Y-3546000D02*
X18904000Y-3626000D01*
X18864000Y-3586000D02*
X18944000Y-3586000D01*
X19796000Y-3546000D02*
X19796000Y-3626000D01*
X19756000Y-3586000D02*
X19836000Y-3586000D01*
X20050000Y-3546000D02*
X20050000Y-3626000D01*
X20010000Y-3586000D02*
X20090000Y-3586000D01*
X20304000Y-3546000D02*
X20304000Y-3626000D01*
X20264000Y-3586000D02*
X20344000Y-3586000D01*
X21196000Y-3546000D02*
X21196000Y-3626000D01*
X21156000Y-3586000D02*
X21236000Y-3586000D01*
X21450000Y-3546000D02*
X21450000Y-3626000D01*
X21410000Y-3586000D02*
X21490000Y-3586000D01*
X21704000Y-3546000D02*
X21704000Y-3626000D01*
X21664000Y-3586000D02*
X21744000Y-3586000D01*
X22596000Y-3546000D02*
X22596000Y-3626000D01*
X22556000Y-3586000D02*
X22636000Y-3586000D01*
X22850000Y-3546000D02*
X22850000Y-3626000D01*
X22810000Y-3586000D02*
X22890000Y-3586000D01*
X23104000Y-3546000D02*
X23104000Y-3626000D01*
X23064000Y-3586000D02*
X23144000Y-3586000D01*
X23996000Y-3546000D02*
X23996000Y-3626000D01*
X23956000Y-3586000D02*
X24036000Y-3586000D01*
X24250000Y-3546000D02*
X24250000Y-3626000D01*
X24210000Y-3586000D02*
X24290000Y-3586000D01*
X24504000Y-3546000D02*
X24504000Y-3626000D01*
X24464000Y-3586000D02*
X24544000Y-3586000D01*
X25396000Y-3546000D02*
X25396000Y-3626000D01*
X25356000Y-3586000D02*
X25436000Y-3586000D01*
X25650000Y-3546000D02*
X25650000Y-3626000D01*
X25610000Y-3586000D02*
X25690000Y-3586000D01*
X25904000Y-3546000D02*
X25904000Y-3626000D01*
X25864000Y-3586000D02*
X25944000Y-3586000D01*
D13*
X2313631Y-7936063D02*
X2313631Y-7863937D01*
X2241506Y-7863937D01*
X2241506Y-7936063D01*
X2313631Y-7936063D01*
X2313631Y-8190063D02*
X2313631Y-8117937D01*
X2241506Y-8117937D01*
X2241506Y-8190063D01*
X2313631Y-8190063D01*
X2567631Y-7936063D02*
X2567631Y-7863937D01*
X2495506Y-7863937D01*
X2495506Y-7936063D01*
X2567631Y-7936063D01*
X2567631Y-8190063D02*
X2567631Y-8117937D01*
X2495506Y-8117937D01*
X2495506Y-8190063D01*
X2567631Y-8190063D01*
X2821631Y-7936063D02*
X2821631Y-7863937D01*
X2749506Y-7863937D01*
X2749506Y-7936063D01*
X2821631Y-7936063D01*
X2821631Y-8190063D02*
X2821631Y-8117937D01*
X2749506Y-8117937D01*
X2749506Y-8190063D01*
X2821631Y-8190063D01*
X3075631Y-7936063D02*
X3075631Y-7863937D01*
X3003506Y-7863937D01*
X3003506Y-7936063D01*
X3075631Y-7936063D01*
X3075631Y-8190063D02*
X3075631Y-8117937D01*
X3003506Y-8117937D01*
X3003506Y-8190063D01*
X3075631Y-8190063D01*
X3329631Y-7936063D02*
X3329631Y-7863937D01*
X3257506Y-7863937D01*
X3257506Y-7936063D01*
X3329631Y-7936063D01*
X3329631Y-8190063D02*
X3329631Y-8117937D01*
X3257506Y-8117937D01*
X3257506Y-8190063D01*
X3329631Y-8190063D01*
X3583631Y-7936063D02*
X3583631Y-7863937D01*
X3511506Y-7863937D01*
X3511506Y-7936063D01*
X3583631Y-7936063D01*
X3583631Y-8190063D02*
X3583631Y-8117937D01*
X3511506Y-8117937D01*
X3511506Y-8190063D01*
X3583631Y-8190063D01*
X3837631Y-7936063D02*
X3837631Y-7863937D01*
X3765506Y-7863937D01*
X3765506Y-7936063D01*
X3837631Y-7936063D01*
X3837631Y-8190063D02*
X3837631Y-8117937D01*
X3765506Y-8117937D01*
X3765506Y-8190063D01*
X3837631Y-8190063D01*
X4091631Y-7936063D02*
X4091631Y-7863937D01*
X4019506Y-7863937D01*
X4019506Y-7936063D01*
X4091631Y-7936063D01*
X4091631Y-8190063D02*
X4091631Y-8117937D01*
X4019506Y-8117937D01*
X4019506Y-8190063D01*
X4091631Y-8190063D01*
X4345631Y-7936063D02*
X4345631Y-7863937D01*
X4273506Y-7863937D01*
X4273506Y-7936063D01*
X4345631Y-7936063D01*
X4345631Y-8190063D02*
X4345631Y-8117937D01*
X4273506Y-8117937D01*
X4273506Y-8190063D01*
X4345631Y-8190063D01*
X4599631Y-7936063D02*
X4599631Y-7863937D01*
X4527506Y-7863937D01*
X4527506Y-7936063D01*
X4599631Y-7936063D01*
X4599631Y-8190063D02*
X4599631Y-8117937D01*
X4527506Y-8117937D01*
X4527506Y-8190063D01*
X4599631Y-8190063D01*
X4853631Y-7936063D02*
X4853631Y-7863937D01*
X4781506Y-7863937D01*
X4781506Y-7936063D01*
X4853631Y-7936063D01*
X4853631Y-8190063D02*
X4853631Y-8117937D01*
X4781506Y-8117937D01*
X4781506Y-8190063D01*
X4853631Y-8190063D01*
X5107631Y-7936063D02*
X5107631Y-7863937D01*
X5035506Y-7863937D01*
X5035506Y-7936063D01*
X5107631Y-7936063D01*
X5107631Y-8190063D02*
X5107631Y-8117937D01*
X5035506Y-8117937D01*
X5035506Y-8190063D01*
X5107631Y-8190063D01*
X5361631Y-7936063D02*
X5361631Y-7863937D01*
X5289506Y-7863937D01*
X5289506Y-7936063D01*
X5361631Y-7936063D01*
X5361631Y-8190063D02*
X5361631Y-8117937D01*
X5289506Y-8117937D01*
X5289506Y-8190063D01*
X5361631Y-8190063D01*
X5615631Y-7936063D02*
X5615631Y-7863937D01*
X5543506Y-7863937D01*
X5543506Y-7936063D01*
X5615631Y-7936063D01*
X5615631Y-8190063D02*
X5615631Y-8117937D01*
X5543506Y-8117937D01*
X5543506Y-8190063D01*
X5615631Y-8190063D01*
X5869631Y-7936063D02*
X5869631Y-7863937D01*
X5797506Y-7863937D01*
X5797506Y-7936063D01*
X5869631Y-7936063D01*
X5869631Y-8190063D02*
X5869631Y-8117937D01*
X5797506Y-8117937D01*
X5797506Y-8190063D01*
X5869631Y-8190063D01*
X6123631Y-7936063D02*
X6123631Y-7863937D01*
X6051506Y-7863937D01*
X6051506Y-7936063D01*
X6123631Y-7936063D01*
X6123631Y-8190063D02*
X6123631Y-8117937D01*
X6051506Y-8117937D01*
X6051506Y-8190063D01*
X6123631Y-8190063D01*
X6377631Y-7936063D02*
X6377631Y-7863937D01*
X6305506Y-7863937D01*
X6305506Y-7936063D01*
X6377631Y-7936063D01*
X6377631Y-8190063D02*
X6377631Y-8117937D01*
X6305506Y-8117937D01*
X6305506Y-8190063D01*
X6377631Y-8190063D01*
X6631631Y-7936063D02*
X6631631Y-7863937D01*
X6559506Y-7863937D01*
X6559506Y-7936063D01*
X6631631Y-7936063D01*
X6631631Y-8190063D02*
X6631631Y-8117937D01*
X6559506Y-8117937D01*
X6559506Y-8190063D01*
X6631631Y-8190063D01*
X6885631Y-7936063D02*
X6885631Y-7863937D01*
X6813506Y-7863937D01*
X6813506Y-7936063D01*
X6885631Y-7936063D01*
X6885631Y-8190063D02*
X6885631Y-8117937D01*
X6813506Y-8117937D01*
X6813506Y-8190063D01*
X6885631Y-8190063D01*
X7139631Y-7936063D02*
X7139631Y-7863937D01*
X7067506Y-7863937D01*
X7067506Y-7936063D01*
X7139631Y-7936063D01*
X7139631Y-8190063D02*
X7139631Y-8117937D01*
X7067506Y-8117937D01*
X7067506Y-8190063D01*
X7139631Y-8190063D01*
D14*
X1980569Y-10893000D02*
X2035569Y-10838000D01*
X1980569Y-10783000D01*
X1925569Y-10838000D01*
X1980569Y-10893000D01*
X1980569Y-12417000D02*
X2035569Y-12362000D01*
X1980569Y-12307000D01*
X1925569Y-12362000D01*
X1980569Y-12417000D01*
X2234569Y-10893000D02*
X2289569Y-10838000D01*
X2234569Y-10783000D01*
X2179569Y-10838000D01*
X2234569Y-10893000D01*
X2234569Y-11147000D02*
X2289569Y-11092000D01*
X2234569Y-11037000D01*
X2179569Y-11092000D01*
X2234569Y-11147000D01*
X2234569Y-12417000D02*
X2289569Y-12362000D01*
X2234569Y-12307000D01*
X2179569Y-12362000D01*
X2234569Y-12417000D01*
X2488569Y-10893000D02*
X2543569Y-10838000D01*
X2488569Y-10783000D01*
X2433569Y-10838000D01*
X2488569Y-10893000D01*
X2488569Y-12417000D02*
X2543569Y-12362000D01*
X2488569Y-12307000D01*
X2433569Y-12362000D01*
X2488569Y-12417000D01*
X2610489Y-12111920D02*
X2665489Y-12056920D01*
X2610489Y-12001920D01*
X2555489Y-12056920D01*
X2610489Y-12111920D01*
X2742569Y-10893000D02*
X2797569Y-10838000D01*
X2742569Y-10783000D01*
X2687569Y-10838000D01*
X2742569Y-10893000D01*
X2742569Y-12417000D02*
X2797569Y-12362000D01*
X2742569Y-12307000D01*
X2687569Y-12362000D01*
X2742569Y-12417000D01*
X2864489Y-12111920D02*
X2919489Y-12056920D01*
X2864489Y-12001920D01*
X2809489Y-12056920D01*
X2864489Y-12111920D01*
X2996569Y-10893000D02*
X3051569Y-10838000D01*
X2996569Y-10783000D01*
X2941569Y-10838000D01*
X2996569Y-10893000D01*
X2996569Y-12417000D02*
X3051569Y-12362000D01*
X2996569Y-12307000D01*
X2941569Y-12362000D01*
X2996569Y-12417000D01*
X3118489Y-12111920D02*
X3173489Y-12056920D01*
X3118489Y-12001920D01*
X3063489Y-12056920D01*
X3118489Y-12111920D01*
X3250569Y-10893000D02*
X3305569Y-10838000D01*
X3250569Y-10783000D01*
X3195569Y-10838000D01*
X3250569Y-10893000D01*
X3250569Y-12417000D02*
X3305569Y-12362000D01*
X3250569Y-12307000D01*
X3195569Y-12362000D01*
X3250569Y-12417000D01*
X3372489Y-12111920D02*
X3427489Y-12056920D01*
X3372489Y-12001920D01*
X3317489Y-12056920D01*
X3372489Y-12111920D01*
X3504569Y-10893000D02*
X3559569Y-10838000D01*
X3504569Y-10783000D01*
X3449569Y-10838000D01*
X3504569Y-10893000D01*
X3504569Y-12417000D02*
X3559569Y-12362000D01*
X3504569Y-12307000D01*
X3449569Y-12362000D01*
X3504569Y-12417000D01*
X3626489Y-12111920D02*
X3681489Y-12056920D01*
X3626489Y-12001920D01*
X3571489Y-12056920D01*
X3626489Y-12111920D01*
X3758569Y-10893000D02*
X3813569Y-10838000D01*
X3758569Y-10783000D01*
X3703569Y-10838000D01*
X3758569Y-10893000D01*
X3758569Y-12417000D02*
X3813569Y-12362000D01*
X3758569Y-12307000D01*
X3703569Y-12362000D01*
X3758569Y-12417000D01*
X4012569Y-10893000D02*
X4067569Y-10838000D01*
X4012569Y-10783000D01*
X3957569Y-10838000D01*
X4012569Y-10893000D01*
X4012569Y-12417000D02*
X4067569Y-12362000D01*
X4012569Y-12307000D01*
X3957569Y-12362000D01*
X4012569Y-12417000D01*
X4266569Y-10893000D02*
X4321569Y-10838000D01*
X4266569Y-10783000D01*
X4211569Y-10838000D01*
X4266569Y-10893000D01*
X4266569Y-12417000D02*
X4321569Y-12362000D01*
X4266569Y-12307000D01*
X4211569Y-12362000D01*
X4266569Y-12417000D01*
X4520569Y-10893000D02*
X4575569Y-10838000D01*
X4520569Y-10783000D01*
X4465569Y-10838000D01*
X4520569Y-10893000D01*
X4520569Y-12417000D02*
X4575569Y-12362000D01*
X4520569Y-12307000D01*
X4465569Y-12362000D01*
X4520569Y-12417000D01*
X4774569Y-10893000D02*
X4829569Y-10838000D01*
X4774569Y-10783000D01*
X4719569Y-10838000D01*
X4774569Y-10893000D01*
X4774569Y-12417000D02*
X4829569Y-12362000D01*
X4774569Y-12307000D01*
X4719569Y-12362000D01*
X4774569Y-12417000D01*
X5028569Y-10893000D02*
X5083569Y-10838000D01*
X5028569Y-10783000D01*
X4973569Y-10838000D01*
X5028569Y-10893000D01*
X5028569Y-12417000D02*
X5083569Y-12362000D01*
X5028569Y-12307000D01*
X4973569Y-12362000D01*
X5028569Y-12417000D01*
X5282569Y-10893000D02*
X5337569Y-10838000D01*
X5282569Y-10783000D01*
X5227569Y-10838000D01*
X5282569Y-10893000D01*
X5282569Y-12417000D02*
X5337569Y-12362000D01*
X5282569Y-12307000D01*
X5227569Y-12362000D01*
X5282569Y-12417000D01*
X5536569Y-10893000D02*
X5591569Y-10838000D01*
X5536569Y-10783000D01*
X5481569Y-10838000D01*
X5536569Y-10893000D01*
X5536569Y-12417000D02*
X5591569Y-12362000D01*
X5536569Y-12307000D01*
X5481569Y-12362000D01*
X5536569Y-12417000D01*
X5790569Y-10893000D02*
X5845569Y-10838000D01*
X5790569Y-10783000D01*
X5735569Y-10838000D01*
X5790569Y-10893000D01*
X5790569Y-12417000D02*
X5845569Y-12362000D01*
X5790569Y-12307000D01*
X5735569Y-12362000D01*
X5790569Y-12417000D01*
X6044569Y-10893000D02*
X6099569Y-10838000D01*
X6044569Y-10783000D01*
X5989569Y-10838000D01*
X6044569Y-10893000D01*
X6044569Y-12417000D02*
X6099569Y-12362000D01*
X6044569Y-12307000D01*
X5989569Y-12362000D01*
X6044569Y-12417000D01*
X6298569Y-10893000D02*
X6353569Y-10838000D01*
X6298569Y-10783000D01*
X6243569Y-10838000D01*
X6298569Y-10893000D01*
X6298569Y-12417000D02*
X6353569Y-12362000D01*
X6298569Y-12307000D01*
X6243569Y-12362000D01*
X6298569Y-12417000D01*
X6552569Y-10893000D02*
X6607569Y-10838000D01*
X6552569Y-10783000D01*
X6497569Y-10838000D01*
X6552569Y-10893000D01*
X6552569Y-11147000D02*
X6607569Y-11092000D01*
X6552569Y-11037000D01*
X6497569Y-11092000D01*
X6552569Y-11147000D01*
X6552569Y-11401000D02*
X6607569Y-11346000D01*
X6552569Y-11291000D01*
X6497569Y-11346000D01*
X6552569Y-11401000D01*
X6552569Y-11655000D02*
X6607569Y-11600000D01*
X6552569Y-11545000D01*
X6497569Y-11600000D01*
X6552569Y-11655000D01*
X6552569Y-11909000D02*
X6607569Y-11854000D01*
X6552569Y-11799000D01*
X6497569Y-11854000D01*
X6552569Y-11909000D01*
X6552569Y-12163000D02*
X6607569Y-12108000D01*
X6552569Y-12053000D01*
X6497569Y-12108000D01*
X6552569Y-12163000D01*
X6552569Y-12417000D02*
X6607569Y-12362000D01*
X6552569Y-12307000D01*
X6497569Y-12362000D01*
X6552569Y-12417000D01*
X6806569Y-10893000D02*
X6861569Y-10838000D01*
X6806569Y-10783000D01*
X6751569Y-10838000D01*
X6806569Y-10893000D01*
X6806569Y-12417000D02*
X6861569Y-12362000D01*
X6806569Y-12307000D01*
X6751569Y-12362000D01*
X6806569Y-12417000D01*
X7060569Y-10893000D02*
X7115569Y-10838000D01*
X7060569Y-10783000D01*
X7005569Y-10838000D01*
X7060569Y-10893000D01*
X7060569Y-12417000D02*
X7115569Y-12362000D01*
X7060569Y-12307000D01*
X7005569Y-12362000D01*
X7060569Y-12417000D01*
X7314569Y-10893000D02*
X7369569Y-10838000D01*
X7314569Y-10783000D01*
X7259569Y-10838000D01*
X7314569Y-10893000D01*
X7314569Y-12417000D02*
X7369569Y-12362000D01*
X7314569Y-12307000D01*
X7259569Y-12362000D01*
X7314569Y-12417000D01*
X7568569Y-10893000D02*
X7623569Y-10838000D01*
X7568569Y-10783000D01*
X7513569Y-10838000D01*
X7568569Y-10893000D01*
X7568569Y-12417000D02*
X7623569Y-12362000D01*
X7568569Y-12307000D01*
X7513569Y-12362000D01*
X7568569Y-12417000D01*
X7822569Y-10893000D02*
X7877569Y-10838000D01*
X7822569Y-10783000D01*
X7767569Y-10838000D01*
X7822569Y-10893000D01*
X7822569Y-12417000D02*
X7877569Y-12362000D01*
X7822569Y-12307000D01*
X7767569Y-12362000D01*
X7822569Y-12417000D01*
D11*
X1558277Y-14113984D02*
X1558277Y-13913984D01*
X1558277Y-13913984D02*
X1605896Y-13913984D01*
X1605896Y-13913984D02*
X1634467Y-13923508D01*
X1634467Y-13923508D02*
X1653515Y-13942555D01*
X1653515Y-13942555D02*
X1663039Y-13961603D01*
X1663039Y-13961603D02*
X1672562Y-13999698D01*
X1672562Y-13999698D02*
X1672562Y-14028269D01*
X1672562Y-14028269D02*
X1663039Y-14066365D01*
X1663039Y-14066365D02*
X1653515Y-14085412D01*
X1653515Y-14085412D02*
X1634467Y-14104460D01*
X1634467Y-14104460D02*
X1605896Y-14113984D01*
X1605896Y-14113984D02*
X1558277Y-14113984D01*
X1758277Y-14113984D02*
X1758277Y-13980650D01*
X1758277Y-14018746D02*
X1767801Y-13999698D01*
X1767801Y-13999698D02*
X1777324Y-13990174D01*
X1777324Y-13990174D02*
X1796372Y-13980650D01*
X1796372Y-13980650D02*
X1815420Y-13980650D01*
X1882086Y-14113984D02*
X1882086Y-13980650D01*
X1882086Y-13913984D02*
X1872562Y-13923508D01*
X1872562Y-13923508D02*
X1882086Y-13933031D01*
X1882086Y-13933031D02*
X1891610Y-13923508D01*
X1891610Y-13923508D02*
X1882086Y-13913984D01*
X1882086Y-13913984D02*
X1882086Y-13933031D01*
X2005896Y-14113984D02*
X1986848Y-14104460D01*
X1986848Y-14104460D02*
X1977324Y-14085412D01*
X1977324Y-14085412D02*
X1977324Y-13913984D01*
X2110658Y-14113984D02*
X2091610Y-14104460D01*
X2091610Y-14104460D02*
X2082086Y-14085412D01*
X2082086Y-14085412D02*
X2082086Y-13913984D01*
X2339229Y-14113984D02*
X2339229Y-13913984D01*
X2339229Y-13913984D02*
X2405896Y-14056841D01*
X2405896Y-14056841D02*
X2472563Y-13913984D01*
X2472563Y-13913984D02*
X2472563Y-14113984D01*
X2653515Y-14113984D02*
X2653515Y-14009222D01*
X2653515Y-14009222D02*
X2643991Y-13990174D01*
X2643991Y-13990174D02*
X2624944Y-13980650D01*
X2624944Y-13980650D02*
X2586848Y-13980650D01*
X2586848Y-13980650D02*
X2567801Y-13990174D01*
X2653515Y-14104460D02*
X2634467Y-14113984D01*
X2634467Y-14113984D02*
X2586848Y-14113984D01*
X2586848Y-14113984D02*
X2567801Y-14104460D01*
X2567801Y-14104460D02*
X2558277Y-14085412D01*
X2558277Y-14085412D02*
X2558277Y-14066365D01*
X2558277Y-14066365D02*
X2567801Y-14047317D01*
X2567801Y-14047317D02*
X2586848Y-14037793D01*
X2586848Y-14037793D02*
X2634467Y-14037793D01*
X2634467Y-14037793D02*
X2653515Y-14028269D01*
X2748753Y-13980650D02*
X2748753Y-14180650D01*
X2748753Y-13990174D02*
X2767801Y-13980650D01*
X2767801Y-13980650D02*
X2805896Y-13980650D01*
X2805896Y-13980650D02*
X2824943Y-13990174D01*
X2824943Y-13990174D02*
X2834467Y-13999698D01*
X2834467Y-13999698D02*
X2843991Y-14018746D01*
X2843991Y-14018746D02*
X2843991Y-14075888D01*
X2843991Y-14075888D02*
X2834467Y-14094936D01*
X2834467Y-14094936D02*
X2824943Y-14104460D01*
X2824943Y-14104460D02*
X2805896Y-14113984D01*
X2805896Y-14113984D02*
X2767801Y-14113984D01*
X2767801Y-14113984D02*
X2748753Y-14104460D01*
X2929705Y-14094936D02*
X2939229Y-14104460D01*
X2939229Y-14104460D02*
X2929705Y-14113984D01*
X2929705Y-14113984D02*
X2920182Y-14104460D01*
X2920182Y-14104460D02*
X2929705Y-14094936D01*
X2929705Y-14094936D02*
X2929705Y-14113984D01*
X2929705Y-13990174D02*
X2939229Y-13999698D01*
X2939229Y-13999698D02*
X2929705Y-14009222D01*
X2929705Y-14009222D02*
X2920182Y-13999698D01*
X2920182Y-13999698D02*
X2929705Y-13990174D01*
X2929705Y-13990174D02*
X2929705Y-14009222D01*
D12*
X1267500Y-14427500D02*
X1297500Y-14457500D01*
X1297500Y-14427500D02*
X1267500Y-14457500D01*
D11*
X1596372Y-14333984D02*
X1615420Y-14333984D01*
X1615420Y-14333984D02*
X1634467Y-14343508D01*
X1634467Y-14343508D02*
X1643991Y-14353031D01*
X1643991Y-14353031D02*
X1653515Y-14372079D01*
X1653515Y-14372079D02*
X1663039Y-14410174D01*
X1663039Y-14410174D02*
X1663039Y-14457793D01*
X1663039Y-14457793D02*
X1653515Y-14495888D01*
X1653515Y-14495888D02*
X1643991Y-14514936D01*
X1643991Y-14514936D02*
X1634467Y-14524460D01*
X1634467Y-14524460D02*
X1615420Y-14533984D01*
X1615420Y-14533984D02*
X1596372Y-14533984D01*
X1596372Y-14533984D02*
X1577324Y-14524460D01*
X1577324Y-14524460D02*
X1567801Y-14514936D01*
X1567801Y-14514936D02*
X1558277Y-14495888D01*
X1558277Y-14495888D02*
X1548753Y-14457793D01*
X1548753Y-14457793D02*
X1548753Y-14410174D01*
X1548753Y-14410174D02*
X1558277Y-14372079D01*
X1558277Y-14372079D02*
X1567801Y-14353031D01*
X1567801Y-14353031D02*
X1577324Y-14343508D01*
X1577324Y-14343508D02*
X1596372Y-14333984D01*
X1748753Y-14514936D02*
X1758277Y-14524460D01*
X1758277Y-14524460D02*
X1748753Y-14533984D01*
X1748753Y-14533984D02*
X1739229Y-14524460D01*
X1739229Y-14524460D02*
X1748753Y-14514936D01*
X1748753Y-14514936D02*
X1748753Y-14533984D01*
X1824943Y-14333984D02*
X1948753Y-14333984D01*
X1948753Y-14333984D02*
X1882086Y-14410174D01*
X1882086Y-14410174D02*
X1910658Y-14410174D01*
X1910658Y-14410174D02*
X1929705Y-14419698D01*
X1929705Y-14419698D02*
X1939229Y-14429222D01*
X1939229Y-14429222D02*
X1948753Y-14448269D01*
X1948753Y-14448269D02*
X1948753Y-14495888D01*
X1948753Y-14495888D02*
X1939229Y-14514936D01*
X1939229Y-14514936D02*
X1929705Y-14524460D01*
X1929705Y-14524460D02*
X1910658Y-14533984D01*
X1910658Y-14533984D02*
X1853515Y-14533984D01*
X1853515Y-14533984D02*
X1834467Y-14524460D01*
X1834467Y-14524460D02*
X1824943Y-14514936D01*
X2072562Y-14333984D02*
X2091610Y-14333984D01*
X2091610Y-14333984D02*
X2110658Y-14343508D01*
X2110658Y-14343508D02*
X2120182Y-14353031D01*
X2120182Y-14353031D02*
X2129705Y-14372079D01*
X2129705Y-14372079D02*
X2139229Y-14410174D01*
X2139229Y-14410174D02*
X2139229Y-14457793D01*
X2139229Y-14457793D02*
X2129705Y-14495888D01*
X2129705Y-14495888D02*
X2120182Y-14514936D01*
X2120182Y-14514936D02*
X2110658Y-14524460D01*
X2110658Y-14524460D02*
X2091610Y-14533984D01*
X2091610Y-14533984D02*
X2072562Y-14533984D01*
X2072562Y-14533984D02*
X2053515Y-14524460D01*
X2053515Y-14524460D02*
X2043991Y-14514936D01*
X2043991Y-14514936D02*
X2034467Y-14495888D01*
X2034467Y-14495888D02*
X2024943Y-14457793D01*
X2024943Y-14457793D02*
X2024943Y-14410174D01*
X2024943Y-14410174D02*
X2034467Y-14372079D01*
X2034467Y-14372079D02*
X2043991Y-14353031D01*
X2043991Y-14353031D02*
X2053515Y-14343508D01*
X2053515Y-14343508D02*
X2072562Y-14333984D01*
X2263039Y-14333984D02*
X2282086Y-14333984D01*
X2282086Y-14333984D02*
X2301134Y-14343508D01*
X2301134Y-14343508D02*
X2310658Y-14353031D01*
X2310658Y-14353031D02*
X2320182Y-14372079D01*
X2320182Y-14372079D02*
X2329705Y-14410174D01*
X2329705Y-14410174D02*
X2329705Y-14457793D01*
X2329705Y-14457793D02*
X2320182Y-14495888D01*
X2320182Y-14495888D02*
X2310658Y-14514936D01*
X2310658Y-14514936D02*
X2301134Y-14524460D01*
X2301134Y-14524460D02*
X2282086Y-14533984D01*
X2282086Y-14533984D02*
X2263039Y-14533984D01*
X2263039Y-14533984D02*
X2243991Y-14524460D01*
X2243991Y-14524460D02*
X2234467Y-14514936D01*
X2234467Y-14514936D02*
X2224944Y-14495888D01*
X2224944Y-14495888D02*
X2215420Y-14457793D01*
X2215420Y-14457793D02*
X2215420Y-14410174D01*
X2215420Y-14410174D02*
X2224944Y-14372079D01*
X2224944Y-14372079D02*
X2234467Y-14353031D01*
X2234467Y-14353031D02*
X2243991Y-14343508D01*
X2243991Y-14343508D02*
X2263039Y-14333984D01*
X2415420Y-14533984D02*
X2415420Y-14400650D01*
X2415420Y-14419698D02*
X2424944Y-14410174D01*
X2424944Y-14410174D02*
X2443991Y-14400650D01*
X2443991Y-14400650D02*
X2472563Y-14400650D01*
X2472563Y-14400650D02*
X2491610Y-14410174D01*
X2491610Y-14410174D02*
X2501134Y-14429222D01*
X2501134Y-14429222D02*
X2501134Y-14533984D01*
X2501134Y-14429222D02*
X2510658Y-14410174D01*
X2510658Y-14410174D02*
X2529705Y-14400650D01*
X2529705Y-14400650D02*
X2558277Y-14400650D01*
X2558277Y-14400650D02*
X2577325Y-14410174D01*
X2577325Y-14410174D02*
X2586848Y-14429222D01*
X2586848Y-14429222D02*
X2586848Y-14533984D01*
X2682086Y-14533984D02*
X2682086Y-14400650D01*
X2682086Y-14419698D02*
X2691610Y-14410174D01*
X2691610Y-14410174D02*
X2710658Y-14400650D01*
X2710658Y-14400650D02*
X2739229Y-14400650D01*
X2739229Y-14400650D02*
X2758277Y-14410174D01*
X2758277Y-14410174D02*
X2767801Y-14429222D01*
X2767801Y-14429222D02*
X2767801Y-14533984D01*
X2767801Y-14429222D02*
X2777325Y-14410174D01*
X2777325Y-14410174D02*
X2796372Y-14400650D01*
X2796372Y-14400650D02*
X2824943Y-14400650D01*
X2824943Y-14400650D02*
X2843991Y-14410174D01*
X2843991Y-14410174D02*
X2853515Y-14429222D01*
X2853515Y-14429222D02*
X2853515Y-14533984D01*
X3243991Y-14324460D02*
X3072563Y-14581603D01*
X3501134Y-14333984D02*
X3520182Y-14333984D01*
X3520182Y-14333984D02*
X3539229Y-14343508D01*
X3539229Y-14343508D02*
X3548753Y-14353031D01*
X3548753Y-14353031D02*
X3558277Y-14372079D01*
X3558277Y-14372079D02*
X3567801Y-14410174D01*
X3567801Y-14410174D02*
X3567801Y-14457793D01*
X3567801Y-14457793D02*
X3558277Y-14495888D01*
X3558277Y-14495888D02*
X3548753Y-14514936D01*
X3548753Y-14514936D02*
X3539229Y-14524460D01*
X3539229Y-14524460D02*
X3520182Y-14533984D01*
X3520182Y-14533984D02*
X3501134Y-14533984D01*
X3501134Y-14533984D02*
X3482086Y-14524460D01*
X3482086Y-14524460D02*
X3472563Y-14514936D01*
X3472563Y-14514936D02*
X3463039Y-14495888D01*
X3463039Y-14495888D02*
X3453515Y-14457793D01*
X3453515Y-14457793D02*
X3453515Y-14410174D01*
X3453515Y-14410174D02*
X3463039Y-14372079D01*
X3463039Y-14372079D02*
X3472563Y-14353031D01*
X3472563Y-14353031D02*
X3482086Y-14343508D01*
X3482086Y-14343508D02*
X3501134Y-14333984D01*
X3653515Y-14514936D02*
X3663039Y-14524460D01*
X3663039Y-14524460D02*
X3653515Y-14533984D01*
X3653515Y-14533984D02*
X3643991Y-14524460D01*
X3643991Y-14524460D02*
X3653515Y-14514936D01*
X3653515Y-14514936D02*
X3653515Y-14533984D01*
X3786848Y-14333984D02*
X3805896Y-14333984D01*
X3805896Y-14333984D02*
X3824944Y-14343508D01*
X3824944Y-14343508D02*
X3834467Y-14353031D01*
X3834467Y-14353031D02*
X3843991Y-14372079D01*
X3843991Y-14372079D02*
X3853515Y-14410174D01*
X3853515Y-14410174D02*
X3853515Y-14457793D01*
X3853515Y-14457793D02*
X3843991Y-14495888D01*
X3843991Y-14495888D02*
X3834467Y-14514936D01*
X3834467Y-14514936D02*
X3824944Y-14524460D01*
X3824944Y-14524460D02*
X3805896Y-14533984D01*
X3805896Y-14533984D02*
X3786848Y-14533984D01*
X3786848Y-14533984D02*
X3767801Y-14524460D01*
X3767801Y-14524460D02*
X3758277Y-14514936D01*
X3758277Y-14514936D02*
X3748753Y-14495888D01*
X3748753Y-14495888D02*
X3739229Y-14457793D01*
X3739229Y-14457793D02*
X3739229Y-14410174D01*
X3739229Y-14410174D02*
X3748753Y-14372079D01*
X3748753Y-14372079D02*
X3758277Y-14353031D01*
X3758277Y-14353031D02*
X3767801Y-14343508D01*
X3767801Y-14343508D02*
X3786848Y-14333984D01*
X4043991Y-14533984D02*
X3929706Y-14533984D01*
X3986848Y-14533984D02*
X3986848Y-14333984D01*
X3986848Y-14333984D02*
X3967801Y-14362555D01*
X3967801Y-14362555D02*
X3948753Y-14381603D01*
X3948753Y-14381603D02*
X3929706Y-14391127D01*
X4234468Y-14533984D02*
X4120182Y-14533984D01*
X4177325Y-14533984D02*
X4177325Y-14333984D01*
X4177325Y-14333984D02*
X4158277Y-14362555D01*
X4158277Y-14362555D02*
X4139229Y-14381603D01*
X4139229Y-14381603D02*
X4120182Y-14391127D01*
X4348753Y-14419698D02*
X4329706Y-14410174D01*
X4329706Y-14410174D02*
X4320182Y-14400650D01*
X4320182Y-14400650D02*
X4310658Y-14381603D01*
X4310658Y-14381603D02*
X4310658Y-14372079D01*
X4310658Y-14372079D02*
X4320182Y-14353031D01*
X4320182Y-14353031D02*
X4329706Y-14343508D01*
X4329706Y-14343508D02*
X4348753Y-14333984D01*
X4348753Y-14333984D02*
X4386849Y-14333984D01*
X4386849Y-14333984D02*
X4405896Y-14343508D01*
X4405896Y-14343508D02*
X4415420Y-14353031D01*
X4415420Y-14353031D02*
X4424944Y-14372079D01*
X4424944Y-14372079D02*
X4424944Y-14381603D01*
X4424944Y-14381603D02*
X4415420Y-14400650D01*
X4415420Y-14400650D02*
X4405896Y-14410174D01*
X4405896Y-14410174D02*
X4386849Y-14419698D01*
X4386849Y-14419698D02*
X4348753Y-14419698D01*
X4348753Y-14419698D02*
X4329706Y-14429222D01*
X4329706Y-14429222D02*
X4320182Y-14438746D01*
X4320182Y-14438746D02*
X4310658Y-14457793D01*
X4310658Y-14457793D02*
X4310658Y-14495888D01*
X4310658Y-14495888D02*
X4320182Y-14514936D01*
X4320182Y-14514936D02*
X4329706Y-14524460D01*
X4329706Y-14524460D02*
X4348753Y-14533984D01*
X4348753Y-14533984D02*
X4386849Y-14533984D01*
X4386849Y-14533984D02*
X4405896Y-14524460D01*
X4405896Y-14524460D02*
X4415420Y-14514936D01*
X4415420Y-14514936D02*
X4424944Y-14495888D01*
X4424944Y-14495888D02*
X4424944Y-14457793D01*
X4424944Y-14457793D02*
X4415420Y-14438746D01*
X4415420Y-14438746D02*
X4405896Y-14429222D01*
X4405896Y-14429222D02*
X4386849Y-14419698D01*
X4501134Y-14333984D02*
X4501134Y-14372079D01*
X4577325Y-14333984D02*
X4577325Y-14372079D01*
X4872563Y-14610174D02*
X4863039Y-14600650D01*
X4863039Y-14600650D02*
X4843991Y-14572079D01*
X4843991Y-14572079D02*
X4834468Y-14553031D01*
X4834468Y-14553031D02*
X4824944Y-14524460D01*
X4824944Y-14524460D02*
X4815420Y-14476841D01*
X4815420Y-14476841D02*
X4815420Y-14438746D01*
X4815420Y-14438746D02*
X4824944Y-14391127D01*
X4824944Y-14391127D02*
X4834468Y-14362555D01*
X4834468Y-14362555D02*
X4843991Y-14343508D01*
X4843991Y-14343508D02*
X4863039Y-14314936D01*
X4863039Y-14314936D02*
X4872563Y-14305412D01*
X5053515Y-14533984D02*
X4939230Y-14533984D01*
X4996372Y-14533984D02*
X4996372Y-14333984D01*
X4996372Y-14333984D02*
X4977325Y-14362555D01*
X4977325Y-14362555D02*
X4958277Y-14381603D01*
X4958277Y-14381603D02*
X4939230Y-14391127D01*
X5234468Y-14333984D02*
X5139230Y-14333984D01*
X5139230Y-14333984D02*
X5129706Y-14429222D01*
X5129706Y-14429222D02*
X5139230Y-14419698D01*
X5139230Y-14419698D02*
X5158277Y-14410174D01*
X5158277Y-14410174D02*
X5205896Y-14410174D01*
X5205896Y-14410174D02*
X5224944Y-14419698D01*
X5224944Y-14419698D02*
X5234468Y-14429222D01*
X5234468Y-14429222D02*
X5243991Y-14448269D01*
X5243991Y-14448269D02*
X5243991Y-14495888D01*
X5243991Y-14495888D02*
X5234468Y-14514936D01*
X5234468Y-14514936D02*
X5224944Y-14524460D01*
X5224944Y-14524460D02*
X5205896Y-14533984D01*
X5205896Y-14533984D02*
X5158277Y-14533984D01*
X5158277Y-14533984D02*
X5139230Y-14524460D01*
X5139230Y-14524460D02*
X5129706Y-14514936D01*
X5310658Y-14333984D02*
X5443991Y-14333984D01*
X5443991Y-14333984D02*
X5358277Y-14533984D01*
X5672563Y-14533984D02*
X5672563Y-14333984D01*
X5758277Y-14533984D02*
X5758277Y-14429222D01*
X5758277Y-14429222D02*
X5748753Y-14410174D01*
X5748753Y-14410174D02*
X5729706Y-14400650D01*
X5729706Y-14400650D02*
X5701134Y-14400650D01*
X5701134Y-14400650D02*
X5682087Y-14410174D01*
X5682087Y-14410174D02*
X5672563Y-14419698D01*
X5882087Y-14533984D02*
X5863039Y-14524460D01*
X5863039Y-14524460D02*
X5853515Y-14514936D01*
X5853515Y-14514936D02*
X5843991Y-14495888D01*
X5843991Y-14495888D02*
X5843991Y-14438746D01*
X5843991Y-14438746D02*
X5853515Y-14419698D01*
X5853515Y-14419698D02*
X5863039Y-14410174D01*
X5863039Y-14410174D02*
X5882087Y-14400650D01*
X5882087Y-14400650D02*
X5910658Y-14400650D01*
X5910658Y-14400650D02*
X5929706Y-14410174D01*
X5929706Y-14410174D02*
X5939230Y-14419698D01*
X5939230Y-14419698D02*
X5948753Y-14438746D01*
X5948753Y-14438746D02*
X5948753Y-14495888D01*
X5948753Y-14495888D02*
X5939230Y-14514936D01*
X5939230Y-14514936D02*
X5929706Y-14524460D01*
X5929706Y-14524460D02*
X5910658Y-14533984D01*
X5910658Y-14533984D02*
X5882087Y-14533984D01*
X6063039Y-14533984D02*
X6043991Y-14524460D01*
X6043991Y-14524460D02*
X6034468Y-14505412D01*
X6034468Y-14505412D02*
X6034468Y-14333984D01*
X6215420Y-14524460D02*
X6196372Y-14533984D01*
X6196372Y-14533984D02*
X6158277Y-14533984D01*
X6158277Y-14533984D02*
X6139230Y-14524460D01*
X6139230Y-14524460D02*
X6129706Y-14505412D01*
X6129706Y-14505412D02*
X6129706Y-14429222D01*
X6129706Y-14429222D02*
X6139230Y-14410174D01*
X6139230Y-14410174D02*
X6158277Y-14400650D01*
X6158277Y-14400650D02*
X6196372Y-14400650D01*
X6196372Y-14400650D02*
X6215420Y-14410174D01*
X6215420Y-14410174D02*
X6224944Y-14429222D01*
X6224944Y-14429222D02*
X6224944Y-14448269D01*
X6224944Y-14448269D02*
X6129706Y-14467317D01*
X6301134Y-14524460D02*
X6320182Y-14533984D01*
X6320182Y-14533984D02*
X6358277Y-14533984D01*
X6358277Y-14533984D02*
X6377325Y-14524460D01*
X6377325Y-14524460D02*
X6386849Y-14505412D01*
X6386849Y-14505412D02*
X6386849Y-14495888D01*
X6386849Y-14495888D02*
X6377325Y-14476841D01*
X6377325Y-14476841D02*
X6358277Y-14467317D01*
X6358277Y-14467317D02*
X6329706Y-14467317D01*
X6329706Y-14467317D02*
X6310658Y-14457793D01*
X6310658Y-14457793D02*
X6301134Y-14438746D01*
X6301134Y-14438746D02*
X6301134Y-14429222D01*
X6301134Y-14429222D02*
X6310658Y-14410174D01*
X6310658Y-14410174D02*
X6329706Y-14400650D01*
X6329706Y-14400650D02*
X6358277Y-14400650D01*
X6358277Y-14400650D02*
X6377325Y-14410174D01*
X6453515Y-14610174D02*
X6463039Y-14600650D01*
X6463039Y-14600650D02*
X6482087Y-14572079D01*
X6482087Y-14572079D02*
X6491611Y-14553031D01*
X6491611Y-14553031D02*
X6501134Y-14524460D01*
X6501134Y-14524460D02*
X6510658Y-14476841D01*
X6510658Y-14476841D02*
X6510658Y-14438746D01*
X6510658Y-14438746D02*
X6501134Y-14391127D01*
X6501134Y-14391127D02*
X6491611Y-14362555D01*
X6491611Y-14362555D02*
X6482087Y-14343508D01*
X6482087Y-14343508D02*
X6463039Y-14314936D01*
X6463039Y-14314936D02*
X6453515Y-14305412D01*
D12*
X1297500Y-14706500D02*
G75*
G02*
X1220500Y-14706500I-38500J0D01*
G01*
X1220500Y-14706500D02*
G75*
G02*
X1297500Y-14706500I38500J0D01*
G01*
D11*
X1596372Y-14597984D02*
X1615420Y-14597984D01*
X1615420Y-14597984D02*
X1634467Y-14607508D01*
X1634467Y-14607508D02*
X1643991Y-14617031D01*
X1643991Y-14617031D02*
X1653515Y-14636079D01*
X1653515Y-14636079D02*
X1663039Y-14674174D01*
X1663039Y-14674174D02*
X1663039Y-14721793D01*
X1663039Y-14721793D02*
X1653515Y-14759888D01*
X1653515Y-14759888D02*
X1643991Y-14778936D01*
X1643991Y-14778936D02*
X1634467Y-14788460D01*
X1634467Y-14788460D02*
X1615420Y-14797984D01*
X1615420Y-14797984D02*
X1596372Y-14797984D01*
X1596372Y-14797984D02*
X1577324Y-14788460D01*
X1577324Y-14788460D02*
X1567801Y-14778936D01*
X1567801Y-14778936D02*
X1558277Y-14759888D01*
X1558277Y-14759888D02*
X1548753Y-14721793D01*
X1548753Y-14721793D02*
X1548753Y-14674174D01*
X1548753Y-14674174D02*
X1558277Y-14636079D01*
X1558277Y-14636079D02*
X1567801Y-14617031D01*
X1567801Y-14617031D02*
X1577324Y-14607508D01*
X1577324Y-14607508D02*
X1596372Y-14597984D01*
X1748753Y-14778936D02*
X1758277Y-14788460D01*
X1758277Y-14788460D02*
X1748753Y-14797984D01*
X1748753Y-14797984D02*
X1739229Y-14788460D01*
X1739229Y-14788460D02*
X1748753Y-14778936D01*
X1748753Y-14778936D02*
X1748753Y-14797984D01*
X1824943Y-14597984D02*
X1958277Y-14597984D01*
X1958277Y-14597984D02*
X1872562Y-14797984D01*
X2015420Y-14597984D02*
X2148753Y-14597984D01*
X2148753Y-14597984D02*
X2063039Y-14797984D01*
X2263039Y-14597984D02*
X2282086Y-14597984D01*
X2282086Y-14597984D02*
X2301134Y-14607508D01*
X2301134Y-14607508D02*
X2310658Y-14617031D01*
X2310658Y-14617031D02*
X2320182Y-14636079D01*
X2320182Y-14636079D02*
X2329705Y-14674174D01*
X2329705Y-14674174D02*
X2329705Y-14721793D01*
X2329705Y-14721793D02*
X2320182Y-14759888D01*
X2320182Y-14759888D02*
X2310658Y-14778936D01*
X2310658Y-14778936D02*
X2301134Y-14788460D01*
X2301134Y-14788460D02*
X2282086Y-14797984D01*
X2282086Y-14797984D02*
X2263039Y-14797984D01*
X2263039Y-14797984D02*
X2243991Y-14788460D01*
X2243991Y-14788460D02*
X2234467Y-14778936D01*
X2234467Y-14778936D02*
X2224944Y-14759888D01*
X2224944Y-14759888D02*
X2215420Y-14721793D01*
X2215420Y-14721793D02*
X2215420Y-14674174D01*
X2215420Y-14674174D02*
X2224944Y-14636079D01*
X2224944Y-14636079D02*
X2234467Y-14617031D01*
X2234467Y-14617031D02*
X2243991Y-14607508D01*
X2243991Y-14607508D02*
X2263039Y-14597984D01*
X2415420Y-14797984D02*
X2415420Y-14664650D01*
X2415420Y-14683698D02*
X2424944Y-14674174D01*
X2424944Y-14674174D02*
X2443991Y-14664650D01*
X2443991Y-14664650D02*
X2472563Y-14664650D01*
X2472563Y-14664650D02*
X2491610Y-14674174D01*
X2491610Y-14674174D02*
X2501134Y-14693222D01*
X2501134Y-14693222D02*
X2501134Y-14797984D01*
X2501134Y-14693222D02*
X2510658Y-14674174D01*
X2510658Y-14674174D02*
X2529705Y-14664650D01*
X2529705Y-14664650D02*
X2558277Y-14664650D01*
X2558277Y-14664650D02*
X2577325Y-14674174D01*
X2577325Y-14674174D02*
X2586848Y-14693222D01*
X2586848Y-14693222D02*
X2586848Y-14797984D01*
X2682086Y-14797984D02*
X2682086Y-14664650D01*
X2682086Y-14683698D02*
X2691610Y-14674174D01*
X2691610Y-14674174D02*
X2710658Y-14664650D01*
X2710658Y-14664650D02*
X2739229Y-14664650D01*
X2739229Y-14664650D02*
X2758277Y-14674174D01*
X2758277Y-14674174D02*
X2767801Y-14693222D01*
X2767801Y-14693222D02*
X2767801Y-14797984D01*
X2767801Y-14693222D02*
X2777325Y-14674174D01*
X2777325Y-14674174D02*
X2796372Y-14664650D01*
X2796372Y-14664650D02*
X2824943Y-14664650D01*
X2824943Y-14664650D02*
X2843991Y-14674174D01*
X2843991Y-14674174D02*
X2853515Y-14693222D01*
X2853515Y-14693222D02*
X2853515Y-14797984D01*
X3243991Y-14588460D02*
X3072563Y-14845603D01*
X3501134Y-14597984D02*
X3520182Y-14597984D01*
X3520182Y-14597984D02*
X3539229Y-14607508D01*
X3539229Y-14607508D02*
X3548753Y-14617031D01*
X3548753Y-14617031D02*
X3558277Y-14636079D01*
X3558277Y-14636079D02*
X3567801Y-14674174D01*
X3567801Y-14674174D02*
X3567801Y-14721793D01*
X3567801Y-14721793D02*
X3558277Y-14759888D01*
X3558277Y-14759888D02*
X3548753Y-14778936D01*
X3548753Y-14778936D02*
X3539229Y-14788460D01*
X3539229Y-14788460D02*
X3520182Y-14797984D01*
X3520182Y-14797984D02*
X3501134Y-14797984D01*
X3501134Y-14797984D02*
X3482086Y-14788460D01*
X3482086Y-14788460D02*
X3472563Y-14778936D01*
X3472563Y-14778936D02*
X3463039Y-14759888D01*
X3463039Y-14759888D02*
X3453515Y-14721793D01*
X3453515Y-14721793D02*
X3453515Y-14674174D01*
X3453515Y-14674174D02*
X3463039Y-14636079D01*
X3463039Y-14636079D02*
X3472563Y-14617031D01*
X3472563Y-14617031D02*
X3482086Y-14607508D01*
X3482086Y-14607508D02*
X3501134Y-14597984D01*
X3653515Y-14778936D02*
X3663039Y-14788460D01*
X3663039Y-14788460D02*
X3653515Y-14797984D01*
X3653515Y-14797984D02*
X3643991Y-14788460D01*
X3643991Y-14788460D02*
X3653515Y-14778936D01*
X3653515Y-14778936D02*
X3653515Y-14797984D01*
X3786848Y-14597984D02*
X3805896Y-14597984D01*
X3805896Y-14597984D02*
X3824944Y-14607508D01*
X3824944Y-14607508D02*
X3834467Y-14617031D01*
X3834467Y-14617031D02*
X3843991Y-14636079D01*
X3843991Y-14636079D02*
X3853515Y-14674174D01*
X3853515Y-14674174D02*
X3853515Y-14721793D01*
X3853515Y-14721793D02*
X3843991Y-14759888D01*
X3843991Y-14759888D02*
X3834467Y-14778936D01*
X3834467Y-14778936D02*
X3824944Y-14788460D01*
X3824944Y-14788460D02*
X3805896Y-14797984D01*
X3805896Y-14797984D02*
X3786848Y-14797984D01*
X3786848Y-14797984D02*
X3767801Y-14788460D01*
X3767801Y-14788460D02*
X3758277Y-14778936D01*
X3758277Y-14778936D02*
X3748753Y-14759888D01*
X3748753Y-14759888D02*
X3739229Y-14721793D01*
X3739229Y-14721793D02*
X3739229Y-14674174D01*
X3739229Y-14674174D02*
X3748753Y-14636079D01*
X3748753Y-14636079D02*
X3758277Y-14617031D01*
X3758277Y-14617031D02*
X3767801Y-14607508D01*
X3767801Y-14607508D02*
X3786848Y-14597984D01*
X3920182Y-14597984D02*
X4043991Y-14597984D01*
X4043991Y-14597984D02*
X3977325Y-14674174D01*
X3977325Y-14674174D02*
X4005896Y-14674174D01*
X4005896Y-14674174D02*
X4024944Y-14683698D01*
X4024944Y-14683698D02*
X4034467Y-14693222D01*
X4034467Y-14693222D02*
X4043991Y-14712269D01*
X4043991Y-14712269D02*
X4043991Y-14759888D01*
X4043991Y-14759888D02*
X4034467Y-14778936D01*
X4034467Y-14778936D02*
X4024944Y-14788460D01*
X4024944Y-14788460D02*
X4005896Y-14797984D01*
X4005896Y-14797984D02*
X3948753Y-14797984D01*
X3948753Y-14797984D02*
X3929706Y-14788460D01*
X3929706Y-14788460D02*
X3920182Y-14778936D01*
X4167801Y-14597984D02*
X4186848Y-14597984D01*
X4186848Y-14597984D02*
X4205896Y-14607508D01*
X4205896Y-14607508D02*
X4215420Y-14617031D01*
X4215420Y-14617031D02*
X4224944Y-14636079D01*
X4224944Y-14636079D02*
X4234468Y-14674174D01*
X4234468Y-14674174D02*
X4234468Y-14721793D01*
X4234468Y-14721793D02*
X4224944Y-14759888D01*
X4224944Y-14759888D02*
X4215420Y-14778936D01*
X4215420Y-14778936D02*
X4205896Y-14788460D01*
X4205896Y-14788460D02*
X4186848Y-14797984D01*
X4186848Y-14797984D02*
X4167801Y-14797984D01*
X4167801Y-14797984D02*
X4148753Y-14788460D01*
X4148753Y-14788460D02*
X4139229Y-14778936D01*
X4139229Y-14778936D02*
X4129706Y-14759888D01*
X4129706Y-14759888D02*
X4120182Y-14721793D01*
X4120182Y-14721793D02*
X4120182Y-14674174D01*
X4120182Y-14674174D02*
X4129706Y-14636079D01*
X4129706Y-14636079D02*
X4139229Y-14617031D01*
X4139229Y-14617031D02*
X4148753Y-14607508D01*
X4148753Y-14607508D02*
X4167801Y-14597984D01*
X4301134Y-14597984D02*
X4424944Y-14597984D01*
X4424944Y-14597984D02*
X4358277Y-14674174D01*
X4358277Y-14674174D02*
X4386849Y-14674174D01*
X4386849Y-14674174D02*
X4405896Y-14683698D01*
X4405896Y-14683698D02*
X4415420Y-14693222D01*
X4415420Y-14693222D02*
X4424944Y-14712269D01*
X4424944Y-14712269D02*
X4424944Y-14759888D01*
X4424944Y-14759888D02*
X4415420Y-14778936D01*
X4415420Y-14778936D02*
X4405896Y-14788460D01*
X4405896Y-14788460D02*
X4386849Y-14797984D01*
X4386849Y-14797984D02*
X4329706Y-14797984D01*
X4329706Y-14797984D02*
X4310658Y-14788460D01*
X4310658Y-14788460D02*
X4301134Y-14778936D01*
X4501134Y-14597984D02*
X4501134Y-14636079D01*
X4577325Y-14597984D02*
X4577325Y-14636079D01*
X4872563Y-14874174D02*
X4863039Y-14864650D01*
X4863039Y-14864650D02*
X4843991Y-14836079D01*
X4843991Y-14836079D02*
X4834468Y-14817031D01*
X4834468Y-14817031D02*
X4824944Y-14788460D01*
X4824944Y-14788460D02*
X4815420Y-14740841D01*
X4815420Y-14740841D02*
X4815420Y-14702746D01*
X4815420Y-14702746D02*
X4824944Y-14655127D01*
X4824944Y-14655127D02*
X4834468Y-14626555D01*
X4834468Y-14626555D02*
X4843991Y-14607508D01*
X4843991Y-14607508D02*
X4863039Y-14578936D01*
X4863039Y-14578936D02*
X4872563Y-14569412D01*
X4939230Y-14617031D02*
X4948753Y-14607508D01*
X4948753Y-14607508D02*
X4967801Y-14597984D01*
X4967801Y-14597984D02*
X5015420Y-14597984D01*
X5015420Y-14597984D02*
X5034468Y-14607508D01*
X5034468Y-14607508D02*
X5043991Y-14617031D01*
X5043991Y-14617031D02*
X5053515Y-14636079D01*
X5053515Y-14636079D02*
X5053515Y-14655127D01*
X5053515Y-14655127D02*
X5043991Y-14683698D01*
X5043991Y-14683698D02*
X4929706Y-14797984D01*
X4929706Y-14797984D02*
X5053515Y-14797984D01*
X5167801Y-14683698D02*
X5148753Y-14674174D01*
X5148753Y-14674174D02*
X5139230Y-14664650D01*
X5139230Y-14664650D02*
X5129706Y-14645603D01*
X5129706Y-14645603D02*
X5129706Y-14636079D01*
X5129706Y-14636079D02*
X5139230Y-14617031D01*
X5139230Y-14617031D02*
X5148753Y-14607508D01*
X5148753Y-14607508D02*
X5167801Y-14597984D01*
X5167801Y-14597984D02*
X5205896Y-14597984D01*
X5205896Y-14597984D02*
X5224944Y-14607508D01*
X5224944Y-14607508D02*
X5234468Y-14617031D01*
X5234468Y-14617031D02*
X5243991Y-14636079D01*
X5243991Y-14636079D02*
X5243991Y-14645603D01*
X5243991Y-14645603D02*
X5234468Y-14664650D01*
X5234468Y-14664650D02*
X5224944Y-14674174D01*
X5224944Y-14674174D02*
X5205896Y-14683698D01*
X5205896Y-14683698D02*
X5167801Y-14683698D01*
X5167801Y-14683698D02*
X5148753Y-14693222D01*
X5148753Y-14693222D02*
X5139230Y-14702746D01*
X5139230Y-14702746D02*
X5129706Y-14721793D01*
X5129706Y-14721793D02*
X5129706Y-14759888D01*
X5129706Y-14759888D02*
X5139230Y-14778936D01*
X5139230Y-14778936D02*
X5148753Y-14788460D01*
X5148753Y-14788460D02*
X5167801Y-14797984D01*
X5167801Y-14797984D02*
X5205896Y-14797984D01*
X5205896Y-14797984D02*
X5224944Y-14788460D01*
X5224944Y-14788460D02*
X5234468Y-14778936D01*
X5234468Y-14778936D02*
X5243991Y-14759888D01*
X5243991Y-14759888D02*
X5243991Y-14721793D01*
X5243991Y-14721793D02*
X5234468Y-14702746D01*
X5234468Y-14702746D02*
X5224944Y-14693222D01*
X5224944Y-14693222D02*
X5205896Y-14683698D01*
X5482087Y-14797984D02*
X5482087Y-14597984D01*
X5567801Y-14797984D02*
X5567801Y-14693222D01*
X5567801Y-14693222D02*
X5558277Y-14674174D01*
X5558277Y-14674174D02*
X5539230Y-14664650D01*
X5539230Y-14664650D02*
X5510658Y-14664650D01*
X5510658Y-14664650D02*
X5491611Y-14674174D01*
X5491611Y-14674174D02*
X5482087Y-14683698D01*
X5691610Y-14797984D02*
X5672563Y-14788460D01*
X5672563Y-14788460D02*
X5663039Y-14778936D01*
X5663039Y-14778936D02*
X5653515Y-14759888D01*
X5653515Y-14759888D02*
X5653515Y-14702746D01*
X5653515Y-14702746D02*
X5663039Y-14683698D01*
X5663039Y-14683698D02*
X5672563Y-14674174D01*
X5672563Y-14674174D02*
X5691610Y-14664650D01*
X5691610Y-14664650D02*
X5720182Y-14664650D01*
X5720182Y-14664650D02*
X5739230Y-14674174D01*
X5739230Y-14674174D02*
X5748753Y-14683698D01*
X5748753Y-14683698D02*
X5758277Y-14702746D01*
X5758277Y-14702746D02*
X5758277Y-14759888D01*
X5758277Y-14759888D02*
X5748753Y-14778936D01*
X5748753Y-14778936D02*
X5739230Y-14788460D01*
X5739230Y-14788460D02*
X5720182Y-14797984D01*
X5720182Y-14797984D02*
X5691610Y-14797984D01*
X5872563Y-14797984D02*
X5853515Y-14788460D01*
X5853515Y-14788460D02*
X5843991Y-14769412D01*
X5843991Y-14769412D02*
X5843991Y-14597984D01*
X6024944Y-14788460D02*
X6005896Y-14797984D01*
X6005896Y-14797984D02*
X5967801Y-14797984D01*
X5967801Y-14797984D02*
X5948753Y-14788460D01*
X5948753Y-14788460D02*
X5939230Y-14769412D01*
X5939230Y-14769412D02*
X5939230Y-14693222D01*
X5939230Y-14693222D02*
X5948753Y-14674174D01*
X5948753Y-14674174D02*
X5967801Y-14664650D01*
X5967801Y-14664650D02*
X6005896Y-14664650D01*
X6005896Y-14664650D02*
X6024944Y-14674174D01*
X6024944Y-14674174D02*
X6034468Y-14693222D01*
X6034468Y-14693222D02*
X6034468Y-14712269D01*
X6034468Y-14712269D02*
X5939230Y-14731317D01*
X6110658Y-14788460D02*
X6129706Y-14797984D01*
X6129706Y-14797984D02*
X6167801Y-14797984D01*
X6167801Y-14797984D02*
X6186849Y-14788460D01*
X6186849Y-14788460D02*
X6196372Y-14769412D01*
X6196372Y-14769412D02*
X6196372Y-14759888D01*
X6196372Y-14759888D02*
X6186849Y-14740841D01*
X6186849Y-14740841D02*
X6167801Y-14731317D01*
X6167801Y-14731317D02*
X6139230Y-14731317D01*
X6139230Y-14731317D02*
X6120182Y-14721793D01*
X6120182Y-14721793D02*
X6110658Y-14702746D01*
X6110658Y-14702746D02*
X6110658Y-14693222D01*
X6110658Y-14693222D02*
X6120182Y-14674174D01*
X6120182Y-14674174D02*
X6139230Y-14664650D01*
X6139230Y-14664650D02*
X6167801Y-14664650D01*
X6167801Y-14664650D02*
X6186849Y-14674174D01*
X6263039Y-14874174D02*
X6272563Y-14864650D01*
X6272563Y-14864650D02*
X6291611Y-14836079D01*
X6291611Y-14836079D02*
X6301134Y-14817031D01*
X6301134Y-14817031D02*
X6310658Y-14788460D01*
X6310658Y-14788460D02*
X6320182Y-14740841D01*
X6320182Y-14740841D02*
X6320182Y-14702746D01*
X6320182Y-14702746D02*
X6310658Y-14655127D01*
X6310658Y-14655127D02*
X6301134Y-14626555D01*
X6301134Y-14626555D02*
X6291611Y-14607508D01*
X6291611Y-14607508D02*
X6272563Y-14578936D01*
X6272563Y-14578936D02*
X6263039Y-14569412D01*
D12*
X1257500Y-14930500D02*
X1257500Y-15010500D01*
X1217500Y-14970500D02*
X1297500Y-14970500D01*
D11*
X1596372Y-14861984D02*
X1615420Y-14861984D01*
X1615420Y-14861984D02*
X1634467Y-14871508D01*
X1634467Y-14871508D02*
X1643991Y-14881031D01*
X1643991Y-14881031D02*
X1653515Y-14900079D01*
X1653515Y-14900079D02*
X1663039Y-14938174D01*
X1663039Y-14938174D02*
X1663039Y-14985793D01*
X1663039Y-14985793D02*
X1653515Y-15023888D01*
X1653515Y-15023888D02*
X1643991Y-15042936D01*
X1643991Y-15042936D02*
X1634467Y-15052460D01*
X1634467Y-15052460D02*
X1615420Y-15061984D01*
X1615420Y-15061984D02*
X1596372Y-15061984D01*
X1596372Y-15061984D02*
X1577324Y-15052460D01*
X1577324Y-15052460D02*
X1567801Y-15042936D01*
X1567801Y-15042936D02*
X1558277Y-15023888D01*
X1558277Y-15023888D02*
X1548753Y-14985793D01*
X1548753Y-14985793D02*
X1548753Y-14938174D01*
X1548753Y-14938174D02*
X1558277Y-14900079D01*
X1558277Y-14900079D02*
X1567801Y-14881031D01*
X1567801Y-14881031D02*
X1577324Y-14871508D01*
X1577324Y-14871508D02*
X1596372Y-14861984D01*
X1748753Y-15042936D02*
X1758277Y-15052460D01*
X1758277Y-15052460D02*
X1748753Y-15061984D01*
X1748753Y-15061984D02*
X1739229Y-15052460D01*
X1739229Y-15052460D02*
X1748753Y-15042936D01*
X1748753Y-15042936D02*
X1748753Y-15061984D01*
X1872562Y-14947698D02*
X1853515Y-14938174D01*
X1853515Y-14938174D02*
X1843991Y-14928650D01*
X1843991Y-14928650D02*
X1834467Y-14909603D01*
X1834467Y-14909603D02*
X1834467Y-14900079D01*
X1834467Y-14900079D02*
X1843991Y-14881031D01*
X1843991Y-14881031D02*
X1853515Y-14871508D01*
X1853515Y-14871508D02*
X1872562Y-14861984D01*
X1872562Y-14861984D02*
X1910658Y-14861984D01*
X1910658Y-14861984D02*
X1929705Y-14871508D01*
X1929705Y-14871508D02*
X1939229Y-14881031D01*
X1939229Y-14881031D02*
X1948753Y-14900079D01*
X1948753Y-14900079D02*
X1948753Y-14909603D01*
X1948753Y-14909603D02*
X1939229Y-14928650D01*
X1939229Y-14928650D02*
X1929705Y-14938174D01*
X1929705Y-14938174D02*
X1910658Y-14947698D01*
X1910658Y-14947698D02*
X1872562Y-14947698D01*
X1872562Y-14947698D02*
X1853515Y-14957222D01*
X1853515Y-14957222D02*
X1843991Y-14966746D01*
X1843991Y-14966746D02*
X1834467Y-14985793D01*
X1834467Y-14985793D02*
X1834467Y-15023888D01*
X1834467Y-15023888D02*
X1843991Y-15042936D01*
X1843991Y-15042936D02*
X1853515Y-15052460D01*
X1853515Y-15052460D02*
X1872562Y-15061984D01*
X1872562Y-15061984D02*
X1910658Y-15061984D01*
X1910658Y-15061984D02*
X1929705Y-15052460D01*
X1929705Y-15052460D02*
X1939229Y-15042936D01*
X1939229Y-15042936D02*
X1948753Y-15023888D01*
X1948753Y-15023888D02*
X1948753Y-14985793D01*
X1948753Y-14985793D02*
X1939229Y-14966746D01*
X1939229Y-14966746D02*
X1929705Y-14957222D01*
X1929705Y-14957222D02*
X1910658Y-14947698D01*
X2072562Y-14861984D02*
X2091610Y-14861984D01*
X2091610Y-14861984D02*
X2110658Y-14871508D01*
X2110658Y-14871508D02*
X2120182Y-14881031D01*
X2120182Y-14881031D02*
X2129705Y-14900079D01*
X2129705Y-14900079D02*
X2139229Y-14938174D01*
X2139229Y-14938174D02*
X2139229Y-14985793D01*
X2139229Y-14985793D02*
X2129705Y-15023888D01*
X2129705Y-15023888D02*
X2120182Y-15042936D01*
X2120182Y-15042936D02*
X2110658Y-15052460D01*
X2110658Y-15052460D02*
X2091610Y-15061984D01*
X2091610Y-15061984D02*
X2072562Y-15061984D01*
X2072562Y-15061984D02*
X2053515Y-15052460D01*
X2053515Y-15052460D02*
X2043991Y-15042936D01*
X2043991Y-15042936D02*
X2034467Y-15023888D01*
X2034467Y-15023888D02*
X2024943Y-14985793D01*
X2024943Y-14985793D02*
X2024943Y-14938174D01*
X2024943Y-14938174D02*
X2034467Y-14900079D01*
X2034467Y-14900079D02*
X2043991Y-14881031D01*
X2043991Y-14881031D02*
X2053515Y-14871508D01*
X2053515Y-14871508D02*
X2072562Y-14861984D01*
X2263039Y-14861984D02*
X2282086Y-14861984D01*
X2282086Y-14861984D02*
X2301134Y-14871508D01*
X2301134Y-14871508D02*
X2310658Y-14881031D01*
X2310658Y-14881031D02*
X2320182Y-14900079D01*
X2320182Y-14900079D02*
X2329705Y-14938174D01*
X2329705Y-14938174D02*
X2329705Y-14985793D01*
X2329705Y-14985793D02*
X2320182Y-15023888D01*
X2320182Y-15023888D02*
X2310658Y-15042936D01*
X2310658Y-15042936D02*
X2301134Y-15052460D01*
X2301134Y-15052460D02*
X2282086Y-15061984D01*
X2282086Y-15061984D02*
X2263039Y-15061984D01*
X2263039Y-15061984D02*
X2243991Y-15052460D01*
X2243991Y-15052460D02*
X2234467Y-15042936D01*
X2234467Y-15042936D02*
X2224944Y-15023888D01*
X2224944Y-15023888D02*
X2215420Y-14985793D01*
X2215420Y-14985793D02*
X2215420Y-14938174D01*
X2215420Y-14938174D02*
X2224944Y-14900079D01*
X2224944Y-14900079D02*
X2234467Y-14881031D01*
X2234467Y-14881031D02*
X2243991Y-14871508D01*
X2243991Y-14871508D02*
X2263039Y-14861984D01*
X2415420Y-15061984D02*
X2415420Y-14928650D01*
X2415420Y-14947698D02*
X2424944Y-14938174D01*
X2424944Y-14938174D02*
X2443991Y-14928650D01*
X2443991Y-14928650D02*
X2472563Y-14928650D01*
X2472563Y-14928650D02*
X2491610Y-14938174D01*
X2491610Y-14938174D02*
X2501134Y-14957222D01*
X2501134Y-14957222D02*
X2501134Y-15061984D01*
X2501134Y-14957222D02*
X2510658Y-14938174D01*
X2510658Y-14938174D02*
X2529705Y-14928650D01*
X2529705Y-14928650D02*
X2558277Y-14928650D01*
X2558277Y-14928650D02*
X2577325Y-14938174D01*
X2577325Y-14938174D02*
X2586848Y-14957222D01*
X2586848Y-14957222D02*
X2586848Y-15061984D01*
X2682086Y-15061984D02*
X2682086Y-14928650D01*
X2682086Y-14947698D02*
X2691610Y-14938174D01*
X2691610Y-14938174D02*
X2710658Y-14928650D01*
X2710658Y-14928650D02*
X2739229Y-14928650D01*
X2739229Y-14928650D02*
X2758277Y-14938174D01*
X2758277Y-14938174D02*
X2767801Y-14957222D01*
X2767801Y-14957222D02*
X2767801Y-15061984D01*
X2767801Y-14957222D02*
X2777325Y-14938174D01*
X2777325Y-14938174D02*
X2796372Y-14928650D01*
X2796372Y-14928650D02*
X2824943Y-14928650D01*
X2824943Y-14928650D02*
X2843991Y-14938174D01*
X2843991Y-14938174D02*
X2853515Y-14957222D01*
X2853515Y-14957222D02*
X2853515Y-15061984D01*
X3243991Y-14852460D02*
X3072563Y-15109603D01*
X3501134Y-14861984D02*
X3520182Y-14861984D01*
X3520182Y-14861984D02*
X3539229Y-14871508D01*
X3539229Y-14871508D02*
X3548753Y-14881031D01*
X3548753Y-14881031D02*
X3558277Y-14900079D01*
X3558277Y-14900079D02*
X3567801Y-14938174D01*
X3567801Y-14938174D02*
X3567801Y-14985793D01*
X3567801Y-14985793D02*
X3558277Y-15023888D01*
X3558277Y-15023888D02*
X3548753Y-15042936D01*
X3548753Y-15042936D02*
X3539229Y-15052460D01*
X3539229Y-15052460D02*
X3520182Y-15061984D01*
X3520182Y-15061984D02*
X3501134Y-15061984D01*
X3501134Y-15061984D02*
X3482086Y-15052460D01*
X3482086Y-15052460D02*
X3472563Y-15042936D01*
X3472563Y-15042936D02*
X3463039Y-15023888D01*
X3463039Y-15023888D02*
X3453515Y-14985793D01*
X3453515Y-14985793D02*
X3453515Y-14938174D01*
X3453515Y-14938174D02*
X3463039Y-14900079D01*
X3463039Y-14900079D02*
X3472563Y-14881031D01*
X3472563Y-14881031D02*
X3482086Y-14871508D01*
X3482086Y-14871508D02*
X3501134Y-14861984D01*
X3653515Y-15042936D02*
X3663039Y-15052460D01*
X3663039Y-15052460D02*
X3653515Y-15061984D01*
X3653515Y-15061984D02*
X3643991Y-15052460D01*
X3643991Y-15052460D02*
X3653515Y-15042936D01*
X3653515Y-15042936D02*
X3653515Y-15061984D01*
X3786848Y-14861984D02*
X3805896Y-14861984D01*
X3805896Y-14861984D02*
X3824944Y-14871508D01*
X3824944Y-14871508D02*
X3834467Y-14881031D01*
X3834467Y-14881031D02*
X3843991Y-14900079D01*
X3843991Y-14900079D02*
X3853515Y-14938174D01*
X3853515Y-14938174D02*
X3853515Y-14985793D01*
X3853515Y-14985793D02*
X3843991Y-15023888D01*
X3843991Y-15023888D02*
X3834467Y-15042936D01*
X3834467Y-15042936D02*
X3824944Y-15052460D01*
X3824944Y-15052460D02*
X3805896Y-15061984D01*
X3805896Y-15061984D02*
X3786848Y-15061984D01*
X3786848Y-15061984D02*
X3767801Y-15052460D01*
X3767801Y-15052460D02*
X3758277Y-15042936D01*
X3758277Y-15042936D02*
X3748753Y-15023888D01*
X3748753Y-15023888D02*
X3739229Y-14985793D01*
X3739229Y-14985793D02*
X3739229Y-14938174D01*
X3739229Y-14938174D02*
X3748753Y-14900079D01*
X3748753Y-14900079D02*
X3758277Y-14881031D01*
X3758277Y-14881031D02*
X3767801Y-14871508D01*
X3767801Y-14871508D02*
X3786848Y-14861984D01*
X3920182Y-14861984D02*
X4043991Y-14861984D01*
X4043991Y-14861984D02*
X3977325Y-14938174D01*
X3977325Y-14938174D02*
X4005896Y-14938174D01*
X4005896Y-14938174D02*
X4024944Y-14947698D01*
X4024944Y-14947698D02*
X4034467Y-14957222D01*
X4034467Y-14957222D02*
X4043991Y-14976269D01*
X4043991Y-14976269D02*
X4043991Y-15023888D01*
X4043991Y-15023888D02*
X4034467Y-15042936D01*
X4034467Y-15042936D02*
X4024944Y-15052460D01*
X4024944Y-15052460D02*
X4005896Y-15061984D01*
X4005896Y-15061984D02*
X3948753Y-15061984D01*
X3948753Y-15061984D02*
X3929706Y-15052460D01*
X3929706Y-15052460D02*
X3920182Y-15042936D01*
X4234468Y-15061984D02*
X4120182Y-15061984D01*
X4177325Y-15061984D02*
X4177325Y-14861984D01*
X4177325Y-14861984D02*
X4158277Y-14890555D01*
X4158277Y-14890555D02*
X4139229Y-14909603D01*
X4139229Y-14909603D02*
X4120182Y-14919127D01*
X4415420Y-14861984D02*
X4320182Y-14861984D01*
X4320182Y-14861984D02*
X4310658Y-14957222D01*
X4310658Y-14957222D02*
X4320182Y-14947698D01*
X4320182Y-14947698D02*
X4339229Y-14938174D01*
X4339229Y-14938174D02*
X4386849Y-14938174D01*
X4386849Y-14938174D02*
X4405896Y-14947698D01*
X4405896Y-14947698D02*
X4415420Y-14957222D01*
X4415420Y-14957222D02*
X4424944Y-14976269D01*
X4424944Y-14976269D02*
X4424944Y-15023888D01*
X4424944Y-15023888D02*
X4415420Y-15042936D01*
X4415420Y-15042936D02*
X4405896Y-15052460D01*
X4405896Y-15052460D02*
X4386849Y-15061984D01*
X4386849Y-15061984D02*
X4339229Y-15061984D01*
X4339229Y-15061984D02*
X4320182Y-15052460D01*
X4320182Y-15052460D02*
X4310658Y-15042936D01*
X4501134Y-14861984D02*
X4501134Y-14900079D01*
X4577325Y-14861984D02*
X4577325Y-14900079D01*
X4872563Y-15138174D02*
X4863039Y-15128650D01*
X4863039Y-15128650D02*
X4843991Y-15100079D01*
X4843991Y-15100079D02*
X4834468Y-15081031D01*
X4834468Y-15081031D02*
X4824944Y-15052460D01*
X4824944Y-15052460D02*
X4815420Y-15004841D01*
X4815420Y-15004841D02*
X4815420Y-14966746D01*
X4815420Y-14966746D02*
X4824944Y-14919127D01*
X4824944Y-14919127D02*
X4834468Y-14890555D01*
X4834468Y-14890555D02*
X4843991Y-14871508D01*
X4843991Y-14871508D02*
X4863039Y-14842936D01*
X4863039Y-14842936D02*
X4872563Y-14833412D01*
X5034468Y-14861984D02*
X4996372Y-14861984D01*
X4996372Y-14861984D02*
X4977325Y-14871508D01*
X4977325Y-14871508D02*
X4967801Y-14881031D01*
X4967801Y-14881031D02*
X4948753Y-14909603D01*
X4948753Y-14909603D02*
X4939230Y-14947698D01*
X4939230Y-14947698D02*
X4939230Y-15023888D01*
X4939230Y-15023888D02*
X4948753Y-15042936D01*
X4948753Y-15042936D02*
X4958277Y-15052460D01*
X4958277Y-15052460D02*
X4977325Y-15061984D01*
X4977325Y-15061984D02*
X5015420Y-15061984D01*
X5015420Y-15061984D02*
X5034468Y-15052460D01*
X5034468Y-15052460D02*
X5043991Y-15042936D01*
X5043991Y-15042936D02*
X5053515Y-15023888D01*
X5053515Y-15023888D02*
X5053515Y-14976269D01*
X5053515Y-14976269D02*
X5043991Y-14957222D01*
X5043991Y-14957222D02*
X5034468Y-14947698D01*
X5034468Y-14947698D02*
X5015420Y-14938174D01*
X5015420Y-14938174D02*
X4977325Y-14938174D01*
X4977325Y-14938174D02*
X4958277Y-14947698D01*
X4958277Y-14947698D02*
X4948753Y-14957222D01*
X4948753Y-14957222D02*
X4939230Y-14976269D01*
X5129706Y-14881031D02*
X5139230Y-14871508D01*
X5139230Y-14871508D02*
X5158277Y-14861984D01*
X5158277Y-14861984D02*
X5205896Y-14861984D01*
X5205896Y-14861984D02*
X5224944Y-14871508D01*
X5224944Y-14871508D02*
X5234468Y-14881031D01*
X5234468Y-14881031D02*
X5243991Y-14900079D01*
X5243991Y-14900079D02*
X5243991Y-14919127D01*
X5243991Y-14919127D02*
X5234468Y-14947698D01*
X5234468Y-14947698D02*
X5120182Y-15061984D01*
X5120182Y-15061984D02*
X5243991Y-15061984D01*
X5482087Y-15061984D02*
X5482087Y-14861984D01*
X5567801Y-15061984D02*
X5567801Y-14957222D01*
X5567801Y-14957222D02*
X5558277Y-14938174D01*
X5558277Y-14938174D02*
X5539230Y-14928650D01*
X5539230Y-14928650D02*
X5510658Y-14928650D01*
X5510658Y-14928650D02*
X5491611Y-14938174D01*
X5491611Y-14938174D02*
X5482087Y-14947698D01*
X5691610Y-15061984D02*
X5672563Y-15052460D01*
X5672563Y-15052460D02*
X5663039Y-15042936D01*
X5663039Y-15042936D02*
X5653515Y-15023888D01*
X5653515Y-15023888D02*
X5653515Y-14966746D01*
X5653515Y-14966746D02*
X5663039Y-14947698D01*
X5663039Y-14947698D02*
X5672563Y-14938174D01*
X5672563Y-14938174D02*
X5691610Y-14928650D01*
X5691610Y-14928650D02*
X5720182Y-14928650D01*
X5720182Y-14928650D02*
X5739230Y-14938174D01*
X5739230Y-14938174D02*
X5748753Y-14947698D01*
X5748753Y-14947698D02*
X5758277Y-14966746D01*
X5758277Y-14966746D02*
X5758277Y-15023888D01*
X5758277Y-15023888D02*
X5748753Y-15042936D01*
X5748753Y-15042936D02*
X5739230Y-15052460D01*
X5739230Y-15052460D02*
X5720182Y-15061984D01*
X5720182Y-15061984D02*
X5691610Y-15061984D01*
X5872563Y-15061984D02*
X5853515Y-15052460D01*
X5853515Y-15052460D02*
X5843991Y-15033412D01*
X5843991Y-15033412D02*
X5843991Y-14861984D01*
X6024944Y-15052460D02*
X6005896Y-15061984D01*
X6005896Y-15061984D02*
X5967801Y-15061984D01*
X5967801Y-15061984D02*
X5948753Y-15052460D01*
X5948753Y-15052460D02*
X5939230Y-15033412D01*
X5939230Y-15033412D02*
X5939230Y-14957222D01*
X5939230Y-14957222D02*
X5948753Y-14938174D01*
X5948753Y-14938174D02*
X5967801Y-14928650D01*
X5967801Y-14928650D02*
X6005896Y-14928650D01*
X6005896Y-14928650D02*
X6024944Y-14938174D01*
X6024944Y-14938174D02*
X6034468Y-14957222D01*
X6034468Y-14957222D02*
X6034468Y-14976269D01*
X6034468Y-14976269D02*
X5939230Y-14995317D01*
X6110658Y-15052460D02*
X6129706Y-15061984D01*
X6129706Y-15061984D02*
X6167801Y-15061984D01*
X6167801Y-15061984D02*
X6186849Y-15052460D01*
X6186849Y-15052460D02*
X6196372Y-15033412D01*
X6196372Y-15033412D02*
X6196372Y-15023888D01*
X6196372Y-15023888D02*
X6186849Y-15004841D01*
X6186849Y-15004841D02*
X6167801Y-14995317D01*
X6167801Y-14995317D02*
X6139230Y-14995317D01*
X6139230Y-14995317D02*
X6120182Y-14985793D01*
X6120182Y-14985793D02*
X6110658Y-14966746D01*
X6110658Y-14966746D02*
X6110658Y-14957222D01*
X6110658Y-14957222D02*
X6120182Y-14938174D01*
X6120182Y-14938174D02*
X6139230Y-14928650D01*
X6139230Y-14928650D02*
X6167801Y-14928650D01*
X6167801Y-14928650D02*
X6186849Y-14938174D01*
X6263039Y-15138174D02*
X6272563Y-15128650D01*
X6272563Y-15128650D02*
X6291611Y-15100079D01*
X6291611Y-15100079D02*
X6301134Y-15081031D01*
X6301134Y-15081031D02*
X6310658Y-15052460D01*
X6310658Y-15052460D02*
X6320182Y-15004841D01*
X6320182Y-15004841D02*
X6320182Y-14966746D01*
X6320182Y-14966746D02*
X6310658Y-14919127D01*
X6310658Y-14919127D02*
X6301134Y-14890555D01*
X6301134Y-14890555D02*
X6291611Y-14871508D01*
X6291611Y-14871508D02*
X6272563Y-14842936D01*
X6272563Y-14842936D02*
X6263039Y-14833412D01*
D13*
X1282563Y-15270563D02*
X1282563Y-15198437D01*
X1210437Y-15198437D01*
X1210437Y-15270563D01*
X1282563Y-15270563D01*
D11*
X1663039Y-15325984D02*
X1548753Y-15325984D01*
X1605896Y-15325984D02*
X1605896Y-15125984D01*
X1605896Y-15125984D02*
X1586848Y-15154555D01*
X1586848Y-15154555D02*
X1567801Y-15173603D01*
X1567801Y-15173603D02*
X1548753Y-15183127D01*
X1748753Y-15306936D02*
X1758277Y-15316460D01*
X1758277Y-15316460D02*
X1748753Y-15325984D01*
X1748753Y-15325984D02*
X1739229Y-15316460D01*
X1739229Y-15316460D02*
X1748753Y-15306936D01*
X1748753Y-15306936D02*
X1748753Y-15325984D01*
X1882086Y-15125984D02*
X1901134Y-15125984D01*
X1901134Y-15125984D02*
X1920182Y-15135508D01*
X1920182Y-15135508D02*
X1929705Y-15145031D01*
X1929705Y-15145031D02*
X1939229Y-15164079D01*
X1939229Y-15164079D02*
X1948753Y-15202174D01*
X1948753Y-15202174D02*
X1948753Y-15249793D01*
X1948753Y-15249793D02*
X1939229Y-15287888D01*
X1939229Y-15287888D02*
X1929705Y-15306936D01*
X1929705Y-15306936D02*
X1920182Y-15316460D01*
X1920182Y-15316460D02*
X1901134Y-15325984D01*
X1901134Y-15325984D02*
X1882086Y-15325984D01*
X1882086Y-15325984D02*
X1863039Y-15316460D01*
X1863039Y-15316460D02*
X1853515Y-15306936D01*
X1853515Y-15306936D02*
X1843991Y-15287888D01*
X1843991Y-15287888D02*
X1834467Y-15249793D01*
X1834467Y-15249793D02*
X1834467Y-15202174D01*
X1834467Y-15202174D02*
X1843991Y-15164079D01*
X1843991Y-15164079D02*
X1853515Y-15145031D01*
X1853515Y-15145031D02*
X1863039Y-15135508D01*
X1863039Y-15135508D02*
X1882086Y-15125984D01*
X2024943Y-15145031D02*
X2034467Y-15135508D01*
X2034467Y-15135508D02*
X2053515Y-15125984D01*
X2053515Y-15125984D02*
X2101134Y-15125984D01*
X2101134Y-15125984D02*
X2120182Y-15135508D01*
X2120182Y-15135508D02*
X2129705Y-15145031D01*
X2129705Y-15145031D02*
X2139229Y-15164079D01*
X2139229Y-15164079D02*
X2139229Y-15183127D01*
X2139229Y-15183127D02*
X2129705Y-15211698D01*
X2129705Y-15211698D02*
X2015420Y-15325984D01*
X2015420Y-15325984D02*
X2139229Y-15325984D01*
X2263039Y-15125984D02*
X2282086Y-15125984D01*
X2282086Y-15125984D02*
X2301134Y-15135508D01*
X2301134Y-15135508D02*
X2310658Y-15145031D01*
X2310658Y-15145031D02*
X2320182Y-15164079D01*
X2320182Y-15164079D02*
X2329705Y-15202174D01*
X2329705Y-15202174D02*
X2329705Y-15249793D01*
X2329705Y-15249793D02*
X2320182Y-15287888D01*
X2320182Y-15287888D02*
X2310658Y-15306936D01*
X2310658Y-15306936D02*
X2301134Y-15316460D01*
X2301134Y-15316460D02*
X2282086Y-15325984D01*
X2282086Y-15325984D02*
X2263039Y-15325984D01*
X2263039Y-15325984D02*
X2243991Y-15316460D01*
X2243991Y-15316460D02*
X2234467Y-15306936D01*
X2234467Y-15306936D02*
X2224944Y-15287888D01*
X2224944Y-15287888D02*
X2215420Y-15249793D01*
X2215420Y-15249793D02*
X2215420Y-15202174D01*
X2215420Y-15202174D02*
X2224944Y-15164079D01*
X2224944Y-15164079D02*
X2234467Y-15145031D01*
X2234467Y-15145031D02*
X2243991Y-15135508D01*
X2243991Y-15135508D02*
X2263039Y-15125984D01*
X2415420Y-15325984D02*
X2415420Y-15192650D01*
X2415420Y-15211698D02*
X2424944Y-15202174D01*
X2424944Y-15202174D02*
X2443991Y-15192650D01*
X2443991Y-15192650D02*
X2472563Y-15192650D01*
X2472563Y-15192650D02*
X2491610Y-15202174D01*
X2491610Y-15202174D02*
X2501134Y-15221222D01*
X2501134Y-15221222D02*
X2501134Y-15325984D01*
X2501134Y-15221222D02*
X2510658Y-15202174D01*
X2510658Y-15202174D02*
X2529705Y-15192650D01*
X2529705Y-15192650D02*
X2558277Y-15192650D01*
X2558277Y-15192650D02*
X2577325Y-15202174D01*
X2577325Y-15202174D02*
X2586848Y-15221222D01*
X2586848Y-15221222D02*
X2586848Y-15325984D01*
X2682086Y-15325984D02*
X2682086Y-15192650D01*
X2682086Y-15211698D02*
X2691610Y-15202174D01*
X2691610Y-15202174D02*
X2710658Y-15192650D01*
X2710658Y-15192650D02*
X2739229Y-15192650D01*
X2739229Y-15192650D02*
X2758277Y-15202174D01*
X2758277Y-15202174D02*
X2767801Y-15221222D01*
X2767801Y-15221222D02*
X2767801Y-15325984D01*
X2767801Y-15221222D02*
X2777325Y-15202174D01*
X2777325Y-15202174D02*
X2796372Y-15192650D01*
X2796372Y-15192650D02*
X2824943Y-15192650D01*
X2824943Y-15192650D02*
X2843991Y-15202174D01*
X2843991Y-15202174D02*
X2853515Y-15221222D01*
X2853515Y-15221222D02*
X2853515Y-15325984D01*
X3243991Y-15116460D02*
X3072563Y-15373603D01*
X3501134Y-15125984D02*
X3520182Y-15125984D01*
X3520182Y-15125984D02*
X3539229Y-15135508D01*
X3539229Y-15135508D02*
X3548753Y-15145031D01*
X3548753Y-15145031D02*
X3558277Y-15164079D01*
X3558277Y-15164079D02*
X3567801Y-15202174D01*
X3567801Y-15202174D02*
X3567801Y-15249793D01*
X3567801Y-15249793D02*
X3558277Y-15287888D01*
X3558277Y-15287888D02*
X3548753Y-15306936D01*
X3548753Y-15306936D02*
X3539229Y-15316460D01*
X3539229Y-15316460D02*
X3520182Y-15325984D01*
X3520182Y-15325984D02*
X3501134Y-15325984D01*
X3501134Y-15325984D02*
X3482086Y-15316460D01*
X3482086Y-15316460D02*
X3472563Y-15306936D01*
X3472563Y-15306936D02*
X3463039Y-15287888D01*
X3463039Y-15287888D02*
X3453515Y-15249793D01*
X3453515Y-15249793D02*
X3453515Y-15202174D01*
X3453515Y-15202174D02*
X3463039Y-15164079D01*
X3463039Y-15164079D02*
X3472563Y-15145031D01*
X3472563Y-15145031D02*
X3482086Y-15135508D01*
X3482086Y-15135508D02*
X3501134Y-15125984D01*
X3653515Y-15306936D02*
X3663039Y-15316460D01*
X3663039Y-15316460D02*
X3653515Y-15325984D01*
X3653515Y-15325984D02*
X3643991Y-15316460D01*
X3643991Y-15316460D02*
X3653515Y-15306936D01*
X3653515Y-15306936D02*
X3653515Y-15325984D01*
X3786848Y-15125984D02*
X3805896Y-15125984D01*
X3805896Y-15125984D02*
X3824944Y-15135508D01*
X3824944Y-15135508D02*
X3834467Y-15145031D01*
X3834467Y-15145031D02*
X3843991Y-15164079D01*
X3843991Y-15164079D02*
X3853515Y-15202174D01*
X3853515Y-15202174D02*
X3853515Y-15249793D01*
X3853515Y-15249793D02*
X3843991Y-15287888D01*
X3843991Y-15287888D02*
X3834467Y-15306936D01*
X3834467Y-15306936D02*
X3824944Y-15316460D01*
X3824944Y-15316460D02*
X3805896Y-15325984D01*
X3805896Y-15325984D02*
X3786848Y-15325984D01*
X3786848Y-15325984D02*
X3767801Y-15316460D01*
X3767801Y-15316460D02*
X3758277Y-15306936D01*
X3758277Y-15306936D02*
X3748753Y-15287888D01*
X3748753Y-15287888D02*
X3739229Y-15249793D01*
X3739229Y-15249793D02*
X3739229Y-15202174D01*
X3739229Y-15202174D02*
X3748753Y-15164079D01*
X3748753Y-15164079D02*
X3758277Y-15145031D01*
X3758277Y-15145031D02*
X3767801Y-15135508D01*
X3767801Y-15135508D02*
X3786848Y-15125984D01*
X4024944Y-15192650D02*
X4024944Y-15325984D01*
X3977325Y-15116460D02*
X3929706Y-15259317D01*
X3929706Y-15259317D02*
X4053515Y-15259317D01*
X4167801Y-15125984D02*
X4186848Y-15125984D01*
X4186848Y-15125984D02*
X4205896Y-15135508D01*
X4205896Y-15135508D02*
X4215420Y-15145031D01*
X4215420Y-15145031D02*
X4224944Y-15164079D01*
X4224944Y-15164079D02*
X4234468Y-15202174D01*
X4234468Y-15202174D02*
X4234468Y-15249793D01*
X4234468Y-15249793D02*
X4224944Y-15287888D01*
X4224944Y-15287888D02*
X4215420Y-15306936D01*
X4215420Y-15306936D02*
X4205896Y-15316460D01*
X4205896Y-15316460D02*
X4186848Y-15325984D01*
X4186848Y-15325984D02*
X4167801Y-15325984D01*
X4167801Y-15325984D02*
X4148753Y-15316460D01*
X4148753Y-15316460D02*
X4139229Y-15306936D01*
X4139229Y-15306936D02*
X4129706Y-15287888D01*
X4129706Y-15287888D02*
X4120182Y-15249793D01*
X4120182Y-15249793D02*
X4120182Y-15202174D01*
X4120182Y-15202174D02*
X4129706Y-15164079D01*
X4129706Y-15164079D02*
X4139229Y-15145031D01*
X4139229Y-15145031D02*
X4148753Y-15135508D01*
X4148753Y-15135508D02*
X4167801Y-15125984D01*
X4310658Y-15145031D02*
X4320182Y-15135508D01*
X4320182Y-15135508D02*
X4339229Y-15125984D01*
X4339229Y-15125984D02*
X4386849Y-15125984D01*
X4386849Y-15125984D02*
X4405896Y-15135508D01*
X4405896Y-15135508D02*
X4415420Y-15145031D01*
X4415420Y-15145031D02*
X4424944Y-15164079D01*
X4424944Y-15164079D02*
X4424944Y-15183127D01*
X4424944Y-15183127D02*
X4415420Y-15211698D01*
X4415420Y-15211698D02*
X4301134Y-15325984D01*
X4301134Y-15325984D02*
X4424944Y-15325984D01*
X4501134Y-15125984D02*
X4501134Y-15164079D01*
X4577325Y-15125984D02*
X4577325Y-15164079D01*
X4872563Y-15402174D02*
X4863039Y-15392650D01*
X4863039Y-15392650D02*
X4843991Y-15364079D01*
X4843991Y-15364079D02*
X4834468Y-15345031D01*
X4834468Y-15345031D02*
X4824944Y-15316460D01*
X4824944Y-15316460D02*
X4815420Y-15268841D01*
X4815420Y-15268841D02*
X4815420Y-15230746D01*
X4815420Y-15230746D02*
X4824944Y-15183127D01*
X4824944Y-15183127D02*
X4834468Y-15154555D01*
X4834468Y-15154555D02*
X4843991Y-15135508D01*
X4843991Y-15135508D02*
X4863039Y-15106936D01*
X4863039Y-15106936D02*
X4872563Y-15097412D01*
X5034468Y-15192650D02*
X5034468Y-15325984D01*
X4986849Y-15116460D02*
X4939230Y-15259317D01*
X4939230Y-15259317D02*
X5063039Y-15259317D01*
X5177325Y-15125984D02*
X5196372Y-15125984D01*
X5196372Y-15125984D02*
X5215420Y-15135508D01*
X5215420Y-15135508D02*
X5224944Y-15145031D01*
X5224944Y-15145031D02*
X5234468Y-15164079D01*
X5234468Y-15164079D02*
X5243991Y-15202174D01*
X5243991Y-15202174D02*
X5243991Y-15249793D01*
X5243991Y-15249793D02*
X5234468Y-15287888D01*
X5234468Y-15287888D02*
X5224944Y-15306936D01*
X5224944Y-15306936D02*
X5215420Y-15316460D01*
X5215420Y-15316460D02*
X5196372Y-15325984D01*
X5196372Y-15325984D02*
X5177325Y-15325984D01*
X5177325Y-15325984D02*
X5158277Y-15316460D01*
X5158277Y-15316460D02*
X5148753Y-15306936D01*
X5148753Y-15306936D02*
X5139230Y-15287888D01*
X5139230Y-15287888D02*
X5129706Y-15249793D01*
X5129706Y-15249793D02*
X5129706Y-15202174D01*
X5129706Y-15202174D02*
X5139230Y-15164079D01*
X5139230Y-15164079D02*
X5148753Y-15145031D01*
X5148753Y-15145031D02*
X5158277Y-15135508D01*
X5158277Y-15135508D02*
X5177325Y-15125984D01*
X5482087Y-15325984D02*
X5482087Y-15125984D01*
X5567801Y-15325984D02*
X5567801Y-15221222D01*
X5567801Y-15221222D02*
X5558277Y-15202174D01*
X5558277Y-15202174D02*
X5539230Y-15192650D01*
X5539230Y-15192650D02*
X5510658Y-15192650D01*
X5510658Y-15192650D02*
X5491611Y-15202174D01*
X5491611Y-15202174D02*
X5482087Y-15211698D01*
X5691610Y-15325984D02*
X5672563Y-15316460D01*
X5672563Y-15316460D02*
X5663039Y-15306936D01*
X5663039Y-15306936D02*
X5653515Y-15287888D01*
X5653515Y-15287888D02*
X5653515Y-15230746D01*
X5653515Y-15230746D02*
X5663039Y-15211698D01*
X5663039Y-15211698D02*
X5672563Y-15202174D01*
X5672563Y-15202174D02*
X5691610Y-15192650D01*
X5691610Y-15192650D02*
X5720182Y-15192650D01*
X5720182Y-15192650D02*
X5739230Y-15202174D01*
X5739230Y-15202174D02*
X5748753Y-15211698D01*
X5748753Y-15211698D02*
X5758277Y-15230746D01*
X5758277Y-15230746D02*
X5758277Y-15287888D01*
X5758277Y-15287888D02*
X5748753Y-15306936D01*
X5748753Y-15306936D02*
X5739230Y-15316460D01*
X5739230Y-15316460D02*
X5720182Y-15325984D01*
X5720182Y-15325984D02*
X5691610Y-15325984D01*
X5872563Y-15325984D02*
X5853515Y-15316460D01*
X5853515Y-15316460D02*
X5843991Y-15297412D01*
X5843991Y-15297412D02*
X5843991Y-15125984D01*
X6024944Y-15316460D02*
X6005896Y-15325984D01*
X6005896Y-15325984D02*
X5967801Y-15325984D01*
X5967801Y-15325984D02*
X5948753Y-15316460D01*
X5948753Y-15316460D02*
X5939230Y-15297412D01*
X5939230Y-15297412D02*
X5939230Y-15221222D01*
X5939230Y-15221222D02*
X5948753Y-15202174D01*
X5948753Y-15202174D02*
X5967801Y-15192650D01*
X5967801Y-15192650D02*
X6005896Y-15192650D01*
X6005896Y-15192650D02*
X6024944Y-15202174D01*
X6024944Y-15202174D02*
X6034468Y-15221222D01*
X6034468Y-15221222D02*
X6034468Y-15240269D01*
X6034468Y-15240269D02*
X5939230Y-15259317D01*
X6110658Y-15316460D02*
X6129706Y-15325984D01*
X6129706Y-15325984D02*
X6167801Y-15325984D01*
X6167801Y-15325984D02*
X6186849Y-15316460D01*
X6186849Y-15316460D02*
X6196372Y-15297412D01*
X6196372Y-15297412D02*
X6196372Y-15287888D01*
X6196372Y-15287888D02*
X6186849Y-15268841D01*
X6186849Y-15268841D02*
X6167801Y-15259317D01*
X6167801Y-15259317D02*
X6139230Y-15259317D01*
X6139230Y-15259317D02*
X6120182Y-15249793D01*
X6120182Y-15249793D02*
X6110658Y-15230746D01*
X6110658Y-15230746D02*
X6110658Y-15221222D01*
X6110658Y-15221222D02*
X6120182Y-15202174D01*
X6120182Y-15202174D02*
X6139230Y-15192650D01*
X6139230Y-15192650D02*
X6167801Y-15192650D01*
X6167801Y-15192650D02*
X6186849Y-15202174D01*
X6263039Y-15402174D02*
X6272563Y-15392650D01*
X6272563Y-15392650D02*
X6291611Y-15364079D01*
X6291611Y-15364079D02*
X6301134Y-15345031D01*
X6301134Y-15345031D02*
X6310658Y-15316460D01*
X6310658Y-15316460D02*
X6320182Y-15268841D01*
X6320182Y-15268841D02*
X6320182Y-15230746D01*
X6320182Y-15230746D02*
X6310658Y-15183127D01*
X6310658Y-15183127D02*
X6301134Y-15154555D01*
X6301134Y-15154555D02*
X6291611Y-15135508D01*
X6291611Y-15135508D02*
X6272563Y-15106936D01*
X6272563Y-15106936D02*
X6263039Y-15097412D01*
D14*
X1242500Y-15553500D02*
X1297500Y-15498500D01*
X1242500Y-15443500D01*
X1187500Y-15498500D01*
X1242500Y-15553500D01*
D11*
X1663039Y-15589984D02*
X1548753Y-15589984D01*
X1605896Y-15589984D02*
X1605896Y-15389984D01*
X1605896Y-15389984D02*
X1586848Y-15418555D01*
X1586848Y-15418555D02*
X1567801Y-15437603D01*
X1567801Y-15437603D02*
X1548753Y-15447127D01*
X1748753Y-15570936D02*
X1758277Y-15580460D01*
X1758277Y-15580460D02*
X1748753Y-15589984D01*
X1748753Y-15589984D02*
X1739229Y-15580460D01*
X1739229Y-15580460D02*
X1748753Y-15570936D01*
X1748753Y-15570936D02*
X1748753Y-15589984D01*
X1948753Y-15589984D02*
X1834467Y-15589984D01*
X1891610Y-15589984D02*
X1891610Y-15389984D01*
X1891610Y-15389984D02*
X1872562Y-15418555D01*
X1872562Y-15418555D02*
X1853515Y-15437603D01*
X1853515Y-15437603D02*
X1834467Y-15447127D01*
X2072562Y-15389984D02*
X2091610Y-15389984D01*
X2091610Y-15389984D02*
X2110658Y-15399508D01*
X2110658Y-15399508D02*
X2120182Y-15409031D01*
X2120182Y-15409031D02*
X2129705Y-15428079D01*
X2129705Y-15428079D02*
X2139229Y-15466174D01*
X2139229Y-15466174D02*
X2139229Y-15513793D01*
X2139229Y-15513793D02*
X2129705Y-15551888D01*
X2129705Y-15551888D02*
X2120182Y-15570936D01*
X2120182Y-15570936D02*
X2110658Y-15580460D01*
X2110658Y-15580460D02*
X2091610Y-15589984D01*
X2091610Y-15589984D02*
X2072562Y-15589984D01*
X2072562Y-15589984D02*
X2053515Y-15580460D01*
X2053515Y-15580460D02*
X2043991Y-15570936D01*
X2043991Y-15570936D02*
X2034467Y-15551888D01*
X2034467Y-15551888D02*
X2024943Y-15513793D01*
X2024943Y-15513793D02*
X2024943Y-15466174D01*
X2024943Y-15466174D02*
X2034467Y-15428079D01*
X2034467Y-15428079D02*
X2043991Y-15409031D01*
X2043991Y-15409031D02*
X2053515Y-15399508D01*
X2053515Y-15399508D02*
X2072562Y-15389984D01*
X2263039Y-15389984D02*
X2282086Y-15389984D01*
X2282086Y-15389984D02*
X2301134Y-15399508D01*
X2301134Y-15399508D02*
X2310658Y-15409031D01*
X2310658Y-15409031D02*
X2320182Y-15428079D01*
X2320182Y-15428079D02*
X2329705Y-15466174D01*
X2329705Y-15466174D02*
X2329705Y-15513793D01*
X2329705Y-15513793D02*
X2320182Y-15551888D01*
X2320182Y-15551888D02*
X2310658Y-15570936D01*
X2310658Y-15570936D02*
X2301134Y-15580460D01*
X2301134Y-15580460D02*
X2282086Y-15589984D01*
X2282086Y-15589984D02*
X2263039Y-15589984D01*
X2263039Y-15589984D02*
X2243991Y-15580460D01*
X2243991Y-15580460D02*
X2234467Y-15570936D01*
X2234467Y-15570936D02*
X2224944Y-15551888D01*
X2224944Y-15551888D02*
X2215420Y-15513793D01*
X2215420Y-15513793D02*
X2215420Y-15466174D01*
X2215420Y-15466174D02*
X2224944Y-15428079D01*
X2224944Y-15428079D02*
X2234467Y-15409031D01*
X2234467Y-15409031D02*
X2243991Y-15399508D01*
X2243991Y-15399508D02*
X2263039Y-15389984D01*
X2415420Y-15589984D02*
X2415420Y-15456650D01*
X2415420Y-15475698D02*
X2424944Y-15466174D01*
X2424944Y-15466174D02*
X2443991Y-15456650D01*
X2443991Y-15456650D02*
X2472563Y-15456650D01*
X2472563Y-15456650D02*
X2491610Y-15466174D01*
X2491610Y-15466174D02*
X2501134Y-15485222D01*
X2501134Y-15485222D02*
X2501134Y-15589984D01*
X2501134Y-15485222D02*
X2510658Y-15466174D01*
X2510658Y-15466174D02*
X2529705Y-15456650D01*
X2529705Y-15456650D02*
X2558277Y-15456650D01*
X2558277Y-15456650D02*
X2577325Y-15466174D01*
X2577325Y-15466174D02*
X2586848Y-15485222D01*
X2586848Y-15485222D02*
X2586848Y-15589984D01*
X2682086Y-15589984D02*
X2682086Y-15456650D01*
X2682086Y-15475698D02*
X2691610Y-15466174D01*
X2691610Y-15466174D02*
X2710658Y-15456650D01*
X2710658Y-15456650D02*
X2739229Y-15456650D01*
X2739229Y-15456650D02*
X2758277Y-15466174D01*
X2758277Y-15466174D02*
X2767801Y-15485222D01*
X2767801Y-15485222D02*
X2767801Y-15589984D01*
X2767801Y-15485222D02*
X2777325Y-15466174D01*
X2777325Y-15466174D02*
X2796372Y-15456650D01*
X2796372Y-15456650D02*
X2824943Y-15456650D01*
X2824943Y-15456650D02*
X2843991Y-15466174D01*
X2843991Y-15466174D02*
X2853515Y-15485222D01*
X2853515Y-15485222D02*
X2853515Y-15589984D01*
X3243991Y-15380460D02*
X3072563Y-15637603D01*
X3501134Y-15389984D02*
X3520182Y-15389984D01*
X3520182Y-15389984D02*
X3539229Y-15399508D01*
X3539229Y-15399508D02*
X3548753Y-15409031D01*
X3548753Y-15409031D02*
X3558277Y-15428079D01*
X3558277Y-15428079D02*
X3567801Y-15466174D01*
X3567801Y-15466174D02*
X3567801Y-15513793D01*
X3567801Y-15513793D02*
X3558277Y-15551888D01*
X3558277Y-15551888D02*
X3548753Y-15570936D01*
X3548753Y-15570936D02*
X3539229Y-15580460D01*
X3539229Y-15580460D02*
X3520182Y-15589984D01*
X3520182Y-15589984D02*
X3501134Y-15589984D01*
X3501134Y-15589984D02*
X3482086Y-15580460D01*
X3482086Y-15580460D02*
X3472563Y-15570936D01*
X3472563Y-15570936D02*
X3463039Y-15551888D01*
X3463039Y-15551888D02*
X3453515Y-15513793D01*
X3453515Y-15513793D02*
X3453515Y-15466174D01*
X3453515Y-15466174D02*
X3463039Y-15428079D01*
X3463039Y-15428079D02*
X3472563Y-15409031D01*
X3472563Y-15409031D02*
X3482086Y-15399508D01*
X3482086Y-15399508D02*
X3501134Y-15389984D01*
X3653515Y-15570936D02*
X3663039Y-15580460D01*
X3663039Y-15580460D02*
X3653515Y-15589984D01*
X3653515Y-15589984D02*
X3643991Y-15580460D01*
X3643991Y-15580460D02*
X3653515Y-15570936D01*
X3653515Y-15570936D02*
X3653515Y-15589984D01*
X3786848Y-15389984D02*
X3805896Y-15389984D01*
X3805896Y-15389984D02*
X3824944Y-15399508D01*
X3824944Y-15399508D02*
X3834467Y-15409031D01*
X3834467Y-15409031D02*
X3843991Y-15428079D01*
X3843991Y-15428079D02*
X3853515Y-15466174D01*
X3853515Y-15466174D02*
X3853515Y-15513793D01*
X3853515Y-15513793D02*
X3843991Y-15551888D01*
X3843991Y-15551888D02*
X3834467Y-15570936D01*
X3834467Y-15570936D02*
X3824944Y-15580460D01*
X3824944Y-15580460D02*
X3805896Y-15589984D01*
X3805896Y-15589984D02*
X3786848Y-15589984D01*
X3786848Y-15589984D02*
X3767801Y-15580460D01*
X3767801Y-15580460D02*
X3758277Y-15570936D01*
X3758277Y-15570936D02*
X3748753Y-15551888D01*
X3748753Y-15551888D02*
X3739229Y-15513793D01*
X3739229Y-15513793D02*
X3739229Y-15466174D01*
X3739229Y-15466174D02*
X3748753Y-15428079D01*
X3748753Y-15428079D02*
X3758277Y-15409031D01*
X3758277Y-15409031D02*
X3767801Y-15399508D01*
X3767801Y-15399508D02*
X3786848Y-15389984D01*
X4024944Y-15456650D02*
X4024944Y-15589984D01*
X3977325Y-15380460D02*
X3929706Y-15523317D01*
X3929706Y-15523317D02*
X4053515Y-15523317D01*
X4110658Y-15389984D02*
X4234468Y-15389984D01*
X4234468Y-15389984D02*
X4167801Y-15466174D01*
X4167801Y-15466174D02*
X4196372Y-15466174D01*
X4196372Y-15466174D02*
X4215420Y-15475698D01*
X4215420Y-15475698D02*
X4224944Y-15485222D01*
X4224944Y-15485222D02*
X4234468Y-15504269D01*
X4234468Y-15504269D02*
X4234468Y-15551888D01*
X4234468Y-15551888D02*
X4224944Y-15570936D01*
X4224944Y-15570936D02*
X4215420Y-15580460D01*
X4215420Y-15580460D02*
X4196372Y-15589984D01*
X4196372Y-15589984D02*
X4139229Y-15589984D01*
X4139229Y-15589984D02*
X4120182Y-15580460D01*
X4120182Y-15580460D02*
X4110658Y-15570936D01*
X4301134Y-15389984D02*
X4424944Y-15389984D01*
X4424944Y-15389984D02*
X4358277Y-15466174D01*
X4358277Y-15466174D02*
X4386849Y-15466174D01*
X4386849Y-15466174D02*
X4405896Y-15475698D01*
X4405896Y-15475698D02*
X4415420Y-15485222D01*
X4415420Y-15485222D02*
X4424944Y-15504269D01*
X4424944Y-15504269D02*
X4424944Y-15551888D01*
X4424944Y-15551888D02*
X4415420Y-15570936D01*
X4415420Y-15570936D02*
X4405896Y-15580460D01*
X4405896Y-15580460D02*
X4386849Y-15589984D01*
X4386849Y-15589984D02*
X4329706Y-15589984D01*
X4329706Y-15589984D02*
X4310658Y-15580460D01*
X4310658Y-15580460D02*
X4301134Y-15570936D01*
X4501134Y-15389984D02*
X4501134Y-15428079D01*
X4577325Y-15389984D02*
X4577325Y-15428079D01*
X4872563Y-15666174D02*
X4863039Y-15656650D01*
X4863039Y-15656650D02*
X4843991Y-15628079D01*
X4843991Y-15628079D02*
X4834468Y-15609031D01*
X4834468Y-15609031D02*
X4824944Y-15580460D01*
X4824944Y-15580460D02*
X4815420Y-15532841D01*
X4815420Y-15532841D02*
X4815420Y-15494746D01*
X4815420Y-15494746D02*
X4824944Y-15447127D01*
X4824944Y-15447127D02*
X4834468Y-15418555D01*
X4834468Y-15418555D02*
X4843991Y-15399508D01*
X4843991Y-15399508D02*
X4863039Y-15370936D01*
X4863039Y-15370936D02*
X4872563Y-15361412D01*
X5043991Y-15389984D02*
X4948753Y-15389984D01*
X4948753Y-15389984D02*
X4939230Y-15485222D01*
X4939230Y-15485222D02*
X4948753Y-15475698D01*
X4948753Y-15475698D02*
X4967801Y-15466174D01*
X4967801Y-15466174D02*
X5015420Y-15466174D01*
X5015420Y-15466174D02*
X5034468Y-15475698D01*
X5034468Y-15475698D02*
X5043991Y-15485222D01*
X5043991Y-15485222D02*
X5053515Y-15504269D01*
X5053515Y-15504269D02*
X5053515Y-15551888D01*
X5053515Y-15551888D02*
X5043991Y-15570936D01*
X5043991Y-15570936D02*
X5034468Y-15580460D01*
X5034468Y-15580460D02*
X5015420Y-15589984D01*
X5015420Y-15589984D02*
X4967801Y-15589984D01*
X4967801Y-15589984D02*
X4948753Y-15580460D01*
X4948753Y-15580460D02*
X4939230Y-15570936D01*
X5148753Y-15589984D02*
X5186849Y-15589984D01*
X5186849Y-15589984D02*
X5205896Y-15580460D01*
X5205896Y-15580460D02*
X5215420Y-15570936D01*
X5215420Y-15570936D02*
X5234468Y-15542365D01*
X5234468Y-15542365D02*
X5243991Y-15504269D01*
X5243991Y-15504269D02*
X5243991Y-15428079D01*
X5243991Y-15428079D02*
X5234468Y-15409031D01*
X5234468Y-15409031D02*
X5224944Y-15399508D01*
X5224944Y-15399508D02*
X5205896Y-15389984D01*
X5205896Y-15389984D02*
X5167801Y-15389984D01*
X5167801Y-15389984D02*
X5148753Y-15399508D01*
X5148753Y-15399508D02*
X5139230Y-15409031D01*
X5139230Y-15409031D02*
X5129706Y-15428079D01*
X5129706Y-15428079D02*
X5129706Y-15475698D01*
X5129706Y-15475698D02*
X5139230Y-15494746D01*
X5139230Y-15494746D02*
X5148753Y-15504269D01*
X5148753Y-15504269D02*
X5167801Y-15513793D01*
X5167801Y-15513793D02*
X5205896Y-15513793D01*
X5205896Y-15513793D02*
X5224944Y-15504269D01*
X5224944Y-15504269D02*
X5234468Y-15494746D01*
X5234468Y-15494746D02*
X5243991Y-15475698D01*
X5482087Y-15589984D02*
X5482087Y-15389984D01*
X5567801Y-15589984D02*
X5567801Y-15485222D01*
X5567801Y-15485222D02*
X5558277Y-15466174D01*
X5558277Y-15466174D02*
X5539230Y-15456650D01*
X5539230Y-15456650D02*
X5510658Y-15456650D01*
X5510658Y-15456650D02*
X5491611Y-15466174D01*
X5491611Y-15466174D02*
X5482087Y-15475698D01*
X5691610Y-15589984D02*
X5672563Y-15580460D01*
X5672563Y-15580460D02*
X5663039Y-15570936D01*
X5663039Y-15570936D02*
X5653515Y-15551888D01*
X5653515Y-15551888D02*
X5653515Y-15494746D01*
X5653515Y-15494746D02*
X5663039Y-15475698D01*
X5663039Y-15475698D02*
X5672563Y-15466174D01*
X5672563Y-15466174D02*
X5691610Y-15456650D01*
X5691610Y-15456650D02*
X5720182Y-15456650D01*
X5720182Y-15456650D02*
X5739230Y-15466174D01*
X5739230Y-15466174D02*
X5748753Y-15475698D01*
X5748753Y-15475698D02*
X5758277Y-15494746D01*
X5758277Y-15494746D02*
X5758277Y-15551888D01*
X5758277Y-15551888D02*
X5748753Y-15570936D01*
X5748753Y-15570936D02*
X5739230Y-15580460D01*
X5739230Y-15580460D02*
X5720182Y-15589984D01*
X5720182Y-15589984D02*
X5691610Y-15589984D01*
X5872563Y-15589984D02*
X5853515Y-15580460D01*
X5853515Y-15580460D02*
X5843991Y-15561412D01*
X5843991Y-15561412D02*
X5843991Y-15389984D01*
X6024944Y-15580460D02*
X6005896Y-15589984D01*
X6005896Y-15589984D02*
X5967801Y-15589984D01*
X5967801Y-15589984D02*
X5948753Y-15580460D01*
X5948753Y-15580460D02*
X5939230Y-15561412D01*
X5939230Y-15561412D02*
X5939230Y-15485222D01*
X5939230Y-15485222D02*
X5948753Y-15466174D01*
X5948753Y-15466174D02*
X5967801Y-15456650D01*
X5967801Y-15456650D02*
X6005896Y-15456650D01*
X6005896Y-15456650D02*
X6024944Y-15466174D01*
X6024944Y-15466174D02*
X6034468Y-15485222D01*
X6034468Y-15485222D02*
X6034468Y-15504269D01*
X6034468Y-15504269D02*
X5939230Y-15523317D01*
X6110658Y-15580460D02*
X6129706Y-15589984D01*
X6129706Y-15589984D02*
X6167801Y-15589984D01*
X6167801Y-15589984D02*
X6186849Y-15580460D01*
X6186849Y-15580460D02*
X6196372Y-15561412D01*
X6196372Y-15561412D02*
X6196372Y-15551888D01*
X6196372Y-15551888D02*
X6186849Y-15532841D01*
X6186849Y-15532841D02*
X6167801Y-15523317D01*
X6167801Y-15523317D02*
X6139230Y-15523317D01*
X6139230Y-15523317D02*
X6120182Y-15513793D01*
X6120182Y-15513793D02*
X6110658Y-15494746D01*
X6110658Y-15494746D02*
X6110658Y-15485222D01*
X6110658Y-15485222D02*
X6120182Y-15466174D01*
X6120182Y-15466174D02*
X6139230Y-15456650D01*
X6139230Y-15456650D02*
X6167801Y-15456650D01*
X6167801Y-15456650D02*
X6186849Y-15466174D01*
X6263039Y-15666174D02*
X6272563Y-15656650D01*
X6272563Y-15656650D02*
X6291611Y-15628079D01*
X6291611Y-15628079D02*
X6301134Y-15609031D01*
X6301134Y-15609031D02*
X6310658Y-15580460D01*
X6310658Y-15580460D02*
X6320182Y-15532841D01*
X6320182Y-15532841D02*
X6320182Y-15494746D01*
X6320182Y-15494746D02*
X6310658Y-15447127D01*
X6310658Y-15447127D02*
X6301134Y-15418555D01*
X6301134Y-15418555D02*
X6291611Y-15399508D01*
X6291611Y-15399508D02*
X6272563Y-15370936D01*
X6272563Y-15370936D02*
X6263039Y-15361412D01*
M02*
