M48
; DRILL file {KiCad 8.0.3-1.fc40} date 2024-06-20T20:23:44-0400
; FORMAT={-:-/ absolute / metric / decimal}
; #@! TF.CreationDate,2024-06-20T20:23:44-04:00
; #@! TF.GenerationSoftware,Kicad,Pcbnew,8.0.3-1.fc40
; #@! TF.FileFunction,Plated,1,4,PTH
FMAT,2
METRIC
; #@! TA.AperFunction,Plated,PTH,ViaDrill
T1C0.300
; #@! TA.AperFunction,Plated,PTH,ComponentDrill
T2C0.770
; #@! TA.AperFunction,Plated,PTH,ComponentDrill
T3C0.800
; #@! TA.AperFunction,Plated,PTH,ComponentDrill
T4C1.020
; #@! TA.AperFunction,Plated,PTH,ComponentDrill
T5C1.100
%
G90
G05
T1
X18.336Y-78.715
X18.536Y-73.015
X19.296Y-70.128
X21.909Y-72.742
X21.937Y-73.541
X24.3Y-61.1
X24.316Y-85.1
X25.616Y-60.9
X26.316Y-85.1
X28.116Y-60.9
X28.816Y-85.1
X30.616Y-60.9
X30.836Y-116.215
X31.416Y-85.1
X33.116Y-60.9
X33.916Y-85.1
X35.616Y-60.9
X36.516Y-85.2
X38.116Y-60.9
X39.016Y-85.2
X40.616Y-60.9
X41.616Y-85.2
X43.116Y-60.9
X44.116Y-85.3
X45.616Y-60.9
X46.616Y-85.3
X48.116Y-60.9
X49.216Y-85.3
X50.616Y-60.9
X51.716Y-85.3
X53.116Y-60.9
X54.0Y-42.9
X54.216Y-85.3
X55.0Y-43.9
X55.616Y-60.9
X56.2Y-44.9
X56.816Y-85.3
X57.1Y-45.9
X58.1Y-46.9
X58.116Y-60.9
X58.978Y-47.878
X59.316Y-85.3
X60.616Y-60.9
X61.916Y-85.4
X63.116Y-60.9
X64.416Y-85.4
X65.616Y-60.9
X66.116Y-105.2
X66.82Y-104.8
X66.916Y-85.4
X67.616Y-104.4
X68.316Y-104.0
X69.047Y-103.6
X69.747Y-103.2
X70.546Y-102.847
X71.209Y-102.4
X71.981Y-102.0
X72.726Y-101.6
X73.465Y-101.2
X74.265Y-100.8
X74.968Y-100.4
X75.7Y-100.0
X75.8Y-48.0
X76.485Y-99.703
X77.153Y-99.263
X77.257Y-57.6
X77.816Y-98.8
X78.416Y-98.2
X79.8Y-48.0
X79.8Y-62.2
X81.8Y-48.0
X81.8Y-60.2
X84.343Y-57.6
X85.8Y-48.0
X87.4Y-44.2
X94.5Y-44.2
X97.6Y-44.2
X100.7Y-44.2
X103.5Y-44.2
X103.816Y-85.2
X103.816Y-90.2
X103.916Y-73.8
X103.916Y-78.7
X103.916Y-97.8
X103.916Y-102.7
X103.916Y-110.3
X103.916Y-115.2
X103.916Y-122.4
X103.916Y-127.3
X106.3Y-44.2
X107.316Y-86.8
X107.316Y-91.6
X107.416Y-80.2
X107.416Y-99.3
X107.416Y-104.1
X107.416Y-108.8
X107.416Y-116.8
X107.416Y-121.0
X107.416Y-128.7
X108.636Y-88.65
X108.636Y-101.15
X108.636Y-113.55
X108.636Y-125.65
X108.736Y-77.05
X109.1Y-44.2
X109.836Y-124.05
X109.936Y-75.55
X109.936Y-86.95
X109.936Y-99.35
X109.936Y-111.95
X112.416Y-86.7
X112.416Y-91.6
X112.416Y-116.8
X112.416Y-121.0
X112.416Y-128.8
X112.516Y-80.2
X112.516Y-99.3
X112.516Y-104.2
X112.516Y-108.8
X113.716Y-72.1
X121.016Y-116.0
X121.016Y-120.0
X121.016Y-124.5
X121.016Y-129.5
X124.716Y-117.7
X124.716Y-121.9
X124.716Y-126.3
X124.716Y-131.1
X128.316Y-116.0
X128.316Y-119.9
X128.316Y-124.5
X128.316Y-129.5
X161.916Y-80.1
X163.016Y-70.1
X163.016Y-72.1
X163.016Y-74.1
X163.016Y-76.1
X163.016Y-86.1
X163.016Y-92.1
X164.716Y-98.1
X164.716Y-100.1
X164.716Y-102.0
X164.716Y-104.0
X164.716Y-106.1
X164.716Y-108.1
X164.716Y-110.1
X164.716Y-112.1
X164.716Y-114.2
X164.716Y-116.1
X164.716Y-118.0
X164.716Y-120.0
X164.716Y-121.9
X164.716Y-124.0
X164.716Y-126.0
X164.716Y-128.0
X164.716Y-130.1
X164.716Y-132.1
T2
X131.956Y-114.88
X131.956Y-117.42
X131.956Y-119.96
X131.956Y-122.5
X131.956Y-125.04
X131.956Y-127.58
X131.956Y-130.12
X139.896Y-114.88
X139.896Y-117.42
X139.896Y-119.96
X139.896Y-122.5
X139.896Y-125.04
X139.896Y-127.58
X139.896Y-130.12
X144.016Y-114.92
X144.016Y-117.46
X144.016Y-120.0
X144.016Y-122.54
X144.016Y-125.08
X144.016Y-127.62
X144.016Y-130.16
X151.956Y-114.92
X151.956Y-117.46
X151.956Y-120.0
X151.956Y-122.54
X151.956Y-125.08
X151.956Y-127.62
X151.956Y-130.16
T3
X15.96Y-35.86
X18.5Y-35.86
X20.536Y-114.73
X20.536Y-117.27
X21.04Y-35.86
X29.96Y-35.86
X32.5Y-35.86
X32.776Y-110.818
X32.776Y-112.818
X32.776Y-114.818
X34.776Y-110.818
X34.776Y-112.818
X34.776Y-114.818
X35.04Y-35.86
X43.96Y-35.86
X46.5Y-35.86
X49.04Y-35.86
X57.96Y-35.86
X60.5Y-35.86
X63.04Y-35.86
X71.96Y-35.86
X74.5Y-35.86
X77.04Y-35.86
X85.96Y-35.86
X88.5Y-35.86
X91.04Y-35.86
X99.96Y-35.86
X102.5Y-35.86
X105.04Y-35.86
X113.96Y-35.86
X116.5Y-35.86
X119.04Y-35.86
X127.96Y-35.86
X130.5Y-35.86
X133.04Y-35.86
X141.96Y-35.86
X144.5Y-35.86
X147.04Y-35.86
X155.96Y-35.86
X158.5Y-35.86
X161.04Y-35.86
X169.96Y-35.86
X172.5Y-35.86
X175.04Y-35.86
X183.96Y-35.86
X186.5Y-35.86
X189.04Y-35.86
X197.96Y-35.86
X200.5Y-35.86
X203.04Y-35.86
X211.96Y-35.86
X214.5Y-35.86
X217.04Y-35.86
X225.96Y-35.86
X228.5Y-35.86
X231.04Y-35.86
X239.96Y-35.86
X242.5Y-35.86
X245.04Y-35.86
X253.96Y-35.86
X256.5Y-35.86
X259.04Y-35.86
T4
X22.776Y-79.0
X22.776Y-81.54
X25.316Y-79.0
X25.316Y-81.54
X27.856Y-79.0
X27.856Y-81.54
X30.396Y-79.0
X30.396Y-81.54
X32.936Y-79.0
X32.936Y-81.54
X35.476Y-79.0
X35.476Y-81.54
X38.016Y-79.0
X38.016Y-81.54
X40.556Y-79.0
X40.556Y-81.54
X43.096Y-79.0
X43.096Y-81.54
X45.636Y-79.0
X45.636Y-81.54
X48.176Y-79.0
X48.176Y-81.54
X50.716Y-79.0
X50.716Y-81.54
X53.256Y-79.0
X53.256Y-81.54
X55.796Y-79.0
X55.796Y-81.54
X58.336Y-79.0
X58.336Y-81.54
X60.876Y-79.0
X60.876Y-81.54
X63.416Y-79.0
X63.416Y-81.54
X65.956Y-79.0
X65.956Y-81.54
X68.496Y-79.0
X68.496Y-81.54
X71.036Y-79.0
X71.036Y-81.54
T5
X19.806Y-108.38
X19.806Y-123.62
X22.346Y-108.38
X22.346Y-110.92
X22.346Y-123.62
X24.886Y-108.38
X24.886Y-123.62
X26.105Y-120.569
X27.426Y-108.38
X27.426Y-123.62
X28.645Y-120.569
X29.966Y-108.38
X29.966Y-123.62
X31.185Y-120.569
X32.506Y-108.38
X32.506Y-123.62
X33.725Y-120.569
X35.046Y-108.38
X35.046Y-123.62
X36.265Y-120.569
X37.586Y-108.38
X37.586Y-123.62
X40.126Y-108.38
X40.126Y-123.62
X42.666Y-108.38
X42.666Y-123.62
X45.206Y-108.38
X45.206Y-123.62
X47.746Y-108.38
X47.746Y-123.62
X50.286Y-108.38
X50.286Y-123.62
X52.826Y-108.38
X52.826Y-123.62
X55.366Y-108.38
X55.366Y-123.62
X57.906Y-108.38
X57.906Y-123.62
X60.446Y-108.38
X60.446Y-123.62
X62.986Y-108.38
X62.986Y-123.62
X65.526Y-108.38
X65.526Y-110.92
X65.526Y-113.46
X65.526Y-116.0
X65.526Y-118.54
X65.526Y-121.08
X65.526Y-123.62
X68.066Y-108.38
X68.066Y-123.62
X70.606Y-108.38
X70.606Y-123.62
X73.146Y-108.38
X73.146Y-123.62
X75.686Y-108.38
X75.686Y-123.62
X78.226Y-108.38
X78.226Y-123.62
M30
