%TF.GenerationSoftware,KiCad,Pcbnew,8.0.3-1.fc40*%
%TF.CreationDate,2024-06-20T20:23:56-04:00*%
%TF.ProjectId,sampler_split_sensor,73616d70-6c65-4725-9f73-706c69745f73,rev?*%
%TF.SameCoordinates,Original*%
%TF.FileFunction,Paste,Top*%
%TF.FilePolarity,Positive*%
%FSLAX46Y46*%
G04 Gerber Fmt 4.6, Leading zero omitted, Abs format (unit mm)*
G04 Created by KiCad (PCBNEW 8.0.3-1.fc40) date 2024-06-20 20:23:56*
%MOMM*%
%LPD*%
G01*
G04 APERTURE LIST*
G04 Aperture macros list*
%AMRoundRect*
0 Rectangle with rounded corners*
0 $1 Rounding radius*
0 $2 $3 $4 $5 $6 $7 $8 $9 X,Y pos of 4 corners*
0 Add a 4 corners polygon primitive as box body*
4,1,4,$2,$3,$4,$5,$6,$7,$8,$9,$2,$3,0*
0 Add four circle primitives for the rounded corners*
1,1,$1+$1,$2,$3*
1,1,$1+$1,$4,$5*
1,1,$1+$1,$6,$7*
1,1,$1+$1,$8,$9*
0 Add four rect primitives between the rounded corners*
20,1,$1+$1,$2,$3,$4,$5,0*
20,1,$1+$1,$4,$5,$6,$7,0*
20,1,$1+$1,$6,$7,$8,$9,0*
20,1,$1+$1,$8,$9,$2,$3,0*%
G04 Aperture macros list end*
%ADD10RoundRect,0.381000X0.381000X-0.762000X0.381000X0.762000X-0.381000X0.762000X-0.381000X-0.762000X0*%
%ADD11RoundRect,0.381000X-0.381000X0.762000X-0.381000X-0.762000X0.381000X-0.762000X0.381000X0.762000X0*%
%ADD12RoundRect,0.073750X0.221250X-0.911250X0.221250X0.911250X-0.221250X0.911250X-0.221250X-0.911250X0*%
%ADD13RoundRect,0.381000X-0.762000X-0.381000X0.762000X-0.381000X0.762000X0.381000X-0.762000X0.381000X0*%
G04 APERTURE END LIST*
D10*
%TO.C,J5*%
X23799999Y-50200000D03*
X25799998Y-50200000D03*
X27799999Y-50200000D03*
X29800000Y-50200000D03*
X31799999Y-50200000D03*
X33799999Y-50200000D03*
X35799999Y-50200000D03*
X37799999Y-50200000D03*
X39799998Y-50200000D03*
X41799999Y-50200000D03*
X43800000Y-50200000D03*
X45799999Y-50200000D03*
X47799999Y-50200000D03*
X49799999Y-50200000D03*
X51799999Y-50200000D03*
X53799999Y-50200000D03*
X55799999Y-50200000D03*
X57799998Y-50200000D03*
X59799999Y-50200000D03*
X61800000Y-50200000D03*
X63799999Y-50200000D03*
X65799999Y-50200000D03*
X67799999Y-50200000D03*
X69799999Y-50200000D03*
X71799998Y-50200000D03*
X73799999Y-50200000D03*
X75800000Y-50200000D03*
X77799999Y-50200000D03*
X79799999Y-50200000D03*
X81799999Y-50200000D03*
X83799999Y-50200000D03*
X85799999Y-50200000D03*
%TD*%
D11*
%TO.C,J4*%
X85800001Y-55000000D03*
X83800002Y-55000000D03*
X81800001Y-55000000D03*
X79800000Y-55000000D03*
X77800001Y-55000000D03*
X75800001Y-55000000D03*
X73800001Y-55000000D03*
X71800001Y-55000000D03*
X69800002Y-55000000D03*
X67800001Y-55000000D03*
X65800000Y-55000000D03*
X63800001Y-55000000D03*
X61800001Y-55000000D03*
X59800001Y-55000000D03*
X57800001Y-55000000D03*
X55800001Y-55000000D03*
X53800001Y-55000000D03*
X51800002Y-55000000D03*
X49800001Y-55000000D03*
X47800000Y-55000000D03*
X45800001Y-55000000D03*
X43800001Y-55000000D03*
X41800001Y-55000000D03*
X39800001Y-55000000D03*
X37800002Y-55000000D03*
X35800001Y-55000000D03*
X33800000Y-55000000D03*
X31800001Y-55000000D03*
X29800001Y-55000000D03*
X27800001Y-55000000D03*
X25800001Y-55000000D03*
X23800001Y-55000000D03*
%TD*%
D12*
%TO.C,DG452_0*%
X104810686Y-127320000D03*
X106080686Y-127320000D03*
X107350686Y-127320000D03*
X108620686Y-127320000D03*
X109890686Y-127320000D03*
X111160686Y-127320000D03*
X112430686Y-127320000D03*
X113700686Y-127320000D03*
X113700686Y-122370000D03*
X112430686Y-122370000D03*
X111160686Y-122370000D03*
X109890686Y-122370000D03*
X108620686Y-122370000D03*
X107350686Y-122370000D03*
X106080686Y-122370000D03*
X104810686Y-122370000D03*
%TD*%
%TO.C,DG452_2*%
X104865686Y-102750000D03*
X106135686Y-102750000D03*
X107405686Y-102750000D03*
X108675686Y-102750000D03*
X109945686Y-102750000D03*
X111215686Y-102750000D03*
X112485686Y-102750000D03*
X113755686Y-102750000D03*
X113755686Y-97800000D03*
X112485686Y-97800000D03*
X111215686Y-97800000D03*
X109945686Y-97800000D03*
X108675686Y-97800000D03*
X107405686Y-97800000D03*
X106135686Y-97800000D03*
X104865686Y-97800000D03*
%TD*%
%TO.C,DG452_3*%
X104810686Y-90275000D03*
X106080686Y-90275000D03*
X107350686Y-90275000D03*
X108620686Y-90275000D03*
X109890686Y-90275000D03*
X111160686Y-90275000D03*
X112430686Y-90275000D03*
X113700686Y-90275000D03*
X113700686Y-85325000D03*
X112430686Y-85325000D03*
X111160686Y-85325000D03*
X109890686Y-85325000D03*
X108620686Y-85325000D03*
X107350686Y-85325000D03*
X106080686Y-85325000D03*
X104810686Y-85325000D03*
%TD*%
%TO.C,DG45_4*%
X104845686Y-78800000D03*
X106115686Y-78800000D03*
X107385686Y-78800000D03*
X108655686Y-78800000D03*
X109925686Y-78800000D03*
X111195686Y-78800000D03*
X112465686Y-78800000D03*
X113735686Y-78800000D03*
X113735686Y-73850000D03*
X112465686Y-73850000D03*
X111195686Y-73850000D03*
X109925686Y-73850000D03*
X108655686Y-73850000D03*
X107385686Y-73850000D03*
X106115686Y-73850000D03*
X104845686Y-73850000D03*
%TD*%
D13*
%TO.C,J2*%
X166515686Y-70100000D03*
X166515686Y-72100000D03*
X166515686Y-74100000D03*
X166515686Y-76100000D03*
X166515686Y-78100000D03*
X166515686Y-80100000D03*
X166515686Y-82100000D03*
X166515686Y-84100000D03*
X166515686Y-86100000D03*
X166515686Y-88100000D03*
X166515686Y-90100000D03*
X166515686Y-92100000D03*
X166515686Y-94100000D03*
X166515686Y-96100000D03*
X166515686Y-98100000D03*
X166515686Y-100100000D03*
X166515686Y-102100000D03*
X166515686Y-104100000D03*
X166515686Y-106100000D03*
X166515686Y-108100000D03*
X166515686Y-110100000D03*
X166515686Y-112100000D03*
X166515686Y-114100000D03*
X166515686Y-116100000D03*
X166515686Y-118100000D03*
X166515686Y-120100000D03*
X166515686Y-122100000D03*
X166515686Y-124100000D03*
X166515686Y-126100000D03*
X166515686Y-128100000D03*
X166515686Y-130100000D03*
X166515686Y-132100000D03*
%TD*%
%TO.C,J3*%
X16535686Y-56715000D03*
X16535686Y-58715000D03*
X16535686Y-60715000D03*
X16535686Y-62715000D03*
X16535686Y-64715000D03*
X16535686Y-66715000D03*
X16535686Y-68715000D03*
X16535686Y-70715000D03*
X16535686Y-72715000D03*
X16535686Y-74715000D03*
X16535686Y-76715000D03*
X16535686Y-78715000D03*
X16535686Y-80715000D03*
X16535686Y-82715000D03*
X16535686Y-84715000D03*
X16535686Y-86715000D03*
X16535686Y-88715000D03*
X16535686Y-90715000D03*
X16535686Y-92715000D03*
X16535686Y-94715000D03*
X16535686Y-96715000D03*
X16535686Y-98715000D03*
X16535686Y-100715000D03*
X16535686Y-102715000D03*
X16535686Y-104715000D03*
X16535686Y-106715000D03*
X16535686Y-108715000D03*
X16535686Y-110715000D03*
X16535686Y-112715000D03*
X16535686Y-114715000D03*
X16535686Y-116715000D03*
X16535686Y-118715000D03*
%TD*%
D12*
%TO.C,DG452_1*%
X104810686Y-115225000D03*
X106080686Y-115225000D03*
X107350686Y-115225000D03*
X108620686Y-115225000D03*
X109890686Y-115225000D03*
X111160686Y-115225000D03*
X112430686Y-115225000D03*
X113700686Y-115225000D03*
X113700686Y-110275000D03*
X112430686Y-110275000D03*
X111160686Y-110275000D03*
X109890686Y-110275000D03*
X108620686Y-110275000D03*
X107350686Y-110275000D03*
X106080686Y-110275000D03*
X104810686Y-110275000D03*
%TD*%
M02*
