%TF.GenerationSoftware,KiCad,Pcbnew,8.0.3-1.fc40*%
%TF.CreationDate,2024-06-20T20:24:14-04:00*%
%TF.ProjectId,sampler_split_sensor,73616d70-6c65-4725-9f73-706c69745f73,rev?*%
%TF.SameCoordinates,Original*%
%TF.FileFunction,Profile,NP*%
%FSLAX46Y46*%
G04 Gerber Fmt 4.6, Leading zero omitted, Abs format (unit mm)*
G04 Created by KiCad (PCBNEW 8.0.3-1.fc40) date 2024-06-20 20:24:14*
%MOMM*%
%LPD*%
G01*
G04 APERTURE LIST*
%TA.AperFunction,Profile*%
%ADD10C,0.050000*%
%TD*%
G04 APERTURE END LIST*
D10*
X27082843Y-52217158D02*
G75*
G02*
X26517157Y-52217158I-282843J0D01*
G01*
X26517157Y-52217158D02*
G75*
G02*
X27082843Y-52217158I282843J0D01*
G01*
X25082843Y-52217158D02*
G75*
G02*
X24517157Y-52217158I-282843J0D01*
G01*
X24517157Y-52217158D02*
G75*
G02*
X25082843Y-52217158I282843J0D01*
G01*
X23082843Y-52217158D02*
G75*
G02*
X22517157Y-52217158I-282843J0D01*
G01*
X22517157Y-52217158D02*
G75*
G02*
X23082843Y-52217158I282843J0D01*
G01*
X33082843Y-52217158D02*
G75*
G02*
X32517157Y-52217158I-282843J0D01*
G01*
X32517157Y-52217158D02*
G75*
G02*
X33082843Y-52217158I282843J0D01*
G01*
X31082843Y-52217158D02*
G75*
G02*
X30517157Y-52217158I-282843J0D01*
G01*
X30517157Y-52217158D02*
G75*
G02*
X31082843Y-52217158I282843J0D01*
G01*
X29082843Y-52217158D02*
G75*
G02*
X28517157Y-52217158I-282843J0D01*
G01*
X28517157Y-52217158D02*
G75*
G02*
X29082843Y-52217158I282843J0D01*
G01*
X39082843Y-52217158D02*
G75*
G02*
X38517157Y-52217158I-282843J0D01*
G01*
X38517157Y-52217158D02*
G75*
G02*
X39082843Y-52217158I282843J0D01*
G01*
X37082843Y-52217158D02*
G75*
G02*
X36517157Y-52217158I-282843J0D01*
G01*
X36517157Y-52217158D02*
G75*
G02*
X37082843Y-52217158I282843J0D01*
G01*
X35082843Y-52217158D02*
G75*
G02*
X34517157Y-52217158I-282843J0D01*
G01*
X34517157Y-52217158D02*
G75*
G02*
X35082843Y-52217158I282843J0D01*
G01*
X45082843Y-52217158D02*
G75*
G02*
X44517157Y-52217158I-282843J0D01*
G01*
X44517157Y-52217158D02*
G75*
G02*
X45082843Y-52217158I282843J0D01*
G01*
X43082843Y-52217158D02*
G75*
G02*
X42517157Y-52217158I-282843J0D01*
G01*
X42517157Y-52217158D02*
G75*
G02*
X43082843Y-52217158I282843J0D01*
G01*
X41082843Y-52217158D02*
G75*
G02*
X40517157Y-52217158I-282843J0D01*
G01*
X40517157Y-52217158D02*
G75*
G02*
X41082843Y-52217158I282843J0D01*
G01*
X51082843Y-52217158D02*
G75*
G02*
X50517157Y-52217158I-282843J0D01*
G01*
X50517157Y-52217158D02*
G75*
G02*
X51082843Y-52217158I282843J0D01*
G01*
X49082843Y-52217158D02*
G75*
G02*
X48517157Y-52217158I-282843J0D01*
G01*
X48517157Y-52217158D02*
G75*
G02*
X49082843Y-52217158I282843J0D01*
G01*
X47082843Y-52217158D02*
G75*
G02*
X46517157Y-52217158I-282843J0D01*
G01*
X46517157Y-52217158D02*
G75*
G02*
X47082843Y-52217158I282843J0D01*
G01*
X53100001Y-52200000D02*
G75*
G02*
X52534315Y-52200000I-282843J0D01*
G01*
X52534315Y-52200000D02*
G75*
G02*
X53100001Y-52200000I282843J0D01*
G01*
X55100001Y-52200000D02*
G75*
G02*
X54534315Y-52200000I-282843J0D01*
G01*
X54534315Y-52200000D02*
G75*
G02*
X55100001Y-52200000I282843J0D01*
G01*
X57100001Y-52200000D02*
G75*
G02*
X56534315Y-52200000I-282843J0D01*
G01*
X56534315Y-52200000D02*
G75*
G02*
X57100001Y-52200000I282843J0D01*
G01*
X60182843Y-52200000D02*
G75*
G02*
X59617157Y-52200000I-282843J0D01*
G01*
X59617157Y-52200000D02*
G75*
G02*
X60182843Y-52200000I282843J0D01*
G01*
X58965685Y-52200000D02*
G75*
G02*
X58399999Y-52200000I-282843J0D01*
G01*
X58399999Y-52200000D02*
G75*
G02*
X58965685Y-52200000I282843J0D01*
G01*
X61365685Y-52200000D02*
G75*
G02*
X60799999Y-52200000I-282843J0D01*
G01*
X60799999Y-52200000D02*
G75*
G02*
X61365685Y-52200000I282843J0D01*
G01*
X63765685Y-52200000D02*
G75*
G02*
X63199999Y-52200000I-282843J0D01*
G01*
X63199999Y-52200000D02*
G75*
G02*
X63765685Y-52200000I282843J0D01*
G01*
X62582843Y-52200000D02*
G75*
G02*
X62017157Y-52200000I-282843J0D01*
G01*
X62017157Y-52200000D02*
G75*
G02*
X62582843Y-52200000I282843J0D01*
G01*
X64982843Y-52200000D02*
G75*
G02*
X64417157Y-52200000I-282843J0D01*
G01*
X64417157Y-52200000D02*
G75*
G02*
X64982843Y-52200000I282843J0D01*
G01*
X66165685Y-52200000D02*
G75*
G02*
X65599999Y-52200000I-282843J0D01*
G01*
X65599999Y-52200000D02*
G75*
G02*
X66165685Y-52200000I282843J0D01*
G01*
X68565685Y-52200000D02*
G75*
G02*
X67999999Y-52200000I-282843J0D01*
G01*
X67999999Y-52200000D02*
G75*
G02*
X68565685Y-52200000I282843J0D01*
G01*
X67382843Y-52200000D02*
G75*
G02*
X66817157Y-52200000I-282843J0D01*
G01*
X66817157Y-52200000D02*
G75*
G02*
X67382843Y-52200000I282843J0D01*
G01*
X69782843Y-52200000D02*
G75*
G02*
X69217157Y-52200000I-282843J0D01*
G01*
X69217157Y-52200000D02*
G75*
G02*
X69782843Y-52200000I282843J0D01*
G01*
X70982843Y-52200000D02*
G75*
G02*
X70417157Y-52200000I-282843J0D01*
G01*
X70417157Y-52200000D02*
G75*
G02*
X70982843Y-52200000I282843J0D01*
G01*
X72200001Y-52200000D02*
G75*
G02*
X71634315Y-52200000I-282843J0D01*
G01*
X71634315Y-52200000D02*
G75*
G02*
X72200001Y-52200000I282843J0D01*
G01*
X73382843Y-52200000D02*
G75*
G02*
X72817157Y-52200000I-282843J0D01*
G01*
X72817157Y-52200000D02*
G75*
G02*
X73382843Y-52200000I282843J0D01*
G01*
X74600001Y-52200000D02*
G75*
G02*
X74034315Y-52200000I-282843J0D01*
G01*
X74034315Y-52200000D02*
G75*
G02*
X74600001Y-52200000I282843J0D01*
G01*
X77482843Y-52200000D02*
G75*
G02*
X76917157Y-52200000I-282843J0D01*
G01*
X76917157Y-52200000D02*
G75*
G02*
X77482843Y-52200000I282843J0D01*
G01*
X78700001Y-52200000D02*
G75*
G02*
X78134315Y-52200000I-282843J0D01*
G01*
X78134315Y-52200000D02*
G75*
G02*
X78700001Y-52200000I282843J0D01*
G01*
X83565685Y-52200000D02*
G75*
G02*
X82999999Y-52200000I-282843J0D01*
G01*
X82999999Y-52200000D02*
G75*
G02*
X83565685Y-52200000I282843J0D01*
G01*
X84782843Y-52200000D02*
G75*
G02*
X84217157Y-52200000I-282843J0D01*
G01*
X84217157Y-52200000D02*
G75*
G02*
X84782843Y-52200000I282843J0D01*
G01*
X87176777Y-51973223D02*
X87676777Y-51973223D01*
X87676777Y-51973223D02*
G75*
G02*
X87926777Y-52223223I3J-249997D01*
G01*
X86926777Y-52223223D02*
G75*
G02*
X87176777Y-51973223I249999J1D01*
G01*
X87176777Y-52473223D02*
G75*
G02*
X86926777Y-52223223I-1J249999D01*
G01*
X87676777Y-52473223D02*
X87176777Y-52473223D01*
X87926777Y-52223223D02*
G75*
G02*
X87676777Y-52473223I-249999J-1D01*
G01*
X89273223Y-52250000D02*
G75*
G02*
X89023223Y-52500000I-249999J-1D01*
G01*
X91850000Y-52526779D02*
X91350000Y-52526779D01*
X89950000Y-52500000D02*
G75*
G02*
X89700000Y-52250000I3J250003D01*
G01*
X89700000Y-52250000D02*
G75*
G02*
X89950000Y-51999994I250003J3D01*
G01*
X89950000Y-52000000D02*
X90450000Y-52000000D01*
X90700000Y-52250000D02*
G75*
G02*
X90450000Y-52499994I-249997J3D01*
G01*
X90450000Y-52000000D02*
G75*
G02*
X90700000Y-52250000I23J-249977D01*
G01*
X90450000Y-52500000D02*
X89950000Y-52500000D01*
X92100000Y-52276779D02*
G75*
G02*
X91850000Y-52526777I-249994J-4D01*
G01*
X89023223Y-52000000D02*
G75*
G02*
X89273223Y-52250000I3J-249997D01*
G01*
X91100000Y-52276779D02*
G75*
G02*
X91350000Y-52026777I249996J6D01*
G01*
X88523223Y-52500000D02*
G75*
G02*
X88273223Y-52250000I-1J249999D01*
G01*
X89023223Y-52500000D02*
X88523223Y-52500000D01*
X88523223Y-52000000D02*
X89023223Y-52000000D01*
X91350000Y-52526779D02*
G75*
G02*
X91100000Y-52276779I-4J249996D01*
G01*
X91850000Y-52026779D02*
G75*
G02*
X92100000Y-52276779I46J-249954D01*
G01*
X88273223Y-52250000D02*
G75*
G02*
X88523223Y-52000000I249999J1D01*
G01*
X91350000Y-52026779D02*
X91850000Y-52026779D01*
X95576777Y-52473223D02*
G75*
G02*
X95326777Y-52223223I-1J249999D01*
G01*
X95326777Y-52223223D02*
G75*
G02*
X95576777Y-51973223I249999J1D01*
G01*
X95576777Y-51973223D02*
X96076777Y-51973223D01*
X96326777Y-52223223D02*
G75*
G02*
X96076777Y-52473223I-249999J-1D01*
G01*
X96076777Y-51973223D02*
G75*
G02*
X96326777Y-52223223I3J-249997D01*
G01*
X96076777Y-52473223D02*
X95576777Y-52473223D01*
X93250000Y-52500000D02*
X92750000Y-52500000D01*
X92750000Y-52000000D02*
X93250000Y-52000000D01*
X93500000Y-52250000D02*
G75*
G02*
X93250000Y-52500000I-250000J0D01*
G01*
X92750000Y-52500000D02*
G75*
G02*
X92500000Y-52250000I0J250000D01*
G01*
X93250000Y-52000000D02*
G75*
G02*
X93500000Y-52250000I0J-250000D01*
G01*
X92500000Y-52250000D02*
G75*
G02*
X92750000Y-52000000I250000J0D01*
G01*
X94150000Y-52000000D02*
X94650000Y-52000000D01*
X94650000Y-52500000D02*
X94150000Y-52500000D01*
X94650000Y-52000000D02*
G75*
G02*
X94900000Y-52250000I0J-250000D01*
G01*
X94900000Y-52250000D02*
G75*
G02*
X94650000Y-52500000I-250000J0D01*
G01*
X93900000Y-52250000D02*
G75*
G02*
X94150000Y-52000000I250000J0D01*
G01*
X94150000Y-52500000D02*
G75*
G02*
X93900000Y-52250000I0J250000D01*
G01*
X27000000Y-36000000D02*
G75*
G02*
X25000000Y-36000000I-1000000J0D01*
G01*
X25000000Y-36000000D02*
G75*
G02*
X27000000Y-36000000I1000000J0D01*
G01*
X41000000Y-36000000D02*
G75*
G02*
X39000000Y-36000000I-1000000J0D01*
G01*
X39000000Y-36000000D02*
G75*
G02*
X41000000Y-36000000I1000000J0D01*
G01*
X55000000Y-36000000D02*
G75*
G02*
X53000000Y-36000000I-1000000J0D01*
G01*
X53000000Y-36000000D02*
G75*
G02*
X55000000Y-36000000I1000000J0D01*
G01*
X82000000Y-36000000D02*
G75*
G02*
X80000000Y-36000000I-1000000J0D01*
G01*
X80000000Y-36000000D02*
G75*
G02*
X82000000Y-36000000I1000000J0D01*
G01*
X110000000Y-36000000D02*
G75*
G02*
X108000000Y-36000000I-1000000J0D01*
G01*
X108000000Y-36000000D02*
G75*
G02*
X110000000Y-36000000I1000000J0D01*
G01*
X124000000Y-36000000D02*
G75*
G02*
X122000000Y-36000000I-1000000J0D01*
G01*
X122000000Y-36000000D02*
G75*
G02*
X124000000Y-36000000I1000000J0D01*
G01*
X138000000Y-36000000D02*
G75*
G02*
X136000000Y-36000000I-1000000J0D01*
G01*
X136000000Y-36000000D02*
G75*
G02*
X138000000Y-36000000I1000000J0D01*
G01*
X152000000Y-36000000D02*
G75*
G02*
X150000000Y-36000000I-1000000J0D01*
G01*
X150000000Y-36000000D02*
G75*
G02*
X152000000Y-36000000I1000000J0D01*
G01*
X166000000Y-36000000D02*
G75*
G02*
X164000000Y-36000000I-1000000J0D01*
G01*
X164000000Y-36000000D02*
G75*
G02*
X166000000Y-36000000I1000000J0D01*
G01*
X194000000Y-36000000D02*
G75*
G02*
X192000000Y-36000000I-1000000J0D01*
G01*
X192000000Y-36000000D02*
G75*
G02*
X194000000Y-36000000I1000000J0D01*
G01*
X208000000Y-36000000D02*
G75*
G02*
X206000000Y-36000000I-1000000J0D01*
G01*
X206000000Y-36000000D02*
G75*
G02*
X208000000Y-36000000I1000000J0D01*
G01*
X222000000Y-36000000D02*
G75*
G02*
X220000000Y-36000000I-1000000J0D01*
G01*
X220000000Y-36000000D02*
G75*
G02*
X222000000Y-36000000I1000000J0D01*
G01*
X210000000Y-46000000D02*
G75*
G02*
X208000000Y-46000000I-1000000J0D01*
G01*
X208000000Y-46000000D02*
G75*
G02*
X210000000Y-46000000I1000000J0D01*
G01*
X123000000Y-97000000D02*
G75*
G02*
X121000000Y-97000000I-1000000J0D01*
G01*
X121000000Y-97000000D02*
G75*
G02*
X123000000Y-97000000I1000000J0D01*
G01*
X158000000Y-72900000D02*
G75*
G02*
X156000000Y-72900000I-1000000J0D01*
G01*
X156000000Y-72900000D02*
G75*
G02*
X158000000Y-72900000I1000000J0D01*
G01*
X98000000Y-56000000D02*
G75*
G02*
X96000000Y-56000000I-1000000J0D01*
G01*
X96000000Y-56000000D02*
G75*
G02*
X98000000Y-56000000I1000000J0D01*
G01*
X250000000Y-36000000D02*
G75*
G02*
X248000000Y-36000000I-1000000J0D01*
G01*
X248000000Y-36000000D02*
G75*
G02*
X250000000Y-36000000I1000000J0D01*
G01*
X251000000Y-46000000D02*
G75*
G02*
X249000000Y-46000000I-1000000J0D01*
G01*
X249000000Y-46000000D02*
G75*
G02*
X251000000Y-46000000I1000000J0D01*
G01*
X237000000Y-46000000D02*
G75*
G02*
X235000000Y-46000000I-1000000J0D01*
G01*
X235000000Y-46000000D02*
G75*
G02*
X237000000Y-46000000I1000000J0D01*
G01*
X17000000Y-42000000D02*
G75*
G02*
X15000000Y-42000000I-1000000J0D01*
G01*
X15000000Y-42000000D02*
G75*
G02*
X17000000Y-42000000I1000000J0D01*
G01*
X31000000Y-42000000D02*
G75*
G02*
X29000000Y-42000000I-1000000J0D01*
G01*
X29000000Y-42000000D02*
G75*
G02*
X31000000Y-42000000I1000000J0D01*
G01*
X122000000Y-46000000D02*
G75*
G02*
X120000000Y-46000000I-1000000J0D01*
G01*
X120000000Y-46000000D02*
G75*
G02*
X122000000Y-46000000I1000000J0D01*
G01*
X262000000Y-35000000D02*
X262000000Y-40000000D01*
X250000000Y-52000000D01*
X97000000Y-52000000D01*
X96800000Y-52100000D01*
X96800000Y-52400000D01*
X97000000Y-52500000D01*
X98000000Y-52500000D01*
X100000000Y-54500000D01*
X100000000Y-63000000D01*
X103000000Y-66000000D01*
X164000000Y-66000000D01*
X166000000Y-68000000D01*
X169100000Y-68000000D01*
X170000000Y-68900000D01*
X170000000Y-133000000D01*
X169000000Y-134000000D01*
X163000000Y-134000000D01*
X159000000Y-138000000D01*
X18000000Y-138000000D01*
X14100000Y-134100000D01*
X14100000Y-55500000D01*
X17100000Y-52500000D01*
X22000000Y-52500000D01*
X22000000Y-52000000D01*
X21000000Y-52000000D01*
X13000000Y-44000000D01*
X13000000Y-34000000D01*
X15600000Y-31400000D01*
X258400000Y-31400000D01*
X262000000Y-35000000D01*
X180600000Y-34600000D02*
X180300000Y-34600000D01*
X180300000Y-34200000D01*
X180600000Y-34200000D01*
X180600000Y-34600000D01*
X180600000Y-33800000D02*
X180300000Y-33800000D01*
X180300000Y-33400000D01*
X180600000Y-33400000D01*
X180600000Y-33800000D01*
X180600000Y-35400000D02*
X180300000Y-35400000D01*
X180300000Y-35000000D01*
X180600000Y-35000000D01*
X180600000Y-35400000D01*
X180600000Y-37000000D02*
X180300000Y-37000000D01*
X180300000Y-36600000D01*
X180600000Y-36600000D01*
X180600000Y-37000000D01*
X180600000Y-36200000D02*
X180300000Y-36200000D01*
X180300000Y-35800000D01*
X180600000Y-35800000D01*
X180600000Y-36200000D01*
X180600000Y-37800000D02*
X180300000Y-37800000D01*
X180300000Y-37400000D01*
X180600000Y-37400000D01*
X180600000Y-37800000D01*
X180600000Y-40800000D02*
X180300000Y-40800000D01*
X180300000Y-40300000D01*
X180600000Y-40300000D01*
X180600000Y-40800000D01*
X180600000Y-44700000D02*
X180300000Y-44700000D01*
X180300000Y-44300000D01*
X180600000Y-44300000D01*
X180600000Y-44700000D01*
X180600000Y-45500000D02*
X180300000Y-45500000D01*
X180300000Y-45100000D01*
X180600000Y-45100000D01*
X180600000Y-45500000D01*
X233000000Y-34800000D02*
X232800000Y-34800000D01*
X232800000Y-34400000D01*
X233000000Y-34400000D01*
X233000000Y-34800000D01*
X233000000Y-34000000D02*
X232800000Y-34000000D01*
X232800000Y-33600000D01*
X233000000Y-33600000D01*
X233000000Y-34000000D01*
X233000000Y-38000000D02*
X232800000Y-38000000D01*
X232800000Y-37600000D01*
X233000000Y-37600000D01*
X233000000Y-38000000D01*
X233000000Y-36400000D02*
X232800000Y-36400000D01*
X232800000Y-36000000D01*
X233000000Y-36000000D01*
X233000000Y-36400000D01*
X233000000Y-37200000D02*
X232800000Y-37200000D01*
X232800000Y-36800000D01*
X233000000Y-36800000D01*
X233000000Y-37200000D01*
X233000000Y-35600000D02*
X232800000Y-35600000D01*
X232800000Y-35200000D01*
X233000000Y-35200000D01*
X233000000Y-35600000D01*
X233000000Y-41700000D02*
X232800000Y-41700000D01*
X232800000Y-41300000D01*
X233000000Y-41300000D01*
X233000000Y-41700000D01*
X233000000Y-45200000D02*
X232800000Y-45200000D01*
X232800000Y-44800000D01*
X233000000Y-44800000D01*
X233000000Y-45200000D01*
X233000000Y-46800000D02*
X232800000Y-46800000D01*
X232800000Y-46400000D01*
X233000000Y-46400000D01*
X233000000Y-46800000D01*
X233000000Y-46000000D02*
X232800000Y-46000000D01*
X232800000Y-45600000D01*
X233000000Y-45600000D01*
X233000000Y-46000000D01*
X233000000Y-42500000D02*
X232800000Y-42500000D01*
X232800000Y-42100000D01*
X233000000Y-42100000D01*
X233000000Y-42500000D01*
X180600000Y-46300000D02*
X180300000Y-46300000D01*
X180300000Y-45900000D01*
X180600000Y-45900000D01*
X180600000Y-46300000D01*
X180470000Y-23015000D02*
X180270000Y-23015000D01*
X180270000Y-22615000D01*
X180470000Y-22615000D01*
X180470000Y-23015000D01*
X32835686Y-67915000D02*
G75*
G02*
X30835686Y-67915000I-1000000J0D01*
G01*
X30835686Y-67915000D02*
G75*
G02*
X32835686Y-67915000I1000000J0D01*
G01*
X34115686Y-127600000D02*
G75*
G02*
X32115686Y-127600000I-1000000J0D01*
G01*
X32115686Y-127600000D02*
G75*
G02*
X34115686Y-127600000I1000000J0D01*
G01*
X155515686Y-111600000D02*
G75*
G02*
X153515686Y-111600000I-1000000J0D01*
G01*
X153515686Y-111600000D02*
G75*
G02*
X155515686Y-111600000I1000000J0D01*
G01*
X156015686Y-134300000D02*
G75*
G02*
X154015686Y-134300000I-1000000J0D01*
G01*
X154015686Y-134300000D02*
G75*
G02*
X156015686Y-134300000I1000000J0D01*
G01*
X178000000Y-46000000D02*
G75*
G02*
X176000000Y-46000000I-1000000J0D01*
G01*
X176000000Y-46000000D02*
G75*
G02*
X178000000Y-46000000I1000000J0D01*
G01*
X75215686Y-90400000D02*
G75*
G02*
X73215686Y-90400000I-1000000J0D01*
G01*
X73215686Y-90400000D02*
G75*
G02*
X75215686Y-90400000I1000000J0D01*
G01*
X27015686Y-134500000D02*
G75*
G02*
X25015686Y-134500000I-1000000J0D01*
G01*
X25015686Y-134500000D02*
G75*
G02*
X27015686Y-134500000I1000000J0D01*
G01*
X185000000Y-46000000D02*
G75*
G02*
X183000000Y-46000000I-1000000J0D01*
G01*
X183000000Y-46000000D02*
G75*
G02*
X185000000Y-46000000I1000000J0D01*
G01*
X79315686Y-127400000D02*
G75*
G02*
X77315686Y-127400000I-1000000J0D01*
G01*
X77315686Y-127400000D02*
G75*
G02*
X79315686Y-127400000I1000000J0D01*
G01*
X231000000Y-46000000D02*
G75*
G02*
X229000000Y-46000000I-1000000J0D01*
G01*
X229000000Y-46000000D02*
G75*
G02*
X231000000Y-46000000I1000000J0D01*
G01*
X151000000Y-46000000D02*
G75*
G02*
X149000000Y-46000000I-1000000J0D01*
G01*
X149000000Y-46000000D02*
G75*
G02*
X151000000Y-46000000I1000000J0D01*
G01*
X90015686Y-134500000D02*
G75*
G02*
X88015686Y-134500000I-1000000J0D01*
G01*
X88015686Y-134500000D02*
G75*
G02*
X90015686Y-134500000I1000000J0D01*
G01*
X78015686Y-62600000D02*
G75*
G02*
X76015686Y-62600000I-1000000J0D01*
G01*
X76015686Y-62600000D02*
G75*
G02*
X78015686Y-62600000I1000000J0D01*
G01*
M02*
