%TF.GenerationSoftware,KiCad,Pcbnew,8.0.3-1.fc40*%
%TF.CreationDate,2024-06-20T20:24:08-04:00*%
%TF.ProjectId,sampler_split_sensor,73616d70-6c65-4725-9f73-706c69745f73,rev?*%
%TF.SameCoordinates,Original*%
%TF.FileFunction,Soldermask,Top*%
%TF.FilePolarity,Negative*%
%FSLAX46Y46*%
G04 Gerber Fmt 4.6, Leading zero omitted, Abs format (unit mm)*
G04 Created by KiCad (PCBNEW 8.0.3-1.fc40) date 2024-06-20 20:24:08*
%MOMM*%
%LPD*%
G01*
G04 APERTURE LIST*
G04 Aperture macros list*
%AMRoundRect*
0 Rectangle with rounded corners*
0 $1 Rounding radius*
0 $2 $3 $4 $5 $6 $7 $8 $9 X,Y pos of 4 corners*
0 Add a 4 corners polygon primitive as box body*
4,1,4,$2,$3,$4,$5,$6,$7,$8,$9,$2,$3,0*
0 Add four circle primitives for the rounded corners*
1,1,$1+$1,$2,$3*
1,1,$1+$1,$4,$5*
1,1,$1+$1,$6,$7*
1,1,$1+$1,$8,$9*
0 Add four rect primitives between the rounded corners*
20,1,$1+$1,$2,$3,$4,$5,0*
20,1,$1+$1,$4,$5,$6,$7,0*
20,1,$1+$1,$6,$7,$8,$9,0*
20,1,$1+$1,$8,$9,$2,$3,0*%
%AMFreePoly0*
4,1,6,0.500000,-0.750000,-0.650000,-0.750000,-0.150000,0.000000,-0.650000,0.750000,0.500000,0.750000,0.500000,-0.750000,0.500000,-0.750000,$1*%
%AMFreePoly1*
4,1,6,1.000000,0.000000,0.500000,-0.750000,-0.500000,-0.750000,-0.500000,0.750000,0.500000,0.750000,1.000000,0.000000,1.000000,0.000000,$1*%
G04 Aperture macros list end*
%ADD10RoundRect,0.381000X0.381000X-0.762000X0.381000X0.762000X-0.381000X0.762000X-0.381000X-0.762000X0*%
%ADD11RoundRect,0.381000X-0.381000X0.762000X-0.381000X-0.762000X0.381000X-0.762000X0.381000X0.762000X0*%
%ADD12R,1.500000X1.500000*%
%ADD13C,1.500000*%
%ADD14C,1.374000*%
%ADD15RoundRect,0.102000X0.585000X0.585000X-0.585000X0.585000X-0.585000X-0.585000X0.585000X-0.585000X0*%
%ADD16RoundRect,0.099250X0.297750X-0.987750X0.297750X0.987750X-0.297750X0.987750X-0.297750X-0.987750X0*%
%ADD17FreePoly0,270.000000*%
%ADD18FreePoly1,270.000000*%
%ADD19FreePoly1,0.000000*%
%ADD20FreePoly1,180.000000*%
%ADD21RoundRect,0.381000X-0.762000X-0.381000X0.762000X-0.381000X0.762000X0.381000X-0.762000X0.381000X0*%
%ADD22RoundRect,0.102000X-0.685000X-0.685000X0.685000X-0.685000X0.685000X0.685000X-0.685000X0.685000X0*%
%ADD23C,1.574000*%
%ADD24R,1.600000X1.600000*%
%ADD25C,1.600000*%
%ADD26R,1.300000X1.300000*%
%ADD27C,1.300000*%
G04 APERTURE END LIST*
D10*
%TO.C,J5*%
X23799999Y-50200000D03*
X25799998Y-50200000D03*
X27799999Y-50200000D03*
X29800000Y-50200000D03*
X31799999Y-50200000D03*
X33799999Y-50200000D03*
X35799999Y-50200000D03*
X37799999Y-50200000D03*
X39799998Y-50200000D03*
X41799999Y-50200000D03*
X43800000Y-50200000D03*
X45799999Y-50200000D03*
X47799999Y-50200000D03*
X49799999Y-50200000D03*
X51799999Y-50200000D03*
X53799999Y-50200000D03*
X55799999Y-50200000D03*
X57799998Y-50200000D03*
X59799999Y-50200000D03*
X61800000Y-50200000D03*
X63799999Y-50200000D03*
X65799999Y-50200000D03*
X67799999Y-50200000D03*
X69799999Y-50200000D03*
X71799998Y-50200000D03*
X73799999Y-50200000D03*
X75800000Y-50200000D03*
X77799999Y-50200000D03*
X79799999Y-50200000D03*
X81799999Y-50200000D03*
X83799999Y-50200000D03*
X85799999Y-50200000D03*
%TD*%
D11*
%TO.C,J4*%
X85800001Y-55000000D03*
X83800002Y-55000000D03*
X81800001Y-55000000D03*
X79800000Y-55000000D03*
X77800001Y-55000000D03*
X75800001Y-55000000D03*
X73800001Y-55000000D03*
X71800001Y-55000000D03*
X69800002Y-55000000D03*
X67800001Y-55000000D03*
X65800000Y-55000000D03*
X63800001Y-55000000D03*
X61800001Y-55000000D03*
X59800001Y-55000000D03*
X57800001Y-55000000D03*
X55800001Y-55000000D03*
X53800001Y-55000000D03*
X51800002Y-55000000D03*
X49800001Y-55000000D03*
X47800000Y-55000000D03*
X45800001Y-55000000D03*
X43800001Y-55000000D03*
X41800001Y-55000000D03*
X39800001Y-55000000D03*
X37800002Y-55000000D03*
X35800001Y-55000000D03*
X33800000Y-55000000D03*
X31800001Y-55000000D03*
X29800001Y-55000000D03*
X27800001Y-55000000D03*
X25800001Y-55000000D03*
X23800001Y-55000000D03*
%TD*%
D12*
%TO.C,U4*%
X43960000Y-35860000D03*
D13*
X46500000Y-35860000D03*
X49040000Y-35860000D03*
%TD*%
D12*
%TO.C,U14*%
X183960000Y-35860000D03*
D13*
X186500000Y-35860000D03*
X189040000Y-35860000D03*
%TD*%
D12*
%TO.C,U2*%
X15960000Y-35860000D03*
D13*
X18500000Y-35860000D03*
X21040000Y-35860000D03*
%TD*%
D12*
%TO.C,U5*%
X57960000Y-35860000D03*
D13*
X60500000Y-35860000D03*
X63040000Y-35860000D03*
%TD*%
D12*
%TO.C,U3*%
X29960000Y-35860000D03*
D13*
X32500000Y-35860000D03*
X35040000Y-35860000D03*
%TD*%
D12*
%TO.C,U12*%
X155960000Y-35860000D03*
D13*
X158500000Y-35860000D03*
X161040000Y-35860000D03*
%TD*%
D12*
%TO.C,U18*%
X239960000Y-35860000D03*
D13*
X242500000Y-35860000D03*
X245040000Y-35860000D03*
%TD*%
D12*
%TO.C,U17*%
X225960000Y-35860000D03*
D13*
X228500000Y-35860000D03*
X231040000Y-35860000D03*
%TD*%
D12*
%TO.C,U6*%
X71960000Y-35860000D03*
D13*
X74500000Y-35860000D03*
X77040000Y-35860000D03*
%TD*%
D12*
%TO.C,U8*%
X99960000Y-35860000D03*
D13*
X102500000Y-35860000D03*
X105040000Y-35860000D03*
%TD*%
D12*
%TO.C,U11*%
X141960000Y-35860000D03*
D13*
X144500000Y-35860000D03*
X147040000Y-35860000D03*
%TD*%
D12*
%TO.C,U7*%
X85960000Y-35860000D03*
D13*
X88500000Y-35860000D03*
X91040000Y-35860000D03*
%TD*%
D12*
%TO.C,U10*%
X127960000Y-35860000D03*
D13*
X130500000Y-35860000D03*
X133040000Y-35860000D03*
%TD*%
D12*
%TO.C,U19*%
X253960000Y-35860000D03*
D13*
X256500000Y-35860000D03*
X259040000Y-35860000D03*
%TD*%
D12*
%TO.C,U9*%
X113960000Y-35860000D03*
D13*
X116500000Y-35860000D03*
X119040000Y-35860000D03*
%TD*%
D12*
%TO.C,U15*%
X197960000Y-35860000D03*
D13*
X200500000Y-35860000D03*
X203040000Y-35860000D03*
%TD*%
D12*
%TO.C,U13*%
X169960000Y-35860000D03*
D13*
X172500000Y-35860000D03*
X175040000Y-35860000D03*
%TD*%
D12*
%TO.C,U16*%
X211960000Y-35860000D03*
D13*
X214500000Y-35860000D03*
X217040000Y-35860000D03*
%TD*%
D14*
%TO.C,BOARDSEL_ENABLE1*%
X131955686Y-130120000D03*
X131955686Y-127580000D03*
X131955686Y-125040000D03*
X131955686Y-122500000D03*
X131955686Y-119960000D03*
X131955686Y-117420000D03*
X131955686Y-114880000D03*
X139895686Y-114880000D03*
X139895686Y-117420000D03*
X139895686Y-119960000D03*
X139895686Y-122500000D03*
X139895686Y-125040000D03*
X139895686Y-127580000D03*
D15*
X139895686Y-130120000D03*
%TD*%
D16*
%TO.C,DG452_0*%
X104810686Y-127320000D03*
X106080686Y-127320000D03*
X107350686Y-127320000D03*
X108620686Y-127320000D03*
X109890686Y-127320000D03*
X111160686Y-127320000D03*
X112430686Y-127320000D03*
X113700686Y-127320000D03*
X113700686Y-122370000D03*
X112430686Y-122370000D03*
X111160686Y-122370000D03*
X109890686Y-122370000D03*
X108620686Y-122370000D03*
X107350686Y-122370000D03*
X106080686Y-122370000D03*
X104810686Y-122370000D03*
%TD*%
D17*
%TO.C,JP52*%
X33115686Y-63400000D03*
D18*
X33115686Y-61950000D03*
%TD*%
D17*
%TO.C,JP53*%
X35615686Y-63400000D03*
D18*
X35615686Y-61950000D03*
%TD*%
D16*
%TO.C,DG452_2*%
X104865686Y-102750000D03*
X106135686Y-102750000D03*
X107405686Y-102750000D03*
X108675686Y-102750000D03*
X109945686Y-102750000D03*
X111215686Y-102750000D03*
X112485686Y-102750000D03*
X113755686Y-102750000D03*
X113755686Y-97800000D03*
X112485686Y-97800000D03*
X111215686Y-97800000D03*
X109945686Y-97800000D03*
X108675686Y-97800000D03*
X107405686Y-97800000D03*
X106135686Y-97800000D03*
X104865686Y-97800000D03*
%TD*%
%TO.C,DG452_3*%
X104810686Y-90275000D03*
X106080686Y-90275000D03*
X107350686Y-90275000D03*
X108620686Y-90275000D03*
X109890686Y-90275000D03*
X111160686Y-90275000D03*
X112430686Y-90275000D03*
X113700686Y-90275000D03*
X113700686Y-85325000D03*
X112430686Y-85325000D03*
X111160686Y-85325000D03*
X109890686Y-85325000D03*
X108620686Y-85325000D03*
X107350686Y-85325000D03*
X106080686Y-85325000D03*
X104810686Y-85325000D03*
%TD*%
D19*
%TO.C,JP2*%
X122715686Y-124500000D03*
D20*
X126715686Y-124500000D03*
D12*
X123515686Y-124500000D03*
X125915686Y-124500000D03*
%TD*%
D19*
%TO.C,JP4*%
X122715686Y-116000000D03*
D20*
X126715686Y-116000000D03*
D12*
X123515686Y-116000000D03*
X125915686Y-116000000D03*
%TD*%
D16*
%TO.C,DG45_4*%
X104845686Y-78800000D03*
X106115686Y-78800000D03*
X107385686Y-78800000D03*
X108655686Y-78800000D03*
X109925686Y-78800000D03*
X111195686Y-78800000D03*
X112465686Y-78800000D03*
X113735686Y-78800000D03*
X113735686Y-73850000D03*
X112465686Y-73850000D03*
X111195686Y-73850000D03*
X109925686Y-73850000D03*
X108655686Y-73850000D03*
X107385686Y-73850000D03*
X106115686Y-73850000D03*
X104845686Y-73850000D03*
%TD*%
D19*
%TO.C,JP1*%
X122715686Y-129500000D03*
D20*
X126715686Y-129500000D03*
D12*
X123515686Y-129500000D03*
X125915686Y-129500000D03*
%TD*%
D17*
%TO.C,JP49*%
X25615686Y-63400000D03*
D18*
X25615686Y-61950000D03*
%TD*%
D17*
%TO.C,JP61*%
X55615686Y-63400000D03*
D18*
X55615686Y-61950000D03*
%TD*%
D17*
%TO.C,JP59*%
X50615686Y-63425000D03*
D18*
X50615686Y-61975000D03*
%TD*%
D17*
%TO.C,JP57*%
X45615686Y-63425000D03*
D18*
X45615686Y-61975000D03*
%TD*%
D17*
%TO.C,JP60*%
X53115686Y-63400000D03*
D18*
X53115686Y-61950000D03*
%TD*%
D17*
%TO.C,JP54*%
X38115686Y-63400000D03*
D18*
X38115686Y-61950000D03*
%TD*%
D17*
%TO.C,JP64*%
X63115686Y-63425000D03*
D18*
X63115686Y-61975000D03*
%TD*%
%TO.C,JP23*%
X71435686Y-85115000D03*
D17*
X71435686Y-86565000D03*
%TD*%
%TO.C,JP58*%
X48115686Y-63425000D03*
D18*
X48115686Y-61975000D03*
%TD*%
D17*
%TO.C,JP51*%
X30615686Y-63400000D03*
D18*
X30615686Y-61950000D03*
%TD*%
D21*
%TO.C,J2*%
X166515686Y-70100000D03*
X166515686Y-72100000D03*
X166515686Y-74100000D03*
X166515686Y-76100000D03*
X166515686Y-78100000D03*
X166515686Y-80100000D03*
X166515686Y-82100000D03*
X166515686Y-84100000D03*
X166515686Y-86100000D03*
X166515686Y-88100000D03*
X166515686Y-90100000D03*
X166515686Y-92100000D03*
X166515686Y-94100000D03*
X166515686Y-96100000D03*
X166515686Y-98100000D03*
X166515686Y-100100000D03*
X166515686Y-102100000D03*
X166515686Y-104100000D03*
X166515686Y-106100000D03*
X166515686Y-108100000D03*
X166515686Y-110100000D03*
X166515686Y-112100000D03*
X166515686Y-114100000D03*
X166515686Y-116100000D03*
X166515686Y-118100000D03*
X166515686Y-120100000D03*
X166515686Y-122100000D03*
X166515686Y-124100000D03*
X166515686Y-126100000D03*
X166515686Y-128100000D03*
X166515686Y-130100000D03*
X166515686Y-132100000D03*
%TD*%
%TO.C,J3*%
X16535686Y-56715000D03*
X16535686Y-58715000D03*
X16535686Y-60715000D03*
X16535686Y-62715000D03*
X16535686Y-64715000D03*
X16535686Y-66715000D03*
X16535686Y-68715000D03*
X16535686Y-70715000D03*
X16535686Y-72715000D03*
X16535686Y-74715000D03*
X16535686Y-76715000D03*
X16535686Y-78715000D03*
X16535686Y-80715000D03*
X16535686Y-82715000D03*
X16535686Y-84715000D03*
X16535686Y-86715000D03*
X16535686Y-88715000D03*
X16535686Y-90715000D03*
X16535686Y-92715000D03*
X16535686Y-94715000D03*
X16535686Y-96715000D03*
X16535686Y-98715000D03*
X16535686Y-100715000D03*
X16535686Y-102715000D03*
X16535686Y-104715000D03*
X16535686Y-106715000D03*
X16535686Y-108715000D03*
X16535686Y-110715000D03*
X16535686Y-112715000D03*
X16535686Y-114715000D03*
X16535686Y-116715000D03*
X16535686Y-118715000D03*
%TD*%
D17*
%TO.C,JP50*%
X28115686Y-63400000D03*
D18*
X28115686Y-61950000D03*
%TD*%
D19*
%TO.C,JP3*%
X122715686Y-120000000D03*
D20*
X126715686Y-120000000D03*
D12*
X123515686Y-120000000D03*
X125915686Y-120000000D03*
%TD*%
D17*
%TO.C,JP55*%
X40615686Y-63400000D03*
D18*
X40615686Y-61950000D03*
%TD*%
D16*
%TO.C,DG452_1*%
X104810686Y-115225000D03*
X106080686Y-115225000D03*
X107350686Y-115225000D03*
X108620686Y-115225000D03*
X109890686Y-115225000D03*
X111160686Y-115225000D03*
X112430686Y-115225000D03*
X113700686Y-115225000D03*
X113700686Y-110275000D03*
X112430686Y-110275000D03*
X111160686Y-110275000D03*
X109890686Y-110275000D03*
X108620686Y-110275000D03*
X107350686Y-110275000D03*
X106080686Y-110275000D03*
X104810686Y-110275000D03*
%TD*%
D17*
%TO.C,JP65*%
X65615686Y-63425000D03*
D18*
X65615686Y-61975000D03*
%TD*%
D17*
%TO.C,JP63*%
X60615686Y-63400000D03*
D18*
X60615686Y-61950000D03*
%TD*%
D17*
%TO.C,JP48*%
X23115686Y-63400000D03*
D18*
X23115686Y-61950000D03*
%TD*%
D22*
%TO.C,J1*%
X22775686Y-81540000D03*
D23*
X22775686Y-79000000D03*
X25315686Y-81540000D03*
X25315686Y-79000000D03*
X27855686Y-81540000D03*
X27855686Y-79000000D03*
X30395686Y-81540000D03*
X30395686Y-79000000D03*
X32935686Y-81540000D03*
X32935686Y-79000000D03*
X35475686Y-81540000D03*
X35475686Y-79000000D03*
X38015686Y-81540000D03*
X38015686Y-79000000D03*
X40555686Y-81540000D03*
X40555686Y-79000000D03*
X43095686Y-81540000D03*
X43095686Y-79000000D03*
X45635686Y-81540000D03*
X45635686Y-79000000D03*
X48175686Y-81540000D03*
X48175686Y-79000000D03*
X50715686Y-81540000D03*
X50715686Y-79000000D03*
X53255686Y-81540000D03*
X53255686Y-79000000D03*
X55795686Y-81540000D03*
X55795686Y-79000000D03*
X58335686Y-81540000D03*
X58335686Y-79000000D03*
X60875686Y-81540000D03*
X60875686Y-79000000D03*
X63415686Y-81540000D03*
X63415686Y-79000000D03*
X65955686Y-81540000D03*
X65955686Y-79000000D03*
X68495686Y-81540000D03*
X68495686Y-79000000D03*
X71035686Y-81540000D03*
X71035686Y-79000000D03*
%TD*%
D24*
%TO.C,U1*%
X19805686Y-123620000D03*
D25*
X22345686Y-123620000D03*
X24885686Y-123620000D03*
X27425686Y-123620000D03*
X29965686Y-123620000D03*
X32505686Y-123620000D03*
X35045686Y-123620000D03*
X37585686Y-123620000D03*
X40125686Y-123620000D03*
X42665686Y-123620000D03*
X45205686Y-123620000D03*
X47745686Y-123620000D03*
X50285686Y-123620000D03*
X52825686Y-123620000D03*
X55365686Y-123620000D03*
X57905686Y-123620000D03*
X60445686Y-123620000D03*
X62985686Y-123620000D03*
X65525686Y-123620000D03*
X68065686Y-123620000D03*
X70605686Y-123620000D03*
X73145686Y-123620000D03*
X75685686Y-123620000D03*
X78225686Y-123620000D03*
X78225686Y-108380000D03*
X75685686Y-108380000D03*
X73145686Y-108380000D03*
X70605686Y-108380000D03*
X68065686Y-108380000D03*
X65525686Y-108380000D03*
X62985686Y-108380000D03*
X60445686Y-108380000D03*
X57905686Y-108380000D03*
X55365686Y-108380000D03*
X52825686Y-108380000D03*
X50285686Y-108380000D03*
X47745686Y-108380000D03*
X45205686Y-108380000D03*
X42665686Y-108380000D03*
X40125686Y-108380000D03*
X37585686Y-108380000D03*
X35045686Y-108380000D03*
X32505686Y-108380000D03*
X29965686Y-108380000D03*
X27425686Y-108380000D03*
X24885686Y-108380000D03*
X22345686Y-108380000D03*
X19805686Y-108380000D03*
X22345686Y-110920000D03*
X65525686Y-121080000D03*
X65525686Y-118540000D03*
X65525686Y-116000000D03*
X65525686Y-113460000D03*
X65525686Y-110920000D03*
D24*
X26104886Y-120569200D03*
D25*
X28644886Y-120569200D03*
X31184886Y-120569200D03*
X33724886Y-120569200D03*
X36264886Y-120569200D03*
D26*
X32775686Y-110818400D03*
D27*
X32775686Y-112818400D03*
X32775686Y-114818400D03*
X34775686Y-114818400D03*
X34775686Y-112818400D03*
X34775686Y-110818400D03*
X20535686Y-114730000D03*
X20535686Y-117270000D03*
%TD*%
D15*
%TO.C,BOARDSEL_CMP1*%
X151955686Y-130160000D03*
D14*
X151955686Y-127620000D03*
X151955686Y-125080000D03*
X151955686Y-122540000D03*
X151955686Y-120000000D03*
X151955686Y-117460000D03*
X151955686Y-114920000D03*
X144015686Y-114920000D03*
X144015686Y-117460000D03*
X144015686Y-120000000D03*
X144015686Y-122540000D03*
X144015686Y-125080000D03*
X144015686Y-127620000D03*
X144015686Y-130160000D03*
%TD*%
D17*
%TO.C,JP56*%
X43115686Y-63425000D03*
D18*
X43115686Y-61975000D03*
%TD*%
D17*
%TO.C,JP62*%
X58115686Y-63400000D03*
D18*
X58115686Y-61950000D03*
%TD*%
M02*
